<svg id="1abee87e-c420-42b7-b31d-87de8f4d6928" data-name="Capa 1" xmlns="http://www.w3.org/2000/svg" viewBox="0 0 56.22 52.42"><defs><style>.\32 02c4002-ac3a-4e78-9a18-c741be1bc289{fill:#0b0b0b;}.\36 b73b069-1fd7-49ad-9a77-5454c9ea548a{fill:#f4c99e;}.\34 45f41a2-89b4-450b-b5a1-8ed2e427146f{fill:#0a0807;}</style></defs><title>emoji2</title><path class="202c4002-ac3a-4e78-9a18-c741be1bc289" d="M394.3,685.82c6.9-7.28,9.4-16,7.31-25.64-1.84-8.52-7.57-14.13-15.47-17.42a32.45,32.45,0,0,0-14.72-2.12c-4.79.32-9.44,1.28-13.6,3.91-6.2,3.93-10.19,9.43-11.39,16.67-1.13,6.85.76,13.15,4.44,18.93a32.9,32.9,0,0,0,2.45,3.42,13.29,13.29,0,0,0,2.22,2.17,28.51,28.51,0,0,0,7.9,4.73c6.75,2.57,13.65,3.38,20.69,1.32A92.67,92.67,0,0,0,394.3,685.82Zm-16.37,4.62c-7.68-.25-13.23-1.5-18.23-4.76-5.65-3.68-8.84-9.09-10.37-15.46A20.15,20.15,0,0,1,353,652.31a21.59,21.59,0,0,1,11.21-7.82,32.19,32.19,0,0,1,21.65.89,22.15,22.15,0,0,1,12.71,13.15,22.89,22.89,0,0,1,.3,14.61c-1.89,6.4-5.53,11.52-11.56,14.67C383.81,689.63,380.09,690.6,377.93,690.45Z" transform="translate(-346.11 -640.55)"/><path class="6b73b069-1fd7-49ad-9a77-5454c9ea548a" d="M377.93,690.45c-7.68-.25-13.23-1.5-18.23-4.76-5.65-3.68-8.84-9.09-10.37-15.46A20.15,20.15,0,0,1,353,652.31a21.59,21.59,0,0,1,11.21-7.82,32.19,32.19,0,0,1,21.65.89,22.15,22.15,0,0,1,12.71,13.15,22.89,22.89,0,0,1,.3,14.61c-1.89,6.4-5.53,11.52-11.56,14.67C383.81,689.63,380.09,690.6,377.93,690.45Zm.31-23.43a17.12,17.12,0,0,1-9.11-1.32c-.81-.35-1,.19-1.14.7-.72,2-1,4,.48,5.68s3.62,1.75,5.7,1.33c1.53-.31,2-1,2-2.58S376.21,667.64,378.24,667ZM383,660.3a3.43,3.43,0,0,0,3.08,3.62,3.57,3.57,0,0,0,3.76-3.47,3.4,3.4,0,0,0-3.31-3.43A3.23,3.23,0,0,0,383,660.3Zm-14-3.9a3.34,3.34,0,0,0-3.45,3.25,3.51,3.51,0,0,0,3.45,3.61,3.38,3.38,0,0,0,3.39-3.45A3.2,3.2,0,0,0,369,656.41Zm4.29,18.52c2,.25,2.73-.1,2.79-1.29A4.17,4.17,0,0,1,373.32,674.93Z" transform="translate(-346.11 -640.55)"/><path class="445f41a2-89b4-450b-b5a1-8ed2e427146f" d="M378.24,667c-2,.63-2,2.26-2,3.82s-.5,2.27-2,2.58c-2.08.42-4.21.36-5.7-1.33s-1.2-3.71-.48-5.68c.19-.51.33-1,1.14-.7A17.12,17.12,0,0,0,378.24,667Z" transform="translate(-346.11 -640.55)"/><path class="445f41a2-89b4-450b-b5a1-8ed2e427146f" d="M383,660.3a3.23,3.23,0,0,1,3.53-3.27,3.4,3.4,0,0,1,3.31,3.43,3.57,3.57,0,0,1-3.76,3.47A3.43,3.43,0,0,1,383,660.3Z" transform="translate(-346.11 -640.55)"/><path class="445f41a2-89b4-450b-b5a1-8ed2e427146f" d="M369,656.41a3.2,3.2,0,0,1,3.39,3.41,3.38,3.38,0,0,1-3.39,3.45,3.51,3.51,0,0,1-3.45-3.61A3.34,3.34,0,0,1,369,656.41Z" transform="translate(-346.11 -640.55)"/><path class="445f41a2-89b4-450b-b5a1-8ed2e427146f" d="M373.32,674.93a4.17,4.17,0,0,0,2.79-1.29C376,674.83,375.31,675.18,373.32,674.93Z" transform="translate(-346.11 -640.55)"/></svg>