<svg id="ff5bf8ce-02d9-45b2-94a7-81d8dc8b6a7c" data-name="Capa 1" xmlns="http://www.w3.org/2000/svg" viewBox="0 0 56.26 52.28"><defs><style>.\31 28471d8-ec68-4515-b64f-6088d3b48240{fill:#090909;}.e370a1a7-d5cc-40c1-8bf3-5d73fa0ec330{fill:#f5ca9e;}.\32 c7e8147-f75a-4ba2-81c8-49f32f4e982e{fill:#080605;}.e7ae7ade-a649-45e2-9afc-9fa4778ea441{fill:#080807;}.f0759106-0f72-49af-9bbb-b733b8fa5361{fill:#3d3025;}</style></defs><title>emoji3</title><path class="128471d8-ec68-4515-b64f-6088d3b48240" d="M395.13,648.72a26.26,26.26,0,0,0-15.33-7.31c-9.12-1.19-17.72-.17-25.05,6a23,23,0,0,0-8,14,26.1,26.1,0,0,0,2.66,16,46.77,46.77,0,0,0,2.84,4.83,1.26,1.26,0,0,1,.45,1c1.11,1,2.19,2,3.26,3.06v-.06a30.63,30.63,0,0,0,6.71,4.12,35.47,35.47,0,0,0,16.35,2.82c.74,0,7-1.53,7.34-1.67a24.51,24.51,0,0,0,14.8-16.17C404.29,665.42,402.86,656.26,395.13,648.72ZM388,687.94c-5.54,3.21-11.57,3.37-17.69,2.15-4.75-.94-9.27-2.61-12.81-6-6.62-6.29-9.73-14.1-8.13-23.19,1-5.81,4.55-10.32,9.59-13.49,7.73-4.86,16.11-4.86,24.5-2.59,7.64,2.07,12.84,7.24,15.68,14.62a20.57,20.57,0,0,1,1,7.09C399.74,675.73,396.22,683.2,388,687.94Z" transform="translate(-346.45 -640.96)"/><path class="e370a1a7-d5cc-40c1-8bf3-5d73fa0ec330" d="M400.19,666.57c-.45,9.16-4,16.63-12.14,21.37-5.54,3.21-11.57,3.37-17.69,2.15-4.75-.94-9.27-2.61-12.81-6-6.62-6.29-9.73-14.1-8.13-23.19,1-5.81,4.55-10.32,9.59-13.49,7.73-4.86,16.11-4.86,24.5-2.59,7.64,2.07,12.84,7.24,15.68,14.62A20.57,20.57,0,0,1,400.19,666.57Zm-15.53,12.34-1.08-.08a9.61,9.61,0,0,0-4.05,0l-1.07.07-.28.06-1.07.18c-.2,0-.26.06-.26.23a12.86,12.86,0,0,0-1.34,6.26c1.24-.9,2.24-1.72,3.35-2.39,2.86-1.72,5.26-1.29,7.3,1.31.5.64.83.48,1.27,0a7.33,7.33,0,0,0,1.78-4.39c.06-.19,0-.25-.21-.24l-1.47-.43-.41-.13-2-.44Zm8.06.41a3.62,3.62,0,0,0,3.72-3.49,3.48,3.48,0,0,0-3.31-3.42,3.3,3.3,0,0,0-3.56,3.38A3.39,3.39,0,0,0,392.72,679.33ZM379,675.25a3.26,3.26,0,0,0-3.47-3.45,3.31,3.31,0,0,0-3.36,3.3,3.46,3.46,0,0,0,3.59,3.55A3.33,3.33,0,0,0,379,675.25Zm12-9.76c2.72,1.71,5.33,3.61,8.41,4.67A24.71,24.71,0,0,0,391,665.49Zm-20.57,3.88.31.49,8.25-4.74-.28-.47A44.22,44.22,0,0,0,370.4,669.37Z" transform="translate(-346.45 -640.96)"/><path class="2c7e8147-f75a-4ba2-81c8-49f32f4e982e" d="M387.51,679.53,389,680l.21.24a7.33,7.33,0,0,1-1.78,4.39c-.44.46-.77.62-1.27,0-2-2.59-4.44-3-7.3-1.31-1.1.66-2.1,1.49-3.35,2.39a12.86,12.86,0,0,1,1.34-6.26l.26-.23,1.07-.18c.13.14.22.08.28-.06l1.07-.07a7.09,7.09,0,0,0,4.05,0l1.08.08a.27.27,0,0,0,.41,0l2,.44A.33.33,0,0,0,387.51,679.53Z" transform="translate(-346.45 -640.96)"/><path class="e7ae7ade-a649-45e2-9afc-9fa4778ea441" d="M392.72,679.33a3.39,3.39,0,0,1-3.15-3.53,3.3,3.3,0,0,1,3.56-3.38,3.48,3.48,0,0,1,3.31,3.42A3.62,3.62,0,0,1,392.72,679.33Z" transform="translate(-346.45 -640.96)"/><path class="2c7e8147-f75a-4ba2-81c8-49f32f4e982e" d="M379,675.25a3.33,3.33,0,0,1-3.25,3.4,3.46,3.46,0,0,1-3.59-3.55,3.31,3.31,0,0,1,3.36-3.3A3.26,3.26,0,0,1,379,675.25Z" transform="translate(-346.45 -640.96)"/><path class="f0759106-0f72-49af-9bbb-b733b8fa5361" d="M391,665.49a24.71,24.71,0,0,1,8.41,4.67C396.31,669.11,393.69,667.2,391,665.49Z" transform="translate(-346.45 -640.96)"/><path class="f0759106-0f72-49af-9bbb-b733b8fa5361" d="M370.4,669.37a44.22,44.22,0,0,1,8.28-4.72l.28.47-8.25,4.74Z" transform="translate(-346.45 -640.96)"/><path class="f0759106-0f72-49af-9bbb-b733b8fa5361" d="M383.58,678.84a7.09,7.09,0,0,1-4.05,0A9.61,9.61,0,0,1,383.58,678.84Z" transform="translate(-346.45 -640.96)"/><path class="f0759106-0f72-49af-9bbb-b733b8fa5361" d="M378.45,678.91c-.07.14-.16.19-.28.06Z" transform="translate(-346.45 -640.96)"/><path class="f0759106-0f72-49af-9bbb-b733b8fa5361" d="M385.07,679a.27.27,0,0,1-.41,0Z" transform="translate(-346.45 -640.96)"/><path class="f0759106-0f72-49af-9bbb-b733b8fa5361" d="M377.1,679.15l-.26.23C376.83,679.2,376.9,679.1,377.1,679.15Z" transform="translate(-346.45 -640.96)"/><path class="f0759106-0f72-49af-9bbb-b733b8fa5361" d="M387.51,679.53a.33.33,0,0,1-.41-.13Z" transform="translate(-346.45 -640.96)"/><path class="f0759106-0f72-49af-9bbb-b733b8fa5361" d="M389.19,680.2,389,680C389.16,679.94,389.25,680,389.19,680.2Z" transform="translate(-346.45 -640.96)"/></svg>