<svg id="18ccc05c-1921-49dd-96a3-758057ff5d1d" data-name="Capa 1" xmlns="http://www.w3.org/2000/svg" viewBox="0 0 56.48 52.58"><defs><style>.c3b301a0-8ee4-41be-a768-7c66b23c3c68{fill:#090909;}.\33 bf2b80f-1766-4357-964b-7be6397a30ea{fill:#f5ca9f;}.\32 810181e-6d9d-4772-8170-cb81862e65d2{fill:#0a0806;}.d78bfa31-99f1-455e-a40e-42608b9b3d2d{fill:#171717;}</style></defs><title>emoji1</title><path class="c3b301a0-8ee4-41be-a768-7c66b23c3c68" d="M402.22,658.76a21.55,21.55,0,0,0-3.78-7.29A26.35,26.35,0,0,0,380.83,641a35.73,35.73,0,0,0-17.95,1.35,23.92,23.92,0,0,0-11.77,8.91,22.77,22.77,0,0,0-4.34,15.07,29.47,29.47,0,0,0,3.49,11.86A28.69,28.69,0,0,0,355,684.6a1.15,1.15,0,0,1,.35.71,2,2,0,0,1,1.57,1.49h0c0-.17,0-.06,0,0q1,.63,2,1.3a10.71,10.71,0,0,1,2.09,1.25,2.19,2.19,0,0,1,.36.19l-.24-.22a39.05,39.05,0,0,0,8.34,2.81c6,1.22,12,1.31,17.79-1.13l0,0a2.52,2.52,0,0,1,.43-.19,7,7,0,0,0,1.52-.76c.58-.35,1.16-.72,1.75-1.06a2.3,2.3,0,0,1,.44-.19,26.85,26.85,0,0,0,11.41-18.94A28.06,28.06,0,0,0,402.22,658.76ZM397,679.36a22.88,22.88,0,0,1-7.56,7.78,24.47,24.47,0,0,1-15.72,3.15,31.27,31.27,0,0,1-12.63-4.1c-5-3-8.14-7.45-10.15-12.8a24,24,0,0,1-1.64-9.81,20.44,20.44,0,0,1,6-13.31c4.81-5.06,10.93-7.05,17.75-7.29a33.08,33.08,0,0,1,12,1.64,23.19,23.19,0,0,1,12.62,10.23,16.87,16.87,0,0,1,2.68,7.37c0,.53,0,.77-.58.92-2.1.51-4.18,1.11-6.26,1.68-.38.1-.74.26-1.11.4-.21.08-.48.17-.4.45s.4.24.64.18.64-.17,1.1-.29c-1.35,2.6-1.06,4.52.79,5.66a3.62,3.62,0,0,0,4.63-1.15c1.22-1.78.65-3.5-1.88-5.46,1-.29,2-.58,2.93-.83.35-.09.33.22.34.43A24.32,24.32,0,0,1,397,679.36Z" transform="translate(-346.71 -640.42)"/><path class="3bf2b80f-1766-4357-964b-7be6397a30ea" d="M393.73,665.56c-1.35,2.6-1.06,4.52.79,5.66a3.62,3.62,0,0,0,4.63-1.15c1.22-1.78.65-3.5-1.88-5.46,1-.29,2-.58,2.93-.83.35-.09.33.22.34.43A24.32,24.32,0,0,1,397,679.36a22.88,22.88,0,0,1-7.56,7.78,24.47,24.47,0,0,1-15.72,3.15,31.27,31.27,0,0,1-12.63-4.1c-5-3-8.14-7.45-10.15-12.8a24,24,0,0,1-1.64-9.81,20.44,20.44,0,0,1,6-13.31c4.81-5.06,10.93-7.05,17.75-7.29a33.08,33.08,0,0,1,12,1.64,23.19,23.19,0,0,1,12.62,10.23,16.87,16.87,0,0,1,2.68,7.37c0,.53,0,.77-.58.92-2.1.51-4.18,1.11-6.26,1.68-.38.1-.74.26-1.11.4-.21.08-.48.17-.4.45s.4.24.64.18S393.27,665.68,393.73,665.56Zm-2.19,7.24c-.15-.25-.37-.22-.55-.24-1.79-.18-3.58-.33-5.36-.54a13.81,13.81,0,0,0-5.27.18,5.41,5.41,0,0,0-3.57,2.47,1.17,1.17,0,0,0-.16,1.12c.2.36.61.08.92.05a43.86,43.86,0,0,1,11,0c.55.09,1.11.14,1.67.2.36,0,.54-.08.43-.48-.07-.24-.1-.49-.16-.74C390.15,673.48,390.26,673.28,391.54,672.8Zm-14.22-8.67c-2.08,2-2.49,3.62-1.34,5.27a3.66,3.66,0,0,0,4.24,1.31,3.81,3.81,0,0,0,1.79-1.94,3.87,3.87,0,0,0-.38-3.5l.42,0c.38,0,1,.48,1.11,0s-.57-.58-.95-.69q-3.47-1-7-1.92a2,2,0,0,0-1.53.12C374.88,663.53,376.18,663.58,377.32,664.13Zm8.82,12.78,0-.39a6.55,6.55,0,0,0-2.89,0,.32.32,0,0,0-.21.22c0,.19.15.2.28.2Z" transform="translate(-346.71 -640.42)"/><path class="2810181e-6d9d-4772-8170-cb81862e65d2" d="M391.54,672.8c-1.28.48-1.38.69-1.06,2,.06.24.1.5.16.74.11.4-.07.52-.43.48-.56-.06-1.12-.11-1.67-.2a43.86,43.86,0,0,0-11,0c-.31,0-.72.31-.92-.05a1.17,1.17,0,0,1,.16-1.12,5.41,5.41,0,0,1,3.57-2.47,13.81,13.81,0,0,1,5.27-.18c1.78.22,3.57.36,5.36.54C391.17,672.58,391.39,672.55,391.54,672.8Z" transform="translate(-346.71 -640.42)"/><path class="2810181e-6d9d-4772-8170-cb81862e65d2" d="M377.32,664.13c-1.14-.54-2.44-.6-3.61-1.32a2,2,0,0,1,1.53-.12q3.49.92,7,1.92c.38.11,1.11.13.95.69s-.72,0-1.11,0l-.42,0a3.87,3.87,0,0,1,.38,3.5,3.81,3.81,0,0,1-1.79,1.94A3.66,3.66,0,0,1,376,669.4C374.83,667.75,375.24,666.12,377.32,664.13Z" transform="translate(-346.71 -640.42)"/><path class="d78bfa31-99f1-455e-a40e-42608b9b3d2d" d="M386.14,676.91h-2.79c-.14,0-.3,0-.28-.2a.32.32,0,0,1,.21-.22,6.55,6.55,0,0,1,2.89,0Z" transform="translate(-346.71 -640.42)"/></svg>