<svg id="a8cbb7f5-e98e-4dba-881d-d8359fac42bf" data-name="Capa 1" xmlns="http://www.w3.org/2000/svg" viewBox="0 0 213.62 309.61"><defs><style>.\34 de34c66-8cd3-4137-ac2e-21eab4bc152b{fill:#0e0f0d;}.b7a8f102-271a-4126-9d07-059009c5d1b9{fill:#fdfdfd;}.e4be947b-9bf0-4716-a9f1-da977098e104{fill:#f8cca0;}.\33 0a3dcb4-aea7-4983-9a3c-c01387356b8f{fill:#f7cca0;}.\34 8906a1d-e194-4fde-b4b1-214db0ea6880{fill:#509541;}.ef4d3d96-8fe7-4ba5-baa1-5f3d2e2aee28{fill:#96b4c7;}.\38 3fddbe7-53a2-4e20-b48c-8e7760311a20{fill:#f8f8f8;}.\38 d84b6dc-0cbf-450f-b61b-051f0b3ee127{fill:#686768;}.\39 0c78220-ff41-47e5-b5d8-1b48be1040d6{fill:#a28c74;}.\30 c0dbd58-35f2-4cc9-be4a-efeaeae82fca{fill:#1c1d1d;}.d9ffff20-99ac-46a7-81ba-7a9679cd23bf{fill:#222;}.cb6a977c-3df2-4dcd-9e3b-67953d2126c1{fill:#1f1f20;}.\33 263278d-2179-4420-8a59-7646977b48ee{fill:#242425;}.\37 c24d693-4bde-47ec-acb7-ed377299e5d9{fill:#504235;}.cf2d2f75-db55-44c4-b042-65371aa7d9fc{fill:#edecec;}</style></defs><title>card-23svg</title><path class="4de34c66-8cd3-4137-ac2e-21eab4bc152b" d="M543.26,355.07q0,71.62,0,143.23a21.65,21.65,0,0,1-.41,4.71,8.36,8.36,0,0,1-8,6.92c-.83.06-1.67,0-2.5,0H340.59c-7.67,0-10.93-3.22-10.93-10.94q0-144,0-288c0-7.34,3.12-10.6,10.46-10.64,17.16-.09,34.33-.05,51.49-.05h139c10.13,0,12.67,2.56,12.67,12.73Zm-96.13,27.48c1.9,13.21,8.1,23.65,19.93,30.25,8.36,4.66,17.45,5.12,26.68,3.58,17.73-3,29.78-12.53,35.22-30.07,7.12-22.93-9.09-41.07-25.64-45a61.71,61.71,0,0,0-25.75-.39c-16.86,3.12-29.91,18.15-30.44,32.35a1,1,0,0,0-.15,1.19l-.08,1.37A17.85,17.85,0,0,0,447.12,382.54ZM466.9,447c.86-3.92.26-7.82-.07-11.72-.55,2.06-.93,4.12-.05,6.18-.82.24-.49,1-.55,1.46Q465,453,463.83,463.2c-.19,1.66-1.12,2.46-2.69,2.19s-1.85-1.46-1.67-2.87c.54-4.21,1.09-8.42,1.59-12.63,1.31-10.84,1.71-21.74,2-32.64a2.43,2.43,0,0,0-1.08-2.54c-5.61-3.56-9.67-8.57-13.06-14.19-11.21-18.55-8.4-45.89,14.83-58.8,11.06-6.14,23-7.23,35.34-5.53,10.75,1.49,19.82,6.23,26.68,14.63,11.56,14.17,11.47,29.49,3.77,45.31-1.3,2.67-4,5-4.27,7.73s1.72,5.62,2.49,8.5c4.52,16.92,5.51,34.28,6.53,51.65.09,1.57-.22,2.91-2.13,3s-2.22-1.37-2.3-2.87q-.34-6.11-.67-12.22a8.73,8.73,0,0,0-.85-4.72v4.68c-.46,4.72-1,9.44-1.35,14.16-.3,4.29-2,7-6,8.36-1.73.58-2,1.6-1.68,3.22,1.22,7.22,2.62,14.39,4.49,21.47,1.8,6.82,1.79,6.82,8.8,6.78,4.38,0,6.21-1.76,6.46-6.12,0-.83,0-1.67,0-2.5q0-142.36,0-284.71c0-.58,0-1.17,0-1.75-.12-4.25-1.8-6-6.09-6.25-.83-.05-1.67,0-2.5,0h-188a30.74,30.74,0,0,0-3.74.14c-3.36.41-4.77,2-4.93,5.45,0,.91,0,1.83,0,2.75q0,135.36,0,270.71c0,5.42,0,10.83,0,16.25,0,3.93,2.1,6,6,6.07s7.67-.08,11.5.05c1.51.05,2-.57,2.39-1.85a249.19,249.19,0,0,0,5.55-24.55c.77-4.45.69-4.43-3.22-6.76-1.3-.78-2.92-1.25-3.24-3.17a142.43,142.43,0,0,1-1.72-35.33c.65-7.64,2.37-15.11,3.78-22.63.18-.94.32-1.62-.59-2.39-7.4-6.28-12-14.31-14.73-23.55-5-17,1.22-34.79,16.43-43.86,18-10.74,36.65-10.21,54.77,0a36.33,36.33,0,0,1,18,23.84c3.75,16-.23,30.31-11.44,42.47a2.15,2.15,0,0,0-.63,2.58c5.76,16.08,4.5,31.87-2.17,47.39-.47,1.1-.65,1.74.76,2.15a1.81,1.81,0,0,1,1.22,2.2c-.15,1-.84,1.91-1.79,1.77-1.75-.26-1.46.76-1.37,1.73.1,1.16.31,2.31.42,3.47.39,4.28.4,4.37-3.76,5.43-1.52.39-2,.9-1.81,2.51,1.06,8.93,1.56,17.91,2,26.89.08,1.53.73,1.69,2,1.69q27.25,0,54.49,0c1.43,0,2-.26,2.08-1.88.46-8.31.79-16.64,2-24.89.38-2.59-.34-3.89-2.91-4.16-2.36-.25-2.91-1.61-2.66-3.83C466.1,463.09,466.72,455,466.9,447Zm-79.77-31c10.13,0,18.66-2.84,25-8.76C423.68,396.53,427.92,383.28,425,368c-1.89-9.9-7.8-17.46-16.31-22.65-13.8-8.42-28.74-9-43.52-3.7-12.39,4.41-20.49,13.81-22.65,27-2.58,15.71,6.21,36,24.52,43.26,3.77,1.5,3.74,1.6,4.8-2.19,2.32-8.26,2.32-8.26,11-7.92.25,0,.5,0,.75,0a1.87,1.87,0,0,1,1.79,1.76,2,2,0,0,1-1.18,2.25,6.63,6.63,0,0,1-1.94.38c-5.07.46-5.07.45-6.4,5.26a14,14,0,0,1-.41,1.44c-.51,1.28,0,1.78,1.27,2C380.33,415.47,383.93,416.13,387.13,415.93ZM470.3,419c.34,5.77.8,11.15.94,16.55a247.89,247.89,0,0,1-1.47,32.64c-.23,2.14.33,3.15,2.5,3.63a111.17,111.17,0,0,0,33.7,2.56,35.18,35.18,0,0,0,14.61-4.58,3,3,0,0,0,1.77-2.44,173.58,173.58,0,0,0,1.8-23.36c.15-11.07-2.33-21.78-4.47-32.55-.35-1.75-1-1.11-2-.44-9.88,7.29-21.11,10.21-33.24,10.39A47.08,47.08,0,0,1,470.3,419Zm-61.05-4.23c-2.7,1.15-5,2.25-7.42,3.14-8.15,3-16.52,2.84-24.86,1.22-2.64-.51-3.59,0-4.29,2.57a74.36,74.36,0,0,1-4.92,12.79,16.54,16.54,0,0,1-3.1,4.8,3.42,3.42,0,0,1-5.55-.47,11.21,11.21,0,0,1-1.87-4.84,5.42,5.42,0,0,0-1.37-3.44c-.13.63-.27,1.19-.34,1.76-1.44,11.76-.45,23.43,1.27,35.08a2,2,0,0,0,1,1.57c3.4,2,6.92,3.82,10.81,4.38A101.64,101.64,0,0,0,407,471.26c2.06-.49,2.56-1.29,2.34-3.37a250.59,250.59,0,0,1-1.51-30.41C408,430,408.45,422.52,409.25,414.78Zm-27.66,91.07c7.42,0,14.83-.05,22.25,0,1.68,0,2.07-.48,2-2.1-.29-7.66-1.07-15.28-1.67-22.92-.36-4.51-.41-4.49-5-3.65-1.31.24-2.63.4-4,.54-10,1.05-19.94,1.38-29.79-.91-1.47-.34-1.5.37-1.63,1.3a180.31,180.31,0,0,1-5.7,25.79c-.48,1.63-.21,2,1.44,1.95C366.93,505.81,374.26,505.85,381.59,505.85Zm115.44,0c7.41,0,14.82,0,22.23,0,1.57,0,1.82-.45,1.4-1.84a199.9,199.9,0,0,1-5.13-22.32c-.26-1.47-.12-3.47-1-4.22-.71-.59-2.7.42-4.14.62a102.53,102.53,0,0,1-33.27-.91c-1.47-.28-1.84-.06-2,1.39-.88,8.52-1.51,17.06-2,25.61-.11,1.71.79,1.64,2,1.64C482.39,505.84,489.71,505.85,497,505.85ZM362.25,435.93c3.65-5.87,5.21-11.81,7-17.64a.88.88,0,0,0-.62-1.17l-8.46-3.53C360.28,421,360.36,428.21,362.25,435.93Zm51.42-19.39a161.15,161.15,0,0,0-1.11,33.67C416.49,439.1,417.13,427.89,413.67,416.54Z" transform="translate(-329.64 -200.35)"/><path class="b7a8f102-271a-4126-9d07-059009c5d1b9" d="M529.17,451.91q.33,6.11.67,12.22c.08,1.51.33,2.94,2.3,2.87s2.23-1.41,2.13-3c-1-17.36-2-34.73-6.53-51.65-.77-2.88-2.79-5.79-2.49-8.5s3-5.06,4.27-7.73c7.7-15.82,7.79-31.14-3.77-45.31-6.86-8.41-15.93-13.15-26.68-14.63-12.34-1.71-24.28-.62-35.34,5.53-23.23,12.9-26,40.25-14.83,58.8,3.4,5.62,7.45,10.64,13.06,14.19a2.43,2.43,0,0,1,1.08,2.54c-.26,10.9-.66,21.8-2,32.64-.51,4.21-1.05,8.42-1.59,12.63-.18,1.4.17,2.6,1.67,2.87s2.49-.53,2.69-2.19Q465,453,466.24,442.87c.06-.51-.27-1.22.55-1.46l.12,5.55c-.18,8.08-.8,16.13-1.68,24.17-.24,2.22.31,3.57,2.66,3.83,2.57.28,3.29,1.57,2.91,4.16-1.22,8.24-1.55,16.58-2,24.89-.09,1.62-.65,1.88-2.08,1.88q-27.25-.06-54.49,0c-1.27,0-1.91-.15-2-1.69-.47-9-1-18-2-26.89-.19-1.62.29-2.13,1.81-2.51,4.16-1.06,4.14-1.15,3.76-5.43-.1-1.16-.31-2.31-.42-3.47-.09-1-.38-2,1.37-1.73.94.14,1.63-.76,1.79-1.77a1.81,1.81,0,0,0-1.22-2.2c-1.41-.41-1.23-1.05-.76-2.15,6.67-15.52,7.94-31.31,2.17-47.39a2.15,2.15,0,0,1,.63-2.58c11.21-12.16,15.19-26.46,11.44-42.47a36.33,36.33,0,0,0-18-23.84c-18.12-10.16-36.77-10.7-54.77,0-15.21,9.08-21.39,26.84-16.43,43.86,2.69,9.24,7.33,17.27,14.73,23.55.91.77.77,1.45.59,2.39-1.41,7.52-3.13,15-3.78,22.63a142.43,142.43,0,0,0,1.72,35.33c.32,1.92,1.93,2.39,3.24,3.17,3.9,2.33,4,2.31,3.22,6.76A249.19,249.19,0,0,1,353.69,504c-.36,1.28-.88,1.91-2.39,1.85-3.83-.13-7.66,0-11.5-.05s-6-2.14-6-6.07c0-5.42,0-10.83,0-16.25q0-135.36,0-270.71c0-.92,0-1.83,0-2.75.16-3.44,1.58-5,4.93-5.45a30.74,30.74,0,0,1,3.74-.14h188c.83,0,1.67,0,2.5,0,4.29.27,6,2,6.09,6.25,0,.58,0,1.17,0,1.75q0,142.36,0,284.71c0,.83,0,1.67,0,2.5-.24,4.37-2.08,6.1-6.46,6.12-7,0-7,0-8.8-6.78-1.87-7.08-3.27-14.25-4.49-21.47-.27-1.61,0-2.63,1.68-3.22,4-1.33,5.7-4.06,6-8.36.33-4.72.88-9.44,1.35-14.16ZM386,250.52c.89,2.26,1.76,4.4,2.57,6.55.33.87.77,1.18,1.68.74s1.32-.75.8-1.85a48.16,48.16,0,0,1-3.56-11.38c-.21-1.07-.69-1.31-1.67-1.32s-1.4.52-1.52,1.49a25.18,25.18,0,0,1-1.9,7.22c-.73-2.42-1.32-4.29-1.84-6.19-.23-.85-.43-1.45-1.56-1.5s-1.55.46-1.91,1.44a58.89,58.89,0,0,0-2.69,10.09c-.15.83-.35,1.61,1,1.76,1.07.11,1.42-.15,1.61-1.22a25.79,25.79,0,0,1,1.73-6.7c.75,1.89,1.41,3.47,2,5.07.38,1,.9,1.72,2.12,1.74s1.19-1,1.5-1.68C384.92,253.42,385.4,252,386,250.52ZM401,252c-.7-2.44-1.27-4.26-1.75-6.1-.26-1-.63-1.57-1.81-1.59s-1.4.56-1.7,1.4a46.3,46.3,0,0,0-2.59,9.84c-.1.78-.88,1.76.77,2,1.46.24,1.67-.51,1.82-1.62a18.24,18.24,0,0,1,1.65-6.22c.79,2,1.54,3.73,2.19,5.51a1.84,1.84,0,0,0,1.7,1.2c1,.18,1.26-.58,1.53-1.26.58-1.42,1.13-2.85,1.82-4.6.9,2.28,1.67,4.26,2.47,6.23.3.74.48,1.61,1.72,1.06s1.24-1.06.77-2.09a47,47,0,0,1-3.39-10.9c-.18-1-.49-1.6-1.73-1.62-1.4,0-1.4.89-1.56,1.75A26,26,0,0,1,401,252ZM377.15,303.9a15.64,15.64,0,0,0,5.55-.81c1.55-.55,2.85-1.42,3.09-3.22a3.75,3.75,0,0,0-1.9-4c-.57-.34-1-.45-.5-1.4,1.49-2.89.39-4.94-2.82-5.54a17.06,17.06,0,0,0-5.92.38c-1.22.2-1.48.73-1.38,1.82.28,3.22.72,6.45.7,9.68C374,303.54,375.11,304.34,377.15,303.9Zm69-32a7.21,7.21,0,0,0-7-7.34c-4.5-.09-8.83,4-8.92,8.39a7,7,0,0,0,6.81,7.41C441.85,280.42,446.16,276.4,446.18,271.87ZM403,295.51a6.89,6.89,0,0,0-7-7.16,8.84,8.84,0,0,0-8.79,8.39c0,4.19,2.85,7.25,6.86,7.25A8.69,8.69,0,0,0,403,295.51Zm86.38-25.39c2.09,3,4,5.5,5.68,8.11.61.92,1.26.85,2.12.67s1.13-.81,1.07-1.65c-.23-3.49-.43-7-.66-10.47-.06-1-.2-1.71-1.61-1.53s-1.13,1.08-1.06,2c.16,2,.31,4,.52,6.68-2.21-2.91-4-5.1-5.17-7.68-.67-1.48-1.75-1.64-3-1.41-1.44.25-.78,1.47-.78,2.24a47.86,47.86,0,0,0,.84,9.43c.19,1,0,2.34,1.79,1.92,1.63-.37,1-1.35.81-2.29A17.67,17.67,0,0,1,489.38,270.12ZM372.74,302.3a85.24,85.24,0,0,0-2.89-9.75c-1.19-3.53-1.17-3.4-4.85-2.83-1.9.29-2.64,1-2.86,2.94-.34,3-1,6-1.56,9.06-.14.81-.83,1.77.76,2.06,1.42.26,1.68-.48,1.9-1.58.16-.82-.25-2,1-2.3,1.53-.36,3.16-1,4.61-.69,1,.18.77,2,1.14,3.06.08.23.14.48.22.71.33,1,1.1.39,1.68.43C372.65,303.46,372.9,303,372.74,302.3ZM503,273.07l-.53-.23c-.13-1.56-.26-3.11-.37-4.67-.07-.87-.55-1.15-1.35-1-.58.14-1.46-.11-1.37,1q.5,5.84,1,11.68c.06.69.45,1.07,1.18.9s1.66.07,1.53-.84c-.44-3,1.46-1.48,2.49-1.29,1.46.27,2.88.79,4.32,1.16.85.22,1.67.62,2.09-.81s-.33-1.49-1.29-1.72c-1.53-.37-3-1-4.56-1.23s-1.38-.85-.6-1.86c1.51-2,2.92-4,4.43-6,.64-.85.91-1.43-.2-2.18s-1.41-.22-1.95.53C506.27,268.7,504.65,270.88,503,273.07Zm-98.51,23.16c-.38,5.41.91,6.78,6.32,6.62a22.11,22.11,0,0,0,2.48-.23c2.92-.42,3.77-1.31,3.73-4.22a56.91,56.91,0,0,0-1.25-8.88c-.18-1.06-.76-1.09-1.6-1-1,.12-1.16.71-1,1.57.31,1.55.6,3.1.88,4.66.89,4.87.08,5.73-4.91,5.42-1.68-.1-2.43-.78-2.18-2.5.35-2.47.64-5,1-7.43.1-.77.62-1.67-.81-1.84s-1.77.37-1.88,1.63C405.11,292.11,404.79,294.17,404.53,296.23Zm-18.65-17.36a89.93,89.93,0,0,0-3-10.18c-1.15-3.41-1.13-3.29-4.72-2.76-2,.3-2.74,1.2-3,3.15-.35,3-1,6-1.53,9.07-.12.69-.89,1.64.66,1.83,1.21.15,1.89-.16,2-1.5.05-.8-.09-2,.76-2.23a12.29,12.29,0,0,1,4.62-.75c1.22.1.92,1.7,1.27,2.64a5.4,5.4,0,0,1,.27,1c.17,1,.89.75,1.53.65S386,279.36,385.88,278.87Zm-25.61-32.49h-.06c.11,1.24.24,2.48.34,3.72s.22,2.65.3,4c.07,1,.1,2,1.64,1.8,1.69-.2,1.07-1.26,1-2.19,0-.75-.72-1.86.34-2.19a9.64,9.64,0,0,1,4.4-.54c1.15.22.49,1.86.85,2.8a1.44,1.44,0,0,1,.05.49c0,1,0,1.78,1.45,1.63s1.23-1.05,1.16-2c-.3-3.72-.65-7.44-.91-11.17-.07-.93-.32-1.35-1.32-1.3s-1.41.28-1.32,1.3a29.08,29.08,0,0,0,.19,3.23c.32,1.59-.17,2.22-1.81,2.4-3.61.38-3.6.46-3.78-3.15,0-.58-.08-1.16-.07-1.74,0-1.13-.74-1.07-1.53-1.05s-1.22.34-1.13,1.21S360.21,245.47,360.27,246.39Zm107.41,24.12c0,.6.07,1.6.16,2.6a16.77,16.77,0,0,0,.38,3c.25.89-.8,2.54,1.39,2.45s1.22-1.63,1.14-2.53c-.14-1.49.25-2,1.81-2.15,3.4-.33,3.39-.44,3.82,3,0,.25.06.5.08.74.1,1.12.9,1,1.66.93s1.11-.45,1-1.28c-.33-3.9-.68-7.79-.91-11.7-.07-1.21-.67-1.28-1.62-1.25s-1.19.59-1.1,1.47c.12,1.16.12,2.33.25,3.49s-.14,1.57-1.39,1.75c-3.9.57-3.89.65-4.24-3.22a10.31,10.31,0,0,1-.12-1.24c0-1.11-.47-1.41-1.54-1.31s-1.26.53-1.15,1.45C467.48,267.79,467.54,269,467.68,270.51Zm-107.5-2c.12,1.47.24,2.79.34,4.12s.2,2.65.32,4c.09,1-.06,2,1.56,1.92s1.17-1.11,1.14-2.07-.76-1.83.44-2.42c3-1.48,4.78-.53,5.19,2.75a2,2,0,0,1,0,.25c0,.89.06,1.56,1.33,1.5s1.36-.84,1.27-1.81c-.32-3.73-.66-7.45-.92-11.18-.06-.93-.31-1.31-1.31-1.3s-1.44.47-1.33,1.51.14,2.32.21,3.48c0,.48.29,1.23-.22,1.35a13.31,13.31,0,0,1-4.61.69c-1.1-.13-.39-1.75-.79-2.57-.55-1.14,1.23-3.45-1.37-3.45C358.63,265.26,361,267.61,360.18,268.52Zm44.07-4.14v.08a15,15,0,0,1-2,.1c-2-.16-2.85.55-2.5,2.69a50.29,50.29,0,0,1,.46,6c.27,6.58.3,6.62,6.84,5.26l1-.2c.94-.19,1.45-.57,1.15-1.7s-.79-1.24-1.8-1a25.41,25.41,0,0,1-3.2.43c-1,.12-1.29-.34-1.34-1.28s.3-1.33,1.25-1.36c1.16,0,2.31-.25,3.47-.33.94-.06,1.07-.58.93-1.35s0-1.4-1-1.29a23,23,0,0,0-2.73.2c-1.42.32-2,.08-2.19-1.59-.18-1.84.79-1.86,2-1.91.91,0,1.83-.13,2.74-.13s1-.56,1-1.3-.11-1.33-1.05-1.31S405.25,264.37,404.26,264.37Zm27.8,47.94c.07-2.54-.27-3.38-1.34-3.14-1.87.42-1,2-1.08,3.1a45.81,45.81,0,0,1-8.37,24.88c-.53.75-1.69,1.61-.53,2.54s1.9-.27,2.5-1.13A45.56,45.56,0,0,0,432.06,312.31Zm-39.8-37.58a44.57,44.57,0,0,1-2.95-7.88c-.27-.92-.09-2.3-1.9-1.79s-.82,1.71-.6,2.54a49.32,49.32,0,0,0,4,10.44c.38.73.67,1.52,1.82,1.22.87-.23,1.43-.5,1.7-1.5a66.09,66.09,0,0,1,4-10.72c.37-.8.73-1.44-.42-2s-1.63-.13-2,.89C394.74,268.75,393.57,271.55,392.26,274.73Zm54.85,17.37c1.34-.55,1.37.52,1.43,1.46.17,2.57.29,5.15.44,7.72.05,1,.09,1.75,1.49,1.7s1.3-.92,1.24-1.84c-.15-2.41-.2-4.83-.49-7.22-.21-1.75.11-2.76,2.13-2.54a4.31,4.31,0,0,0,1.24-.14c1.15-.22.71-1.11.71-1.79s-.46-.94-1.16-.85c-2.8.35-5.61.65-8.42,1-.53.07-1.29,0-1.27.86a2.66,2.66,0,0,0,.39,1.65C445.43,292.71,446.25,292.15,447.11,292.1Zm-19.38-27.26c-3,.39-5.51.68-8,1-.87.12-2.11-.34-1.92,1.43s1.23,1.34,2.15,1.13c1.66-.38,1.94.39,2,1.81.06,2.58.31,5.15.43,7.72,0,1.12.57,1.4,1.6,1.29s1.22-.54,1.15-1.48c-.19-2.24-.1-4.51-.45-6.72s.06-3.67,2.71-3.52c1,.06,1.52-.22,1.43-1.41S428.13,264.77,427.73,264.84Zm37.11,0c-3,.37-5.61.68-8.24,1-.73.1-1.71-.26-1.59,1.21s.8,1.66,1.93,1.36c1.88-.49,2.21.48,2.24,2.08,0,2.4.28,4.8.42,7.2.05.85,0,1.64,1.32,1.54s1.43-.76,1.34-1.81c-.18-2-.22-4-.44-6-.27-2.34-.23-4.31,3-4,1.08.1,1.12-.58,1.08-1.44S465.43,264.73,464.84,264.86Zm-39.13,35c-.11-1.41-.24-2.81-.34-4.22-.16-2.26-.81-4.84,3-4.39,1,.12,1.07-.69,1-1.54-.08-1-.5-1.21-1.45-1.08-2.55.35-5.11.6-7.66.89-1,.12-1.88.22-1.67,1.75s1.18,1.1,2,.88c1.55-.42,2.07.08,2.11,1.66.07,2.65.36,5.3.47,8,0,1,.46,1.22,1.38,1.19s1.35-.41,1.25-1.36C425.74,301,425.74,300.45,425.72,299.87Zm39.39-42.54a31.48,31.48,0,0,0,7-1.13c.85-.3,1.54-.5,1-1.71-.43-1-.8-1.25-1.84-.84a25.24,25.24,0,0,1-3.14.74c-1.48.37-2.09-.13-2.11-1.7,0-2.66-.3-5.31-.4-8,0-1.13-.59-1.35-1.59-1.3s-1.19.61-1.14,1.47c.23,3.57.47,7.13.61,10.71C463.52,257,464,257.58,465.1,257.33Zm-12.94-9.15h.11c.16,2.57.37,5.15.45,7.72,0,1.07.39,1.49,1.48,1.4a28.51,28.51,0,0,0,6.88-1.06c.66-.22,1.82-.17,1.28-1.56-.39-1-.76-1.54-2-1a20.49,20.49,0,0,1-3.14.73c-1.5.36-2-.13-2-1.73,0-2.57-.29-5.15-.41-7.72,0-.93-.13-1.57-1.35-1.54s-1.4.52-1.32,1.54S452.17,247.1,452.17,248.18Zm-13,45.49h-.07c.22,2.73.47,5.45.65,8.18.06.95.19,1.6,1.42,1.41,1-.16,1.38-.53,1.29-1.61-.33-3.8-.58-7.61-.83-11.41-.07-1-.44-1.42-1.53-1.39s-1.33.65-1.22,1.6S439.1,292.6,439.19,293.67Zm4.23-42.32h0c-.2-2.48-.44-5-.6-7.43-.06-.92-.11-1.57-1.34-1.53s-1.4.55-1.31,1.55q.47,5.82.89,11.65c.06.86.27,1.37,1.32,1.28s1.49-.48,1.36-1.56C443.62,254,443.54,252.68,443.42,251.35Zm37.34,16.31c.32,3.58.65,7,.91,10.38.07.94.17,1.53,1.39,1.46s1.36-.58,1.27-1.57q-.5-5.85-.92-11.7c-.06-.84-.35-1.22-1.23-1.1s-1.56.07-1.43,1.22A10.93,10.93,0,0,1,480.77,267.67Zm-31.34-22.29c-.16-1.4-.29-2.39-.39-3.38s-.18-1.64-1.46-1.38c-1,.2-1.46.56-1.26,1.63s.27,2,.38,3c.09.81-.07,1.71,1.31,1.54C449.2,246.61,449.65,246.13,449.43,245.37ZM427.88,254c-.18.09-1.12-.38-1,.82s.27,1.95,1.72,1.78c.76-.09,1.24-.15,1.17-1.1S429.49,253.68,427.88,254Zm-6.76,2.61c.91-.09,1.7.14,1.6-1s-.33-1.93-1.74-1.75c-.7.09-1.3,0-1.16,1S420.1,256.76,421.11,256.59Zm40.66,46c-.24-1.48-.26-2.45-1.61-2.3-.73.08-1.5-.12-1.37,1.1.12,1.06.43,1.71,1.64,1.56C461.07,302.91,461.85,303.11,461.78,302.63Zm-47.56-46.1c.85.09,1.24-.12,1.18-1.08s-.37-1.68-1.6-1.56c-.74.07-1.25.07-1.15,1.08S413,256.76,414.22,256.53Z" transform="translate(-329.64 -200.35)"/><path class="e4be947b-9bf0-4716-a9f1-da977098e104" d="M447.12,373.29c.53-14.2,13.58-29.23,30.44-32.35a61.71,61.71,0,0,1,25.75.39c16.56,3.91,32.76,22,25.64,45-5.44,17.54-17.5,27.1-35.22,30.07-9.23,1.54-18.32,1.08-26.68-3.58-11.83-6.59-18-17-19.93-30.25l.64-1.1c2.52,3.4,6.15,4.19,8.66,1.88a5.93,5.93,0,0,0,.42-8.6c-2.65-2.54-6.42-2-9,1.25l-1-.13.08-1.37A.92.92,0,0,0,447.12,373.29Zm34.17,16.09a2,2,0,0,0-1.47-.4c-5.11-1.4-10.28.18-15.42-.31,3.84,1.85,7.88,1.25,11.88,1l.24.06.23-.09,3.52.33c.58.25,1.2.6,1.8.25.24-.14,0-.56-.33-.68A.63.63,0,0,0,481.3,389.38Zm5.56-11.47a5.51,5.51,0,0,0-5.22-5.82,5.71,5.71,0,0,0-.77,11.4C484.37,383.52,486.78,381.28,486.85,377.91Z" transform="translate(-329.64 -200.35)"/><path class="30a3dcb4-aea7-4983-9a3c-c01387356b8f" d="M387.13,415.93c-3.2.2-6.81-.46-10.43-1-1.29-.2-1.78-.7-1.27-2a14,14,0,0,0,.41-1.44c1.33-4.8,1.34-4.79,6.4-5.26a6.63,6.63,0,0,0,1.94-.38,2,2,0,0,0,1.18-2.25,1.87,1.87,0,0,0-1.79-1.76c-.25,0-.5,0-.75,0-8.67-.34-8.67-.34-11,7.92-1.06,3.79-1,3.69-4.8,2.19-18.31-7.27-27.1-27.55-24.52-43.26,2.17-13.21,10.26-22.61,22.65-27,14.77-5.25,29.72-4.71,43.52,3.7,8.51,5.19,14.41,12.74,16.31,22.65,2.92,15.28-1.32,28.54-12.81,39.18C405.79,413.09,397.26,415.94,387.13,415.93Zm16.25-24a126.5,126.5,0,0,1-12.94-1.79,26.93,26.93,0,0,0-5.7-.16,2,2,0,0,0-2,2.1c-.06,1.41,1.1,1.19,1.94,1.3,2.54.34,5.08.77,7.64.93s5.22,1.65,7.31-.92c1-1.25,2.81-.2,3.71-1.5l-.06-.11Zm-12-13.33A5.34,5.34,0,0,0,386,373a5.48,5.48,0,0,0-5.78,5.76,5.7,5.7,0,0,0,5.7,5.7A5.62,5.62,0,0,0,391.35,378.64Zm15.65,1c-.12,1.37,1.39,1.09,1.18,1.7-1,2.76,1.22,1.87,2.32,2a48.59,48.59,0,0,1,5.4,1c.66.14,1.81.64,2-.29.36-2.14,1.66-1.24,2.79-1.17a3.19,3.19,0,0,0,2.63-.67A101,101,0,0,0,407,379.64Zm-12.58-8c.72-3.32-2.73-7.11-6.3-7.69s-7.79,2.07-8.07,5.23c2.14-2.6,4.43-4.56,7.93-4S392.78,368.58,394.42,371.6Zm-4.82,25a9.45,9.45,0,0,0,5.42.47A6.89,6.89,0,0,0,389.61,396.59Z" transform="translate(-329.64 -200.35)"/><path class="48906a1d-e194-4fde-b4b1-214db0ea6880" d="M470.3,419a47.08,47.08,0,0,0,14.19,2.41c12.13-.18,23.36-3.1,33.24-10.39.91-.67,1.61-1.32,2,.44,2.14,10.76,4.62,21.48,4.47,32.55a173.58,173.58,0,0,1-1.8,23.36,3,3,0,0,1-1.77,2.44A35.18,35.18,0,0,1,506,474.39a111.17,111.17,0,0,1-33.7-2.56c-2.17-.48-2.72-1.48-2.5-3.63a247.89,247.89,0,0,0,1.47-32.64C471.1,430.16,470.64,424.78,470.3,419Z" transform="translate(-329.64 -200.35)"/><path class="ef4d3d96-8fe7-4ba5-baa1-5f3d2e2aee28" d="M409.25,414.78c-.8,7.74-1.28,15.21-1.41,22.7a250.59,250.59,0,0,0,1.51,30.41c.22,2.09-.28,2.88-2.34,3.37a101.64,101.64,0,0,1-38.39,2.07c-3.89-.56-7.41-2.41-10.81-4.38a2,2,0,0,1-1-1.57c-1.72-11.65-2.71-23.32-1.27-35.08.07-.57.22-1.13.34-1.76a5.42,5.42,0,0,1,1.37,3.44,11.21,11.21,0,0,0,1.87,4.84,3.42,3.42,0,0,0,5.55.47,16.54,16.54,0,0,0,3.1-4.8,74.36,74.36,0,0,0,4.92-12.79c.7-2.54,1.65-3.08,4.29-2.57,8.34,1.63,16.72,1.8,24.86-1.22C404.23,417,406.55,415.93,409.25,414.78Z" transform="translate(-329.64 -200.35)"/><path class="b7a8f102-271a-4126-9d07-059009c5d1b9" d="M381.59,505.85c-7.33,0-14.67,0-22,0-1.65,0-1.93-.32-1.44-1.95a180.31,180.31,0,0,0,5.7-25.79c.13-.93.16-1.64,1.63-1.3,9.86,2.29,19.82,2,29.79.91,1.32-.14,2.65-.29,4-.54,4.54-.84,4.6-.86,5,3.65.6,7.64,1.38,15.26,1.67,22.92.06,1.63-.33,2.12-2,2.1C396.43,505.8,389,505.85,381.59,505.85Z" transform="translate(-329.64 -200.35)"/><path class="b7a8f102-271a-4126-9d07-059009c5d1b9" d="M497,505.85c-7.33,0-14.65,0-22,0-1.17,0-2.07.07-2-1.64.53-8.55,1.15-17.09,2-25.61.15-1.45.52-1.67,2-1.39a102.53,102.53,0,0,0,33.27.91c1.44-.2,3.43-1.21,4.14-.62.89.74.75,2.75,1,4.22A199.9,199.9,0,0,0,520.66,504c.42,1.39.17,1.86-1.4,1.84C511.85,505.81,504.45,505.85,497,505.85Z" transform="translate(-329.64 -200.35)"/><path class="ef4d3d96-8fe7-4ba5-baa1-5f3d2e2aee28" d="M362.25,435.93c-1.89-7.72-2-14.92-2-22.34l8.46,3.53a.88.88,0,0,1,.62,1.17C367.47,424.12,365.91,430.06,362.25,435.93Z" transform="translate(-329.64 -200.35)"/><path class="83fddbe7-53a2-4e20-b48c-8e7760311a20" d="M413.67,416.54c3.46,11.35,2.82,22.57-1.11,33.67A161.15,161.15,0,0,1,413.67,416.54Z" transform="translate(-329.64 -200.35)"/><path class="8d84b6dc-0cbf-450f-b61b-051f0b3ee127" d="M466.9,447l-.12-5.55c-.88-2.05-.5-4.11.05-6.18C467.17,439.14,467.77,443,466.9,447Z" transform="translate(-329.64 -200.35)"/><path class="90c78220-ff41-47e5-b5d8-1b48be1040d6" d="M447.76,381.45l-.64,1.1a17.85,17.85,0,0,1-.22-6.69l1,.13A7.62,7.62,0,0,0,447.76,381.45Z" transform="translate(-329.64 -200.35)"/><path class="ef4d3d96-8fe7-4ba5-baa1-5f3d2e2aee28" d="M529.17,451.91l-.85,0q0-2.34,0-4.68A8.73,8.73,0,0,1,529.17,451.91Z" transform="translate(-329.64 -200.35)"/><path class="90c78220-ff41-47e5-b5d8-1b48be1040d6" d="M447.12,373.29a.92.92,0,0,1-.15,1.19A1,1,0,0,1,447.12,373.29Z" transform="translate(-329.64 -200.35)"/><path class="0c0dbd58-35f2-4cc9-be4a-efeaeae82fca" d="M386,250.52c-.57,1.48-1.06,2.89-1.67,4.25-.3.68-.29,1.7-1.5,1.68s-1.74-.73-2.12-1.74c-.6-1.6-1.26-3.18-2-5.07a25.79,25.79,0,0,0-1.73,6.7c-.19,1.07-.54,1.34-1.61,1.22-1.33-.14-1.14-.92-1-1.76a58.89,58.89,0,0,1,2.69-10.09c.36-1,.73-1.49,1.91-1.44s1.32.65,1.56,1.5c.52,1.9,1.11,3.77,1.84,6.19a25.18,25.18,0,0,0,1.9-7.22c.13-1,.42-1.5,1.52-1.49s1.46.24,1.67,1.32A48.16,48.16,0,0,0,391,256c.52,1.11,0,1.44-.8,1.85s-1.35.13-1.68-.74C387.73,254.92,386.87,252.78,386,250.52Z" transform="translate(-329.64 -200.35)"/><path class="0c0dbd58-35f2-4cc9-be4a-efeaeae82fca" d="M401,252a26,26,0,0,0,1.92-7c.17-.86.17-1.77,1.56-1.75,1.24,0,1.55.63,1.73,1.62a47,47,0,0,0,3.39,10.9c.47,1,.34,1.6-.77,2.09s-1.42-.32-1.72-1.06c-.8-2-1.57-4-2.47-6.23-.69,1.76-1.24,3.19-1.82,4.6-.28.68-.49,1.44-1.53,1.26a1.84,1.84,0,0,1-1.7-1.2c-.65-1.79-1.4-3.54-2.19-5.51a18.24,18.24,0,0,0-1.65,6.22c-.16,1.11-.36,1.86-1.82,1.62-1.65-.27-.87-1.25-.77-2a46.3,46.3,0,0,1,2.59-9.84c.3-.84.59-1.43,1.7-1.4s1.56.6,1.81,1.59C399.75,247.72,400.31,249.54,401,252Z" transform="translate(-329.64 -200.35)"/><path class="0c0dbd58-35f2-4cc9-be4a-efeaeae82fca" d="M377.15,303.9c-2,.44-3.19-.36-3.18-3.09,0-3.23-.42-6.45-.7-9.68-.1-1.09.16-1.62,1.38-1.82a17.06,17.06,0,0,1,5.92-.38c3.21.6,4.31,2.66,2.82,5.54-.49.95-.07,1.06.5,1.4a3.75,3.75,0,0,1,1.9,4c-.24,1.81-1.54,2.67-3.09,3.22A15.64,15.64,0,0,1,377.15,303.9Zm1.74-2.78c1.1-.46,3.91.52,4.15-2,.17-1.75-2.16-1.51-3.43-1.33-1,.15-2.91-1-3,1.26C376.61,300.08,376.28,301.69,378.89,301.12Zm-2.89-8c.85.37-.66,2.21,1.11,2s3.74-.67,4.15-2.57c.28-1.28-1.37-1.16-2.26-1.07C377.91,291.59,376.2,290.8,376,293.15Z" transform="translate(-329.64 -200.35)"/><path class="d9ffff20-99ac-46a7-81ba-7a9679cd23bf" d="M446.18,271.87c0,4.53-4.33,8.54-9.08,8.46a7,7,0,0,1-6.81-7.41c.08-4.4,4.42-8.48,8.92-8.39A7.21,7.21,0,0,1,446.18,271.87Zm-2.76-.1a4.21,4.21,0,0,0-4.51-4.49c-3.06.07-6,2.94-6,5.86a4.18,4.18,0,0,0,4.32,4.42A6,6,0,0,0,443.42,271.77Z" transform="translate(-329.64 -200.35)"/><path class="0c0dbd58-35f2-4cc9-be4a-efeaeae82fca" d="M403,295.51a8.69,8.69,0,0,1-8.91,8.48c-4,0-6.9-3.06-6.86-7.25a8.84,8.84,0,0,1,8.79-8.39A6.89,6.89,0,0,1,403,295.51Zm-2.67,0a4.3,4.3,0,0,0-4.47-4.58,6.38,6.38,0,0,0-6,5.87,4.28,4.28,0,0,0,4.25,4.55A6.21,6.21,0,0,0,400.33,295.53Z" transform="translate(-329.64 -200.35)"/><path class="cb6a977c-3df2-4dcd-9e3b-67953d2126c1" d="M489.38,270.12a17.67,17.67,0,0,0,.51,6c.18.93.82,1.92-.81,2.29-1.82.41-1.6-1-1.79-1.92a47.86,47.86,0,0,1-.84-9.43c0-.76-.66-2,.78-2.24,1.29-.23,2.37-.07,3,1.41,1.16,2.58,3,4.77,5.17,7.68-.21-2.7-.36-4.69-.52-6.68-.07-.88-.44-1.76,1.06-2s1.54.56,1.61,1.53c.23,3.49.43,7,.66,10.47.06.84-.1,1.45-1.07,1.65s-1.52.25-2.12-.67C493.33,275.62,491.47,273.09,489.38,270.12Z" transform="translate(-329.64 -200.35)"/><path class="cb6a977c-3df2-4dcd-9e3b-67953d2126c1" d="M372.74,302.3c.15.71-.09,1.16-.87,1.11-.58,0-1.35.58-1.68-.43-.08-.24-.13-.48-.22-.71-.38-1.07-.18-2.89-1.14-3.06-1.45-.26-3.08.34-4.61.69-1.23.29-.82,1.48-1,2.3-.22,1.1-.48,1.84-1.9,1.58-1.59-.29-.9-1.25-.76-2.06.53-3,1.22-6,1.56-9.06.21-1.91,1-2.65,2.86-2.94,3.68-.57,3.66-.7,4.85,2.83A85.7,85.7,0,0,1,372.74,302.3Zm-7-5.44c.43-.6,2.44.58,2.27-1.11-.11-1.16,0-3.41-1.92-3.39-2.34,0-1.31,2.35-1.78,3.63C363.94,296.93,364.56,297.12,365.71,296.86Z" transform="translate(-329.64 -200.35)"/><path class="d9ffff20-99ac-46a7-81ba-7a9679cd23bf" d="M503,273.07c1.61-2.19,3.23-4.37,4.81-6.58.54-.75.93-1.22,1.95-.53s.85,1.34.2,2.18c-1.51,2-2.91,4-4.43,6-.77,1-1.08,1.59.6,1.86s3,.86,4.56,1.23c1,.23,1.71.3,1.29,1.72s-1.24,1-2.09.81c-1.45-.37-2.86-.9-4.32-1.16-1-.19-2.93-1.73-2.49,1.29.13.91-.93.71-1.53.84s-1.12-.21-1.18-.9q-.52-5.84-1-11.68c-.09-1.08.8-.83,1.37-1,.8-.2,1.29.09,1.35,1,.12,1.56.25,3.11.37,4.67Z" transform="translate(-329.64 -200.35)"/><path class="d9ffff20-99ac-46a7-81ba-7a9679cd23bf" d="M404.53,296.23c.26-2.06.58-4.12.75-6.19.11-1.26.58-1.78,1.88-1.63s.9,1.07.81,1.84c-.32,2.48-.61,5-1,7.43-.24,1.72.5,2.4,2.18,2.5,5,.31,5.8-.55,4.91-5.42-.28-1.55-.57-3.11-.88-4.66-.17-.86-.05-1.45,1-1.57.84-.1,1.42-.07,1.6,1a56.91,56.91,0,0,1,1.25,8.88c0,2.91-.81,3.8-3.73,4.22a22.11,22.11,0,0,1-2.48.23C405.44,303,404.15,301.64,404.53,296.23Z" transform="translate(-329.64 -200.35)"/><path class="0c0dbd58-35f2-4cc9-be4a-efeaeae82fca" d="M385.88,278.87c.13.48-.4.77-1.15.89s-1.36.38-1.53-.65a5.4,5.4,0,0,0-.27-1c-.35-.95-.05-2.54-1.27-2.64a12.29,12.29,0,0,0-4.62.75c-.85.27-.7,1.43-.76,2.23-.09,1.33-.76,1.64-2,1.5-1.55-.19-.77-1.14-.66-1.83.51-3,1.18-6,1.53-9.07.23-1.95,1-2.85,3-3.15,3.59-.53,3.57-.65,4.72,2.76A89.93,89.93,0,0,1,385.88,278.87Zm-4.51-6.27c-1.35-1.12.23-4.29-2.59-3.91-1.85.24-1.78,2.94-1.35,4C378.17,274.36,379.87,272.44,381.37,272.6Z" transform="translate(-329.64 -200.35)"/><path class="d9ffff20-99ac-46a7-81ba-7a9679cd23bf" d="M360.27,246.39c-.06-.91-.08-1.83-.17-2.73s.3-1.19,1.13-1.21,1.54-.08,1.53,1.05c0,.58,0,1.16.07,1.74.18,3.61.17,3.54,3.78,3.15,1.64-.17,2.13-.81,1.81-2.4a29.08,29.08,0,0,1-.19-3.23c-.08-1,.42-1.25,1.32-1.3s1.25.37,1.32,1.3c.26,3.73.61,7.45.91,11.17.07.9.29,1.8-1.16,2s-1.44-.67-1.45-1.63a1.44,1.44,0,0,0-.05-.49c-.36-.95.3-2.59-.85-2.8a9.64,9.64,0,0,0-4.4.54c-1.05.33-.35,1.44-.34,2.19,0,.93.65,2-1,2.19-1.54.18-1.57-.75-1.64-1.8-.09-1.33-.19-2.65-.3-4s-.23-2.48-.34-3.72Z" transform="translate(-329.64 -200.35)"/><path class="cb6a977c-3df2-4dcd-9e3b-67953d2126c1" d="M467.68,270.51c-.13-1.56-.2-2.72-.34-3.88-.11-.92.15-1.35,1.15-1.45s1.58.2,1.54,1.31a10.31,10.31,0,0,0,.12,1.24c.35,3.87.34,3.79,4.24,3.22,1.24-.18,1.52-.65,1.39-1.75s-.13-2.33-.25-3.49c-.09-.88,0-1.44,1.1-1.47s1.54,0,1.62,1.25c.24,3.9.58,7.8.91,11.7.07.83-.15,1.26-1,1.28s-1.56.19-1.66-.93c0-.25-.05-.5-.08-.74-.43-3.41-.42-3.3-3.82-3-1.56.15-1.94.66-1.81,2.15.08.89,1,2.43-1.14,2.53s-1.15-1.55-1.39-2.45a16.77,16.77,0,0,1-.38-3C467.75,272.11,467.71,271.11,467.68,270.51Z" transform="translate(-329.64 -200.35)"/><path class="0c0dbd58-35f2-4cc9-be4a-efeaeae82fca" d="M360.18,268.52c.79-.9-1.55-3.26,1.28-3.26,2.59,0,.81,2.31,1.37,3.45.4.82-.31,2.44.79,2.57a13.31,13.31,0,0,0,4.61-.69c.51-.13.25-.87.22-1.35-.06-1.16-.09-2.33-.21-3.48s.2-1.5,1.33-1.51,1.25.37,1.31,1.3c.26,3.73.59,7.46.92,11.18.08,1,.14,1.75-1.27,1.81s-1.34-.6-1.33-1.5a2,2,0,0,0,0-.25c-.41-3.27-2.2-4.23-5.19-2.75-1.19.59-.46,1.6-.44,2.42s.58,2-1.14,2.07-1.47-.95-1.56-1.92c-.12-1.32-.21-2.65-.32-4S360.3,270,360.18,268.52Z" transform="translate(-329.64 -200.35)"/><path class="d9ffff20-99ac-46a7-81ba-7a9679cd23bf" d="M404.26,264.37c1,0,2,0,3,0s1,.58,1.05,1.31,0,1.31-1,1.3-1.82.09-2.74.13c-1.22,0-2.2.07-2,1.91.17,1.67.76,1.91,2.19,1.59a23,23,0,0,1,2.73-.2c1-.11.93.66,1,1.29s0,1.29-.93,1.35c-1.16.08-2.31.28-3.47.33-.95,0-1.3.39-1.25,1.36s.37,1.4,1.34,1.28a25.41,25.41,0,0,0,3.2-.43c1-.26,1.51-.1,1.8,1s-.21,1.51-1.15,1.7l-1,.2c-6.55,1.36-6.58,1.32-6.84-5.26a50.29,50.29,0,0,0-.46-6c-.35-2.14.5-2.84,2.5-2.69a15,15,0,0,0,2-.1Z" transform="translate(-329.64 -200.35)"/><path class="d9ffff20-99ac-46a7-81ba-7a9679cd23bf" d="M432.06,312.31a45.56,45.56,0,0,1-8.81,26.26c-.61.85-1.24,2.13-2.5,1.13s0-1.78.53-2.54a45.81,45.81,0,0,0,8.37-24.88c0-1.08-.8-2.69,1.08-3.1C431.79,308.93,432.13,309.77,432.06,312.31Z" transform="translate(-329.64 -200.35)"/><path class="cb6a977c-3df2-4dcd-9e3b-67953d2126c1" d="M392.26,274.73c1.3-3.18,2.47-6,3.6-8.79.41-1,.88-1.45,2-.89s.79,1.2.42,2a66.09,66.09,0,0,0-4,10.72c-.27,1-.83,1.27-1.7,1.5-1.15.3-1.45-.48-1.82-1.22a49.32,49.32,0,0,1-4-10.44c-.21-.83-1.3-2,.6-2.54s1.63.87,1.9,1.79A44.57,44.57,0,0,0,392.26,274.73Z" transform="translate(-329.64 -200.35)"/><path class="3263278d-2179-4420-8a59-7646977b48ee" d="M447.11,292.1c-.87.05-1.68.61-2.27,0a2.66,2.66,0,0,1-.39-1.65c0-.84.74-.8,1.27-.86,2.8-.36,5.61-.66,8.42-1,.7-.09,1.16.05,1.16.85s.44,1.57-.71,1.79a4.31,4.31,0,0,1-1.24.14c-2-.22-2.33.8-2.13,2.54.28,2.39.33,4.81.49,7.22.06.93.24,1.79-1.24,1.84s-1.44-.75-1.49-1.7c-.14-2.57-.27-5.15-.44-7.72C448.48,292.62,448.45,291.55,447.11,292.1Z" transform="translate(-329.64 -200.35)"/><path class="3263278d-2179-4420-8a59-7646977b48ee" d="M427.73,264.84c.39-.07,1,.08,1.08,1.28s-.47,1.47-1.43,1.41c-2.65-.15-3.08,1.2-2.71,3.52s.27,4.48.45,6.72c.08.94-.17,1.37-1.15,1.48s-1.55-.17-1.6-1.29c-.11-2.58-.37-5.15-.43-7.72,0-1.43-.31-2.19-2-1.81-.92.21-2,.51-2.15-1.13s1.05-1.31,1.92-1.43C422.22,265.53,424.7,265.23,427.73,264.84Z" transform="translate(-329.64 -200.35)"/><path class="d9ffff20-99ac-46a7-81ba-7a9679cd23bf" d="M464.84,264.86c.59-.13,1,.2,1,1.2s0,1.54-1.08,1.44c-3.22-.3-3.26,1.68-3,4,.23,2,.26,4,.44,6,.1,1.05,0,1.71-1.34,1.81s-1.26-.7-1.32-1.54c-.15-2.4-.38-4.8-.42-7.2,0-1.6-.36-2.57-2.24-2.08-1.14.3-1.82.08-1.93-1.36s.86-1.12,1.59-1.21C459.23,265.54,461.86,265.23,464.84,264.86Z" transform="translate(-329.64 -200.35)"/><path class="cb6a977c-3df2-4dcd-9e3b-67953d2126c1" d="M425.72,299.87c0,.58,0,1.16.08,1.74.1.95-.28,1.33-1.25,1.36s-1.34-.18-1.38-1.19c-.11-2.65-.4-5.3-.47-8,0-1.57-.56-2.08-2.11-1.66-.77.21-1.73.73-2-.88s.62-1.64,1.67-1.75c2.56-.29,5.12-.54,7.66-.89.95-.13,1.37.07,1.45,1.08.07.85,0,1.66-1,1.54-3.85-.45-3.2,2.13-3,4.39C425.47,297.06,425.6,298.46,425.72,299.87Z" transform="translate(-329.64 -200.35)"/><path class="3263278d-2179-4420-8a59-7646977b48ee" d="M465.1,257.33c-1.06.26-1.59-.34-1.64-1.74-.14-3.57-.39-7.14-.61-10.71-.05-.86.07-1.42,1.14-1.47s1.55.17,1.59,1.3c.1,2.66.35,5.31.4,8,0,1.57.63,2.07,2.11,1.7a25.24,25.24,0,0,0,3.14-.74c1-.41,1.42-.13,1.84.84.53,1.21-.16,1.41-1,1.71A31.48,31.48,0,0,1,465.1,257.33Z" transform="translate(-329.64 -200.35)"/><path class="d9ffff20-99ac-46a7-81ba-7a9679cd23bf" d="M452.17,248.18c0-1.08.06-2.17,0-3.24s.16-1.51,1.32-1.54,1.31.61,1.35,1.54c.12,2.58.42,5.15.41,7.72,0,1.6.51,2.1,2,1.73a20.49,20.49,0,0,0,3.14-.73c1.23-.52,1.59,0,2,1,.54,1.39-.63,1.33-1.28,1.56a28.51,28.51,0,0,1-6.88,1.06c-1.09.09-1.44-.32-1.48-1.4-.09-2.58-.29-5.15-.45-7.72Z" transform="translate(-329.64 -200.35)"/><path class="3263278d-2179-4420-8a59-7646977b48ee" d="M439.19,293.67c-.09-1.07-.16-2.15-.28-3.22s0-1.57,1.22-1.6,1.47.37,1.53,1.39c.24,3.81.49,7.61.83,11.41.1,1.08-.26,1.46-1.29,1.61-1.23.19-1.36-.46-1.42-1.41-.19-2.73-.43-5.45-.65-8.18Z" transform="translate(-329.64 -200.35)"/><path class="d9ffff20-99ac-46a7-81ba-7a9679cd23bf" d="M443.42,251.35c.12,1.32.2,2.65.36,4,.13,1.07-.3,1.47-1.36,1.56s-1.26-.42-1.32-1.28q-.42-5.82-.89-11.65c-.08-1,.16-1.51,1.31-1.55s1.28.61,1.34,1.53c.16,2.48.39,5,.6,7.43Z" transform="translate(-329.64 -200.35)"/><path class="d9ffff20-99ac-46a7-81ba-7a9679cd23bf" d="M480.77,267.67a10.93,10.93,0,0,0,0-1.32c-.13-1.14.68-1.12,1.43-1.22s1.17.27,1.23,1.1q.42,5.85.92,11.7c.09,1-.1,1.51-1.27,1.57s-1.32-.52-1.39-1.46C481.41,274.64,481.08,271.25,480.77,267.67Z" transform="translate(-329.64 -200.35)"/><path class="3263278d-2179-4420-8a59-7646977b48ee" d="M449.43,245.37c.22.75-.23,1.23-1.42,1.38-1.38.17-1.22-.73-1.31-1.54-.11-1-.2-2-.38-3s.26-1.44,1.26-1.63c1.28-.25,1.37.49,1.46,1.38S449.26,244,449.43,245.37Z" transform="translate(-329.64 -200.35)"/><path class="3263278d-2179-4420-8a59-7646977b48ee" d="M427.88,254c1.61-.3,1.85.45,1.92,1.5s-.4,1-1.17,1.1c-1.45.16-1.59-.74-1.72-1.78S427.69,254.08,427.88,254Z" transform="translate(-329.64 -200.35)"/><path class="3263278d-2179-4420-8a59-7646977b48ee" d="M421.11,256.59c-1,.17-1.17-.67-1.3-1.66s.46-1,1.16-1c1.41-.18,1.65.66,1.74,1.75S422,256.5,421.11,256.59Z" transform="translate(-329.64 -200.35)"/><path class="3263278d-2179-4420-8a59-7646977b48ee" d="M461.78,302.63c.07.47-.71.28-1.34.36-1.21.15-1.53-.5-1.64-1.56-.13-1.22.64-1,1.37-1.1C461.52,300.19,461.54,301.15,461.78,302.63Z" transform="translate(-329.64 -200.35)"/><path class="0c0dbd58-35f2-4cc9-be4a-efeaeae82fca" d="M414.22,256.53c-1.23.23-1.46-.51-1.57-1.57s.41-1,1.15-1.08c1.24-.12,1.54.46,1.6,1.56S415.07,256.62,414.22,256.53Z" transform="translate(-329.64 -200.35)"/><path class="4de34c66-8cd3-4137-ac2e-21eab4bc152b" d="M486.85,377.91c-.08,3.37-2.48,5.61-6,5.58a5.71,5.71,0,0,1,.77-11.4A5.51,5.51,0,0,1,486.85,377.91Z" transform="translate(-329.64 -200.35)"/><path class="4de34c66-8cd3-4137-ac2e-21eab4bc152b" d="M447.76,381.45a7.62,7.62,0,0,1,.1-5.47c2.56-3.27,6.33-3.8,9-1.25a5.93,5.93,0,0,1-.42,8.6C453.91,385.64,450.28,384.85,447.76,381.45Z" transform="translate(-329.64 -200.35)"/><path class="7c24d693-4bde-47ec-acb7-ed377299e5d9" d="M480.29,389.94l-3.52-.33-.47,0c-4,.28-8,.87-11.88-1,5.14.49,10.31-1.09,15.41.31a1.46,1.46,0,0,0,1.47.4.63.63,0,0,1,.46.14C481.38,390,480.78,389.81,480.29,389.94Z" transform="translate(-329.64 -200.35)"/><path class="8d84b6dc-0cbf-450f-b61b-051f0b3ee127" d="M480.29,389.94c.49-.13,1.09.11,1.47-.42.37.11.57.54.33.68C481.49,390.54,480.87,390.19,480.29,389.94Z" transform="translate(-329.64 -200.35)"/><path class="8d84b6dc-0cbf-450f-b61b-051f0b3ee127" d="M481.3,389.38a1.46,1.46,0,0,1-1.47-.4A2,2,0,0,1,481.3,389.38Z" transform="translate(-329.64 -200.35)"/><path class="8d84b6dc-0cbf-450f-b61b-051f0b3ee127" d="M476.3,389.64l.47,0-.23.09Z" transform="translate(-329.64 -200.35)"/><path class="4de34c66-8cd3-4137-ac2e-21eab4bc152b" d="M391.35,378.64a5.62,5.62,0,0,1-5.45,5.85,5.7,5.7,0,0,1-5.7-5.7A5.48,5.48,0,0,1,386,373,5.34,5.34,0,0,1,391.35,378.64Z" transform="translate(-329.64 -200.35)"/><path class="4de34c66-8cd3-4137-ac2e-21eab4bc152b" d="M403.33,391.95c-.9,1.3-2.7.24-3.72,1.5-2.09,2.57-4.83,1.08-7.31.92s-5.1-.6-7.64-.93c-.85-.11-2,.11-1.94-1.3a2,2,0,0,1,2-2.1,26.93,26.93,0,0,1,5.7.16A126.5,126.5,0,0,0,403.38,392Z" transform="translate(-329.64 -200.35)"/><path class="cb6a977c-3df2-4dcd-9e3b-67953d2126c1" d="M407,379.64a101,101,0,0,1,16.28,2.5,3.19,3.19,0,0,1-2.63.67c-1.13-.07-2.43-1-2.79,1.17-.16.93-1.31.44-2,.29a48.59,48.59,0,0,0-5.4-1c-1.1-.12-3.27.77-2.32-2C408.38,380.73,406.88,381,407,379.64Z" transform="translate(-329.64 -200.35)"/><path class="3263278d-2179-4420-8a59-7646977b48ee" d="M394.42,371.6c-1.65-3-3-5.87-6.44-6.44s-5.79,1.37-7.93,4c.29-3.16,4.56-5.79,8.07-5.23S395.14,368.28,394.42,371.6Z" transform="translate(-329.64 -200.35)"/><path class="7c24d693-4bde-47ec-acb7-ed377299e5d9" d="M389.61,396.59a6.89,6.89,0,0,1,5.42.47A9.45,9.45,0,0,1,389.61,396.59Z" transform="translate(-329.64 -200.35)"/><path class="4de34c66-8cd3-4137-ac2e-21eab4bc152b" d="M403.38,392l-.12-.13.06.11Z" transform="translate(-329.64 -200.35)"/><path class="cf2d2f75-db55-44c4-b042-65371aa7d9fc" d="M378.89,301.12c-2.61.58-2.28-1-2.25-2,.06-2.23,2-1.12,3-1.26,1.27-.19,3.6-.42,3.43,1.33C382.8,301.64,380,300.65,378.89,301.12Z" transform="translate(-329.64 -200.35)"/><path class="cf2d2f75-db55-44c4-b042-65371aa7d9fc" d="M376,293.15c.2-2.35,1.91-1.56,3-1.66.89-.08,2.54-.2,2.26,1.07-.42,1.9-2.49,2.36-4.15,2.57S376.85,293.52,376,293.15Z" transform="translate(-329.64 -200.35)"/><path class="83fddbe7-53a2-4e20-b48c-8e7760311a20" d="M443.42,271.77a6,6,0,0,1-6.18,5.79,4.18,4.18,0,0,1-4.32-4.42c0-2.92,2.93-5.79,6-5.86A4.21,4.21,0,0,1,443.42,271.77Z" transform="translate(-329.64 -200.35)"/><path class="83fddbe7-53a2-4e20-b48c-8e7760311a20" d="M400.33,295.53a6.21,6.21,0,0,1-6.23,5.84,4.28,4.28,0,0,1-4.25-4.55,6.38,6.38,0,0,1,6-5.87A4.3,4.3,0,0,1,400.33,295.53Z" transform="translate(-329.64 -200.35)"/><path class="cf2d2f75-db55-44c4-b042-65371aa7d9fc" d="M365.71,296.86c-1.16.26-1.78.07-1.43-.87.47-1.29-.56-3.61,1.78-3.63,2,0,1.8,2.23,1.92,3.39C368.15,297.44,366.15,296.26,365.71,296.86Z" transform="translate(-329.64 -200.35)"/><path class="cf2d2f75-db55-44c4-b042-65371aa7d9fc" d="M381.37,272.6c-1.5-.16-3.2,1.76-3.94,0-.44-1-.5-3.71,1.35-4C381.6,268.32,380,271.49,381.37,272.6Z" transform="translate(-329.64 -200.35)"/></svg>