<svg id="3b0718b3-f154-4c8c-ac6a-75df7a071d05" data-name="Capa 1" xmlns="http://www.w3.org/2000/svg" viewBox="0 0 213.73 309.77"><defs><style>.b8f58224-a9d1-45da-a816-e6c115914b8e{fill:#232323;}.\39 5f9ec4f-311c-434e-8000-65357f1779bc{fill:#fefefe;}.\36 7265207-9fe2-48b9-97b6-86887010d519{fill:#161616;}.f58f46ff-1ced-41c0-8893-ffbc89dfd6e6{fill:#131511;}.\36 e3a70e0-8c6d-491c-be33-3d9aac8f9569{fill:#1c1d1d;}.\31 498e617-f90d-4f68-9c44-4afb24e2101b{fill:#353535;}.\33 e5fa506-5744-481c-9658-fb60a826fd4a{fill:#b8b7b7;}.ae629631-08fa-4b91-95f1-de054015b3e5{fill:#757474;}.f1e8d215-f6b4-4871-aafc-55c56ccb0176{fill:#f7cca0;}.d27e665e-7c08-4ba9-ae0c-53f6f11003b9{fill:#96b5c7;}.\31 373c28b-896d-4ed2-aa51-f27a72faf47c{fill:#fbfbfb;}.\36 f3e2f6f-cd47-4f1c-9cf9-957fe75bf270{fill:#509541;}.\33 34889da-f236-4db5-833d-f5fb6c8931b8{fill:#483a2e;}.\38 33c2052-b1bf-408d-974a-7eb042239661{fill:#f2f1f2;}.ccf041f2-2f7d-46cc-8a67-e546bccb83dd{fill:#140f09;}</style></defs><title>card-13</title><path class="b8f58224-a9d1-45da-a816-e6c115914b8e" d="M543.21,355.24q0,71.48,0,143a22.42,22.42,0,0,1-.2,3.48c-.91,5.78-3.94,8.37-9.86,8.38q-20.62,0-41.24,0H340.69c-7.88,0-11.21-3.31-11.21-11.27q0-143.72,0-287.44c0-7.43,2.87-10.47,10.24-11,1-.07,2-.09,3-.09H530.17c1.08,0,2.16,0,3.24.12,6.85.49,9.79,3.65,9.79,10.58q0,47.49,0,95Q543.21,330.63,543.21,355.24Zm-4.32-.28q0-71.12,0-142.25c0-6.93-1.15-8.07-8.16-8.08h-118q-35.75,0-71.5,0c-6.28,0-7.49,1.26-7.49,7.43q0,143.12,0,286.24c0,6,1.49,7.46,7.52,7.46H531.51c.83,0,1.67,0,2.5,0a4.73,4.73,0,0,0,4.71-4.31,23.91,23.91,0,0,0,.16-3.49Q538.89,426.46,538.89,355Z" transform="translate(-329.47 -200.32)"/><path class="95f9ec4f-311c-434e-8000-65357f1779bc" d="M538.89,355q0,71.5,0,143a23.91,23.91,0,0,1-.16,3.49,4.73,4.73,0,0,1-4.71,4.31c-.83.05-1.67,0-2.5,0H341.27c-6,0-7.52-1.47-7.52-7.46q0-143.12,0-286.24c0-6.17,1.21-7.42,7.49-7.43q35.75,0,71.5,0h118c7,0,8.16,1.15,8.16,8.08Q538.89,283.84,538.89,355Zm-70.61,77.76c1,1.06,0,2.43.54,3.56a135.84,135.84,0,0,1-1,13.94c-.42,3.73-.34,4,3.12,4.93,1.3.36,1.69.78,1.52,2.21-1.18,10-1.77,20-2,30.12,0,1.24-.21,2.74,1.58,2.86,2,.13,1.87-1.43,1.91-2.79q.41-14.22,1.74-28.38c.21-2.22.8-2.65,3-2.24a73.71,73.71,0,0,0,28.74.06c1.56-.33,1.45.51,1.61,1.36.72,3.75,1.34,7.52,2.13,11.26a162.12,162.12,0,0,0,5.47,19.14c.43,1.24.9,2.57,2.52,2.07,1.85-.57,1.25-2,.82-3.31,0-.08-.08-.15-.1-.23a177.81,177.81,0,0,1-7.43-29.68c-.26-1.7,0-2.54,1.62-3.22,2.13-.88,4.31-1.82,4.55-4.7.33-4,1.09-7.91,1.11-11.92.55-.56-.19-1.72.94-2,.18,3.32.36,6.65.52,10,.06,1.33.15,2.64,2,2.52,1.63-.11,1.66-1.34,1.58-2.57-.33-5.06-.57-10.14-1-15.19-1-11.19-2.33-22.34-6.2-33a2.56,2.56,0,0,1,.43-2.73,37.33,37.33,0,0,0,4.55-8.28c9.11-22.25-5.13-40.67-22-45.11a52,52,0,0,0-22-.65c-16,2.66-26.94,15.87-28.58,27.11-2.23,15.2,2.66,27.49,14.79,36.86a3,3,0,0,1,1.39,2.86,295.57,295.57,0,0,1-2.8,36.07c-.19,1.25-.66,2.92,1.33,3.15,1.84.22,2-1.24,2.17-2.66C467.25,440.31,467.78,436.52,468.28,432.72Zm-56.21-24,.4,0a8.62,8.62,0,0,1,.37.8A46.37,46.37,0,0,0,418,420.82c3.74,5.44,8.22,5.6,12.33.42a21.18,21.18,0,0,0,1.31-1.82c4.13-6.53,6.54-13.78,8.86-21.08.37-1.16.1-2.07-1.08-2.34a1.75,1.75,0,0,0-2.27,1.36c-.72,2.38-1.54,4.74-2.39,7.08-1.85,5.07-3.6,10.22-7,14.51-2.67,3.34-4.91,3.22-7.24-.37s-3.54-7.67-4.84-11.71c-.45-1.38-.13-2,1-2.84A36.8,36.8,0,0,0,431,377.17c1.62-19.4-12.13-31.75-24.54-35.36a51.84,51.84,0,0,0-23.71-1.11c-13.54,2.36-24.88,13.18-27.18,26.55-1.54,9,.66,17.36,5.32,25.09.89,1.47,1,2.08-.67,2.93a40.8,40.8,0,0,0-8.53,6.05c-7.38,6.72-7.89,14.59-1.53,22.23a51.67,51.67,0,0,0,7.95,7.18c1,.77,2.38,1.64.3,3a1.32,1.32,0,0,0,.1,2.3c2.51.73,1.92,2.74,2.15,4.39a59.31,59.31,0,0,1,.8,7.19c.07,3.54,1.66,5.8,5,6.9,1.37.46,1.68,1.26,1.39,2.66-.83,4-1.44,8-2.3,12A153.72,153.72,0,0,1,360,488.3c-.34.94-.47,1.78.43,2.47a1.59,1.59,0,0,0,1.86.16c.92-.49,1.1-1.44,1.39-2.28a181.7,181.7,0,0,0,7-26.75c.28-1.55,0-3.57.88-4.57,1.13-1.28,3,.24,4.54.4a87,87,0,0,0,26.35-.93c1.41-.29,1.84.09,1.93,1.53.4,6,1,11.95,1.39,17.93.27,4,.39,8,.55,12,0,1.11.36,2,1.53,2.25a1.51,1.51,0,0,0,1.81-1,6.26,6.26,0,0,0,.15-2.22q-.39-14.49-2-28.9c-.21-1.93,0-3.18,2.25-3.41s2.89-1.75,2.59-3.93a187.7,187.7,0,0,1-1.32-32.66C411.49,415.17,411.83,412,412.07,408.74ZM381.59,287.6c.91,2.28,1.71,4.27,2.49,6.27.32.82.53,1.53,1.73,1s1.31-.94.8-2.06a47.25,47.25,0,0,1-3.43-10.9c-.19-1-.42-1.8-1.85-1.75s-1.33,1-1.47,1.83a26.44,26.44,0,0,1-1.85,6.92c-.69-2.36-1.25-4.17-1.75-6-.25-.91-.42-1.69-1.7-1.71s-1.57.49-1.92,1.47a54.24,54.24,0,0,0-2.64,9.85c-.13.81-.79,1.79.76,2.12s1.75-.64,2-1.78a17.09,17.09,0,0,1,1.67-6c.81,2,1.56,3.73,2.21,5.51.33.91,1.07.9,1.79,1.05.92.2,1.14-.48,1.39-1.09C380.35,290.83,380.91,289.36,381.59,287.6Zm32,1.44c.29-.91.95-1,1.4-1.3,1.77-1.21,2.94-2.68,2.47-5s-2.16-3.18-4.24-3.64a23.09,23.09,0,0,0-6.46-.21c-.81,0-1.49.11-1.37,1.24.41,4.06.78,8.12,1.14,12.18.08.93.43,1.34,1.44,1.13.78-.17,1.5-.24,1.27-1.34a7.72,7.72,0,0,1,0-1.38c2.51.67,4.83,1.27,7.12,1.92,1,.28,1.52,0,1.82-1S418,290.18,417,290C415.89,289.73,414.79,289.38,413.58,289Zm-25.9-1.64c0,4.24,2.91,7.25,6.93,7.21A9,9,0,0,0,403.5,286a7,7,0,0,0-7.28-7.19A8.65,8.65,0,0,0,387.68,287.41Zm61.87-21.19,1.91-1.2c1.75-1.1,2.81-2.57,2.49-4.75-.34-2.35-2-3.34-4.06-3.83-2.29-.55-4.64-.21-7-.22-1.1,0-1.15.66-1.07,1.5q.54,5.84,1,11.68c.08,1,.41,1.51,1.54,1.39.92-.09,1.44-.37,1.22-1.36-.31-1.41.47-1.29,1.4-1,1.84.5,3.71.92,5.53,1.48,1,.31,1.63.49,2-.85s-.29-1.58-1.29-1.81S451.08,266.63,449.55,266.22Zm51,0c.85-.53,1.26-.8,1.68-1,1.95-1.16,3.12-2.73,2.68-5.13s-2.21-3.34-4.24-3.63a58.8,58.8,0,0,0-6.73-.2c-1.09,0-1.16.64-1.08,1.49q.54,5.84,1,11.69c.08,1,.42,1.51,1.55,1.39.91-.1,1.46-.34,1.23-1.35-.32-1.4.43-1.31,1.38-1.06,1.84.5,3.71.92,5.54,1.48,1,.3,1.59.55,2-.82s-.25-1.59-1.25-1.83S502.07,266.64,500.53,266.22Zm-109.17-1.7a21.5,21.5,0,0,1-5.19-6.79,2.49,2.49,0,0,0-3-1.55c-1.66.25-.88,1.56-.9,2.37a44.88,44.88,0,0,0,.92,10.14c.16.8.07,1.78,1.44,1.34.92-.29,1.7-.42,1.26-1.79s-.49-2.94-.88-4.37c-.15-.57-.52-1.22,0-1.52s1,.38,1.28.85c1.52,2.18,3.07,4.33,4.56,6.53.53.78,1.05,1.2,2,.85s1.36-.7,1.28-1.75c-.28-3.47-.46-7-.71-10.43-.06-.88,0-1.82-1.49-1.69-1.63.15-1.28,1.19-1.2,2.14C391,260.74,391.17,262.63,391.36,264.53ZM369,270.47c-.2.61,0,1.14,1.08,1.2s1.62.07,1.72-1.16c.08-1,0-2.32.89-2.67a9.88,9.88,0,0,1,4.62-.78c1.29.16,1,1.92,1.27,3s.52,1.48,1.77,1.32c1.62-.21,1.1-1.22.89-2-.76-2.79-1.58-5.57-2.47-8.32-1.45-4.43-1.47-4.37-6.06-3.38A1.88,1.88,0,0,0,371,259.4C370.4,263,369.74,266.58,369,270.47Zm63.82.29c1-.05,2,0,3-.18,3-.45,3.93-1.47,3.81-4.44a53.63,53.63,0,0,0-1.31-8.86c-.22-1.08-.78-1.05-1.6-1s-1.3.5-1.08,1.48c.33,1.46.62,2.93.81,4.41.85,6.41,1.16,5.56-4.88,5.71-1.84,0-2.35-.88-2.13-2.49.34-2.47.69-4.94,1-7.41.1-.76.66-1.69-.8-1.82-1.21-.1-1.85.24-2,1.57-.17,2.24-.53,4.46-.72,6.69C426.59,269.45,427.8,270.71,432.86,270.75Zm-34.45-14.14c-3.17,0-3.15,0-2.84,3.13.24,2.39.46,4.79.63,7.19.34,4.68.33,4.68,5,4.29.17,0,.33,0,.5,0,4.31-.65,6.77-3.7,6.08-7.55S402.88,256.64,398.41,256.62Zm69.77,2.76c.3,3.18.53,6,.85,8.81.11,1-.16,2.28,1.69,2s1.09-1.51,1-2.28c-.3-1.71.3-2.32,2-2.54,3.31-.44,3.3-.52,3.62,2.87,0,.33.05.66.08,1,.11,1.13.91.93,1.67.92s1.11-.44,1-1.27c-.32-3.9-.63-7.8-.87-11.71-.07-1.2-.56-1.53-1.72-1.46-1.34.08-1.16.89-1.08,1.73.11,1.16.23,2.32.33,3.48.06.67.09,1.18-.82,1.5-3.33,1.17-4.52.53-4.89-2.85-.07-.66-.13-1.33-.14-2,0-1-.76-.86-1.41-.87s-1.34,0-1.26,1C468.22,258.4,468.18,259.07,468.18,259.38Zm13.64.17c.17,3.07.34,6.14.49,9.21,0,.89.07,1.65,1.31,1.63a25.36,25.36,0,0,0,6.43-.57c.88-.24,1.34-.5,1.12-1.49s-.45-1.57-1.64-1.23a15,15,0,0,1-2.7.45c-.89.09-1.85.32-2-1.12s.6-1.53,1.61-1.58c.83,0,1.66-.13,2.49-.14,1,0,1.75-.12,1.6-1.52s-.91-1.34-1.9-1.19c-.57.09-1.18,0-1.74.16-1.72.4-2.24-.35-2.4-2-.2-2,1.18-1.33,2.08-1.46a13,13,0,0,1,2.24-.09c1,0,1.53-.19,1.5-1.38,0-1.34-.74-1.47-1.77-1.38s-2.32.21-3.48.26C481.62,256.26,481.62,256.25,481.82,259.55Zm-57.24,19.07v.12c-.75,0-1.5.06-2.24,0-2-.19-2.86.43-2.49,2.62a47.45,47.45,0,0,1,.42,6c.27,6.54.76,6.91,7.27,5.38.16,0,.32-.09.49-.11,1.12-.16,1.45-.74,1.27-1.89-.21-1.36-1.06-1-1.85-.89-1.07.13-2.13.3-3.19.44s-1.1-.65-1.22-1.41c-.15-.93.31-1.12,1.09-1.17,1.16-.07,2.31-.26,3.47-.33.79-.05,1.24-.28,1.15-1.18s-.06-1.54-1.17-1.47c-.91.06-1.83.05-2.74.14-1.11.1-2,.37-2.13-1.41s.51-2.2,2.05-2.1c.74,0,1.5-.09,2.24,0,1,.06,1.5-.16,1.42-1.36s-.62-1.36-1.59-1.28C426.07,278.66,425.32,278.62,424.58,278.62Zm.46,30.61c-.08-1.17-.17-3-.36-4.81-.08-.78-.47-1.42-1.45-1.36s-1.14.74-1.07,1.57.12,1.49.19,2.24a22.51,22.51,0,0,1-6.49,18.39c-1.25,1.32-2.76,2.39-4.11,3.61-.69.62-1.94,1.15-1,2.34.76.94,1.61.35,2.39-.22C420.33,325.75,424.79,319,425,309.23Zm-3-44.46c-.66-.16-1.43.67-2-.3a2.28,2.28,0,0,1,1.86-3.67c.75,0,1.5-.1,2.25-.06.9,0,1.42-.19,1.37-1.24s-.32-1.5-1.47-1.41c-1.9.16-3.82.22-5.73.22-1.22,0-1.57.46-1.45,1.65q.54,5.21.92,10.44c.08,1.09.52,1.41,1.57,1.34s1.42-.61,1.09-1.62c-.73-2.28.6-2.73,2.41-2.66s2.08-1.06,1.47-2.37C423.88,264.16,422.82,264.92,422.05,264.77Zm42.9-8.3c-2.18.25-4.82.57-7.47.85-1.07.11-1.91.24-1.7,1.74s1.2,1.2,2,1c1.57-.44,2,.07,2.05,1.66,0,2.41.29,4.82.43,7.23.06,1-.06,2,1.53,1.92s1.38-1,1.31-2c-.13-2-.14-4-.4-6-.3-2.31-.26-4.14,2.89-3.76,1,.12,1.26-.53,1.15-1.45S466.47,256.18,465,256.47Zm44.37,9.28c2.54-.22,4.76-.46,7-.59,1.19-.07,1.54-.56,1.41-1.73s-.81-1.25-1.73-1.14c-2.22.27-4.44.47-6.65.79-.74.11-2-.41-1.89,1.21S508.44,266,509.32,265.76Zm-59.9,26.5c.08-1.1-.36-1.65-1.69-1.57-1.08.06-1.12.51-1.09,1.38,0,1.12.42,1.63,1.61,1.57C449.15,293.59,449.71,293.42,449.42,292.26Zm-15.67,1.35c.83,0,1.62,0,1.42-1.13-.15-.84-.08-1.86-1.46-1.78-.88.05-1.61,0-1.48,1.27C432.33,293,432.56,293.75,433.75,293.61Zm8.54-1.48c.18-1.15-.51-1.49-1.64-1.41-.69.05-1.36,0-1.19,1.06s.2,2,1.7,1.88C442.22,293.6,442.44,293.14,442.29,292.13Z" transform="translate(-329.47 -200.32)"/><path class="67265207-9fe2-48b9-97b6-86887010d519" d="M412.07,408.74c-.24,3.22-.57,6.43-.69,9.65A187.7,187.7,0,0,0,412.7,451c.3,2.18-.24,3.69-2.59,3.93s-2.46,1.48-2.25,3.41q1.55,14.41,2,28.9a6.26,6.26,0,0,1-.15,2.22,1.51,1.51,0,0,1-1.81,1c-1.17-.27-1.49-1.14-1.53-2.25-.15-4-.27-8-.55-12-.41-6-1-11.95-1.39-17.93-.1-1.45-.53-1.82-1.93-1.53a87,87,0,0,1-26.35.93c-1.56-.16-3.41-1.68-4.54-.4-.88,1-.59,3-.88,4.57a181.7,181.7,0,0,1-7,26.75c-.29.84-.47,1.79-1.39,2.28a1.59,1.59,0,0,1-1.86-.16c-.89-.69-.76-1.53-.43-2.47a153.72,153.72,0,0,0,5.5-19.15c.86-4,1.47-8,2.3-12,.29-1.39,0-2.2-1.39-2.66-3.3-1.1-4.89-3.36-5-6.9a59.31,59.31,0,0,0-.8-7.19c-.24-1.66.35-3.66-2.15-4.39a1.32,1.32,0,0,1-.1-2.3c2.08-1.32.68-2.19-.3-3a51.67,51.67,0,0,1-7.95-7.18c-6.37-7.64-5.85-15.52,1.53-22.23a40.8,40.8,0,0,1,8.53-6.05c1.63-.85,1.55-1.47.67-2.93-4.66-7.72-6.86-16.1-5.32-25.09,2.3-13.37,13.64-24.19,27.18-26.55a51.84,51.84,0,0,1,23.71,1.11c12.41,3.61,26.16,16,24.54,35.36A36.8,36.8,0,0,1,416.6,404c-1.09.86-1.4,1.47-1,2.84,1.31,4,2.51,8.11,4.84,11.71s4.57,3.71,7.24.37c3.43-4.29,5.18-9.44,7-14.51.86-2.34,1.67-4.7,2.39-7.08a1.75,1.75,0,0,1,2.27-1.36c1.17.27,1.45,1.18,1.08,2.34-2.32,7.29-4.73,14.55-8.86,21.08a21.18,21.18,0,0,1-1.31,1.82c-4.11,5.18-8.6,5-12.33-.42a46.37,46.37,0,0,1-5.16-11.31,8.62,8.62,0,0,0-.37-.8ZM358.6,372.87a34.36,34.36,0,0,0,.36,4.53c2.84,14.29,10.79,24,25.13,28,16.47,4.59,31.28,0,39.22-14.29s5.62-33.71-11.43-43.18c-10.21-5.67-21.18-5.74-32.21-2.78C367.55,348.43,358.76,360,358.6,372.87Zm49.52,35.82c-4,1.05-7.66,2-11.53,2-9.81-.13-18.93-2.44-26.93-8.36-1.1-.81-1.73-1.15-2,.71-.42,2.87-1.12,5.71-1.69,8.56a103.05,103.05,0,0,0-.56,35.75c.16,1.08.12,2.29,1.43,3,2.65,1.42,5.35,2.9,8.31,3.28a84.51,84.51,0,0,0,31.94-1.75c1.41-.36,1.66-1,1.52-2.24-.36-3.22-.64-6.46-.89-9.69A201.55,201.55,0,0,1,408.12,408.69Zm-48,19.22c.31-3.66.5-7,.89-10.23.73-6.28,2.17-12.42,3.51-18.59.12-.55.43-1.16-.14-1.62s-1.11.1-1.56.36a37.66,37.66,0,0,0-10.43,8c-3.84,4.47-4.1,9-.79,13.9A32.43,32.43,0,0,0,360.14,427.91Z" transform="translate(-329.47 -200.32)"/><path class="f58f46ff-1ced-41c0-8893-ffbc89dfd6e6" d="M519.8,437.76c0,4-.78,7.94-1.11,11.92-.24,2.88-2.42,3.82-4.55,4.7-1.63.68-1.89,1.52-1.62,3.22a177.81,177.81,0,0,0,7.43,29.68c0,.08.08.15.1.23.43,1.28,1,2.74-.82,3.31-1.62.5-2.1-.83-2.52-2.07a162.12,162.12,0,0,1-5.47-19.14c-.79-3.74-1.41-7.51-2.13-11.26-.16-.85-.05-1.69-1.61-1.36a73.71,73.71,0,0,1-28.74-.06c-2.2-.41-2.8,0-3,2.24q-1.35,14.17-1.74,28.38c0,1.36.08,2.92-1.91,2.79-1.79-.12-1.6-1.62-1.58-2.86.21-10.07.8-20.11,2-30.12.17-1.43-.23-1.85-1.52-2.21-3.46-1-3.54-1.2-3.12-4.93a135.84,135.84,0,0,0,1-13.94c.8-3.93.39-7.88.3-11.84a34.32,34.32,0,0,0-.74,4.81c-.1,1.15-.07,2.31-.1,3.46-.5,3.79-1,7.58-1.47,11.38-.17,1.42-.33,2.88-2.17,2.66-2-.23-1.52-1.91-1.33-3.15a295.57,295.57,0,0,0,2.8-36.07,3,3,0,0,0-1.39-2.86c-12.13-9.37-17-21.66-14.79-36.86,1.65-11.23,12.63-24.45,28.58-27.11a52,52,0,0,1,22,.65c16.89,4.44,31.13,22.86,22,45.11a37.33,37.33,0,0,1-4.55,8.28,2.56,2.56,0,0,0-.43,2.73c3.87,10.65,5.18,21.8,6.2,33,.46,5.05.69,10.13,1,15.19.08,1.23,0,2.46-1.58,2.57-1.8.12-1.89-1.19-2-2.52-.15-3.33-.34-6.65-.52-10a5.35,5.35,0,0,0-.94-4.34Zm-66.05-71.82,0,.65-.39,1.24a.32.32,0,0,0,0,.4c-.1,1.16-.18,2.32-.3,3.48-1.33,13.19,5.94,26.72,17.39,32.31a32.87,32.87,0,0,0,19.47,2.71c12.72-1.8,22.82-7.39,28.58-19.45,7.79-16.32,2.06-33.71-14.26-40.85-10.72-4.69-22-4.34-32.84.13C462.57,350.16,456.87,357,453.74,365.94Zm40,88.24c1.83,0,3.66.06,5.49,0a30,30,0,0,0,13.63-3.48,3.48,3.48,0,0,0,2-2.84c.72-4.78,1.07-9.59,1.33-14.4.56-10.31-1.41-20.36-3.45-30.39-.4-2-1.19-1.21-2.18-.55-11.3,7.57-23.51,10.17-36.79,6.58-1.39-.37-1.61,0-1.49,1.21.17,1.65.35,3.3.49,5,.93,11.41.14,22.77-.92,34.12-.15,1.56.34,2.13,1.89,2.51A75.37,75.37,0,0,0,493.75,454.18Z" transform="translate(-329.47 -200.32)"/><path class="6e3a70e0-8c6d-491c-be33-3d9aac8f9569" d="M381.59,287.6c-.68,1.75-1.24,3.22-1.83,4.68-.25.61-.46,1.29-1.39,1.09-.72-.15-1.45-.14-1.79-1.05-.65-1.78-1.41-3.52-2.21-5.51a17.09,17.09,0,0,0-1.67,6c-.2,1.15-.33,2.13-2,1.78s-.89-1.31-.76-2.12a54.24,54.24,0,0,1,2.64-9.85c.36-1,.77-1.48,1.92-1.47s1.44.8,1.7,1.71c.51,1.83,1.06,3.64,1.75,6a26.44,26.44,0,0,0,1.85-6.92c.14-.83,0-1.77,1.47-1.83s1.66.73,1.85,1.75a47.25,47.25,0,0,0,3.43,10.9c.51,1.12.25,1.56-.8,2.06s-1.41-.14-1.73-1C383.3,291.87,382.5,289.88,381.59,287.6Z" transform="translate(-329.47 -200.32)"/><path class="6e3a70e0-8c6d-491c-be33-3d9aac8f9569" d="M413.58,289c1.22.33,2.32.69,3.44.93,1,.21,1.45.55,1.13,1.67s-.82,1.29-1.82,1c-2.3-.65-4.61-1.25-7.12-1.92a7.72,7.72,0,0,0,0,1.38c.23,1.1-.49,1.17-1.27,1.34-1,.22-1.36-.19-1.44-1.13-.36-4.06-.73-8.12-1.14-12.18-.11-1.13.56-1.19,1.37-1.24a23.09,23.09,0,0,1,6.46.21c2.08.46,3.77,1.33,4.24,3.64s-.7,3.78-2.47,5C414.52,288.05,413.87,288.14,413.58,289Zm-2.91-7.58c-1,.25-2.8-.61-2.32,1.5.33,1.44-.69,3.54,1.2,4.19,1.42.48,5.39-2.33,5.26-3.38C414.47,281.13,412.22,281.83,410.67,281.47Z" transform="translate(-329.47 -200.32)"/><path class="6e3a70e0-8c6d-491c-be33-3d9aac8f9569" d="M387.68,287.41a8.65,8.65,0,0,1,8.54-8.62A7,7,0,0,1,403.5,286a9,9,0,0,1-8.89,8.64C390.59,294.66,387.7,291.65,387.68,287.41Zm13.08-1.31c0-2.85-1.64-4.58-4.4-4.57a6.15,6.15,0,0,0-6.07,5.73,4.11,4.11,0,0,0,4.18,4.52A6,6,0,0,0,400.76,286.1Z" transform="translate(-329.47 -200.32)"/><path class="6e3a70e0-8c6d-491c-be33-3d9aac8f9569" d="M449.55,266.22c1.53.41,2.63.74,3.75,1s1.66.47,1.29,1.81-1,1.16-2,.85c-1.82-.57-3.69-1-5.53-1.48-.93-.25-1.71-.37-1.4,1,.22,1-.31,1.26-1.22,1.36-1.13.12-1.46-.4-1.54-1.39q-.49-5.84-1-11.68c-.08-.84,0-1.5,1.07-1.5,2.32,0,4.67-.32,7,.22,2,.49,3.72,1.48,4.06,3.83.31,2.18-.75,3.65-2.49,4.75Zm-4.19-1.48a14.51,14.51,0,0,0,5-2.29c1.36-1,1.25-2.39-.25-3.12a5.83,5.83,0,0,0-5-.3c-1,.51-.2,2.28-.13,3.48C445,263.23,445.22,263.94,445.35,264.74Z" transform="translate(-329.47 -200.32)"/><path class="6e3a70e0-8c6d-491c-be33-3d9aac8f9569" d="M500.53,266.22c1.55.41,2.65.74,3.77,1s1.63.48,1.25,1.83-1,1.12-2,.82c-1.83-.56-3.69-1-5.54-1.48-.95-.26-1.7-.35-1.38,1.06.23,1-.32,1.25-1.23,1.35-1.14.12-1.47-.41-1.55-1.39q-.5-5.85-1-11.69c-.08-.85,0-1.51,1.08-1.49a58.8,58.8,0,0,1,6.73.2c2,.28,3.81,1.27,4.24,3.63s-.73,4-2.68,5.13C501.78,265.43,501.37,265.69,500.53,266.22Zm-2.37-7.49c-1,.26-2.74-.65-2.34,1.49.28,1.49-.64,3.59,1.12,4.32,1.4.58,5.6-2.55,5.35-3.64C501.76,258.61,499.74,259,498.15,258.73Z" transform="translate(-329.47 -200.32)"/><path class="6e3a70e0-8c6d-491c-be33-3d9aac8f9569" d="M391.36,264.53c-.18-1.89-.38-3.78-.54-5.68-.08-1-.43-2,1.2-2.14,1.46-.13,1.42.81,1.49,1.69.25,3.48.43,7,.71,10.43.09,1.05-.41,1.44-1.28,1.75s-1.52-.07-2-.85c-1.49-2.2-3-4.35-4.56-6.53-.33-.47-.64-1.22-1.28-.85s-.17,1,0,1.52c.39,1.43.43,3,.88,4.37s-.34,1.5-1.26,1.79c-1.37.43-1.28-.55-1.44-1.34a44.88,44.88,0,0,1-.92-10.14c0-.81-.76-2.12.9-2.37a2.49,2.49,0,0,1,3,1.55A21.5,21.5,0,0,0,391.36,264.53Z" transform="translate(-329.47 -200.32)"/><path class="6e3a70e0-8c6d-491c-be33-3d9aac8f9569" d="M369,270.47c.7-3.89,1.36-7.47,2-11.06a1.88,1.88,0,0,1,1.72-1.74c4.59-1,4.61-1.05,6.06,3.38.9,2.75,1.71,5.53,2.47,8.32.21.76.73,1.77-.89,2-1.24.16-1.49-.22-1.77-1.32s0-2.79-1.27-3a9.88,9.88,0,0,0-4.62.78c-.89.35-.81,1.72-.89,2.67-.1,1.23-.82,1.22-1.72,1.16S368.84,271.08,369,270.47Zm5.23-5.72c.74-.38,2.56.35,2.34-1.29-.15-1.11,0-3.24-1.85-3.23-2.43,0-1.21,2.43-1.82,3.68C372.45,264.91,373.49,264.75,374.27,264.74Z" transform="translate(-329.47 -200.32)"/><path class="b8f58224-a9d1-45da-a816-e6c115914b8e" d="M432.86,270.75c-5.06,0-6.27-1.31-5.83-6.29.19-2.23.55-4.45.72-6.69.1-1.34.75-1.68,2-1.57,1.46.12.9,1.06.8,1.82-.34,2.47-.69,4.94-1,7.41-.22,1.62.28,2.54,2.13,2.49,6-.16,5.73.7,4.88-5.71-.2-1.48-.48-3-.81-4.41-.22-1,.13-1.37,1.08-1.48s1.38-.12,1.6,1a53.63,53.63,0,0,1,1.31,8.86c.11,3-.83,4-3.81,4.44C434.86,270.73,433.85,270.7,432.86,270.75Z" transform="translate(-329.47 -200.32)"/><path class="67265207-9fe2-48b9-97b6-86887010d519" d="M398.41,256.62c4.48,0,8.68,3.17,9.37,7s-1.76,6.9-6.08,7.55c-.16,0-.33,0-.5,0-4.68.39-4.67.39-5-4.29-.18-2.4-.39-4.8-.63-7.19C395.25,256.6,395.23,256.6,398.41,256.62Zm.05,4.51c.12,1.77.25,3.83.4,5.89.06.83,0,1.74,1.29,1.64,1.84-.14,3.72-.35,4.71-2.18s.16-3.5-1.11-4.95a7.63,7.63,0,0,0-3.82-2.16C398.56,259,398.08,259.49,398.46,261.13Z" transform="translate(-329.47 -200.32)"/><path class="b8f58224-a9d1-45da-a816-e6c115914b8e" d="M468.18,259.38c0-.31,0-1,0-1.64-.08-1,.54-1,1.26-1s1.39-.17,1.41.87c0,.66.07,1.33.14,2,.37,3.38,1.56,4,4.89,2.85.91-.32.88-.82.82-1.5-.1-1.16-.22-2.32-.33-3.48-.08-.84-.26-1.65,1.08-1.73,1.16-.07,1.65.26,1.72,1.46.24,3.9.55,7.81.87,11.71.07.83-.14,1.26-1,1.27s-1.56.21-1.67-.92c0-.33-.05-.66-.08-1-.32-3.39-.31-3.31-3.62-2.87-1.66.22-2.26.83-2,2.54.14.77.8,2-1,2.28s-1.58-1-1.69-2C468.71,265.38,468.48,262.56,468.18,259.38Z" transform="translate(-329.47 -200.32)"/><path class="6e3a70e0-8c6d-491c-be33-3d9aac8f9569" d="M481.82,259.55c-.2-3.3-.2-3.29,3.22-3.43,1.16,0,2.32-.16,3.48-.26s1.75,0,1.77,1.38c0,1.19-.53,1.41-1.5,1.38a13,13,0,0,0-2.24.09c-.9.13-2.27-.53-2.08,1.46.16,1.65.69,2.39,2.4,2,.56-.13,1.16-.07,1.74-.16,1-.15,1.75-.19,1.9,1.19s-.56,1.51-1.6,1.52c-.83,0-1.66.1-2.49.14-1,.05-1.75.24-1.61,1.58s1.12,1.21,2,1.12a15,15,0,0,0,2.7-.45c1.18-.34,1.43.32,1.64,1.23s-.24,1.24-1.12,1.49a25.36,25.36,0,0,1-6.43.57c-1.23,0-1.26-.74-1.31-1.63C482.16,265.69,482,262.62,481.82,259.55Z" transform="translate(-329.47 -200.32)"/><path class="6e3a70e0-8c6d-491c-be33-3d9aac8f9569" d="M424.58,278.62c.75,0,1.5,0,2.24,0,1-.08,1.51.12,1.59,1.28s-.41,1.42-1.42,1.36c-.74,0-1.5.1-2.24,0-1.54-.1-2.15.37-2.05,2.1s1,1.51,2.13,1.41c.91-.09,1.83-.08,2.74-.14,1.12-.07,1.09.69,1.17,1.47s-.36,1.13-1.15,1.18c-1.16.07-2.31.26-3.47.33-.78,0-1.24.24-1.09,1.17.12.76.09,1.57,1.22,1.41s2.13-.31,3.19-.44c.79-.1,1.64-.47,1.85.89.18,1.15-.15,1.72-1.27,1.89-.16,0-.32.07-.49.11-6.51,1.54-7,1.16-7.27-5.38a47.45,47.45,0,0,0-.42-6c-.37-2.19.51-2.81,2.49-2.62.74.07,1.49,0,2.24,0Z" transform="translate(-329.47 -200.32)"/><path class="6e3a70e0-8c6d-491c-be33-3d9aac8f9569" d="M425,309.23c-.24,9.78-4.7,16.52-11.87,21.74-.78.57-1.63,1.17-2.39.22-1-1.2.29-1.73,1-2.34,1.36-1.22,2.86-2.29,4.11-3.61a22.51,22.51,0,0,0,6.49-18.39c-.07-.74-.12-1.49-.19-2.24s0-1.5,1.07-1.57,1.37.58,1.45,1.36C424.86,306.23,425,308.05,425,309.23Z" transform="translate(-329.47 -200.32)"/><path class="6e3a70e0-8c6d-491c-be33-3d9aac8f9569" d="M422.05,264.77c.77.15,1.83-.61,2.27.33.62,1.31.48,2.44-1.47,2.37s-3.14.38-2.41,2.66c.33,1,.09,1.55-1.09,1.62s-1.49-.25-1.57-1.34q-.38-5.23-.92-10.44c-.12-1.19.23-1.65,1.45-1.65,1.91,0,3.83-.06,5.73-.22,1.15-.09,1.42.41,1.47,1.41s-.47,1.28-1.37,1.24c-.75,0-1.5,0-2.25.06a2.28,2.28,0,0,0-1.86,3.67C420.62,265.44,421.4,264.6,422.05,264.77Z" transform="translate(-329.47 -200.32)"/><path class="b8f58224-a9d1-45da-a816-e6c115914b8e" d="M465,256.47c1.52-.29,1.71.35,1.81,1.2s-.18,1.56-1.15,1.45c-3.15-.38-3.19,1.45-2.89,3.76.25,2,.26,4,.4,6,.07,1,.32,1.95-1.31,2s-1.48-.9-1.53-1.92c-.13-2.41-.41-4.82-.43-7.23,0-1.59-.48-2.09-2.05-1.66-.82.23-1.8.55-2-1s.63-1.62,1.7-1.74C460.13,257,462.77,256.72,465,256.47Z" transform="translate(-329.47 -200.32)"/><path class="b8f58224-a9d1-45da-a816-e6c115914b8e" d="M509.32,265.76c-.88.2-1.8.11-1.88-1.47s1.15-1.1,1.89-1.21c2.21-.32,4.44-.52,6.65-.79.92-.11,1.59-.06,1.73,1.14s-.22,1.66-1.41,1.73C514.08,265.3,511.86,265.54,509.32,265.76Z" transform="translate(-329.47 -200.32)"/><path class="1498e617-f90d-4f68-9c44-4afb24e2101b" d="M449.42,292.26c.29,1.16-.27,1.33-1.17,1.38-1.19.07-1.56-.45-1.61-1.57,0-.87,0-1.32,1.09-1.38C449.06,290.61,449.5,291.16,449.42,292.26Z" transform="translate(-329.47 -200.32)"/><path class="1498e617-f90d-4f68-9c44-4afb24e2101b" d="M433.75,293.61c-1.19.14-1.42-.59-1.53-1.63-.13-1.28.6-1.22,1.48-1.27,1.39-.09,1.31.94,1.46,1.78C435.37,293.62,434.58,293.63,433.75,293.61Z" transform="translate(-329.47 -200.32)"/><path class="1498e617-f90d-4f68-9c44-4afb24e2101b" d="M442.29,292.13c.15,1-.07,1.47-1.13,1.53-1.49.08-1.53-.85-1.7-1.88s.5-1,1.19-1.06C441.78,290.63,442.46,291,442.29,292.13Z" transform="translate(-329.47 -200.32)"/><path class="3e5fa506-5744-481c-9658-fb60a826fd4a" d="M468.28,432.72c0-1.15,0-2.31.1-3.46a34.32,34.32,0,0,1,.74-4.81c.09,4,.5,7.91-.3,11.84C468.29,435.15,469.27,433.79,468.28,432.72Z" transform="translate(-329.47 -200.32)"/><path class="ae629631-08fa-4b91-95f1-de054015b3e5" d="M519.8,437.76v-6.34a5.35,5.35,0,0,1,.94,4.34C519.61,436,520.35,437.2,519.8,437.76Z" transform="translate(-329.47 -200.32)"/><path class="f1e8d215-f6b4-4871-aafc-55c56ccb0176" d="M358.6,372.87c.17-12.91,9-24.44,21.06-27.7,11-3,22-2.9,32.21,2.78,17,9.47,19.42,28.85,11.43,43.18S400.56,410,384.08,405.41c-14.34-4-22.29-13.73-25.13-28A34.36,34.36,0,0,1,358.6,372.87Zm63.19-1.66c1.56-.58,3.36.29,5.39-1a53.4,53.4,0,0,0-13.8-.07c1.09,1.76,3.17-.2,4,1.6-2.28,1.8-2.81,4.05-1.47,6.26a4.4,4.4,0,0,0,5.78,1.93A4.79,4.79,0,0,0,421.78,371.21Zm-17,9c-7.6-.43-8.44.13-10,6.53-.14.6-.67,1.35,0,1.84.54.38,1.1-.21,1.6-.43a28.32,28.32,0,0,1,16.82-2c2.54.44,1.89-2,2.51-3.15.76-1.45-.67-1.41-1.43-1.59A40.83,40.83,0,0,0,404.83,380.16Zm-10.88-9.87c-2.62,3-2.89,5.64-.94,7.64a4.73,4.73,0,0,0,6.32.44c2.4-2.18,2.29-4.86-.33-8,1-.67,2.38.45,3.58-1.13-4.61.08-8.83-.4-13.53.22.59.45.66.54.73.54Z" transform="translate(-329.47 -200.32)"/><path class="d27e665e-7c08-4ba9-ae0c-53f6f11003b9" d="M408.12,408.69a201.55,201.55,0,0,0-.4,31.22c.25,3.23.53,6.47.89,9.69.14,1.29-.1,1.88-1.52,2.24a84.51,84.51,0,0,1-31.94,1.75c-3-.38-5.66-1.85-8.31-3.28-1.3-.7-1.26-1.91-1.43-3a103.05,103.05,0,0,1,.56-35.75c.57-2.85,1.26-5.69,1.69-8.56.27-1.85.91-1.52,2-.71,8,5.92,17.11,8.23,26.93,8.36C400.46,410.72,404.15,409.75,408.12,408.69Z" transform="translate(-329.47 -200.32)"/><path class="1373c28b-896d-4ed2-aa51-f27a72faf47c" d="M360.14,427.91a32.43,32.43,0,0,1-8.53-8.18c-3.31-4.88-3-9.44.79-13.9a37.66,37.66,0,0,1,10.43-8c.45-.25.94-.86,1.56-.36s.26,1.06.14,1.62c-1.33,6.17-2.77,12.32-3.51,18.59C360.64,421,360.45,424.25,360.14,427.91Z" transform="translate(-329.47 -200.32)"/><path class="f1e8d215-f6b4-4871-aafc-55c56ccb0176" d="M453.31,367.82l.39-1.24c4.66.18,8.71-1.93,13-3.25-4.47.2-8.63,1.74-12.94,2.6,3.13-8.94,8.83-15.78,17.57-19.39,10.81-4.47,22.12-4.82,32.84-.13,16.32,7.15,22.05,24.53,14.26,40.85-5.76,12.06-15.86,17.65-28.58,19.45A32.87,32.87,0,0,1,470.36,404c-11.45-5.58-18.72-19.11-17.39-32.31.12-1.16.2-2.32.3-3.48A.25.25,0,0,0,453.31,367.82Zm12,7.78a4.41,4.41,0,0,0-4.69-4.65,4.67,4.67,0,1,0,.29,9.33A4.51,4.51,0,0,0,465.32,375.61Zm18.92-5.54c-2.87,0-4.83,1.83-4.84,4.52a4.69,4.69,0,1,0,9.37.05A4.49,4.49,0,0,0,484.23,370.07Zm-4.87-5.58c4,1.16,8,2.6,12.69,3.28C489.83,365.92,481.74,363.88,479.36,364.49Zm-10.9,18.18c4.24,1.12,8.7-.17,12.9,1.38.07,0,.22-.2.72-.66C477.46,381.33,472.91,382.52,468.46,382.67Z" transform="translate(-329.47 -200.32)"/><path class="6f3e2f6f-cd47-4f1c-9cf9-957fe75bf270" d="M493.75,454.18a75.37,75.37,0,0,1-20-2.29c-1.55-.38-2-.95-1.89-2.51,1.06-11.35,1.86-22.71.92-34.12-.14-1.66-.32-3.31-.49-5-.12-1.18.1-1.58,1.49-1.21,13.28,3.59,25.49,1,36.79-6.58,1-.67,1.79-1.41,2.18.55,2,10,4,20.08,3.45,30.39-.26,4.81-.6,9.62-1.33,14.4a3.48,3.48,0,0,1-2,2.84,30,30,0,0,1-13.63,3.48C497.42,454.24,495.58,454.18,493.75,454.18Z" transform="translate(-329.47 -200.32)"/><path class="334889da-f236-4db5-833d-f5fb6c8931b8" d="M453.74,365.94c4.31-.87,8.48-2.4,12.94-2.6-4.27,1.32-8.32,3.43-13,3.25Z" transform="translate(-329.47 -200.32)"/><path class="334889da-f236-4db5-833d-f5fb6c8931b8" d="M453.31,367.82a.25.25,0,0,1,0,.4A.32.32,0,0,1,453.31,367.82Z" transform="translate(-329.47 -200.32)"/><path class="833c2052-b1bf-408d-974a-7eb042239661" d="M410.67,281.47c1.55.36,3.81-.33,4.14,2.3.13,1-3.84,3.87-5.26,3.38-1.9-.65-.88-2.75-1.2-4.19C407.87,280.86,409.63,281.72,410.67,281.47Z" transform="translate(-329.47 -200.32)"/><path class="1373c28b-896d-4ed2-aa51-f27a72faf47c" d="M400.76,286.1a6,6,0,0,1-6.29,5.67,4.11,4.11,0,0,1-4.18-4.52,6.15,6.15,0,0,1,6.07-5.73C399.12,281.52,400.78,283.25,400.76,286.1Z" transform="translate(-329.47 -200.32)"/><path class="833c2052-b1bf-408d-974a-7eb042239661" d="M445.35,264.74c-.13-.8-.31-1.51-.35-2.23-.07-1.2-.88-3,.13-3.48a5.83,5.83,0,0,1,5,.3c1.5.73,1.61,2.09.25,3.12A14.51,14.51,0,0,1,445.35,264.74Z" transform="translate(-329.47 -200.32)"/><path class="833c2052-b1bf-408d-974a-7eb042239661" d="M498.15,258.73c1.59.25,3.61-.12,4.13,2.17.25,1.09-4,4.22-5.35,3.64-1.76-.73-.83-2.83-1.12-4.32C495.41,258.09,497.14,259,498.15,258.73Z" transform="translate(-329.47 -200.32)"/><path class="833c2052-b1bf-408d-974a-7eb042239661" d="M374.27,264.74c-.78,0-1.82.17-1.33-.84.61-1.25-.6-3.66,1.82-3.68,1.86,0,1.7,2.12,1.85,3.23C376.83,265.1,375,264.37,374.27,264.74Z" transform="translate(-329.47 -200.32)"/><path class="833c2052-b1bf-408d-974a-7eb042239661" d="M398.46,261.13c-.37-1.64.1-2.16,1.47-1.76a7.63,7.63,0,0,1,3.82,2.16c1.27,1.45,2.13,3.06,1.11,4.95s-2.87,2-4.71,2.18c-1.26.1-1.24-.81-1.29-1.64C398.71,265,398.58,262.89,398.46,261.13Z" transform="translate(-329.47 -200.32)"/><path class="f58f46ff-1ced-41c0-8893-ffbc89dfd6e6" d="M404.83,380.16a40.83,40.83,0,0,1,9.56,1.16c.76.18,2.19.14,1.43,1.59-.62,1.18,0,3.59-2.51,3.15a28.32,28.32,0,0,0-16.82,2c-.5.23-1.06.82-1.6.43-.69-.49-.16-1.24,0-1.84C396.39,380.29,397.22,379.73,404.83,380.16Z" transform="translate(-329.47 -200.32)"/><path class="f58f46ff-1ced-41c0-8893-ffbc89dfd6e6" d="M393.95,370.29l-4.18-.29c-.07,0-.13-.09-.73-.54,4.7-.62,8.92-.14,13.53-.22-1.19,1.57-2.62.46-3.57,1.13,2.62,3.14,2.73,5.82.33,8a4.73,4.73,0,0,1-6.32-.44C391.05,375.93,391.33,373.28,393.95,370.29Z" transform="translate(-329.47 -200.32)"/><path class="ccf041f2-2f7d-46cc-8a67-e546bccb83dd" d="M421.78,371.21a4.79,4.79,0,0,1-.14,8.73,4.4,4.4,0,0,1-5.78-1.93c-1.34-2.21-.81-4.46,1.47-6.26A11.47,11.47,0,0,1,421.78,371.21Z" transform="translate(-329.47 -200.32)"/><path class="334889da-f236-4db5-833d-f5fb6c8931b8" d="M421.78,371.21a11.47,11.47,0,0,0-4.45.53c-.78-1.8-2.86.16-4-1.6a53.4,53.4,0,0,1,13.8.07C425.15,371.49,423.34,370.62,421.78,371.21Z" transform="translate(-329.47 -200.32)"/><path class="ccf041f2-2f7d-46cc-8a67-e546bccb83dd" d="M465.32,375.61a4.51,4.51,0,0,1-4.4,4.68,4.67,4.67,0,1,1-.29-9.33A4.41,4.41,0,0,1,465.32,375.61Z" transform="translate(-329.47 -200.32)"/><path class="ccf041f2-2f7d-46cc-8a67-e546bccb83dd" d="M484.23,370.07a4.49,4.49,0,0,1,4.53,4.57,4.69,4.69,0,1,1-9.37-.05C479.41,371.89,481.36,370.07,484.23,370.07Z" transform="translate(-329.47 -200.32)"/><path class="334889da-f236-4db5-833d-f5fb6c8931b8" d="M479.36,364.49c2.37-.61,10.47,1.43,12.69,3.28C487.34,367.09,483.38,365.65,479.36,364.49Z" transform="translate(-329.47 -200.32)"/><path class="334889da-f236-4db5-833d-f5fb6c8931b8" d="M468.46,382.67c4.45-.15,9-1.34,13.62.72-.5.46-.65.68-.72.66C477.16,382.5,472.7,383.78,468.46,382.67Z" transform="translate(-329.47 -200.32)"/></svg>