<svg id="c50d5582-c844-4ac9-8d88-65ec9ffdc499" data-name="Capa 1" xmlns="http://www.w3.org/2000/svg" viewBox="0 0 213.62 309.74"><defs><style>.\30 8eb0f68-c864-48a7-ba7f-e7e41501d5aa{fill:#181819;}.dc700c15-c2b6-4d39-be45-b4536bb44dcc{fill:#fefefe;}.\30 a79788e-13bd-435e-96d3-cde75015a30c{fill:#171716;}.\39 ff1682e-d7ce-4615-bc6d-26fda05a386c{fill:#151613;}.c8855e8b-6f62-418b-bd65-24be13105ee0{fill:#1d1d1e;}.\36 0e365b3-0c37-49f1-9a95-7b8151b4d10c{fill:#212121;}.\36 b6aa6ce-2ea9-4799-9757-9d0dc4cda4c2{fill:#888787;}.c2fc6fc4-93f5-42ba-826a-0ffa377ed06f{fill:#f7cca0;}.d2b3cf7b-3d4c-4abb-bb34-120e41092449{fill:#95b4c7;}.\37 0a8ca91-6b2f-46fd-8500-b866abb3d2f5{fill:#f8f8f8;}.a3e4ea6f-dc07-429c-b144-18b83296f1be{fill:#509541;}.de250faf-ff60-4e77-8566-f7cf0a43405a{fill:#3b2f25;}.\35 fc44926-58e2-4fd4-abee-f264fdff1417{fill:#f4f4f4;}.\32 3ce9db9-b1ad-4867-9bb6-fad5fbaaf934{fill:#18120c;}.\30 3f836bf-ef07-4f0e-b1a1-8dd2463926ee{fill:#6c5644;}</style></defs><title>card-36</title><path class="08eb0f68-c864-48a7-ba7f-e7e41501d5aa" d="M320.56,341.39q0-71.62,0-143.25a17.47,17.47,0,0,1,.36-4.72c1.12-4.08,3.8-6.36,8-6.69,1.66-.13,3.33-.2,5-.2H521.17c1.08,0,2.16.07,3.24.14,6.93.45,9.77,3.5,9.77,10.51q0,144,0,288c0,7.89-3.2,11.08-11.06,11.08H331.62c-7.76,0-11.06-3.3-11.06-11.13Q320.55,413.27,320.56,341.39Zm4.16,0q0,71.37,0,142.73c0,6.39,1.43,7.84,7.71,7.84H486.66q18.5,0,37,0c4.3,0,6.06-1.67,6.35-5.94.05-.75,0-1.5,0-2.25q0-142.11,0-284.22c0-7.76-1-8.81-8.77-8.81h-188c-1.08,0-2.17,0-3.25.05-3.28.18-4.84,1.61-5.23,4.86a25.43,25.43,0,0,0-.07,3Q324.72,270.06,324.72,341.43Z" transform="translate(-320.56 -186.53)"/><path class="dc700c15-c2b6-4d39-be45-b4536bb44dcc" d="M324.72,341.43q0-71.37,0-142.73a25.43,25.43,0,0,1,.07-3c.39-3.25,2-4.68,5.23-4.86,1.08-.06,2.17-.05,3.25-.05h188c7.73,0,8.77,1,8.77,8.81q0,142.11,0,284.22c0,.75,0,1.5,0,2.25-.29,4.27-2,5.94-6.35,5.94q-18.5,0-37,0H332.42c-6.28,0-7.71-1.45-7.71-7.84Q324.72,412.8,324.72,341.43Zm136,77c-.38,6-.58,12-1.21,17.94-.28,2.62.3,4,2.94,4.32,1.32.15,1.77.73,1.57,2.15-1,7-1.42,14.08-1.78,21.15-.17,3.33-.19,6.66-.25,10,0,1.14.4,2,1.72,2s1.58-.77,1.73-1.75a11.33,11.33,0,0,0,0-1.5c.15-9.25.82-18.46,1.69-27.67.18-1.91.29-3.21,3-2.63a67.06,67.06,0,0,0,27,.37c2.88-.57,3,.46,3.34,2.53a157.25,157.25,0,0,0,6.18,25.66c.46,1.42.95,2.83,1.45,4.24a1.76,1.76,0,0,0,2.35,1.27c1.23-.38,1.29-1.38,1-2.44-.1-.4-.28-.78-.42-1.17a171.29,171.29,0,0,1-7.42-29.46c-.27-1.7-.25-3,1.76-3.65,2.81-.92,4.1-2.92,4.28-6,.26-4.44.94-8.86,1.47-13.57a7.23,7.23,0,0,1,.74,3.63c.22,2.74.4,5.48.52,8.23.05,1.16.38,2,1.68,2s1.85-.92,1.82-2.16c0-.5-.08-1-.12-1.49-.43-5.81-.72-11.64-1.32-17.43-1-9.94-2.33-19.84-5.84-29.28a2.74,2.74,0,0,1,.45-2.93,36.63,36.63,0,0,0,4.8-9c5.38-13.91,1.77-28.76-9.51-37.39-13.34-10.19-28.26-10.48-43.05-4.47-12.66,5.15-20,15.25-20.57,29.32-.58,13.11,4.76,23.56,15.13,31.45a3.42,3.42,0,0,1,1.63,3.22,303,303,0,0,1-2.85,35.57c-.2,1.34-.51,2.93,1.31,3.21s2-1.18,2.19-2.62c.59-5.54,1.24-11.08,1.87-16.62C461.38,414.91,460.16,416.76,460.76,418.39Zm-57.94-25.87c.32.75.62,1.51.95,2.26a32.31,32.31,0,0,0,5,8.62c3.62,4.13,8.27,4.65,12.61,1.37,3-2.3,5.19-5.37,7.22-8.53a1.77,1.77,0,1,0-2.89-2c-.45.59-.82,1.25-1.24,1.87a23,23,0,0,1-5.14,5.74c-3,2.18-5.19,2-7.71-.69-2.22-2.34-3.41-5.28-4.79-8.13-.86-1.77-.58-2.79,1.06-4.1,14.68-11.75,17.65-33.84,7.71-47.59-6.66-9.21-15.78-14.06-27-15.17s-21.8.29-30.89,7.66a30.75,30.75,0,0,0-11.58,19.74c-1.4,9.17,1,17.5,5.83,25.2,1,1.57.76,2.3-.47,3.44a38.53,38.53,0,0,0-9,11.55c-3.48,7.27-2.38,14.22,3.22,20a45.73,45.73,0,0,0,4.14,3.6,2.62,2.62,0,0,1,1.28,2.23c-.07,4.17.71,8.29,1,12.44.26,3.62,1.33,6.44,5.09,7.62,1.07.34,1.48.92,1.26,2.24a199.23,199.23,0,0,1-7.28,30c-.44,1.36-2.15,3.32.47,4.13,2.25.7,2.38-1.58,2.84-3a168.47,168.47,0,0,0,7.23-29.51c.15-1,.13-2,1.75-1.5a45,45,0,0,0,11.12,1.33,82.09,82.09,0,0,0,17.89-1.41c.82-.15,2.1-1,2.23,1,.39,6.23,1,12.45,1.44,18.68.27,4,.38,8,.53,12,0,1.21.64,2,1.79,2a1.65,1.65,0,0,0,1.72-2c0-.5,0-1,0-1.5q-.43-14.49-2-28.9c-.21-1.93.2-3,2.21-3.2s2.59-1.44,2.32-3.34-.31-3.65-.58-5.46a1.86,1.86,0,0,1,1.27-2.3,12.66,12.66,0,0,0,5-3.63c2-2.49.94-5-2.19-5.37a22.28,22.28,0,0,0-3.5,0c-1,0-1.5-.22-1.52-1.36A141,141,0,0,1,402.82,392.52Zm29.45-106.25c.75,1.85,1.37,3.18,1.82,4.57.3.92.86,1.06,1.68,1.09a1.47,1.47,0,0,0,1.67-1.1,67.16,67.16,0,0,0,3.27-11.21c.12-.7.72-1.63-.77-1.83-1.33-.19-1.66.3-1.88,1.53a37.14,37.14,0,0,1-2.29,8c-1.64-3.23-3.11-6.09-4.55-9-.4-.79-.7-1.44-1.84-.83s-1.17,1.26-.47,2.12c2,2.43,1.41,4.8-.16,7.43-1.33-2.88-2.58-5.56-3.82-8.25-.37-.81-.68-1.46-1.83-.88s-1,1.19-.52,2.16a58.42,58.42,0,0,1,4.23,10.08,1.77,1.77,0,0,0,1.7,1.48,1.6,1.6,0,0,0,1.83-1.25C430.82,289.2,431.44,288,432.26,286.27ZM465.61,262c.92,2.33,1.68,4.31,2.49,6.29.29.72.44,1.64,1.69,1.06,1-.48,1.33-1,.83-2.05a45.79,45.79,0,0,1-3.46-11.16,1.44,1.44,0,0,0-1.65-1.4c-1.12,0-1.31.48-1.53,1.43-.51,2.27-.6,4.69-2,7.1-.65-2.22-1.25-4-1.71-5.89-.25-1-.59-1.57-1.78-1.62s-1.43.55-1.72,1.37a47.3,47.3,0,0,0-2.55,9.62c-.12.88-1,2.12,1,2.34,1.77.19,1.34-1,1.53-1.89.45-2,.54-4,1.68-5.91.76,1.87,1.49,3.55,2.1,5.27a1.89,1.89,0,0,0,1.84,1.35c1.06.11,1.24-.64,1.51-1.32C464.39,265.18,464.92,263.79,465.61,262Zm-52.35,7.34a11.08,11.08,0,0,0,3.37-.5c3.58-.67,3.57-.69,3.54-4.4a2.56,2.56,0,0,1,.53-2c.69-.82.82-2.44-.91-2.38-2.48.08-4.95.61-7.42.92-.92.12-1.28.52-1.1,1.5s.57,1.44,1.68,1.16,2-.18,3-.4c1.6-.36,1.7.72,1.58,1.72-.24,2.1-2.18,1.48-3.35,1.69a4.94,4.94,0,0,1-6.16-4.57c-.25-2.73,1.71-4.68,5.12-4.69a1.67,1.67,0,0,0,1.9-1.74c.09-1.28-1.19-.91-1.89-1a7.23,7.23,0,0,0-7.85,6.68C405,265.8,408.33,269.31,413.26,269.34Zm-32.13-7.44a6.79,6.79,0,0,0,7,7.14,8.69,8.69,0,0,0,8.82-8.33,7.05,7.05,0,0,0-7.11-7.36A9,9,0,0,0,381.12,261.91ZM458,239.63a37,37,0,0,1-4.9-7.22,2.45,2.45,0,0,0-2.94-1.59c-1.63.26-.91,1.56-.92,2.39a46.94,46.94,0,0,0,.91,9.66c.15.74-.12,1.93,1.48,1.65,1.44-.25,1.39-.89,1.15-2.06-.38-1.84-1-3.71-.42-6,2,2.82,3.76,5.3,5.48,7.83a1.57,1.57,0,0,0,2.06.74c1.08-.31,1.23-.88,1.16-1.8-.25-3.48-.5-7-.69-10.45-.06-1.12-.37-1.63-1.65-1.46s-1.09,1-1,1.81A27.63,27.63,0,0,1,458,239.63Zm26.15-4.09c.12,1.41.33,3.81.5,6.22.31,4.3.6,4.58,4.89,4a11.54,11.54,0,0,0,3.32-1,5.67,5.67,0,0,0,2.8-8.15,9.23,9.23,0,0,0-8.07-5.42C483.92,231,483.92,231,484.18,235.54ZM372.8,292.44a28.36,28.36,0,0,0,2.94-.45c5.72-1.47,7.25-6.7,3.27-11a10.2,10.2,0,0,0-8.78-3.24c-1.36.1-1.67.57-1.53,1.83.36,3.31.79,6.62.85,9.94C369.6,291.89,370.39,292.86,372.8,292.44Zm34-4.23c1.93-2.67,3.65-5.09,5.42-7.48.54-.73.95-1.24-.07-2s-1.49-.47-2.13.46c-1.57,2.26-3.25,4.44-5.15,7-.22-1.93-.41-3.32-.53-4.71-.08-.93,0-1.78-1.45-1.69s-1.28,1-1.2,1.88c.3,3.48.65,7,.92,10.44.07.9.25,1.34,1.28,1.29s1.6-.26,1.38-1.42c-.26-1.41.61-1.25,1.48-1,1.85.48,3.69,1,5.53,1.47.8.22,1.55.67,1.91-.65s-.1-1.63-1.18-1.9C411,289.39,409.05,288.82,406.79,288.21Zm-5.14-50c-.11,6,1,7.11,5.78,7.05,1.16,0,2.31-.21,3.47-.28,2.28-.14,3.21-1.52,3.27-3.62.09-3.18-.73-6.25-1.27-9.36-.21-1.19-.87-1.17-1.78-1-1.13.17-1,.88-.83,1.66.31,1.63.67,3.25.91,4.89.75,5.22.73,5.18-4.67,5.06-1.77,0-2.65-.61-2.38-2.5.37-2.55.69-5.1,1-7.65.09-.71.32-1.57-.91-1.58-.84,0-1.6-.13-1.73,1.14C402.26,234.43,401.83,236.89,401.65,238.18Zm23.13-7.42a13.5,13.5,0,0,0-7.2,2.1c-1.61,1-3,2.27-2.5,4.43s2.47,2.27,4.18,2.49c1.31.17,2.66.05,4,.12.71,0,1.71-.08,1.86.8s-.77,1.24-1.42,1.53a13.18,13.18,0,0,1-3.3,1.07c-1.22.18-1.21.83-1.12,1.75.11,1.13.8,1,1.61.91a11.39,11.39,0,0,0,4.84-1.88c1.42-1,2.75-2.13,2.36-4-.43-2.08-2.25-2.51-4-2.69-1.49-.14-3-.06-4.49-.15-.62,0-1.5,0-1.66-.76s.68-1.08,1.2-1.43a10.17,10.17,0,0,1,5.68-1.61c1.15,0,2.15.08,2.1-1.56C426.81,230,425.37,231.17,424.78,230.76Zm42.47-.14v.13a20.56,20.56,0,0,1-2.49,0c-1.9-.23-2.21.66-2,2.32.26,2,.32,4,.4,6,.29,6.71.71,7,7.38,5.41a2.52,2.52,0,0,1,.49-.08c1.16,0,1.26-.7,1.15-1.69-.14-1.29-.83-1.14-1.73-.94s-2,.29-3,.46-1.52-.15-1.61-1.25.33-1.5,1.37-1.53,2.32-.15,3.48-.25c1-.08.9-.78.83-1.47s-.19-1.36-1.15-1.24a13.37,13.37,0,0,1-2.23.24c-1,0-2.47,1-2.63-1.35-.14-2,.81-2.14,2.3-2.07.74,0,1.49-.1,2.24-.11,1,0,1.19-.58,1.17-1.47s-.28-1.4-1.31-1.26S468.16,230.56,467.25,230.62Zm-25,49.41c.18,3.37.41,6.52.5,9.67,0,1.4.56,1.84,1.93,1.81a29.68,29.68,0,0,0,5.93-.64c1-.23,1.16-.71,1-1.58s-.49-1.35-1.5-1.08a14.93,14.93,0,0,1-2.7.43c-.89.06-2,.61-2.16-1.11-.13-1.52.71-1.61,1.79-1.63.91,0,1.83-.11,2.74-.14s1.29-.44,1.16-1.43-.34-1.58-1.52-1.3c-.72.17-1.49.14-2.23.24-1.26.17-2.12.2-2.23-1.6s.66-1.92,2-1.86c.83,0,1.66-.1,2.49-.08,1.19,0,1.28-.69,1.26-1.63,0-1.09-.63-1.17-1.48-1.1a27,27,0,0,1-4.23.23C442.64,277,441.46,277.7,442.25,280Zm31.55-41.59c.16,1.59-.45,4.82.85,6.12s4.57.46,6.92-.19a1.24,1.24,0,0,1,.25,0c1.21-.08,1.15-.78,1-1.74s-.61-1.14-1.51-.9a22.44,22.44,0,0,1-3,.47c-.82.1-1.67.3-1.73-1-.05-1.1.13-1.75,1.41-1.73,1.08,0,2.16-.12,3.23-.21s1-.88.94-1.65-.42-1.19-1.26-1.07-1.65.21-2.48.29c-1.15.1-2.19.38-2.3-1.52s.79-2,2.17-2c.83,0,1.66-.1,2.49-.13,1,0,1.22-.57,1.14-1.48s-.4-1.32-1.39-1.23a47.81,47.81,0,0,1-5.47.3c-1.55,0-1.79.61-1.63,1.95C473.67,234.32,473.67,236,473.79,238.44Zm-51,22.56c.52,1.79-.72,5,.93,6.34s4.61.23,7-.3c.95-.21,1.41-.44,1.18-1.62s-.85-1.21-1.75-1a24,24,0,0,1-2.71.41c-.74,0-1.68.42-1.79-1-.09-1.16.23-1.68,1.43-1.69,1,0,2-.23,3-.23s1.23-.47,1.2-1.39-.25-1.41-1.29-1.26c-.82.11-1.67.06-2.49.15-1.24.15-2.2.29-2.26-1.58-.05-1.71.67-2,2-1.9.83,0,1.66-.07,2.5-.06s1.37-.28,1.25-1.32c-.1-.84-.23-1.27-1.28-1.35-7.26-.52-7.31-.49-7,6.53Zm-27,29.53c-2.35.07-4.1-.78-5-3a4.08,4.08,0,0,1,.79-4.84,4.37,4.37,0,0,1,5.89-.64c1.24.81,1.73-.13,2.21-.77.78-1-.46-1.24-.93-1.58a7.1,7.1,0,0,0-7.76.06,6.82,6.82,0,0,0-3.12,7.09c.66,3.35,2.59,5.5,5.51,6a12.6,12.6,0,0,0,6.16-.41c.8-.26,2.17.13,1.72-1.65-.4-1.57-1.31-1.12-2.28-.91S396.87,290.33,395.81,290.53Zm-20.43-59.74c-1.73.17-3.46.36-5.2.49-.83.06-1.48.11-1.3,1.25.14.88.19,1.66,1.44,1.44.51-.09,1.38-.39,1.48.4.34,2.63.56,5.28.76,7.92.05.69-.65.62-1.1.72-1.14.24-.75,1.1-.74,1.79,0,1,.66,1,1.4.9,1.57-.17,3.14-.29,4.71-.45.91-.09,1.87,0,1.68-1.5-.15-1.22-.7-1.54-1.81-1.27-.76.19-1.46.3-1.53-.9-.12-2.24-.33-4.47-.54-6.7-.09-.92.21-1.41,1.19-1.44s2,.1,1.83-1.54S376.25,230.95,375.39,230.79Zm24.36,6.47a29.66,29.66,0,0,0-.51-5.12c-.14-1-.35-1.52-1.52-1.33s-1.29.74-1.13,1.73a33.2,33.2,0,0,1,.53,6.45c-.1,2.87-.79,3.49-3.61,3.47-2.53,0-3.07-1.58-2.91-3.65.08-1.11-.39-1.42-1.41-1.51-1.38-.12-1.21.77-1.22,1.59-.09,4,1.75,6.17,5.4,6.27,4.28.12,6.18-1.62,6.37-5.83C399.77,238.76,399.75,238.18,399.75,237.27Zm77.69,31.11c1.41,0,1.44-.05,1.37-2-.15-4.12-1.27-8.53,3.5-11.13,1-.55.36-1.18-.13-1.78-.76-.93-1.3-.49-2,.11-3.25,2.77-3.27,2.75-6.68.33-.2-.14-.39-.31-.61-.44-.72-.42-1.3-1.26-2.22,0s-.16,1.86.73,2.24c4.16,1.81,5.12,5.18,4.75,9.28-.07.74.07,1.49,0,2.24C476.11,268.24,476.63,268.51,477.44,268.38ZM414,303c0-.65-.25-1.25-1.09-1.32s-1.36.51-1.56,1.3c-1.68,6.53-4.73,12.18-10.38,16.17-.61.43-1.22,1.07-.52,1.87a1.48,1.48,0,0,0,2,.13,15.21,15.21,0,0,0,1.59-1.19C409.43,315.49,412.24,309.58,414,303Zm49.31-24.29c0-.76-.19-1.29-1.43-1.1-2.54.39-5.11.61-7.67.89-1,.12-1.91.23-1.69,1.75s1.23,1.11,2,.89c1.85-.54,2.08.38,2.11,1.89.06,2.49.31,5,.41,7.47,0,1,.29,1.46,1.43,1.45s1.29-.7,1.23-1.6c-.16-2.4-.19-4.82-.49-7.21-.24-1.95.19-3,2.38-2.83C462.4,280.32,463.58,280.41,463.3,278.67ZM434.58,257.3c2-.12,2-.12,2.12,1.82.15,2.48.35,5,.45,7.45,0,1,.25,1.49,1.41,1.44s1.33-.54,1.25-1.55c-.19-2.31-.11-4.66-.44-6.95s.22-3.28,2.58-3.16c.77,0,1.72.13,1.64-1.23s-.94-1.49-2-1.34c-2.38.32-4.77.6-7.15.89-1,.12-2,0-1.77,1.61S433.86,257.25,434.58,257.3Zm-3.11-22.81c1.38-.39,1.58.36,1.63,1.44.11,2.58.31,5.15.44,7.72,0,.94-.05,1.78,1.4,1.72s1.29-1,1.24-1.86c-.15-2.49-.25-5-.49-7.47-.15-1.51.14-2.41,1.9-2.26a6.52,6.52,0,0,0,1.48-.19c1-.15.81-.82.74-1.51s-.19-1.25-1.17-1.12c-2.8.38-5.61.7-8.42,1-1.15.12-1.28.73-1.15,1.71C429.33,235.78,430.7,234.21,431.46,234.5Zm-60.75,22.81c1.7-.67,2,.28,2,1.81,0,2.41.29,4.82.4,7.23,0,1,.07,1.75,1.47,1.65s1.23-.78,1.17-1.66c-.15-2.24-.13-4.51-.46-6.73s.24-3.47,2.75-3.28c.88.07,1.65-.06,1.44-1.38-.17-1.08-.6-1.37-1.64-1.22-2.47.35-5,.61-7.43.92-.94.12-2-.1-1.81,1.59S369.78,257.26,370.71,257.31Zm12.14,26.35c.22,2.31.43,4.62.69,6.92.08.72-.25,1.73,1.19,1.63s1.54-.83,1.44-2c-.33-3.71-.66-7.42-.87-11.14-.07-1.14-.53-1.33-1.54-1.32s-1.19.57-1.13,1.42C382.73,280.68,382.78,282.17,382.86,283.66Zm85.44,5.62c-.63.08-1.55-.28-1.33,1,.15,1,.25,1.76,1.54,1.6.65-.08,1.33.06,1.22-1S469.71,289,468.3,289.28Z" transform="translate(-320.56 -186.53)"/><path class="0a79788e-13bd-435e-96d3-cde75015a30c" d="M402.82,392.52a141,141,0,0,0-1.63,26c0,1.15.51,1.41,1.52,1.36a22.28,22.28,0,0,1,3.5,0c3.13.36,4.16,2.87,2.19,5.37a12.66,12.66,0,0,1-5,3.63,1.86,1.86,0,0,0-1.27,2.3c.27,1.81.32,3.65.58,5.46s-.29,3.12-2.32,3.34-2.42,1.27-2.21,3.2q1.57,14.41,2,28.9c0,.5,0,1,0,1.5a1.65,1.65,0,0,1-1.72,2c-1.15,0-1.75-.75-1.79-2-.15-4-.26-8-.53-12-.43-6.23-1.05-12.45-1.44-18.68-.13-2.09-1.41-1.2-2.23-1a82.09,82.09,0,0,1-17.89,1.41A45,45,0,0,1,363.46,442c-1.62-.47-1.6.47-1.75,1.5A168.47,168.47,0,0,1,354.48,473c-.46,1.37-.6,3.65-2.84,3-2.62-.81-.91-2.77-.47-4.13a199.23,199.23,0,0,0,7.28-30c.21-1.32-.19-1.9-1.26-2.24-3.76-1.18-4.83-4-5.09-7.62-.3-4.15-1.07-8.26-1-12.44a2.62,2.62,0,0,0-1.28-2.23,45.73,45.73,0,0,1-4.14-3.6c-5.6-5.76-6.7-12.72-3.22-20a38.53,38.53,0,0,1,9-11.55c1.23-1.13,1.45-1.86.47-3.44-4.83-7.69-7.23-16-5.83-25.2a30.75,30.75,0,0,1,11.58-19.74c9.08-7.36,19.7-8.77,30.89-7.66s20.31,6,27,15.17c9.95,13.75,7,35.84-7.71,47.59-1.64,1.31-1.92,2.34-1.06,4.1,1.38,2.84,2.58,5.79,4.79,8.13,2.52,2.66,4.75,2.86,7.71.69a23,23,0,0,0,5.14-5.74c.42-.62.79-1.28,1.24-1.87a1.77,1.77,0,1,1,2.89,2c-2,3.16-4.18,6.24-7.22,8.53-4.35,3.28-9,2.76-12.61-1.37a32.31,32.31,0,0,1-5-8.62C403.44,394,403.13,393.27,402.82,392.52Zm-47.64-8.68c-4.53,3.14-7.56,7.5-9.91,12.38a12.25,12.25,0,0,0-1.11,6.81c.53,4.54,3.1,7.72,6.9,10.8,0-7.34,1.2-13.86,2.41-20.39.6-3.21,1.79-6.32,1.67-9.65l.18.1-.1-.25Zm25.6-54.56a32.2,32.2,0,0,0-15.41,3.64c-9.85,5.45-16.17,13.41-16.13,25.09,0,13.85,8,29,26.55,33.35,16.16,3.81,29.25-1,37-13.38,6.62-10.54,7.69-28.13-3.85-39.07C401.5,331.82,392.53,329.19,380.78,329.28Zm5.74,94.79c2.85-3,6-3.38,9-3.62,2.16-.18,2.56-1,2.42-2.93a64.15,64.15,0,0,1,0-7c.19-5.39.46-10.78.7-16.19-14.64,3.93-28,1.23-40.23-7.57-1.85,9-3.75,17.69-4,26.65a6.18,6.18,0,0,0,1.56,4.12c1.16,1.63-1.7,2.33-1.44,4.32.52,3.87.85,7.77,1.38,11.65a2.46,2.46,0,0,0,1.14,2.09c2.83,1.62,5.74,3.18,9,3.59a82.17,82.17,0,0,0,29-1.27c4.57-1.06,4.51-1.06,3.84-5.63-.18-1.19-.42-1.5-1.68-1.22-2.27.5-4.59.77-6.9,1.07-1,.13-2.21.39-2.88-1.21,4.26-1.2,8.47-2.41,12.69-3.58a23,23,0,0,0,6.26-2.41c.68-.43,1.55-1,1.26-2s-1.24-1.07-2.08-1.06c-2.66,0-5.32.15-8,.18C394,422.14,390.71,423.57,386.53,424.08Z" transform="translate(-320.56 -186.53)"/><path class="9ff1682e-d7ce-4615-bc6d-26fda05a386c" d="M460.18,413.35c-.63,5.54-1.28,11.08-1.87,16.62-.15,1.44-.4,2.9-2.19,2.62s-1.52-1.87-1.31-3.21a303,303,0,0,0,2.85-35.57,3.42,3.42,0,0,0-1.63-3.22c-10.37-7.89-15.7-18.34-15.13-31.45.62-14.07,7.91-24.17,20.57-29.32,14.79-6,29.71-5.73,43.05,4.47,11.29,8.62,14.89,23.48,9.51,37.39a36.63,36.63,0,0,1-4.8,9,2.74,2.74,0,0,0-.45,2.93c3.51,9.44,4.82,19.34,5.84,29.28.59,5.8.89,11.62,1.32,17.43,0,.5.11,1,.12,1.49,0,1.24-.43,2.15-1.82,2.16s-1.63-.82-1.68-2c-.13-2.74-.31-5.49-.52-8.23a7.23,7.23,0,0,0-.74-3.63c-.53,4.71-1.21,9.13-1.47,13.57-.18,3.07-1.47,5.07-4.28,6-2,.66-2,1.95-1.76,3.65a171.29,171.29,0,0,0,7.42,29.46c.14.39.32.77.42,1.17.27,1.06.21,2.07-1,2.44a1.76,1.76,0,0,1-2.35-1.27c-.5-1.41-1-2.82-1.45-4.24a157.25,157.25,0,0,1-6.18-25.66c-.3-2.06-.45-3.1-3.34-2.53a67.06,67.06,0,0,1-27-.37c-2.76-.58-2.87.72-3,2.63-.88,9.2-1.54,18.42-1.69,27.67a11.33,11.33,0,0,1,0,1.5c-.15,1-.55,1.75-1.73,1.75s-1.74-.81-1.72-2c.06-3.33.08-6.67.25-10,.36-7.07.77-14.14,1.78-21.15.21-1.42-.25-2-1.57-2.15-2.64-.31-3.22-1.7-2.94-4.32.63-6,.83-12,1.21-17.94.84-4.11.33-8.24.27-13C460.37,408.43,459.86,410.85,460.18,413.35Zm-15.35-58.89-.14.93c0,.75,0,1.5-.14,2.24-2.3,16,10.46,36.79,32.61,35.38,13.53-.87,25-5.42,31.67-18.2,8.05-15.37,4.25-31.32-9.53-40-9-5.7-18.92-6.13-28.91-4.19C457.08,333.18,448.28,341.07,444.84,354.46Zm62.86,60.86c.3-8.52-1.77-17.2-3.42-25.94-.42-2.19-1-1.87-2.43-.88-11.12,7.63-23.29,9.8-36.37,6.65-1.84-.44-2,.16-1.84,1.63.23,2.9.47,5.81.54,8.72a212.45,212.45,0,0,1-1,28.69c-.23,2-.08,3.26,2.46,3.83a91.05,91.05,0,0,0,24.29,2.21c5.11-.24,10.09-1,14.57-3.8a3.22,3.22,0,0,0,1.77-2.47A115.48,115.48,0,0,0,507.7,415.32Z" transform="translate(-320.56 -186.53)"/><path class="c8855e8b-6f62-418b-bd65-24be13105ee0" d="M432.26,286.27c-.83,1.76-1.44,2.93-1.92,4.16a1.6,1.6,0,0,1-1.83,1.25,1.77,1.77,0,0,1-1.7-1.48,58.42,58.42,0,0,0-4.23-10.08c-.52-1-.62-1.57.52-2.16s1.46.07,1.83.88c1.24,2.69,2.48,5.37,3.82,8.25,1.58-2.63,2.16-5,.16-7.43-.71-.87-.67-1.52.47-2.12s1.44,0,1.84.83c1.44,2.87,2.91,5.72,4.55,9a37.14,37.14,0,0,0,2.29-8c.23-1.23.55-1.72,1.88-1.53,1.49.21.89,1.13.77,1.83a67.16,67.16,0,0,1-3.27,11.21,1.47,1.47,0,0,1-1.67,1.1c-.82,0-1.39-.17-1.68-1.09C433.63,289.45,433,288.12,432.26,286.27Z" transform="translate(-320.56 -186.53)"/><path class="c8855e8b-6f62-418b-bd65-24be13105ee0" d="M465.61,262c-.69,1.79-1.22,3.18-1.77,4.57-.27.68-.45,1.43-1.51,1.32a1.89,1.89,0,0,1-1.84-1.35c-.61-1.72-1.34-3.39-2.1-5.27-1.14,1.91-1.24,4-1.68,5.91-.2.86.23,2.09-1.53,1.89-2-.22-1.13-1.45-1-2.34a47.3,47.3,0,0,1,2.55-9.62c.29-.82.6-1.42,1.72-1.37s1.53.6,1.78,1.62c.46,1.85,1.06,3.67,1.71,5.89,1.44-2.41,1.53-4.83,2-7.1.21-.94.41-1.45,1.53-1.43a1.44,1.44,0,0,1,1.65,1.4,45.79,45.79,0,0,0,3.46,11.16c.51,1.1.21,1.58-.83,2.05-1.25.58-1.4-.34-1.69-1.06C467.29,266.31,466.52,264.33,465.61,262Z" transform="translate(-320.56 -186.53)"/><path class="60e365b3-0c37-49f1-9a95-7b8151b4d10c" d="M413.26,269.34c-4.93,0-8.29-3.54-8-8a7.23,7.23,0,0,1,7.85-6.68c.7.07,2-.3,1.89,1a1.67,1.67,0,0,1-1.9,1.74c-3.4,0-5.37,2-5.12,4.69a4.94,4.94,0,0,0,6.16,4.57c1.18-.21,3.11.41,3.35-1.69.11-1,0-2.08-1.58-1.72-1,.22-2,.16-3,.4s-1.49-.14-1.68-1.16.19-1.38,1.1-1.5c2.48-.32,4.94-.85,7.42-.92,1.73-.05,1.6,1.56.91,2.38a2.56,2.56,0,0,0-.53,2c0,3.71,0,3.73-3.54,4.4A11.08,11.08,0,0,1,413.26,269.34Z" transform="translate(-320.56 -186.53)"/><path class="c8855e8b-6f62-418b-bd65-24be13105ee0" d="M381.12,261.91a9,9,0,0,1,8.67-8.56,7.05,7.05,0,0,1,7.11,7.36,8.69,8.69,0,0,1-8.82,8.33A6.79,6.79,0,0,1,381.12,261.91Zm7,4.46a6,6,0,0,0,6.09-5.9,4.33,4.33,0,0,0-4.36-4.47c-3.12,0-6.2,3-6.14,6A4.11,4.11,0,0,0,388.12,266.37Z" transform="translate(-320.56 -186.53)"/><path class="60e365b3-0c37-49f1-9a95-7b8151b4d10c" d="M458,239.63a27.63,27.63,0,0,0-.3-6.5c-.08-.81-.32-1.63,1-1.81s1.58.34,1.65,1.46c.2,3.48.44,7,.69,10.45.07.92-.09,1.49-1.16,1.8a1.57,1.57,0,0,1-2.06-.74c-1.72-2.53-3.5-5-5.48-7.83-.59,2.29,0,4.16.42,6,.24,1.16.3,1.81-1.15,2.06-1.6.28-1.33-.91-1.48-1.65a46.94,46.94,0,0,1-.91-9.66c0-.83-.7-2.13.92-2.39a2.45,2.45,0,0,1,2.94,1.59A37,37,0,0,0,458,239.63Z" transform="translate(-320.56 -186.53)"/><path class="c8855e8b-6f62-418b-bd65-24be13105ee0" d="M484.18,235.54c-.25-4.54-.25-4.54,3.45-4.35a9.23,9.23,0,0,1,8.07,5.42,5.67,5.67,0,0,1-2.8,8.15,11.54,11.54,0,0,1-3.32,1c-4.29.59-4.58.31-4.89-4C484.51,239.36,484.29,237,484.18,235.54Zm2.8-.21c.09,1.62.2,3.52.31,5.41a5.92,5.92,0,0,0,.12,1c.12.53,0,1.37.71,1.41a6.35,6.35,0,0,0,4.64-1.34c1.17-1,1.13-2.34.76-3.66-.55-2-3.35-4.09-5.39-4.27C487.21,233.79,486.64,234,487,235.34Z" transform="translate(-320.56 -186.53)"/><path class="c8855e8b-6f62-418b-bd65-24be13105ee0" d="M372.8,292.44c-2.41.42-3.21-.56-3.25-3-.06-3.32-.5-6.63-.85-9.94-.13-1.26.18-1.73,1.53-1.83a10.2,10.2,0,0,1,8.78,3.24c4,4.35,2.45,9.57-3.27,11A28.36,28.36,0,0,1,372.8,292.44ZM371.7,282c.2,2.46.35,4.36.5,6.26.05.65,0,1.45.95,1.41,1.85-.08,3.77-.26,4.87-2s.44-3.34-.73-4.79a7.21,7.21,0,0,0-3-2.14C371.94,279.88,371.6,280.12,371.7,282Z" transform="translate(-320.56 -186.53)"/><path class="60e365b3-0c37-49f1-9a95-7b8151b4d10c" d="M406.79,288.21c2.26.61,4.23,1.17,6.21,1.66,1.08.26,1.51.71,1.18,1.9s-1.11.87-1.91.65c-1.84-.51-3.69-1-5.53-1.47-.87-.23-1.74-.39-1.48,1,.22,1.16-.36,1.38-1.38,1.42s-1.22-.39-1.28-1.29c-.26-3.48-.61-7-.92-10.44-.08-.91-.28-1.79,1.2-1.88s1.37.76,1.45,1.69c.12,1.39.31,2.77.53,4.71,1.89-2.55,3.58-4.73,5.15-7,.65-.93,1.1-1.22,2.13-.46s.61,1.27.07,2C410.44,283.12,408.72,285.55,406.79,288.21Z" transform="translate(-320.56 -186.53)"/><path class="60e365b3-0c37-49f1-9a95-7b8151b4d10c" d="M401.65,238.18c.19-1.29.61-3.75.86-6.22.13-1.27.89-1.15,1.73-1.14,1.23,0,1,.87.91,1.58-.31,2.55-.63,5.11-1,7.65-.27,1.89.61,2.46,2.38,2.5,5.4.12,5.42.16,4.67-5.06-.23-1.64-.59-3.26-.91-4.89-.15-.77-.3-1.49.83-1.66.91-.13,1.57-.15,1.78,1,.54,3.11,1.36,6.17,1.27,9.36-.06,2.1-1,3.48-3.27,3.62-1.16.07-2.32.27-3.47.28C402.65,245.29,401.54,244.15,401.65,238.18Z" transform="translate(-320.56 -186.53)"/><path class="c8855e8b-6f62-418b-bd65-24be13105ee0" d="M424.78,230.76c.59.41,2-.8,2.09,1.09.05,1.64-.95,1.56-2.1,1.56a10.17,10.17,0,0,0-5.68,1.61c-.52.34-1.36.68-1.2,1.43s1,.72,1.66.76c1.49.1,3,0,4.49.15,1.79.17,3.61.61,4,2.69.4,1.91-.93,3.09-2.36,4a11.39,11.39,0,0,1-4.84,1.88c-.81.11-1.5.22-1.61-.91-.09-.91-.11-1.57,1.12-1.75a13.18,13.18,0,0,0,3.3-1.07c.65-.28,1.56-.7,1.42-1.53s-1.15-.77-1.86-.8c-1.33-.06-2.68,0-4-.12-1.72-.22-3.66-.38-4.18-2.49s.89-3.43,2.5-4.43A13.5,13.5,0,0,1,424.78,230.76Z" transform="translate(-320.56 -186.53)"/><path class="60e365b3-0c37-49f1-9a95-7b8151b4d10c" d="M467.25,230.62c.91-.06,1.83-.08,2.73-.2s1.28.34,1.31,1.26-.14,1.46-1.17,1.47c-.75,0-1.5.14-2.24.11-1.48-.07-2.43,0-2.3,2.07.16,2.31,1.6,1.3,2.63,1.35a13.37,13.37,0,0,0,2.23-.24c1-.12,1.08.53,1.15,1.24s.15,1.39-.83,1.47c-1.16.1-2.32.21-3.48.25s-1.47.43-1.37,1.53.59,1.43,1.61,1.25,2-.25,3-.46,1.6-.35,1.73.94c.1,1,0,1.65-1.15,1.69a2.52,2.52,0,0,0-.49.08c-6.68,1.61-7.09,1.3-7.38-5.41-.09-2-.14-4-.4-6-.22-1.66.09-2.55,2-2.32a20.56,20.56,0,0,0,2.49,0Z" transform="translate(-320.56 -186.53)"/><path class="60e365b3-0c37-49f1-9a95-7b8151b4d10c" d="M442.25,280c-.79-2.33.39-3,2.74-2.81a27,27,0,0,0,4.23-.23c.84-.07,1.46,0,1.48,1.1,0,.94-.07,1.65-1.26,1.63-.83,0-1.66.12-2.49.08-1.33-.06-2.1.08-2,1.86s1,1.77,2.23,1.6c.74-.1,1.51-.07,2.23-.24,1.18-.28,1.39.34,1.52,1.3s-.2,1.4-1.16,1.43-1.83.12-2.74.14c-1.08,0-1.92.11-1.79,1.63.15,1.72,1.27,1.17,2.16,1.11a14.93,14.93,0,0,0,2.7-.43c1-.27,1.33.22,1.5,1.08s0,1.36-1,1.58a29.68,29.68,0,0,1-5.93.64c-1.37,0-1.89-.41-1.93-1.81C442.66,286.55,442.43,283.4,442.25,280Z" transform="translate(-320.56 -186.53)"/><path class="c8855e8b-6f62-418b-bd65-24be13105ee0" d="M473.79,238.44c-.12-2.45-.13-4.12-.32-5.77-.16-1.34.08-2,1.63-1.95a47.81,47.81,0,0,0,5.47-.3c1-.09,1.31.31,1.39,1.23s-.14,1.45-1.14,1.48c-.83,0-1.66.15-2.49.13-1.38,0-2.28,0-2.17,2s1.15,1.62,2.3,1.52c.83-.07,1.65-.17,2.48-.29s1.24.21,1.26,1.07.17,1.56-.94,1.65-2.16.22-3.23.21c-1.29,0-1.46.63-1.41,1.73.06,1.34.91,1.15,1.73,1a22.44,22.44,0,0,0,3-.47c.9-.24,1.34-.15,1.51.9s.22,1.66-1,1.74a1.24,1.24,0,0,0-.25,0c-2.35.65-5.54,1.56-6.92.19S473.95,240,473.79,238.44Z" transform="translate(-320.56 -186.53)"/><path class="c8855e8b-6f62-418b-bd65-24be13105ee0" d="M422.77,261l-.06-1.29c-.35-7-.29-7,7-6.53,1.05.07,1.19.5,1.28,1.35.12,1-.32,1.34-1.25,1.32s-1.67.1-2.5.06c-1.37-.07-2.09.19-2,1.9.06,1.86,1,1.72,2.26,1.58.82-.1,1.67,0,2.49-.15,1-.15,1.26.35,1.29,1.26s-.18,1.39-1.2,1.39-2,.22-3,.23c-1.2,0-1.52.53-1.43,1.69.11,1.4,1,1,1.79,1a24,24,0,0,0,2.71-.41c.9-.16,1.51-.17,1.75,1s-.23,1.41-1.18,1.62c-2.36.53-5.31,1.68-7,.3S423.29,262.79,422.77,261Z" transform="translate(-320.56 -186.53)"/><path class="c8855e8b-6f62-418b-bd65-24be13105ee0" d="M395.81,290.53c1.06-.2,2.12-.39,3.17-.61s1.88-.66,2.28.91c.45,1.78-.92,1.4-1.72,1.65a12.6,12.6,0,0,1-6.16.41c-2.92-.53-4.85-2.67-5.51-6a6.82,6.82,0,0,1,3.12-7.09,7.1,7.1,0,0,1,7.76-.06c.47.34,1.72.56.93,1.58-.49.63-1,1.58-2.21.77a4.37,4.37,0,0,0-5.89.64,4.08,4.08,0,0,0-.79,4.84C391.72,289.76,393.47,290.6,395.81,290.53Z" transform="translate(-320.56 -186.53)"/><path class="60e365b3-0c37-49f1-9a95-7b8151b4d10c" d="M375.39,230.79c.86.15,2-.6,2.25,1.12s-.84,1.51-1.83,1.54-1.28.52-1.19,1.44c.21,2.23.42,4.46.54,6.7.07,1.19.77,1.08,1.53.9,1.12-.27,1.66,0,1.81,1.27.18,1.46-.78,1.41-1.68,1.5-1.57.16-3.14.28-4.71.45-.74.08-1.37.05-1.4-.9,0-.69-.4-1.55.74-1.79.45-.1,1.15,0,1.1-.72-.2-2.64-.42-5.29-.76-7.92-.1-.79-1-.49-1.48-.4-1.25.22-1.3-.56-1.44-1.44-.18-1.13.48-1.19,1.3-1.25C371.93,231.15,373.66,231,375.39,230.79Z" transform="translate(-320.56 -186.53)"/><path class="60e365b3-0c37-49f1-9a95-7b8151b4d10c" d="M399.75,237.27c0,.91,0,1.49,0,2.08-.19,4.21-2.09,6-6.37,5.83-3.65-.1-5.5-2.24-5.4-6.27,0-.82-.15-1.71,1.22-1.59,1,.09,1.5.4,1.41,1.51-.15,2.07.38,3.62,2.91,3.65,2.82,0,3.5-.6,3.61-3.47a33.2,33.2,0,0,0-.53-6.45c-.16-1,0-1.55,1.13-1.73s1.37.34,1.52,1.33A29.66,29.66,0,0,1,399.75,237.27Z" transform="translate(-320.56 -186.53)"/><path class="c8855e8b-6f62-418b-bd65-24be13105ee0" d="M477.44,268.38c-.81.13-1.33-.14-1.27-1.18,0-.74-.1-1.5,0-2.24.37-4.1-.59-7.47-4.75-9.28-.88-.38-1.72-.94-.73-2.24s1.5-.38,2.22,0c.21.12.4.29.61.44,3.41,2.41,3.42,2.43,6.68-.33.71-.6,1.25-1,2-.11.49.6,1.14,1.23.13,1.78-4.77,2.6-3.65,7-3.5,11.13C478.88,268.33,478.85,268.35,477.44,268.38Z" transform="translate(-320.56 -186.53)"/><path class="c8855e8b-6f62-418b-bd65-24be13105ee0" d="M414,303c-1.76,6.62-4.56,12.53-9.92,16.94a15.21,15.21,0,0,1-1.59,1.19,1.48,1.48,0,0,1-2-.13c-.69-.8-.08-1.44.52-1.87,5.65-4,8.7-9.64,10.38-16.17.2-.78.64-1.37,1.56-1.3S414,302.3,414,303Z" transform="translate(-320.56 -186.53)"/><path class="60e365b3-0c37-49f1-9a95-7b8151b4d10c" d="M463.3,278.67c.28,1.74-.91,1.65-1.72,1.6-2.2-.15-2.62.88-2.38,2.83.29,2.39.33,4.81.49,7.21.06.9,0,1.59-1.23,1.6s-1.39-.44-1.43-1.45c-.09-2.49-.35-5-.41-7.47,0-1.51-.26-2.44-2.11-1.89-.77.23-1.77.71-2-.89s.65-1.64,1.69-1.75c2.56-.29,5.13-.5,7.67-.89C463.11,277.37,463.35,277.91,463.3,278.67Z" transform="translate(-320.56 -186.53)"/><path class="60e365b3-0c37-49f1-9a95-7b8151b4d10c" d="M434.58,257.3c-.72-.05-1.72.52-1.95-1s.79-1.49,1.77-1.61c2.39-.29,4.77-.57,7.15-.89,1.1-.15,2-.13,2,1.34s-.87,1.27-1.64,1.23c-2.36-.12-2.9,1-2.58,3.16s.25,4.63.44,6.95c.08,1-.07,1.5-1.25,1.55s-1.38-.44-1.41-1.44c-.1-2.48-.3-5-.45-7.45C436.58,257.18,436.58,257.18,434.58,257.3Z" transform="translate(-320.56 -186.53)"/><path class="c8855e8b-6f62-418b-bd65-24be13105ee0" d="M431.46,234.5c-.77-.29-2.13,1.28-2.41-.82-.13-1,0-1.59,1.15-1.71,2.81-.29,5.62-.62,8.42-1,1-.13,1.09.38,1.17,1.12s.24,1.36-.74,1.51a6.52,6.52,0,0,1-1.48.19c-1.76-.15-2,.75-1.9,2.26.25,2.48.35,5,.49,7.47.05.91.23,1.8-1.24,1.86s-1.35-.79-1.4-1.72c-.13-2.57-.33-5.15-.44-7.72C433,234.86,432.84,234.1,431.46,234.5Z" transform="translate(-320.56 -186.53)"/><path class="c8855e8b-6f62-418b-bd65-24be13105ee0" d="M370.71,257.31c-.94-.05-1.92.5-2.14-1s.87-1.47,1.81-1.59c2.48-.31,5-.57,7.43-.92,1-.15,1.47.14,1.64,1.22.21,1.32-.57,1.44-1.44,1.38-2.51-.2-3.09,1-2.75,3.28s.31,4.48.46,6.73c.06.88.11,1.57-1.17,1.66s-1.43-.65-1.47-1.65c-.11-2.41-.37-4.82-.4-7.23C372.66,257.59,372.41,256.64,370.71,257.31Z" transform="translate(-320.56 -186.53)"/><path class="60e365b3-0c37-49f1-9a95-7b8151b4d10c" d="M382.86,283.66c-.07-1.49-.12-3-.22-4.47-.06-.85,0-1.4,1.13-1.42s1.47.17,1.54,1.32c.22,3.72.54,7.43.87,11.14.1,1.15,0,1.88-1.44,2s-1.11-.91-1.19-1.63C383.29,288.28,383.08,286,382.86,283.66Z" transform="translate(-320.56 -186.53)"/><path class="6b6aa6ce-2ea9-4799-9757-9d0dc4cda4c2" d="M460.18,413.35c-.32-2.5.19-4.92.84-7.94.07,4.73.57,8.86-.27,13C460.16,416.76,461.38,414.91,460.18,413.35Z" transform="translate(-320.56 -186.53)"/><path class="c8855e8b-6f62-418b-bd65-24be13105ee0" d="M468.3,289.28c1.42-.24,1.34.74,1.43,1.66s-.57.89-1.22,1c-1.29.17-1.39-.64-1.54-1.6C466.75,289,467.67,289.36,468.3,289.28Z" transform="translate(-320.56 -186.53)"/><path class="c2fc6fc4-93f5-42ba-826a-0ffa377ed06f" d="M380.78,329.28c11.75-.09,20.72,2.54,28.2,9.63,11.54,10.94,10.47,28.53,3.85,39.07-7.79,12.41-20.88,17.19-37,13.38-18.58-4.38-26.5-19.5-26.55-33.35,0-11.67,6.28-19.64,16.13-25.09A32.2,32.2,0,0,1,380.78,329.28Zm28.92,38.5c2.16-1.39,5.17-1.25,7.3-4a85.9,85.9,0,0,1-9.51,2.25c-1.16.16-3-.83-3.27.23-.43,1.86,2.17.92,2.87,2.07-2.81,2-3.38,4.72-1.48,7.15,1.75,2.23,4.51,2.39,6.73.35a4.3,4.3,0,0,0,1.36-4.51A4.42,4.42,0,0,0,409.7,367.78Zm-23.58,8.49c2.27,0,4.45-2.34,4.44-4.79a4.7,4.7,0,0,0-4.8-4.66,4.63,4.63,0,0,0-4.61,4.57A5,5,0,0,0,386.12,376.27Zm14.63,3.67c-2.73-.39-4.77-.71-6.83-1a16.91,16.91,0,0,0-7.62.47,5.28,5.28,0,0,0-3.48,3c-.25.62-.41,1.42.74,1.28a51.42,51.42,0,0,1,14.83.18c1.16.2,1.17-.34.89-1.27S398.91,380.48,400.75,379.94ZM379.3,364.32c4,2.51,8.56,2.2,13,2,.7,0,.94-.62.8-1.28-.19-.9-.65-.45-1.24-.36a20.37,20.37,0,0,1-6.68-.18C383.29,364.2,381.37,363.52,379.3,364.32Z" transform="translate(-320.56 -186.53)"/><path class="d2b3cf7b-3d4c-4abb-bb34-120e41092449" d="M386.53,424.08c4.18-.51,7.45-1.94,11-2,2.66,0,5.32-.16,8-.18.83,0,1.8.16,2.08,1.06s-.58,1.52-1.26,2a23,23,0,0,1-6.26,2.41c-4.22,1.17-8.43,2.38-12.69,3.58.67,1.6,1.84,1.34,2.88,1.21,2.31-.3,4.63-.57,6.9-1.07,1.26-.28,1.5,0,1.68,1.22.67,4.57.73,4.57-3.84,5.63a82.17,82.17,0,0,1-29,1.27c-3.25-.41-6.15-2-9-3.59a2.46,2.46,0,0,1-1.14-2.09c-.52-3.88-.86-7.78-1.38-11.65-.27-2,2.59-2.69,1.44-4.32a6.18,6.18,0,0,1-1.56-4.12c.27-9,2.18-17.65,4-26.65,12.25,8.8,25.59,11.5,40.23,7.57-.24,5.42-.51,10.8-.7,16.19a64.15,64.15,0,0,0,0,7c.14,1.91-.26,2.75-2.42,2.93C392.49,420.7,389.38,421.07,386.53,424.08Zm-.13,2.4a7.72,7.72,0,0,0,5.48-.79A8.16,8.16,0,0,0,386.4,426.48Z" transform="translate(-320.56 -186.53)"/><path class="70a8ca91-6b2f-46fd-8500-b866abb3d2f5" d="M355.14,383.79c.12,3.33-1.07,6.45-1.67,9.65-1.22,6.53-2.42,13-2.41,20.39-3.79-3.09-6.37-6.26-6.9-10.8a12.25,12.25,0,0,1,1.11-6.81c2.34-4.87,5.38-9.23,9.91-12.38Z" transform="translate(-320.56 -186.53)"/><path class="70a8ca91-6b2f-46fd-8500-b866abb3d2f5" d="M355.18,383.84l0-.2.1.25-.18-.1Z" transform="translate(-320.56 -186.53)"/><path class="c2fc6fc4-93f5-42ba-826a-0ffa377ed06f" d="M444.84,354.46c3.45-13.39,12.24-21.28,25.56-23.87,10-1.94,19.9-1.5,28.91,4.19,13.78,8.71,17.58,24.66,9.53,40-6.69,12.78-18.14,17.33-31.67,18.2-22.16,1.42-34.91-19.34-32.61-35.38.11-.74.1-1.49.14-2.24h13.45l0-1A120.74,120.74,0,0,0,444.84,354.46Zm28.8,16.24a2.45,2.45,0,0,0,2.43-.26l-2.43-.51c-4-.87-8,.27-12-.11C465.55,371.56,469.64,370.31,473.63,370.7Zm1.9-14.43a4.48,4.48,0,0,0-4.83,4.51,4.72,4.72,0,0,0,4.37,4.78,5,5,0,0,0,5-4.77A4.58,4.58,0,0,0,475.53,356.27Zm-18.83,5.59a4.54,4.54,0,0,0-4.57-4.81,4.72,4.72,0,0,0-4.8,4.39,5,5,0,0,0,4.82,5A4.6,4.6,0,0,0,456.7,361.86Zm12.78-7.92,0,.71h12.78C478,353.57,473.73,353.87,469.48,353.94Z" transform="translate(-320.56 -186.53)"/><path class="a3e4ea6f-dc07-429c-b144-18b83296f1be" d="M507.7,415.32a115.48,115.48,0,0,1-1.44,18.62,3.22,3.22,0,0,1-1.77,2.47c-4.48,2.77-9.46,3.56-14.57,3.8A91.05,91.05,0,0,1,465.64,438c-2.54-.57-2.68-1.81-2.46-3.83a212.45,212.45,0,0,0,1-28.69c-.07-2.91-.31-5.82-.54-8.72-.12-1.46,0-2.07,1.84-1.63,13.08,3.15,25.25,1,36.37-6.65,1.44-1,2-1.31,2.43.88C505.93,398.12,508,406.8,507.7,415.32Z" transform="translate(-320.56 -186.53)"/><path class="de250faf-ff60-4e77-8566-f7cf0a43405a" d="M444.84,354.46a120.74,120.74,0,0,1,13.33,0l0,1H444.7Z" transform="translate(-320.56 -186.53)"/><path class="70a8ca91-6b2f-46fd-8500-b866abb3d2f5" d="M388.12,266.37a4.11,4.11,0,0,1-4.4-4.33c-.06-3,3-6,6.14-6a4.33,4.33,0,0,1,4.36,4.47A6,6,0,0,1,388.12,266.37Z" transform="translate(-320.56 -186.53)"/><path class="5fc44926-58e2-4fd4-abee-f264fdff1417" d="M487,235.34c-.33-1.37.23-1.54,1.15-1.46,2,.18,4.83,2.32,5.39,4.27.37,1.32.41,2.66-.76,3.66a6.35,6.35,0,0,1-4.64,1.34c-.74,0-.58-.88-.71-1.41a5.92,5.92,0,0,1-.12-1C487.17,238.85,487.06,237,487,235.34Z" transform="translate(-320.56 -186.53)"/><path class="5fc44926-58e2-4fd4-abee-f264fdff1417" d="M371.7,282c-.1-1.93.24-2.17,2.59-1.22a7.21,7.21,0,0,1,3,2.14c1.17,1.46,1.83,3.1.73,4.79s-3,1.88-4.87,2c-1,0-.89-.76-.95-1.41C372,286.41,371.9,284.51,371.7,282Z" transform="translate(-320.56 -186.53)"/><path class="23ce9db9-b1ad-4867-9bb6-fad5fbaaf934" d="M386.12,376.27a5,5,0,0,1-5-4.88,4.63,4.63,0,0,1,4.61-4.57,4.7,4.7,0,0,1,4.8,4.66C390.57,373.93,388.39,376.28,386.12,376.27Z" transform="translate(-320.56 -186.53)"/><path class="23ce9db9-b1ad-4867-9bb6-fad5fbaaf934" d="M409.7,367.78a4.42,4.42,0,0,1,4,3.52,4.3,4.3,0,0,1-1.36,4.51c-2.22,2-5,1.88-6.73-.35-1.9-2.43-1.33-5.18,1.48-7.15C408,368.23,409,368.66,409.7,367.78Z" transform="translate(-320.56 -186.53)"/><path class="9ff1682e-d7ce-4615-bc6d-26fda05a386c" d="M400.75,379.94c-1.83.55-1.78,1.62-1.47,2.66s.27,1.47-.89,1.27a51.42,51.42,0,0,0-14.83-.18c-1.15.14-1-.66-.74-1.28a5.28,5.28,0,0,1,3.48-3,16.91,16.91,0,0,1,7.62-.47C396,379.23,398,379.55,400.75,379.94Z" transform="translate(-320.56 -186.53)"/><path class="de250faf-ff60-4e77-8566-f7cf0a43405a" d="M409.7,367.78c-.73.88-1.72.45-2.61.52-.7-1.14-3.3-.21-2.87-2.07.25-1.06,2.11-.07,3.27-.23a85.9,85.9,0,0,0,9.51-2.25C414.87,366.53,411.86,366.39,409.7,367.78Z" transform="translate(-320.56 -186.53)"/><path class="de250faf-ff60-4e77-8566-f7cf0a43405a" d="M379.3,364.32c2.08-.8,4-.12,5.93.2a20.37,20.37,0,0,0,6.68.18c.59-.1,1-.55,1.24.36.14.66-.1,1.26-.8,1.28C387.86,366.52,383.34,366.83,379.3,364.32Z" transform="translate(-320.56 -186.53)"/><path class="03f836bf-ef07-4f0e-b1a1-8dd2463926ee" d="M386.4,426.48a8.16,8.16,0,0,1,5.48-.79A7.72,7.72,0,0,1,386.4,426.48Z" transform="translate(-320.56 -186.53)"/><path class="23ce9db9-b1ad-4867-9bb6-fad5fbaaf934" d="M475.53,356.27a4.58,4.58,0,0,1,4.58,4.53,5,5,0,0,1-5,4.77,4.72,4.72,0,0,1-4.37-4.78A4.48,4.48,0,0,1,475.53,356.27Z" transform="translate(-320.56 -186.53)"/><path class="23ce9db9-b1ad-4867-9bb6-fad5fbaaf934" d="M456.7,361.86a4.6,4.6,0,0,1-4.55,4.56,5,5,0,0,1-4.82-5,4.72,4.72,0,0,1,4.8-4.39A4.54,4.54,0,0,1,456.7,361.86Z" transform="translate(-320.56 -186.53)"/><path class="de250faf-ff60-4e77-8566-f7cf0a43405a" d="M473.63,370.7c-4-.39-8.08.86-12-.89,4,.38,8-.76,12,.11Z" transform="translate(-320.56 -186.53)"/><path class="08eb0f68-c864-48a7-ba7f-e7e41501d5aa" d="M469.48,353.94c4.24-.07,8.49-.37,12.73.71H469.44Z" transform="translate(-320.56 -186.53)"/><path class="03f836bf-ef07-4f0e-b1a1-8dd2463926ee" d="M473.63,370.7v-.77l2.43.51A2.45,2.45,0,0,1,473.63,370.7Z" transform="translate(-320.56 -186.53)"/></svg>