<svg id="c3fd2662-3b34-4922-9f2b-e0a374a1a3c3" data-name="Capa 1" xmlns="http://www.w3.org/2000/svg" viewBox="0 0 213.59 309.58"><defs><style>.f89ec647-b314-427a-91db-10b9f99a0831{fill:#0b0c0b;}.bab38713-bde8-4603-8e3d-53610274382c{fill:#fefefe;}.\37 e31cc74-669e-4821-81bf-d5f2b48247ab{fill:#f7cca0;}.\30 8459208-b781-4665-b888-4a64eb802cef{fill:#96b4c7;}.\34 ae307a9-8fb6-41af-b937-79e3bf091131{fill:#e9e8e9;}.\32 0527e13-52bb-4ad5-abfb-707cb7189220{fill:#ecebec;}.\31 ca98b6b-0084-42e1-b80b-64f143ccbdbe{fill:#b6b5b5;}.\38 29700d8-4d4a-4b12-bc3f-cd148ac77086{fill:#141612;}.\34 0363e11-0eca-4e04-bd8e-05f2a6a36552{fill:#8a8a89;}.aeedc38f-0421-438c-b7be-df616d14a47b{fill:#18120c;}.\36 99aecf0-6a11-42c7-86ed-6097fd0008c4{fill:#45352a;}.\34 8ceee74-c52d-480f-965a-122e4efb28d2{fill:#509541;}.\34 c0b1fa9-5518-4a81-a727-1dceb11d99cb{fill:#1a140e;}.bf4962e8-7813-48fe-941e-a62f12e286da{fill:#443429;}</style></defs><title>card-21</title><path class="f89ec647-b314-427a-91db-10b9f99a0831" d="M542.74,355.29q0,71.62,0,143.23a17.85,17.85,0,0,1-.5,5.2,8.26,8.26,0,0,1-7.58,6.2c-.83.07-1.67,0-2.5,0H339.93c-7.44,0-10.77-3.32-10.77-10.83q0-144.11,0-288.22c0-6.93,3.31-10.31,10.16-10.49.92,0,1.83,0,2.75,0H530a23.84,23.84,0,0,1,5.47.32c4.46,1,6.89,3.8,7.19,8.34.06.91,0,1.83,0,2.75Q542.74,283.55,542.74,355.29Zm-209.42,89.1v5.52h.29l.48-4.56c.89-10.91,1.68-21.83.29-32.89-.84.77-.63,1.68-.87,2.45a2,2,0,0,0-.28.67q0,13.17.09,26.34Zm48.44-43.18a5.31,5.31,0,0,0,.23,2.86,115.45,115.45,0,0,1,1.9,42.4c-.46,3.48-1.92,5.43-4.94,6.67-.77.31-1.79.47-1.77,1.76.19,9.51,3.57,17.85,15.9,16.12,2.32-.33,4.54-1,6.8-1.55.93-.22,1.92-.16,2.22,1a1.6,1.6,0,0,1-1.21,2.12c-4.8,1.6-9.72,2.52-14.74,1.63-6.65-1.18-10.67-6.16-11.92-14.24-.21-1.39.11-3.24-.67-4.08s-2.54.34-3.89.48a85.3,85.3,0,0,1-26.35-1c-1.73-.35-2.06.19-2.35,1.69q-2.57,13.09-5.34,26.14c-1.1,5.2-2.9,10.23-2.44,15.75.42,5,2,6.9,7,6.9H532c4.65,0,6.54-1.84,6.65-6.44,0-.58,0-1.17,0-1.75q0-142.74,0-285.48c0-.75,0-1.5,0-2.25-.28-3.14-1.88-4.85-5-5.26a27.25,27.25,0,0,0-3.49-.13H342.63c-8.5,0-9.34.84-9.34,9.21q0,63.62,0,127.24c0,.88,0,1.77,0,3a33.93,33.93,0,0,1,12.06-3.9c10.29-1.45,20.32-.86,29.43,4.75,9,5.51,14.45,13.43,15.48,24,.92,9.53-2,18.08-7.59,25.72-.88,1.19-1.17,1.87.16,3a36.34,36.34,0,0,1,6.41,7.3c6.47,9.28,10.12,19.77,13,30.59a21.51,21.51,0,0,1,.57,2.68,1.38,1.38,0,0,1-1.23,1.61,1.47,1.47,0,0,1-1.8-1c-.25-.7-.38-1.45-.56-2.17a100.76,100.76,0,0,0-9.09-24.2A44.12,44.12,0,0,0,381.75,401.21Zm-48.44-26.78c0,8.41,0,16.81,0,25.22a2.83,2.83,0,0,0,1.74,2.92,30.5,30.5,0,0,0,16.12,3.5c12.55-.75,23.59-4.58,30.42-16,6.33-10.59,8.11-21.6,1.19-32.73a28.19,28.19,0,0,0-17.64-12.94c-10-2.49-19.92-2.15-29.48,2.26a3.54,3.54,0,0,0-2.37,3.79C333.39,358.45,333.31,366.44,333.31,374.43Zm4.22,33.28c.22,3.44.47,6.74.63,10a199.8,199.8,0,0,1-1,30.41c-.18,1.71.17,2.44,2,2.89a91,91,0,0,0,26.76,2.26,27.26,27.26,0,0,0,12.56-3.64A3.1,3.1,0,0,0,380.3,447c.29-3.65.83-7.27,1.14-10.91,1-12.09-.91-23.86-3.84-35.67C365.38,409,352.16,411.7,337.53,407.72Zm-4.22,44.75V476c1.49-5.69,2.69-11.43,3.88-17.17.29-1.38,1.05-2.89.74-4.11-.41-1.58-2.61-.92-3.78-1.81A8.19,8.19,0,0,0,333.31,452.47Z" transform="translate(-329.15 -200.39)"/><path class="bab38713-bde8-4603-8e3d-53610274382c" d="M381.75,401.21a44.12,44.12,0,0,1,8.34,11.22,100.76,100.76,0,0,1,9.09,24.2c.18.73.32,1.47.56,2.17a1.47,1.47,0,0,0,1.8,1,1.38,1.38,0,0,0,1.23-1.61,21.51,21.51,0,0,0-.57-2.68c-2.84-10.82-6.48-21.31-13-30.59a36.34,36.34,0,0,0-6.41-7.3c-1.34-1.11-1-1.78-.16-3,5.64-7.64,8.51-16.19,7.59-25.72-1-10.59-6.52-18.52-15.48-24-9.12-5.61-19.14-6.2-29.43-4.75a33.93,33.93,0,0,0-12.06,3.9c0-1.28,0-2.17,0-3q0-63.62,0-127.24c0-8.37.84-9.21,9.34-9.21H530.12a27.25,27.25,0,0,1,3.49.13c3.12.41,4.72,2.12,5,5.26.07.74,0,1.5,0,2.25q0,142.74,0,285.48c0,.58,0,1.17,0,1.75-.11,4.6-2,6.44-6.65,6.44H340.23c-5.05,0-6.61-1.89-7-6.9-.47-5.52,1.34-10.54,2.44-15.75q2.75-13.06,5.34-26.14c.3-1.5.62-2,2.35-1.69a85.3,85.3,0,0,0,26.35,1c1.35-.15,3-1.43,3.89-.48s.45,2.69.67,4.08c1.25,8.08,5.27,13.06,11.92,14.24,5,.89,9.94,0,14.74-1.63a1.6,1.6,0,0,0,1.21-2.12c-.31-1.16-1.29-1.23-2.22-1-2.26.54-4.48,1.22-6.8,1.55-12.33,1.73-15.72-6.61-15.9-16.12,0-1.29,1-1.45,1.77-1.76,3-1.24,4.48-3.19,4.94-6.67a115.45,115.45,0,0,0-1.9-42.4A5.31,5.31,0,0,1,381.75,401.21Zm87.74,27.1a8.5,8.5,0,0,0-.22,4.16A166.14,166.14,0,0,1,468,450.65c-.3,2.38.35,3.53,2.6,3.8,1.94.23,2.25,1.26,2,3a254.28,254.28,0,0,0-2,29.39c0,1.22-.3,2.81,1.48,2.9s1.72-1.38,1.76-2.69c.34-9.65.82-19.3,1.89-28.9.12-1.1-.29-2.52,2-2.08,9.88,1.92,19.81,2.39,29.72.22,1.23-.27,1.14.34,1.27,1.12.78,4.93,1.71,9.83,2.95,14.66q2.14,8.33,5,16.45c.39,1.1.9,2.15,2.26,1.71s1.45-1.6.87-2.85a20.74,20.74,0,0,1-.71-2.13A164.26,164.26,0,0,1,512,456.53c-.16-1.05-.41-2,.9-2.43,4-1.23,5.45-4.17,5.44-8.13a36.45,36.45,0,0,1,.39-4c.22-2,.45-4.07.68-6.11l.65.06a78,78,0,0,1,.71,9.81c.07,1.19.39,2.24,1.83,2.17s1.65-1.14,1.58-2.33c-.18-3-.28-6-.52-9-.92-11.28-1.5-22.66-5-33.48-1.54-4.7-1.94-8.64,1.55-12.42a2,2,0,0,0,.22-.45c9.5-18.48,2.91-38.59-15.9-46.47a42.48,42.48,0,0,0-34.73.46c-12.47,5.65-19.89,15.44-20.37,29.53-.45,13.1,5,23.51,15.41,31.34a3.26,3.26,0,0,1,1.53,3A290.28,290.28,0,0,1,463.44,444c-.16,1.16-.26,2.32,1.14,2.59s2-.61,2.19-2c.6-5.71,1.28-11.41,1.93-17.11l.78.12Z" transform="translate(-329.15 -200.39)"/><path class="7e31cc74-669e-4821-81bf-d5f2b48247ab" d="M333.31,374.43c0-8,.08-16-.06-24a3.54,3.54,0,0,1,2.37-3.79c9.56-4.41,19.43-4.75,29.48-2.26a28.19,28.19,0,0,1,17.64,12.94c6.91,11.12,5.14,22.14-1.19,32.73-6.82,11.41-17.87,15.23-30.42,16a30.5,30.5,0,0,1-16.12-3.5,2.83,2.83,0,0,1-1.74-2.92C333.35,391.25,333.31,382.84,333.31,374.43Zm16.33-4.79a4.38,4.38,0,0,0-4.7,4.64,4.55,4.55,0,0,0,4.49,4.64,4.74,4.74,0,0,0,4.79-4.69A4.54,4.54,0,0,0,349.64,369.65ZM349.56,384c-4.43-2.1-9.12-.51-13.68-1C340.31,385,345,383.06,349.56,384Z" transform="translate(-329.15 -200.39)"/><path class="08459208-b781-4665-b888-4a64eb802cef" d="M337.53,407.72c14.63,4,27.84,1.33,40.07-7.27,2.93,11.81,4.88,23.58,3.84,35.67-.31,3.64-.85,7.27-1.14,10.91a3.1,3.1,0,0,1-1.85,2.66,27.26,27.26,0,0,1-12.56,3.64,91,91,0,0,1-26.76-2.26c-1.82-.46-2.17-1.18-2-2.89a199.8,199.8,0,0,0,1-30.41C338,414.45,337.75,411.15,337.53,407.72Z" transform="translate(-329.15 -200.39)"/><path class="4ae307a9-8fb6-41af-b937-79e3bf091131" d="M333.31,452.47a8.19,8.19,0,0,1,.84.47c1.17.89,3.37.23,3.78,1.81.32,1.22-.45,2.73-.74,4.11-1.19,5.74-2.39,11.48-3.88,17.17Z" transform="translate(-329.15 -200.39)"/><path class="20527e13-52bb-4ad5-abfb-707cb7189220" d="M333.5,414.93c.24-.77,0-1.69.87-2.45,1.39,11.06.6,22-.29,32.89l-.77-1v-2.46c.1-.22.29-.45.29-.67Q333.57,428.1,333.5,414.93Z" transform="translate(-329.15 -200.39)"/><path class="1ca98b6b-0084-42e1-b80b-64f143ccbdbe" d="M333.5,414.93q.06,13.17.1,26.34c0,.22-.19.45-.29.67q-.05-13.17-.09-26.34A2,2,0,0,1,333.5,414.93Z" transform="translate(-329.15 -200.39)"/><path class="1ca98b6b-0084-42e1-b80b-64f143ccbdbe" d="M333.32,444.39l.77,1-.48,4.56h-.29Z" transform="translate(-329.15 -200.39)"/><path class="829700d8-4d4a-4b12-bc3f-cd148ac77086" d="M468.7,427.44c-.65,5.7-1.32,11.41-1.93,17.11-.15,1.41-.75,2.3-2.19,2s-1.31-1.43-1.14-2.59a290.28,290.28,0,0,0,2.89-35.82,3.26,3.26,0,0,0-1.53-3c-10.39-7.83-15.86-18.24-15.41-31.34.48-14.09,7.9-23.88,20.37-29.53a42.48,42.48,0,0,1,34.73-.46c18.81,7.88,25.4,28,15.9,46.47a2,2,0,0,1-.22.45c-3.48,3.78-3.09,7.72-1.55,12.42,3.55,10.82,4.13,22.2,5,33.48.24,3,.34,6,.52,9,.07,1.19-.13,2.26-1.58,2.33s-1.76-1-1.83-2.17a78,78,0,0,0-.71-9.81l-.65-.06c-.23,2-.46,4.07-.68,6.11a36.45,36.45,0,0,0-.39,4c0,4-1.4,6.89-5.44,8.13-1.31.4-1.06,1.38-.9,2.43a164.26,164.26,0,0,0,7.07,28.76,20.74,20.74,0,0,0,.71,2.13c.58,1.25.58,2.37-.87,2.85s-1.87-.6-2.26-1.71q-2.88-8.11-5-16.45c-1.24-4.84-2.17-9.74-2.95-14.66-.12-.78,0-1.38-1.27-1.12-9.92,2.16-19.85,1.7-29.72-.22-2.25-.44-1.84,1-2,2.08-1.06,9.61-1.55,19.25-1.89,28.9,0,1.3,0,2.78-1.76,2.69s-1.49-1.68-1.48-2.9a254.28,254.28,0,0,1,2-29.39c.23-1.78-.08-2.8-2-3-2.24-.27-2.9-1.42-2.6-3.8a166.15,166.15,0,0,0,1.31-18.18,7.58,7.58,0,0,0,.22-4.16v-.75a21.69,21.69,0,0,0,0-6.15C468.62,423.56,468.52,424.31,468.7,427.44Zm20.59-83.26c-7.08,0-12.58.56-17.64,2.85-23.38,10.6-24.09,38.3-7.59,53.08,7.36,6.6,16.28,8.25,25.89,6.79,12-1.82,21.7-7,27.42-18.33,6.54-12.95,4.73-26.4-5.1-35.76C505.41,346.27,497,344.12,489.3,344.18Zm22.8,57.47a4.49,4.49,0,0,0-.84.33c-11.52,8.08-24,11-37.83,7.29-1.35-.36-1.39.23-1.33,1.2.2,3,.46,6,.56,9a204.79,204.79,0,0,1-1,29.4c-.22,1.93.44,2.59,2.2,3,9.39,2.3,18.91,2.59,28.5,2a25.77,25.77,0,0,0,10.57-3.48,3,3,0,0,0,1.78-2.48c1.18-8.93,1.86-17.87,1-26.86A169.68,169.68,0,0,0,512.1,401.65Z" transform="translate(-329.15 -200.39)"/><path class="40363e11-0eca-4e04-bd8e-05f2a6a36552" d="M468.7,427.44c-.18-3.13-.09-3.88.82-6a21.69,21.69,0,0,1,0,6.15Z" transform="translate(-329.15 -200.39)"/><path class="40363e11-0eca-4e04-bd8e-05f2a6a36552" d="M469.49,428.31a7.58,7.58,0,0,1-.22,4.16A8.5,8.5,0,0,1,469.49,428.31Z" transform="translate(-329.15 -200.39)"/><path class="aeedc38f-0421-438c-b7be-df616d14a47b" d="M349.64,369.65a4.54,4.54,0,0,1,4.57,4.58,4.74,4.74,0,0,1-4.79,4.69,4.55,4.55,0,0,1-4.49-4.64A4.38,4.38,0,0,1,349.64,369.65Z" transform="translate(-329.15 -200.39)"/><path class="699aecf0-6a11-42c7-86ed-6097fd0008c4" d="M349.56,384c-4.51-.93-9.26,1-13.68-1C340.44,383.48,345.13,381.9,349.56,384Z" transform="translate(-329.15 -200.39)"/><path class="7e31cc74-669e-4821-81bf-d5f2b48247ab" d="M489.3,344.18c7.66-.06,16.11,2.09,23,8.63,9.82,9.36,11.64,22.82,5.1,35.76C511.65,399.89,502,405.08,490,406.91c-9.61,1.46-18.53-.2-25.89-6.79-16.5-14.78-15.78-42.48,7.59-53.08C476.72,344.74,482.21,344.18,489.3,344.18Zm-.73,30.89a4.68,4.68,0,0,0-4.65-4.58,4.44,4.44,0,0,0-4.71,4.43,4.82,4.82,0,0,0,4.28,4.95A5,5,0,0,0,488.56,375.07Zm-27.9-3.67a4.35,4.35,0,0,0-4.56,4.51,4.71,4.71,0,0,0,4.69,4.79,4.57,4.57,0,0,0,4.5-4.64A4.29,4.29,0,0,0,460.66,371.4Zm22.92,13.74c-2.42-1.41-9.52-1.8-14.16-.82C474.46,385.84,479.11,384.18,483.58,385.13Z" transform="translate(-329.15 -200.39)"/><path class="48ceee74-c52d-480f-965a-122e4efb28d2" d="M512.1,401.65A169.68,169.68,0,0,1,515.63,421c.9,9,.23,17.93-1,26.86a3,3,0,0,1-1.78,2.48,25.77,25.77,0,0,1-10.57,3.48c-9.59.61-19.11.32-28.5-2-1.76-.43-2.42-1.09-2.2-3a204.79,204.79,0,0,0,1-29.4c-.1-3-.36-6-.56-9-.06-1,0-1.57,1.33-1.2,13.78,3.7,26.31.79,37.83-7.29A4.49,4.49,0,0,1,512.1,401.65Z" transform="translate(-329.15 -200.39)"/><path class="4c0b1fa9-5518-4a81-a727-1dceb11d99cb" d="M488.56,375.07a5,5,0,0,1-5.08,4.8,4.82,4.82,0,0,1-4.28-4.95,4.44,4.44,0,0,1,4.71-4.43A4.68,4.68,0,0,1,488.56,375.07Z" transform="translate(-329.15 -200.39)"/><path class="4c0b1fa9-5518-4a81-a727-1dceb11d99cb" d="M460.66,371.4a4.29,4.29,0,0,1,4.63,4.65,4.57,4.57,0,0,1-4.5,4.64,4.71,4.71,0,0,1-4.69-4.79A4.35,4.35,0,0,1,460.66,371.4Z" transform="translate(-329.15 -200.39)"/><path class="bf4962e8-7813-48fe-941e-a62f12e286da" d="M483.58,385.13c-4.47-1-9.11.71-14.16-.82C474.06,383.33,481.16,383.72,483.58,385.13Z" transform="translate(-329.15 -200.39)"/></svg>