<svg id="4f05551b-6a33-498e-ab9b-a0febebfd050" data-name="Capa 1" xmlns="http://www.w3.org/2000/svg" viewBox="0 0 213.57 309.58"><defs><style>.c667ffee-fd1d-4ad0-bc39-21544f7bfe20{fill:#070707;}.fcbbf34e-1382-46b3-9651-1bb5345b1d2f{fill:#fefefe;}.dff7bb7c-8ce0-40e1-8715-74ac43768622{fill:#131411;}.d2e6dc80-1475-4f91-a031-f2b1f31d3882{fill:#f6cca0;}.\35 9461ffe-5a9e-4622-b3b1-332a08823de4{fill:#f8cca0;}.b1350784-f7b5-45c9-a368-2c1b01ef008b{fill:#509541;}.\34 9158f99-1987-4d67-9afb-00512381bb63{fill:#92b0c2;}.\31 2f000e1-c0c2-418a-9069-8484790638c6{fill:#90adbe;}.\33 0c6e8df-a650-45b2-99e6-1cf15ea0d8e0{fill:#f4f3f4;}.\36 99d5f1b-13e1-4c33-8b54-bbd8fb0a42fe{fill:#e5c19c;}.b22212c6-3775-4626-ab47-6b60d5f42f97{fill:#dad9da;}.d9242eab-0718-4e5b-ba17-dbd123f52387{fill:#30261e;}.d7e343d9-43c8-42aa-b3f1-6982a37d949a{fill:#19130c;}.\35 b6504f2-abf4-4f79-9765-62fb43617243{fill:#45372c;}.d41b7e1b-80ea-4179-8f00-dfff5c7f8926{fill:#413429;}</style></defs><title>card-11</title><path class="c667ffee-fd1d-4ad0-bc39-21544f7bfe20" d="M542.89,356.07q0,71.61,0,143.23a17.86,17.86,0,0,1-.4,5,8.31,8.31,0,0,1-7.87,6.48c-.75,0-1.5,0-2.25,0h-192c-7.78,0-11.06-3.26-11.06-11.07q0-143.85,0-287.71c0-7.29,3.21-10.59,10.41-10.76q1.25,0,2.5,0,94,0,188,0a23.26,23.26,0,0,1,5.71.37c4.29,1.07,6.69,3.85,6.93,8.27.05.91,0,1.83,0,2.75Q542.89,284.33,542.89,356.07Zm-4.11-.06q0-71.87,0-143.74c0-5-1.68-6.76-6.68-6.93-.75,0-1.5,0-2.25,0h-107q-40.75,0-81.49,0c-6.57,0-7.93,1.4-7.93,7.91q0,143,0,286c0,5.68,1.77,7.44,7.45,7.44H531.13c6.14,0,7.66-1.51,7.66-7.66Q538.79,427.51,538.78,356Z" transform="translate(-329.32 -201.2)"/><path class="fcbbf34e-1382-46b3-9651-1bb5345b1d2f" d="M538.79,356q0,71.49,0,143c0,6.14-1.52,7.66-7.66,7.66H340.89c-5.68,0-7.45-1.76-7.45-7.44q0-143,0-286c0-6.51,1.36-7.9,7.93-7.91q40.75,0,81.49,0h107c.75,0,1.5,0,2.25,0,5,.17,6.68,1.91,6.68,6.93Q538.79,284.14,538.79,356Zm-66.3,110.4-.69,1.64c-2.52,5.9-1.84,7.72,3.91,10.65a88.75,88.75,0,0,0,24.38,7.78c1.52.28,3,.41,3.42-1.41s-1-2.36-2.55-2.59c-.49-.08-1-.19-1.47-.29-6.6-1.36-13.23-2.73-19.29-5.77-6.85-3.43-7.25-2.51-3-10.06,1-1.72,2.38-3.11,2.81-5.2a75.93,75.93,0,0,0-1.46-36.54c-.56-2-.14-2.9,1.6-3.88a55,55,0,0,0,11.77-9.2c3.5-3.49,3.21-7-.72-9.86a22.85,22.85,0,0,0-4-2.51c-1.55-.68-1.92-1.68-2-3.26-.23-9-4.06-16.53-10.26-22.87a7.55,7.55,0,0,1-2.58-4.86c-.09-1.18-.47-2.68-1.61-2.87-2-.33-4-1.52-6.05-1-1.71.45-2.94-.13-4.44-.88a43.44,43.44,0,0,0,6.17-8.36c6.42-11.44,7.43-23.39,2.37-35.49a35.91,35.91,0,0,0-16.72-17.92c-10.43-5.6-21.58-6.27-33-4.42-19.49,3.14-36.41,22.46-29.3,46.25a45.62,45.62,0,0,0,5.57,12.2c.37.55.86,1.18.36,1.8s-1-.19-1.53-.3a77.9,77.9,0,0,0-16.33-1.89A6.19,6.19,0,0,0,372,358.8c-4.52,8.06-5.54,16.62-3.92,25.6.27,1.53.81,2.91,2.71,2.42,1.64-.43,1.61-1.71,1.32-3.21a32.4,32.4,0,0,1,3.15-22.27,3.25,3.25,0,0,1,3.32-2,82.44,82.44,0,0,1,17.74,2.56c1.56.38,2.05.87,1.65,2.64-2.42,10.64-4.52,21.36-4.15,32.35.12,3.63.24,6.93-3.86,8.51-.21.08-.36.34-.54.52-2.15,2.24-2.11,4.37.18,6.48a22,22,0,0,0,2.17,1.68c1.91,1.36,4.37,2.24,4.24,5.29,0,.67.72,1.06,1.32,1.4,1.23.69,2.42,1.48,3.69,2.07a1.84,1.84,0,0,1,1.14,2.36A199.55,199.55,0,0,1,394,458.31a18.35,18.35,0,0,0-.73,2.64,1.84,1.84,0,0,0,1.31,2.15,1.81,1.81,0,0,0,2.33-.93,10.8,10.8,0,0,0,.86-2.06A191.88,191.88,0,0,0,405.92,427c.09-.65-.06-1.94,1-1.6,1.68.55,3.7.23,5,1.75a34.12,34.12,0,0,0,12.67,9.08c.72.3,1.35.56,1.28,1.55-.41,6.16.77,12.3.35,18.46-.2,3-.48,5.86-2.64,8.37-3,3.46-5.77,7.11-7.2,11.58-1.29,4.05-.43,6,3.46,7.74,7,3.13,14.52,4.71,22,6.26,1.35.28,2.86.29,3.2-1.45s-1-2.31-2.54-2.58a101.82,101.82,0,0,1-20.62-5.69c-1.79-.73-2.23-1.61-1.53-3.42,1.42-3.63,3.88-6.56,6-9.72,1-1.42,1.83-1.6,3.48-1.2C443.94,469.48,458.06,470.43,472.48,466.41Z" transform="translate(-329.32 -201.2)"/><path class="dff7bb7c-8ce0-40e1-8715-74ac43768622" d="M472.48,466.41c-14.43,4-28.54,3.07-42.61-.33-1.66-.4-2.51-.22-3.48,1.2-2.16,3.15-4.62,6.09-6,9.72-.71,1.8-.27,2.69,1.53,3.42a101.82,101.82,0,0,0,20.62,5.69c1.54.28,2.9.72,2.54,2.58s-1.85,1.73-3.2,1.45c-7.49-1.55-15-3.13-22-6.26-3.9-1.73-4.75-3.69-3.46-7.74,1.42-4.47,4.22-8.12,7.2-11.58,2.16-2.51,2.44-5.42,2.64-8.37.42-6.16-.75-12.3-.35-18.46.07-1-.56-1.24-1.28-1.55a34.12,34.12,0,0,1-12.67-9.08c-1.34-1.53-3.35-1.2-5-1.75-1-.33-.87,1-1,1.6a191.88,191.88,0,0,1-8.14,33.13,10.8,10.8,0,0,1-.86,2.06,1.81,1.81,0,0,1-2.33.93,1.84,1.84,0,0,1-1.31-2.15,18.35,18.35,0,0,1,.73-2.64,199.55,199.55,0,0,0,8.13-33.13,1.84,1.84,0,0,0-1.14-2.36c-1.28-.59-2.46-1.38-3.69-2.07-.59-.33-1.34-.73-1.32-1.4.12-3-2.34-3.92-4.24-5.29a22,22,0,0,1-2.17-1.68c-2.28-2.11-2.32-4.25-.18-6.48.17-.18.32-.44.54-.52,4.1-1.57,4-4.88,3.86-8.51-.37-11,1.73-21.7,4.15-32.35.4-1.77-.09-2.26-1.65-2.64a82.44,82.44,0,0,0-17.74-2.56,3.25,3.25,0,0,0-3.32,2,32.4,32.4,0,0,0-3.15,22.27c.29,1.5.32,2.78-1.32,3.21-1.89.5-2.43-.89-2.71-2.42-1.62-9-.6-17.54,3.92-25.6a6.19,6.19,0,0,1,5.85-3.49,77.9,77.9,0,0,1,16.33,1.89c.51.12,1,1,1.53.3s0-1.24-.36-1.8a45.62,45.62,0,0,1-5.57-12.2c-7.11-23.79,9.81-43.11,29.3-46.25,11.43-1.84,22.58-1.17,33,4.42a35.91,35.91,0,0,1,16.72,17.92c5.05,12.1,4,24-2.37,35.49a43.44,43.44,0,0,1-6.17,8.36c1.51.75,2.73,1.33,4.44.88,2-.54,4,.65,6.05,1,1.14.19,1.52,1.69,1.61,2.87a7.55,7.55,0,0,0,2.58,4.86c6.2,6.34,10,13.84,10.26,22.87,0,1.58.42,2.58,2,3.26a22.85,22.85,0,0,1,4,2.51c3.93,2.83,4.22,6.36.72,9.86a55,55,0,0,1-11.77,9.2c-1.74,1-2.16,1.92-1.6,3.88A75.93,75.93,0,0,1,480,461.17c-.43,2.09-1.86,3.48-2.81,5.2-4.21,7.55-3.81,6.62,3,10.06,6.07,3,12.69,4.42,19.29,5.77.49.1,1,.21,1.47.29,1.5.24,3,.71,2.55,2.59s-1.9,1.69-3.42,1.41a88.75,88.75,0,0,1-24.38-7.78c-5.75-2.93-6.43-4.75-3.91-10.65ZM468,334.59A33.53,33.53,0,0,0,442.79,302a54.18,54.18,0,0,0-24.23-.72c-12.72,2.39-23.88,13-26.15,24.91-2.6,13.55,4.37,34.64,24.3,41.47a3.08,3.08,0,0,0,2.85,0c10.67-6.37,22.22-7.35,34.22-5.47a3.33,3.33,0,0,0,3.31-1.06C464.1,353.64,468.12,345,468,334.59Zm13.49,62.13c.2-7.64-3.28-14.36-8.46-20.43-1-1.2-1.75-1.58-3.19-.45a5.18,5.18,0,0,1-5.41.89c-1.9-.91-1.71-3.05-1.42-4.68.52-3-1.54-3.9-3.45-4.5-10.64-3.37-21.57-3.69-31.87.39-22.42,8.9-27.42,31.58-17.7,49.67a7.44,7.44,0,0,0,4.31,3.87c3.62,1.2,7.21,2.52,10.77,3.91a2.61,2.61,0,0,0,3.54-1c3.92-5.06,8.59-9.31,14.67-11.63,10.89-4.15,21.27-1.91,31.32,2.92,1.51.73,1.87.4,2.48-.85A39.89,39.89,0,0,0,481.44,396.71Zm-26.84,68c5.7,0,13-.24,19.56-4.25a3.64,3.64,0,0,0,2-2.61c2.52-12.68.58-25-3.17-37.11a2.67,2.67,0,0,0-1.48-1.88c-15.66-6.79-29.72-5.09-40.55,9.5a3.62,3.62,0,0,0-.72,2.32c.05,5.82.05,11.65.15,17.47.07,3.83.36,7.67-.3,11.45-.32,1.81.3,2.31,1.88,2.67A95,95,0,0,0,454.6,464.71Zm-52-100.64a8.8,8.8,0,0,0-.52,1.28c-2.3,10.81-4.46,21.64-4.06,32.78,0,.71-.55,2,.64,2s2.6-.14,2.84-1.81a22.23,22.23,0,0,0,.25-2.23c.41-9.52,4.87-17.07,11.41-23.62.45-.45,1.13-.73,1.12-1.6A45.66,45.66,0,0,1,402.58,364.06Zm2.51,52.68a39.33,39.33,0,0,1-3.33-12.29c-.05-.68-.49-.79-1.05-.6-1.46.51-2.85,1-2.29,3.1a17.84,17.84,0,0,1,.4,3C399.28,414.6,399.84,415.25,405.1,416.74Zm79.88-14a61,61,0,0,1-2.6,9.48c-.17.44-1.07.9-.21,1.41a1.35,1.35,0,0,0,1.6-.26c.93-.82,1.92-1.57,2.84-2.4,4.84-4.33,4.73-5.13-1-8.16A2,2,0,0,0,485,402.77Zm-66.1,25.51a18.55,18.55,0,0,0,6.9,4.08c0-.94.66-2.2-.5-2.61C423.27,429,421.3,427.92,418.87,428.28Zm-24.17-17-.44-3.74c-1.11.26-2.19.82-2.09,1.85S393.42,410.75,394.7,411.27Z" transform="translate(-329.32 -201.2)"/><path class="d2e6dc80-1475-4f91-a031-f2b1f31d3882" d="M468,334.58c.16,10.39-3.85,19.06-10.86,26.53a3.33,3.33,0,0,1-3.31,1.06c-12-1.88-23.55-.89-34.22,5.47a3.08,3.08,0,0,1-2.85,0c-19.93-6.83-26.9-27.91-24.3-41.47,2.27-11.86,13.43-22.52,26.15-24.91a54.18,54.18,0,0,1,24.23.72A33.52,33.52,0,0,1,468,334.58Zm-22-.38c-.23,1.07-.09,2.19-1.51,2.41a29.38,29.38,0,0,0-7.23,2.62c-2.61,1.15-3.76.38-3.49-2.79-1,2-2.31,1.79-3.57,1.14-1.44-.75-2.76-.23-4,.25a7.25,7.25,0,0,1-7.47-1.25c-1.45-1.1-2.62-2.57-4.3-3.37-.46-.22-.46-.44-.35-.95.25-1.12.06-1.3-.75-.85a17.47,17.47,0,0,0-2.82,2,1,1,0,0,0-.14,1.36c.49.62.92.21,1.16-.22.68-1.23,1.3-.52,1.94,0,.89.74,1.84,1.44,2.65,2.27,3.27,3.32,7,4.16,11.37,2.43a3.63,3.63,0,0,1,3.56.39c1.35.92,3.13,1.15,4.23,2.46.51.61.5,0,.79-.15a48,48,0,0,1,8.06-3.81c1.43-.49,2.9-1.34,4.34.09a.73.73,0,0,0,1.11-.09c.35-.52,0-1-.4-1.28C448.16,336,447.15,335.21,446,334.21Zm-31.29-8.13c1.7,1.14,2.44,5.77,1.18,7.25a26,26,0,0,1,9.58-.26c.22,0,.58,0,.68-.11.79-1,.15-7.1-.84-7.93a1.07,1.07,0,0,0-.89-.15A24.79,24.79,0,0,1,414.68,326.08ZM435.6,333c3,.24,5.71,0,8.2,1.34.41.23.63.13,1-.3,1-1.31,2.28-2.48,2.22-4.28,0-1,.62-1.39,1.76-2a19.73,19.73,0,0,1-8.48-1.72c-2.15-.86-2.89.2-3.31,1.88a5.25,5.25,0,0,0-.06,2.69C437.26,331.82,437.36,332.69,435.6,333Zm-11.55-23.28c-3.7-.37-12.7,2.24-13.92,4A98.74,98.74,0,0,0,424.05,309.72ZM441.18,341c.65,3,.36,3.46-2.7,4.18-.8.19-1.62.28-2.44.41-.64.1-1.63.11-1.55.87.11,1,1.16.68,1.83.59a16,16,0,0,0,5-1.43c.91-.45,1.84-.91,1.81-2.1A2.3,2.3,0,0,0,441.18,341Zm10.95-20.6c-2.43-2-12.21-4.45-14.5-3.55C442.55,318,446.94,319.81,452.13,320.4Z" transform="translate(-329.32 -201.2)"/><path class="59461ffe-5a9e-4622-b3b1-332a08823de4" d="M481.44,396.71A39.89,39.89,0,0,1,477,414.79c-.61,1.25-1,1.57-2.48.85-10.05-4.83-20.44-7.07-31.32-2.92-6.08,2.32-10.75,6.57-14.67,11.63a2.61,2.61,0,0,1-3.54,1c-3.56-1.38-7.15-2.7-10.77-3.91a7.44,7.44,0,0,1-4.31-3.87c-9.72-18.09-4.72-40.77,17.7-49.67,10.29-4.09,21.23-3.76,31.87-.39,1.91.61,4,1.54,3.45,4.5-.28,1.62-.48,3.76,1.42,4.68a5.18,5.18,0,0,0,5.41-.89c1.45-1.13,2.17-.75,3.19.45C478.16,382.35,481.65,389.07,481.44,396.71Z" transform="translate(-329.32 -201.2)"/><path class="b1350784-f7b5-45c9-a368-2c1b01ef008b" d="M454.6,464.71a95,95,0,0,1-22.67-2.43c-1.58-.36-2.2-.86-1.88-2.67.67-3.78.37-7.63.3-11.45-.1-5.82-.1-11.65-.15-17.47a3.62,3.62,0,0,1,.72-2.32c10.83-14.59,24.89-16.29,40.55-9.5a2.67,2.67,0,0,1,1.48,1.88c3.75,12.14,5.69,24.43,3.17,37.11a3.64,3.64,0,0,1-2,2.61C467.59,464.46,460.3,464.73,454.6,464.71Z" transform="translate(-329.32 -201.2)"/><path class="49158f99-1987-4d67-9afb-00512381bb63" d="M402.58,364.06a45.66,45.66,0,0,0,11.68,6.8c0,.87-.67,1.15-1.12,1.6-6.55,6.55-11,14.1-11.41,23.62a22.23,22.23,0,0,1-.25,2.23c-.24,1.67-1.79,1.78-2.84,1.81s-.61-1.3-.64-2c-.39-11.14,1.76-22,4.06-32.78A8.8,8.8,0,0,1,402.58,364.06Z" transform="translate(-329.32 -201.2)"/><path class="12f000e1-c0c2-418a-9069-8484790638c6" d="M405.1,416.74c-5.26-1.49-5.82-2.13-6.27-6.83a17.84,17.84,0,0,0-.4-3c-.56-2.06.82-2.59,2.29-3.1.56-.19,1-.08,1.05.6A39.33,39.33,0,0,0,405.1,416.74Z" transform="translate(-329.32 -201.2)"/><path class="30c6e8df-a650-45b2-99e6-1cf15ea0d8e0" d="M485,402.77a2,2,0,0,1,.59.07c5.78,3,5.89,3.83,1,8.16-.92.83-1.91,1.58-2.84,2.4a1.35,1.35,0,0,1-1.6.26c-.86-.51,0-1,.21-1.41A61,61,0,0,0,485,402.77Z" transform="translate(-329.32 -201.2)"/><path class="699d5f1b-13e1-4c33-8b54-bbd8fb0a42fe" d="M418.87,428.28c2.43-.36,4.4.76,6.4,1.47,1.16.41.48,1.67.5,2.61A18.55,18.55,0,0,1,418.87,428.28Z" transform="translate(-329.32 -201.2)"/><path class="b22212c6-3775-4626-ab47-6b60d5f42f97" d="M394.7,411.27c-1.28-.52-2.45-1-2.54-1.9s1-1.59,2.09-1.85Z" transform="translate(-329.32 -201.2)"/><path class="d9242eab-0718-4e5b-ba17-dbd123f52387" d="M446,334.21c1.19,1,2.19,1.83,3.16,2.69.36.32.75.76.4,1.28a.73.73,0,0,1-1.11.09c-1.44-1.42-2.91-.57-4.34-.09A48,48,0,0,0,436,342c-.29.17-.28.76-.79.15-1.1-1.31-2.88-1.54-4.23-2.46a3.63,3.63,0,0,0-3.56-.39c-4.34,1.72-8.1.88-11.37-2.43-.81-.83-1.76-1.52-2.65-2.27-.63-.53-1.26-1.23-1.94,0-.24.43-.67.84-1.16.22a1,1,0,0,1,.14-1.36,17.47,17.47,0,0,1,2.82-2c.81-.44,1-.26.75.85-.12.51-.11.73.35.95,1.68.8,2.85,2.27,4.3,3.37a7.25,7.25,0,0,0,7.47,1.25c1.26-.49,2.58-1,4-.25,1.26.65,2.6.87,3.57-1.14-.27,3.17.87,3.94,3.49,2.79a29.38,29.38,0,0,1,7.23-2.62C445.87,336.4,445.74,335.28,446,334.21Z" transform="translate(-329.32 -201.2)"/><path class="d7e343d9-43c8-42aa-b3f1-6982a37d949a" d="M414.68,326.08a24.79,24.79,0,0,0,9.71-1.2,1.07,1.07,0,0,1,.89.15c1,.83,1.63,6.89.84,7.93-.1.14-.46.15-.68.11a26,26,0,0,0-9.58.26C417.12,331.85,416.37,327.22,414.68,326.08Z" transform="translate(-329.32 -201.2)"/><path class="d7e343d9-43c8-42aa-b3f1-6982a37d949a" d="M435.6,333c1.76-.31,1.66-1.18,1.28-2.4a5.25,5.25,0,0,1,.06-2.69c.42-1.68,1.16-2.74,3.31-1.88a19.73,19.73,0,0,0,8.48,1.72c-1.14.62-1.79,1-1.76,2,.06,1.8-1.22,3-2.22,4.28-.33.43-.55.53-1,.3C441.31,333,438.55,333.24,435.6,333Z" transform="translate(-329.32 -201.2)"/><path class="5b6504f2-abf4-4f79-9765-62fb43617243" d="M424.05,309.72a98.74,98.74,0,0,1-13.92,4C411.36,312,420.36,309.35,424.05,309.72Z" transform="translate(-329.32 -201.2)"/><path class="d41b7e1b-80ea-4179-8f00-dfff5c7f8926" d="M441.18,341a2.3,2.3,0,0,1,1.92,2.51c0,1.19-.9,1.65-1.81,2.1a16,16,0,0,1-5,1.43c-.67.09-1.72.41-1.83-.59-.08-.76.9-.77,1.55-.87.81-.13,1.64-.22,2.44-.41C441.54,344.46,441.83,344,441.18,341Z" transform="translate(-329.32 -201.2)"/><path class="d41b7e1b-80ea-4179-8f00-dfff5c7f8926" d="M452.13,320.4c-5.19-.59-9.58-2.37-14.5-3.55C439.91,315.94,449.69,318.35,452.13,320.4Z" transform="translate(-329.32 -201.2)"/></svg>