<svg id="65abb682-f033-40f4-b964-1945bc70865b" data-name="Capa 1" xmlns="http://www.w3.org/2000/svg" viewBox="0 0 213.61 309.61"><defs><style>.\35 10c3286-a0ff-401a-a968-13d1e5d582ae{fill:#0b0b0b;}.a46984cb-7543-461c-877a-6f10761c603f{fill:#fefdfe;}.\31 1ba1e41-891a-458d-809e-b050abf00f41{fill:#141612;}.\31 99f3ed6-a85a-4730-b214-329ac536bca6{fill:#161615;}.\37 28a5342-fce3-4673-b4bf-4f5c38b2eef4{fill:#1f2020;}.\33 4781f5c-ddd2-4a20-9a02-ac3929bf88a3{fill:#1d1d1d;}.ce52c273-5bcf-4f9b-bb93-a547c7dc916b{fill:#f7cca0;}.e3d6c349-a3d4-4a75-b5cc-c7da86303aaa{fill:#509541;}.\31 f065093-7168-4db5-a9a2-dbf093c6b973{fill:#4a823e;}.\31 bdf8b31-efe4-4556-b1c3-948db2fe3c5c{fill:#95b4c7;}.\37 094293c-b3d6-4f6f-a86d-53cb6fd815cf{fill:#788b97;}.afce12de-119d-479d-874b-3162e2ac8ecc{fill:#fcfcfc;}.d95d4b1e-d240-4c15-86db-b076f2a9c261{fill:#f3f2f2;}.dbd66689-e73f-49db-bde4-3a9f76d6e4cb{fill:#a0876e;}.\34 49ac464-15db-49c3-88af-e5863fe601f5{fill:#48382c;}.fd5d7906-15e4-462e-a389-cf34cffc0763{fill:#cdae8d;}</style></defs><title>card-19</title><path class="510c3286-a0ff-401a-a968-13d1e5d582ae" d="M542.93,355.84q0,71.37,0,142.73c0,.92,0,1.83,0,2.75-.29,6-3.71,9.35-9.72,9.36q-20.37,0-40.74,0H340.21c-7.48,0-10.88-3.34-10.88-10.8q0-144.11,0-288.21c0-7.06,3.06-10.29,10.07-10.49,4.91-.14,9.83-.1,14.74-.1h176c1.33,0,2.67,0,4,.1,5.11.23,8.35,3.35,8.76,8.43.07.91,0,1.83,0,2.75Q542.93,284.1,542.93,355.84Zm-209.46-.07q0,71.62,0,143.23c0,5.83,1.62,7.47,7.37,7.47H531.56a19.83,19.83,0,0,0,2.49-.07,4.64,4.64,0,0,0,4.42-4.05,22.36,22.36,0,0,0,.3-3.72q0-142.86,0-285.72c0-.75,0-1.5,0-2.25-.28-3.46-2.15-5.25-5.64-5.41-1.08-.05-2.17,0-3.25,0H389.65q-25,0-50,0c-4.34,0-6,1.74-6.18,6,0,.75,0,1.5,0,2.25Q333.46,284.65,333.46,355.77Z" transform="translate(-329.33 -201.07)"/><path class="a46984cb-7543-461c-877a-6f10761c603f" d="M333.46,355.77q0-71.12,0-142.23c0-.75,0-1.5,0-2.25.15-4.3,1.84-6,6.18-6q25-.06,50,0H529.88c1.08,0,2.17,0,3.25,0,3.49.16,5.36,2,5.64,5.41.06.75,0,1.5,0,2.25q0,142.86,0,285.72a22.36,22.36,0,0,1-.3,3.72,4.64,4.64,0,0,1-4.42,4.05,19.83,19.83,0,0,1-2.49.07H340.83c-5.75,0-7.37-1.64-7.37-7.47Q333.46,427.38,333.46,355.77Zm135.24,63.48.68.06a189.12,189.12,0,0,1-.26,32.62c-.21,2.53.16,4,2.92,4.35,1.42.16,2.05.83,1.8,2.49-.87,5.67-1.66,11.36-2.3,17.06-.52,4.63-.76,9.29-1.14,13.94-.12,1.38.08,2.64,1.73,2.74s1.89-1,1.94-2.34c0-1,.21-2,.27-3,.51-9.32,1.73-18.55,3-27.78.18-1.28.55-1.69,1.91-1.38,1.94.44,3.93.64,5.91.88a70.14,70.14,0,0,0,24.06-.7c1.62-.36,1.54.38,1.67,1.47a163.07,163.07,0,0,0,6.58,30.92c.42,1.34.8,3,2.75,2.39,1.73-.59,1.21-2.05.79-3.38a177.91,177.91,0,0,1-6.55-30.68c-.23-1.78,0-2.93,1.88-3.66,2-.8,3.85-1.87,4-4.56.2-4.4.68-8.79.94-13.2.75-12.8-2-25.15-5.09-37.43a3.08,3.08,0,0,1,.67-3.14,35.74,35.74,0,0,0,5-8.28c6.64-14.71,3.76-30.44-7.78-40-13-10.83-28.1-11.34-43.15-6.13-12.81,4.43-20.9,14-22.53,28-1.71,14.67,4,26.31,15.5,35.21a3.12,3.12,0,0,1,1.52,3c-.66,13.14-1.21,26.28-1.84,39.41-.07,1.45-.11,2.89,1.69,3s2-1.36,2-2.79q.3-7.74.65-15.47C468.23,428.3,468.48,423.78,468.71,419.25ZM361,391.86c-2.52,0-4.91,0-7.3,0-9.63.12-13,5.7-8.35,14.12,3.64,6.64,8.86,12,14.06,17.43.86.89,1.84,1.21,2.84.27s.71-1.92-.16-2.82c-1.1-1.13-2.23-2.24-3.3-3.41-4.15-4.55-8.46-9-11-14.74-1.92-4.4-.47-6.68,4.34-7a46.36,46.36,0,0,1,11,.55,3.64,3.64,0,0,1,3.25,3.76,30.8,30.8,0,0,1-.18,3.24c-1.26,16.2-.81,32.22,4.13,47.93,1.26,4,2.82,7,7.27,7.56,1.13.15,1.5.63,1.08,1.86-3.74,11-9.33,20.75-18.07,28.56-1.12,1-3.45,1.9-1.63,3.83s3-.29,4.11-1.28c9.2-8.06,15.08-18.26,18.91-29.74.32-.95.35-1.95,2-1.89a77.17,77.17,0,0,0,26.94-4.33c2-.68,2.43,0,3,1.66,3.47,10.75,7,21.47,10.57,32.2.44,1.34.88,3,2.82,2.3,1.73-.63,1.18-2.05.74-3.38q-5.21-15.74-10.37-31.49c-1.06-3.21-1.06-3.21,2-4.61,3.34-1.53,3.33-1.52,2.35-5.21a210,210,0,0,1-6.91-39.51c-.1-1.5.12-2.43,1.49-3.25a19.5,19.5,0,0,0,6.28-5.64c2.05-3.07,5.12-4.1,8.34-4.92,3.93-1,5.17.29,4.27,4.23-1.27,5.59-4.17,10.48-6.87,15.43-.66,1.21-.89,2.28.4,3s2.2,0,2.81-1.23c.91-1.78,1.88-3.52,2.77-5.31a43.6,43.6,0,0,0,4.54-12.87c.69-4.6-1.53-7.17-6.2-7-1.45.06-2.89.36-4.51.57.35-.73.63-1.24.85-1.77,7.23-17.52,2.3-36.56-15.61-45.94-10.52-5.51-21.72-5.75-33-3.05-14.83,3.54-28.39,18.12-24.83,38A44.76,44.76,0,0,0,361,391.86Zm29.62-107.15c.88,2.27,1.71,4.35,2.5,6.44.35.91.74,1.36,1.83.84s1.09-1,.66-1.92a49.79,49.79,0,0,1-3.48-11.15c-.21-1.1-.62-1.56-1.79-1.51s-1.32.71-1.44,1.62a26.27,26.27,0,0,1-1.87,7.13c-.72-2.37-1.37-4.24-1.84-6.15a1.7,1.7,0,0,0-1.82-1.55c-1.18-.07-1.33.66-1.65,1.45A53.37,53.37,0,0,0,379,290c-.15.81-.38,1.62.95,1.8s1.5-.43,1.69-1.48a24.39,24.39,0,0,1,1.69-6.45c.79,2,1.48,3.63,2.1,5.32a2.14,2.14,0,0,0,2.06,1.49c1.07.08,1.11-.87,1.38-1.49C389.45,287.83,389.94,286.41,390.59,284.71Zm67.6-31.34c-4.56.07-8.78,4.2-8.75,8.58a7,7,0,0,0,7,7.21c4.82-.06,9-4.11,8.87-8.65A7.16,7.16,0,0,0,458.19,253.37Zm-27.84,57.75a35,35,0,0,1-.74,8.05,29.87,29.87,0,0,1-7,14.37c-.5.56-1.06,1.17-.44,2a1.16,1.16,0,0,0,1.76.21,7.74,7.74,0,0,0,1.19-1.26c8-9.83,8.89-21.13,6.86-33-.15-.91-.57-1.36-1.49-1.24-1.23.15-1.11,1.05-1,1.89A48.81,48.81,0,0,1,430.35,311.12Zm-10.89-34.55c-3.25,0-3.22,0-2.87,3.07.28,2.56.48,5.14.68,7.71.34,4.17.33,4.17,4.51,3.85a9.87,9.87,0,0,0,3.82-1.09c3.07-1.6,4.25-4.67,2.76-7.81A9.37,9.37,0,0,0,419.47,276.56Zm12.2-14.07c-.19-2.29-.34-3.76-.42-5.23-.06-1.12-.61-1.34-1.64-1.22s-1.19.52-1.1,1.45c.36,3.55.63,7.11.93,10.67.06.77.07,1.54,1.2,1.44,1-.09,1.85-.18,1.54-1.57-.26-1.18.35-1.19,1.27-.91,1.67.5,3.35,1,5.06,1.3.85.17,1.94,1.33,2.54-.58.68-2.16-1.14-1.59-2-1.94a15.66,15.66,0,0,0-3.83-1.05c-1.66-.24-1.41-.87-.64-1.88,1.46-1.92,2.85-3.88,4.27-5.82.58-.79,1.38-1.43,0-2.36-1.24-.83-1.57,0-2.1.72Zm21,22.61c-.19-2.1-.34-3.56-.46-5-.08-.95-.34-1.5-1.51-1.42s-1.32.63-1.22,1.61c.34,3.55.67,7.11.92,10.67.08,1.13.56,1.36,1.58,1.31s1.4-.35,1.16-1.36c-.34-1.39.49-1.31,1.4-1.08,1.93.49,3.86.95,5.76,1.53,1,.3,1.41.31,1.76-.86s-.17-1.46-1.05-1.69c-1.6-.42-3.2-.86-4.82-1.23-1.21-.28-1.51-.72-.66-1.79a55.6,55.6,0,0,0,3.79-5.24c.49-.8,2.47-1.49.65-2.91s-2,.55-2.67,1.32C455.81,280.76,454.46,282.7,452.68,285.1Zm-61.31-27.24h-.06c.11,1.24.22,2.48.32,3.73s.19,2.49.3,3.73c.09,1.06-.07,2.19,1.7,2s.91-1.32,1-2.17-.69-1.82.59-2.34c3.32-1.35,4.62-.61,5.09,2.9a1.24,1.24,0,0,1,0,.25c-.07,1,.29,1.44,1.44,1.37s1.25-.74,1.17-1.65c-.33-3.81-.68-7.62-.92-11.44-.07-1.06-.55-1.17-1.42-1.17s-1.31.4-1.22,1.35c.11,1.16,0,2.34.22,3.48s-.17,1.73-1.5,1.88c-4.25.47-3.86,1.5-4.15-3.39a10.77,10.77,0,0,1,0-1.25c.06-1.09-.57-1.17-1.44-1.12s-1.38.32-1.22,1.35C391.33,256.19,391.32,257,391.37,257.86Zm82.44,10c.52,0,1.69-.05,2.84-.22a2.93,2.93,0,0,0,2.72-2.8c.34-3.54-.6-6.93-1.24-10.36-.21-1.15-1.09-.74-1.78-.74-1,0-.95.64-.8,1.37.31,1.55.63,3.09.87,4.65.88,5.76.82,5.77-4.92,5.52-1.62-.07-2.3-.66-2.09-2.27.31-2.31.7-4.61.85-6.92.06-.81,1.16-2.19-.84-2.48-1.72-.25-1.6.93-1.74,2-.25,1.9-.6,3.78-.74,5.69C466.55,266.79,467.7,268,473.81,267.84Zm-69-7.45H405c.17,2.31-.49,5.36.73,6.76,1.46,1.68,4.5.43,6.85,0l.49-.11c1-.19,1.29-.7,1-1.76s-.66-1.15-1.57-.95-2.13.32-3.2.45c-.81.1-1.45.07-1.46-1.07,0-1,.09-1.57,1.28-1.58s2.31-.24,3.47-.33.82-.8.83-1.45-.14-1.3-1.09-1.19-1.84.06-2.73.23c-1.24.24-2,.22-2.15-1.41s.34-2.13,1.85-2.07c.83,0,1.66-.13,2.49-.13s1.56-.14,1.47-1.37-.71-1.32-1.65-1.25c-1.74.12-3.49.28-5.23.25-1.5,0-1.75.64-1.64,2C404.9,257.06,404.8,258.73,404.8,260.39Zm17.9,8.86a12.14,12.14,0,0,0,4-.62c.74-.19,1.9-.11,1.38-1.67-.42-1.24-.91-1.25-2-.92a11.21,11.21,0,0,1-4.42.61,4.52,4.52,0,0,1-4.19-3.35,4.06,4.06,0,0,1,1.08-4.56c1.58-1.44,3.46-1.87,5.26-.73,1.4.88,2.3.45,2.77-.69s-.89-1.36-1.57-1.74a7.16,7.16,0,0,0-9.93,9C416.24,267.82,418.61,269.3,422.7,269.25ZM443.21,292a18.08,18.08,0,0,0,4.66-.7c.72-.24,1.75-.08,1.28-1.5-.36-1.09-.78-1.51-1.92-1.08a11.48,11.48,0,0,1-4.41.6,4.29,4.29,0,0,1-4.26-3.19,4.11,4.11,0,0,1,1.13-4.77,4.18,4.18,0,0,1,5.28-.58c1.34.88,2.14.32,2.62-.63.6-1.19-.77-1.44-1.43-1.82a7.13,7.13,0,0,0-8.11,1,7,7,0,0,0-1.93,7.93Q437.83,291.92,443.21,292Zm-57.78-22.72a12.54,12.54,0,0,0,4-.61c.78-.2,1.94-.19,1.39-1.69-.41-1.11-.86-1.29-2-.91a13.28,13.28,0,0,1-3.91.6,4.39,4.39,0,0,1-4.6-3.1,4.07,4.07,0,0,1,1-4.78,4.5,4.5,0,0,1,5.51-.72c.41.21.78.82,1.29.48a3.41,3.41,0,0,0,1.35-1.38c.25-.65-.58-.89-1-1.2a7,7,0,0,0-8.15.23,6.88,6.88,0,0,0-2.49,8.18C378.91,267.76,381.25,269.3,385.43,269.25Zm22.48,8a13.58,13.58,0,0,0-1.33-1.5c-.65-.55-1,.14-1.46.46-1.17.87-2,2.78-3.38,2.62s-2.46-1.55-3.68-2.4a5.44,5.44,0,0,1-.6-.44c-.76-.71-1.31-.67-2,.24s-.53,1.51.41,1.91c4.55,1.93,5.56,5.6,5.06,10.06-.05.49.07,1,.06,1.49,0,1,.23,1.51,1.41,1.48,1.35,0,1.45-.72,1.34-1.76-.14-1.4-.1-2.83-.31-4.22-.4-2.6.26-4.67,2.54-6.15A15.82,15.82,0,0,0,407.9,277.28Zm75-20c1.71-.59,1.93.51,2,2.1,0,2.32.25,4.64.43,7,.06.82-.31,1.89,1.27,1.82s1.41-1,1.34-2c-.14-2.07-.16-4.16-.46-6.21-.33-2.26.1-3.67,2.76-3.51.88.05,1.56-.09,1.41-1.4s-.92-1.31-1.87-1.19c-2.47.31-4.94.66-7.41.9-1,.1-1.68.16-1.57,1.53C480.88,257.75,481.78,257.35,482.91,257.25Zm-52.16,24.54h-.06c.22,2.64.45,5.28.66,7.91.06.79.07,1.52,1.22,1.36.89-.12,1.57-.22,1.46-1.45-.35-3.87-.61-7.75-.86-11.64-.07-1.07-.53-1.35-1.56-1.32-1.3,0-1.21.8-1.14,1.67Q430.61,280.05,430.75,281.79Zm36.68,7.85c.14-1.14-.38-1.6-1.56-1.51-.75.06-1.23.09-1.13,1.09s.4,1.67,1.63,1.57C467.15,290.73,467.67,290.62,467.43,289.64Z" transform="translate(-329.33 -201.07)"/><path class="11ba1e41-891a-458d-809e-b050abf00f41" d="M468.71,419.25c-.23,4.53-.47,9-.68,13.58q-.36,7.73-.65,15.47c-.06,1.43-.24,2.9-2,2.79s-1.75-1.55-1.69-3c.63-13.14,1.18-26.28,1.84-39.41a3.12,3.12,0,0,0-1.52-3c-11.55-8.9-17.22-20.54-15.5-35.21,1.63-13.94,9.73-23.53,22.53-28,15.05-5.21,30.12-4.7,43.15,6.13,11.55,9.6,14.43,25.32,7.78,40a35.74,35.74,0,0,1-5,8.28,3.08,3.08,0,0,0-.67,3.14c3.13,12.28,5.84,24.63,5.09,37.43-.26,4.4-.74,8.79-.94,13.2-.13,2.69-2,3.76-4,4.56-1.86.74-2.11,1.88-1.88,3.66a177.91,177.91,0,0,0,6.55,30.68c.42,1.33.94,2.79-.79,3.38-1.95.66-2.33-1.05-2.75-2.39a163.07,163.07,0,0,1-6.58-30.92c-.12-1.08,0-1.83-1.67-1.47a70.14,70.14,0,0,1-24.06.7c-2-.24-4-.45-5.91-.88-1.36-.3-1.73.1-1.91,1.38-1.31,9.23-2.53,18.47-3,27.78-.05,1-.23,2-.27,3-.05,1.31-.43,2.43-1.94,2.34s-1.84-1.36-1.73-2.74c.39-4.65.63-9.31,1.14-13.94.64-5.7,1.42-11.39,2.3-17.06.26-1.66-.38-2.33-1.8-2.49-2.75-.31-3.12-1.82-2.92-4.35a189.12,189.12,0,0,0,.26-32.62Zm44.15,31,0-.05-.37-.65c0-15.57-.22-31.15-.65-46.88a7.11,7.11,0,0,0-1,.41c-11.3,7.72-23.58,10.38-37,7.14-1.42-.34-1.66,0-1.52,1.45.53,5.12,1.06,10.25,1.14,15.41.12,7.91,0,15.8-.57,23.69-.1,1.33.14,2.07,1.68,2.46A91,91,0,0,0,503,455.6a23.12,23.12,0,0,0,12-3.73c1.26-.21,1.75-.94,1.9-2.22a119.3,119.3,0,0,0,.89-20.68c-.24-4.1-.37-8.26-1.73-12.23a14.45,14.45,0,0,0-.15,2.66c.1,9.32-.05,18.65.45,28,.08,1.44.12,2.88-1.5,3.63l-1.51-.28ZM465.34,382c2,1.91-.38,2.64-.7,3.86-.82,3.15-2.18,4.47-4.49,4.51-2.69,0-4.16-1.21-5-4.51-.23-.9-.54-1.44-1.43-1.12s-.32,1.12-.13,1.61a34.79,34.79,0,0,0,8.77,13.48c7.28,6.85,16.12,9,25.85,7.84,11.72-1.42,21.78-5.79,28.28-16.37,10.68-17.39,5.2-37.18-12.91-45.24-8.55-3.81-17.67-3.73-26.72-1.77-14.86,3.22-28.5,17.3-24.53,37.56.3,1.53.78,2,2.41,1.89,2.65-.21,5.33-.06,8,0C464,383.8,465.22,383.87,465.34,382Z" transform="translate(-329.33 -201.07)"/><path class="199f3ed6-a85a-4730-b214-329ac536bca6" d="M361,391.86A44.76,44.76,0,0,1,355.81,378c-3.57-19.91,10-34.49,24.83-38,11.32-2.7,22.53-2.46,33,3.05,17.91,9.38,22.84,28.42,15.61,45.94-.22.53-.5,1-.85,1.77,1.62-.21,3.06-.51,4.51-.57,4.67-.2,6.89,2.37,6.2,7A43.6,43.6,0,0,1,434.61,410c-.89,1.79-1.86,3.53-2.77,5.31-.61,1.19-1.55,1.92-2.81,1.23s-1.06-1.76-.4-3c2.7-5,5.6-9.84,6.87-15.43.9-3.94-.34-5.22-4.27-4.23-3.22.82-6.29,1.85-8.34,4.92a19.5,19.5,0,0,1-6.28,5.64c-1.36.82-1.59,1.75-1.49,3.25A210,210,0,0,0,422,447.24c1,3.69,1,3.69-2.35,5.21-3.08,1.41-3.07,1.4-2,4.61q5.18,15.75,10.37,31.49c.44,1.33,1,2.75-.74,3.38-1.94.71-2.38-1-2.82-2.3-3.55-10.72-7.1-21.45-10.57-32.2-.54-1.66-.93-2.34-3-1.66A77.17,77.17,0,0,1,384,460.12c-1.67-.05-1.7.95-2,1.89-3.83,11.49-9.71,21.68-18.91,29.74-1.13,1-2.37,3.13-4.11,1.28s.51-2.83,1.63-3.83c8.73-7.81,14.32-17.59,18.07-28.56.42-1.24,0-1.71-1.08-1.86-4.45-.59-6-3.56-7.27-7.56-4.93-15.71-5.39-31.73-4.13-47.93a30.8,30.8,0,0,0,.18-3.24,3.64,3.64,0,0,0-3.25-3.76,46.36,46.36,0,0,0-11-.55c-4.82.3-6.26,2.58-4.34,7,2.51,5.75,6.82,10.2,11,14.74,1.07,1.17,2.19,2.28,3.3,3.41.87.9,1.18,1.86.16,2.82s-2,.62-2.84-.27C354.17,418,349,412.63,345.32,406c-4.61-8.42-1.29-14,8.35-14.12C356.05,391.83,358.44,391.86,361,391.86Zm53.92,41.36-.1-1.08-.05-.72c.16-.36,0-.58-.33-.73-1-7.25-2.33-14.46-2.71-21.79-.08-1.48-.82-1.23-1.84-.89-13.81,4.59-26.71,2.36-38.85-5.31-.34-.22-.64-.54-1.16-.22-.67,3.74-.33,7.59-.6,11.4-1,13.15,1.26,25.86,5.16,38.35.32,1,.51,2,1.79,2.46,2.93,1,5.87,2,9,2a84.41,84.41,0,0,0,32.21-7c1.28-.55,1.42-1.23,1.06-2.5-1-3.44-1.76-6.93-2.63-10.4A6.55,6.55,0,0,0,414.89,433.22Zm10.31-73.32c.17.22.36.33.56,0a3.4,3.4,0,0,0-.31-.28,27.49,27.49,0,0,0-11.74-12.52c-11.51-6.62-23.84-7-35.88-2.47-11,4.17-18.29,12.62-18.86,24.78-1.12,23.69,17.66,39.81,42.68,37,19.82-2.25,31-22.55,26.16-42a3.59,3.59,0,0,0-3.05-3.08,7.58,7.58,0,0,1-4.91-3.24C422.11,357.92,423.36,359.82,425.19,359.9Z" transform="translate(-329.33 -201.07)"/><path class="728a5342-fce3-4673-b4bf-4f5c38b2eef4" d="M390.59,284.71c-.65,1.71-1.14,3.12-1.74,4.48-.27.62-.31,1.57-1.38,1.49a2.14,2.14,0,0,1-2.06-1.49c-.62-1.68-1.31-3.34-2.1-5.32a24.39,24.39,0,0,0-1.69,6.45c-.19,1-.39,1.66-1.69,1.48s-1.1-1-.95-1.8a53.37,53.37,0,0,1,2.71-10.08c.31-.79.47-1.52,1.65-1.45a1.7,1.7,0,0,1,1.82,1.55c.47,1.91,1.12,3.78,1.84,6.15a26.27,26.27,0,0,0,1.87-7.13c.13-.9.29-1.56,1.44-1.62s1.57.41,1.79,1.51a49.79,49.79,0,0,0,3.48,11.15c.44,1,.35,1.44-.66,1.92s-1.49.07-1.83-.84C392.3,289.06,391.47,287,390.59,284.71Z" transform="translate(-329.33 -201.07)"/><path class="728a5342-fce3-4673-b4bf-4f5c38b2eef4" d="M458.19,253.37a7.16,7.16,0,0,1,7.15,7.14c.1,4.54-4.06,8.59-8.87,8.65a7,7,0,0,1-7-7.21C449.42,257.57,453.64,253.44,458.19,253.37Zm.12,2.74a6.25,6.25,0,0,0-6.18,5.88,4.15,4.15,0,0,0,4.33,4.4,6.09,6.09,0,0,0,6.16-5.58A4.27,4.27,0,0,0,458.31,256.11Z" transform="translate(-329.33 -201.07)"/><path class="728a5342-fce3-4673-b4bf-4f5c38b2eef4" d="M430.35,311.12a48.81,48.81,0,0,0-.83-9.06c-.15-.83-.27-1.73,1-1.89.92-.12,1.34.33,1.49,1.24,2,11.91,1.14,23.22-6.86,33a7.74,7.74,0,0,1-1.19,1.26,1.16,1.16,0,0,1-1.76-.21c-.62-.8-.06-1.4.44-2a29.87,29.87,0,0,0,7-14.37A35,35,0,0,0,430.35,311.12Z" transform="translate(-329.33 -201.07)"/><path class="34781f5c-ddd2-4a20-9a02-ac3929bf88a3" d="M419.47,276.56a9.37,9.37,0,0,1,8.89,5.74c1.49,3.14.31,6.21-2.76,7.81a9.87,9.87,0,0,1-3.82,1.09c-4.18.33-4.17.32-4.51-3.85-.21-2.57-.4-5.15-.68-7.71C416.25,276.54,416.22,276.54,419.47,276.56Zm0,4.43c.16,2.2.31,4.27.46,6.33,0,.57,0,1.28.83,1.26,1.85-.05,3.74-.23,4.93-1.86s.61-3.18-.42-4.61a7.54,7.54,0,0,0-3.82-2.65C419.83,278.91,419,279.27,419.47,281Z" transform="translate(-329.33 -201.07)"/><path class="728a5342-fce3-4673-b4bf-4f5c38b2eef4" d="M431.67,262.5l5.12-7c.53-.73.86-1.55,2.1-.72,1.39.93.59,1.58,0,2.36-1.42,1.94-2.82,3.9-4.27,5.82-.77,1-1,1.64.64,1.88a15.66,15.66,0,0,1,3.83,1.05c.82.35,2.64-.22,2,1.94-.6,1.91-1.69.75-2.54.58-1.7-.34-3.39-.8-5.06-1.3-.93-.28-1.53-.27-1.27.91.31,1.39-.56,1.48-1.54,1.57-1.13.1-1.14-.67-1.2-1.44-.3-3.56-.58-7.12-.93-10.67-.09-.94.1-1.34,1.1-1.45s1.58.1,1.64,1.22C431.33,258.73,431.48,260.2,431.67,262.5Z" transform="translate(-329.33 -201.07)"/><path class="728a5342-fce3-4673-b4bf-4f5c38b2eef4" d="M452.68,285.1c1.78-2.4,3.13-4.34,4.63-6.17.63-.77.84-2.76,2.67-1.32s-.16,2.11-.65,2.91a55.6,55.6,0,0,1-3.79,5.24c-.85,1.08-.54,1.52.66,1.79,1.61.37,3.21.81,4.82,1.23.88.23,1.41.5,1.05,1.69s-.79,1.15-1.76.86c-1.9-.58-3.84-1-5.76-1.53-.9-.23-1.74-.31-1.4,1.08.25,1-.2,1.3-1.16,1.36s-1.5-.17-1.58-1.31c-.24-3.56-.57-7.12-.92-10.67-.1-1,0-1.53,1.22-1.61s1.43.48,1.51,1.42C452.34,281.54,452.48,283,452.68,285.1Z" transform="translate(-329.33 -201.07)"/><path class="34781f5c-ddd2-4a20-9a02-ac3929bf88a3" d="M391.37,257.86c-.05-.83,0-1.67-.17-2.49-.17-1,.29-1.3,1.22-1.35s1.5,0,1.44,1.12a10.77,10.77,0,0,0,0,1.25c.3,4.89-.09,3.86,4.15,3.39,1.32-.15,1.71-.59,1.5-1.88s-.11-2.32-.22-3.48c-.09-.95.23-1.35,1.22-1.35s1.35.11,1.42,1.17c.25,3.82.59,7.63.92,11.44.08.91.09,1.57-1.17,1.65s-1.51-.33-1.44-1.37a1.24,1.24,0,0,0,0-.25c-.47-3.51-1.77-4.25-5.09-2.9-1.29.52-.54,1.53-.59,2.34s.88,2-1,2.17-1.61-.95-1.7-2c-.1-1.24-.19-2.49-.3-3.73s-.21-2.49-.32-3.73Z" transform="translate(-329.33 -201.07)"/><path class="34781f5c-ddd2-4a20-9a02-ac3929bf88a3" d="M473.81,267.84c-6.11.14-7.26-1.05-6.86-6.59.14-1.9.49-3.79.74-5.69.14-1.05,0-2.23,1.74-2,2,.29.89,1.67.84,2.48-.16,2.32-.55,4.62-.85,6.92-.21,1.6.47,2.2,2.09,2.27,5.74.25,5.8.25,4.92-5.52-.24-1.56-.56-3.11-.87-4.65-.15-.73-.23-1.36.8-1.37.69,0,1.57-.41,1.78.74.64,3.43,1.58,6.83,1.24,10.36a2.93,2.93,0,0,1-2.72,2.8C475.5,267.79,474.33,267.81,473.81,267.84Z" transform="translate(-329.33 -201.07)"/><path class="728a5342-fce3-4673-b4bf-4f5c38b2eef4" d="M404.8,260.39c0-1.66.1-3.33,0-5-.11-1.33.14-2,1.64-2,1.74,0,3.49-.14,5.23-.25.94-.06,1.56.07,1.65,1.25s-.52,1.37-1.47,1.37-1.66.17-2.49.13c-1.51-.06-2,.52-1.85,2.07s.91,1.65,2.15,1.41c.89-.17,1.82-.13,2.73-.23s1.11.43,1.09,1.19.21,1.37-.83,1.45-2.31.32-3.47.33-1.28.61-1.28,1.58c0,1.14.65,1.17,1.46,1.07,1.07-.13,2.15-.22,3.2-.45s1.31,0,1.57.95,0,1.57-1,1.76l-.49.11c-2.35.41-5.38,1.65-6.85,0-1.22-1.4-.56-4.44-.73-6.76Z" transform="translate(-329.33 -201.07)"/><path class="728a5342-fce3-4673-b4bf-4f5c38b2eef4" d="M422.7,269.25c-4.09,0-6.45-1.43-7.66-4.66a7.16,7.16,0,0,1,9.93-9c.68.38,2,.63,1.57,1.74s-1.37,1.57-2.77.69c-1.8-1.14-3.68-.71-5.26.73a4.06,4.06,0,0,0-1.08,4.56,4.52,4.52,0,0,0,4.19,3.35A11.21,11.21,0,0,0,426,266c1.08-.33,1.57-.32,2,.92.52,1.56-.64,1.47-1.38,1.67A12.14,12.14,0,0,1,422.7,269.25Z" transform="translate(-329.33 -201.07)"/><path class="728a5342-fce3-4673-b4bf-4f5c38b2eef4" d="M443.21,292q-5.39-.05-7.1-4.78a7,7,0,0,1,1.93-7.93,7.13,7.13,0,0,1,8.11-1c.66.38,2,.63,1.43,1.82-.48,1-1.27,1.5-2.62.63a4.18,4.18,0,0,0-5.28.58,4.11,4.11,0,0,0-1.13,4.77,4.29,4.29,0,0,0,4.26,3.19,11.48,11.48,0,0,0,4.41-.6c1.14-.43,1.56,0,1.92,1.08.47,1.42-.56,1.26-1.28,1.5A18,18,0,0,1,443.21,292Z" transform="translate(-329.33 -201.07)"/><path class="34781f5c-ddd2-4a20-9a02-ac3929bf88a3" d="M385.43,269.25c-4.18,0-6.52-1.49-7.7-4.91a6.88,6.88,0,0,1,2.49-8.18,7,7,0,0,1,8.15-.23c.43.3,1.26.55,1,1.2a3.41,3.41,0,0,1-1.35,1.38c-.51.34-.88-.27-1.29-.48a4.5,4.5,0,0,0-5.51.72,4.07,4.07,0,0,0-1,4.78,4.39,4.39,0,0,0,4.6,3.1,13.28,13.28,0,0,0,3.91-.6c1.13-.38,1.58-.2,2,.91.56,1.51-.61,1.5-1.39,1.69A12.54,12.54,0,0,1,385.43,269.25Z" transform="translate(-329.33 -201.07)"/><path class="728a5342-fce3-4673-b4bf-4f5c38b2eef4" d="M407.9,277.28a15.82,15.82,0,0,1-1.92,1.78c-2.28,1.49-2.94,3.55-2.54,6.15.21,1.39.18,2.81.31,4.22.1,1,0,1.73-1.34,1.76-1.18,0-1.42-.52-1.41-1.48,0-.5-.11-1-.06-1.49.5-4.46-.51-8.13-5.06-10.06-.94-.4-1.11-1-.41-1.91s1.23-.94,2-.24a5.44,5.44,0,0,0,.6.44c1.22.85,2.38,2.26,3.68,2.4s2.2-1.75,3.38-2.62c.44-.32.81-1,1.46-.46A13.58,13.58,0,0,1,407.9,277.28Z" transform="translate(-329.33 -201.07)"/><path class="728a5342-fce3-4673-b4bf-4f5c38b2eef4" d="M482.91,257.25c-1.13.11-2,.5-2.15-1-.1-1.37.55-1.43,1.57-1.53,2.48-.24,4.94-.59,7.41-.9,1-.12,1.71-.2,1.87,1.19s-.53,1.45-1.41,1.4c-2.66-.16-3.09,1.25-2.76,3.51.3,2,.32,4.14.46,6.21.07,1,.24,2-1.34,2s-1.21-1-1.27-1.82c-.17-2.32-.39-4.64-.43-7C484.85,257.75,484.62,256.66,482.91,257.25Z" transform="translate(-329.33 -201.07)"/><path class="728a5342-fce3-4673-b4bf-4f5c38b2eef4" d="M430.75,281.79q-.14-1.73-.29-3.46c-.07-.86-.16-1.63,1.14-1.67,1,0,1.49.25,1.56,1.32.25,3.88.52,7.76.86,11.64.11,1.23-.57,1.32-1.46,1.45-1.15.16-1.15-.57-1.22-1.36-.2-2.64-.44-5.28-.66-7.91Z" transform="translate(-329.33 -201.07)"/><path class="199f3ed6-a85a-4730-b214-329ac536bca6" d="M467.43,289.64c.24,1-.28,1.09-1.07,1.15-1.23.1-1.52-.49-1.63-1.57s.38-1,1.13-1.09C467.05,288,467.57,288.5,467.43,289.64Z" transform="translate(-329.33 -201.07)"/><path class="ce52c273-5bcf-4f9b-bb93-a547c7dc916b" d="M465.34,382c-.12,1.83-1.34,1.76-2.61,1.73-2.66-.06-5.34-.2-8,0-1.64.13-2.11-.36-2.41-1.89-4-20.26,9.67-34.35,24.53-37.56,9-2,18.16-2,26.72,1.77,18.11,8.06,23.59,27.85,12.91,45.24-6.5,10.58-16.55,14.95-28.28,16.37-9.72,1.17-18.56-1-25.85-7.84a34.79,34.79,0,0,1-8.77-13.48c-.18-.49-.83-1.27.13-1.61s1.2.23,1.43,1.12c.83,3.3,2.3,4.56,5,4.51,2.31,0,3.66-1.35,4.49-4.51C465,384.68,467.35,384,465.34,382Zm28.59,9.71h0c-5,.08-10.06-.23-15.06.41-9.2.3-9.2.3-10.17,1.51,8.71-.39,17.42-.76,26.15,0v-1.92c.07-.41.13-.9-.44-.91S493.92,391.36,493.93,391.75Zm-3.13-8c-4.49-.82-8.9-.51-13.44-.15,1.38.57,1.5,1.74,1.93,2.82.75,1.88,2.12,3.22,4.31,3.14s4-1,4.54-3.18C488.51,384.71,489,383.85,490.8,383.71Z" transform="translate(-329.33 -201.07)"/><path class="e3d6c349-a3d4-4a75-b5cc-c7da86303aaa" d="M515,451.88a23.12,23.12,0,0,1-12,3.73,91,91,0,0,1-28.47-2.33c-1.53-.39-1.77-1.14-1.68-2.46.57-7.89.69-15.78.57-23.69-.08-5.16-.61-10.29-1.14-15.41-.15-1.41.09-1.79,1.52-1.45,13.41,3.24,25.68.57,37-7.14a7.11,7.11,0,0,1,1-.41c.43,15.74.65,31.31.65,46.88l.37.65,0,.05.47.44,1.51.28Z" transform="translate(-329.33 -201.07)"/><path class="1f065093-7168-4db5-a9a2-dbf093c6b973" d="M515,451.88l-.15-.87c1.62-.74,1.58-2.18,1.5-3.62-.51-9.32-.36-18.65-.45-28a14.45,14.45,0,0,1,.15-2.66c1.37,4,1.5,8.13,1.73,12.23a119.3,119.3,0,0,1-.89,20.68C516.74,450.94,516.24,451.67,515,451.88Z" transform="translate(-329.33 -201.07)"/><path class="1f065093-7168-4db5-a9a2-dbf093c6b973" d="M512.82,450.24l-.37-.65Z" transform="translate(-329.33 -201.07)"/><path class="1f065093-7168-4db5-a9a2-dbf093c6b973" d="M513.33,450.74l-.47-.44Z" transform="translate(-329.33 -201.07)"/><path class="ce52c273-5bcf-4f9b-bb93-a547c7dc916b" d="M425.19,359.9c-1.84-.08-3.08-2-5.35-1.74a7.58,7.58,0,0,0,4.91,3.24,3.59,3.59,0,0,1,3.05,3.08c4.82,19.41-6.34,39.7-26.16,42-25,2.85-43.8-13.27-42.68-37,.58-12.17,7.86-20.61,18.86-24.78,12-4.57,24.36-4.15,35.88,2.47a27.49,27.49,0,0,1,11.74,12.52Zm-28.82,10.72c1.18,2.78,2.55,0,3.77,0s-.27-.83-.23-1.34c1.41-.77,3.42-.95,3.66-3.7-2.34,2-4.46,3.29-7,3.64-1.48.21-1.48.18-2.17,1.76Zm27.2,1,1.18,0c-.43-.69-.38-1.88-1.58-1.81-3.07.16-5.17-1.65-7.34-3.72-.4,2.65,1.66,2.92,3,3.77-.22.75-1.12,1.39.65,1.85C421,372,422.23,371.55,423.57,371.6Zm-9.83,6.74a5.67,5.67,0,0,0-2.51-.59c-4.46-.74-8.94-.38-13.41-.33-4.89.06-5.1.27-4.37,5.25,0,.33.19.64.24,1a2.6,2.6,0,0,0,3.06,2.5c4.56-.2,9.12-.33,13.68-.44.89,0,1.13-.26,1-1.15C411,382.06,412.08,380.08,413.74,378.34Zm-13-22.06c-2.85,2.19-6.21,3.26-9.7,4.67A8.76,8.76,0,0,0,400.7,356.28Z" transform="translate(-329.33 -201.07)"/><path class="1bdf8b31-efe4-4556-b1c3-948db2fe3c5c" d="M415.82,436.73c.87,3.47,1.66,7,2.63,10.4.36,1.27.22,2-1.06,2.5a84.41,84.41,0,0,1-32.21,7c-3.11,0-6-1-9-2-1.28-.42-1.47-1.43-1.79-2.46-3.9-12.49-6.12-25.21-5.16-38.35.28-3.81-.07-7.66.6-11.4.51-.32.81,0,1.16.22,12.14,7.67,25,9.9,38.85,5.31,1-.34,1.76-.59,1.84.89.38,7.33,1.69,14.54,2.71,21.79l.33.73.05.72-.54.39c-1.5-1.6-3.29-1.41-5-.63a20.33,20.33,0,0,0-9.33,8.82.84.84,0,0,0-.18.1s0,.08,0,.13l.15-.26c1.4.08,2.19-1,3.17-1.7a29.57,29.57,0,0,1,7.36-4.06c1.29-.42,1.66,0,1.6,1.23a7.81,7.81,0,0,1-1.45,3.92c-1.51,2.28-3.07,4.53-4.59,6.8-.28.42-.5,1,0,1.35s.72-.07,1-.39c2.81-3.78,6.14-7.19,8.08-11.58Zm-13.08,4.87a4.9,4.9,0,0,0-4.23,3.15A7.78,7.78,0,0,0,402.74,441.61Z" transform="translate(-329.33 -201.07)"/><path class="7094293c-b3d6-4f6f-a86d-53cb6fd815cf" d="M415.82,436.73l-.87-.49,0-3.05,0,0A6.55,6.55,0,0,1,415.82,436.73Z" transform="translate(-329.33 -201.07)"/><path class="7094293c-b3d6-4f6f-a86d-53cb6fd815cf" d="M414.79,432.13l.1,1.08,0,0c-.71.27-.51-.37-.66-.66Z" transform="translate(-329.33 -201.07)"/><path class="ce52c273-5bcf-4f9b-bb93-a547c7dc916b" d="M425.44,359.66a3.4,3.4,0,0,1,.31.28c-.2.28-.39.18-.56,0Z" transform="translate(-329.33 -201.07)"/><path class="7094293c-b3d6-4f6f-a86d-53cb6fd815cf" d="M414.74,431.42l-.33-.73C414.73,430.83,414.9,431.05,414.74,431.42Z" transform="translate(-329.33 -201.07)"/><path class="afce12de-119d-479d-874b-3162e2ac8ecc" d="M458.31,256.11a4.27,4.27,0,0,1,4.31,4.7,6.09,6.09,0,0,1-6.16,5.58,4.15,4.15,0,0,1-4.33-4.4A6.25,6.25,0,0,1,458.31,256.11Z" transform="translate(-329.33 -201.07)"/><path class="d95d4b1e-d240-4c15-86db-b076f2a9c261" d="M419.47,281c-.43-1.73.36-2.09,2-1.53a7.54,7.54,0,0,1,3.82,2.65c1,1.43,1.57,3,.42,4.61s-3.08,1.81-4.93,1.86c-.85,0-.78-.69-.83-1.26C419.78,285.26,419.63,283.19,419.47,281Z" transform="translate(-329.33 -201.07)"/><path class="11ba1e41-891a-458d-809e-b050abf00f41" d="M490.8,383.71c-1.76.15-2.29,1-2.66,2.62-.5,2.15-2.39,3.1-4.54,3.18s-3.56-1.26-4.31-3.14c-.43-1.07-.55-2.25-1.93-2.82C481.9,383.19,486.3,382.89,490.8,383.71Z" transform="translate(-329.33 -201.07)"/><path class="34781f5c-ddd2-4a20-9a02-ac3929bf88a3" d="M494.84,391.76v1.92c-8.73-.77-17.44-.39-26.15,0,1-1.21,1-1.21,10.17-1.51,3.52,0,7.05.12,10.57,0,1.49,0,3.08.58,4.49-.43h.92Z" transform="translate(-329.33 -201.07)"/><path class="dbd66689-e73f-49db-bde4-3a9f76d6e4cb" d="M493.92,391.76c-1.41,1-3,.39-4.49.43-3.52.09-7,0-10.57,0C483.87,391.53,488.9,391.84,493.92,391.76Z" transform="translate(-329.33 -201.07)"/><path class="dbd66689-e73f-49db-bde4-3a9f76d6e4cb" d="M494.84,391.76h-.91c0-.4-.11-.91.48-.9S494.91,391.35,494.84,391.76Z" transform="translate(-329.33 -201.07)"/><path class="11ba1e41-891a-458d-809e-b050abf00f41" d="M413.74,378.34c-1.66,1.74-2.74,3.72-2.33,6.19.15.89-.1,1.13-1,1.15-4.56.11-9.12.24-13.68.44a2.6,2.6,0,0,1-3.06-2.5c0-.33-.19-.64-.24-1-.73-5-.51-5.19,4.37-5.25,4.48-.06,9-.41,13.41.33A5.67,5.67,0,0,1,413.74,378.34Z" transform="translate(-329.33 -201.07)"/><path class="728a5342-fce3-4673-b4bf-4f5c38b2eef4" d="M400.7,356.28A8.76,8.76,0,0,1,391,361C394.49,359.54,397.86,358.47,400.7,356.28Z" transform="translate(-329.33 -201.07)"/><path class="449ac464-15db-49c3-88af-e5863fe601f5" d="M418.86,369.78c-1.38-.85-3.43-1.12-3-3.77,2.18,2.07,4.27,3.89,7.34,3.72,1.2-.06,1.15,1.12,1.58,1.81l-1.18,0C422,371,420.58,370,418.86,369.78Z" transform="translate(-329.33 -201.07)"/><path class="449ac464-15db-49c3-88af-e5863fe601f5" d="M396.37,370.62l-2,.34c.68-1.58.69-1.55,2.17-1.76,2.54-.36,4.66-1.63,7-3.64-.25,2.75-2.25,2.93-3.66,3.7C398.56,369.25,397.51,370.07,396.37,370.62Z" transform="translate(-329.33 -201.07)"/><path class="fd5d7906-15e4-462e-a389-cf34cffc0763" d="M418.86,369.78c1.72.21,3.14,1.2,4.71,1.82-1.34,0-2.57.41-4.06,0C417.74,371.16,418.64,370.53,418.86,369.78Z" transform="translate(-329.33 -201.07)"/><path class="fd5d7906-15e4-462e-a389-cf34cffc0763" d="M396.37,370.62c1.15-.55,2.19-1.37,3.54-1.37,0,.51,1.38,1.29.23,1.34S397.55,373.41,396.37,370.62Z" transform="translate(-329.33 -201.07)"/><path class="34781f5c-ddd2-4a20-9a02-ac3929bf88a3" d="M414.25,432.53c.14.3-.06.93.66.66l0,3.05c-1.94,4.39-5.26,7.81-8.08,11.58-.24.32-.52.77-1,.39s-.25-.93,0-1.35c1.52-2.27,3.08-4.52,4.59-6.8a7.81,7.81,0,0,0,1.45-3.92c.06-1.19-.31-1.65-1.6-1.23A29.57,29.57,0,0,0,403,439c-1,.67-1.77,1.79-3.17,1.7l0,0a20.34,20.34,0,0,1,9.33-8.82C411,431.12,412.76,430.93,414.25,432.53Z" transform="translate(-329.33 -201.07)"/><path class="449ac464-15db-49c3-88af-e5863fe601f5" d="M402.74,441.61a7.78,7.78,0,0,1-4.23,3.15A4.9,4.9,0,0,1,402.74,441.61Z" transform="translate(-329.33 -201.07)"/><path class="34781f5c-ddd2-4a20-9a02-ac3929bf88a3" d="M399.86,440.68l-.15.26s0-.11,0-.13a.84.84,0,0,1,.18-.1Z" transform="translate(-329.33 -201.07)"/></svg>