<svg id="9f36aa8a-56a2-458d-9078-7b6a40bc1a95" data-name="Capa 1" xmlns="http://www.w3.org/2000/svg" viewBox="0 0 213.59 309.58"><defs><style>.a2502b7d-a830-4e5e-a319-d0f962cb7455{fill:#070707;}.\31 77f6e31-147b-47cb-9337-d2834bfda04c{fill:#fefefe;}.f93b40b6-1958-4731-9e3b-1a30a3f3a71d{fill:#141512;}.\31 dd108ea-e12f-4ac0-b131-3175e61ff816{fill:#161615;}.\34 eca3c63-d308-4012-b8e1-febaf2a7b83f{fill:#202021;}.\39 368953f-7c82-4a3d-a2d8-564aac6b8914{fill:#4f4132;}.d59380e6-3ef8-4f91-a022-fe486e8bbb94{fill:#afafaf;}.d3dd7b1e-78f8-4c39-b80c-230b405acf1b{fill:#e6e6e6;}.\32 f0b9f36-b463-4c9b-9425-570585571695{fill:#f7cca0;}.\39 acf2810-5128-4e79-b1db-c8d818ec1333{fill:#509541;}.c0d23a97-633d-421f-8b4d-bf1a6972381e{fill:#96b5c7;}.\31 a15af9f-96b6-431e-8dd3-ca855d378ed2{fill:#f8f7f8;}.fdb5fdd7-e0ae-4d21-9287-56ec92def7db{fill:#f5f4f4;}.ec447c05-cdb7-45a3-b053-fae8725dba76{fill:#16110a;}.\32 c4b6711-9673-49f4-9d18-c6bb3eaf3d22{fill:#625343;}</style></defs><title>card-3</title><path class="a2502b7d-a830-4e5e-a319-d0f962cb7455" d="M527.58,297.51q0,71.62,0,143.23c0,.92,0,1.84,0,2.75-.38,5.63-3.74,8.81-9.4,8.81q-35.87,0-71.74,0H324.65c-7.28,0-10.65-3.36-10.65-10.71q0-144.23,0-288.46c0-6.86,3.35-10.31,10.28-10.34,16.75-.08,33.49-.06,50.24-.06q70.12,0,140.23,0a24.19,24.19,0,0,1,5.72.34c4.33,1,6.73,3.75,7.06,8.19.07,1,0,2,0,3Q527.58,225.9,527.58,297.51Zm-209.45,0q0,71.62,0,143.24c0,5.75,1.7,7.45,7.4,7.45H516.27c.67,0,1.34,0,2,0,2.69-.2,4.2-1.53,4.92-4.16a14.61,14.61,0,0,0,.28-4q0-142.74,0-285.48c0-6.07-1.59-7.66-7.7-7.71H327.29c-1.33,0-2.67,0-4,.11-3.35.34-4.69,1.68-5.1,5a22.91,22.91,0,0,0-.07,2.75Q318.12,226.14,318.13,297.51Z" transform="translate(-314 -142.74)"/><path class="177f6e31-147b-47cb-9337-d2834bfda04c" d="M318.13,297.51q0-71.37,0-142.74a22.91,22.91,0,0,1,.07-2.75c.41-3.36,1.75-4.7,5.1-5,1.32-.13,2.66-.11,4-.11H515.78c6.11.05,7.7,1.64,7.7,7.71q0,142.74,0,285.48a14.61,14.61,0,0,1-.28,4c-.72,2.63-2.23,4-4.92,4.16-.66,0-1.33,0-2,0H325.53c-5.71,0-7.4-1.7-7.4-7.45Q318.12,369.13,318.13,297.51Zm27.38,82.26c.48,3.71,1.17,7.41,1.37,11.14.18,3.45,1.34,5.89,4.81,6.91a1.47,1.47,0,0,1,1.18,2c-.94,4.39-1.68,8.82-2.64,13.2A153.31,153.31,0,0,1,345.05,431c-.44,1.25-.81,2.58.76,3.17s2.37-.6,2.78-2c.14-.48.32-.94.48-1.42a181.63,181.63,0,0,0,6.66-26.06c.26-1.47.07-3.39.93-4.3,1.06-1.12,2.83.34,4.34.33.17,0,.33,0,.5,0a87.52,87.52,0,0,0,26.27-2.14c1.68-.42,1.75.15,1.85,1.43.43,5.48,1,10.94,1.38,16.42.35,5,.55,10,.78,15,.06,1.33.42,2.4,2,2.3s1.81-1.24,1.75-2.53q0-.5,0-1c-.44-10.48-1-20.95-2.26-31.37-.15-1.24.2-1.73,1.38-2.13,4-1.35,3.88-1.4,3.29-5.48-.57-3.91-1-7.84-1.46-11.89,1.71.16,3.25,1.55,4.34-.37.82-1.44-.55-2-1.28-2.88a41.69,41.69,0,0,0,4.63-5.27c4.6-6.54,4.78-13.55.5-20.31a22,22,0,0,0-3.9-4.84c-1.35-1.19-1.53-1.86-.12-3.38,9.84-10.53,12.93-23.1,9-36.76-3-10.58-10.69-17.92-21-21.64-11.7-4.24-23.78-4.55-35.21,1-12.54,6.06-19.34,16.18-19,30.47.21,9.19,3.74,17.13,9.57,24.09a3.47,3.47,0,0,1,.85,3.36c-3.36,15.2-4.05,30.65-4.27,46.15,0,1.4.28,2.58,2,2.56s1.77-1.2,1.8-2.46c.06-2.91.15-5.82.23-8.73Zm107.05-6.48c1,1.24,0,2.76.55,4.07a135.38,135.38,0,0,1-1.17,16.43c-.29,2.44.48,3.65,2.8,3.94,1.59.2,2,1,1.8,2.53-.36,2.55-.57,5.13-.78,7.7-.65,7.72-1.19,15.44-1.29,23.19,0,1.4.24,2.62,1.94,2.56,1.54-.06,1.71-1.26,1.72-2.53,0-2,.14-4,.21-6,.28-7.91,1-15.78,1.7-23.66.18-2,.75-2.48,2.73-1.92a35.31,35.31,0,0,0,6.16.89c7.65.73,15.29.91,22.83-.83,1.54-.36,1.6.15,1.77,1.31a141.75,141.75,0,0,0,4,18.76c1.23,4.23,2.65,8.4,4,12.6.42,1.36,1.15,2.38,2.68,1.83s1.26-1.92.81-3.16c-.08-.23-.21-.45-.29-.69a180.51,180.51,0,0,1-7.54-30.18c-.19-1.16-.64-2.46,1.16-3,3.43-1.09,5.06-3.51,5-7.13a22.57,22.57,0,0,1,.32-3q.47-4.38.93-8.76c1.18,3.44.9,7,1.28,10.4.14,1.28.31,2.41,1.9,2.33s1.91-1.28,1.81-2.68c-.17-2.41-.28-4.82-.45-7.23-.89-12.45-1.7-25-5.5-36.93-1.33-4.18-1.82-7.67,1.37-11a3.81,3.81,0,0,0,.48-.87c8.2-15.41,5.29-33-7.73-42.77-14.34-10.73-30-10.64-45.76-3.49a30.73,30.73,0,0,0-17.31,20c-4.52,16.09,1.2,31.68,14.29,41.07.68.49,1.25.86,1.23,1.93-.13,8.41-.51,16.81-1.38,25.18-.45,4.3-1.07,8.58-1.63,12.87-.16,1.2.07,2.29,1.36,2.56s2.14-.58,2.36-1.92c.05-.33.12-.65.16-1Q451.77,380,452.56,373.29ZM412.29,213.65c-1.93.25-3.91.5-5.89.76-.83.11-1.37.38-1.14,1.46s.54,1.26,1.5,1,1.82-.2,2.72-.31c.69-.09,1.54-.55,1.54.76,0,.88.33,1.91-1,2.09a23.52,23.52,0,0,1-3.21.36,4.56,4.56,0,0,1-4.72-4.72,4.27,4.27,0,0,1,4.63-4.17c1.33.05,2-.35,2-1.48.05-1.33-1.19-1.07-2-1.12a7,7,0,0,0-.79,14,20.16,20.16,0,0,0,5.91-.73c1.47-.34,2.15-.92,1.85-2.55-.17-.93-.63-2.16.13-2.85a1.73,1.73,0,0,0,.45-2.19C413.89,212.94,413,213.79,412.29,213.65Zm9.7,24.94a1.08,1.08,0,0,0-1-1.28c-1-.22-1.44.48-1.69,1.38-3.12,11.46-9,21.51-15.89,31.06-.58.81-1.78,1.73-.34,2.68,1.27.84,1.74-.54,2.27-1.25a120.23,120.23,0,0,0,11-17.75A76.77,76.77,0,0,0,422,238.59Zm1.54-21.81c1-.58,1.42-.81,1.82-1.09,1.59-1.09,2.78-2.37,2.4-4.53s-1.93-3.18-3.91-3.67a25.12,25.12,0,0,0-6.22-.22c-1.26,0-1.24.78-1.16,1.68q.5,5.47,1,10.94c.06.72.13,1.38,1.12,1.17.69-.15,1.63,0,1.42-1.21-.26-1.48.68-1.19,1.49-1q2.66.67,5.29,1.42c.91.26,1.37,0,1.64-1s-.14-1.36-1-1.56C426.26,217.53,425.16,217.21,423.53,216.78Zm30.35,5a29,29,0,0,0,3.43-.59c4.68-1.38,6.13-6,3.08-9.83a9.6,9.6,0,0,0-8.8-3.68c-1.4.11-1.61.62-1.48,1.84.34,3.14.77,6.29.81,9.44C450.95,221.14,451.74,222,453.88,221.74Zm-54.53-1.29c-.07-.24-.15-.48-.2-.72-.56-3-1.87-5.84-2.55-8.82-.6-2.57-1.68-3.15-4.26-2.53-2.05.49-2.88,1.25-3.08,3.32-.26,2.71-.92,5.39-1.33,8.09-.11.71-1.13,1.75.6,2.08,1.45.28,1.76-.58,1.83-1.62a2.13,2.13,0,0,1,2-2.33c3.34-.63,3.33-.71,4.47,2.66a3.69,3.69,0,0,1,.13.48c.21,1.05,1,.66,1.57.57S399.59,221.24,399.35,220.46Zm33.92.31a13.56,13.56,0,0,0,4.32-.49c.85-.17,1.6-.28,1.43-1.53-.21-1.45-1.1-1.15-2-1s-1.64.29-2.46.39-1.46.12-1.53-1,.17-1.6,1.28-1.6a2.44,2.44,0,0,0,1-.14c1-.47,3.08.86,3-1.32,0-2.52-2.12-.87-3.25-1.2a.56.56,0,0,0-.25,0c-1.17.23-2,.27-2.17-1.39-.21-1.86.8-1.81,2-1.83.75,0,1.49-.15,2.24-.15,1,0,1.21-.53,1.19-1.43,0-1.1-.63-1.16-1.48-1.1-1.66.11-3.32.26-5,.22-1.33,0-1.74.41-1.64,1.73.25,3.06.51,6.14.52,9.21C430.53,220.28,431.15,221.31,433.27,220.77Zm7.18-9.66c.15,1.91.34,3.82.46,5.73.27,4.43.26,4.44,4.73,3.9.17,0,.37,0,.49-.08,1-.72,3.37.39,3.08-1.81-.34-2.63-2.33-.59-3.55-.82-.83-.16-2,.82-2.3-.9s1-1.39,2-1.76c1.11-.46,3.54,1.1,3.2-1.59-.29-2.25-2.23-.72-3.4-.86-1-.12-2.07.55-2.14-1.34-.06-1.64.53-2,2-1.93.82.05,1.66-.14,2.49-.16s1.07-.53,1-1.31-.24-1.29-1.16-1.22c-1.08.09-2.16.16-3.24.2C440.35,207.3,440.35,207.3,440.45,211.12Zm26,7.56c-.56.09-1.44-.26-1.33.85.09.87.08,1.89,1.44,1.74.6-.07,1.47.19,1.34-.87C467.76,219.57,467.83,218.46,466.41,218.67Z" transform="translate(-314 -142.74)"/><path class="f93b40b6-1958-4731-9e3b-1a30a3f3a71d" d="M452.56,373.29q-.79,6.69-1.58,13.39c0,.33-.11.66-.16,1-.22,1.34-.94,2.23-2.36,1.92s-1.52-1.36-1.36-2.56c.56-4.29,1.18-8.57,1.63-12.87.87-8.37,1.25-16.77,1.38-25.18,0-1.06-.55-1.44-1.23-1.93-13.1-9.38-18.82-25-14.29-41.07a30.73,30.73,0,0,1,17.31-20c15.74-7.15,31.42-7.24,45.76,3.49,13,9.74,15.93,27.36,7.73,42.77a3.81,3.81,0,0,1-.48.87c-3.2,3.35-2.7,6.84-1.37,11,3.8,12,4.62,24.47,5.5,36.93.17,2.41.28,4.82.45,7.23.1,1.4-.13,2.59-1.81,2.68s-1.76-1-1.9-2.33c-.38-3.45-.09-7-1.28-10.4q-.46,4.38-.93,8.76a22.57,22.57,0,0,0-.32,3c.1,3.62-1.53,6-5,7.13-1.8.57-1.35,1.87-1.16,3a180.51,180.51,0,0,0,7.54,30.18c.08.24.21.46.29.69.45,1.24.79,2.58-.81,3.16s-2.25-.47-2.68-1.83c-1.3-4.2-2.73-8.37-4-12.6a141.75,141.75,0,0,1-4-18.76c-.17-1.15-.23-1.66-1.77-1.31-7.54,1.74-15.19,1.56-22.83.83a35.31,35.31,0,0,1-6.16-.89c-2-.56-2.55-.12-2.73,1.92-.7,7.88-1.42,15.75-1.7,23.66-.07,2-.19,4-.21,6,0,1.27-.18,2.47-1.72,2.53-1.69.06-2-1.16-1.94-2.56.1-7.75.64-15.47,1.29-23.19.22-2.57.42-5.15.78-7.7.22-1.55-.2-2.34-1.8-2.53-2.32-.29-3.09-1.49-2.8-3.94a135.38,135.38,0,0,0,1.17-16.43c.78-3.42.32-6.88.26-10.33A16.55,16.55,0,0,0,452.56,373.29Zm-15.4-63.45-.17,1.35c-.05.66-.08,1.33-.16,2-1.67,12.49,5.37,26.45,16.35,32.43,7,3.83,14.55,4.46,22.29,3.15,11.65-2,21.1-7.19,26.79-18.13,8.11-15.58,4.17-32-10.09-40.8-8.11-5-17-5.65-26.26-4.56C451.36,287,440.77,296,437.15,309.84Zm59.78,33.63c-.42.24-.71.38-1,.56-11.68,8.29-24.45,10.83-38.35,7.21-2-.53-1.59.7-1.47,1.69,1.52,13.22.87,26.42-.48,39.6-.13,1.25.2,1.83,1.4,2.13a92.19,92.19,0,0,0,28.23,2.47,28.57,28.57,0,0,0,12.33-3.65,3.3,3.3,0,0,0,1.94-2.9c.31-4.14.89-8.27,1.23-12.41C501.75,366.41,499.45,355,496.93,343.47Z" transform="translate(-314 -142.74)"/><path class="1dd108ea-e12f-4ac0-b131-3175e61ff816" d="M344.56,380.27c-.08,2.91-.17,5.82-.23,8.73,0,1.26-.23,2.44-1.8,2.46s-2-1.16-2-2.56c.22-15.49.91-30.95,4.27-46.15a3.47,3.47,0,0,0-.85-3.36c-5.83-7-9.36-14.9-9.57-24.09-.33-14.29,6.47-24.41,19-30.47,11.43-5.52,23.51-5.21,35.21-1,10.27,3.72,18,11.06,21,21.64,3.89,13.66.81,26.23-9,36.76-1.42,1.52-1.23,2.19.12,3.38a22,22,0,0,1,3.9,4.84c4.28,6.75,4.11,13.77-.5,20.31a41.69,41.69,0,0,1-4.63,5.27c.72.85,2.09,1.45,1.28,2.88-1.09,1.93-2.63.54-4.34.37.49,4,.9,8,1.46,11.89.59,4.08.68,4.13-3.29,5.48-1.19.4-1.53.89-1.38,2.13,1.23,10.42,1.82,20.89,2.26,31.37q0,.5,0,1c.06,1.29-.26,2.43-1.75,2.53s-1.89-1-2-2.3c-.23-5-.43-10-.78-15-.39-5.48-1-10.94-1.38-16.42-.1-1.28-.17-1.86-1.85-1.43a87.52,87.52,0,0,1-26.27,2.14c-.17,0-.33,0-.5,0-1.5,0-3.27-1.46-4.34-.33-.86.91-.67,2.83-.93,4.3a181.63,181.63,0,0,1-6.66,26.06c-.16.47-.34.94-.48,1.42-.41,1.41-1.08,2.64-2.78,2s-1.2-1.91-.76-3.17A153.31,153.31,0,0,0,350.23,413c1-4.38,1.7-8.81,2.64-13.2a1.47,1.47,0,0,0-1.18-2c-3.47-1-4.63-3.46-4.81-6.91-.2-3.73-.89-7.43-1.37-11.14l-.08-3a10.87,10.87,0,0,0-.83-5.38v4.39Zm27.38-95.73a46.4,46.4,0,0,0-8.93.75c-17,3.18-27.86,18.42-24.6,34.61C343,342.57,362,351,380.89,348.56c23.17-3,34.75-32.25,20.64-50.83C394.12,288,383.77,284.52,371.94,284.54ZM367.26,397.4a83.81,83.81,0,0,0,25.13-3.55c1.84-.54,2.27-1.31,2-3.14a177.25,177.25,0,0,1-1.9-19.88c-.22-6.66-.51-13.31-.7-20,0-1.49-.34-2-1.86-1.24a23.21,23.21,0,0,1-4.7,1.64,44.76,44.76,0,0,1-34.06-5.65c-1.14-.69-1.92-1.4-2.07.8-1.06,15.25-1,30.46,1.39,45.6a2.89,2.89,0,0,0,1.82,2.36A27.84,27.84,0,0,0,367.26,397.4Zm28.87-23.55c3.54-2.65,6.48-6.73,7.38-10.19,1.4-5.38-2.08-13.94-6.9-16.88-1.35-.82-1.56,0-1.53,1.15.07,2.5.06,5,.21,7.49C395.66,361.54,395.25,367.69,396.12,373.86Z" transform="translate(-314 -142.74)"/><path class="4eca3c63-d308-4012-b8e1-febaf2a7b83f" d="M412.29,213.65c.72.13,1.6-.72,2,.34a1.73,1.73,0,0,1-.45,2.19c-.76.7-.3,1.93-.13,2.85.3,1.63-.39,2.22-1.85,2.55a20.16,20.16,0,0,1-5.91.73,7,7,0,0,1,.79-14c.77,0,2-.21,2,1.12,0,1.13-.69,1.53-2,1.48a4.27,4.27,0,0,0-4.63,4.17,4.56,4.56,0,0,0,4.72,4.72,23.52,23.52,0,0,0,3.21-.36c1.37-.18,1-1.21,1-2.09,0-1.32-.85-.85-1.54-.76-.91.11-1.84.12-2.72.31s-1.3-.1-1.5-1,.31-1.34,1.14-1.46C408.38,214.15,410.36,213.9,412.29,213.65Z" transform="translate(-314 -142.74)"/><path class="4eca3c63-d308-4012-b8e1-febaf2a7b83f" d="M422,238.59a76.77,76.77,0,0,1-5.62,14.84,120.23,120.23,0,0,1-11,17.75c-.52.71-1,2.09-2.27,1.25-1.44-1-.24-1.88.34-2.68,6.87-9.55,12.77-19.59,15.89-31.06.25-.9.64-1.6,1.69-1.38A1.08,1.08,0,0,1,422,238.59Z" transform="translate(-314 -142.74)"/><path class="4eca3c63-d308-4012-b8e1-febaf2a7b83f" d="M423.53,216.78c1.63.43,2.73.75,3.85,1,.88.2,1.31.57,1,1.56s-.73,1.21-1.64,1q-2.64-.74-5.29-1.42c-.81-.2-1.75-.5-1.49,1,.2,1.18-.74,1.07-1.42,1.21-1,.21-1.06-.45-1.12-1.17q-.47-5.47-1-10.94c-.08-.9-.1-1.67,1.16-1.68a25.12,25.12,0,0,1,6.22.22c2,.48,3.52,1.44,3.91,3.67s-.81,3.44-2.4,4.53C424.94,216,424.51,216.19,423.53,216.78Zm-2.44-7.09c-.42.59-2.34-.81-1.94,1.25.28,1.44-.72,3.54,1.16,4.22,1.38.5,5.24-2.33,5-3.33C424.82,209.72,423,209.84,421.09,209.69Z" transform="translate(-314 -142.74)"/><path class="4eca3c63-d308-4012-b8e1-febaf2a7b83f" d="M453.88,221.74c-2.14.22-2.93-.6-3-2.83,0-3.15-.46-6.3-.81-9.44-.13-1.22.07-1.73,1.48-1.84a9.6,9.6,0,0,1,8.8,3.68c3,3.82,1.6,8.46-3.08,9.83A29,29,0,0,1,453.88,221.74ZM453,213c.16,1.59.4,3.15.44,4.72,0,1.3.65,1.52,1.74,1.32,1.84-.34,3.78-.69,4.16-2.89.4-2.35-1.08-3.87-2.92-5-.91-.58-2-1.27-3-.78S453.26,212.13,453,213Z" transform="translate(-314 -142.74)"/><path class="4eca3c63-d308-4012-b8e1-febaf2a7b83f" d="M399.35,220.46c.24.78-.22,1.08-.86,1.17s-1.36.48-1.57-.57a3.69,3.69,0,0,0-.13-.48c-1.15-3.37-1.13-3.28-4.47-2.66a2.13,2.13,0,0,0-2,2.33c-.08,1-.38,1.9-1.83,1.62-1.73-.33-.7-1.37-.6-2.08.41-2.7,1.06-5.37,1.33-8.09.2-2.07,1-2.83,3.08-3.32,2.58-.62,3.67,0,4.26,2.53.69,3,2,5.79,2.55,8.82C399.2,220,399.28,220.22,399.35,220.46Zm-8.19-4.88c.91-.12,1.61-.26,2.33-.3,1.27-.07,1.94-.49,1.18-1.84-.49-.86-.06-2.47-1.52-2.49-1.82,0-1.46,1.65-1.69,2.79C391.35,214.28,391.28,214.83,391.16,215.57Z" transform="translate(-314 -142.74)"/><path class="4eca3c63-d308-4012-b8e1-febaf2a7b83f" d="M433.27,220.77c-2.12.54-2.74-.49-2.74-2.63,0-3.07-.27-6.14-.52-9.21-.11-1.31.31-1.76,1.64-1.73,1.66,0,3.32-.1,5-.22.85-.06,1.45,0,1.48,1.1,0,.9-.17,1.43-1.19,1.43-.75,0-1.49.14-2.24.15-1.22,0-2.24,0-2,1.83.19,1.66,1,1.62,2.17,1.39a.56.56,0,0,1,.25,0c1.13.33,3.2-1.32,3.25,1.2,0,2.18-2,.85-3,1.32a2.44,2.44,0,0,1-1,.14c-1.11,0-1.34.59-1.28,1.6s.75,1.12,1.53,1,1.64-.26,2.46-.39,1.8-.45,2,1c.18,1.25-.57,1.36-1.43,1.53A13.56,13.56,0,0,1,433.27,220.77Z" transform="translate(-314 -142.74)"/><path class="4eca3c63-d308-4012-b8e1-febaf2a7b83f" d="M440.45,211.12c-.1-3.82-.1-3.81,3.62-3.94,1.08,0,2.16-.11,3.24-.2.92-.08,1.11.44,1.16,1.22s-.12,1.29-1,1.31-1.67.21-2.49.16c-1.44-.09-2,.29-2,1.93.07,1.88,1.13,1.22,2.14,1.34,1.17.14,3.11-1.39,3.4.86.34,2.69-2.08,1.13-3.2,1.59-.91.38-2.27,0-2,1.76s1.46.74,2.3.9c1.21.23,3.2-1.81,3.55.82.28,2.2-2.09,1.09-3.08,1.81-.12.09-.32.06-.49.08-4.47.54-4.46.53-4.73-3.9C440.79,214.93,440.61,213,440.45,211.12Z" transform="translate(-314 -142.74)"/><path class="9368953f-7c82-4a3d-a2d8-564aac6b8914" d="M466.41,218.67c1.42-.21,1.35.89,1.46,1.72.13,1.06-.74.8-1.34.87-1.36.15-1.35-.87-1.44-1.74C465,218.41,465.85,218.77,466.41,218.67Z" transform="translate(-314 -142.74)"/><path class="d59380e6-3ef8-4f91-a022-fe486e8bbb94" d="M452.56,373.29a16.55,16.55,0,0,1,.81-6.26c.06,3.45.52,6.91-.26,10.33C452.55,376.06,453.59,374.53,452.56,373.29Z" transform="translate(-314 -142.74)"/><path class="d3dd7b1e-78f8-4c39-b80c-230b405acf1b" d="M344.56,380.27l0-4.46.83,1,.08,3Z" transform="translate(-314 -142.74)"/><path class="2f0b9f36-b463-4c9b-9425-570585571695" d="M437.15,309.84c3.62-13.8,14.21-22.85,28.75-24.57,9.21-1.09,18.15-.46,26.26,4.56,14.26,8.82,18.2,25.22,10.09,40.8-5.69,10.93-15.14,16.15-26.79,18.13-7.74,1.31-15.25.68-22.29-3.15-11-6-18-19.94-16.35-32.43.09-.66.11-1.32.16-2a135.31,135.31,0,0,0,13.86-.39c-.79-1.11-1.74-.79-2.61-.81C444.54,309.91,440.85,309.88,437.15,309.84Zm26.32,6.63a4.7,4.7,0,0,0,4.32,4.86A4.93,4.93,0,0,0,473,316.4a4.79,4.79,0,0,0-4.7-4.59A4.59,4.59,0,0,0,463.48,316.47Zm-14.28.94a4.55,4.55,0,0,0-4.79-4.64,4.66,4.66,0,0,0-4.64,4.59,4.89,4.89,0,0,0,5.14,4.93A4.68,4.68,0,0,0,449.19,317.41Zm26.15-7.5c-4.14-1-8.35-.58-12.54-.55a.92.92,0,0,0-.7.54c-.07.53.42.67.83.67C467.06,310.51,471.21,310.91,475.34,309.91Zm-21.17,15.75c4.2,1.58,8.5.56,12.76.65C462.75,324.47,458.41,326.23,454.17,325.67Z" transform="translate(-314 -142.74)"/><path class="9acf2810-5128-4e79-b1db-c8d818ec1333" d="M496.93,343.47c2.51,11.53,4.82,22.94,3.85,34.7-.34,4.14-.92,8.26-1.23,12.41a3.3,3.3,0,0,1-1.94,2.9,28.57,28.57,0,0,1-12.33,3.65,92.19,92.19,0,0,1-28.23-2.47c-1.2-.3-1.53-.87-1.4-2.13,1.35-13.18,2-26.38.48-39.6-.11-1-.54-2.22,1.47-1.69,13.9,3.62,26.67,1.08,38.35-7.21C496.22,343.85,496.51,343.71,496.93,343.47Z" transform="translate(-314 -142.74)"/><path class="9368953f-7c82-4a3d-a2d8-564aac6b8914" d="M437.15,309.84c3.69,0,7.39.06,11.08.14.87,0,1.82-.3,2.61.81a135.31,135.31,0,0,1-13.86.39Z" transform="translate(-314 -142.74)"/><path class="2f0b9f36-b463-4c9b-9425-570585571695" d="M371.94,284.54c11.83,0,22.18,3.43,29.59,13.18,14.12,18.59,2.53,47.84-20.64,50.83C362,351,343,342.57,338.4,319.91c-3.26-16.2,7.64-31.44,24.6-34.61A46.18,46.18,0,0,1,371.94,284.54ZM392.39,324a42.09,42.09,0,0,0-16.17-.92,5.56,5.56,0,0,0-4.48,6.46c.21,1.32.95,1.94,2.25,1.71,4.89-.86,9.78-.49,14.68-.24.73,0,1.59.15,1.37-1.11A5.73,5.73,0,0,1,392.39,324ZM381,316.56a4.62,4.62,0,0,0-4.91-4.74,4.74,4.74,0,0,0-4.58,4.63,4.89,4.89,0,0,0,4.89,4.89A4.66,4.66,0,0,0,381,316.56Zm14.37.91a4.64,4.64,0,0,0,4.34,4.82,5,5,0,0,0,5.11-5,4.71,4.71,0,0,0-4.72-4.53A4.52,4.52,0,0,0,395.41,317.47Z" transform="translate(-314 -142.74)"/><path class="c0d23a97-633d-421f-8b4d-bf1a6972381e" d="M367.26,397.4a27.84,27.84,0,0,1-15-3,2.89,2.89,0,0,1-1.82-2.36c-2.42-15.15-2.45-30.35-1.39-45.6.15-2.2.93-1.48,2.07-.8a44.76,44.76,0,0,0,34.06,5.65,23.21,23.21,0,0,0,4.7-1.64c1.52-.71,1.82-.25,1.86,1.24.19,6.66.48,13.32.7,20a177.25,177.25,0,0,0,1.9,19.88c.27,1.83-.15,2.6-2,3.14A83.81,83.81,0,0,1,367.26,397.4Z" transform="translate(-314 -142.74)"/><path class="1a15af9f-96b6-431e-8dd3-ca855d378ed2" d="M396.12,373.86c-.87-6.17-.46-12.32-.84-18.43-.15-2.49-.14-5-.21-7.49,0-1.12.18-2,1.53-1.15,4.83,2.94,8.31,11.5,6.9,16.88C402.6,367.12,399.67,371.21,396.12,373.86Z" transform="translate(-314 -142.74)"/><path class="d59380e6-3ef8-4f91-a022-fe486e8bbb94" d="M345.43,376.79l-.83-1v-4.39A10.87,10.87,0,0,1,345.43,376.79Z" transform="translate(-314 -142.74)"/><path class="fdb5fdd7-e0ae-4d21-9287-56ec92def7db" d="M421.09,209.69c1.9.15,3.73,0,4.22,2.14.23,1-3.62,3.83-5,3.33-1.88-.68-.88-2.78-1.16-4.22C418.75,208.88,420.68,210.28,421.09,209.69Z" transform="translate(-314 -142.74)"/><path class="fdb5fdd7-e0ae-4d21-9287-56ec92def7db" d="M453,213c.25-.89-.6-2.15.42-2.67s2.09.2,3,.78c1.84,1.16,3.32,2.68,2.92,5-.38,2.19-2.32,2.55-4.16,2.89-1.09.2-1.71,0-1.74-1.32C453.4,216.17,453.17,214.61,453,213Z" transform="translate(-314 -142.74)"/><path class="d3dd7b1e-78f8-4c39-b80c-230b405acf1b" d="M391.16,215.57c.12-.74.19-1.29.3-1.84.23-1.14-.14-2.82,1.69-2.79,1.45,0,1,1.63,1.52,2.49.76,1.34.1,1.76-1.18,1.84C392.77,215.31,392.07,215.45,391.16,215.57Z" transform="translate(-314 -142.74)"/><path class="ec447c05-cdb7-45a3-b053-fae8725dba76" d="M463.48,316.47a4.59,4.59,0,0,1,4.8-4.66,4.79,4.79,0,0,1,4.7,4.59,4.93,4.93,0,0,1-5.17,4.93A4.7,4.7,0,0,1,463.48,316.47Z" transform="translate(-314 -142.74)"/><path class="ec447c05-cdb7-45a3-b053-fae8725dba76" d="M449.19,317.41a4.68,4.68,0,0,1-4.29,4.88,4.89,4.89,0,0,1-5.14-4.93,4.66,4.66,0,0,1,4.64-4.59A4.55,4.55,0,0,1,449.19,317.41Z" transform="translate(-314 -142.74)"/><path class="2c4b6711-9673-49f4-9d18-c6bb3eaf3d22" d="M475.34,309.91c-4.13,1-8.28.6-12.41.66-.41,0-.9-.14-.83-.67a.92.92,0,0,1,.7-.54C467,309.33,471.2,308.93,475.34,309.91Z" transform="translate(-314 -142.74)"/><path class="9368953f-7c82-4a3d-a2d8-564aac6b8914" d="M454.17,325.67c4.24.56,8.58-1.19,12.76.65C462.66,326.23,458.37,327.25,454.17,325.67Z" transform="translate(-314 -142.74)"/><path class="ec447c05-cdb7-45a3-b053-fae8725dba76" d="M392.39,324a5.73,5.73,0,0,0-2.35,5.9c.22,1.26-.63,1.15-1.37,1.11-4.9-.25-9.8-.62-14.68.24-1.3.23-2-.39-2.25-1.71a5.56,5.56,0,0,1,4.48-6.46A42.09,42.09,0,0,1,392.39,324Z" transform="translate(-314 -142.74)"/><path class="ec447c05-cdb7-45a3-b053-fae8725dba76" d="M381,316.56a4.66,4.66,0,0,1-4.6,4.78,4.89,4.89,0,0,1-4.89-4.89,4.74,4.74,0,0,1,4.58-4.63A4.62,4.62,0,0,1,381,316.56Z" transform="translate(-314 -142.74)"/><path class="ec447c05-cdb7-45a3-b053-fae8725dba76" d="M395.41,317.47a4.52,4.52,0,0,1,4.73-4.69,4.71,4.71,0,0,1,4.72,4.53,5,5,0,0,1-5.11,5A4.64,4.64,0,0,1,395.41,317.47Z" transform="translate(-314 -142.74)"/></svg>