<svg id="8d6d66a0-0898-466c-b79c-4bcc44ecec7c" data-name="Capa 1" xmlns="http://www.w3.org/2000/svg" viewBox="0 0 213.73 309.77"><defs><style>.\38 ca5a386-6b14-4513-96d2-1cb65cf918f6{fill:#232323;}.\37 9ee10b1-d755-48b6-9ff7-5dac7626765c{fill:#fefefe;}</style></defs><title>card-0</title><path class="8ca5a386-6b14-4513-96d2-1cb65cf918f6" d="M533.9,341.56q0,71.48,0,143a22.45,22.45,0,0,1-.19,3.48c-.91,5.79-3.94,8.38-9.85,8.39q-20.62,0-41.24,0H331.39c-7.89,0-11.21-3.31-11.21-11.26q0-143.72,0-287.44c0-7.44,2.86-10.47,10.23-11,1-.07,2-.09,3-.09H520.86c1.08,0,2.16,0,3.24.12,6.85.49,9.79,3.65,9.8,10.58Q533.91,269.45,533.9,341.56Zm-4.32.09q0-71.5,0-143c0-.83,0-1.67,0-2.5q-.32-4.74-5-5.11c-1.16-.09-2.33-.08-3.5-.08H332.28c-6.73,0-7.85,1.15-7.85,7.82q0,143,0,286c0,5.76,1.52,7.32,7.16,7.32h190.5c.83,0,1.67,0,2.5,0a4.77,4.77,0,0,0,4.84-4.45,26.25,26.25,0,0,0,.14-3.49Q529.58,412.89,529.58,341.65Z" transform="translate(-320.17 -186.64)"/><path class="79ee10b1-d755-48b6-9ff7-5dac7626765c" d="M529.55,196.15q-.32-4.74-5-5.11c-1.16-.09-2.33-.08-3.5-.08H332.28c-6.73,0-7.85,1.15-7.85,7.82q0,143,0,286c0,5.76,1.52,7.32,7.16,7.32h190.5c.83,0,1.67,0,2.5,0a4.77,4.77,0,0,0,4.84-4.45,26.28,26.28,0,0,0,.14-3.49q0-71.25,0-142.5,0-71.5,0-143C529.58,197.82,529.61,197,529.55,196.15Z" transform="translate(-320.17 -186.64)"/></svg>