<svg id="acbc36bf-0ba4-4f9b-a8d9-cf4d0fe2039f" data-name="Capa 1" xmlns="http://www.w3.org/2000/svg" viewBox="0 0 213.6 309.62"><defs><style>.b840e290-f5bf-4eb0-9d93-e15460632b8c{fill:#0b0b0b;}.\39 1fdb749-e8a1-4b09-877d-b283d02b1e9d{fill:#fdfdfd;}.\37 28d7340-2766-4787-b638-85363968424c{fill:#161813;}.\35 67e2753-2b34-4f8b-abb6-633682411965{fill:#1c1d1e;}.\37 e45c3eb-6f1e-4e70-b1c9-c0f64c441b3d{fill:#222323;}.\35 536cdf3-4741-400b-b73a-0ad0e31ac487{fill:#4f3f31;}.\35 7172bee-d2e0-44a3-84bf-a8c2543cd435{fill:#f7cca0;}.cc6ef4fb-b942-4527-814a-ebfa61222304{fill:#96b4c7;}.\30 7918c55-2c36-4df8-aa97-2a79e2cccc59{fill:#509441;}.\36 02d75b9-13d8-44b2-8ed9-1bbb7bd7e22f{fill:#f0f0f0;}.\36 9328e1d-09fc-4461-beed-d688fcf193b2{fill:#f8f8f8;}.c08de24a-5bd7-4498-baf1-0bf4f543cef7{fill:#18120b;}.cbdf2fd3-8ce1-4b1c-a154-376d60e184e7{fill:#7b634d;}</style></defs><title>card-1</title><path class="b840e290-f5bf-4eb0-9d93-e15460632b8c" d="M527.59,297.57q0,71.62,0,143.23a18.24,18.24,0,0,1-.34,4.47c-1.1,4.44-3.9,6.83-8.45,7.08-.66,0-1.33,0-2,0H325.07c-7.78,0-11.08-3.29-11.08-11.1q0-143.86,0-287.71c0-7.36,3-10.42,10.37-10.71,2.66-.1,5.33-.08,8-.08H514.58q2.12,0,4.25.1c5.09.24,8.32,3.39,8.71,8.48.07.91,0,1.83,0,2.75Q527.59,225.83,527.59,297.57Zm-209.46-.13q0,71.62,0,143.23c0,5.83,1.62,7.47,7.37,7.47H516.22a19.83,19.83,0,0,0,2.49-.07,4.64,4.64,0,0,0,4.42-4,22.33,22.33,0,0,0,.3-3.72q0-143,0-286c0-.67,0-1.34,0-2-.28-3.46-2.15-5.25-5.63-5.41-1.08-.05-2.17,0-3.25,0H374.31q-25,0-50,0c-4.34,0-6,1.74-6.19,6,0,.75,0,1.5,0,2.25Q318.13,226.33,318.13,297.45Z" transform="translate(-313.99 -142.76)"/><path class="91fdb749-e8a1-4b09-877d-b283d02b1e9d" d="M318.13,297.45q0-71.12,0-142.23c0-.75,0-1.5,0-2.25.15-4.29,1.84-6,6.19-6q25-.06,50,0H514.54c1.08,0,2.17,0,3.25,0,3.49.16,5.35,2,5.63,5.41.05.66,0,1.33,0,2q0,143,0,286a22.33,22.33,0,0,1-.3,3.72,4.64,4.64,0,0,1-4.42,4,19.83,19.83,0,0,1-2.49.07H325.49c-5.75,0-7.37-1.64-7.37-7.47Q318.12,369.07,318.13,297.45ZM352,397c1.17.32,2.11.66,3.08.82a83.71,83.71,0,0,0,27.58.53c1.48-.24,2.08.11,2.29,1.6,1,6.75,2,13.49,3.08,20.23.65,4.19,1.33,8.38,2,12.57a1.77,1.77,0,0,0,2,1.71c1.31-.06,1.67-.92,1.58-2.06-.06-.83-.17-1.66-.3-2.48q-2.35-15-4.7-30.08c-.19-1.23-.77-2.81,1.38-2.93,2.67-.15,3.24-1.63,3-4a184.36,184.36,0,0,1-.38-23.72c.13-4.39.69-8.76,1.06-13.14,1.57,5,3.34,9.72,6.3,13.93a31.58,31.58,0,0,0,12.15,10.11c1.17.58,2.49,1.08,3.25-.42s-.22-2.28-1.53-2.85a19.89,19.89,0,0,1-2.6-1.46c-10-6.29-13.59-15.89-14-27.15,0-1.14.7-1.38,1.38-1.81a33,33,0,0,0,8.78-8.06c8.12-10.73,10.42-22.58,6-35.31-2.78-8.08-8.45-14.11-16-18.15-9.6-5.15-19.93-6-30.55-4.45-13.5,2-25.41,13.22-27.64,26.4-1.7,10.05.78,19.33,6.36,27.78.77,1.17,1,1.76-.22,2.82a30.09,30.09,0,0,0-7.06,9.58c-5.51,11.29-6.55,23.44-6.88,35.72,0,1.25.52,2.15,1.89,2.11s1.67-1,1.74-2.24c.27-4.4.47-8.82,1-13.2,1-8.49,2.89-16.71,7.6-24,.45-.69.74-1.61,1.76-1.86a7,7,0,0,1-.25,3.08,109.34,109.34,0,0,0-3.31,41.54c.3,2.65,1.13,4.46,3.49,5.45s3.18,2.63,2.79,5.25c-.46,3-.32,6.15-.68,9.21-1,8.11-2.17,16.17-6.18,23.48-.66,1.21-1.22,2.38.28,3.18s2.29-.11,3-1.36a47.61,47.61,0,0,0,4.5-12.1C351,413.4,351.41,405.33,352,397Zm139.85,3a5.3,5.3,0,0,1,.14,2.69,82.66,82.66,0,0,0,4.38,29.21c.49,1.51.66,3.79,3,2.92s.89-2.71.46-4.08a83.31,83.31,0,0,1-4.23-28.24c.09-2.78.55-5,3.65-5.84,2.87-.79,3.45-3.15,3.77-5.78a97.82,97.82,0,0,0,.45-21.18c-.87-9.16-2.7-18.1-6.93-26.37a5.53,5.53,0,0,1-.26-5.07c7-18.37,1.44-35.64-15.17-43.9-14.51-7.21-29.05-4.95-42.34,3.24-11.66,7.18-17.21,18.25-15.82,32.22,1.36,13.7,8.65,23.43,20.58,29.85a2.31,2.31,0,0,1,1.49,2.44c0,3.16,0,6.33,0,9.5q.05,8.25.11,16.49c0,1.27.29,2.4,1.89,2.38s1.88-1.1,1.87-2.4c0-.5,0-1,0-1.5-.09-7.49-.21-15-.24-22.48,0-.75-.68-2.18.72-2.17,1.14,0,2.63-.17,3.3,1.55,1.5,3.87,1.13,8,.44,11.69a93.22,93.22,0,0,0-1.76,19.57c0,1.67.56,2.8,2.27,3,2.13.23,2.12,1.24,1.58,3a71.47,71.47,0,0,0-2.74,30.59c.18,1.42.45,2.82,2.29,2.57,1.67-.23,1.62-1.5,1.44-2.87a71,71,0,0,1,2.7-29.85c.48-1.59,1.08-1.78,2.61-1.49A81.56,81.56,0,0,0,491.87,400ZM418.55,214.32c-1.41-3-2.69-5.78-3.94-8.54-.37-.81-.78-1.18-1.71-.67s-1.22.89-.66,1.91a62.66,62.66,0,0,1,4.44,10.54,1.58,1.58,0,0,0,1.58,1.28,1.64,1.64,0,0,0,1.85-1.24c.5-1.27,1.13-2.49,1.93-4.21.71,1.78,1.34,3.11,1.78,4.5.33,1,1,1.15,1.88,1.17s1.24-.45,1.55-1.25a71.42,71.42,0,0,0,3.21-10.72c.17-.77.76-1.83-.73-2.18s-1.59.4-1.86,1.53c-.63,2.61-1,5.33-2.4,7.87-1.52-3-2.92-5.83-4.37-8.63-.39-.75-.58-1.76-2-1s-1,1.52-.3,2.32C420.83,209.43,419.84,211.7,418.55,214.32Zm-36.75,22.39c.88,2.3,1.59,4.24,2.39,6.16.32.76.44,1.81,1.88,1.14,1.24-.58,1-1.17.62-2.13a52.36,52.36,0,0,1-3.34-10.68c-.19-.94-.2-1.92-1.75-1.83s-1.36,1.1-1.57,2c-.46,2-.49,4.15-1.82,6.16a25.89,25.89,0,0,1-1.89-5.65c-.26-.87-.52-1.45-1.61-1.49s-1.41.4-1.76,1.3A59.27,59.27,0,0,0,370.16,242c-.17.92-.17,1.6,1,1.79s1.41-.25,1.59-1.26a27.29,27.29,0,0,1,1.72-6.75c.8,2,1.51,3.68,2.1,5.36a2.14,2.14,0,0,0,2.06,1.45c1.13.14,1.11-.85,1.37-1.44C380.65,239.84,381.13,238.43,381.79,236.71ZM443,197.35a21,21,0,0,0,5.9-.81c1.54-.56,2.91-1.27,3.21-3.09a3.72,3.72,0,0,0-1.87-4.23c-.67-.38-.85-.56-.4-1.42,1.43-2.76.36-4.74-2.71-5.45-2-.46-3.94,0-5.91.3-1.42.18-1.71.8-1.56,2.14a78.35,78.35,0,0,1,.72,9.42C440.39,196.81,441.39,197.67,443,197.35Zm-43.2-5.59,1.83-1.15c1.8-1.16,3-2.62,2.54-5S402,182.4,400,182a25.4,25.4,0,0,0-6.72-.13c-.88,0-1.11.45-1,1.28.39,4,.75,7.95,1.12,11.92.06.67.09,1.4,1.1,1.24.8-.13,1.76-.07,1.57-1.36a1.22,1.22,0,0,1,.31-1.24c2.26.57,4.61,1.11,6.91,1.77,1.15.33,1.43-.27,1.7-1.14.32-1-.22-1.29-1.09-1.47C402.63,192.57,401.44,192.2,399.83,191.76Zm-18.58,1.87c2.38.6,4.71,1.17,7,1.8,1,.28,1.54,0,1.75-1.09s-.16-1.33-1.09-1.51c-1.25-.25-2.46-.66-4-1.09.78-.48,1.27-.77,1.75-1.08,1.68-1.1,3-2.43,2.67-4.67-.36-2.41-2.05-3.53-4.23-4a25.84,25.84,0,0,0-6.72-.15c-.88,0-1.13.41-1.05,1.25.39,4.06.76,8.12,1.08,12.18.09,1.16.73,1,1.53,1C381.65,196.08,380.84,194.75,381.24,193.63Zm-21.71-3.45a6.87,6.87,0,0,0,6.92,7.23c4.85,0,9-4,8.9-8.56a7,7,0,0,0-7.07-7.13A8.89,8.89,0,0,0,359.53,190.17Zm39,24.34c.32-.85,1.05-.94,1.56-1.29,1.69-1.17,2.85-2.59,2.43-4.79s-1.94-3.15-3.93-3.68c-2.22-.6-4.46-.31-6.7-.3-1.08,0-1.45.47-1.35,1.54.38,4,.71,8,1,11.94.06.7.32,1.11,1.07,1s1.69.19,1.56-.74c-.36-2.6,1.06-1.69,2.31-1.34a32,32,0,0,0,4.11,1c.83.12,2,1.4,2.53-.61.44-1.77-.78-1.63-1.77-1.9S399.5,214.8,398.52,214.52Zm63.76-32.81c-4.62,0-8.74,4-8.75,8.46a6.9,6.9,0,0,0,6.92,7.23c4.86,0,9-3.95,8.9-8.55A7,7,0,0,0,462.28,181.7ZM477.16,244a21.91,21.91,0,0,0,5.28-1c1.24-.31,1.57-.89,1.44-2.11-.14-1.38-.68-2.77.6-4.12.45-.48.55-2.27-1.37-2-2.38.35-4.77.69-7.17.94-1.08.12-1.07.67-1,1.53.06,1,.53,1.26,1.43,1.11,1.07-.17,2.13-.33,3.21-.45.62-.06,1.48-.31,1.43.77,0,.79.63,1.94-.84,2.2a22.72,22.72,0,0,1-3.19.49c-3.24.1-5.33-1.81-5.42-4.86-.08-2.64,1.88-4.52,5.11-4.5,1.4,0,1.87-.67,1.89-1.69,0-1.26-1.15-.93-1.89-1a7.09,7.09,0,0,0-7.72,6.72C468.78,240.93,471.89,244,477.16,244Zm-118.71-31.2c0,4.28,2.74,7.26,6.78,7.27a8.66,8.66,0,0,0,8.92-8.19c.09-4.28-2.85-7.44-6.94-7.47A8.82,8.82,0,0,0,358.44,212.78Zm93.37,7.27a8.65,8.65,0,0,0,8.89-8.49,6.92,6.92,0,0,0-7-7.18,8.86,8.86,0,0,0-8.76,8.43C444.93,217,447.79,220.06,451.82,220.05Zm13,16.62a36.93,36.93,0,0,1-5-7.37c-.66-1.37-1.75-1.07-2.75-1-1.18.1-.71,1.14-.71,1.77a45.66,45.66,0,0,0,.91,10.65c.24,1,.5,1.43,1.62,1.16s1.2-.89,1-1.84a23.3,23.3,0,0,1-.81-6.65c2.18,3.08,4,5.61,5.76,8.19a1.65,1.65,0,0,0,2,.86c1.11-.26,1.24-.89,1.19-1.81-.21-3.48-.4-7-.6-10.45-.05-.91-.2-1.56-1.45-1.45s-1.35.78-1.21,1.83A18.84,18.84,0,0,1,464.85,236.67Zm-36.52,6.68a30.07,30.07,0,0,0,3.67-.61c3.79-1.1,5.51-4,4.61-7.56-1.11-4.37-7-7.79-11.21-6.64-1,.28-1,.89-.93,1.67.29,3.47.7,6.94.8,10.42C425.32,242.89,426.28,243.58,428.33,243.36ZM439,195.6a85.14,85.14,0,0,0-2.84-9.54c-1.27-3.72-1.23-3.56-5-3-2,.32-2.54,1.24-2.76,3-.37,3-1,5.89-1.48,8.85-.11.71-1.13,1.76.58,2.1,1.51.3,1.89-.44,2-1.71.09-.85,0-1.78,1.16-2.23,3.3-1.24,4.53-.73,5.59,2.53a2.83,2.83,0,0,1,.13.48c.14,1,.88.76,1.52.71S439.23,196.49,439,195.6Zm31.77-5.66c-.16,5.23,1,6.44,6.19,6.28.75,0,1.49-.11,2.24-.17,3.36-.31,4.44-1.46,4.12-4.84-.26-2.73-.89-5.41-1.23-8.14-.15-1.22-.79-1.2-1.71-1.14-1.19.09-1,.83-.9,1.59.27,1.47.67,2.93.83,4.41.7,6.42,1.11,5.28-4.87,5.58-1.82.09-2.36-.8-2.13-2.45.34-2.47.63-5,1-7.43.1-.78.58-1.68-.86-1.79-1.11-.09-1.71.22-1.83,1.42C471.4,185.48,471.09,187.7,470.81,189.93ZM368.24,242.37a74,74,0,0,0-2.88-9.89c-1.28-3.78-1.29-3.77-5.24-2.89-1.13.25-2.15.37-2.37,2-.46,3.45-1.18,6.86-1.76,10.29-.11.64-.62,1.56.71,1.63.92.05,1.68.24,1.93-1.17.48-2.76,1.48-3.31,4.88-3.36,2.21,0,1.19,2,1.9,2.91.13.17.09.48.14.73.18,1,.86.83,1.54.71S368.41,242.95,368.24,242.37Zm14-23.47c.14,0,.81,0,1.47-.07,3.78-.36,4.51-1.24,4.44-5.07a61.76,61.76,0,0,0-1.14-7.88c-.14-1-.45-1.47-1.62-1.26s-1.27.68-1,1.69a40,40,0,0,1,.85,4.65c.66,5.55,1.19,5-4.74,5.33-1.79.1-2.61-.77-2.35-2.6.35-2.47.69-4.93,1-7.41.09-.73.58-1.72-.87-1.82-1.12-.08-1.66.22-1.76,1.44-.18,2.15-.58,4.28-.8,6.42C375.18,217.51,376.53,219,382.26,218.9ZM440,207.29c-.26,1.32,1.15,3.47-2,3.61-3.3.15-3.29.33-3.55-3.06,0-.41-.08-.83-.12-1.24-.09-.91,0-1.81-1.47-1.72s-1.32.93-1.23,1.88c.28,3.23.56,6.45.84,9.68.08.92-.25,2.06,1.45,1.93s1.28-1.23,1.15-2.14c-.21-1.49-.11-2.42,1.79-2.65,3.36-.41,3.34-.54,3.77,2.91,0,.25.08.49.09.74,0,1,.58,1.21,1.49,1.12s1.32-.42,1.23-1.41q-.53-6-1-11.92c-.08-1.11-.73-1.08-1.54-1.06s-1.23.33-1.13,1.21C439.91,205.84,439.93,206.5,440,207.29Zm-85-25.52a13.29,13.29,0,0,0-8,2.77,3.54,3.54,0,0,0-1.57,3.69c.33,1.57,1.61,2,2.93,2.32,1.89.52,3.81.22,5.71.38.57,0,1.28,0,1.44.7s-.48,1-1,1.31a8.39,8.39,0,0,1-3.7,1.38c-1.18.11-1.3.64-1.21,1.63.12,1.32,1,1.12,1.8,1a11.59,11.59,0,0,0,4.8-2c1.4-1,2.72-2.2,2.21-4.11s-2.2-2.36-3.93-2.51-3.32-.15-5-.28c-.45,0-1.09,0-1.25-.6s.35-.88.75-1.17a9.71,9.71,0,0,1,6.58-1.88c1.22.07,1.62-.38,1.62-1.52C357.22,180.83,355.61,182.24,355,181.77Zm121.91,22.62a6.6,6.6,0,0,1-1.36,0c-2-.28-2.84.42-2.52,2.58a58.2,58.2,0,0,1,.45,6.21c.27,6.17.5,6.36,6.62,5.17a10,10,0,0,1,1.2-.31c1.12-.07,1.35-.64,1.16-1.66s-.75-1.14-1.61-1c-1.06.19-2.13.33-3.2.47-.82.1-1.45,0-1.53-1.08s.1-1.62,1.23-1.67,2.15-.16,3.23-.2c.88,0,1.41-.26,1.26-1.33s-.35-1.58-1.53-1.34c-.73.15-1.49.09-2.23.17-1.21.12-2.18.31-2.25-1.57-.06-1.71.62-2,2-1.9.83,0,1.66-.08,2.49-.06,1,0,1.26-.45,1.24-1.38s-.25-1.41-1.28-1.29S478.49,204.3,476.94,204.39ZM419.4,258.53c0-.17,0-.67,0-1.17-.05-.89-.26-1.67-1.42-1.59s-1,.89-1,1.63c0,.41,0,.83,0,1.25-.11,7.57-2.67,13.94-9,18.47a4.7,4.7,0,0,0-.78.6c-.39.43-.81.89-.4,1.53a1.26,1.26,0,0,0,1.74.49,10.34,10.34,0,0,0,1.85-1.25C416.57,273.45,419.19,266.71,419.4,258.53Zm-14.72-31.09c-.47,0-1.25.81-1.49,1.29-.49,1,.36,1.28.84,1.48,4.68,1.93,5.36,5.78,5,10.16,0,.41,0,.83,0,1.24-.06,1,.16,1.55,1.36,1.48s1.55-.37,1.34-1.48a10,10,0,0,1-.08-1.24c-.25-3.95-.92-8,3.52-10.41,1-.51.52-1.14-.09-1.75s-1.07-1-1.78-.12c-.53.63-1.31,1.05-1.81,1.7-1.07,1.35-2,1.26-3.29.18A41.58,41.58,0,0,0,404.68,227.45Zm7.72-30.76c1.71.15,1.25-1.08,1.23-2-.09-4.11-1.25-8.54,3.52-11.14,1.07-.58.29-1.18-.15-1.78-.78-1.05-1.33-.42-2,.14-3.26,2.74-3.27,2.73-6.72.3a9.25,9.25,0,0,1-.8-.59c-.71-.63-1.26-.84-2,.14s-.45,1.68.53,2.1c4.33,1.86,5.3,5.41,4.95,9.66-.05.66.07,1.33,0,2C411,196.49,411.42,196.89,412.4,196.69ZM346,232.33c.32,3.46.58,6.52.9,9.57.08.8-.27,1.89,1.34,1.77s1.47-1.07,1.28-2c-.32-1.61.19-2.28,1.89-2.26.92,0,2.31.45,2.22-1.44-.11-2.17-1.56-1-2.52-1.16-.7-.1-1.63.68-2.06-.59-.79-2.36-.25-3.25,2.18-3.36.58,0,1.16-.09,1.74-.1,1,0,1.7-.26,1.61-1.58s-.81-1.24-1.7-1.17a35.32,35.32,0,0,1-4.72.28C346.16,230.13,345.66,231,346,232.33Zm92.33-4.92c-.87.11-1,.86-1.4,1.36-.63.9.37,1.25.8,1.44,4.35,1.84,5.3,5.3,5,9.62-.06,1-1.12,3.5,1.63,3.16,2.34-.29,1.11-2.32.94-3.34-.64-4-.22-7.36,3.54-9.66.92-.56.54-1.13-.07-1.76s-1.08-1-1.77-.13c-.36.45-.93.73-1.27,1.19-1.4,1.94-2.81,1.81-4.45.25A25.08,25.08,0,0,0,438.33,227.42Zm-80.87-21.86a13.21,13.21,0,0,0-1.37-1.51c-.67-.54-1,.19-1.44.52-3.4,2.74-3.39,2.74-6.89.27-.13-.1-.25-.22-.39-.31-.81-.57-1.51-1.27-2.4.08s0,1.7.81,2c4.13,1.81,5.21,5.12,4.75,9.27-.08.74.09,1.49,0,2.24-.07,1.23.66,1.27,1.59,1.26s1.19-.57,1.13-1.45c-.12-1.65,0-3.34-.27-5a5.19,5.19,0,0,1,2.36-5.51A21.45,21.45,0,0,0,357.47,205.56Zm138.25-22.49c.21-1.07-.54-1.2-1.65-1.05q-3.7.5-7.42.88c-1.09.11-1.89.22-1.71,1.73s1.2,1,2,.87c1.73-.39,2.11.38,2.13,1.95,0,2.49.33,5,.44,7.47,0,.94.12,1.56,1.35,1.49s1.35-.64,1.28-1.6c-.18-2.4-.19-4.83-.51-7.21-.28-2,.33-2.87,2.39-2.89C494.66,184.69,496,185,495.71,183.07Zm-31.25,36.74a32.63,32.63,0,0,0,7-1.12c.88-.3,1.52-.57,1-1.72-.4-.92-.8-1.27-1.86-.85a22.31,22.31,0,0,1-3.38.77c-1.22.27-1.77-.07-1.79-1.46,0-2.66-.32-5.31-.42-8,0-1.13-.37-1.65-1.62-1.57s-1.18.84-1.12,1.72c.23,3.48.5,7,.62,10.45C462.93,219.47,463.37,220.1,464.46,219.81ZM394,232.88h.06c.11,1.49.24,3,.33,4.48.39,6.88.81,7.18,7.68,5.36a9.09,9.09,0,0,0,1-.29c.71-.27,1.73-.2,1.24-1.57-.39-1.09-.82-1.43-2-1s-2.27.49-3.39.8c-1.31.36-1.79-.07-1.82-1.43-.07-2.74-.3-5.48-.43-8.22,0-.86-.17-1.42-1.26-1.33s-1.57.34-1.4,1.48A12,12,0,0,1,394,232.88ZM454,239c-.2-2.67-.43-5.82-.66-9-.06-.81-.22-1.51-1.32-1.32-.72.12-1.54,0-1.44,1.18.34,4.06.64,8.12.94,12.19.09,1.19.92.89,1.63.92.93,0,1.11-.46,1-1.26S454.11,240.2,454,239Zm-66-7.32c.3,3.5.6,6.64.83,9.79.08,1.06.29,1.64,1.6,1.56s1.16-.87,1.1-1.69c-.3-3.81-.64-7.62-.9-11.44-.07-1-.37-1.31-1.36-1.21S387.86,229,388,230A11.13,11.13,0,0,1,388,231.65Zm102.58,10c.05-1.06-.29-1.73-1.53-1.67-.82,0-1.51.09-1.32,1.21.16.92.23,1.79,1.57,1.67C490.15,242.82,490.81,242.78,490.58,241.67Z" transform="translate(-313.99 -142.76)"/><path class="728d7340-2766-4787-b638-85363968424c" d="M352,397c-.6,8.28-1,16.35-2.92,24.23a47.61,47.61,0,0,1-4.5,12.1c-.69,1.24-1.59,2.1-3,1.36s-.95-2-.28-3.18c4-7.31,5.22-15.37,6.18-23.48.36-3.05.22-6.17.68-9.21.39-2.62-.35-4.23-2.79-5.25s-3.19-2.8-3.49-5.45a109.34,109.34,0,0,1,3.31-41.54,7,7,0,0,0,.25-3.08c-1,.25-1.31,1.17-1.76,1.86-4.71,7.32-6.63,15.54-7.6,24-.5,4.38-.71,8.79-1,13.2-.07,1.23-.34,2.2-1.74,2.24s-1.92-.85-1.89-2.11c.33-12.28,1.36-24.43,6.88-35.72a30.09,30.09,0,0,1,7.06-9.58c1.2-1.06,1-1.65.22-2.82-5.58-8.45-8.06-17.73-6.36-27.78,2.23-13.18,14.14-24.4,27.64-26.4,10.62-1.58,20.95-.69,30.55,4.45,7.53,4,13.2,10.07,16,18.15,4.38,12.73,2.08,24.58-6,35.31a33,33,0,0,1-8.78,8.06c-.68.43-1.42.67-1.38,1.81.41,11.26,4,20.86,14,27.15a19.89,19.89,0,0,0,2.6,1.46c1.31.57,2.27,1.4,1.53,2.85s-2.09,1-3.25.42A31.58,31.58,0,0,1,400,370c-3-4.21-4.73-8.91-6.3-13.93-.37,4.38-.93,8.75-1.06,13.14a184.36,184.36,0,0,0,.38,23.72c.24,2.41-.33,3.89-3,4-2.15.12-1.57,1.7-1.38,2.93q2.33,15,4.7,30.08c.13.82.24,1.65.3,2.48.09,1.14-.27,2-1.58,2.06a1.77,1.77,0,0,1-2-1.71c-.64-4.19-1.32-8.38-2-12.57C387,413.48,386,406.75,385,400c-.22-1.49-.81-1.84-2.29-1.6a83.71,83.71,0,0,1-27.58-.53C354.13,397.7,353.19,397.36,352,397Zm59.62-86.66-.06,0,0-1a7.6,7.6,0,0,0-.34-2.45,32.12,32.12,0,0,0-11.42-16.27c-9.07-6.83-19.46-8.11-30.34-6.9a30.33,30.33,0,0,0-22.81,14c-9,13.49-2.47,32.7,7.08,40.87,6.9,5.9,15.06,8.73,24,9.31,12.9.85,22.71-4.48,29.52-15.41,3.84-6.15,4.93-13,4.83-20.08C412,311.72,412.29,311,411.63,310.38Zm-22.27,69.27a129.58,129.58,0,0,1,1.29-27.14c.37-2.54-.62-2.36-2.35-1.9a30.49,30.49,0,0,1-9.65.94c-10-.56-19.11-3.46-26.89-9.95-.82-.68-1.33-1.19-1.79.41-4.35,15.11-6.48,30.41-4.46,46.13a2.72,2.72,0,0,0,1.28,2.24c2.56,1.6,5.19,3.19,8.13,3.74a84.38,84.38,0,0,0,33-.21c1.28-.27,1.52-.83,1.49-2C389.31,387.81,389.37,383.73,389.37,379.65Z" transform="translate(-313.99 -142.76)"/><path class="728d7340-2766-4787-b638-85363968424c" d="M491.87,400a81.56,81.56,0,0,1-30.26-.34c-1.53-.29-2.13-.1-2.61,1.49a71,71,0,0,0-2.7,29.85c.18,1.38.23,2.64-1.44,2.87-1.85.25-2.11-1.15-2.29-2.57a71.47,71.47,0,0,1,2.74-30.59c.55-1.75.55-2.76-1.58-3-1.71-.19-2.23-1.31-2.27-3a93.22,93.22,0,0,1,1.76-19.57c.69-3.66,1.06-7.82-.44-11.69-.67-1.71-2.16-1.54-3.3-1.55-1.41,0-.73,1.42-.72,2.17,0,7.49.15,15,.24,22.48,0,.5,0,1,0,1.5,0,1.3-.32,2.38-1.87,2.4s-1.88-1.11-1.89-2.38q-.06-8.25-.11-16.49c0-3.17-.08-6.33,0-9.5a2.31,2.31,0,0,0-1.49-2.44c-11.93-6.42-19.22-16.15-20.58-29.85-1.39-14,4.16-25,15.82-32.22,13.29-8.19,27.83-10.45,42.34-3.24,16.61,8.26,22.2,25.53,15.17,43.9a5.53,5.53,0,0,0,.26,5.07c4.23,8.27,6.06,17.21,6.93,26.37a97.82,97.82,0,0,1-.45,21.18c-.32,2.63-.9,5-3.77,5.78-3.1.86-3.56,3.06-3.65,5.84a83.31,83.31,0,0,0,4.23,28.24c.44,1.37,1.78,3.26-.46,4.08s-2.55-1.42-3-2.92A82.66,82.66,0,0,1,492,402.7,5.3,5.3,0,0,0,491.87,400Zm-65.5-78.61c-.06,24.17,17.49,42.55,39.41,37,12-3,21.88-8.65,27-20.66,8.13-19.05-.32-37.76-20-42.84-9.86-2.54-19.79-.91-28.88,3.69C432.68,304.29,426.64,313.57,426.37,321.4Zm63.28,28.41a10.74,10.74,0,0,0-1.14.74,46.13,46.13,0,0,1-30.32,12.3c-1.59.07-2.08.78-1.4,2,1.52,2.64-1.08,5.83,1.23,8.33.1.11-.2.59-.32.89-2.4,6-2.78,12.28-2.71,18.64,0,1.5.74,1.93,2,2.27a89.33,89.33,0,0,0,27.74,2.4A29.87,29.87,0,0,0,496.92,394a4.23,4.23,0,0,0,2.55-3.61c1.29-11.77,1-23.44-2.17-34.92a28.44,28.44,0,0,0-3.46-8.66,10.63,10.63,0,0,0-.23,2.65q0,19.62,0,39.24c0,1.4,0,2.82-2,2.75S490,390,490,388.71q-.15-14.11-.3-28.23C489.62,357.07,489.65,353.67,489.65,349.81Z" transform="translate(-313.99 -142.76)"/><path class="567e2753-2b34-4f8b-abb6-633682411965" d="M418.55,214.32c1.29-2.62,2.29-4.89.27-7.33-.66-.8-1.11-1.57.3-2.32s1.58.28,2,1c1.44,2.8,2.85,5.61,4.37,8.63,1.41-2.54,1.77-5.26,2.4-7.87.28-1.14.48-1.86,1.86-1.53s.9,1.41.73,2.18a71.42,71.42,0,0,1-3.21,10.72c-.31.8-.61,1.27-1.55,1.25s-1.56-.14-1.88-1.17c-.44-1.39-1.06-2.72-1.78-4.5-.8,1.72-1.43,2.94-1.93,4.21a1.64,1.64,0,0,1-1.85,1.24,1.58,1.58,0,0,1-1.58-1.28A62.66,62.66,0,0,0,412.22,207c-.55-1-.22-1.43.66-1.91s1.34-.14,1.71.67C415.86,208.54,417.14,211.28,418.55,214.32Z" transform="translate(-313.99 -142.76)"/><path class="567e2753-2b34-4f8b-abb6-633682411965" d="M381.79,236.71c-.66,1.71-1.15,3.13-1.76,4.48-.27.59-.24,1.58-1.37,1.44a2.14,2.14,0,0,1-2.06-1.45c-.59-1.68-1.3-3.33-2.1-5.36a27.29,27.29,0,0,0-1.72,6.75c-.18,1-.48,1.44-1.59,1.26s-1.21-.87-1-1.79a59.27,59.27,0,0,1,2.79-10.33c.35-.91.71-1.34,1.76-1.3s1.35.61,1.61,1.49a25.89,25.89,0,0,0,1.89,5.65c1.33-2,1.36-4.15,1.82-6.16.21-.93,0-1.94,1.57-2s1.56.89,1.75,1.83a52.36,52.36,0,0,0,3.34,10.68c.42,1,.62,1.55-.62,2.13-1.44.68-1.56-.38-1.88-1.14C383.39,241,382.68,239,381.79,236.71Z" transform="translate(-313.99 -142.76)"/><path class="567e2753-2b34-4f8b-abb6-633682411965" d="M443,197.35c-1.65.32-2.64-.54-2.62-3.13a78.35,78.35,0,0,0-.72-9.42c-.15-1.34.14-2,1.56-2.14,2-.26,3.9-.76,5.91-.3,3.07.71,4.15,2.69,2.71,5.45-.45.86-.27,1,.4,1.42a3.72,3.72,0,0,1,1.87,4.23c-.3,1.82-1.68,2.53-3.21,3.09A21,21,0,0,1,443,197.35Zm1.92-2.79c1.62-.43,4.19.42,4.47-2,.19-1.66-2-1.64-3.15-1.44s-3.25-.93-3.26,1.72C443,194.26,443.49,194.87,445,194.56Zm.09-9.75c-1,.36-2.91-.51-2.47,1.85.13.69-.61,2.16,1.1,1.81s3.78-.78,4.06-2.65C447.93,184.53,446.08,185.1,445,184.81Z" transform="translate(-313.99 -142.76)"/><path class="567e2753-2b34-4f8b-abb6-633682411965" d="M399.83,191.76c1.62.44,2.81.82,4,1.07.87.18,1.4.43,1.09,1.47-.27.88-.55,1.47-1.7,1.14-2.31-.66-4.65-1.2-6.91-1.77a1.22,1.22,0,0,0-.31,1.24c.19,1.29-.76,1.23-1.57,1.36-1,.17-1-.57-1.1-1.24-.38-4-.73-7.95-1.12-11.92-.08-.83.15-1.23,1-1.28A25.4,25.4,0,0,1,400,182c2,.43,3.76,1.37,4.22,3.68s-.74,3.79-2.54,5Zm-4.18-1.44a13.86,13.86,0,0,0,5.05-2.24c1.19-.86,1.37-1.93.18-2.87a5.56,5.56,0,0,0-5.24-.69c-1.29.43-.32,2.15-.31,3.29A20.61,20.61,0,0,0,395.65,190.32Z" transform="translate(-313.99 -142.76)"/><path class="567e2753-2b34-4f8b-abb6-633682411965" d="M381.24,193.63c-.4,1.12.41,2.45-1.25,2.61-.81.07-1.45.19-1.53-1-.32-4.06-.69-8.13-1.08-12.18-.08-.84.17-1.21,1.05-1.25a25.84,25.84,0,0,1,6.72.15c2.18.47,3.86,1.59,4.23,4,.34,2.24-1,3.57-2.67,4.67-.48.31-1,.6-1.75,1.08,1.53.43,2.74.84,4,1.09.93.18,1.29.54,1.09,1.51s-.71,1.37-1.75,1.09C386,194.8,383.62,194.23,381.24,193.63Zm-.56-3.27a15.47,15.47,0,0,0,5-2.2c.93-.62,1.45-1.54.67-2.51-1.46-1.81-3.66-1.54-5.51-1.18-1.59.31-.41,1.88-.45,2.87A22.81,22.81,0,0,0,380.68,190.35Z" transform="translate(-313.99 -142.76)"/><path class="567e2753-2b34-4f8b-abb6-633682411965" d="M359.53,190.17a8.89,8.89,0,0,1,8.74-8.47,7,7,0,0,1,7.07,7.13c.07,4.58-4,8.55-8.9,8.56A6.87,6.87,0,0,1,359.53,190.17Zm8.92-5.81a6.31,6.31,0,0,0-6.31,5.8,4.31,4.31,0,0,0,4.23,4.59,6.22,6.22,0,0,0,6.25-5.56C372.74,186.41,371,184.45,368.45,184.37Z" transform="translate(-313.99 -142.76)"/><path class="567e2753-2b34-4f8b-abb6-633682411965" d="M398.52,214.52c1,.29,1.9.58,2.85.83s2.21.13,1.77,1.9c-.5,2-1.7.73-2.53.61a32,32,0,0,1-4.11-1c-1.24-.35-2.67-1.26-2.31,1.34.13.93-1,.65-1.56.74s-1-.3-1.07-1c-.33-4-.67-8-1-11.94-.1-1.07.27-1.54,1.35-1.54,2.24,0,4.48-.29,6.7.3,2,.53,3.52,1.53,3.93,3.68s-.75,3.62-2.43,4.79C399.58,213.58,398.85,213.67,398.52,214.52Zm-5.09-4.71c.61,1-.67,2.75,1.16,3s5.69-2.63,5.31-3.73c-.85-2.46-3.11-2-5-2.12C392.26,206.85,393.93,208.83,393.43,209.8Z" transform="translate(-313.99 -142.76)"/><path class="567e2753-2b34-4f8b-abb6-633682411965" d="M462.28,181.7a7,7,0,0,1,7.07,7.14c.06,4.61-4,8.54-8.9,8.55a6.9,6.9,0,0,1-6.92-7.23C453.54,185.71,457.66,181.72,462.28,181.7Zm4.35,7.15a4.21,4.21,0,0,0-4.52-4.48,6.33,6.33,0,0,0-6,5.89,4.29,4.29,0,0,0,4.33,4.49A6.17,6.17,0,0,0,466.63,188.85Z" transform="translate(-313.99 -142.76)"/><path class="567e2753-2b34-4f8b-abb6-633682411965" d="M477.16,244c-5.27.06-8.38-3.05-8.22-7.89a7.09,7.09,0,0,1,7.72-6.72c.74,0,1.92-.29,1.89,1,0,1-.49,1.7-1.89,1.69-3.23,0-5.19,1.86-5.11,4.5.09,3,2.18,5,5.42,4.86a22.72,22.72,0,0,0,3.19-.49c1.47-.26.8-1.41.84-2.2,0-1.08-.81-.83-1.43-.77-1.07.11-2.14.27-3.21.45-.9.15-1.37-.08-1.43-1.11-.05-.86-.06-1.41,1-1.53,2.39-.26,4.78-.59,7.17-.94,1.92-.28,1.83,1.52,1.37,2-1.28,1.35-.74,2.74-.6,4.12.12,1.22-.2,1.8-1.44,2.11A21.91,21.91,0,0,1,477.16,244Z" transform="translate(-313.99 -142.76)"/><path class="567e2753-2b34-4f8b-abb6-633682411965" d="M358.44,212.78a8.82,8.82,0,0,1,8.77-8.39c4.09,0,7,3.18,6.94,7.47a8.66,8.66,0,0,1-8.92,8.19C361.18,220,358.41,217.06,358.44,212.78Zm2.6.12c0,2.71,1.63,4.48,4.22,4.51a6.19,6.19,0,0,0,6.26-5.8A4.4,4.4,0,0,0,367,207,6.37,6.37,0,0,0,361,212.89Z" transform="translate(-313.99 -142.76)"/><path class="567e2753-2b34-4f8b-abb6-633682411965" d="M451.82,220.05c-4,0-6.88-3-6.86-7.23a8.86,8.86,0,0,1,8.76-8.43,6.92,6.92,0,0,1,7,7.18A8.65,8.65,0,0,1,451.82,220.05Zm0-2.65a6.13,6.13,0,0,0,6.2-5.85,4.37,4.37,0,0,0-4.29-4.55,6.37,6.37,0,0,0-6.2,5.94A4.16,4.16,0,0,0,451.86,217.4Z" transform="translate(-313.99 -142.76)"/><path class="567e2753-2b34-4f8b-abb6-633682411965" d="M464.85,236.67a18.84,18.84,0,0,0,0-6.08c-.14-1.05-.16-1.71,1.21-1.83s1.4.54,1.45,1.45c.2,3.48.39,7,.6,10.45.05.92-.08,1.55-1.19,1.81a1.65,1.65,0,0,1-2-.86c-1.75-2.58-3.59-5.11-5.76-8.19a23.3,23.3,0,0,0,.81,6.65c.23.95.16,1.56-1,1.84s-1.38-.17-1.62-1.16a45.66,45.66,0,0,1-.91-10.65c0-.63-.47-1.67.71-1.77,1-.09,2.09-.39,2.75,1A36.93,36.93,0,0,0,464.85,236.67Z" transform="translate(-313.99 -142.76)"/><path class="7e45c3eb-6f1e-4e70-b1c9-c0f64c441b3d" d="M428.33,243.36c-2.05.22-3-.47-3.07-2.71-.1-3.48-.51-7-.8-10.42-.06-.78-.11-1.39.93-1.67,4.25-1.15,10.1,2.27,11.21,6.64.9,3.55-.82,6.45-4.61,7.56A30.07,30.07,0,0,1,428.33,243.36Zm-.83-8.58c.15,1.51.38,3,.42,4.47,0,1.13.53,1.37,1.54,1.26,1.86-.19,3.79-.44,4.48-2.46s-.28-3.86-2-5.18c-1.19-.93-2.62-2-4-1.4S427.85,233.67,427.5,234.78Z" transform="translate(-313.99 -142.76)"/><path class="567e2753-2b34-4f8b-abb6-633682411965" d="M439,195.6c.2.9-.29,1.21-1.07,1.27s-1.38.32-1.52-.71a2.83,2.83,0,0,0-.13-.48c-1.06-3.26-2.29-3.77-5.59-2.53-1.19.45-1.07,1.38-1.16,2.23-.14,1.27-.51,2-2,1.71-1.71-.34-.69-1.39-.58-2.1.45-3,1.11-5.88,1.48-8.85.23-1.79.77-2.71,2.76-3,3.76-.6,3.73-.77,5,3A85.14,85.14,0,0,1,439,195.6Zm-4.36-6c-1.57-.92.27-4.31-2.7-3.76-1.78.33-1.76,3-1.29,3.94C431.5,191.42,433.17,189.62,434.68,189.6Z" transform="translate(-313.99 -142.76)"/><path class="7e45c3eb-6f1e-4e70-b1c9-c0f64c441b3d" d="M470.81,189.93c.27-2.23.58-4.46.81-6.69.12-1.19.72-1.5,1.83-1.42,1.44.11,1,1,.86,1.79-.32,2.48-.62,5-1,7.43-.22,1.66.32,2.54,2.13,2.45,6-.29,5.57.84,4.87-5.58-.16-1.48-.56-2.94-.83-4.41-.14-.76-.28-1.5.9-1.59.92-.07,1.56-.09,1.71,1.14.34,2.72,1,5.41,1.23,8.14.32,3.38-.77,4.53-4.12,4.84-.75.07-1.49.15-2.24.17C471.83,196.37,470.66,195.16,470.81,189.93Z" transform="translate(-313.99 -142.76)"/><path class="567e2753-2b34-4f8b-abb6-633682411965" d="M368.24,242.37c.17.57-.43.79-1.15.92s-1.36.25-1.54-.71c0-.24,0-.55-.14-.73-.71-.92.31-2.94-1.9-2.91-3.4,0-4.4.6-4.88,3.36-.25,1.42-1,1.23-1.93,1.17-1.32-.08-.81-1-.71-1.63.58-3.43,1.29-6.84,1.76-10.29.21-1.59,1.23-1.71,2.37-2,4-.88,4-.89,5.24,2.89A74,74,0,0,1,368.24,242.37Zm-4.27-5.9c-1.23-1.65-.24-4.38-2.54-4.32s-2,3-1.63,4C360.45,237.89,362.22,235.93,364,236.47Z" transform="translate(-313.99 -142.76)"/><path class="7e45c3eb-6f1e-4e70-b1c9-c0f64c441b3d" d="M382.26,218.9c-5.73.05-7.08-1.39-6.57-6.57.21-2.15.62-4.27.8-6.42.1-1.23.64-1.52,1.76-1.44,1.45.1,1,1.09.87,1.82-.29,2.47-.63,4.94-1,7.41-.26,1.83.56,2.7,2.35,2.6,5.93-.34,5.4.23,4.74-5.33a40,40,0,0,0-.85-4.65c-.25-1-.12-1.48,1-1.69s1.48.3,1.62,1.26a61.76,61.76,0,0,1,1.14,7.88c.07,3.83-.66,4.71-4.44,5.07C383.07,218.89,382.4,218.89,382.26,218.9Z" transform="translate(-313.99 -142.76)"/><path class="7e45c3eb-6f1e-4e70-b1c9-c0f64c441b3d" d="M440,207.29c-.06-.79-.08-1.45-.16-2.11-.11-.88.3-1.18,1.13-1.21s1.46-.06,1.54,1.06q.42,6,1,11.92c.09,1-.31,1.32-1.23,1.41s-1.45-.12-1.49-1.12c0-.25-.06-.49-.09-.74-.42-3.44-.41-3.31-3.77-2.91-1.91.23-2,1.17-1.79,2.65.13.9.54,2-1.15,2.14s-1.36-1-1.45-1.93c-.29-3.23-.56-6.45-.84-9.68-.08-.95-.19-1.79,1.23-1.88s1.38.81,1.47,1.72c0,.41.09.83.12,1.24.26,3.38.25,3.21,3.55,3.06C441.15,210.76,439.73,208.61,440,207.29Z" transform="translate(-313.99 -142.76)"/><path class="567e2753-2b34-4f8b-abb6-633682411965" d="M355,181.77c.58.47,2.2-.94,2.2,1.14,0,1.14-.4,1.59-1.62,1.52a9.71,9.71,0,0,0-6.58,1.88c-.39.3-.89.6-.75,1.17s.79.57,1.25.6c1.66.13,3.32.14,5,.28s3.42.64,3.93,2.51-.8,3.12-2.21,4.11a11.59,11.59,0,0,1-4.8,2c-.83.14-1.67.34-1.8-1-.09-1,0-1.52,1.21-1.63a8.39,8.39,0,0,0,3.7-1.38c.48-.31,1.11-.64,1-1.31s-.87-.65-1.44-.7c-1.9-.17-3.83.14-5.71-.38-1.32-.37-2.6-.75-2.93-2.32a3.54,3.54,0,0,1,1.57-3.69A13.29,13.29,0,0,1,355,181.77Z" transform="translate(-313.99 -142.76)"/><path class="567e2753-2b34-4f8b-abb6-633682411965" d="M476.94,204.39c1.55-.09,2.47-.09,3.37-.2s1.26.37,1.28,1.29-.24,1.4-1.24,1.38c-.83,0-1.66.1-2.49.06-1.38-.08-2.06.19-2,1.9.06,1.88,1,1.69,2.25,1.57.74-.08,1.51,0,2.23-.17,1.18-.24,1.39.39,1.53,1.34s-.37,1.3-1.26,1.33c-1.08,0-2.15.16-3.23.2s-1.3.68-1.23,1.67.71,1.18,1.53,1.08c1.07-.14,2.14-.28,3.2-.47.86-.15,1.42,0,1.61,1s0,1.59-1.16,1.66a10,10,0,0,0-1.2.31c-6.12,1.19-6.35,1-6.62-5.17a58.2,58.2,0,0,0-.45-6.21c-.33-2.15.48-2.85,2.52-2.58A6.6,6.6,0,0,0,476.94,204.39Z" transform="translate(-313.99 -142.76)"/><path class="7e45c3eb-6f1e-4e70-b1c9-c0f64c441b3d" d="M419.4,258.53c-.21,8.18-2.82,14.91-9.08,20a10.34,10.34,0,0,1-1.85,1.25,1.26,1.26,0,0,1-1.74-.49c-.41-.64,0-1.1.4-1.53a4.7,4.7,0,0,1,.78-.6c6.34-4.53,8.9-10.9,9-18.47,0-.42,0-.83,0-1.25,0-.74-.06-1.56,1-1.63s1.37.7,1.42,1.59C419.42,257.87,419.4,258.37,419.4,258.53Z" transform="translate(-313.99 -142.76)"/><path class="7e45c3eb-6f1e-4e70-b1c9-c0f64c441b3d" d="M404.68,227.45a41.58,41.58,0,0,1,3.54,2.53c1.24,1.08,2.21,1.17,3.29-.18.51-.64,1.28-1.07,1.81-1.7.72-.84,1.17-.5,1.78.12s1,1.24.09,1.75c-4.44,2.39-3.77,6.46-3.52,10.41a10,10,0,0,0,.08,1.24c.21,1.11-.28,1.42-1.34,1.48s-1.42-.5-1.36-1.48c0-.41-.06-.83,0-1.24.35-4.38-.32-8.23-5-10.16-.48-.2-1.33-.52-.84-1.48C403.43,228.26,404.21,227.44,404.68,227.45Z" transform="translate(-313.99 -142.76)"/><path class="7e45c3eb-6f1e-4e70-b1c9-c0f64c441b3d" d="M412.4,196.69c-1,.19-1.41-.2-1.37-1.19,0-.66-.1-1.33,0-2,.35-4.25-.62-7.8-4.95-9.66-1-.42-1.32-1-.53-2.1s1.27-.77,2-.14a9.25,9.25,0,0,0,.8.59c3.44,2.43,3.45,2.44,6.72-.3.67-.56,1.22-1.2,2-.14.44.6,1.22,1.19.15,1.78-4.77,2.6-3.61,7-3.52,11.14C413.65,195.61,414.11,196.84,412.4,196.69Z" transform="translate(-313.99 -142.76)"/><path class="7e45c3eb-6f1e-4e70-b1c9-c0f64c441b3d" d="M346,232.33c-.34-1.36.16-2.2,2.16-2.07a35.32,35.32,0,0,0,4.72-.28c.88-.06,1.6-.08,1.7,1.17s-.56,1.56-1.61,1.58c-.58,0-1.16.07-1.74.1-2.43.12-3,1-2.18,3.36.43,1.28,1.36.5,2.06.59,1,.14,2.41-1,2.52,1.16.09,1.88-1.3,1.45-2.22,1.44-1.69,0-2.21.65-1.89,2.26.19,1,.29,1.93-1.28,2s-1.26-1-1.34-1.77C346.58,238.85,346.32,235.79,346,232.33Z" transform="translate(-313.99 -142.76)"/><path class="567e2753-2b34-4f8b-abb6-633682411965" d="M438.33,227.42a25.08,25.08,0,0,1,3,2.13c1.64,1.56,3,1.68,4.45-.25.33-.46.9-.75,1.27-1.19.7-.85,1.16-.5,1.77.13s1,1.2.07,1.76c-3.76,2.29-4.18,5.69-3.54,9.66.17,1,1.4,3.06-.94,3.34-2.74.33-1.69-2.12-1.63-3.16.27-4.32-.69-7.77-5-9.62-.44-.19-1.43-.54-.8-1.44C437.28,228.27,437.46,227.53,438.33,227.42Z" transform="translate(-313.99 -142.76)"/><path class="567e2753-2b34-4f8b-abb6-633682411965" d="M357.47,205.56a21.45,21.45,0,0,1-2.08,1.93A5.19,5.19,0,0,0,353,213c.26,1.63.15,3.31.27,5,.06.88-.06,1.44-1.13,1.45s-1.66,0-1.59-1.26c0-.74-.12-1.5,0-2.24.46-4.15-.62-7.45-4.75-9.27-.78-.34-1.65-.76-.81-2s1.59-.66,2.4-.08c.14.09.25.22.39.31,3.5,2.47,3.49,2.47,6.89-.27.41-.33.77-1.07,1.44-.52A13.21,13.21,0,0,1,357.47,205.56Z" transform="translate(-313.99 -142.76)"/><path class="7e45c3eb-6f1e-4e70-b1c9-c0f64c441b3d" d="M495.71,183.07c.32,1.9-1.06,1.62-1.74,1.63-2.07,0-2.67.87-2.39,2.89.33,2.38.34,4.81.51,7.21.07,1-.1,1.54-1.28,1.6s-1.31-.55-1.35-1.49c-.12-2.49-.41-5-.44-7.47,0-1.57-.4-2.33-2.13-1.95-.76.17-1.77.78-2-.87s.62-1.61,1.71-1.73q3.72-.38,7.42-.88C495.17,181.87,495.93,182,495.71,183.07Z" transform="translate(-313.99 -142.76)"/><path class="7e45c3eb-6f1e-4e70-b1c9-c0f64c441b3d" d="M464.46,219.81c-1.1.29-1.53-.34-1.58-1.74-.13-3.49-.39-7-.62-10.45-.06-.88-.16-1.63,1.12-1.72s1.57.44,1.62,1.57c.1,2.66.38,5.31.42,8,0,1.39.57,1.73,1.79,1.46a22.31,22.31,0,0,0,3.38-.77c1.07-.42,1.47-.07,1.86.85.5,1.14-.14,1.42-1,1.72A32.63,32.63,0,0,1,464.46,219.81Z" transform="translate(-313.99 -142.76)"/><path class="7e45c3eb-6f1e-4e70-b1c9-c0f64c441b3d" d="M394,232.88a12,12,0,0,0,0-1.74c-.17-1.14.4-1.4,1.4-1.48s1.22.47,1.26,1.33c.12,2.74.35,5.48.43,8.22,0,1.36.51,1.79,1.82,1.43,1.12-.31,2.3-.41,3.39-.8s1.58-.07,2,1c.49,1.37-.53,1.3-1.24,1.57a9.09,9.09,0,0,1-1,.29c-6.87,1.82-7.29,1.52-7.68-5.36-.08-1.5-.22-3-.33-4.48Z" transform="translate(-313.99 -142.76)"/><path class="567e2753-2b34-4f8b-abb6-633682411965" d="M454,239c.07,1.23.07,2,.16,2.73s-.07,1.29-1,1.26c-.72,0-1.55.28-1.63-.92-.29-4.06-.6-8.13-.94-12.19-.1-1.2.72-1.05,1.44-1.18,1.09-.19,1.26.5,1.32,1.32C453.61,233.15,453.84,236.3,454,239Z" transform="translate(-313.99 -142.76)"/><path class="567e2753-2b34-4f8b-abb6-633682411965" d="M388,231.65a11.13,11.13,0,0,0,0-1.65c-.13-1,.4-1.24,1.28-1.33s1.29.24,1.36,1.21c.26,3.82.6,7.62.9,11.44.06.82.25,1.6-1.1,1.69s-1.52-.5-1.6-1.56C388.6,238.29,388.3,235.15,388,231.65Z" transform="translate(-313.99 -142.76)"/><path class="5536cdf3-4741-400b-b73a-0ad0e31ac487" d="M490.58,241.67c.22,1.11-.43,1.15-1.28,1.22-1.34.12-1.41-.76-1.57-1.67-.19-1.12.49-1.17,1.32-1.21C490.29,239.94,490.63,240.62,490.58,241.67Z" transform="translate(-313.99 -142.76)"/><path class="57172bee-d2e0-44a3-84bf-a8c2543cd435" d="M412,312.42c.1,7.11-1,13.93-4.83,20.08-6.81,10.93-16.62,16.26-29.52,15.41-8.92-.59-17.09-3.41-24-9.31-9.55-8.17-16.08-27.38-7.08-40.87a30.33,30.33,0,0,1,22.81-14c10.88-1.21,21.27.07,30.34,6.9a32.12,32.12,0,0,1,11.42,16.27,7.6,7.6,0,0,1,.34,2.45c-3.48-.57-6.08-3.11-9.8-4.8,2.74,3.86,5.87,5.6,9.84,5.8l.06,0Zm-15.2,12.37a47.76,47.76,0,0,0-15.5-1.83c-3.57.18-5.69,2.83-5.41,6.38.11,1.4.92,2,2.13,1.83,4.91-.79,9.76.07,14.63.44,1,.07,1.61.17,1.42-1.19C393.81,328.2,394.69,326.39,396.85,324.79Zm8-12a4.68,4.68,0,0,0-4.78,4.66,4.84,4.84,0,0,0,4.3,4.9,5,5,0,0,0,5.22-4.85A4.72,4.72,0,0,0,404.82,312.8Zm-28.34,2.55a4.84,4.84,0,0,0,4.79,5,4.79,4.79,0,0,0,4.59-4.66,4.55,4.55,0,0,0-4.55-4.87A4.35,4.35,0,0,0,376.48,315.34Zm-2.19-8.13c3.54,1.14,7.76-.48,9.08-3.46A57.86,57.86,0,0,1,374.29,307.22Z" transform="translate(-313.99 -142.76)"/><path class="cc6ef4fb-b942-4527-814a-ebfa61222304" d="M389.37,379.65c0,4.08-.05,8.15,0,12.23,0,1.21-.21,1.77-1.49,2a84.38,84.38,0,0,1-33,.21c-2.94-.55-5.57-2.14-8.13-3.74a2.72,2.72,0,0,1-1.28-2.24c-2-15.72.11-31,4.46-46.13.46-1.61,1-1.1,1.79-.41,7.79,6.49,16.92,9.39,26.89,9.95a30.49,30.49,0,0,0,9.65-.94c1.73-.46,2.72-.64,2.35,1.9A129.58,129.58,0,0,0,389.37,379.65Z" transform="translate(-313.99 -142.76)"/><path class="7e45c3eb-6f1e-4e70-b1c9-c0f64c441b3d" d="M411.58,310.35c-4-.21-7.1-1.94-9.84-5.8,3.72,1.69,6.32,4.23,9.8,4.8Z" transform="translate(-313.99 -142.76)"/><path class="7e45c3eb-6f1e-4e70-b1c9-c0f64c441b3d" d="M412,312.42l-.41-2C412.29,311,412,311.72,412,312.42Z" transform="translate(-313.99 -142.76)"/><path class="57172bee-d2e0-44a3-84bf-a8c2543cd435" d="M426.37,321.4c.27-7.83,6.31-17.11,17.53-22.79,9.09-4.6,19-6.24,28.88-3.69,19.69,5.08,28.15,23.78,20,42.84-5.13,12-15,17.63-27,20.66C443.86,364,426.31,345.57,426.37,321.4Zm40.65,22a10.11,10.11,0,0,0,2.6-4.29c.56-1.64.09-1.63-1.07-1.76-2.63-.28-5.25-.72-7.89-.82-1.64-.06-3.17.1-3.89-2.35-.45,2.17-.76,3.63,1.76,3.32.59-.07,1.55,0,1.45.95-.27,2.61,1.65,3.89,3.11,5.47-.58.43-1.39-.39-2,.38a6.3,6.3,0,0,0,5.17,1.13C467.26,345.24,468.35,344.68,467,343.38Zm-22.49,4c0,1.67-1.42,1.47-2.39,1.6a35.87,35.87,0,0,1-4.24,0,6.09,6.09,0,0,0,8.43-1.58c-.59-.47-1.22.61-1.81,0,.4-1.55,2.12-2.61,1.58-4.51-.37-1.31-1.37-2.73.88-3.62.62-.25.49-1.71-.36-2.42-2.51,4.63-8.21,3.89-11.44,7.15.57.52,1.27-.23,1.77.65C439.67,349.41,441,348.93,444.52,347.36Zm30.28,3.87c-2.26-4.46-5.85-5.65-8.6-4.48C468.63,346.45,472.05,348,474.8,351.24Zm-8.43-1.86c-2.88-1-4.91,1.32-8.06,1.68C462,352.74,463.81,349.64,466.37,349.38Zm-14.15,1.95c2.79-2.37,6.85-1.4,10.19-4.07C458.42,348.23,454.77,348.33,452.22,351.33Z" transform="translate(-313.99 -142.76)"/><path class="07918c55-2c36-4df8-aa97-2a79e2cccc59" d="M489.65,349.81c0,3.85,0,7.26,0,10.67q.13,14.11.3,28.23c0,1.27-.1,2.66,1.73,2.73s2-1.34,2-2.75q0-19.62,0-39.24a10.63,10.63,0,0,1,.23-2.65,28.44,28.44,0,0,1,3.46,8.66c3.14,11.48,3.46,23.16,2.17,34.92a4.23,4.23,0,0,1-2.55,3.61,29.87,29.87,0,0,1-12.15,3.34,89.33,89.33,0,0,1-27.74-2.4c-1.3-.34-2-.76-2-2.27-.07-6.36.31-12.64,2.71-18.64.12-.3.42-.79.32-.89-2.31-2.49.29-5.68-1.23-8.33-.68-1.17-.19-1.89,1.4-2a46.13,46.13,0,0,0,30.32-12.3A10.74,10.74,0,0,1,489.65,349.81Z" transform="translate(-313.99 -142.76)"/><path class="602d75b9-13d8-44b2-8ed9-1bbb7bd7e22f" d="M445,194.56c-1.47.31-1.94-.3-1.93-1.73,0-2.65,2.11-1.53,3.26-1.72s3.34-.22,3.15,1.44C449.15,195,446.57,194.13,445,194.56Z" transform="translate(-313.99 -142.76)"/><path class="602d75b9-13d8-44b2-8ed9-1bbb7bd7e22f" d="M445,184.81c1,.28,2.89-.29,2.69,1-.28,1.86-2.36,2.31-4.06,2.65s-1-1.12-1.1-1.81C442.13,184.3,444.06,185.17,445,184.81Z" transform="translate(-313.99 -142.76)"/><path class="602d75b9-13d8-44b2-8ed9-1bbb7bd7e22f" d="M395.65,190.32a20.61,20.61,0,0,1-.32-2.51c0-1.14-1-2.87.31-3.29a5.56,5.56,0,0,1,5.24.69c1.18.94,1,2-.18,2.87A13.86,13.86,0,0,1,395.65,190.32Z" transform="translate(-313.99 -142.76)"/><path class="602d75b9-13d8-44b2-8ed9-1bbb7bd7e22f" d="M380.68,190.35a22.81,22.81,0,0,1-.25-3c0-1-1.14-2.56.45-2.87,1.85-.37,4-.63,5.51,1.18.78,1,.26,1.88-.67,2.51A15.47,15.47,0,0,1,380.68,190.35Z" transform="translate(-313.99 -142.76)"/><path class="69328e1d-09fc-4461-beed-d688fcf193b2" d="M368.45,184.37c2.6.08,4.29,2,4.17,4.83a6.22,6.22,0,0,1-6.25,5.56,4.31,4.31,0,0,1-4.23-4.59A6.31,6.31,0,0,1,368.45,184.37Z" transform="translate(-313.99 -142.76)"/><path class="602d75b9-13d8-44b2-8ed9-1bbb7bd7e22f" d="M393.43,209.8c.5-1-1.17-2.95,1.44-2.83,1.93.09,4.19-.33,5,2.12.38,1.1-3.53,4-5.31,3.73S394,210.77,393.43,209.8Z" transform="translate(-313.99 -142.76)"/><path class="69328e1d-09fc-4461-beed-d688fcf193b2" d="M466.63,188.85a6.17,6.17,0,0,1-6.16,5.9,4.29,4.29,0,0,1-4.33-4.49,6.33,6.33,0,0,1,6-5.89A4.21,4.21,0,0,1,466.63,188.85Z" transform="translate(-313.99 -142.76)"/><path class="69328e1d-09fc-4461-beed-d688fcf193b2" d="M361,212.89a6.37,6.37,0,0,1,6-5.89,4.4,4.4,0,0,1,4.5,4.6,6.19,6.19,0,0,1-6.26,5.8C362.68,217.37,361,215.6,361,212.89Z" transform="translate(-313.99 -142.76)"/><path class="69328e1d-09fc-4461-beed-d688fcf193b2" d="M451.86,217.4a4.16,4.16,0,0,1-4.29-4.46,6.37,6.37,0,0,1,6.2-5.94,4.37,4.37,0,0,1,4.29,4.55A6.13,6.13,0,0,1,451.86,217.4Z" transform="translate(-313.99 -142.76)"/><path class="69328e1d-09fc-4461-beed-d688fcf193b2" d="M427.5,234.78c.35-1.11-.89-2.73.44-3.31s2.83.48,4,1.4c1.7,1.32,2.71,3,2,5.18s-2.62,2.26-4.48,2.46c-1,.1-1.5-.13-1.54-1.26C427.88,237.76,427.66,236.29,427.5,234.78Z" transform="translate(-313.99 -142.76)"/><path class="602d75b9-13d8-44b2-8ed9-1bbb7bd7e22f" d="M434.68,189.6c-1.52,0-3.18,1.82-4,.18-.47-1-.49-3.61,1.29-3.94C435,185.29,433.11,188.68,434.68,189.6Z" transform="translate(-313.99 -142.76)"/><path class="602d75b9-13d8-44b2-8ed9-1bbb7bd7e22f" d="M364,236.47c-1.76-.54-3.52,1.42-4.18-.34-.36-1-.59-3.92,1.63-4S362.75,234.83,364,236.47Z" transform="translate(-313.99 -142.76)"/><path class="c08de24a-5bd7-4498-baf1-0bf4f543cef7" d="M396.85,324.79c-2.15,1.6-3,3.41-2.73,5.62.19,1.36-.47,1.26-1.42,1.19-4.87-.37-9.72-1.23-14.63-.44-1.2.19-2-.42-2.13-1.83-.28-3.55,1.84-6.2,5.41-6.38A47.76,47.76,0,0,1,396.85,324.79Z" transform="translate(-313.99 -142.76)"/><path class="c08de24a-5bd7-4498-baf1-0bf4f543cef7" d="M404.82,312.8a4.72,4.72,0,0,1,4.74,4.71,5,5,0,0,1-5.22,4.85,4.84,4.84,0,0,1-4.3-4.9A4.68,4.68,0,0,1,404.82,312.8Z" transform="translate(-313.99 -142.76)"/><path class="c08de24a-5bd7-4498-baf1-0bf4f543cef7" d="M376.48,315.34a4.35,4.35,0,0,1,4.83-4.5,4.55,4.55,0,0,1,4.55,4.87,4.79,4.79,0,0,1-4.59,4.66A4.84,4.84,0,0,1,376.48,315.34Z" transform="translate(-313.99 -142.76)"/><path class="5536cdf3-4741-400b-b73a-0ad0e31ac487" d="M374.29,307.22a57.86,57.86,0,0,0,9.08-3.46C382,306.74,377.83,308.36,374.29,307.22Z" transform="translate(-313.99 -142.76)"/><path class="c08de24a-5bd7-4498-baf1-0bf4f543cef7" d="M444.52,347.36c-3.49,1.57-4.85,2-7.57-2.75-.5-.88-1.2-.14-1.77-.65,3.22-3.26,8.93-2.52,11.44-7.15.86.71,1,2.17.36,2.42-2.25.89-1.25,2.31-.88,3.62.53,1.91-1.18,3-1.58,4.51Z" transform="translate(-313.99 -142.76)"/><path class="728d7340-2766-4787-b638-85363968424c" d="M463.09,343.89c-1.46-1.58-3.38-2.86-3.11-5.47.09-.9-.86-1-1.45-.95-2.52.31-2.2-1.14-1.76-3.32.72,2.45,2.25,2.29,3.89,2.35,2.64.09,5.26.54,7.89.82,1.16.12,1.63.12,1.07,1.76a10.11,10.11,0,0,1-2.6,4.29l0,0c-.32,0-.8-.09-.54.53l0,0a9.52,9.52,0,0,0-3.51,0Z" transform="translate(-313.99 -142.76)"/><path class="5536cdf3-4741-400b-b73a-0ad0e31ac487" d="M474.8,351.24c-2.75-3.26-6.17-4.79-8.6-4.48C469,345.59,472.55,346.77,474.8,351.24Z" transform="translate(-313.99 -142.76)"/><path class="cbdf2fd3-8ce1-4b1c-a154-376d60e184e7" d="M466.37,349.38c-2.56.26-4.38,3.36-8.06,1.68C461.46,350.7,463.49,348.39,466.37,349.38Z" transform="translate(-313.99 -142.76)"/><path class="cbdf2fd3-8ce1-4b1c-a154-376d60e184e7" d="M444.51,347.37c.59.65,1.22-.43,1.81,0a6.09,6.09,0,0,1-8.43,1.58,35.87,35.87,0,0,0,4.24,0c1-.13,2.37.07,2.39-1.6Z" transform="translate(-313.99 -142.76)"/><path class="5536cdf3-4741-400b-b73a-0ad0e31ac487" d="M452.22,351.33c2.55-3,6.2-3.1,10.19-4.07C459.07,349.93,455,349,452.22,351.33Z" transform="translate(-313.99 -142.76)"/><path class="5536cdf3-4741-400b-b73a-0ad0e31ac487" d="M467,343.38c1.33,1.3.25,1.87-.8,2a6.3,6.3,0,0,1-5.17-1.13c.66-.77,1.46,0,2-.38l0,0c1.17.7,2.34,1.9,3.51,0l0,0c.45.09.68,0,.54-.53Z" transform="translate(-313.99 -142.76)"/><path class="57172bee-d2e0-44a3-84bf-a8c2543cd435" d="M466.55,343.86c-1.17,1.91-2.34.7-3.51,0A9.52,9.52,0,0,1,466.55,343.86Z" transform="translate(-313.99 -142.76)"/><path class="57172bee-d2e0-44a3-84bf-a8c2543cd435" d="M467.05,343.36c.14.5-.1.62-.54.53C466.26,343.27,466.73,343.39,467.05,343.36Z" transform="translate(-313.99 -142.76)"/></svg>