<svg id="435b8878-8825-45d1-acb3-e40ad99d48c8" data-name="Capa 1" xmlns="http://www.w3.org/2000/svg" viewBox="0 0 213.81 309.66"><defs><style>.dd54976c-272f-4b2f-a6cd-c7a12ac892a3{fill:#b82d20;}.b1356255-6a13-434a-a819-bd2e21afc5d1{fill:#b7594e;}.\30 0d8f0a3-542a-408f-be46-fdbe6638311f{fill:#fffefe;}.\35 39ca670-7ce0-4d7f-9b6e-a89ada8fdf66{fill:#8f7051;}.\34 848a2f2-f81c-4b46-bb6e-abb0e41060b1{fill:#181814;}.\37 62c6a96-e777-4c35-bbf7-d05ecc1234d3{fill:#f5f5f5;}.\38 fa80fcb-5398-4671-99cc-d0c216faa6cf{fill:#bcbbbc;}.\30 5dd3063-c937-46f6-aba0-2133bd07e265{fill:#a69480;}.\33 5386027-0275-4acf-87c4-c2509a7bf0b2{fill:#6e5a41;}.c0f12bab-31b9-4c9a-9b9e-87da2a42671c{fill:#454545;}.\38 53dc0a5-8927-4538-99bf-b0228e4339d6{fill:#e0dfdf;}.\38 f136a89-a8cd-447a-b57a-fe13a14cef4c{fill:#462b15;}.\32 7638558-226c-425c-b225-ec910e707907{fill:#f7cca0;}.\32 854640e-cb87-4350-a894-ea6001b8466a{fill:#509541;}.bfe8da6c-f2dc-4533-8044-b7dd14005c28{fill:#8c6238;}.\39 477b6d3-e324-497b-8cfd-4bc64065c8bf{fill:#9c9b9b;}</style></defs><title>card-25</title><path class="dd54976c-272f-4b2f-a6cd-c7a12ac892a3" d="M331.65,204.64c1.53-2.82,4.2-3.61,7.1-3.9a39.4,39.4,0,0,1,4-.1H530.93c1.33,0,2.67,0,4,.09,4.79.35,7.65,3,8.42,7.68a21.72,21.72,0,0,1,.24,3.48q0,143.2,0,286.41a27.6,27.6,0,0,1-.08,3c-.68,6.23-3.77,9-10.06,9H340.28c-3.52,0-6.57-.88-8.62-4-1.07-2.69-1.09-5.5-1.08-8.34q0-142.36,0-284.73C330.57,210.3,330.56,207.41,331.65,204.64ZM539.23,335.74c.24-4.31.19-8.61,0-12.92a3.38,3.38,0,0,0,0-3c0-.5.07-1,.07-1.5q0-53.5,0-107c0-.42,0-.83,0-1.25-.23-3-1.76-4.74-4.78-5.16a27.83,27.83,0,0,0-3.74-.14H342.3c-7,0-8.14,1.19-8.14,8.12q0,29.5,0,59c0,8.25.05,16.5.08,24.75,0,.25,0,.5,0,.75q0,101.08,0,202.17c0,4.67,1.65,6.24,6.37,6.24h114q39.36,0,78.72,0c2.22,0,4.19-.33,5.31-2.46a9.15,9.15,0,0,0,.68-4.39q0-50.35,0-100.71,0-29.54,0-59.08Z" transform="translate(-329.79 -200.63)"/><path class="b1356255-6a13-434a-a819-bd2e21afc5d1" d="M331.65,204.64c-1.09,2.77-1.08,5.67-1.07,8.59q0,142.36,0,284.73c0,2.84,0,5.65,1.08,8.34-1.89-2.2-1.85-4.89-1.86-7.54q0-52.59,0-105.18,0-90.69,0-181.38C329.8,209.53,329.81,206.85,331.65,204.64Z" transform="translate(-329.79 -200.63)"/><path class="00d8f0a3-542a-408f-be46-fdbe6638311f" d="M334.25,296.65c0-8.25-.08-16.5-.08-24.75q0-29.5,0-59c0-6.94,1.17-8.12,8.14-8.12H530.8a27.83,27.83,0,0,1,3.74.14c3,.41,4.55,2.12,4.78,5.16,0,.41,0,.83,0,1.25q0,53.5,0,107c0,.5,0,1-.07,1.5-1.11-.26-2.12.24-3.16.47-2.15.47-4.14,1.59-6.42,1.55-.17-1.76,2.24-.71,2.4-2.35a27.43,27.43,0,0,0-6.43,2.23l-1.26.23-.59-.45.82-2.08c5.58-14.05.85-28.15-12.22-35.67-7.39-4.25-15.49-5-23.87-4.08a26.58,26.58,0,0,0-23.47,25.81c0,1.88,0,3.76,0,5.93l-3.37-2.17c.09-1.07,1.31-.68,1.84-1.41a25.44,25.44,0,0,0-3.29-2.15c-1.08-.5-2.47-1.29-3.07.72-2.79-1.72-5.58-3.45-8.39-5.14-1-.59-2.06-1-2.81.3s.11,2,1.09,2.59c1.2.7,2.23,1.46,1.67,3.1-1.42.05-.45.95-.52,1.48-1.2-.25-2.41-.47-3.6-.76-1-.23-1.65,0-1.89,1a1.63,1.63,0,0,0,.83,2.09,8.75,8.75,0,0,0,3.58.79c.22,1,1,.91,1.7.83l.17,0h.17c.38.52,1,.52,1.52.6l-1.5.84-1.95-.37c-1-.51-2-.14-3-.26-.33,0-.75.15-.61.51s.69.28,1.09.21l.82.32-.82.32a1.34,1.34,0,0,0-1.58,1l2.56-.13,3.49.18.31.79c-1.79,1.39-3.92.62-5.89.93-1,.16-2.1.13-2.28,1.39s.6,1.65,1.74,1.93c2.25.55,4.41-.54,6.62-.17a7.24,7.24,0,0,0,4.5.52h1.5l.49,0,.53,0a36.67,36.67,0,0,1,9.47-1.11c2.94-.09,4.17,1.8,2.73,4.43a135.87,135.87,0,0,0-10.39,24.74,4.42,4.42,0,0,0-.21,2.86c.68,2.2-1.17,3.89-3.43,3.35a17.94,17.94,0,0,0-5.69-.55c-3.28.28-5.93,1.61-7.19,4.88a16.36,16.36,0,0,0-.39,9.09,1.58,1.58,0,0,0,2,1.42c1-.12,1.33-.88,1.31-1.8,0-1.74-.21-3.49-.11-5.23.1-1.91.83-3.67,2.7-4.45,2.68-1.11,5.36-.26,8.06.24,2,.36,1.37,2.26,2.31,3.19-.17,1.66-1.7,1.15-2.62,1.63a12.05,12.05,0,0,0-1.7.21c-.67.18-1.74,0-1.84.91-.12,1.21,1.41.32,1.8,1-1.52,1.63-3,3.14-4.41,4.78a2.57,2.57,0,0,1-2.11,1,4.41,4.41,0,0,0-4.33,3.43c-.37,1.14-.55,2.49-1.95,3-3.63,1-7.57,1.14-10.48,4-.06,1.07-.88,1-1.61,1.07-12.58-5.69-25.17-6.19-37.78-.07a11.38,11.38,0,0,0-5.7-5.7c-1-.41-2.6.13-2.87-1s.53-2.18.87-3.29a19,19,0,0,0,.69-2.14c1.13-6.25.66-12.16-4-17a31.89,31.89,0,0,0-4-3c6.84-5.25,10.58-12,9.21-20.58-1.24-7.8-8.6-14.18-17-15.59a32.15,32.15,0,0,0-6.73-.1c-.94,0-1.5.08-1.32-1.29.88-6.76-1.06-10.57-7.12-13.87A28.3,28.3,0,0,0,334.25,296.65Zm116.14,68.58a1.39,1.39,0,0,0-1.27-1c-.84-.13-1.22.41-1.26,1.15s.42.88,1,.82A1.62,1.62,0,0,0,450.39,365.23Z" transform="translate(-329.79 -200.63)"/><path class="539ca670-7ce0-4d7f-9b6e-a89ada8fdf66" d="M334.25,296.65a28.3,28.3,0,0,1,18.62,3c6.06,3.3,8,7.12,7.12,13.87-.18,1.37.38,1.33,1.32,1.29a32.15,32.15,0,0,1,6.73.1c8.36,1.41,15.72,7.79,17,15.59,1.37,8.61-2.37,15.33-9.21,20.58a31.89,31.89,0,0,1,4,3c4.7,4.83,5.16,10.74,4,17a19,19,0,0,1-.69,2.14c-.34,1.1-1.11,2.32-.87,3.29s1.89.56,2.87,1a11.38,11.38,0,0,1,5.7,5.7.17.17,0,0,1-.08.25c-8.19,4.37-13,11.24-15.1,20.18-1,4.23,0,8.4.05,12.6h0c-1.74-1-3.43-2-5.22-2.84-12.78-6.08-21.81.89-28.06,10.62a1.64,1.64,0,0,0,.46,2.43,1.56,1.56,0,0,0,2.33-.66c.54-.84,1.15-1.63,1.74-2.44,2.58-3.58,5.67-6.67,9.95-8,6.59-2.05,12.24.44,17.44,4.33,1.34,1,.13,1.47-.52,2a31.64,31.64,0,0,0-9.14,12c-4.18,10-4.18,20.58-4.37,31.13-.08,4.35,1.52,7.16,5.68,9.63a20.77,20.77,0,0,1,9.13,13,6.86,6.86,0,0,1-2,6.85,18.5,18.5,0,0,1-5.87,3.7c-1.28.55-2,1.4-1.38,2.71s1.81.92,2.82.46a30.81,30.81,0,0,0,3.78-1.92c6.44-4.07,8.09-9.73,4.72-16.51-1.06-2.12-2.5-4-3.77-6.07.23-.13.37-.29.49-.28a81.38,81.38,0,0,0,27-1.44,3.3,3.3,0,0,1,2.89.16c3.39,2.44,6.7,4.94,8.6,8.84s1.45,7.32-1.55,10.51c-1.08,1.15-2.26,2.22-3.41,3.31a1.45,1.45,0,0,0-.28,2.19,1.49,1.49,0,0,0,2.38.25,31.6,31.6,0,0,0,3.38-3c2.84-3.19,4.88-6.64,3.91-11.26-1.06-5-4.5-8.25-8.11-11.34a3.75,3.75,0,0,1-1.53-3.37,54.2,54.2,0,0,0-1.81-17.53c-.66-2.23.31-3.75,2.54-4.48a14.47,14.47,0,0,0,5.47-3.38c2-1.87,2-1.87,3,.74,1.78,4.3,3.41,8.71,6.64,12.21s6.36,3.25,8.81-.63a34.24,34.24,0,0,0,4.81-15.06c.2-1.95,0-4-2.57-4.38-2.09-.32-4.51,1.59-4.88,3.79-.28,1.65-.08,3.08,2.07,3.15,1,0,1.57.29,1.24,1.49-.83,3-1.5,6-3.06,8.68-1.36,2.36-2.55,2.42-4.35.27-2.45-2.93-3.7-6.47-5.24-9.88-.92-2-.84-3,1.67-3.62,13.06-3.43,22.89-16.43,23.3-29.81a33.93,33.93,0,0,0-5-19.7c.89-1.05,3.09-.45,3.25-2.22a35.1,35.1,0,0,0,.13-8.18,2.69,2.69,0,0,1,1.6-3.18,25.87,25.87,0,0,1,6.6-2.86,18,18,0,0,0,4.18-1.59c2.53-1.26.94-3.49.47-4.81s-1.63.35-2.43.74c-1.69.82-2.94,2.56-5,2.6-2.47,0-4.54.55-5.27,3.31a2.62,2.62,0,0,1-2.62,2.24l0-.92c1.39-.51,1.57-1.85,1.95-3a4.41,4.41,0,0,1,4.33-3.43,2.57,2.57,0,0,0,2.11-1c1.37-1.64,2.89-3.15,4.41-4.78-.39-.72-1.92.17-1.8-1,.1-1,1.16-.73,1.84-.91a12.05,12.05,0,0,1,1.7-.21c-.64,1.5-.17,2.14,1.45,1.84l3.14-.59c1.76.9,3.43,2.13,5.3,2.65a66.64,66.64,0,0,1,12.13,5c0,.91-.06,1.83-.13,2.74-.2,2.65-.4,5.31-.66,8-.06.6.07,1.5-.82,1.61-1.06.13-1.08-.89-1.27-1.54a23.09,23.09,0,0,1-.66-3.17c-.37-2.48-.69-5-1.08-7.77-1.63,1.43-2.88,2.64-4.24,3.72s-1.57,2-.24,3.19a5.49,5.49,0,0,1,1.8,4.21,13.85,13.85,0,0,1-2.24,7.79,26,26,0,0,1-6.85,6.84c-.41.3-1.54.44-.81,1.37,2.93,3.73,2.87,7.43,0,11.14-.69.88-.52,1.57.35,2.32a12.22,12.22,0,0,1,4.11,6.71c1.56,7.22,1.27,14.09-4.23,19.84-.54.56-1,1.23-1.58,2a11.73,11.73,0,0,1,7.36,7.59,17.78,17.78,0,0,1,.77,6.41c0,.81-.25,1.73,1.25,1.24,4.22-1.37,8.24-.5,12,1.49,1.53.8,2.23.79,3.07-1,3.37-7.26,10.85-13.49,20.52-8.46,1,.52,1.46.31,1.77-.77,2.28-7.76,7.94-12.09,15.25-14.5,2.19-.72,2.38-1.42,1.44-3.43-3.33-7.08-2.46-13.73,1.88-20.3,3.79-5.74,10.19-7.73,15.2-11.69q0,50.35,0,100.71a9.15,9.15,0,0,1-.68,4.39c-1.12,2.13-3.09,2.47-5.31,2.46q-39.36-.05-78.72,0h-114c-4.71,0-6.37-1.57-6.37-6.24q0-101.08,0-202.17C334.2,297.15,334.23,296.9,334.25,296.65Z" transform="translate(-329.79 -200.63)"/><path class="00d8f0a3-542a-408f-be46-fdbe6638311f" d="M539.23,398.26c-5,4-11.41,6-15.2,11.69-4.34,6.57-5.21,13.22-1.88,20.3.94,2,.75,2.71-1.44,3.43-7.31,2.42-13,6.74-15.25,14.5-.32,1.08-.77,1.29-1.77.77-9.67-5-17.15,1.2-20.52,8.46-.84,1.81-1.54,1.82-3.07,1-3.81-2-7.83-2.86-12-1.49-1.5.49-1.27-.44-1.25-1.24a17.78,17.78,0,0,0-.77-6.41,11.73,11.73,0,0,0-7.36-7.59c.6-.76,1-1.43,1.58-2,5.5-5.74,5.79-12.62,4.23-19.84a12.22,12.22,0,0,0-4.11-6.71c-.87-.75-1-1.43-.35-2.32,2.88-3.71,3-7.4,0-11.14-.73-.93.4-1.08.81-1.37a26,26,0,0,0,6.85-6.84,13.85,13.85,0,0,0,2.24-7.79,5.49,5.49,0,0,0-1.8-4.21c-1.33-1.24-1.08-2.16.24-3.19s2.62-2.28,4.24-3.72c.38,2.8.7,5.29,1.08,7.77a23.09,23.09,0,0,0,.66,3.17c.19.65.21,1.67,1.27,1.54.89-.11.76-1,.82-1.61.26-2.65.46-5.3.66-8,.07-.91.08-1.83.13-2.74.7.23,1.39.47,2.09.68,4.88,1.46,9.53,1.57,13.37-2.5a1.36,1.36,0,0,1,1.55-.36c3.53,1,7,2,10.05,4.19,1.83,1.31,2,3,.84,4.78a14,14,0,0,1-3.92,3.79c-1,.72-2,1.45-1,2.79s2.08.63,3.07-.08a22.76,22.76,0,0,0,4.09-3.65c3.15-3.71,2.78-7.3-1.11-10.32-2.6-2-5.67-3.06-8.74-4.11-.8-.27-2.36-.09-2.24-1.09.16-1.39.23-3.4,1.49-4,1.56-.73,1.7-1.8,2-3.08a151.23,151.23,0,0,1,7.24-22c.94-2.27,4.77-3.83,6.15-2.51,2.7,2.58,5.33,5.22,8,7.84l0,1.06h-1.92l8.37,6.91c.76.62,1.2,2.06,2.61,1l3.73,3.1c.59-1.53-1.76-1.86-.94-3.14,1-1.59-.1-2.36-1-3.36-1.49-1.69-3.76-2.7-4.49-5.07.64-1,1.07-1.92,2.57-.74a4.84,4.84,0,0,0,3.36,1.21c.13-1.9-2.2-2.24-2.33-3.92l.5-1c.38-1.92,1.66-2.2,3.13-1.43,1.74.92,3.62,1,5.46,1.34Q539.24,368.72,539.23,398.26ZM475.7,393.2a8.63,8.63,0,0,0,.25,1.19c.36,1,.86,2.24,2.09,2s.74-1.62,1.06-2.48a2.21,2.21,0,0,0,0-1,1.68,1.68,0,0,0-1.46-1.72c-1-.13-2-.08-2.07,1.37-2,.44-3.78,2.91-2.8,4.81,1.39,2.71-.15,4.32-1.29,6.26-.84,1.43-2,2.76-1.6,5.15a37.08,37.08,0,0,0,4.32-7.9,2.69,2.69,0,0,0-.16-2.17C473,396.42,473.91,394.69,475.7,393.2Zm7.13-15.2c3.8,1.77,3.8,1.77,2.48,5.47a13.16,13.16,0,0,0-.58,1.91,6.84,6.84,0,0,0,3.06,7.17c-2.72-3.49-2.43-7.07-.73-10.8.39-.85.55-2.14-.51-2.72-1.52-.84-2.34-2.26-3.31-3.64-2,3.11-2,4.27-.15,6.3C483.5,380.43,482.48,379.26,482.83,378Z" transform="translate(-329.79 -200.63)"/><path class="4848a2f2-f81c-4b46-bb6e-abb0e41060b1" d="M520.2,343.2c-2.66-2.62-5.29-5.27-8-7.84-1.38-1.32-5.21.24-6.15,2.51a151.23,151.23,0,0,0-7.24,22c-.31,1.28-.46,2.36-2,3.08-1.26.59-1.33,2.61-1.49,4-.12,1,1.45.82,2.24,1.09,3.07,1,6.14,2.09,8.74,4.11,3.88,3,4.25,6.61,1.11,10.32a22.76,22.76,0,0,1-4.09,3.65c-1,.72-2.09,1.3-3.07.08s0-2.07,1-2.79a14,14,0,0,0,3.92-3.79c1.13-1.82,1-3.46-.84-4.78-3-2.17-6.52-3.22-10.05-4.19a1.36,1.36,0,0,0-1.55.36c-3.84,4.07-8.49,4-13.37,2.5-.7-.21-1.39-.45-2.09-.68a66.66,66.66,0,0,0-12.13-5c-1.87-.51-3.54-1.74-5.3-2.65l-2-2.88c-.93-.93-.32-2.83-2.31-3.19-2.7-.49-5.39-1.35-8.06-.24-1.87.78-2.6,2.54-2.7,4.45-.09,1.74.08,3.48.11,5.23,0,.92-.27,1.68-1.31,1.8a1.58,1.58,0,0,1-2-1.42,16.36,16.36,0,0,1,.39-9.09c1.26-3.26,3.91-4.6,7.19-4.88a17.94,17.94,0,0,1,5.69.55c2.26.54,4.11-1.15,3.43-3.35a4.42,4.42,0,0,1,.21-2.86,135.87,135.87,0,0,1,10.39-24.74c1.43-2.63.21-4.52-2.73-4.43a36.67,36.67,0,0,0-9.47,1.11l-.28-.59-.25.62-.49,0h-1.5c-1.28-2.06-2.94-.89-4.5-.52-2.21-.37-4.37.72-6.62.17-1.14-.28-1.9-.75-1.74-1.93s1.25-1.23,2.28-1.39c2-.3,4.1.46,5.89-.93,2.45,1.11,5,.41,7.53.51l3,0c.4-.06.81-.1,1.2-.2.79-.19,1.85.17,2-1.24a2,2,0,0,0-1.35-2.3l-2-.9c-1.62-1-3.47-1.2-5.23-1.74-.44-2.16-2.48-2.18-4-3a2,2,0,0,0-2-.54c.56-1.64-.46-2.39-1.67-3.1-1-.58-1.86-1.32-1.09-2.59s1.83-.89,2.81-.3c2.81,1.69,5.59,3.42,8.39,5.14a17.94,17.94,0,0,0,4.52,2.84l3.37,2.17c0-2.17,0-4.05,0-5.93a26.58,26.58,0,0,1,23.47-25.81c8.39-.92,16.48-.17,23.87,4.08,13.07,7.53,17.8,21.62,12.22,35.67l-.82,2.08c-.06.19-.24.5-.18.55.25.23.53.12.76-.1l1.26-.23,1,.44c-.21.2-.89.21-.71.33.54.35,1.28.6,1.77-.22l-.06,0c.87.59,1.46.09,2-.5l0,.06c2.27,0,4.27-1.07,6.42-1.55,1-.23,2-.73,3.16-.47a3.37,3.37,0,0,1,0,3c-2.06.83-4.62.94-5.49,4,0-2.13-.77-2.35-2.38-1.83-3.34,1.09-6.73,2.06-10.15,2.88a2.83,2.83,0,0,0-2.55,2.78c-1.34-1-2.1-.52-2.43,1a13.49,13.49,0,0,0-.16,1.48c-.92.67-.2,1.07.26,1.5l4.31,4.07c1.76,1.77,3.25,3.84,5.56,5l.18.05.17-.07c.73,2.36,3,3.37,4.49,5.07.88,1,2,1.78,1,3.36-.82,1.28,1.52,1.61.94,3.14l-3.73-3.1c-.69-.86-1.23-1.93-2.54-2l0,0c.13-.48,0-.75-.53-.54l0,0c.24-.61-.15-.58-.55-.53l0,0c.08-.44-.06-.66-.54-.55l0,0c.21-.52-.07-.86-.45-1.15-.09-.27-.23-.46-.56-.38h0c-.15-.56-.35-1-1-.51l0,0q.39-.9-.52-.53l0,0q.33-.85-.52-.52l0,0C522.34,344.23,521,344,520.2,343.2Zm-58.42,19.45a10.92,10.92,0,0,0,4.74,2.57c3.39,1.11,2.9,1.65,3.77-2.3.44-.4,1-1,.92.26,0,1.57.22,3,1.67,3.92a29.26,29.26,0,0,0,9,4.11c5.16,1.17,8.3-.41,10.41-5.26.46-1.06.74-2.2,1.16-3.28.49-1.27,0-1.95-1.13-2.57a59.11,59.11,0,0,0-28.9-7.45c-.73,0-1.48-.13-2,.72C460,355.94,458.4,359.58,461.77,362.65Zm60.42-61.92v-1c.06-1,.15-2.29-1.38-2-4.43.8-6.17-.64-5.62-5,.31-2.48-.25-4.16-2.61-5.59-7.64-4.64-15.85-5.74-24.48-4.42a23.43,23.43,0,0,0-20.17,21,27.36,27.36,0,0,0,3.43,15.85c.87-1.17,1.53-2,2.93-2,10.71-.44,21,1.3,30.14,7,3.83,2.39,6.9,2.77,10.92.92,2.48-1.14,4.43-2.34,5.63-4.8a28.91,28.91,0,0,0,2.2-19.42l-.27-.57Zm-44.53,19.58c-2.36-.68-3.69.77-4.95,3.11a151.84,151.84,0,0,0-10.52,23.66c-.75,2.25-.29,2.64,1.92,2.65a59.23,59.23,0,0,1,29.74,8c1.91,1.1,2.38.62,2.89-1.26a134.67,134.67,0,0,1,9.19-25.25c.87-1.75.36-2.42-1.06-3.29A52.74,52.74,0,0,0,477.66,320.31Z" transform="translate(-329.79 -200.63)"/><path class="762c6a96-e777-4c35-bbf7-d05ecc1234d3" d="M518.68,330.7a2.83,2.83,0,0,1,2.55-2.78c3.42-.82,6.81-1.79,10.15-2.88,1.61-.53,2.4-.3,2.38,1.83.87-3.11,3.42-3.22,5.49-4,.16,4.31.21,8.61,0,12.92-2.32-.52-4.63-1.07-7-1.55-4.51-.93-8.86-2.52-13.46-3l-.06-.07A.28.28,0,0,0,518.68,330.7Zm15.26-.19c-3.07-1-4.58-1-6.29-.1A17.88,17.88,0,0,0,533.94,330.51Z" transform="translate(-329.79 -200.63)"/><path class="8fa80fcb-5398-4671-99cc-d0c216faa6cf" d="M518.82,331.14c4.6.53,9,2.12,13.46,3,2.33.48,4.64,1,7,1.55l0,3.44c-1.84-.36-3.72-.42-5.46-1.34-1.46-.77-2.75-.49-3.13,1.43-.21-.94-.19-2.33-1.16-2.53-2.74-.59-5.31-2.17-8.27-1.61l-.65.14h.09c-.26-.83-.9-.59-1.47-.53-.76-1.08-2.2-.82-3.11-1.59a13.5,13.5,0,0,1,.16-1.48c.32-1.49,1.08-2,2.43-1a.28.28,0,0,1,.07.37c-.4.48-1.35.48-1.34,1.44C518.59,332.62,518.58,331.77,518.82,331.14Z" transform="translate(-329.79 -200.63)"/><path class="762c6a96-e777-4c35-bbf7-d05ecc1234d3" d="M440.72,379.12a2.62,2.62,0,0,0,2.62-2.24c.73-2.76,2.79-3.27,5.27-3.31,2.05,0,3.3-1.78,5-2.6.8-.39,1.93-2.16,2.43-.74s2.06,3.55-.47,4.81a18,18,0,0,1-4.18,1.59,25.87,25.87,0,0,0-6.6,2.86,2.69,2.69,0,0,0-1.6,3.18,35.1,35.1,0,0,1-.13,8.18c-.17,1.77-2.36,1.17-3.25,2.22l-.49-.07c-2.67-4.23-6.67-7-10.71-9.74.74-.06,1.55,0,1.61-1.07Z" transform="translate(-329.79 -200.63)"/><path class="4848a2f2-f81c-4b46-bb6e-abb0e41060b1" d="M428.59,383.26c4,2.73,8,5.51,10.71,9.74a5,5,0,0,1-2.19,2.25c-4.09-5.45-9.15-9.66-15.81-11.47-9.83-2.66-19.54-2.44-28.89,2.08a3,3,0,0,1-1.67-2.43.17.17,0,0,0,.08-.25C403.42,377.08,416,377.58,428.59,383.26Z" transform="translate(-329.79 -200.63)"/><path class="8fa80fcb-5398-4671-99cc-d0c216faa6cf" d="M454.67,310.73c1.76.54,3.61.78,5.23,1.74l-.24.3c-1,.71-1.29,2.41-3,2l-3.48-.6a3,3,0,0,0-2.49-1c-.56-.07-1.14-.08-1.52-.6l1-2.42Z" transform="translate(-329.79 -200.63)"/><path class="4848a2f2-f81c-4b46-bb6e-abb0e41060b1" d="M453.18,314.2l3.48.6-.48.85-7,.18-3.49-.18-1-.86.82-.32-.82-.32c.77-.56,1.71-.15,2.52-.45l1.95.37Z" transform="translate(-329.79 -200.63)"/><path class="8fa80fcb-5398-4671-99cc-d0c216faa6cf" d="M447.13,311.83a8.76,8.76,0,0,1-3.58-.79,1.63,1.63,0,0,1-.83-2.09c.24-1,.94-1.22,1.89-1,1.19.29,2.4.51,3.59.76l-.45,3Z" transform="translate(-329.79 -200.63)"/><path class="8fa80fcb-5398-4671-99cc-d0c216faa6cf" d="M461.69,309.23a17.94,17.94,0,0,1-4.52-2.84c.6-2,2-1.21,3.07-.72a25.44,25.44,0,0,1,3.29,2.15C463,308.55,461.78,308.16,461.69,309.23Z" transform="translate(-329.79 -200.63)"/><path class="05dd3063-c937-46f6-aba0-2133bd07e265" d="M440.72,379.12l-10.52,3.07c2.91-2.85,6.85-3,10.48-4Z" transform="translate(-329.79 -200.63)"/><path class="762c6a96-e777-4c35-bbf7-d05ecc1234d3" d="M449.19,315.83l7-.18.51.19.46.39-.12.91c-2.52-.1-5.08.6-7.53-.51Z" transform="translate(-329.79 -200.63)"/><path class="35386027-0275-4acf-87c4-c2509a7bf0b2" d="M447.76,311.69l.45-3c.07-.53-.9-1.42.52-1.48a2,2,0,0,1,2,.54,4.69,4.69,0,0,0-.52,2.43l-1,2.42H449l-.17,0Z" transform="translate(-329.79 -200.63)"/><path class="35386027-0275-4acf-87c4-c2509a7bf0b2" d="M457.83,362.23l2,2.88-3.14.59c-1.63.29-2.1-.34-1.45-1.84C456.13,363.39,457.66,363.9,457.83,362.23Z" transform="translate(-329.79 -200.63)"/><path class="c0f12bab-31b9-4c9a-9b9e-87da2a42671c" d="M526.67,322.14l-1-.44a27.43,27.43,0,0,1,6.43-2.23c-.15,1.64-2.56.59-2.4,2.35l0-.06c-.93-.84-1.48-.14-2,.5l.06,0Z" transform="translate(-329.79 -200.63)"/><path class="c0f12bab-31b9-4c9a-9b9e-87da2a42671c" d="M449.69,320.7c1.56-.37,3.22-1.54,4.5.52A7.24,7.24,0,0,1,449.69,320.7Z" transform="translate(-329.79 -200.63)"/><path class="05dd3063-c937-46f6-aba0-2133bd07e265" d="M450.39,365.23a1.62,1.62,0,0,1-1.56,1c-.55.06-1-.2-1-.82s.42-1.28,1.26-1.15A1.39,1.39,0,0,1,450.39,365.23Z" transform="translate(-329.79 -200.63)"/><path class="853dc0a5-8927-4538-99bf-b0228e4339d6" d="M453.18,314.2l-4-.12,1.5-.84A3,3,0,0,1,453.18,314.2Z" transform="translate(-329.79 -200.63)"/><path class="c0f12bab-31b9-4c9a-9b9e-87da2a42671c" d="M447.24,313.7c-.81.31-1.75-.1-2.52.45-.4.07-.9.26-1.09-.21s.27-.55.61-.51C445.24,313.56,446.28,313.19,447.24,313.7Z" transform="translate(-329.79 -200.63)"/><path class="c0f12bab-31b9-4c9a-9b9e-87da2a42671c" d="M444.72,314.8l1,.86-2.56.13A1.34,1.34,0,0,1,444.72,314.8Z" transform="translate(-329.79 -200.63)"/><path class="853dc0a5-8927-4538-99bf-b0228e4339d6" d="M447.76,311.69l1.07,1c-.74.09-1.47.15-1.7-.83Z" transform="translate(-329.79 -200.63)"/><path class="c0f12bab-31b9-4c9a-9b9e-87da2a42671c" d="M456.18,321.19l.25-.62.28.59Z" transform="translate(-329.79 -200.63)"/><path class="c0f12bab-31b9-4c9a-9b9e-87da2a42671c" d="M455.18,321.23h0Z" transform="translate(-329.79 -200.63)"/><path class="8f136a89-a8cd-447a-b57a-fe13a14cef4c" d="M437.11,395.25A5,5,0,0,0,439.3,393l.49.07a33.93,33.93,0,0,1,5,19.7c-.41,13.38-10.23,26.38-23.3,29.81-2.52.66-2.59,1.58-1.67,3.62,1.54,3.41,2.79,7,5.24,9.88,1.8,2.15,3,2.09,4.35-.27,1.56-2.7,2.23-5.71,3.06-8.68.33-1.2-.2-1.46-1.24-1.49-2.14-.06-2.35-1.5-2.07-3.15.38-2.2,2.79-4.11,4.88-3.79,2.57.39,2.77,2.44,2.57,4.38a34.24,34.24,0,0,1-4.81,15.06c-2.45,3.88-5.65,4-8.81.63s-4.86-7.9-6.64-12.21c-1.08-2.61-1.07-2.61-3-.74a14.47,14.47,0,0,1-5.47,3.38c-2.23.73-3.2,2.25-2.54,4.48a54.2,54.2,0,0,1,1.81,17.53,3.75,3.75,0,0,0,1.53,3.37c3.61,3.09,7.05,6.32,8.11,11.34,1,4.63-1.07,8.07-3.91,11.26a31.6,31.6,0,0,1-3.38,3,1.49,1.49,0,0,1-2.38-.25,1.45,1.45,0,0,1,.28-2.19c1.15-1.09,2.32-2.16,3.41-3.31,3-3.19,3.45-6.61,1.55-10.51s-5.21-6.41-8.6-8.84a3.3,3.3,0,0,0-2.89-.16,81.38,81.38,0,0,1-27,1.44c-.12,0-.26.14-.49.28,1.27,2,2.72,3.95,3.77,6.07,3.37,6.78,1.72,12.44-4.72,16.51a30.81,30.81,0,0,1-3.78,1.92c-1,.46-2.21.85-2.82-.46s.1-2.16,1.38-2.71a18.5,18.5,0,0,0,5.87-3.7,6.86,6.86,0,0,0,2-6.85,20.77,20.77,0,0,0-9.13-13c-4.16-2.47-5.75-5.28-5.68-9.63.18-10.55.18-21.15,4.37-31.13a31.64,31.64,0,0,1,9.14-12c.64-.54,1.86-1,.52-2-5.2-3.89-10.84-6.39-17.44-4.33-4.27,1.33-7.37,4.42-9.95,8-.58.81-1.2,1.6-1.74,2.44a1.56,1.56,0,0,1-2.33.66,1.64,1.64,0,0,1-.46-2.43c6.25-9.73,15.28-16.69,28.06-10.62,1.79.85,3.48,1.89,5.22,2.84a.63.63,0,0,0,.08.17s.09,0,.14,0l-.21-.21c-.1-4.2-1-8.37-.05-12.6,2.1-8.95,6.91-15.82,15.1-20.18a3,3,0,0,0,1.67,2.43.47.47,0,0,1-.25.36,25.16,25.16,0,0,0-7.5,6.06c-4.59,5.64-7,12-6,19.34,1.35,10.7,6.1,19.18,15.79,24.46a40.18,40.18,0,0,0,15.23,4.28c8.42.91,15.82-1.18,22.05-6.92a29.22,29.22,0,0,0,9.86-20.08c.41-6.29-.3-12.45-4.45-17.66A1.5,1.5,0,0,1,437.11,395.25Zm-26.59,48.69c-1.42-.26-2.55-.52-3.69-.67-12.49-1.66-22.25-7.34-27.86-19-.8-1.67-1.56-1.49-2.79-.53a27.45,27.45,0,0,0-9.49,13.46c-3.14,9.94-3.21,20.25-3,30.55a2.21,2.21,0,0,0,1.39,2.19c3.5,1.31,6.67,3.17,10.68,3.5a84,84,0,0,0,25.9-1.95,2.23,2.23,0,0,0,2.05-2.57,99.37,99.37,0,0,0-.53-10.68c-.61-4.37-2.35-7.67-6.78-9.17a27.41,27.41,0,0,0-4-1.36c-.62-.11-1.2-.41-1-1.12s.74-.77,1.4-.55c1.26.42,2.57.69,3.79,1.19A23.13,23.13,0,0,1,402,450.3c.49.38,1,1.25,1.64.56s-.4-.94-.76-1.35a11,11,0,0,0-2.83-2.75c-.67-.37-1.75-.83-1.23-1.85.63-1.24,1.54-.15,2.05.18C404.29,447.35,407.35,446.66,410.52,443.94Z" transform="translate(-329.79 -200.63)"/><path class="05dd3063-c937-46f6-aba0-2133bd07e265" d="M482.83,378c-.35,1.26.67,2.42.26,3.69-1.85-2-1.84-3.19.15-6.3,1,1.38,1.79,2.8,3.31,3.64,1.06.58.9,1.87.51,2.72-1.7,3.72-2,7.31.73,10.8a6.84,6.84,0,0,1-3.06-7.17,13.16,13.16,0,0,1,.58-1.91C486.63,379.78,486.63,379.78,482.83,378Z" transform="translate(-329.79 -200.63)"/><path class="c0f12bab-31b9-4c9a-9b9e-87da2a42671c" d="M520.59,335.27l.65-.14,8.93,5.14c.14,1.67,2.46,2,2.33,3.92a4.84,4.84,0,0,1-3.36-1.21c-1.5-1.18-1.93-.22-2.57.74l-.17.07-.18-.05c.65-1.5.51-2.61-1.28-3.22a2.56,2.56,0,0,1-1.74-1.27c1.53-.38,2.52,1.29,4.25,1.15-.63-1.31-1.86-1.51-2.7-2.18C523.42,337.16,521.48,337,520.59,335.27Z" transform="translate(-329.79 -200.63)"/><path class="05dd3063-c937-46f6-aba0-2133bd07e265" d="M475.7,393.2c-1.79,1.49-2.75,3.22-1.63,5.56a2.69,2.69,0,0,1,.16,2.17,37.08,37.08,0,0,1-4.32,7.9c-.43-2.38.76-3.71,1.6-5.15,1.13-1.94,2.68-3.55,1.29-6.26-1-1.9.81-4.37,2.8-4.81Z" transform="translate(-329.79 -200.63)"/><path class="762c6a96-e777-4c35-bbf7-d05ecc1234d3" d="M530.17,340.27l-8.93-5.14c3-.56,5.53,1,8.27,1.61,1,.21.95,1.59,1.16,2.53Z" transform="translate(-329.79 -200.63)"/><path class="539ca670-7ce0-4d7f-9b6e-a89ada8fdf66" d="M475.7,393.2l-.1-.58c0-1.45,1-1.5,2.07-1.37a1.68,1.68,0,0,1,1.46,1.72,2.21,2.21,0,0,1,0,1c-.33.86.08,2.28-1.06,2.48s-1.73-1-2.09-2A8.63,8.63,0,0,1,475.7,393.2Z" transform="translate(-329.79 -200.63)"/><path class="c0f12bab-31b9-4c9a-9b9e-87da2a42671c" d="M526.63,351.17l-8.37-6.91h1.92c.58.62,1,1.45,2.05,1.44l0,0q-.14.66.52.52l0,0c-.11.45.15.55.52.53l0,0c.15.55.34,1,1,.51h0c-.57.66.06.82.46,1.06a.5.5,0,0,0,.55.47l0,0a.52.52,0,0,0,.54.55l0,0c0,.35.17.56.55.53l0,0c0,.38.18.53.53.54l0,0Z" transform="translate(-329.79 -200.63)"/><path class="8fa80fcb-5398-4671-99cc-d0c216faa6cf" d="M526.63,351.17l.06-1c1.31.08,1.85,1.14,2.54,2C527.83,353.23,527.39,351.79,526.63,351.17Z" transform="translate(-329.79 -200.63)"/><path class="853dc0a5-8927-4538-99bf-b0228e4339d6" d="M522.24,345.7c-1,0-1.47-.82-2.05-1.44l0-1.06C521,344,522.34,344.23,522.24,345.7Z" transform="translate(-329.79 -200.63)"/><path class="27638558-226c-425c-b225-ec910e707907" d="M523.19,301.22a28.91,28.91,0,0,1-2.2,19.42c-1.2,2.46-3.15,3.66-5.63,4.8-4,1.85-7.09,1.47-10.92-.92-9.14-5.7-19.44-7.44-30.14-7-1.41.06-2.06.85-2.93,2a27.36,27.36,0,0,1-3.43-15.85,23.43,23.43,0,0,1,20.17-21c8.63-1.32,16.84-.22,24.48,4.42,2.36,1.43,2.91,3.11,2.61,5.59-.55,4.39,1.19,5.82,5.62,5,1.53-.28,1.44,1,1.38,2a7.93,7.93,0,0,0-3.17,4.38l3.17-3.38.72-.09Z" transform="translate(-329.79 -200.63)"/><path class="2854640e-cb87-4350-a894-ea6001b8466a" d="M477.66,320.31a52.74,52.74,0,0,1,27.2,7.62c1.43.87,1.94,1.53,1.06,3.29a134.67,134.67,0,0,0-9.19,25.25c-.5,1.87-1,2.36-2.89,1.26a59.23,59.23,0,0,0-29.74-8c-2.21,0-2.67-.4-1.92-2.65a151.84,151.84,0,0,1,10.52-23.66C474,321.08,475.3,319.63,477.66,320.31Z" transform="translate(-329.79 -200.63)"/><path class="27638558-226c-425c-b225-ec910e707907" d="M461.77,362.65c-3.37-3.07-1.73-6.72-.28-9.29.48-.85,1.23-.71,2-.72a59.11,59.11,0,0,1,28.9,7.45c1.15.62,1.62,1.3,1.13,2.57-.42,1.08-.7,2.22-1.16,3.28-2.12,4.84-5.25,6.43-10.41,5.26a29.26,29.26,0,0,1-9-4.11c-1.45-.92-1.71-2.35-1.67-3.92,0-1.27-.48-.66-.92-.26C467.46,362.42,464.61,362.88,461.77,362.65Z" transform="translate(-329.79 -200.63)"/><path class="762c6a96-e777-4c35-bbf7-d05ecc1234d3" d="M520.59,335.27c.89,1.68,2.83,1.89,4.16,3,.84.67,2.06.86,2.7,2.18-1.74.15-2.73-1.53-4.25-1.15-.7-.88-1.46-1.48-2.54-.52l-4.31-4.07c-.46-.43-1.18-.83-.26-1.5.92.77,2.36.51,3.11,1.59.33.62.79.89,1.47.53Z" transform="translate(-329.79 -200.63)"/><path class="bfe8da6c-f2dc-4533-8044-b7dd14005c28" d="M461.77,362.65c2.83.23,5.69-.24,8.51.27-.87,4-.38,3.42-3.77,2.3A10.92,10.92,0,0,1,461.77,362.65Z" transform="translate(-329.79 -200.63)"/><path class="853dc0a5-8927-4538-99bf-b0228e4339d6" d="M520.66,338.73c1.08-1,1.84-.36,2.54.52a2.56,2.56,0,0,0,1.74,1.27c1.79.61,1.93,1.72,1.28,3.22C523.91,342.57,522.43,340.5,520.66,338.73Z" transform="translate(-329.79 -200.63)"/><path class="8fa80fcb-5398-4671-99cc-d0c216faa6cf" d="M459.9,312.47l2,.9a2,2,0,0,1,1.35,2.3c-.13,1.41-1.19,1.05-2,1.24-.39.09-.8.13-1.2.2l-.4-4.34Z" transform="translate(-329.79 -200.63)"/><path class="c0f12bab-31b9-4c9a-9b9e-87da2a42671c" d="M459.66,312.76l.4,4.34-3,0,.12-.91c0-.35-.12-.47-.46-.39l-.51-.19.48-.85C458.37,315.17,458.68,313.48,459.66,312.76Z" transform="translate(-329.79 -200.63)"/><path class="853dc0a5-8927-4538-99bf-b0228e4339d6" d="M450.19,310.2a4.69,4.69,0,0,1,.52-2.43c1.48.77,3.52.79,4,3Z" transform="translate(-329.79 -200.63)"/><path class="35386027-0275-4acf-87c4-c2509a7bf0b2" d="M522.19,300.74,519,304.12a7.93,7.93,0,0,1,3.17-4.38Q522.19,300.24,522.19,300.74Z" transform="translate(-329.79 -200.63)"/><path class="00d8f0a3-542a-408f-be46-fdbe6638311f" d="M526.67,322.14l1.06.11c-.49.82-1.23.56-1.77.22C525.79,322.35,526.46,322.34,526.67,322.14Z" transform="translate(-329.79 -200.63)"/><path class="00d8f0a3-542a-408f-be46-fdbe6638311f" d="M527.68,322.27c.56-.65,1.11-1.35,2-.5C529.14,322.37,528.54,322.86,527.68,322.27Z" transform="translate(-329.79 -200.63)"/><path class="8fa80fcb-5398-4671-99cc-d0c216faa6cf" d="M525.23,348.73a.5.5,0,0,1-.55-.47l.1-.68C525.16,347.87,525.44,348.2,525.23,348.73Z" transform="translate(-329.79 -200.63)"/><path class="853dc0a5-8927-4538-99bf-b0228e4339d6" d="M524.78,347.58l-.1.68c-.4-.25-1-.4-.46-1.06C524.55,347.12,524.69,347.31,524.78,347.58Z" transform="translate(-329.79 -200.63)"/><path class="853dc0a5-8927-4538-99bf-b0228e4339d6" d="M524.22,347.19c-.69.53-.88,0-1-.51C523.87,346.16,524.07,346.63,524.22,347.19Z" transform="translate(-329.79 -200.63)"/><path class="00d8f0a3-542a-408f-be46-fdbe6638311f" d="M524.39,321.93c-.23.22-.51.33-.76.1-.06-.06.11-.36.18-.55Z" transform="translate(-329.79 -200.63)"/><path class="8fa80fcb-5398-4671-99cc-d0c216faa6cf" d="M526.73,350.22c-.35,0-.56-.16-.53-.54C526.77,349.47,526.86,349.74,526.73,350.22Z" transform="translate(-329.79 -200.63)"/><path class="8fa80fcb-5398-4671-99cc-d0c216faa6cf" d="M526.23,349.72c-.38,0-.53-.18-.55-.53C526.08,349.14,526.47,349.11,526.23,349.72Z" transform="translate(-329.79 -200.63)"/><path class="8fa80fcb-5398-4671-99cc-d0c216faa6cf" d="M525.73,349.23a.52.52,0,0,1-.54-.55C525.66,348.57,525.8,348.79,525.73,349.23Z" transform="translate(-329.79 -200.63)"/><path class="35386027-0275-4acf-87c4-c2509a7bf0b2" d="M523.19,301.22l-.27-.57Z" transform="translate(-329.79 -200.63)"/><path class="853dc0a5-8927-4538-99bf-b0228e4339d6" d="M522.73,346.2q-.67.15-.52-.52Q523.06,345.35,522.73,346.2Z" transform="translate(-329.79 -200.63)"/><path class="853dc0a5-8927-4538-99bf-b0228e4339d6" d="M523.24,346.71c-.37,0-.63-.08-.52-.53Q523.62,345.81,523.24,346.71Z" transform="translate(-329.79 -200.63)"/><path class="35386027-0275-4acf-87c4-c2509a7bf0b2" d="M533.94,330.51a17.88,17.88,0,0,1-6.29-.1C529.36,329.55,530.88,329.52,533.94,330.51Z" transform="translate(-329.79 -200.63)"/><path class="9477b6d3-e324-497b-8cfd-4bc64065c8bf" d="M518.82,331.14c-.23.63-.23,1.48-1.4,1.37,0-1,.95-1,1.34-1.44Z" transform="translate(-329.79 -200.63)"/><path class="c0f12bab-31b9-4c9a-9b9e-87da2a42671c" d="M520.68,335.28c-.68.35-1.14.09-1.47-.53C519.79,334.69,520.43,334.45,520.68,335.28Z" transform="translate(-329.79 -200.63)"/><path class="27638558-226c-425c-b225-ec910e707907" d="M392.16,386.23a.47.47,0,0,0,.25-.36c9.35-4.52,19.05-4.75,28.89-2.08,6.66,1.8,11.72,6,15.81,11.47a1.5,1.5,0,0,0,0,.46c-.08,3.1-1.79,4.69-4.7,5.45a6.63,6.63,0,0,0-2.57,1.89c-2.35,2.3-2.89,5.33-3.1,8.43s-1.19,4.15-4.13,4.82-6.17,1.39-8.36,4l-1.05,1.28-5-4.33c.1-3-1.33-5.24-3.56-7.07a23,23,0,0,0-13.64-5.5c-1.24-.07-2.16-.08-1.38-1.81C392,397.55,392.52,392,392.16,386.23Z" transform="translate(-329.79 -200.63)"/><path class="853dc0a5-8927-4538-99bf-b0228e4339d6" d="M456.69,315.84c.33-.08.5,0,.46.39Z" transform="translate(-329.79 -200.63)"/><path class="bfe8da6c-f2dc-4533-8044-b7dd14005c28" d="M392.16,386.23c.35,5.72-.17,11.32-2.55,16.6-.78,1.73.14,1.74,1.38,1.81a23,23,0,0,1,13.64,5.5c2.23,1.84,3.66,4.07,3.56,7.07-2.12.66.17,1.29,0,1.94-.58.78-.28,1.74-.55,2.59-.54,0-1.12-.18-1.65.27l1.39,1c0,.61-.83,1.14-.19,1.83-.52.72-1.88,0-2.13,1.24l1.63.56c-.18.18-.62.54-.5.52,1.61-.28,3.51,1.09,4.86-.75,1.68-.14,3.56.09,4.17-2.14l.06-1.55,0-1.38,0-.55c0-1-.71-.26-1-.47,2.19-2.58,5.31-3.27,8.36-4s3.91-1.67,4.13-4.82.75-6.13,3.1-8.43a6.63,6.63,0,0,1,2.57-1.89c2.92-.75,4.62-2.34,4.7-5.45,4.15,5.22,4.85,11.37,4.45,17.66a29.22,29.22,0,0,1-9.86,20.08c-6.24,5.74-13.64,7.83-22.05,6.92a40.18,40.18,0,0,1-15.23-4.28c-9.69-5.28-14.44-13.76-15.79-24.46-.93-7.39,1.43-13.7,6-19.34A25.16,25.16,0,0,1,392.16,386.23Zm29,42h-2c-3.33,0-6.66,0-10,0-5.12.05-7.87,1.61-7.54,7.67.12,2.18.66,2.54,2.62,1.83,3.68-1.34,7.47-2.43,11.43-1.67,1.64.32,1.87-.12,2.11-1.63C418.11,432.07,417.94,429.25,421.12,428.19ZM435.68,411a5.72,5.72,0,0,0-3.69,1.23c-2.57,1.66-4,4.32-5.87,6.64-.66.83-1.2,2.05-2.3.36-.32-.5-1.14-.79-1.36,0s.48,1.52,1.08,2.11a1.15,1.15,0,0,0,1.76.1C428.62,418.06,431.92,414.74,435.68,411Zm-2.31,10.78c-3.89-2.44-6.45-1.11-8.68,2.84Zm-19.53,16.53a4,4,0,0,0-4.2.15A6,6,0,0,0,413.84,438.27Z" transform="translate(-329.79 -200.63)"/><path class="35386027-0275-4acf-87c4-c2509a7bf0b2" d="M410.52,443.94c-3.17,2.72-6.23,3.4-9.66,1.15-.52-.34-1.43-1.42-2.05-.18-.52,1,.56,1.48,1.23,1.85a11,11,0,0,1,2.83,2.75c.36.41,1.54.51.76,1.35s-1.15-.18-1.64-.56a23.13,23.13,0,0,0-5.39-3.09c-1.22-.5-2.53-.78-3.79-1.19-.66-.22-1.24-.14-1.4.55s.42,1,1,1.12a27.41,27.41,0,0,1,4,1.36c4.43,1.5,6.17,4.8,6.78,9.17a99.37,99.37,0,0,1,.53,10.68,2.23,2.23,0,0,1-2.05,2.57,84,84,0,0,1-25.9,1.95c-4-.34-7.18-2.19-10.68-3.5a2.21,2.21,0,0,1-1.39-2.19c-.24-10.3-.17-20.61,3-30.55a27.45,27.45,0,0,1,9.49-13.46c1.23-1,2-1.14,2.79.53,5.61,11.7,15.36,17.38,27.86,19C408,443.42,409.1,443.68,410.52,443.94Z" transform="translate(-329.79 -200.63)"/><path class="539ca670-7ce0-4d7f-9b6e-a89ada8fdf66" d="M375.7,416.22l.21.21s-.11,0-.14,0a.63.63,0,0,1-.08-.17Z" transform="translate(-329.79 -200.63)"/><path class="4848a2f2-f81c-4b46-bb6e-abb0e41060b1" d="M415.28,422.67l-.06,1.55c-1.52.41-2.35-2-4-1,0-2.07-1.93-2.78-3-4.08.15-.65-2.13-1.27,0-1.94l5,4.33C413.43,422.79,414.31,422.81,415.28,422.67Z" transform="translate(-329.79 -200.63)"/><path class="8f136a89-a8cd-447a-b57a-fe13a14cef4c" d="M415.28,422.67c-1,.13-1.85.12-2.07-1.13l1.05-1.28c.31.21,1-.48,1,.47-.47.17-.32.36,0,.55Z" transform="translate(-329.79 -200.63)"/><path class="8f136a89-a8cd-447a-b57a-fe13a14cef4c" d="M421.12,428.19c-3.18,1.05-3,3.88-3.37,6.19-.23,1.51-.46,2-2.11,1.63-4-.76-7.75.33-11.43,1.67-2,.71-2.5.36-2.62-1.83-.33-6.06,2.42-7.62,7.54-7.67,3.33,0,6.66,0,10,0Z" transform="translate(-329.79 -200.63)"/><path class="8f136a89-a8cd-447a-b57a-fe13a14cef4c" d="M435.68,411c-3.77,3.78-7.07,7.1-10.39,10.4a1.15,1.15,0,0,1-1.76-.1c-.6-.58-1.31-1.28-1.08-2.11s1-.47,1.36,0c1.1,1.7,1.64.47,2.3-.36,1.84-2.32,3.3-5,5.87-6.64A5.72,5.72,0,0,1,435.68,411Z" transform="translate(-329.79 -200.63)"/><path class="8f136a89-a8cd-447a-b57a-fe13a14cef4c" d="M411.21,423.23c1.66-1,2.49,1.4,4,1-.61,2.23-2.49,2-4.17,2.14l-4.36.23-1.63-.56c.25-1.22,1.62-.52,2.13-1.24l3.4-.18-3.2-1.65L406,422c.54-.45,1.11-.24,1.65-.27Z" transform="translate(-329.79 -200.63)"/><path class="8f136a89-a8cd-447a-b57a-fe13a14cef4c" d="M433.37,421.74l-8.68,2.84C426.92,420.63,429.48,419.29,433.37,421.74Z" transform="translate(-329.79 -200.63)"/><path class="27638558-226c-425c-b225-ec910e707907" d="M411.21,423.23l-3.56-1.49c.27-.84,0-1.81.55-2.59C409.28,420.46,411.17,421.16,411.21,423.23Z" transform="translate(-329.79 -200.63)"/><path class="27638558-226c-425c-b225-ec910e707907" d="M406.69,426.58l4.36-.23c-1.35,1.84-3.24.47-4.86.75C406.07,427.13,406.51,426.77,406.69,426.58Z" transform="translate(-329.79 -200.63)"/><path class="35386027-0275-4acf-87c4-c2509a7bf0b2" d="M413.84,438.27a6,6,0,0,1-4.2.15A4,4,0,0,1,413.84,438.27Z" transform="translate(-329.79 -200.63)"/><path class="27638558-226c-425c-b225-ec910e707907" d="M407.39,423l3.2,1.65-3.4.18C406.56,424.11,407.37,423.58,407.39,423Z" transform="translate(-329.79 -200.63)"/><path class="4848a2f2-f81c-4b46-bb6e-abb0e41060b1" d="M415.26,421.29c-.31-.19-.46-.38,0-.55C415.27,420.92,415.27,421.11,415.26,421.29Z" transform="translate(-329.79 -200.63)"/></svg>