<svg id="9d8fe3a1-3fc5-4b73-8baa-69e385fe7cdf" data-name="Capa 1" xmlns="http://www.w3.org/2000/svg" viewBox="0 0 213.6 309.61"><defs><style>.\32 ad8ec85-85bc-4392-9cb0-66e1e9625c28{fill:#0b0b0b;}.\32 ba59c9f-e6f9-40c8-9bef-f392c246727a{fill:#fefdfe;}.\33 e795dd6-050b-4ed5-9a2d-179a1bcfd1b5{fill:#161615;}.\37 b67db3d-84dc-45a6-ba82-546ffdf94d3b{fill:#131511;}.\39 1d1bab4-8db2-48b8-9641-96765e1e0e63{fill:#1d1e1e;}.\30 bfa10c2-ab49-40ea-945f-0b27410b95db{fill:#1a1b1b;}.\33 d307de2-9a58-4dcc-b955-72dc363abc2c{fill:#212122;}.af65c6fe-f7fe-4870-a1da-2b8b841acf3c{fill:#403f3f;}.\39 6ff9a86-7103-49d0-ac39-603e59a1d30d{fill:#b2b2b2;}.b7d0c758-0a03-4a53-a0c6-1b446099165e{fill:#f7cca0;}.\31 ad8055d-f938-47d3-9072-e5a2dbc4023a{fill:#96b4c7;}.\32 4c08a27-6e33-4c3c-b317-3d6c5e232f9d{fill:#f9f8f9;}.\39 af9605d-e581-4c34-8369-5c9131c092d0{fill:#509541;}.ffc8b029-84b0-4838-b82d-97bf5c6ffa3f{fill:#eaeae9;}.\37 9ba5288-b8d9-4737-b0c4-a930dd2badb6{fill:#140f09;}</style></defs><title>card-10</title><path class="2ad8ec85-85bc-4392-9cb0-66e1e9625c28" d="M543.28,355.62q0,71.49,0,143c0,1,0,2-.06,3-.46,5.61-3.83,8.79-9.48,8.8-14,0-28,0-42,0h-151c-7.78,0-11.08-3.29-11.08-11.1q0-143.86,0-287.71c0-7.36,3-10.42,10.37-10.71,2.66-.1,5.33-.08,8-.08H530.27q2.12,0,4.25.1c5.09.24,8.32,3.38,8.71,8.48.07.91,0,1.83,0,2.75Q543.28,283.88,543.28,355.62Zm-209.46-.18q0,71.62,0,143.23c0,5.94,1.59,7.53,7.56,7.53H531.61a21.71,21.71,0,0,0,3.23-.16,4.54,4.54,0,0,0,3.94-3.65,15.5,15.5,0,0,0,.36-4q0-56.62,0-113.24,0-86.61,0-173.23c0-5.16-1.75-6.93-6.85-7h-190c-.92,0-1.83,0-2.75,0-3.77.14-5.42,1.71-5.72,5.48-.07.83,0,1.67,0,2.5Q333.82,284.2,333.82,355.44Z" transform="translate(-329.68 -200.81)"/><path class="2ba59c9f-e6f9-40c8-9bef-f392c246727a" d="M333.82,355.44q0-71.24,0-142.48c0-.83,0-1.67,0-2.5.3-3.77,1.94-5.34,5.72-5.48.92,0,1.83,0,2.75,0h190c5.1.06,6.85,1.84,6.85,7q0,86.61,0,173.23,0,56.62,0,113.24a15.5,15.5,0,0,1-.36,4,4.54,4.54,0,0,1-3.94,3.65,21.71,21.71,0,0,1-3.23.16H341.38c-6,0-7.56-1.58-7.56-7.53Q333.82,427.06,333.82,355.44Zm187.39,81c.21,3.32.43,6.65.61,10,.07,1.38.36,2.62,2.06,2.48s1.81-1.4,1.72-2.78c-.29-4.15-.51-8.31-.84-12.46-.81-10.21-1.69-20.47-4.78-30.25-1.5-4.75-1.27-8.28,1.27-12.74,8.22-14.47,5.74-30.93-6.14-41.13-13.39-11.5-28.93-11.66-44.38-5.62-11.5,4.49-18.85,13.52-20.42,26.26-1.77,14.34,3.37,25.93,14.69,34.79a3.71,3.71,0,0,1,1.8,3.4A310.27,310.27,0,0,1,464,444c-.2,1.46-.84,3.22,1.42,3.52,2.09.28,2.08-1.53,2.25-2.88.58-4.54,1.07-9.09,1.59-13.64,1.13,1.75-.09,3.73.51,5.53,0,5.25-.62,10.46-1.16,15.67-.18,1.71.23,2.81,2,3,2.61.27,2.69,1.75,2.43,4a271.18,271.18,0,0,0-1.95,29.37c0,1.33,0,2.62,1.86,2.56,1.61,0,1.74-1.18,1.77-2.45.2-9.9,1-19.77,1.94-29.63.18-1.8.59-2.07,2.41-1.75,9.72,1.73,19.49,2.21,29.22,0,1.17-.26,1.23.21,1.37,1,.49,2.95.94,5.91,1.54,8.84a172.29,172.29,0,0,0,6.39,22.75c.36,1,.86,1.83,2.05,1.82a1.59,1.59,0,0,0,1.64-1.27,3.79,3.79,0,0,0-.33-2.18,184.77,184.77,0,0,1-7.51-29.41c-.39-2.33-.32-4,2.24-4.8s3.34-2.67,3.52-5.14c.29-4.15.74-8.28,1.13-12.42Zm-161.15,1c.43,3.71,1,7,1.15,10.33s1.54,5.86,4.86,7c1.36.46,1.58,1.14,1.35,2.61a185.11,185.11,0,0,1-7.74,31.17c-.44,1.3-.74,2.54.87,3.1s2.25-.58,2.65-1.88c1.2-3.89,2.47-7.76,3.55-11.68a169,169,0,0,0,4.14-19c.09-.61-.46-2.17,1.42-1.76,9.83,2.14,19.68,1.72,29.49-.1,1.53-.28,1.94-.08,2.1,1.51,1,9.95,1.71,19.91,2,29.9,0,1.37.28,2.64,2,2.59s1.9-1.34,1.84-2.7c-.47-10.15-1-20.29-2.1-30.4-.18-1.68.06-2.46,1.75-2.68,2.58-.33,3-1.77,2.71-4.25-.68-5.14-1-10.33-1.43-15.9a20.35,20.35,0,0,0,2.79,1.63,1.62,1.62,0,0,0,2.19-.63c.43-.79.6-1.75-.21-2.25-1.83-1.14-.71-1.61.32-2.3,5.45-3.68,8.61-8.54,7.59-15.38-.62-4.15-2.8-7.62-5.32-10.86-.78-1-.88-1.55.16-2.39a32.7,32.7,0,0,0,7.28-8.81c9.54-15.81,7.18-38.23-12.35-48.94-11-6-22.87-6.51-34.64-3-13.29,4-21.32,13.28-23.39,27.06-1.3,8.72,1.31,16.81,6,24.21.8,1.27,1,1.93-.41,2.94a46.85,46.85,0,0,0-6,5.3c-3.48,3.67-6.29,7.74-6.88,13-.85,7.6,3.07,13,8.15,17.89,1.21,1.16,2.21,2,.34,3.36a1.51,1.51,0,0,0-.13,2.41,1.83,1.83,0,0,0,2.5.22A12.24,12.24,0,0,0,360.06,437.42Zm79.2-177.63c-1.56-3.08-2.88-5.76-4.27-8.41-.44-.83-.53-2.26-2.21-1.33s-.47,1.79,0,2.6c1.46,2.81,1.35,4.27-.64,6.55q-1.83-3.95-3.65-7.89c-.36-.78-.61-1.52-1.78-.9s-1.12,1.13-.58,2.15a59.44,59.44,0,0,1,4.24,10.1c.27.85.61,1.45,1.7,1.44a1.67,1.67,0,0,0,1.85-1.24c.47-1.26,1.14-2.43,1.93-4.08.71,1.79,1.3,3.06,1.73,4.38a1.59,1.59,0,0,0,1.79,1.3,1.5,1.5,0,0,0,1.62-1.15,72.68,72.68,0,0,0,3.31-11.23c.15-.77.49-1.57-.9-1.79s-1.51.23-1.74,1.34A39.37,39.37,0,0,1,439.26,259.79Zm-42.42,19.79a6.91,6.91,0,0,0-7-7.17,8.83,8.83,0,0,0-8.75,8.42c0,4.24,2.81,7.23,6.85,7.23A8.65,8.65,0,0,0,396.84,279.58Zm38.5,26.79c-.22-.87.6-2.4-1-2.57-1.8-.19-1.45,1.47-1.53,2.53a31.28,31.28,0,0,1-9.14,20A42.85,42.85,0,0,1,415,333c-.66.4-1.65.83-1,1.9.57.91,1.41.7,2.19.24C427.13,328.62,434.13,319.49,435.34,306.37Zm31-20.15c-.27,1-.15,1.54.93,1.65s1.47-.07,1.72-1.17c.21-.9-.21-2.28.93-2.65a10.67,10.67,0,0,1,4.62-.73c1.19.18.92,1.92,1.26,3a1.28,1.28,0,0,1,.05.24c.14,1.25,1,1,1.84,1,1.22-.09,1-.78.8-1.55-.95-3.18-1.85-6.38-2.85-9.55s-1.1-3.33-4.55-2.58c-1.11.24-2.59-.14-2.88,1.7C467.64,279.14,467,282.73,466.34,286.23Zm-10.14,1.31a19,19,0,0,0,2.73-.24c2.52-.58,4.84-1.62,5.63-4.34s-.2-5-2.11-7a10.24,10.24,0,0,0-8.61-3.06c-1.39.09-1.64.59-1.5,1.84.36,3.31.74,6.63.84,9.95C453.25,286.81,453.78,288,456.2,287.54Zm2.55-23.17c0-.09-.27.66.83.7.79,0,1.59.37,1.93-.89.26-1-.25-2.45,1-2.85a10.33,10.33,0,0,1,4.62-.67c1.07.19,1,1.92,1.18,3s.82,1.47,1.93,1.21c1.32-.3.92-1.12.68-1.92-.92-3.1-1.8-6.22-2.78-9.3-1.07-3.35-1.14-3.41-4.56-2.54-1,.27-2.6-.15-2.88,1.73C460.2,256.46,459.5,260,458.75,264.37Zm-75.8-.23a79.24,79.24,0,0,0-3.13-10.6c-1.35-3.81-.23-3.19-4.37-2.44-1.11.2-2.72-.14-3,1.88-.48,3.53-1.2,7-1.81,10.54-.13.72-.48,1.5.8,1.58,1,.07,1.78.07,1.85-1.28,0-.86-.09-2.11.85-2.43a11.89,11.89,0,0,1,4.62-.79c1.28.1.78,1.79,1.26,2.69a1.93,1.93,0,0,1,.17.72c.1,1.15.88,1,1.65.87S383,264.37,383,264.14Zm109.37-.38c-.19.74-.11,1.28.87,1.33s1.56.12,1.84-1.06c.21-.91-.27-2.28.87-2.66a11,11,0,0,1,4.62-.75c1.29.16,1,1.88,1.26,2.93s.61,1.61,1.85,1.35c1.52-.32,1-1.22.75-2.07-.89-3-1.74-6.06-2.69-9.06-1.1-3.46-1.15-3.51-4.72-2.61-1,.25-2.45-.2-2.72,1.56C493.67,256.41,493,260.09,492.32,263.77Zm-97.08-2.84c-.28-3.32-.59-6.63-.82-9.95-.07-1-.15-1.69-1.5-1.64-1.57.05-1.17,1.06-1.14,1.89,0,1.16.19,2.32.3,3.48.06.62,0,1-.77,1.25-4,1.31-4.8.8-5-3.26a6.39,6.39,0,0,1,0-1c.11-1-.22-1.46-1.38-1.4s-1.34.56-1.25,1.56c.29,3.31.5,6.63.76,10,.08,1,0,2,1.64,1.79,1.77-.19,1-1.29,1-2.16s-.77-2,.81-2.42c3.74-1.09,4.39-.71,4.78,3.05,0,.25,0,.5,0,.75,0,.88.62.86,1.22.75s1.46.21,1.39-.91C395.3,262.09,395.28,261.51,395.24,260.93Zm50.47-6.81h-.05l.61,7.45c0,.17,0,.33,0,.5,0,1.09.32,1.63,1.62,1.54,1.52-.11,1.13-.93,1.09-1.86s-.93-2.17.47-2.58a8.26,8.26,0,0,1,4.39-.42c.9.27.45,2.1.73,3.2a.92.92,0,0,1,0,.25c0,.94.12,1.55,1.38,1.42s1.34-.58,1.25-1.58c-.35-3.81-.69-7.61-.94-11.43-.07-1-.43-1.25-1.35-1.24s-1.38.26-1.29,1.27,0,2.34.2,3.48,0,1.75-1.39,2c-5.06.72-3.86.72-4.24-3.32a8.45,8.45,0,0,1-.05-1.25c.06-1.05-.52-1.21-1.41-1.17s-1.43.22-1.25,1.3A23.79,23.79,0,0,1,445.72,254.12ZM415,272.42a6.26,6.26,0,0,1-1.35,0c-2.1-.3-2.79.53-2.49,2.62s.37,4.15.47,6.22c.3,6,.82,6.36,6.85,5a8.6,8.6,0,0,1,1-.24c.89-.09,1.38-.4,1.13-1.44s-.53-1.49-1.66-1.2a26.72,26.72,0,0,1-3.2.48c-.85.11-1.42-.07-1.47-1.14s.09-1.62,1.25-1.65,2.16-.16,3.24-.17,1.19-.59,1.13-1.47-.27-1.42-1.33-1.24c-.82.14-1.68,0-2.48.23-1.71.38-2.05-.45-2.21-2-.2-1.92,1.09-1.43,2.06-1.51s1.66-.1,2.5-.09c1.19,0,1.31-.66,1.26-1.62,0-1.12-.71-1.13-1.53-1.05S416.5,272.32,415,272.42Zm-11.26,10.14a37.83,37.83,0,0,1-3.06-8.5c-.27-1.17-.84-1.41-2-1.15s-.9.84-.7,1.66a57.42,57.42,0,0,0,4.3,11.38A1.65,1.65,0,0,0,404.3,287a1.54,1.54,0,0,0,1.5-1.34,68.59,68.59,0,0,1,4.06-10.94c.43-.93.46-1.42-.57-1.94s-1.47-.13-1.83.78C406.3,276.43,405.13,279.26,403.77,282.56Zm40-9a15.52,15.52,0,0,0-1.36-1.52c-.68-.59-1,.16-1.43.49-3.39,2.76-3.38,2.77-6.9.3l-1.22-.87c-.86-.59-1.17.15-1.56.65s-.74,1.12.11,1.63a19.62,19.62,0,0,0,1.64,1.13,5.91,5.91,0,0,1,3.7,6.77,30.27,30.27,0,0,0,.13,4c0,1.16.63,1.32,1.61,1.29s1.21-.61,1.14-1.47a33.83,33.83,0,0,0-.26-3.48c-.63-3.24.15-5.85,3.06-7.66A9.67,9.67,0,0,0,443.79,273.58Zm47.25,0a9,9,0,0,0-1.42-1.55c-.8-.53-1.16.36-1.61.75-3.06,2.63-3,2.64-6.31.32a7.9,7.9,0,0,0-.81-.58c-.71-.38-1.28-1.37-2.22-.09s-.32,1.82.67,2.25c4,1.75,5.09,5,4.78,9-.06.74.08,1.49.07,2.24,0,.92.06,1.57,1.31,1.53s1.41-.49,1.34-1.52c-.11-1.66.05-3.35-.22-5a4.84,4.84,0,0,1,2.17-5.32A20.5,20.5,0,0,0,491,273.59Zm-9.84-23.52c-2.21.26-4.77.53-7.32.87-.85.12-2.15-.35-2,1.42.15,1.54,1.06,1.42,2.08,1.16,1.58-.4,2,.32,2,1.79.07,2.57.31,5.14.44,7.71.05,1,.35,1.47,1.49,1.39s1.28-.73,1.21-1.67c-.18-2.65-.24-5.31-.52-8-.15-1.43.33-2,1.7-1.94.49,0,1-.22,1.47-.23,1.15,0,1-.79,1-1.57S482.37,249.84,481.19,250.07Zm-57,37.69a25.54,25.54,0,0,0,6.51-1c.73-.26,2-.18,1.39-1.71-.43-1.11-1-1.35-2-.89a17.18,17.18,0,0,1-2.65.66c-1.54.38-2.46.15-2.46-1.8,0-2.65-.27-5.3-.4-8,0-1-.57-1.2-1.47-1.18s-1.32.4-1.26,1.36c.26,3.72.53,7.45.7,11.18C422.61,287.82,423.35,287.88,424.22,287.76Zm-50.15-.12a20.27,20.27,0,0,0,5.87-1c.8-.28,1.32-.45.92-1.52s-.71-1.39-1.79-1a34.36,34.36,0,0,1-3.37.82c-1.29.29-1.94,0-2-1.57,0-2.66-.32-5.31-.42-8,0-1-.26-1.49-1.41-1.46s-1.28.7-1.23,1.61c.18,3.15.51,6.31.46,9.46C371.11,287.44,371.9,288.37,374.07,287.64Zm122.21-8.27c-.18-1.95-.36-3.84-.53-5.74-.08-.81.05-1.72-1.29-1.57-1.11.13-1.59.46-1.39,1.72.3,1.87.32,3.79.57,5.68.12.88-.52,2.28,1.44,2.17S496.11,280.2,496.28,279.37Zm-96-14.91c.78,0,1.53.11,1.4-1s-.29-2-1.71-1.86c-.91.06-1.36.28-1.25,1.31S399.24,264.66,400.3,264.46Zm14.45,0c.45-.13,1.55.42,1.36-.89-.11-.82,0-2-1.39-1.88-.7,0-1.61-.2-1.52,1C413.27,263.57,413.19,264.6,414.75,264.43Zm81.91,21.44c0-1.13-.51-1.6-1.66-1.46-.65.08-1.34-.08-1.19,1s.48,1.82,1.83,1.68C496.47,287,496.88,286.77,496.67,285.87Zm-89.23-24.15c-.87,0-1.59,0-1.35,1.16.16.78,0,1.75,1.29,1.55.66-.1,1.6.31,1.46-1C408.73,262.49,408.75,261.53,407.43,261.72Z" transform="translate(-329.68 -200.81)"/><path class="3e795dd6-050b-4ed5-9a2d-179a1bcfd1b5" d="M360.06,437.42a12.24,12.24,0,0,1-1.49,1.32,1.83,1.83,0,0,1-2.5-.22,1.51,1.51,0,0,1,.13-2.41c1.87-1.4.87-2.2-.34-3.36-5.07-4.86-9-10.29-8.15-17.89.59-5.25,3.4-9.32,6.88-13a46.85,46.85,0,0,1,6-5.3c1.36-1,1.21-1.67.41-2.94-4.66-7.4-7.28-15.49-6-24.21,2.06-13.78,10.1-23.08,23.39-27.06,11.77-3.53,23.62-3.06,34.64,3,19.53,10.71,21.89,33.13,12.35,48.94a32.7,32.7,0,0,1-7.28,8.81c-1,.84-.93,1.39-.16,2.39,2.52,3.24,4.71,6.7,5.32,10.86,1,6.84-2.14,11.71-7.59,15.38-1,.69-2.15,1.17-.32,2.3.81.5.64,1.46.21,2.25a1.62,1.62,0,0,1-2.19.63,20.35,20.35,0,0,1-2.79-1.63c.48,5.57.75,10.76,1.43,15.9.33,2.48-.13,3.93-2.71,4.25-1.7.22-1.93,1-1.75,2.68,1.07,10.1,1.63,20.25,2.1,30.4.06,1.36-.18,2.65-1.84,2.7s-1.92-1.22-2-2.59c-.25-10-1-20-2-29.9-.15-1.59-.56-1.8-2.1-1.51-9.81,1.82-19.66,2.24-29.49.1-1.88-.41-1.33,1.15-1.42,1.76a169,169,0,0,1-4.14,19c-1.08,3.92-2.35,7.79-3.55,11.68-.4,1.3-1.07,2.43-2.65,1.88s-1.31-1.8-.87-3.1a185.11,185.11,0,0,0,7.74-31.17c.22-1.46,0-2.15-1.35-2.61-3.33-1.12-4.68-3.54-4.86-7S360.49,441.13,360.06,437.42Zm34.27-29.79c11.76,0,20.5-4,26.74-13,6.4-9.21,8.24-19.42,4.46-29.9S414,347.8,403.18,345.22C393.9,343,384.55,343,375.78,347c-15.9,7.18-21.76,24.08-14.36,40.24C368.06,401.73,380.28,407,394.34,407.63Zm12.82,16.59c.22-4.24.38-8.48.7-12.71.13-1.7.05-2.46-2-1.81-6.68,2.09-13.46,1.79-20.23.4a39.48,39.48,0,0,1-16.47-7.37c-1.45-1.12-1.85-.82-2.09.84s-.7,3.59-1.09,5.37a101.74,101.74,0,0,0-1.16,39.41c.16,1,.17,2,1.23,2.57,2.7,1.49,5.44,3,8.5,3.5a81.78,81.78,0,0,0,32.41-1.85c1.28-.33,1.74-.73,1.58-2.18A195.65,195.65,0,0,1,407.16,424.21Zm-42.41-25.88c-3.3,1.74-7.41,5.64-10,9-6.41,8.55-3.25,17.49,5.34,23.92C359.91,420,362.25,409.37,364.74,398.33Zm45.84,32a19,19,0,0,0,4.54-2.92c4.9-4.21,5.89-8.62,3.1-14.47a34.62,34.62,0,0,0-3-4.85c-.47-.67-.73-1.89-2-1.51a2.48,2.48,0,0,0-1.79,2.41C410.81,415.92,410.59,422.89,410.58,430.3Z" transform="translate(-329.68 -200.81)"/><path class="7b67db3d-84dc-45a6-ba82-546ffdf94d3b" d="M469.27,431c-.52,4.55-1,9.1-1.59,13.64-.17,1.35-.16,3.16-2.25,2.88-2.27-.3-1.63-2.07-1.42-3.52a310.27,310.27,0,0,0,2.78-35.58A3.71,3.71,0,0,0,465,405c-11.32-8.86-16.45-20.45-14.69-34.79,1.57-12.73,8.92-21.76,20.42-26.26,15.45-6,31-5.88,44.38,5.62,11.88,10.2,14.36,26.66,6.14,41.13-2.53,4.46-2.77,8-1.27,12.74,3.1,9.78,4,20,4.78,30.25.33,4.15.54,8.3.84,12.46.1,1.37-.06,2.64-1.72,2.78s-2-1.09-2.06-2.48c-.18-3.32-.4-6.65-.61-10a5.08,5.08,0,0,0-.39-3.24c-.29.46-.5.63-.5.81,0,.82,0,1.64,0,2.46-.38,4.14-.83,8.27-1.13,12.42-.18,2.47-1.07,4.35-3.52,5.14s-2.63,2.47-2.24,4.8A184.77,184.77,0,0,0,521,488.27a3.79,3.79,0,0,1,.33,2.18,1.59,1.59,0,0,1-1.64,1.27c-1.2,0-1.69-.78-2.05-1.82a172.29,172.29,0,0,1-6.39-22.75c-.59-2.93-1-5.89-1.54-8.84-.14-.82-.19-1.3-1.37-1-9.73,2.17-19.5,1.7-29.22,0-1.82-.32-2.23-.06-2.41,1.75-1,9.86-1.74,19.72-1.94,29.63,0,1.27-.15,2.4-1.77,2.45-1.83.06-1.87-1.23-1.86-2.56a271.18,271.18,0,0,1,1.95-29.37c.27-2.22.18-3.7-2.43-4-1.81-.19-2.22-1.29-2-3,.54-5.21,1.12-10.42,1.16-15.67a38.77,38.77,0,0,0,.18-10.38A9.4,9.4,0,0,0,469.27,431Zm16.06-23.42c17,0,29.74-8.44,35.1-23.27,6.32-17.5-3.24-35.07-21.37-39.25a51.88,51.88,0,0,0-18.11-.57c-15.3,1.87-26.6,15.43-27.53,27.7C452.22,387.95,463.5,408.32,485.33,407.55Zm8.5,47.54c11,0,14.51-.71,19.85-3.65a3.79,3.79,0,0,0,2.13-3.06,112.58,112.58,0,0,0-2.13-44.52c-.46-1.89-.89-2-2.47-.85-10.88,7.66-22.89,9.81-35.82,6.93-2.81-.63-2.91-.7-2.57,2.3a127.21,127.21,0,0,1,.68,16.19c-.11,7-.17,14.14-1.27,21.14-.34,2.21.68,2.9,2.59,3.29C481.36,454.19,487.9,455.33,493.83,455.09Z" transform="translate(-329.68 -200.81)"/><path class="91d1bab4-8db2-48b8-9641-96765e1e0e63" d="M439.26,259.79a39.37,39.37,0,0,0,2.35-8.16c.23-1.11.46-1.55,1.74-1.34s1,1,.9,1.79a72.68,72.68,0,0,1-3.31,11.23,1.5,1.5,0,0,1-1.62,1.15,1.59,1.59,0,0,1-1.79-1.3c-.43-1.32-1-2.59-1.73-4.38-.79,1.64-1.46,2.82-1.93,4.08A1.67,1.67,0,0,1,432,264.1c-1.09,0-1.43-.59-1.7-1.44a59.44,59.44,0,0,0-4.24-10.1c-.54-1-.52-1.57.58-2.15s1.42.12,1.78.9q1.81,4,3.65,7.89c2-2.28,2.1-3.75.64-6.55-.42-.81-1.64-1.67,0-2.6s1.78.5,2.21,1.33C436.38,254,437.7,256.71,439.26,259.79Z" transform="translate(-329.68 -200.81)"/><path class="0bfa10c2-ab49-40ea-945f-0b27410b95db" d="M396.84,279.58a8.65,8.65,0,0,1-8.89,8.48c-4,0-6.87-3-6.85-7.23a8.83,8.83,0,0,1,8.75-8.42A6.91,6.91,0,0,1,396.84,279.58Zm-8.75,5.85a6.18,6.18,0,0,0,6.12-6,4.39,4.39,0,0,0-4.41-4.45,6.3,6.3,0,0,0-6.08,6A4.13,4.13,0,0,0,388.1,285.43Z" transform="translate(-329.68 -200.81)"/><path class="91d1bab4-8db2-48b8-9641-96765e1e0e63" d="M435.34,306.37c-1.21,13.12-8.22,22.25-19.14,28.76-.77.46-1.61.68-2.19-.24-.67-1.07.31-1.5,1-1.9a42.85,42.85,0,0,0,8.66-6.69,31.28,31.28,0,0,0,9.14-20c.08-1.06-.27-2.71,1.53-2.53C435.95,304,435.12,305.51,435.34,306.37Z" transform="translate(-329.68 -200.81)"/><path class="3d307de2-9a58-4dcc-b955-72dc363abc2c" d="M466.34,286.23c.62-3.49,1.3-7.09,1.87-10.7.29-1.84,1.77-1.46,2.88-1.7,3.46-.74,3.5-.73,4.55,2.58s1.9,6.36,2.85,9.55c.23.78.41,1.47-.8,1.55-.86.06-1.7.3-1.84-1a1.28,1.28,0,0,0-.05-.24c-.34-1.06-.07-2.8-1.26-3a10.67,10.67,0,0,0-4.62.73c-1.14.37-.72,1.74-.93,2.65-.25,1.1-.75,1.27-1.72,1.17S466.07,287.19,466.34,286.23Zm5.13-5.2c.67-.54,2.58.47,2.29-1.35-.18-1.15.06-3.32-1.89-3.21-2.34.13-1.31,2.44-1.75,3.77S470.76,281,471.47,281Z" transform="translate(-329.68 -200.81)"/><path class="0bfa10c2-ab49-40ea-945f-0b27410b95db" d="M456.2,287.54c-2.42.48-3-.73-3-2.9-.1-3.32-.48-6.64-.84-9.95-.14-1.25.12-1.76,1.5-1.84a10.24,10.24,0,0,1,8.61,3.06c1.91,2,2.91,4.32,2.11,7s-3.11,3.76-5.63,4.34A19,19,0,0,1,456.2,287.54Zm6-6.47c-.06-2.28-2.41-4.67-5.18-5.4-1.27-.34-1.87-.17-1.71,1.33.24,2.23.35,4.47.52,6.7,0,.49.08.94.68,1.17C458.77,285.71,462.25,283.4,462.19,281.07Z" transform="translate(-329.68 -200.81)"/><path class="91d1bab4-8db2-48b8-9641-96765e1e0e63" d="M458.75,264.37c.75-4.32,1.45-7.91,2-11.53.28-1.88,1.83-1.46,2.88-1.73,3.42-.87,3.48-.81,4.56,2.54,1,3.08,1.86,6.2,2.78,9.3.24.8.64,1.61-.68,1.92-1.12.26-1.69-.05-1.93-1.21s-.1-2.82-1.18-3a10.33,10.33,0,0,0-4.62.67c-1.28.4-.78,1.88-1,2.85-.34,1.26-1.14.92-1.93.89C458.49,265,458.76,264.28,458.75,264.37Zm7.9-6.67c-1.09-1.3,0-4.2-2.4-3.93-2.1.23-1.91,3.05-1.48,4C463.48,259.46,465.23,257.58,466.65,257.7Z" transform="translate(-329.68 -200.81)"/><path class="91d1bab4-8db2-48b8-9641-96765e1e0e63" d="M383,264.14c.06.23-.27.65-1.12.74s-1.54.27-1.65-.87a1.93,1.93,0,0,0-.17-.72c-.48-.9,0-2.59-1.26-2.69a11.89,11.89,0,0,0-4.62.79c-.94.32-.8,1.57-.85,2.43-.08,1.35-.83,1.35-1.85,1.28-1.28-.09-.92-.87-.8-1.58.61-3.51,1.33-7,1.81-10.54.27-2,1.88-1.68,3-1.88,4.14-.75,3-1.37,4.37,2.44A79.24,79.24,0,0,1,383,264.14Zm-7.41-5.78c.66-.54,2.6.28,2.56-1.07s0-3.56-1.76-3.62c-2.45-.08-1.43,2.51-2,3.88C374,258.33,374.6,258.55,375.54,258.36Z" transform="translate(-329.68 -200.81)"/><path class="91d1bab4-8db2-48b8-9641-96765e1e0e63" d="M492.32,263.77c.65-3.68,1.34-7.35,1.92-11,.28-1.76,1.75-1.32,2.72-1.56,3.57-.9,3.62-.85,4.72,2.61,1,3,1.81,6,2.69,9.06.25.85.78,1.76-.75,2.07-1.24.26-1.57-.32-1.85-1.35s0-2.77-1.26-2.93a11,11,0,0,0-4.62.75c-1.15.38-.66,1.76-.87,2.66-.28,1.18-1,1.11-1.84,1.06S492.14,264.51,492.32,263.77Zm8.17-5.87c-1.46-1.41-.25-4-2.74-4.22-.9-.09-2.36,3.26-1.63,4.19C497.28,259.35,498.73,257.64,500.49,257.9Z" transform="translate(-329.68 -200.81)"/><path class="91d1bab4-8db2-48b8-9641-96765e1e0e63" d="M395.24,260.93c0,.58.06,1.16.1,1.74.07,1.12-.81.8-1.39.91s-1.2.13-1.22-.75c0-.25,0-.5,0-.75-.4-3.76-1-4.14-4.78-3.05-1.59.46-.79,1.53-.81,2.42s.72,2-1,2.16c-1.61.17-1.56-.81-1.64-1.79-.26-3.32-.48-6.64-.76-10-.09-1,.07-1.5,1.25-1.56s1.49.36,1.38,1.4a6.39,6.39,0,0,0,0,1c.21,4.06,1,4.56,5,3.26.77-.26.83-.63.77-1.25-.11-1.16-.25-2.32-.3-3.48,0-.83-.42-1.84,1.14-1.89,1.34,0,1.43.62,1.5,1.64C394.65,254.3,395,257.61,395.24,260.93Z" transform="translate(-329.68 -200.81)"/><path class="91d1bab4-8db2-48b8-9641-96765e1e0e63" d="M445.72,254.12a23.79,23.79,0,0,0-.16-2.49c-.18-1.07.36-1.25,1.25-1.3s1.47.12,1.41,1.17a8.45,8.45,0,0,0,.05,1.25c.37,4-.82,4,4.24,3.32,1.41-.2,1.56-.77,1.39-2s-.09-2.33-.2-3.48.35-1.27,1.29-1.27,1.29.25,1.35,1.24c.25,3.81.58,7.62.94,11.43.09,1-.11,1.47-1.25,1.58s-1.4-.48-1.38-1.42a.92.92,0,0,0,0-.25c-.29-1.1.17-2.93-.73-3.2a8.26,8.26,0,0,0-4.39.42c-1.4.42-.5,1.7-.47,2.58s.42,1.75-1.09,1.86c-1.3.09-1.62-.45-1.62-1.54,0-.17,0-.33,0-.5l-.61-7.45Z" transform="translate(-329.68 -200.81)"/><path class="0bfa10c2-ab49-40ea-945f-0b27410b95db" d="M415,272.42c1.47-.1,2.31-.13,3.14-.21s1.48-.07,1.53,1.05c0,1-.08,1.65-1.26,1.62-.83,0-1.67,0-2.5.09s-2.26-.41-2.06,1.51c.15,1.5.49,2.33,2.21,2,.8-.18,1.67-.08,2.48-.23,1.06-.19,1.28.34,1.33,1.24s-.07,1.46-1.13,1.47-2.16.15-3.24.17-1.29.67-1.25,1.65.62,1.25,1.47,1.14a26.72,26.72,0,0,0,3.2-.48c1.13-.29,1.43.26,1.66,1.2s-.23,1.35-1.13,1.44a8.6,8.6,0,0,0-1,.24c-6,1.34-6.56.94-6.85-5-.1-2.08-.17-4.17-.47-6.22s.39-2.92,2.49-2.62A6.26,6.26,0,0,0,415,272.42Z" transform="translate(-329.68 -200.81)"/><path class="91d1bab4-8db2-48b8-9641-96765e1e0e63" d="M403.77,282.56c1.36-3.3,2.54-6.13,3.68-9,.37-.91.75-1.33,1.83-.78s1,1,.57,1.94a68.59,68.59,0,0,0-4.06,10.94,1.54,1.54,0,0,1-1.5,1.34,1.65,1.65,0,0,1-1.94-1.07,57.42,57.42,0,0,1-4.3-11.38c-.21-.81-.43-1.39.7-1.66s1.68,0,2,1.15A37.83,37.83,0,0,0,403.77,282.56Z" transform="translate(-329.68 -200.81)"/><path class="3d307de2-9a58-4dcc-b955-72dc363abc2c" d="M443.79,273.58a9.67,9.67,0,0,1-1.33,1.25c-2.91,1.81-3.69,4.42-3.06,7.66a33.83,33.83,0,0,1,.26,3.48c.07.86-.07,1.43-1.14,1.47s-1.6-.13-1.61-1.29a30.27,30.27,0,0,1-.13-4,5.91,5.91,0,0,0-3.7-6.77,19.62,19.62,0,0,1-1.64-1.13c-.86-.51-.55-1.06-.11-1.63s.7-1.25,1.56-.65l1.22.87c3.51,2.47,3.51,2.46,6.9-.3.41-.33.75-1.08,1.43-.49A15.52,15.52,0,0,1,443.79,273.58Z" transform="translate(-329.68 -200.81)"/><path class="3d307de2-9a58-4dcc-b955-72dc363abc2c" d="M491,273.59a20.5,20.5,0,0,1-2.25,2.06,4.84,4.84,0,0,0-2.17,5.32c.27,1.63.11,3.32.22,5,.07,1-.21,1.48-1.34,1.52s-1.33-.61-1.31-1.53c0-.75-.12-1.5-.07-2.24.31-4-.77-7.28-4.78-9-1-.43-1.58-1-.67-2.25s1.51-.29,2.22.09a7.9,7.9,0,0,1,.81.58c3.26,2.32,3.25,2.31,6.31-.32.45-.39.82-1.27,1.61-.75A9,9,0,0,1,491,273.59Z" transform="translate(-329.68 -200.81)"/><path class="3d307de2-9a58-4dcc-b955-72dc363abc2c" d="M481.19,250.07c1.18-.23,1.56.11,1.6,1s.19,1.53-1,1.57c-.49,0-1,.24-1.47.23-1.37,0-1.85.51-1.7,1.94.27,2.64.33,5.3.52,8,.07.94,0,1.57-1.21,1.67s-1.44-.39-1.49-1.39c-.13-2.57-.38-5.14-.44-7.71,0-1.47-.45-2.19-2-1.79-1,.26-1.93.38-2.08-1.16-.18-1.77,1.13-1.3,2-1.42C476.42,250.59,479,250.33,481.19,250.07Z" transform="translate(-329.68 -200.81)"/><path class="3d307de2-9a58-4dcc-b955-72dc363abc2c" d="M424.22,287.76c-.87.13-1.61.06-1.67-1.3-.17-3.73-.44-7.45-.7-11.18-.07-1,.29-1.34,1.26-1.36s1.42.18,1.47,1.18c.13,2.65.4,5.3.4,8,0,1.95.92,2.18,2.46,1.8a17.18,17.18,0,0,0,2.65-.66c1.09-.47,1.62-.23,2,.89.59,1.52-.67,1.45-1.39,1.71A25.54,25.54,0,0,1,424.22,287.76Z" transform="translate(-329.68 -200.81)"/><path class="3d307de2-9a58-4dcc-b955-72dc363abc2c" d="M374.07,287.64c-2.16.73-3-.2-2.92-2.67,0-3.15-.28-6.31-.46-9.46-.05-.91,0-1.58,1.23-1.61s1.37.45,1.41,1.46c.1,2.66.4,5.31.42,8,0,1.55.66,1.86,2,1.57a34.36,34.36,0,0,0,3.37-.82c1.08-.36,1.44.08,1.79,1s-.13,1.23-.92,1.52A20.27,20.27,0,0,1,374.07,287.64Z" transform="translate(-329.68 -200.81)"/><path class="3d307de2-9a58-4dcc-b955-72dc363abc2c" d="M496.28,279.37c-.17.83.78,2.15-1.19,2.26s-1.32-1.28-1.44-2.17c-.25-1.89-.27-3.8-.57-5.68-.2-1.26.28-1.59,1.39-1.72,1.34-.15,1.21.76,1.29,1.57C495.92,275.53,496.1,277.42,496.28,279.37Z" transform="translate(-329.68 -200.81)"/><path class="af65c6fe-f7fe-4870-a1da-2b8b841acf3c" d="M400.3,264.46c-1.06.2-1.45-.42-1.56-1.52s.34-1.25,1.25-1.31c1.43-.09,1.59.81,1.71,1.86S401.09,264.43,400.3,264.46Z" transform="translate(-329.68 -200.81)"/><path class="af65c6fe-f7fe-4870-a1da-2b8b841acf3c" d="M414.75,264.43c-1.57.17-1.49-.86-1.55-1.76-.08-1.21.82-1,1.52-1,1.4-.08,1.28,1.05,1.39,1.88C416.3,264.85,415.2,264.3,414.75,264.43Z" transform="translate(-329.68 -200.81)"/><path class="3d307de2-9a58-4dcc-b955-72dc363abc2c" d="M496.67,285.87c.21.9-.19,1.13-1,1.22-1.35.15-1.67-.55-1.83-1.68s.55-.93,1.19-1C496.16,284.27,496.71,284.74,496.67,285.87Z" transform="translate(-329.68 -200.81)"/><path class="3d307de2-9a58-4dcc-b955-72dc363abc2c" d="M407.43,261.72c1.32-.19,1.3.78,1.4,1.71.14,1.31-.8.9-1.46,1-1.31.19-1.13-.78-1.29-1.55C405.85,261.7,406.56,261.68,407.43,261.72Z" transform="translate(-329.68 -200.81)"/><path class="96ff9a86-7103-49d0-ac39-603e59a1d30d" d="M469.27,431a9.4,9.4,0,0,1,.69-4.85,38.77,38.77,0,0,1-.18,10.38C469.18,434.69,470.4,432.72,469.27,431Z" transform="translate(-329.68 -200.81)"/><path class="96ff9a86-7103-49d0-ac39-603e59a1d30d" d="M520.37,436.51c0-.82-.06-1.64,0-2.46,0-.18.21-.36.5-.81a5.08,5.08,0,0,1,.39,3.24Z" transform="translate(-329.68 -200.81)"/><path class="b7d0c758-0a03-4a53-a0c6-1b446099165e" d="M394.34,407.63c-14.06-.67-26.27-5.9-32.92-20.39-7.41-16.16-1.54-33.06,14.36-40.24,8.78-4,18.13-4,27.41-1.77,10.8,2.58,18.62,9.16,22.35,19.49s1.94,20.69-4.46,29.9C414.84,403.58,406.09,407.66,394.34,407.63Zm2.55-31.3c-4,.57-7.27-.75-10.54-1.83-1.05-.35-1.62-.35-2.13.74-1.16,2.45-.78,6.34.88,8,1.91,1.85,6.32,2.49,8.64,1.22a2.88,2.88,0,0,0,1.72-2.76A8.36,8.36,0,0,1,396.89,376.33Zm16.91-8.82a4.65,4.65,0,1,0-9.27-.71c-.16,2.54,1.73,5,4,5.15A4.75,4.75,0,0,0,413.8,367.51ZM385.87,371a4.47,4.47,0,0,0,4.45-4.62c0-2.82-1.72-4.59-4.64-4.66a4.57,4.57,0,0,0-4.68,4.45A4.69,4.69,0,0,0,385.87,371Z" transform="translate(-329.68 -200.81)"/><path class="1ad8055d-f938-47d3-9072-e5a2dbc4023a" d="M407.16,424.21a195.65,195.65,0,0,0,1.35,26.17c.17,1.45-.3,1.85-1.58,2.18a81.78,81.78,0,0,1-32.41,1.85c-3.06-.45-5.79-2-8.5-3.5-1.06-.58-1.06-1.59-1.23-2.57A101.74,101.74,0,0,1,366,408.94c.4-1.78.84-3.57,1.09-5.37s.64-2,2.09-.84a39.48,39.48,0,0,0,16.47,7.37c6.77,1.38,13.55,1.69,20.23-.4,2.07-.65,2.14.11,2,1.81C407.53,415.73,407.38,420,407.16,424.21Z" transform="translate(-329.68 -200.81)"/><path class="24c08a27-6e33-4c3c-b317-3d6c5e232f9d" d="M364.74,398.33c-2.49,11-4.83,21.7-4.63,33-8.59-6.43-11.75-15.38-5.34-23.92C357.33,404,361.44,400.08,364.74,398.33Z" transform="translate(-329.68 -200.81)"/><path class="24c08a27-6e33-4c3c-b317-3d6c5e232f9d" d="M410.58,430.3c0-7.41.23-14.38.85-21.34a2.48,2.48,0,0,1,1.79-2.41c1.24-.38,1.5.84,2,1.51a34.62,34.62,0,0,1,3,4.85c2.79,5.85,1.8,10.25-3.1,14.47A19,19,0,0,1,410.58,430.3Z" transform="translate(-329.68 -200.81)"/><path class="b7d0c758-0a03-4a53-a0c6-1b446099165e" d="M485.33,407.55c-21.84.77-33.11-19.6-31.91-35.38.93-12.27,12.23-25.83,27.53-27.7a51.88,51.88,0,0,1,18.11.57c18.13,4.18,27.7,21.75,21.37,39.25C515.07,399.11,502.35,407.54,485.33,407.55Zm-5.71-32.66a4.51,4.51,0,0,0,4.33,4.76,4.65,4.65,0,0,0,4.94-4.75,4.37,4.37,0,0,0-4.53-4.53C481.4,370.37,479.62,372.07,479.62,374.88Zm-18.91-3.57a4.4,4.4,0,0,0-4.61,4.45,4.75,4.75,0,0,0,4.86,4.86,4.52,4.52,0,0,0,4.38-4.71C465.38,373,463.68,371.36,460.71,371.31Zm9.64,12.62c4.16,1.73,8.45.67,12.71.65C478.92,382.8,474.58,384.47,470.35,383.93Zm14.09,1.25Z" transform="translate(-329.68 -200.81)"/><path class="9af9605d-e581-4c34-8369-5c9131c092d0" d="M493.83,455.09c-5.94.25-12.48-.89-19-2.23-1.91-.39-2.93-1.08-2.59-3.29,1.09-7,1.16-14.09,1.27-21.14a127.21,127.21,0,0,0-.68-16.19c-.34-3-.24-2.93,2.57-2.3,12.93,2.88,24.94.74,35.82-6.93,1.58-1.11,2-1,2.47.85a112.58,112.58,0,0,1,2.13,44.52,3.79,3.79,0,0,1-2.13,3.06C508.34,454.38,504.81,455.08,493.83,455.09Z" transform="translate(-329.68 -200.81)"/><path class="24c08a27-6e33-4c3c-b317-3d6c5e232f9d" d="M388.1,285.43a4.13,4.13,0,0,1-4.36-4.38,6.3,6.3,0,0,1,6.08-6,4.39,4.39,0,0,1,4.41,4.45A6.18,6.18,0,0,1,388.1,285.43Z" transform="translate(-329.68 -200.81)"/><path class="ffc8b029-84b0-4838-b82d-97bf5c6ffa3f" d="M471.47,281c-.71,0-1.75.42-1.35-.8s-.6-3.64,1.75-3.77c1.95-.11,1.71,2.06,1.89,3.21C474.05,281.49,472.14,280.49,471.47,281Z" transform="translate(-329.68 -200.81)"/><path class="24c08a27-6e33-4c3c-b317-3d6c5e232f9d" d="M462.19,281.07c.07,2.34-3.42,4.64-5.68,3.8-.61-.23-.64-.68-.68-1.17-.17-2.23-.29-4.47-.52-6.7-.16-1.5.44-1.67,1.71-1.33C459.78,276.4,462.12,278.79,462.19,281.07Z" transform="translate(-329.68 -200.81)"/><path class="ffc8b029-84b0-4838-b82d-97bf5c6ffa3f" d="M466.65,257.7c-1.42-.13-3.18,1.75-3.89.12-.43-1-.62-3.81,1.48-4C466.66,253.51,465.57,256.4,466.65,257.7Z" transform="translate(-329.68 -200.81)"/><path class="ffc8b029-84b0-4838-b82d-97bf5c6ffa3f" d="M375.54,258.36c-.94.19-1.55,0-1.21-.8.59-1.37-.44-4,2-3.88,1.73.06,1.73,2.4,1.76,3.62S376.21,257.82,375.54,258.36Z" transform="translate(-329.68 -200.81)"/><path class="ffc8b029-84b0-4838-b82d-97bf5c6ffa3f" d="M500.49,257.9c-1.76-.25-3.21,1.45-4.37,0-.73-.93.74-4.28,1.63-4.19C500.24,253.92,499,256.49,500.49,257.9Z" transform="translate(-329.68 -200.81)"/><path class="79ba5288-b8d9-4737-b0c4-a930dd2badb6" d="M396.89,376.33a8.36,8.36,0,0,0-1.43,5.33,2.88,2.88,0,0,1-1.72,2.76c-2.32,1.26-6.73.63-8.64-1.22-1.66-1.61-2-5.51-.88-8,.52-1.1,1.08-1.09,2.13-.74C389.62,375.58,392.86,376.9,396.89,376.33Z" transform="translate(-329.68 -200.81)"/><path class="79ba5288-b8d9-4737-b0c4-a930dd2badb6" d="M413.8,367.51a4.75,4.75,0,0,1-5.25,4.44c-2.29-.19-4.18-2.6-4-5.15a4.65,4.65,0,1,1,9.27.71Z" transform="translate(-329.68 -200.81)"/><path class="79ba5288-b8d9-4737-b0c4-a930dd2badb6" d="M385.87,371a4.69,4.69,0,0,1-4.87-4.83,4.57,4.57,0,0,1,4.68-4.45c2.92.06,4.69,1.84,4.64,4.66A4.47,4.47,0,0,1,385.87,371Z" transform="translate(-329.68 -200.81)"/><path class="79ba5288-b8d9-4737-b0c4-a930dd2badb6" d="M479.62,374.88c0-2.81,1.78-4.51,4.74-4.51a4.37,4.37,0,0,1,4.53,4.53,4.65,4.65,0,0,1-4.94,4.75A4.51,4.51,0,0,1,479.62,374.88Z" transform="translate(-329.68 -200.81)"/><path class="79ba5288-b8d9-4737-b0c4-a930dd2badb6" d="M460.71,371.31c3,0,4.67,1.73,4.63,4.6a4.52,4.52,0,0,1-4.38,4.71,4.75,4.75,0,0,1-4.86-4.86A4.4,4.4,0,0,1,460.71,371.31Z" transform="translate(-329.68 -200.81)"/><path class="af65c6fe-f7fe-4870-a1da-2b8b841acf3c" d="M470.35,383.93c4.23.53,8.57-1.13,12.71.65C478.81,384.61,474.51,385.67,470.35,383.93Z" transform="translate(-329.68 -200.81)"/><path class="af65c6fe-f7fe-4870-a1da-2b8b841acf3c" d="M484.44,385.19Z" transform="translate(-329.68 -200.81)"/></svg>