<svg id="7dcde89c-e8cc-43e6-bd19-c176824f3b60" data-name="Capa 1" xmlns="http://www.w3.org/2000/svg" viewBox="0 0 211 308"><defs><style>.\37 b8bd151-d92b-4b20-a67f-d3ccfc05dbd4{fill:#fff;}.\32 4c82825-b134-45d0-b174-1ce6994cf083{fill:none;stroke:#000;stroke-miterlimit:10;stroke-width:4px;stroke-dasharray:11.98 11.98;}.d6a4b065-17f3-4a85-8d21-305ae5bb369f{fill:#131314;}.c1ae27b1-8c8b-4f76-a9fe-ccb00aae07cd{fill:#171717;}.ef7ae3f0-e717-4e76-9dcd-8943499894a1{fill:#131213;}.\32 7d792e4-15c4-4598-a6b3-d8732ee42202{fill:#151515;}.\37 6ffdee2-ec78-4f91-8ea9-d30bd92a6926{fill:#111;}</style></defs><title>drag-here-card</title><rect class="7b8bd151-d92b-4b20-a67f-d3ccfc05dbd4" x="2" y="2" width="207" height="304" rx="9.22" ry="9.22"/><rect class="24c82825-b134-45d0-b174-1ce6994cf083" x="2" y="2" width="207" height="304" rx="9.22" ry="9.22"/><path class="d6a4b065-17f3-4a85-8d21-305ae5bb369f" d="M518.93,743.71l3.6,1c.85.23,1.79.2,1.43,1.69s-1.11,1.08-2,.85c-1.89-.49-3.78-.95-5.66-1.45-.93-.25-1.44-.09-1.18,1s-.51,1.2-1.35,1.33c-1,.16-1.24-.34-1.31-1.2q-.5-5.92-1.07-11.83c-.07-.73.06-1.17.9-1.22a23.21,23.21,0,0,1,6.92.17c2,.48,3.63,1.44,4.08,3.67s-.72,3.59-2.38,4.73C520.36,742.79,519.81,743.13,518.93,743.71Zm-2.68-7.47c-2.18,0-2.18,0-1.93,2.23.1,1,.21,1.93.26,2.9,0,.72.3,1,1,.72a19.86,19.86,0,0,0,4.25-2,1.74,1.74,0,0,0-.24-3.19A7,7,0,0,0,516.25,736.24Z" transform="translate(-361 -587)"/><path class="c1ae27b1-8c8b-4f76-a9fe-ccb00aae07cd" d="M535.2,734.07a25.31,25.31,0,0,0,2.55-.14c1.12-.17,1.47.24,1.54,1.35s-.49,1.32-1.4,1.31c-.73,0-1.46.05-2.19.09-2.38.12-2.35.14-2.1,2.55.1.93.48,1.11,1.29,1,1.15-.14,2.31-.17,3.45-.33,1-.13,1.12.39,1.15,1.16s.23,1.49-.94,1.52-2.18.24-3.27.25-1.44.42-1.39,1.54.63,1.29,1.52,1.15c1.14-.17,2.3-.28,3.42-.53.92-.21,1.21.17,1.3,1s.44,1.37-.71,1.67a24.88,24.88,0,0,1-6.88.67c-.81,0-1-.42-1.07-1.13-.23-3.95-.46-7.9-.73-11.84-.07-.94.37-1.14,1.17-1.16,1.09,0,2.19-.1,3.28-.15Z" transform="translate(-361 -587)"/><path class="ef7ae3f0-e717-4e76-9dcd-8943499894a1" d="M479.87,739.9c-.07-1.14-.09-2.48-.26-3.81-.13-1,.32-1.25,1.21-1.27s1.43-.07,1.44,1.05c0,1.27.16,2.55.26,3.82,0,.36,0,1,.21,1,1.61.53,3.17-.18,4.75-.35,1-.1.56-.93.53-1.47-.05-1.22-.13-2.43-.27-3.64-.11-1,.17-1.43,1.25-1.45s1.26.3,1.32,1.22q.39,5.83.9,11.65c.08.92-.1,1.34-1.11,1.37s-1.6,0-1.51-1.18a2.47,2.47,0,0,0,0-.36c-.27-3.62-.26-3.47-3.86-3.19-2.16.17-1.75,1.39-1.69,2.73,0,.75.76,1.88-.91,2-1.15.08-1.62-.17-1.67-1.42C480.37,744.45,480.09,742.27,479.87,739.9Z" transform="translate(-361 -587)"/><path class="27d792e4-15c4-4598-a6b3-d8732ee42202" d="M495.83,741c-.12-1.82-.21-3.64-.37-5.46-.08-.9.13-1.33,1.14-1.34,2,0,4-.11,6-.27,1-.08,1.23.38,1.26,1.26s0,1.42-1.08,1.41-2.43.11-3.64.15c-1.66,0-.89,1.26-.92,2s-.19,1.7,1.15,1.5c1-.15,2.06-.17,3.09-.3s1.56-.09,1.66,1.19-.36,1.48-1.4,1.49-1.82.2-2.73.21c-1.09,0-1.62.29-1.53,1.58s.92,1.19,1.75,1.1,1.81-.25,2.71-.4,1.57-.52,1.83.89-.26,1.53-1.3,1.79a25.48,25.48,0,0,1-6,.55c-1,0-1.44-.31-1.43-1.34,0-2,0-4,0-6Z" transform="translate(-361 -587)"/><path class="27d792e4-15c4-4598-a6b3-d8732ee42202" d="M448,748c-5.13,0-8.36-3.34-8.12-7.92a7.12,7.12,0,0,1,8.06-6.6c.6.08,1.72-.15,1.46,1-.17.79-.22,1.73-1.68,1.57a4.57,4.57,0,0,0-5.29,4.08,4.8,4.8,0,0,0,5.09,5.22,23.77,23.77,0,0,0,3.43-.47,1.06,1.06,0,0,0,1-1.22c0-1.4-.23-2.25-1.93-1.75a23.87,23.87,0,0,1-2.53.37c-.85.15-1.49.25-1.63-1-.12-1.07,0-1.57,1.2-1.68,2.3-.22,4.6-.56,6.9-.83,1.09-.13,2.19,1.44,1.41,2-1.45,1.1-.9,2.4-.71,3.55.28,1.74-.37,2.42-2,2.73A27.2,27.2,0,0,1,448,748Z" transform="translate(-361 -587)"/><path class="76ffdee2-ec78-4f91-8ea9-d30bd92a6926" d="M414.54,744.31c1.48.42,2.57.81,3.69,1s1,.67.83,1.54c-.22,1-.66,1.07-1.53.81-1.75-.53-3.52-1-5.28-1.44-.79-.22-1.53-.38-1.26.86s-.42,1.26-1.31,1.36c-1.14.12-.93-.67-1-1.29-.32-3.52-.6-7-1-10.55-.1-1,0-1.44,1.15-1.49a21.81,21.81,0,0,1,5.82.17c1.89.43,3.39,1.4,3.78,3.48s-.7,3.35-2.25,4.41C415.79,743.53,415.33,743.81,414.54,744.31Zm-2.46-6.88c-1.63-.34-2.12.35-1.84,1.86a14.33,14.33,0,0,1,.24,2.53c0,1.1.4,1.43,1.42.93.38-.19.79-.31,1.16-.52,1.26-.71,3.3-1,3-2.89C415.72,737.24,413.61,737.64,412.09,737.43Z" transform="translate(-361 -587)"/><path class="76ffdee2-ec78-4f91-8ea9-d30bd92a6926" d="M392.22,735a8.47,8.47,0,0,1,8.06,5.24,5.27,5.27,0,0,1-2.67,7.36,9.15,9.15,0,0,1-2.23.74c-4.3.86-4.7.53-5-3.77-.18-2.3-.42-4.6-.61-6.9C389.52,735,389.54,735,392.22,735Zm6.24,7.61c0-2.5-3.06-5.28-5.52-5.14-.8,0-.69.5-.66,1q.26,3.37.56,6.73c0,.34,0,.72.41.92C395.18,746.9,398.49,744.71,398.46,742.56Z" transform="translate(-361 -587)"/><path class="76ffdee2-ec78-4f91-8ea9-d30bd92a6926" d="M436.54,746.55c.2.73-.28.95-.9,1s-1.27.49-1.43-.52a1.92,1.92,0,0,0-.08-.35c-.39-1.06-.11-2.8-1.16-3.06-1.24-.32-2.74.24-4.09.56s-.85,1.52-1,2.31c-.17,1.11-.58,1.39-1.65,1.27-1.34-.14-.77-1-.68-1.6.49-3.12,1.07-6.23,1.55-9.36a1.77,1.77,0,0,1,1.68-1.72c4-.82,4-.88,5.32,3.09.83,2.6,1.56,5.24,2.33,7.86A5.58,5.58,0,0,1,436.54,746.55Zm-6.81-5c.65-.6,2.61.43,2.48-1.15-.08-1,.25-3.25-1.71-3.16-2.27.1-1.07,2.4-1.68,3.61C428.55,741.39,428.86,741.81,429.73,741.57Z" transform="translate(-361 -587)"/></svg>