<svg id="ddcfd435-5f66-4580-aa38-ece9ac2679b2" data-name="Capa 1" xmlns="http://www.w3.org/2000/svg" viewBox="0 0 97.11 140.85"><defs><style>.abb2efaf-c964-4c9e-aa86-1be61b451677{fill:#090909;}.\37 785a82b-2716-4142-a722-27398eb1cefe{fill:#fcfcfc;}.\32 3933cb6-1d05-439f-9acd-a0dd33dc039c{fill:#f5ca9f;}.fccf17a8-0857-4338-bae1-9c26e8dc6912{fill:#94b3c6;}.a73ed002-6328-4904-a57f-55c67b20c4eb{fill:#8facbe;}.df169600-8f11-4a72-a060-5253bbc5987d{fill:#e6e6e6;}.b6f11953-0fb4-4a1d-a247-f2f57e576235{fill:#171717;}.ef57eed4-3380-4f44-a8df-a824ab4cdf84{fill:#121112;}.\30 a5a8f03-1648-44be-8bda-207cdcb1aa87{fill:#101011;}.a02b16c3-f8d8-400c-9d0d-7522037b9d64{fill:#151515;}.e44effd5-6780-4b95-bde8-00d7e17bf19a{fill:#131213;}.\36 8a41bdc-3b17-4e8c-8c1d-03585e7b8deb{fill:#131314;}.d143ec6f-e62f-4f28-898a-c741fd82d3c2{fill:#0a0806;}.\38 ecb3764-d2d7-43e0-8b21-97eb4be4f4a4{fill:#f4f5f4;}</style></defs><title>card-2</title><path class="abb2efaf-c964-4c9e-aa86-1be61b451677" d="M418.08,741.31q0-32.61,0-65.23a7.5,7.5,0,0,1,.21-2.08,3.74,3.74,0,0,1,3.32-2.88,15.09,15.09,0,0,1,2.09-.12h85.77c.5,0,1,0,1.51.05a4,4,0,0,1,4.21,4.25c0,.22,0,.45,0,.67q0,65.35,0,130.7a9,9,0,0,1,0,1.09c-.35,2.85-1.75,4.09-4.61,4.09H422.42a4,4,0,0,1-4.29-3.9,12.86,12.86,0,0,1-.05-1.34Q418.07,774,418.08,741.31Zm1.88.07q0,32.65,0,65.31c0,.28,0,.56,0,.84a2.42,2.42,0,0,0,2.54,2.44c1.23,0,2.46,0,3.69,0h12.91c.38,0,.75.09.87-.5.56-2.68,1-5.37,1.46-8.07a.68.68,0,0,0-.45-.85,33.31,33.31,0,0,1-3-1.68,1.75,1.75,0,0,1-.88-1.42c-.31-2.55-.7-5.09-.95-7.65a70.66,70.66,0,0,1,.19-15.8c.62-4.85,1.59-9.63,2.68-14.4a1.15,1.15,0,0,0-.31-1.19A28.53,28.53,0,0,1,434,752a29.29,29.29,0,0,1-3.47-11.8,22.67,22.67,0,0,1,4.31-15,23.72,23.72,0,0,1,11.39-8.75A35.31,35.31,0,0,1,464.5,715a26.11,26.11,0,0,1,17.63,10.7,20.84,20.84,0,0,1,3.69,7.46,28.82,28.82,0,0,1,.57,10.66,26.75,26.75,0,0,1-11.49,18.87c-.65.45-.51.63,0,1.06a59,59,0,0,1,6,5.64,9.72,9.72,0,0,1,1.64,2.42,2,2,0,0,1-.78,2.69,1,1,0,0,0-.49.8A1.33,1.33,0,0,1,480,776.6a1.25,1.25,0,0,1-1.49-.92c-.09-.25-.17-.46-.5-.46a16.88,16.88,0,0,1-4.13-.66c-.38-.1-.54-.06-.56.4-.1,3.27-.17,6.53,0,9.8.19,4.69.61,9.36,1.06,14a1.33,1.33,0,0,1-1.15,1.65,14.93,14.93,0,0,1-1.7.44c-.58.09-.7.36-.64.91.28,2.44.55,4.89.74,7.33.06.7.27.86.94.85,7.8,0,15.59,0,23.39,0h14.67a2.41,2.41,0,0,0,2.42-1.31,4.4,4.4,0,0,0,.31-2q0-65.31,0-130.62a6.8,6.8,0,0,0-.08-1.17,2.09,2.09,0,0,0-1.86-1.86,12,12,0,0,0-1.83-.12H423.84q-.71,0-1.42,0c-1.72.1-2.39.79-2.46,2.52,0,.28,0,.56,0,.84Q420,708.85,420,741.38Zm57-1.65-.16-.05c-.42-.15-1.14.48-1.24-.12s.76-.61,1.22-.74q3.25-1,6.54-1.79c.46-.12.56-.27.51-.72a16.7,16.7,0,0,0-1.61-5.51,23.09,23.09,0,0,0-13-11.93,33,33,0,0,0-17.75-1.26,22.3,22.3,0,0,0-13.82,8.19,20,20,0,0,0-4.6,11.64,24.2,24.2,0,0,0,1.64,9.84c2,5.32,5.12,9.76,10.11,12.72A31,31,0,0,0,457,764a24.41,24.41,0,0,0,16-3.06c4.14-2.45,6.89-6.13,9-10.36A24.19,24.19,0,0,0,484,738.18c0-.22,0-.61-.37-.47a22.55,22.55,0,0,0-2.86.87c2.38,1.66,3,3.29,2,5.12a3.68,3.68,0,0,1-4.27,1.63C476.57,744.57,476.11,742.9,477,739.74Zm-36.12,23.53a4.47,4.47,0,0,0-.2.56c-.56,2.9-1.16,5.8-1.58,8.73a81,81,0,0,0,.42,23.7,1.06,1.06,0,0,0,.52.89,21.68,21.68,0,0,0,8.26,3,64,64,0,0,0,22.67-1.71c.6-.15.78-.38.72-1a140.22,140.22,0,0,1-.86-22.4c.06-.94-.11-1.5-1.14-1.69-1.29-.24-2.44-1-3.88-.74-2.51.39-5,1.07-7.49,1.37a8,8,0,0,1-4.45-.35,3.89,3.89,0,0,0-1.93-.41,1.25,1.25,0,0,1-1.44-1.11,1.27,1.27,0,0,0-.63-.83,42.82,42.82,0,0,1-4.52-3.85C443.87,766,442.39,764.68,440.86,763.26ZM455.76,810h12.4c.41,0,.85.11.77-.6-.26-2.36-.49-4.72-.72-7.08,0-.45-.18-.59-.67-.49A60.11,60.11,0,0,1,453.32,803a32.61,32.61,0,0,1-8.77-1.06c-.6-.19-.51.24-.56.52-.41,2.22-.77,4.45-1.23,6.66-.15.73,0,.82.69.82C447.55,810,451.66,810,455.76,810ZM445,763l-.06.1,1.57,1.49a49.44,49.44,0,0,0,5.33,4.58c.25.17.43.35.81.17,3.63-1.67,7.39-1.36,11.17-.73,1.45.24,2.78,1,4.32.86.8-.1,1.61-.19,2.42-.24.44,0,.64-.17.67-.64.07-1.09.16-2.18.33-3.25.12-.73,0-.82-.7-.55a23.24,23.24,0,0,1-7.29,1.83A35.14,35.14,0,0,1,447.16,764C446.42,763.7,445.7,763.36,445,763Zm31.59,6L474,766.77c-.65,2.14-.58,2.25,1.42,2.26Zm.88,3.25a3.25,3.25,0,0,0-2.39-.34A5.33,5.33,0,0,0,477.44,772.27ZM458.58,771a3.87,3.87,0,0,0-2.4.17C457,771.57,457.79,771.17,458.58,771Z" transform="translate(-418.08 -671)"/><path class="7785a82b-2716-4142-a722-27398eb1cefe" d="M420,741.38q0-32.53,0-65.06c0-.28,0-.56,0-.84.07-1.73.74-2.42,2.46-2.52q.71,0,1.42,0h85.68a12,12,0,0,1,1.83.12,2.09,2.09,0,0,1,1.86,1.86,6.8,6.8,0,0,1,.08,1.17q0,65.31,0,130.62a4.4,4.4,0,0,1-.31,2,2.41,2.41,0,0,1-2.42,1.31H495.9c-7.8,0-15.59,0-23.39,0-.67,0-.89-.16-.94-.85-.2-2.45-.47-4.89-.74-7.33-.06-.55.06-.82.64-.91a14.93,14.93,0,0,0,1.7-.44,1.33,1.33,0,0,0,1.15-1.65c-.45-4.67-.87-9.34-1.06-14-.13-3.27-.06-6.53,0-9.8,0-.46.18-.5.56-.4a16.88,16.88,0,0,0,4.13.66c.33,0,.41.2.5.46a1.25,1.25,0,0,0,1.49.92,1.33,1.33,0,0,0,1.23-1.27,1,1,0,0,1,.49-.8,2,2,0,0,0,.78-2.69,9.72,9.72,0,0,0-1.64-2.42,59,59,0,0,0-6-5.64c-.48-.43-.62-.6,0-1.06a26.75,26.75,0,0,0,11.49-18.87,28.82,28.82,0,0,0-.57-10.66,20.84,20.84,0,0,0-3.69-7.46A26.11,26.11,0,0,0,464.5,715a35.31,35.31,0,0,0-18.25,1.45,23.72,23.72,0,0,0-11.39,8.75,22.67,22.67,0,0,0-4.31,15A29.29,29.29,0,0,0,434,752a28.53,28.53,0,0,0,4.69,6.4,1.15,1.15,0,0,1,.31,1.19c-1.08,4.76-2.05,9.55-2.68,14.4a70.66,70.66,0,0,0-.19,15.8c.25,2.56.64,5.1.95,7.65a1.75,1.75,0,0,0,.88,1.42,33.31,33.31,0,0,0,3,1.68.68.68,0,0,1,.45.85c-.43,2.7-.9,5.39-1.46,8.07-.12.59-.49.5-.87.5H426.2c-1.23,0-2.46,0-3.69,0a2.42,2.42,0,0,1-2.54-2.44c0-.28,0-.56,0-.84Q420,774,420,741.38Zm28.76-46.26c.78.53.86,1.29,1.12,1.93a.69.69,0,0,0,.74.5.66.66,0,0,0,.75-.49,34,34,0,0,0,1.55-5.21c.08-.41.11-.66-.43-.75s-.67.05-.77.55a26,26,0,0,1-1,3.88l-2.11-4.21c-.16-.32-.25-.68-.78-.37s-.6.52-.25,1c1,1.17.61,2.32-.1,3.5-.62-1.3-1.06-2.66-1.75-3.9-.19-.34-.3-.62-.79-.33s-.53.42-.28.9a23.82,23.82,0,0,1,2,4.7c.11.39.27.62.74.63s.68-.08.82-.5A5.89,5.89,0,0,0,448.72,695.12Zm-13.71-10a32.6,32.6,0,0,0-1.74-4c-.15-.29-.23-.66-.71-.35s-.63.36-.35.88a28.36,28.36,0,0,1,2,4.78.72.72,0,0,0,.77.58c.46,0,.63-.17.79-.55.25-.61.54-1.21.89-2,.3.78.56,1.42.78,2.07a.71.71,0,0,0,.78.57.71.71,0,0,0,.79-.54,37.78,37.78,0,0,0,1.49-5.14c.08-.4.15-.66-.42-.75s-.65.08-.75.57a20.11,20.11,0,0,1-1.11,3.88c-.75-1.55-1.37-3-2.14-4.34-.22-.38-.37-.42-.77-.22-.57.28-.49.61-.18,1C436.09,682.81,435.71,683.91,435,685.17Zm1.66,20.51c.32.84.59,1.51.83,2.19.14.4.41.45.78.45s.57,0,.71-.42a36.88,36.88,0,0,0,1.58-5.46c.06-.31,0-.44-.33-.52-.53-.12-.78,0-.89.57a17.17,17.17,0,0,1-1.11,3.84c-.73-1.53-1.35-2.93-2.1-4.27-.22-.4-.38-.48-.82-.26-.6.3-.42.65-.14,1,1,1.17.54,2.25-.15,3.46a36,36,0,0,0-1.72-3.9c-.16-.31-.23-.72-.77-.38s-.57.41-.31.9a29.49,29.49,0,0,1,2,4.62c.13.39.24.67.76.71s.71-.27.88-.68C436.05,707,436.32,706.41,436.66,705.68Zm40.49-7.58a11.81,11.81,0,0,0,2.55-.43c.66-.14.82-.46.75-1.11s-.45-1.24.32-1.71c.1-.06,0-.53-.08-.79s-.37-.17-.57-.15c-1,.12-2,.26-3.08.37-.5.05-.73.17-.65.77s.44.5.83.44a9.36,9.36,0,0,0,1.16-.17c.69-.19.79.14.81.72a.56.56,0,0,1-.53.68,7.06,7.06,0,0,1-1.58.2,2.22,2.22,0,0,1-2.26-2.39,2.09,2.09,0,0,1,2.42-1.88c.67.07.69-.35.78-.71.13-.55-.39-.45-.66-.49a3.26,3.26,0,0,0-3.7,3A3.33,3.33,0,0,0,477.14,698.11Zm-9.8-3.95a3.13,3.13,0,0,0-3.15-3.29,4,4,0,0,0-4,3.82,3.11,3.11,0,0,0,3.11,3.32A4,4,0,0,0,467.35,694.16Zm-10.17,1.29.88-.56a2,2,0,0,0,1.13-2.23,2.17,2.17,0,0,0-1.9-1.66,10.88,10.88,0,0,0-3.09-.08c-.42,0-.5.22-.46.6q.26,2.67.48,5.34c0,.42.11.67.64.6s.7-.13.58-.65.21-.51.57-.42c.92.23,1.85.45,2.76.71.42.12.58,0,.7-.4s.07-.67-.42-.77S457.94,695.65,457.18,695.45Zm14.43,9.48a3.23,3.23,0,0,0-3.2-3.29,4.1,4.1,0,0,0-4,3.85,3.13,3.13,0,0,0,3.14,3.3A4,4,0,0,0,471.61,704.93ZM472,695a20.16,20.16,0,0,1-2.48-3.72c-.28-.63-.8-.36-1.23-.39s-.32.23-.32.47a23.54,23.54,0,0,0,.5,5.41c.07.3.16.41.51.35.54-.1.77-.29.62-.89a8,8,0,0,1-.31-2.93c.95,1.33,1.81,2.48,2.6,3.69a.72.72,0,0,0,1,.34c.49-.12.5-.42.48-.81-.11-1.59-.2-3.18-.31-4.77,0-.37,0-.72-.59-.64s-.66.25-.58.75A18.41,18.41,0,0,1,472,695Zm-33.08-4.16a6.32,6.32,0,0,0-3.42,1.17,1.67,1.67,0,0,0-.82,1.79c.17.82.86,1,1.53,1.08s1.61.1,2.42.15c.24,0,.56,0,.65.27s-.22.47-.44.63a4.32,4.32,0,0,1-1.88.65c-.54.09-.34.48-.34.78s.12.5.52.44a5.27,5.27,0,0,0,3-1.41,1.35,1.35,0,0,0-.64-2.39,7.42,7.42,0,0,0-1.32-.17c-.56,0-1.12,0-1.67-.08-.21,0-.48,0-.54-.3s.17-.39.34-.53a4.77,4.77,0,0,1,3.08-.88c.32,0,.54,0,.65-.42C440.22,690.74,439.62,690.89,438.91,690.89Zm8.73-3.34c.57,0,.58,0,.69-.69s.16-1.13,1-1.22c1.64-.18,1.66-.25,2.09,1.35.14.53.4.45.78.41s.5-.32.41-.69a37.58,37.58,0,0,0-1.17-3.92c-.68-2-.68-2-2.75-1.52-.44.1-.67.25-.74.73-.25,1.6-.52,3.19-.85,4.77C447,687.41,447.14,687.62,447.64,687.55Zm27.58,20.67.73,0c1.7-.13,2.14-.61,2-2.34a36.24,36.24,0,0,0-.57-3.63c-.1-.57-.4-.45-.77-.43-.55,0-.43.35-.37.7.19,1.13.35,2.26.53,3.39.12.75-.08,1.19-.94,1.13-.44,0-.89.05-1.34,0-1,0-1.16-.14-1.07-1.11.11-1.19.3-2.38.46-3.57,0-.3.15-.64-.36-.64s-.79-.14-.85.48c-.1,1.05-.3,2.1-.37,3.16C472.17,707.77,472.65,708.25,475.22,708.22Zm-2.09-22.08c-.14-1.74-.3-3.47-.42-5.19,0-.44-.13-.63-.63-.61s-.57.3-.53.71,0,1,.1,1.42c.13.67-.08.92-.77,1-1.7.2-1.69.23-1.82-1.5a4.92,4.92,0,0,1,0-.58c0-.47-.16-.62-.64-.59s-.61.21-.57.67c.16,1.64.28,3.28.43,4.92,0,.2-.06.51.28.5s.67.1.86-.18a1.23,1.23,0,0,0,0-1c-.2-.76.14-1,.83-1,1.64-.15,1.65-.18,1.75,1.52,0,.45.06.72.65.67S473.21,686.56,473.13,686.14Zm-28.34-4.49c.09,1.69.09,1.69-1.37,1.88a4.46,4.46,0,0,0-.5.07c-.4.1-.56-.07-.58-.46,0-.61-.12-1.22-.12-1.84s-.22-.53-.63-.52-.58.16-.54.6q.23,2.5.39,5c0,.49.28.5.67.47s.6-.1.53-.53c0-.25,0-.51-.08-.75-.14-.57.05-.79.64-.86,1.8-.24,1.81-.26,2,1.53,0,.51.19.66.71.62s.56-.28.52-.71c-.16-1.75-.31-3.5-.42-5.26,0-.5-.23-.59-.68-.57s-.6.18-.54.61A6.13,6.13,0,0,1,444.79,681.66Zm37.51,1h0c.12,1.25.25,2.5.34,3.75,0,.51.31.48.67.45s.57-.14.5-.56-.07-.67-.09-1,0-.47.28-.51a5.57,5.57,0,0,1,2.05-.14c.44.13.14,1,.29,1.45a.53.53,0,0,1,0,.17c0,.43.11.66.63.6s.62-.19.58-.67c-.17-1.8-.32-3.61-.45-5.42,0-.44-.24-.48-.59-.46s-.66.05-.61.55.1,1.28.14,1.92c0,.18.1.46-.14.51a5.85,5.85,0,0,1-2.13.24c-.48-.1-.16-.88-.27-1.35a3.23,3.23,0,0,1-.06-.75c0-.44-.05-.72-.64-.69s-.63.28-.57.73S482.27,682.3,482.3,682.69Zm6.17,1h0c0,.92.1,1.84.14,2.76,0,.37.12.55.54.56a12,12,0,0,0,3.07-.3c.58-.14.39-.48.36-.82s-.26-.48-.63-.4a12.44,12.44,0,0,1-1.4.22c-.36,0-.78.19-.82-.48s.14-.75.68-.75.89-.1,1.33-.1.6-.21.56-.67-.21-.63-.67-.56-.95.06-1.41.14-.66-.24-.62-.67-.31-1,.5-.94c.53,0,1.06-.07,1.59-.06s.53-.25.5-.64-.09-.62-.57-.58c-.92.08-1.84.12-2.76.13-.5,0-.61.21-.57.67C488.38,682.05,488.41,682.89,488.47,683.72Zm-39.15,19.46h0c.12,1.42.27,2.83.36,4.25,0,.51.25.57.68.56s.61-.25.53-.69c0-.25,0-.5-.07-.75-.09-.48.13-.62.57-.69,1.84-.3,1.84-.32,2,1.51a.51.51,0,0,1,0,.08c0,.54.3.53.7.53s.53-.23.49-.64q-.23-2.63-.41-5.26c0-.43-.1-.66-.62-.63s-.61.25-.56.68a13.08,13.08,0,0,1,.1,1.42c0,.3.28.77-.15.88a6.24,6.24,0,0,1-2.21.25c-.05,0-.1-.3-.12-.46a17.39,17.39,0,0,1-.13-1.75c0-.52-.24-.58-.68-.56s-.63.14-.54.6A5.47,5.47,0,0,1,449.32,703.18Zm26.6-22.68h0c-.5,0-1,.06-1.5.07s-.49.13-.47.5q.16,2.75.29,5.51c0,.36.19.46.53.47a12.29,12.29,0,0,0,3-.27c.58-.14.49-.43.44-.84s-.36-.44-.71-.38-.93.15-1.4.21-.71.09-.74-.48.12-.76.67-.75.83-.08,1.25-.1.73-.06.67-.66-.26-.66-.74-.57-.73,0-1.08.11c-.7.16-.9-.1-.94-.8s.17-.85.78-.8c.39,0,.78,0,1.17,0s.74,0,.71-.62-.25-.66-.73-.6S476.31,680.48,475.92,680.5Zm-14.48,28c.68,0,.68,0,.66-.74-.06-1.92-.7-4,1.57-5.22.3-.16.27-.39.06-.69-.39-.54-.67-.44-1.09,0-1.28,1.3-1.3,1.29-2.74.26a6.27,6.27,0,0,1-.61-.44c-.35-.32-.59-.38-.92.08s-.18.66.22.91.9.66,1.38.94a1.52,1.52,0,0,1,.81,1.5c0,.95.1,1.9.12,2.84C460.91,708.31,461,708.56,461.43,708.47Zm21-7.52a4.58,4.58,0,0,0-2.75.83c-.21.15-.67.28-.28.67s.37.81,1,.35a3.3,3.3,0,0,1,2.54-.6c.23,0,.55,0,.62.31s-.17.47-.39.59c-.68.38-1.37.74-2.06,1.11a1.58,1.58,0,0,0-.1,1.88c.27.18,1.07-.16,1-.45-.11-.46.16-.58.47-.74a7.43,7.43,0,0,0,1.08-.64c.71-.54,1.49-1.08,1.22-2.17C484.55,701.36,483.65,700.94,482.44,700.95Zm-35.59,5.83h0c-.05-.72-.1-1.45-.15-2.17-.09-1.39-.09-1.41,1.29-1.58.48-.06.68-.19.62-.72s-.33-.54-.74-.49c-1.19.16-2.38.34-3.58.42-.66,0-.7.34-.59.87s.5.35.78.29c.72-.17,1,0,1,.81,0,1.17.15,2.34.21,3.51,0,.45.14.63.63.6s.61-.26.53-.7C446.86,707.34,446.86,707.06,446.84,706.78Zm6.8-24.43c1.18-.08,1.18-.08,1.27,1.06s.17,2.17.21,3.26c0,.47.23.53.63.51s.58-.17.54-.61c-.09-.92-.11-1.84-.18-2.76-.12-1.61-.13-1.63,1.44-1.93.42-.08.49-.26.44-.62s-.07-.66-.58-.59c-1.3.18-2.6.34-3.91.47-.5,0-.49.31-.44.68S453.18,682.51,453.64,682.35Zm13-1.68-4.09.49c-.23,0-.35.11-.34.37,0,.54,0,1,.82.79s1.06.08,1.07.88c0,1.12.13,2.23.17,3.35,0,.41.05.67.59.64s.64-.26.6-.73c-.08-.89-.12-1.78-.17-2.68,0-.53-.22-1.14,0-1.56s1-.26,1.46-.35.44-.32.4-.65S467.06,680.58,466.6,680.67Zm31.63,3.55h0c.05.89.14,1.78.15,2.67,0,.53.22.64.71.63a14.94,14.94,0,0,0,3.29-.52c.37-.1.54-.25.35-.65s-.14-.76-.71-.52a9,9,0,0,1-1.78.42c-.52.1-.69-.06-.71-.58-.05-1.31-.17-2.61-.22-3.92,0-.47-.21-.55-.62-.52s-.63.08-.59.56C498.17,682.61,498.19,683.42,498.23,684.23Zm-3.72,3.27a12.09,12.09,0,0,0,2.9-.46c.33-.09.69-.13.49-.64s-.25-.77-.86-.52a12.83,12.83,0,0,1-1.7.39c-.48.12-.63-.08-.65-.54-.06-1.28-.16-2.56-.23-3.83,0-.4,0-.69-.58-.65s-.67.18-.63.7c.12,1.53.23,3.05.25,4.58C493.51,687.36,493.77,687.72,494.52,687.5ZM478,711.69c0-.25,0-.5,0-.75,0-.44,0-.88-.65-.84s-.52.46-.49.86a7.59,7.59,0,0,1-.21,2.24,10.75,10.75,0,0,1-1.75,3.59c-.22.32-.29.63.07.87a.53.53,0,0,0,.78-.21A10.81,10.81,0,0,0,478,711.69Zm-44.25-17.29c-.07-.95-.16-1.89-.2-2.84,0-.46-.27-.47-.61-.44s-.61,0-.58.49q.21,2.8.38,5.6c0,.55.39.41.71.41s.55-.12.51-.55C433.89,696.19,433.85,695.3,433.77,694.41Zm9,13.31c-.14-1.77-.29-3.49-.4-5.21,0-.53-.22-.63-.72-.6s-.48.32-.45.67q.2,2.58.38,5.16c0,.41,0,.75.64.69S442.86,708.11,442.78,707.72Zm39.57.3c-.1-.26.11-.78-.51-.69-.31,0-.83-.13-.72.5.05.3-.14.83.5.71C481.92,708.47,482.43,708.7,482.35,708Z" transform="translate(-418.08 -671)"/><path class="23933cb6-1d05-439f-9acd-a0dd33dc039c" d="M477,739.74c-.87,3.16-.4,4.83,1.56,5.6a3.68,3.68,0,0,0,4.27-1.63c1-1.83.38-3.46-2-5.12a22.55,22.55,0,0,1,2.86-.87c.4-.14.36.24.37.47a24.19,24.19,0,0,1-2.12,12.41c-2.08,4.23-4.84,7.91-9,10.36A24.41,24.41,0,0,1,457,764a31,31,0,0,1-12.15-4c-5-3-8.1-7.4-10.11-12.72a24.2,24.2,0,0,1-1.64-9.84,20,20,0,0,1,4.6-11.64,22.3,22.3,0,0,1,13.82-8.19,33,33,0,0,1,17.75,1.26,23.09,23.09,0,0,1,13,11.93,16.7,16.7,0,0,1,1.61,5.51c.05.45,0,.61-.51.72q-3.29.84-6.54,1.79c-.46.14-1.32.15-1.22.74s.82,0,1.24.12ZM475,746.62c-.07-.15-.22-.16-.35-.17-2.5-.25-5-.57-7.5-.72a8.67,8.67,0,0,0-5.16,1.14,3.73,3.73,0,0,0-1.79,2.12c-.16.56-.07.85.68.76a41.62,41.62,0,0,1,11.76,0c.33.05.67.08,1,.12s.63-.07.5-.55a9.93,9.93,0,0,1-.29-1.39c-.07-.55.06-1,.74-1.06C474.81,746.84,475,746.8,475,746.62ZM461,738c-2,1.84-2.48,3.49-1.44,5.12a3.68,3.68,0,0,0,4.16,1.49,3.74,3.74,0,0,0,1.89-1.93,3.82,3.82,0,0,0-.32-3.49l.24,0c.43,0,1.06.57,1.24,0s-.63-.58-1-.7c-2.27-.66-4.56-1.27-6.85-1.88a2.92,2.92,0,0,0-1.39,0c0,.12,0,.19.05.21C458.55,737.45,459.79,737.52,461,738Zm8.75,12.72v-.36a5.78,5.78,0,0,0-2.88-.06.31.31,0,0,0-.2.22c0,.18.16.19.3.19Z" transform="translate(-418.08 -671)"/><path class="fccf17a8-0857-4338-bae1-9c26e8dc6912" d="M440.86,763.26c1.53,1.42,3,2.77,4.47,4.14a42.82,42.82,0,0,0,4.52,3.85,1.27,1.27,0,0,1,.63.83,1.25,1.25,0,0,0,1.44,1.11,3.89,3.89,0,0,1,1.93.41,8,8,0,0,0,4.45.35c2.52-.3,5-1,7.49-1.37,1.44-.22,2.59.51,3.88.74,1,.19,1.2.74,1.14,1.69a140.22,140.22,0,0,0,.86,22.4c.07.65-.11.87-.72,1a64,64,0,0,1-22.67,1.71,21.68,21.68,0,0,1-8.26-3,1.06,1.06,0,0,1-.52-.89,81,81,0,0,1-.42-23.7c.43-2.93,1-5.83,1.58-8.73A4.47,4.47,0,0,1,440.86,763.26Z" transform="translate(-418.08 -671)"/><path class="a73ed002-6328-4904-a57f-55c67b20c4eb" d="M445,763c.73.33,1.45.67,2.19,1a35.14,35.14,0,0,0,16.38,2.64,23.24,23.24,0,0,0,7.29-1.83c.65-.27.82-.19.7.55-.17,1.07-.26,2.16-.33,3.25,0,.47-.23.61-.67.64-.81,0-1.61.14-2.42.24-1.53.19-2.87-.62-4.32-.86-3.78-.62-7.55-.94-11.17.73-.38.17-.57,0-.81-.17a49.44,49.44,0,0,1-5.33-4.58l-1.57-1.49Z" transform="translate(-418.08 -671)"/><path class="df169600-8f11-4a72-a060-5253bbc5987d" d="M476.56,769h-1.15c-2,0-2.07-.12-1.42-2.26Z" transform="translate(-418.08 -671)"/><path class="a73ed002-6328-4904-a57f-55c67b20c4eb" d="M477.44,772.27a5.33,5.33,0,0,1-2.39-.34A3.25,3.25,0,0,1,477.44,772.27Z" transform="translate(-418.08 -671)"/><path class="b6f11953-0fb4-4a1d-a247-f2f57e576235" d="M458.58,771c-.79.15-1.57.55-2.4.17A3.87,3.87,0,0,1,458.58,771Z" transform="translate(-418.08 -671)"/><path class="ef57eed4-3380-4f44-a8df-a824ab4cdf84" d="M448.72,695.12a5.89,5.89,0,0,1-.62,1.79c-.14.42-.4.51-.82.5s-.63-.24-.74-.63a23.82,23.82,0,0,0-2-4.7c-.25-.47-.15-.65.28-.9s.6,0,.79.33c.69,1.24,1.13,2.6,1.75,3.9.71-1.18,1.06-2.32.1-3.5-.36-.44-.22-.68.25-1s.62.05.78.37l2.11,4.21a26,26,0,0,0,1-3.88c.09-.5.26-.63.77-.55s.51.34.43.75a34,34,0,0,1-1.55,5.21.66.66,0,0,1-.75.49.69.69,0,0,1-.74-.5C449.58,696.41,449.5,695.65,448.72,695.12Z" transform="translate(-418.08 -671)"/><path class="0a5a8f03-1648-44be-8bda-207cdcb1aa87" d="M435,685.17c.71-1.26,1.09-2.36.14-3.51-.3-.37-.39-.7.18-1,.39-.19.55-.16.77.22.76,1.36,1.39,2.79,2.14,4.34a20.11,20.11,0,0,0,1.11-3.88c.09-.48.22-.65.75-.57s.49.35.42.75a37.78,37.78,0,0,1-1.49,5.14.71.71,0,0,1-.79.54.71.71,0,0,1-.78-.57c-.22-.65-.48-1.28-.78-2.07-.34.74-.64,1.34-.89,2-.15.38-.33.58-.79.55a.72.72,0,0,1-.77-.58,28.36,28.36,0,0,0-2-4.78c-.28-.52,0-.65.35-.88s.56.06.71.35A32.6,32.6,0,0,1,435,685.17Z" transform="translate(-418.08 -671)"/><path class="0a5a8f03-1648-44be-8bda-207cdcb1aa87" d="M436.66,705.68c-.34.73-.61,1.28-.84,1.84-.17.41-.31.72-.88.68s-.63-.32-.76-.71a29.49,29.49,0,0,0-2-4.62c-.26-.49-.09-.65.31-.9s.61.08.77.38a36,36,0,0,1,1.72,3.9c.69-1.21,1.1-2.29.15-3.46-.27-.34-.46-.69.14-1,.44-.22.6-.14.82.26.75,1.34,1.37,2.74,2.1,4.27a17.17,17.17,0,0,0,1.11-3.84c.11-.61.36-.7.89-.57.33.08.39.21.33.52a36.88,36.88,0,0,1-1.58,5.46c-.13.37-.37.42-.71.42s-.64,0-.78-.45C437.25,707.19,437,706.52,436.66,705.68Z" transform="translate(-418.08 -671)"/><path class="a02b16c3-f8d8-400c-9d0d-7522037b9d64" d="M477.14,698.11a3.33,3.33,0,0,1-3.49-3.64,3.26,3.26,0,0,1,3.7-3c.27,0,.79-.07.66.49-.08.36-.11.79-.78.71a2.09,2.09,0,0,0-2.42,1.88,2.22,2.22,0,0,0,2.26,2.39,7.06,7.06,0,0,0,1.58-.2.56.56,0,0,0,.53-.68c0-.58-.12-.92-.81-.72a9.36,9.36,0,0,1-1.16.17c-.38.06-.73.2-.83-.44s.15-.72.65-.77c1-.11,2.05-.25,3.08-.37.2,0,.48-.17.57.15s.18.73.08.79c-.77.47-.37,1.15-.32,1.71s-.1,1-.75,1.11A11.85,11.85,0,0,1,477.14,698.11Z" transform="translate(-418.08 -671)"/><path class="e44effd5-6780-4b95-bde8-00d7e17bf19a" d="M467.35,694.16a4,4,0,0,1-4,3.85,3.11,3.11,0,0,1-3.11-3.32,4,4,0,0,1,4-3.82A3.13,3.13,0,0,1,467.35,694.16Zm-4,2.62a2.79,2.79,0,0,0,2.87-2.59,2,2,0,0,0-2-2.14,2.88,2.88,0,0,0-2.81,2.67A1.87,1.87,0,0,0,463.32,696.78Z" transform="translate(-418.08 -671)"/><path class="68a41bdc-3b17-4e8c-8c1d-03585e7b8deb" d="M457.18,695.45c.76.2,1.32.38,1.88.49s.54.33.42.77-.27.52-.7.4c-.91-.26-1.84-.48-2.76-.71-.36-.09-.71-.14-.57.42s-.16.59-.58.65-.61-.18-.64-.6q-.22-2.67-.48-5.34c0-.38,0-.58.46-.6a10.88,10.88,0,0,1,3.09.08,2.17,2.17,0,0,1,1.9,1.66,2,2,0,0,1-1.13,2.23Zm-2.13-2.8c.05.57.11,1.12.15,1.68,0,.34.1.56.49.38a16.72,16.72,0,0,0,1.87-.9c.72-.45.62-1.18-.15-1.53a4.48,4.48,0,0,0-1.8-.24C455.14,692,454.93,692.17,455.05,692.64Z" transform="translate(-418.08 -671)"/><path class="68a41bdc-3b17-4e8c-8c1d-03585e7b8deb" d="M471.61,704.93a4,4,0,0,1-4,3.86,3.13,3.13,0,0,1-3.14-3.3,4.1,4.1,0,0,1,4-3.85A3.23,3.23,0,0,1,471.61,704.93Zm-1.2,0a2,2,0,0,0-2-2.08,2.87,2.87,0,0,0-2.76,2.72,1.92,1.92,0,0,0,2,2A2.85,2.85,0,0,0,470.41,704.93Z" transform="translate(-418.08 -671)"/><path class="ef57eed4-3380-4f44-a8df-a824ab4cdf84" d="M472,695a18.41,18.41,0,0,0-.17-3.15c-.08-.5.07-.68.58-.75s.56.27.59.64c.1,1.59.2,3.18.31,4.77,0,.38,0,.69-.48.81a.72.72,0,0,1-1-.34c-.79-1.2-1.65-2.36-2.6-3.69a8,8,0,0,0,.31,2.93c.15.6-.08.79-.62.89-.34.06-.44-.05-.51-.35a23.54,23.54,0,0,1-.5-5.41c0-.23,0-.49.32-.47s.95-.24,1.23.39A20.16,20.16,0,0,0,472,695Z" transform="translate(-418.08 -671)"/><path class="b6f11953-0fb4-4a1d-a247-f2f57e576235" d="M438.91,690.89c.71,0,1.31-.15,1.1.78-.1.45-.33.42-.65.42a4.77,4.77,0,0,0-3.08.88c-.17.13-.4.26-.34.53s.33.28.54.3c.56,0,1.12,0,1.67.08a7.42,7.42,0,0,1,1.32.17,1.35,1.35,0,0,1,.64,2.39,5.27,5.27,0,0,1-3,1.41c-.4.07-.51-.11-.52-.44s-.2-.69.34-.78a4.32,4.32,0,0,0,1.88-.65c.22-.16.54-.3.44-.63s-.41-.25-.65-.27c-.81-.06-1.62,0-2.42-.15s-1.36-.26-1.53-1.08a1.67,1.67,0,0,1,.82-1.79A6.32,6.32,0,0,1,438.91,690.89Z" transform="translate(-418.08 -671)"/><path class="ef57eed4-3380-4f44-a8df-a824ab4cdf84" d="M447.64,687.55c-.5.07-.66-.14-.52-.77.33-1.58.6-3.18.85-4.77.08-.48.3-.63.74-.73,2.07-.45,2.07-.46,2.75,1.52a37.58,37.58,0,0,1,1.17,3.92c.08.38.09.64-.41.69s-.64.11-.78-.41c-.43-1.61-.45-1.53-2.09-1.35-.86.09-.92.6-1,1.22S448.2,687.55,447.64,687.55Zm1.5-3c.88,0,1.49-.26,1.47-.57,0-.68-.61-1.66-1-1.64-.57,0-.92.79-.92,1.89C448.73,684.56,448.89,684.58,449.14,684.54Z" transform="translate(-418.08 -671)"/><path class="68a41bdc-3b17-4e8c-8c1d-03585e7b8deb" d="M475.22,708.22c-2.57,0-3-.45-2.91-2.85.06-1.06.27-2.1.37-3.16.06-.62.48-.48.85-.48s.4.34.36.64c-.16,1.19-.35,2.38-.46,3.57-.09,1,.07,1.11,1.07,1.11.45,0,.89-.08,1.34,0,.87.06,1.06-.38.94-1.13-.18-1.13-.34-2.26-.53-3.39-.06-.35-.18-.67.37-.7.36,0,.67-.14.77.43a36.24,36.24,0,0,1,.57,3.63c.12,1.72-.32,2.21-2,2.34Z" transform="translate(-418.08 -671)"/><path class="e44effd5-6780-4b95-bde8-00d7e17bf19a" d="M473.13,686.14c.08.41.06.71-.53.76s-.62-.22-.65-.67c-.1-1.69-.11-1.67-1.75-1.52-.69.06-1,.26-.83,1a1.23,1.23,0,0,1,0,1c-.18.28-.56.17-.86.18s-.26-.31-.28-.5c-.15-1.64-.28-3.28-.43-4.92,0-.46.07-.64.57-.67s.67.13.64.59a4.92,4.92,0,0,0,0,.58c.12,1.73.12,1.69,1.82,1.5.69-.08.9-.33.77-1-.09-.46-.05-.95-.1-1.42s0-.68.53-.71.6.16.63.61C472.83,682.68,473,684.4,473.13,686.14Z" transform="translate(-418.08 -671)"/><path class="e44effd5-6780-4b95-bde8-00d7e17bf19a" d="M444.79,681.66a6.13,6.13,0,0,0,0-.69c-.07-.43.09-.59.54-.61s.65.07.68.57c.11,1.75.26,3.51.42,5.26,0,.43,0,.67-.52.71s-.67-.11-.71-.62c-.15-1.8-.16-1.77-2-1.53-.58.08-.78.3-.64.86.06.24,0,.5.08.75.07.43-.17.5-.53.53s-.63,0-.67-.47q-.16-2.51-.39-5c0-.44.09-.59.54-.6s.62,0,.63.52.09,1.22.12,1.84c0,.39.18.56.58.46a4.46,4.46,0,0,1,.5-.07C444.88,683.35,444.88,683.35,444.79,681.66Z" transform="translate(-418.08 -671)"/><path class="68a41bdc-3b17-4e8c-8c1d-03585e7b8deb" d="M482.3,682.69c0-.39,0-.78-.09-1.17s0-.71.57-.73.64.25.64.69a3.23,3.23,0,0,0,.06.75c.11.46-.21,1.24.27,1.35a5.85,5.85,0,0,0,2.13-.24c.24,0,.16-.32.14-.51,0-.64-.08-1.28-.14-1.92s.24-.53.61-.55.56,0,.59.46c.13,1.81.28,3.61.45,5.42,0,.47-.11.62-.58.67s-.64-.17-.63-.6a.53.53,0,0,0,0-.17c-.15-.49.15-1.32-.29-1.45a5.57,5.57,0,0,0-2.05.14c-.31,0-.3.28-.28.51s0,.67.09,1-.12.53-.5.56-.64.06-.67-.45c-.08-1.25-.22-2.5-.34-3.75Z" transform="translate(-418.08 -671)"/><path class="b6f11953-0fb4-4a1d-a247-f2f57e576235" d="M488.47,683.72c-.06-.83-.09-1.67-.18-2.5,0-.46.07-.66.57-.67.92,0,1.84,0,2.76-.13.49,0,.55.2.57.58s0,.65-.5.64-1.06.07-1.59.06c-.82,0-.47.56-.5.94s0,.78.62.67.95-.07,1.41-.14.64.08.67.56-.07.67-.56.67-.89.1-1.33.1-.71.2-.68.75.45.51.82.48a12.44,12.44,0,0,0,1.4-.22c.37-.08.59,0,.63.4s.23.68-.36.82a12,12,0,0,1-3.07.3c-.41,0-.52-.19-.54-.56,0-.92-.09-1.84-.14-2.76Z" transform="translate(-418.08 -671)"/><path class="e44effd5-6780-4b95-bde8-00d7e17bf19a" d="M449.32,703.18a5.47,5.47,0,0,0-.05-.67c-.09-.46.11-.58.54-.6s.68,0,.68.56a17.39,17.39,0,0,0,.13,1.75c0,.16.06.46.12.46a6.24,6.24,0,0,0,2.21-.25c.43-.11.15-.58.15-.88a13.08,13.08,0,0,0-.1-1.42c0-.43,0-.66.56-.68s.59.21.62.63q.18,2.63.41,5.26c0,.41,0,.63-.49.64s-.74,0-.7-.53a.51.51,0,0,0,0-.08c-.17-1.83-.17-1.81-2-1.51-.44.07-.66.21-.57.69,0,.25,0,.5.07.75.08.44,0,.68-.53.69s-.65-.05-.68-.56c-.09-1.42-.24-2.83-.36-4.25Z" transform="translate(-418.08 -671)"/><path class="a02b16c3-f8d8-400c-9d0d-7522037b9d64" d="M475.92,680.5c.39,0,.78,0,1.17-.06s.7,0,.73.6-.28.62-.71.62-.78.07-1.17,0c-.61,0-.81.15-.78.8s.24,1,.94.8c.35-.08.72-.05,1.08-.11s.68,0,.74.57-.24.64-.67.66-.83.1-1.25.1-.7.21-.67.75.38.52.74.48.94-.12,1.4-.21.65-.15.71.38.14.71-.44.84a12.29,12.29,0,0,1-3,.27c-.34,0-.51-.11-.53-.47q-.13-2.76-.29-5.51c0-.37.12-.49.47-.5s1,0,1.5-.07Z" transform="translate(-418.08 -671)"/><path class="a02b16c3-f8d8-400c-9d0d-7522037b9d64" d="M461.43,708.47c-.44.1-.53-.15-.54-.56,0-.95-.14-1.9-.12-2.84a1.52,1.52,0,0,0-.81-1.5c-.48-.28-.91-.65-1.38-.94s-.55-.44-.22-.91.57-.4.92-.08a6.27,6.27,0,0,0,.61.44c1.44,1,1.46,1,2.74-.26.42-.43.7-.53,1.09,0,.22.3.24.52-.06.69-2.27,1.22-1.63,3.31-1.57,5.22C462.12,708.46,462.11,708.47,461.43,708.47Z" transform="translate(-418.08 -671)"/><path class="b6f11953-0fb4-4a1d-a247-f2f57e576235" d="M482.44,700.95c1.22,0,2.12.41,2.3,1.14.28,1.08-.51,1.62-1.22,2.17a7.43,7.43,0,0,1-1.08.64c-.31.16-.58.28-.47.74.07.29-.73.63-1,.45a1.58,1.58,0,0,1,.1-1.88c.69-.37,1.38-.73,2.06-1.11.21-.12.46-.29.39-.59s-.39-.28-.62-.31a3.3,3.3,0,0,0-2.54.6c-.59.46-.71-.11-1-.35s.07-.52.28-.67A4.59,4.59,0,0,1,482.44,700.95Z" transform="translate(-418.08 -671)"/><path class="a02b16c3-f8d8-400c-9d0d-7522037b9d64" d="M446.84,706.78c0,.28,0,.56.06.84.07.44,0,.66-.53.7s-.61-.15-.63-.6c-.05-1.17-.22-2.34-.21-3.51,0-.85-.32-1-1-.81-.28.07-.67.28-.78-.29s-.07-.82.59-.87c1.2-.09,2.39-.26,3.58-.42.41-.06.68,0,.74.49s-.13.66-.62.72c-1.38.17-1.38.2-1.29,1.58,0,.72.1,1.45.15,2.17Z" transform="translate(-418.08 -671)"/><path class="a02b16c3-f8d8-400c-9d0d-7522037b9d64" d="M453.64,682.35c-.46.16-.53-.15-.58-.52s-.06-.63.44-.68c1.31-.13,2.61-.29,3.91-.47.51-.07.53.24.58.59s0,.54-.44.62c-1.57.3-1.56.32-1.44,1.93.07.92.09,1.84.18,2.76,0,.44-.1.59-.54.61s-.61,0-.63-.51c0-1.09-.13-2.17-.21-3.26S454.82,682.27,453.64,682.35Z" transform="translate(-418.08 -671)"/><path class="a02b16c3-f8d8-400c-9d0d-7522037b9d64" d="M466.6,680.67c.46-.1.46.23.5.55s0,.58-.4.65-1.22-.13-1.46.35,0,1,0,1.56c0,.89.09,1.79.17,2.68,0,.48-.05.7-.6.73s-.58-.23-.59-.64c0-1.12-.17-2.23-.17-3.35,0-.8-.26-1.14-1.07-.88s-.8-.25-.82-.79c0-.25.11-.34.34-.37Z" transform="translate(-418.08 -671)"/><path class="a02b16c3-f8d8-400c-9d0d-7522037b9d64" d="M498.23,684.23c0-.81-.06-1.61-.13-2.42,0-.49.2-.54.59-.56s.6.05.62.52c.05,1.31.17,2.61.22,3.92,0,.52.2.68.71.58a9,9,0,0,0,1.78-.42c.57-.24.56.22.71.52s0,.55-.35.65a14.94,14.94,0,0,1-3.29.52c-.49,0-.7-.1-.71-.63,0-.89-.1-1.78-.15-2.67Z" transform="translate(-418.08 -671)"/><path class="a02b16c3-f8d8-400c-9d0d-7522037b9d64" d="M494.52,687.5c-.75.22-1-.13-1-1,0-1.53-.14-3.06-.25-4.58,0-.52.12-.67.63-.7s.56.26.58.65c.07,1.28.17,2.55.23,3.83,0,.46.17.66.65.54a12.83,12.83,0,0,0,1.7-.39c.61-.24.7.11.86.52s-.16.55-.49.64A12.09,12.09,0,0,1,494.52,687.5Z" transform="translate(-418.08 -671)"/><path class="ef57eed4-3380-4f44-a8df-a824ab4cdf84" d="M478,711.69a10.81,10.81,0,0,1-2.24,5.76.53.53,0,0,1-.78.21c-.36-.23-.29-.55-.07-.87a10.75,10.75,0,0,0,1.75-3.59,7.59,7.59,0,0,0,.21-2.24c0-.4-.09-.82.49-.86s.64.4.65.84C478,711.19,478,711.44,478,711.69Z" transform="translate(-418.08 -671)"/><path class="ef57eed4-3380-4f44-a8df-a824ab4cdf84" d="M433.78,694.41c.07.89.12,1.78.22,2.67,0,.43-.13.54-.51.55s-.68.14-.71-.41q-.17-2.8-.38-5.6c0-.48.26-.46.58-.49s.59,0,.61.44C433.61,692.51,433.71,693.46,433.78,694.41Z" transform="translate(-418.08 -671)"/><path class="0a5a8f03-1648-44be-8bda-207cdcb1aa87" d="M442.78,707.72c.08.39,0,.66-.55.71s-.61-.28-.64-.69q-.18-2.58-.38-5.16c0-.35-.08-.64.45-.67s.69.08.72.6C442.49,704.23,442.64,705.95,442.78,707.72Z" transform="translate(-418.08 -671)"/><path class="b6f11953-0fb4-4a1d-a247-f2f57e576235" d="M482.35,708c.08.68-.43.46-.73.52-.64.12-.45-.41-.5-.71-.11-.63.41-.46.72-.5C482.46,707.23,482.25,707.76,482.35,708Z" transform="translate(-418.08 -671)"/><path class="d143ec6f-e62f-4f28-898a-c741fd82d3c2" d="M475,746.62c-.08.18-.24.22-.41.23-.68.05-.81.51-.74,1.06a9.93,9.93,0,0,0,.29,1.39c.13.48-.06.61-.5.55s-.67-.07-1-.12a41.62,41.62,0,0,0-11.76,0c-.75.09-.84-.2-.68-.76a3.73,3.73,0,0,1,1.79-2.12,8.67,8.67,0,0,1,5.16-1.14c2.51.15,5,.47,7.5.72C474.83,746.46,475,746.47,475,746.62Z" transform="translate(-418.08 -671)"/><path class="d143ec6f-e62f-4f28-898a-c741fd82d3c2" d="M461,738c-1.17-.51-2.41-.58-3.44-1.22,0,0,0-.09-.05-.21a2.92,2.92,0,0,1,1.39,0c2.29.61,4.58,1.22,6.85,1.88.4.12,1.2.15,1,.7s-.81,0-1.24,0l-.24,0a3.82,3.82,0,0,1,.32,3.49,3.74,3.74,0,0,1-1.89,1.93,3.68,3.68,0,0,1-4.16-1.49C458.48,741.52,458.93,739.87,461,738Z" transform="translate(-418.08 -671)"/><path class="b6f11953-0fb4-4a1d-a247-f2f57e576235" d="M469.72,750.76h-2.77c-.14,0-.3,0-.3-.19a.31.31,0,0,1,.2-.22,5.78,5.78,0,0,1,2.88.06Z" transform="translate(-418.08 -671)"/><path class="8ecb3764-d2d7-43e0-8b21-97eb4be4f4a4" d="M463.32,696.78a1.87,1.87,0,0,1-1.92-2.06,2.88,2.88,0,0,1,2.81-2.67,2,2,0,0,1,2,2.14A2.79,2.79,0,0,1,463.32,696.78Z" transform="translate(-418.08 -671)"/><path class="8ecb3764-d2d7-43e0-8b21-97eb4be4f4a4" d="M455.05,692.64c-.13-.47.09-.63.56-.61a4.48,4.48,0,0,1,1.8.24c.78.36.87,1.09.15,1.53a16.72,16.72,0,0,1-1.87.9c-.4.18-.47,0-.49-.38C455.17,693.77,455.11,693.22,455.05,692.64Z" transform="translate(-418.08 -671)"/><path class="8ecb3764-d2d7-43e0-8b21-97eb4be4f4a4" d="M470.41,704.93a2.85,2.85,0,0,1-2.82,2.66,1.92,1.92,0,0,1-2-2,2.87,2.87,0,0,1,2.76-2.72A2,2,0,0,1,470.41,704.93Z" transform="translate(-418.08 -671)"/><path class="df169600-8f11-4a72-a060-5253bbc5987d" d="M449.14,684.54c-.25,0-.41,0-.41-.32,0-1.1.35-1.85.92-1.89.34,0,.91,1,1,1.64C450.62,684.28,450,684.51,449.14,684.54Z" transform="translate(-418.08 -671)"/></svg>