<svg id="02e30660-f9e7-4fcf-9b15-a40afd098d66" data-name="Capa 1" xmlns="http://www.w3.org/2000/svg" viewBox="0 0 213.59 309.58"><defs><style>.\30 a681fef-4cc4-43dd-8e3a-1bdb8ce47478{fill:#070707;}.f88b8c41-de35-4261-b489-c3b41eb6eb07{fill:#fdfdfd;}.\35 e3d166c-31c1-4e6c-9110-f15837365c5a{fill:#171616;}.\30 8db42c4-7b65-4cb1-920d-8e715a92917d{fill:#151612;}.\32 d344420-41c0-4866-9d33-52c17b36a71c{fill:#1e1e1f;}.b4f90e94-dad9-45dc-b8ea-df4820d8794a{fill:#1d1d1d;}.b9e2097a-f42d-4ea3-be1b-04fbd85ffe4f{fill:#212122;}.b5c94a0f-7f70-4725-babe-106c26e84f15{fill:#8f9090;}.\35 44f6de5-4fc5-419b-bd20-23b499500962{fill:#727272;}.\33 7226181-6479-4e92-bfaa-a7d7129a7dbd{fill:#f7cca0;}.d41fe51b-7fe5-4df0-bbc4-86953f3860e0{fill:#95b4c7;}.\31 3c16ebb-3ba5-4a9a-babf-daefc87f324b{fill:#509541;}.\37 3b066c4-20fc-4ab9-b1aa-d0e68cf23a34{fill:#f9f8f9;}.\33 f16be04-a083-4c36-a195-169df094b47e{fill:#150f09;}.ae59eb18-5f78-49c7-83d2-1ef4040df253{fill:#57483b;}</style></defs><title>card-30</title><path class="0a681fef-4cc4-43dd-8e3a-1bdb8ce47478" d="M533.62,342.12q0,71.62,0,143.23a17.94,17.94,0,0,1-.44,5,8.31,8.31,0,0,1-8.12,6.5c-.67,0-1.33,0-2,0H330.84c-7.46,0-10.8-3.31-10.8-10.81q0-144.11,0-288.21c0-7,3.29-10.46,10.39-10.49,18-.08,36-.05,54-.05q68.24,0,136.48,0a24,24,0,0,1,5.47.31c4.55,1,7,3.89,7.23,8.57,0,.91,0,1.83,0,2.75Q533.62,270.5,533.62,342.12Zm-4.1.15q0-71.5,0-143c0-.67,0-1.33,0-2-.15-3.65-1.86-5.47-5.5-5.82-1.08-.1-2.16-.08-3.25-.08H332.28c-6.65,0-8.11,1.31-8.11,7.19q0,143.49,0,287c0,5.37,1.81,7.15,7.21,7.15h191a15.71,15.71,0,0,0,2.25,0,5,5,0,0,0,4.58-3.94,16.26,16.26,0,0,0,.32-4Q529.52,413.51,529.52,342.27Z" transform="translate(-320.04 -187.24)"/><path class="f88b8c41-de35-4261-b489-c3b41eb6eb07" d="M529.52,342.27q0,71.25,0,142.49a16.26,16.26,0,0,1-.32,4,5,5,0,0,1-4.58,3.94,15.71,15.71,0,0,1-2.25,0h-191c-5.4,0-7.21-1.78-7.21-7.15q0-143.49,0-287c0-5.88,1.46-7.19,8.11-7.19H520.77c1.08,0,2.17,0,3.25.08,3.64.34,5.35,2.17,5.5,5.82,0,.67,0,1.33,0,2Q529.52,270.77,529.52,342.27Zm-70.4,71c1.07,1.93-.05,4,.53,6-.11,6.16-.58,12.31-1.25,18.43-.24,2.22.37,3.36,2.58,3.59,1.83.19,2.13,1.15,1.87,2.89-.52,3.45-.84,6.94-1,10.43-.39,6.56-.64,13.13-.93,19.7-.05,1.25.14,2.44,1.78,2.42,1.46,0,1.67-1.11,1.72-2.27s.1-2.16.12-3.24c.1-8.75.89-17.45,1.71-26.15.17-1.86.6-2.49,2.69-2a46.32,46.32,0,0,0,8.14,1.1c7.31.52,14.61.52,21.86-1.18.85,5.43,1.81,10.74,3.15,16s2.87,10.41,4.65,15.5c.46,1.33.72,3.39,2.82,2.64s.87-2.48.54-3.84c-.06-.24-.18-.46-.26-.7a184.71,184.71,0,0,1-7.13-28.24c-.37-2.13,0-3.4,2.16-4.17a4.94,4.94,0,0,0,3.69-4.49c.38-4.47,1.18-8.91,1.14-13.42.24-.21.28-.43,0-.66l.14-1.2.74-.17q.37,6.1.75,12.21c.07,1.24.24,2.44,1.91,2.31s1.66-1.32,1.58-2.57c-.24-3.82-.41-7.65-.71-11.46-.81-10.37-1.61-20.81-4.81-30.73-1.58-4.88-1.07-8.42,1.36-13,10.36-19.41,2.6-38.63-15.06-46.48-11.45-5.09-23.53-4.79-35,.06s-18.75,13.43-20.45,26c-1.94,14.36,3.37,25.9,14.64,34.77,1.22,1,1.89,1.74,1.84,3.39a310.76,310.76,0,0,1-2.87,35.81c-.19,1.25-.21,2.5,1.28,2.78s2.07-.85,2.26-2.26C458.06,425.24,458.79,419.3,459.12,413.31ZM401.51,404c.18.7.37,1.4.53,2.11a101.9,101.9,0,0,0,8.12,23.23c.66,1.34,1,3.84,3.3,2.72s.48-2.9-.17-4.25a102.43,102.43,0,0,1-9.6-33.64c-.14-1.22-.6-2.51.89-3.57a32.17,32.17,0,0,0,9.14-10.77c8.85-15.63,6-36.86-12.2-47.25-11.18-6.36-23.21-6.94-35.27-3.29-12.83,3.88-20.73,12.84-22.9,26.06-1.53,9.3,1.24,18,6.51,25.76,1,1.44,1,2.17-.19,3.47-4.63,5.16-8.79,10.67-10.92,17.41-2,6.51-.56,12.15,4.5,15.88,2.15,1.58,4.13,2.85,3.38,6-.22.91.59,1.51,1.47,1.72a1.59,1.59,0,0,0,1.69-.81c1.14-1.67,0-6.83-1.75-7.89-6.4-3.92-8-8.69-5.23-15.69,2.08-5.25,5.45-9.69,9.12-13.91.45-.52.83-1.58,1.58-1.24,1,.43.38,1.47.24,2.24-2.76,15.13-3.22,30.24-.26,45.42.67,3.43,1.84,5.93,5.27,7,1.34.42,1.63,1.2,1.48,2.63a181.37,181.37,0,0,1-6,30.81c-.34,1.21-.88,2.61.82,3.13s2.14-.87,2.55-2.24a177.39,177.39,0,0,0,5.84-28.56c.4-3.15.4-3.12,3.68-2.73a85.07,85.07,0,0,0,27.57-.9c1.51-.32,2.21,0,2.62,1.62,1.31,5.07,2.8,10.08,4.19,15.13,1.35,4.89,2.69,9.77,4,14.68.36,1.41.93,2.47,2.5,2s1.21-1.75.85-2.93c-.17-.56-.29-1.13-.44-1.69q-3.88-14.05-7.74-28.11c-.24-.89-.79-2,.86-2.22,2.65-.28,3-1.91,2.48-4.09-.3-1.38-.5-2.78-.72-4.18C401.82,423.41,400.84,413.74,401.51,404ZM474,250.21c-.52-1.81-1.06-3.62-1.56-5.45-.24-.88-.61-1.41-1.67-1.47s-1.4.48-1.73,1.35a54.73,54.73,0,0,0-2.72,10.1c-.16,1-.44,1.76,1,2s1.5-.64,1.64-1.56a23.61,23.61,0,0,1,1.65-6.43c.84,2.12,1.59,3.85,2.22,5.62.36,1,1.23,1,2,1.19,1,.19,1-.75,1.23-1.28.61-1.31,1.11-2.68,1.86-4.51.91,2.33,1.58,4.18,2.35,6,.32.74.4,1.85,1.87,1.17,1.21-.56,1.11-1.12.67-2.11a50.13,50.13,0,0,1-3.39-10.93c-.18-.93-.39-1.66-1.69-1.62s-1.43.85-1.57,1.77C475.79,246.13,475.48,248.24,474,250.21Zm-53.11,23.58a21.9,21.9,0,0,1-2.22-6.39c-.26-1.07-.84-1.22-1.75-1.33s-1.32.34-1.61,1.13a50.87,50.87,0,0,0-2.74,10.32c-.11.74-.57,1.64.85,1.84s1.59-.46,1.77-1.63a19.71,19.71,0,0,1,1.65-6.21c.77,1.88,1.51,3.53,2.11,5.23a2.1,2.1,0,0,0,2,1.5c1,.08,1.12-.85,1.4-1.48.61-1.38,1.13-2.8,1.76-4.42,1,2.44,1.78,4.52,2.58,6.61.34.9.85,1.07,1.71.61.71-.38,1.25-.61.79-1.64a48.88,48.88,0,0,1-3.61-11.61c-.19-1.09-.77-1.26-1.73-1.29-1.18,0-1.26.64-1.43,1.54C422,268.76,421.49,270.93,420.86,273.79ZM464,248.21a7.13,7.13,0,0,0-7-7.24c-4.56,0-8.81,4-8.86,8.45a7,7,0,0,0,6.9,7.32C459.81,256.75,464,252.76,464,248.21Zm-105.77,2.91c.23-.71.8-.75,1.2-1,1.83-1.19,3.3-2.56,2.81-5.06s-2.37-3.42-4.63-3.84a22.77,22.77,0,0,0-6.22-.06c-.79.07-1.22.26-1.12,1.19.41,4.06.77,8.12,1.14,12.18.06.62.17,1.24,1,1,.58-.15,1.45.13,1.61-.79a11.94,11.94,0,0,0,0-1.87c2.53.65,4.86,1.23,7.17,1.86,1.06.29,1.5-.13,1.76-1.11s-.14-1.31-1.05-1.49C360.68,251.89,359.46,251.47,358.23,251.12Zm152.19,5.75a22.64,22.64,0,0,0,4.54-.69c1.76-.31,2.53-1.11,2.24-3-.16-1.09-.52-2.25.67-3.39.6-.57.38-2.37-1.56-2.08-2.3.35-4.61.67-6.92.93-.93.11-1.36.41-1.14,1.42.18.8.36,1.43,1.41,1.23s2.15-.26,3.21-.47c1.26-.24,1.68.33,1.59,1.48-.18,2.44-2.21,1.79-3.55,1.93-3.61.36-5.85-1.51-6-4.71-.12-2.74,1.82-4.57,5.28-4.56,1.38,0,1.58-.82,1.73-1.61.22-1.15-.86-1-1.53-1.07a7.32,7.32,0,0,0-8.17,6.59C501.9,253.44,505.25,256.9,510.41,256.87Zm-99.23-8.74a7,7,0,0,0-7-7.17,8.92,8.92,0,0,0-8.71,8.51c0,4.18,2.94,7.27,6.9,7.25A8.82,8.82,0,0,0,411.19,248.13Zm-17.9,31.22a8.69,8.69,0,0,0,9-8.43,6.91,6.91,0,0,0-6.93-7.22,8.83,8.83,0,0,0-8.82,8.35C386.46,276.3,389.27,279.33,393.29,279.36Zm-50.33,0c4.91.08,9-3.69,9.11-8.3a7,7,0,0,0-6.83-7.34c-4.72-.09-9,3.94-9,8.47A6.9,6.9,0,0,0,343,279.36Zm19-6.69a39.61,39.61,0,0,1-5.26-7.78c-.66-1.36-1.69-1.16-2.72-1.08-1.34.1-.86,1.23-.86,1.94a52.1,52.1,0,0,0,1,10.42c.13.67,0,1.8,1.46,1.36,1.09-.33,1.43-.65,1.15-1.88a15,15,0,0,1-.56-6.29c2,2.85,3.87,5.36,5.62,7.93a1.48,1.48,0,0,0,2.05.71c.83-.3,1.21-.64,1.14-1.57-.27-3.57-.48-7.14-.73-10.71-.06-.86-.1-1.62-1.4-1.45s-1.39.9-1.23,1.91A27.44,27.44,0,0,1,362,272.66ZM498.7,249.49a24.23,24.23,0,0,1-5.43-7.28c-.67-1.39-1.74-1.08-2.75-1-1.36.09-.84,1.24-.83,1.94a57.17,57.17,0,0,0,1,10.43c.17.86.41,1.57,1.63,1.25,1.05-.28,1.27-.67,1-1.75a16.58,16.58,0,0,1-.62-6.47c2,2.86,3.87,5.39,5.61,8a1.59,1.59,0,0,0,2,.77c.89-.25,1.25-.67,1.19-1.57-.24-3.57-.45-7.14-.69-10.71-.06-.89-.26-1.52-1.49-1.41-1.44.13-1.27,1-1.18,1.9C498.36,245.53,498.53,247.51,498.7,249.49Zm-162.38,6.06c-.09.25,0,.83,1,.83.79,0,1.7.35,1.81-1,.08-1-.07-2.32.88-2.69a11.14,11.14,0,0,1,4.61-.79c1.33.09.91,1.74,1.26,2.68s.28,2,1.82,1.63,1-1.52.79-2.33c-.82-3-1.76-5.87-2.7-8.79-1.13-3.46-1.17-3.52-4.68-2.65-1,.24-2.41-.18-2.69,1.59C337.81,247.7,337.08,251.36,336.33,255.55Zm82.3-.06,2.17-.13c3.69-.24,4.51-1.14,4.42-4.79a68.14,68.14,0,0,0-1.16-8.15c-.17-1.16-.78-1.23-1.74-1.17-1.44.09-1,1-.85,1.76.27,1.47.51,3,.78,4.42,1,5.14.67,5.4-4.57,5.42-2.21,0-2.79-.92-2.5-2.89.36-2.47.66-4.95,1-7.42.1-.71.22-1.39-.83-1.35-.68,0-1.65-.38-1.76.79-.32,3.46-1.33,6.87-.73,10.41a3.19,3.19,0,0,0,3.17,2.94C417.05,255.42,418.05,255.45,418.63,255.49Zm-49.22-14.73v.09a17.51,17.51,0,0,1-2.49.17c-1.77-.12-2.24.6-2,2.32.32,2.56.38,5.15.55,7.72.3,4.65.57,4.86,5.23,4.13.82-.13,1.63-.33,2.45-.5s1.41-.52,1.14-1.69-.68-1.27-1.7-1a32.18,32.18,0,0,1-3.21.44c-1,.15-1.29-.33-1.32-1.26s.14-1.42,1.19-1.42,1.82-.19,2.74-.24c1.12-.06,1.89-.24,1.69-1.73s-1.29-.9-2.07-.95a9.15,9.15,0,0,0-1.74.17c-1.06.14-2.12.57-2.23-1.27-.09-1.58.25-2.31,1.94-2.2.91.06,1.83-.16,2.74-.17s1.21-.33,1.11-1.21-.12-1.5-1.24-1.42C371.25,240.81,370.33,240.76,369.41,240.76Zm64.69,23a9.57,9.57,0,0,1-1.39,0c-1.83-.18-2.74.24-2.34,2.43a59.24,59.24,0,0,1,.37,6.22c.47,6.24,1.14,6.68,7.46,5a1.3,1.3,0,0,1,.24,0c1-.06,1.47-.37,1.28-1.56s-.69-1.31-1.67-1.08a24.28,24.28,0,0,1-2.71.43c-.9.1-1.81.34-1.88-1.16-.06-1.26.45-1.61,1.56-1.62s2-.13,3-.14,1.08-.73,1.06-1.54c0-1-.39-1.36-1.38-1.18a12.88,12.88,0,0,1-2,.2c-1.22,0-2.61.68-2.67-1.66-.06-2.15,1.21-1.7,2.38-1.77.75,0,1.5-.09,2.24-.1,1,0,1.19-.6,1.14-1.48s-.37-1.37-1.37-1.23S435.62,263.6,434.1,263.72Zm-16.48,30.8c.13-1,.24-1.77-.81-1.94s-1.47.48-1.71,1.39a43.63,43.63,0,0,1-15,23.3c-.71.59-1.65,1.3-.88,2.25s1.8.27,2.59-.38a46.61,46.61,0,0,0,15.77-24.62ZM442,256.82a13.92,13.92,0,0,0,4.4-.69c.67-.18,1.54-.32,1.1-1.46-.35-.91-.57-1.6-1.89-1.1a10.26,10.26,0,0,1-4.41.66,4.49,4.49,0,0,1-4.29-3.2,4.07,4.07,0,0,1,1.07-4.76,4.15,4.15,0,0,1,5.27-.66c1.28.82,2.1.46,2.64-.55.64-1.21-.7-1.45-1.36-1.84a7.13,7.13,0,0,0-10.09,8.8C435.62,255.34,437.88,256.83,442,256.82Zm-58.76-16.49c-.91,0-1,.78-1.38,1.27-.69,1,.37,1.35.91,1.6,4.13,1.9,5.41,5.19,4.82,9.47a6.37,6.37,0,0,0,0,1.24c.06,1-.27,2.22,1.55,2.08s1.15-1.26,1.12-2.13c-.16-4.05-1.22-8.36,3.43-10.91.86-.47.72-1.13,0-1.77s-1-1.14-1.78-.23c-.48.57-1.15,1-1.62,1.54-1.16,1.41-2.26,1.63-3.69.29A29.78,29.78,0,0,0,383.22,240.33Zm65.89,21.82a10.21,10.21,0,0,0-5.93,1.61c-.55.37-1.79.55-.92,1.76.64.89,1.17,1.41,2.36.52a7.06,7.06,0,0,1,5.23-1.15c.54.07,1.24.08,1.38.77.11.54-.36.9-.8,1.15-1.29.74-2.58,1.5-3.9,2.19a2.87,2.87,0,0,0-1.14,4.06.87.87,0,0,0,1.25.36c.47-.19,1.48.15,1.3-.71-.36-1.73,1.1-1.76,1.94-2.38a23.37,23.37,0,0,0,3-2.22c2.21-2.26,1.49-4.76-1.55-5.65A14.56,14.56,0,0,0,449.12,262.15Zm-72.71,5.4c1.51-.55,1.53.4,1.59,1.41.14,2.57.35,5.14.48,7.71,0,1,0,1.76,1.42,1.68s1.24-1,1.19-1.89c-.15-2.66-.29-5.31-.5-8-.09-1.13.2-1.75,1.45-1.71a15.46,15.46,0,0,0,1.74-.13c1-.08,1.12-.71,1-1.57s-.27-1.23-1.22-1.1q-4.2.57-8.41,1c-1.17.12-1.27.74-1.13,1.7C374.28,268.7,375.63,267.25,376.41,267.54Zm111.15-14.06c-.3-3.47-.61-6.94-.88-10.42-.07-.88,0-1.61-1.34-1.49-1.09.1-1.4.49-1.31,1.54.34,3.89.64,7.78.92,11.67.06.85.4,1.07,1.23,1.1C488.3,256,487.43,254.47,487.56,253.48Zm-38.88,24.16c0-.86-.1-1.63-1.33-1.47-.76.1-1.5,0-1.37,1.18.09.89.13,1.65,1.36,1.46C448.06,278.7,448.93,278.88,448.68,277.64Z" transform="translate(-320.04 -187.24)"/><path class="5e3d166c-31c1-4e6c-9110-f15837365c5a" d="M401.51,404c-.67,9.72.32,19.4,1.78,29,.21,1.4.42,2.8.72,4.18.47,2.18.17,3.81-2.48,4.09-1.66.17-1.11,1.33-.86,2.22q3.85,14.06,7.74,28.11c.15.56.27,1.13.44,1.69.36,1.18.65,2.46-.85,2.93s-2.14-.56-2.5-2c-1.26-4.91-2.61-9.79-4-14.68-1.39-5-2.88-10.06-4.19-15.13-.41-1.58-1.11-1.94-2.62-1.62a85.07,85.07,0,0,1-27.57.9c-3.28-.38-3.27-.42-3.68,2.73a177.39,177.39,0,0,1-5.84,28.56c-.41,1.37-.74,2.79-2.55,2.24s-1.17-1.92-.82-3.13a181.37,181.37,0,0,0,6-30.81c.15-1.43-.14-2.21-1.48-2.63-3.43-1.07-4.6-3.57-5.27-7-3-15.18-2.5-30.3.26-45.42.14-.78.73-1.81-.24-2.24-.75-.33-1.13.72-1.58,1.24-3.67,4.22-7,8.65-9.12,13.91-2.78,7-1.17,11.77,5.23,15.69,1.73,1.06,2.89,6.22,1.75,7.89a1.59,1.59,0,0,1-1.69.81c-.88-.21-1.69-.81-1.47-1.72.76-3.13-1.23-4.4-3.38-6-5.06-3.73-6.55-9.38-4.5-15.88,2.12-6.74,6.29-12.25,10.92-17.41,1.17-1.31,1.16-2,.19-3.47-5.26-7.78-8-16.46-6.51-25.76,2.17-13.21,10.07-22.18,22.9-26.06,12.06-3.65,24.09-3.08,35.27,3.29,18.23,10.38,21.05,31.62,12.2,47.25a32.17,32.17,0,0,1-9.14,10.77c-1.49,1.06-1,2.35-.89,3.57a102.43,102.43,0,0,0,9.6,33.64c.65,1.35,2.47,3.12.17,4.25s-2.64-1.38-3.3-2.72A101.9,101.9,0,0,1,402,406.12C401.88,405.42,401.68,404.72,401.51,404Zm-18.65-10c1.91-.1,3.84-.05,5.73-.33A31.24,31.24,0,0,0,414,370.19c3.21-13.22-1-25.4-11.57-32.94-10.42-7.42-22-7.9-33.94-5A28.49,28.49,0,0,0,347,365.47C350.11,382.59,364.31,393.89,382.85,394Zm-25.69-4.63c-.13.16-.3.28-.33.42-.18,1-.31,2-.49,2.95a104.19,104.19,0,0,0,.7,41.67c.22,1,.3,2,1.34,2.52,2.94,1.6,6,3.22,9.26,3.62A85,85,0,0,0,398.16,439c2.27-.55,2.66-1.45,2.3-3.53a177.34,177.34,0,0,1-2.5-23.32c-.22-5.73-.19-11.46,0-17.36C383.29,400.09,369.84,397.49,357.16,389.41Z" transform="translate(-320.04 -187.24)"/><path class="08db42c4-7b65-4cb1-920d-8e715a92917d" d="M509.8,420.47l-.14,1.2,0,.66c0,4.51-.76,9-1.14,13.42a4.94,4.94,0,0,1-3.69,4.49c-2.15.76-2.53,2-2.16,4.17a184.71,184.71,0,0,0,7.13,28.24c.08.24.2.46.26.7.34,1.37,1.56,3.09-.54,3.84s-2.36-1.31-2.82-2.64c-1.78-5.1-3.32-10.27-4.65-15.5s-2.29-10.55-3.15-16c-7.25,1.7-14.55,1.7-21.86,1.18a46.32,46.32,0,0,1-8.14-1.1c-2.09-.53-2.51.09-2.69,2-.82,8.7-1.6,17.4-1.71,26.15,0,1.08-.07,2.16-.12,3.24s-.26,2.25-1.72,2.27c-1.64,0-1.84-1.17-1.78-2.42.29-6.57.54-13.14.93-19.7.21-3.49.53-7,1-10.43.26-1.74,0-2.7-1.87-2.89-2.21-.23-2.82-1.37-2.58-3.59.67-6.12,1.14-12.27,1.25-18.43.7-3.48.34-7,.14-10.48a7.09,7.09,0,0,0-.66,4.47c-.32,6-1.05,11.93-1.86,17.87-.19,1.41-.63,2.57-2.26,2.26s-1.47-1.53-1.28-2.78a310.76,310.76,0,0,0,2.87-35.81c.05-1.65-.62-2.43-1.84-3.39-11.27-8.87-16.57-20.41-14.64-34.77,1.69-12.57,9.11-21.2,20.45-26s23.55-5.15,35-.06c17.66,7.85,25.42,27.07,15.06,46.48-2.42,4.54-2.94,8.09-1.36,13,3.21,9.92,4,20.36,4.81,30.73.3,3.82.47,7.64.71,11.46.08,1.24,0,2.44-1.58,2.57s-1.83-1.07-1.91-2.31q-.37-6.11-.75-12.21a12.81,12.81,0,0,0-.82-6C509.88,416.37,509.16,418.43,509.8,420.47ZM475.09,394c13.46-.73,25.11-4.9,32.07-17.51,12.31-22.29-1.8-41.63-19.95-44.95a53.91,53.91,0,0,0-16.64-.27c-15.3,1.95-26.15,15.07-27.31,27.29C441.65,375.56,454.64,395,475.09,394Zm27.57-5.61a3.55,3.55,0,0,0-.77.22c-11.58,8.11-24.14,11.19-38,7.35-1.21-.33-1.48.12-1.4,1.21.2,2.57.41,5.14.53,7.71A223.75,223.75,0,0,1,462,436c-.15,1.66.37,2.33,2,2.72a85.79,85.79,0,0,0,22.75,2.37c5.58-.18,11.13-.66,16.13-3.6a4,4,0,0,0,2.27-3.22c1.45-10.51,2-21,.3-31.54C504.69,398,503.61,393.21,502.66,388.41Z" transform="translate(-320.04 -187.24)"/><path class="2d344420-41c0-4866-9d33-52c17b36a71c" d="M474,250.21c1.51-2,1.82-4.09,2.16-6.2.15-.92.24-1.73,1.57-1.77s1.51.68,1.69,1.62a50.13,50.13,0,0,0,3.39,10.93c.44,1,.54,1.55-.67,2.11-1.47.68-1.55-.43-1.87-1.17-.77-1.8-1.45-3.65-2.35-6-.74,1.83-1.24,3.2-1.86,4.51-.25.53-.28,1.47-1.23,1.28-.78-.15-1.64-.17-2-1.19-.63-1.77-1.38-3.5-2.22-5.62a23.61,23.61,0,0,0-1.65,6.43c-.14.92-.25,1.78-1.64,1.56s-1.16-1-1-2a54.73,54.73,0,0,1,2.72-10.1c.33-.87.63-1.41,1.73-1.35s1.43.59,1.67,1.47C472.9,246.59,473.44,248.4,474,250.21Z" transform="translate(-320.04 -187.24)"/><path class="b4f90e94-dad9-45dc-b8ea-df4820d8794a" d="M420.86,273.79c.63-2.86,1.17-5,1.57-7.23.17-.9.25-1.57,1.43-1.54,1,0,1.53.2,1.73,1.29a48.88,48.88,0,0,0,3.61,11.61c.47,1-.08,1.26-.79,1.64-.86.47-1.36.29-1.71-.61-.8-2.09-1.63-4.17-2.58-6.61-.64,1.61-1.16,3-1.76,4.42-.28.63-.35,1.56-1.4,1.48a2.1,2.1,0,0,1-2-1.5c-.6-1.7-1.34-3.35-2.11-5.23a19.71,19.71,0,0,0-1.65,6.21c-.18,1.17-.35,1.83-1.77,1.63s-1-1.09-.85-1.84a50.87,50.87,0,0,1,2.74-10.32c.29-.79.65-1.24,1.61-1.13s1.48.26,1.75,1.33A21.9,21.9,0,0,0,420.86,273.79Z" transform="translate(-320.04 -187.24)"/><path class="b9e2097a-f42d-4ea3-be1b-04fbd85ffe4f" d="M464,248.21c0,4.55-4.19,8.55-9,8.52a7,7,0,0,1-6.9-7.32c0-4.41,4.29-8.46,8.86-8.45A7.13,7.13,0,0,1,464,248.21Zm-7-4.52a6.24,6.24,0,0,0-6.18,5.89,4.19,4.19,0,0,0,4.33,4.42,6.14,6.14,0,0,0,6.16-5.62A4.27,4.27,0,0,0,457,243.69Z" transform="translate(-320.04 -187.24)"/><path class="2d344420-41c0-4866-9d33-52c17b36a71c" d="M358.23,251.12c1.24.35,2.45.77,3.7,1,.91.19,1.31.5,1.05,1.49s-.7,1.4-1.76,1.11c-2.31-.64-4.64-1.21-7.17-1.86a11.94,11.94,0,0,1,0,1.87c-.16.92-1,.65-1.61.79-.83.21-1-.41-1-1-.38-4.06-.73-8.12-1.14-12.18-.09-.93.34-1.12,1.12-1.19a22.77,22.77,0,0,1,6.22.06c2.26.42,4.13,1.27,4.63,3.84s-1,3.87-2.81,5.06C359,250.37,358.46,250.41,358.23,251.12Zm-4.56-1.42a16.37,16.37,0,0,0,5.12-2.38c1.29-1,1.22-2.17-.15-3a5.73,5.73,0,0,0-5-.46c-1.26.52-.21,2.19-.19,3.35C353.43,248,353.56,248.69,353.67,249.7Z" transform="translate(-320.04 -187.24)"/><path class="2d344420-41c0-4866-9d33-52c17b36a71c" d="M510.41,256.87c-5.17,0-8.52-3.43-8.17-8a7.32,7.32,0,0,1,8.17-6.59c.67.08,1.75-.07,1.53,1.07-.15.79-.35,1.61-1.73,1.61-3.46,0-5.4,1.82-5.28,4.56.13,3.21,2.38,5.08,6,4.71,1.33-.13,3.36.52,3.55-1.93.09-1.15-.33-1.72-1.59-1.48-1.06.2-2.15.27-3.21.47s-1.23-.43-1.41-1.23c-.22-1,.21-1.31,1.14-1.42,2.31-.27,4.62-.58,6.92-.93,1.94-.29,2.16,1.51,1.56,2.08-1.19,1.14-.84,2.3-.67,3.39.29,1.91-.48,2.71-2.24,3A22.64,22.64,0,0,1,510.41,256.87Z" transform="translate(-320.04 -187.24)"/><path class="2d344420-41c0-4866-9d33-52c17b36a71c" d="M411.19,248.13a8.82,8.82,0,0,1-8.84,8.6c-4,0-6.9-3.07-6.9-7.25a8.92,8.92,0,0,1,8.71-8.51A7,7,0,0,1,411.19,248.13Zm-7-4.44a6.19,6.19,0,0,0-6.14,5.91,4.14,4.14,0,0,0,4.32,4.42,6.15,6.15,0,0,0,6.16-5.64A4.27,4.27,0,0,0,404.21,243.69Z" transform="translate(-320.04 -187.24)"/><path class="b4f90e94-dad9-45dc-b8ea-df4820d8794a" d="M393.29,279.36c-4,0-6.83-3.05-6.79-7.3a8.83,8.83,0,0,1,8.82-8.35,6.91,6.91,0,0,1,6.93,7.22A8.69,8.69,0,0,1,393.29,279.36Zm6.29-8.36a4.34,4.34,0,0,0-4.38-4.68,6.38,6.38,0,0,0-6.09,5.78,4.24,4.24,0,0,0,4.15,4.63A6.19,6.19,0,0,0,399.59,271Z" transform="translate(-320.04 -187.24)"/><path class="b4f90e94-dad9-45dc-b8ea-df4820d8794a" d="M343,279.36a6.9,6.9,0,0,1-6.73-7.18c0-4.53,4.29-8.57,9-8.47a7,7,0,0,1,6.83,7.34C352,275.67,347.87,279.44,343,279.36Zm-4-7.22c0,2.71,1.6,4.53,4.14,4.59,3.26.08,6.29-2.69,6.34-5.77a4.44,4.44,0,0,0-4.46-4.65A6.28,6.28,0,0,0,339,272.14Z" transform="translate(-320.04 -187.24)"/><path class="b9e2097a-f42d-4ea3-be1b-04fbd85ffe4f" d="M362,272.66a27.44,27.44,0,0,0-.36-6.48c-.16-1-.11-1.74,1.23-1.91s1.34.6,1.4,1.45c.24,3.57.45,7.14.73,10.71.07.93-.31,1.27-1.14,1.57a1.48,1.48,0,0,1-2.05-.71c-1.75-2.57-3.59-5.08-5.62-7.93a15,15,0,0,0,.56,6.29c.29,1.23-.06,1.55-1.15,1.88-1.46.44-1.33-.69-1.46-1.36a52.1,52.1,0,0,1-1-10.42c0-.72-.48-1.84.86-1.94,1-.08,2.06-.29,2.72,1.08A39.61,39.61,0,0,0,362,272.66Z" transform="translate(-320.04 -187.24)"/><path class="b9e2097a-f42d-4ea3-be1b-04fbd85ffe4f" d="M498.7,249.49c-.18-2-.34-4-.54-5.94-.09-.95-.26-1.77,1.18-1.9,1.23-.11,1.43.51,1.49,1.41.24,3.57.45,7.14.69,10.71.06.9-.3,1.32-1.19,1.57a1.59,1.59,0,0,1-2-.77c-1.74-2.6-3.58-5.12-5.61-8a16.58,16.58,0,0,0,.62,6.47c.25,1.08,0,1.47-1,1.75-1.22.32-1.46-.39-1.63-1.25a57.17,57.17,0,0,1-1-10.43c0-.7-.53-1.85.83-1.94,1-.06,2.08-.38,2.75,1A24.23,24.23,0,0,0,498.7,249.49Z" transform="translate(-320.04 -187.24)"/><path class="b4f90e94-dad9-45dc-b8ea-df4820d8794a" d="M336.33,255.55c.76-4.18,1.49-7.84,2.07-11.53.28-1.76,1.72-1.35,2.69-1.59,3.51-.87,3.55-.81,4.68,2.65.95,2.91,1.88,5.83,2.7,8.79.22.81.9,2-.79,2.33s-1.47-.69-1.82-1.63.08-2.58-1.26-2.68a11.14,11.14,0,0,0-4.61.79c-1,.37-.8,1.73-.88,2.69-.11,1.36-1,1-1.81,1C336.29,256.38,336.24,255.8,336.33,255.55Zm7.92-6.53c-1.21-1.19.07-4.08-2.32-4-2.18.11-2,3.07-1.59,4C341,250.69,342.76,248.88,344.24,249Z" transform="translate(-320.04 -187.24)"/><path class="2d344420-41c0-4866-9d33-52c17b36a71c" d="M418.63,255.49c-.57,0-1.57-.06-2.57-.15a3.19,3.19,0,0,1-3.17-2.94c-.61-3.54.41-6.95.73-10.41.11-1.17,1.08-.76,1.76-.79,1,0,.93.64.83,1.35-.35,2.47-.65,5-1,7.42-.29,2,.29,2.9,2.5,2.89,5.24,0,5.53-.28,4.57-5.42-.27-1.47-.52-3-.78-4.42-.15-.8-.59-1.66.85-1.76,1-.06,1.57,0,1.74,1.17a68.14,68.14,0,0,1,1.16,8.15c.09,3.66-.73,4.56-4.42,4.79Z" transform="translate(-320.04 -187.24)"/><path class="b9e2097a-f42d-4ea3-be1b-04fbd85ffe4f" d="M369.41,240.76c.92,0,1.84.05,2.75,0,1.11-.08,1.15.63,1.24,1.42s-.27,1.19-1.11,1.21-1.83.23-2.74.17c-1.69-.11-2,.62-1.94,2.2.11,1.84,1.17,1.4,2.23,1.27a9.15,9.15,0,0,1,1.74-.17c.77.05,1.85-.65,2.07.95s-.57,1.67-1.69,1.73c-.91,0-1.82.24-2.74.24s-1.22.52-1.19,1.42.31,1.41,1.32,1.26a32.18,32.18,0,0,0,3.21-.44c1-.26,1.44-.13,1.7,1s-.21,1.5-1.14,1.69-1.62.37-2.45.5c-4.66.73-4.93.52-5.23-4.13-.17-2.58-.23-5.17-.55-7.72-.21-1.72.26-2.44,2-2.32a17.51,17.51,0,0,0,2.49-.17Z" transform="translate(-320.04 -187.24)"/><path class="b4f90e94-dad9-45dc-b8ea-df4820d8794a" d="M434.1,263.72c1.52-.12,2.44-.15,3.34-.28s1.32.3,1.37,1.23-.11,1.47-1.14,1.48c-.75,0-1.5.05-2.24.1-1.16.07-2.43-.38-2.38,1.77.06,2.34,1.44,1.69,2.67,1.66a12.88,12.88,0,0,0,2-.2c1-.18,1.37.21,1.38,1.18,0,.81,0,1.52-1.06,1.54s-2,.14-3,.14-1.62.37-1.56,1.62c.07,1.5,1,1.27,1.88,1.16a24.28,24.28,0,0,0,2.71-.43c1-.23,1.48-.08,1.67,1.08s-.29,1.5-1.28,1.56a1.3,1.3,0,0,0-.24,0c-6.32,1.64-7,1.2-7.46-5a59.24,59.24,0,0,0-.37-6.22c-.4-2.19.5-2.61,2.34-2.43A9.57,9.57,0,0,0,434.1,263.72Z" transform="translate(-320.04 -187.24)"/><path class="b4f90e94-dad9-45dc-b8ea-df4820d8794a" d="M417.62,294.52a46.61,46.61,0,0,1-15.77,24.62c-.79.65-1.74,1.42-2.59.38s.16-1.66.88-2.25a43.63,43.63,0,0,0,15-23.3c.24-.91.68-1.56,1.71-1.39S417.75,293.57,417.62,294.52Z" transform="translate(-320.04 -187.24)"/><path class="2d344420-41c0-4866-9d33-52c17b36a71c" d="M442,256.82c-4.1,0-6.37-1.48-7.56-4.8a7.13,7.13,0,0,1,10.09-8.8c.66.39,2,.63,1.36,1.84-.54,1-1.35,1.37-2.64.55a4.15,4.15,0,0,0-5.27.66,4.07,4.07,0,0,0-1.07,4.76,4.49,4.49,0,0,0,4.29,3.2,10.26,10.26,0,0,0,4.41-.66c1.33-.5,1.54.19,1.89,1.1.45,1.14-.42,1.27-1.1,1.46A13.92,13.92,0,0,1,442,256.82Z" transform="translate(-320.04 -187.24)"/><path class="2d344420-41c0-4866-9d33-52c17b36a71c" d="M383.22,240.33a29.78,29.78,0,0,1,3.4,2.44c1.43,1.35,2.53,1.13,3.69-.29.47-.57,1.14-1,1.62-1.54.77-.91,1.21-.29,1.78.23s.84,1.3,0,1.77c-4.65,2.56-3.6,6.86-3.43,10.91,0,.87.64,2-1.12,2.13s-1.49-1.06-1.55-2.08a6.37,6.37,0,0,1,0-1.24c.59-4.28-.69-7.57-4.82-9.47-.53-.25-1.6-.58-.91-1.6C382.18,241.11,382.31,240.31,383.22,240.33Z" transform="translate(-320.04 -187.24)"/><path class="b9e2097a-f42d-4ea3-be1b-04fbd85ffe4f" d="M449.12,262.15a14.56,14.56,0,0,1,2.21.3c3,.88,3.75,3.39,1.55,5.65a23.37,23.37,0,0,1-3,2.22c-.84.62-2.3.65-1.94,2.38.18.86-.83.53-1.3.71a.87.87,0,0,1-1.25-.36,2.87,2.87,0,0,1,1.14-4.06c1.32-.69,2.61-1.44,3.9-2.19.44-.25.9-.61.8-1.15-.14-.69-.84-.7-1.38-.77a7.06,7.06,0,0,0-5.23,1.15c-1.19.89-1.72.37-2.36-.52-.87-1.21.37-1.39.92-1.76A10.21,10.21,0,0,1,449.12,262.15Z" transform="translate(-320.04 -187.24)"/><path class="2d344420-41c0-4866-9d33-52c17b36a71c" d="M376.41,267.54c-.78-.29-2.13,1.16-2.42-.86-.14-1,0-1.58,1.13-1.7q4.21-.42,8.41-1c1-.13,1.1.36,1.22,1.1s.07,1.5-1,1.57a15.46,15.46,0,0,1-1.74.13c-1.25,0-1.54.58-1.45,1.71.21,2.65.35,5.31.5,8,0,.88.31,1.81-1.19,1.89s-1.38-.71-1.42-1.68c-.13-2.57-.34-5.14-.48-7.71C377.94,267.94,377.92,267,376.41,267.54Z" transform="translate(-320.04 -187.24)"/><path class="2d344420-41c0-4866-9d33-52c17b36a71c" d="M487.56,253.48c-.13,1,.73,2.48-1.38,2.4-.84,0-1.17-.25-1.23-1.1-.28-3.89-.57-7.78-.92-11.67-.09-1.05.22-1.44,1.31-1.54,1.3-.12,1.27.61,1.34,1.49C487,246.54,487.27,250,487.56,253.48Z" transform="translate(-320.04 -187.24)"/><path class="b5c94a0f-7f70-4725-babe-106c26e84f15" d="M459.12,413.31a7.09,7.09,0,0,1,.66-4.47c.21,3.51.57,7-.14,10.48C459.06,417.35,460.18,415.23,459.12,413.31Z" transform="translate(-320.04 -187.24)"/><path class="5e3d166c-31c1-4e6c-9110-f15837365c5a" d="M448.68,277.64c.25,1.24-.62,1.06-1.35,1.17-1.23.19-1.27-.57-1.36-1.46-.12-1.16.62-1.08,1.37-1.18C448.59,276,448.68,276.78,448.68,277.64Z" transform="translate(-320.04 -187.24)"/><path class="544f6de5-4fc5-419b-bd20-23b499500962" d="M509.8,420.47c-.64-2,.08-4.1-.08-6.16a12.81,12.81,0,0,1,.82,6Z" transform="translate(-320.04 -187.24)"/><path class="544f6de5-4fc5-419b-bd20-23b499500962" d="M509.63,422.33l0-.66C509.91,421.91,509.87,422.13,509.63,422.33Z" transform="translate(-320.04 -187.24)"/><path class="37226181-6479-4e92-bfaa-a7d7129a7dbd" d="M382.85,394c-18.54-.15-32.74-11.44-35.82-28.57a28.49,28.49,0,0,1,21.45-33.21c11.89-2.91,23.52-2.42,33.94,5C413,344.79,417.2,357,414,370.19a31.24,31.24,0,0,1-25.41,23.52C386.7,394,384.76,393.93,382.85,394Zm14.25-24.82h-8.51c-5.26,0-6.51,1.59-5.51,6.75.26,1.33.89,1.69,2.09,1.17a19.78,19.78,0,0,1,11-1.22A12.07,12.07,0,0,1,397.1,369.22Zm10.22-10.74a4.55,4.55,0,0,0-4.71,4.68,4.68,4.68,0,0,0,4.51,4.63,4.88,4.88,0,0,0,4.91-4.86A4.61,4.61,0,0,0,407.32,358.48Zm-18.75,3.79a4.35,4.35,0,0,0-4.74-4.6,4.55,4.55,0,0,0-4.61,4.55,4.79,4.79,0,0,0,5.12,4.65A4.48,4.48,0,0,0,388.57,362.27ZM377,353.13a4.93,4.93,0,0,0,2.63-1.54c3-2.37,4.11-2.25,6.61.71a14,14,0,0,0,1.76,1.74c.45.37,1.09.67,1.53.07s-.12-.9-.5-1.24c-1.37-1.2-2.77-2.38-4.1-3.63a2.49,2.49,0,0,0-2.79-.47A11.56,11.56,0,0,0,377,353.13Zm23.79,3.17c1.59,1.3,11,1.39,13.46.11A125.84,125.84,0,0,0,400.81,356.3Z" transform="translate(-320.04 -187.24)"/><path class="d41fe51b-7fe5-4df0-bbc4-86953f3860e0" d="M357.16,389.41c12.68,8.08,26.13,10.68,40.79,5.39-.18,5.9-.21,11.62,0,17.36a177.34,177.34,0,0,0,2.5,23.32c.36,2.08,0,3-2.3,3.53a85,85,0,0,1-30.51,1.58c-3.31-.4-6.32-2-9.26-3.62-1-.57-1.13-1.55-1.34-2.52a104.19,104.19,0,0,1-.7-41.67c.18-1,.31-2,.49-2.95C356.86,389.69,357,389.57,357.16,389.41Z" transform="translate(-320.04 -187.24)"/><path class="37226181-6479-4e92-bfaa-a7d7129a7dbd" d="M475.09,394c-20.45.94-33.44-18.45-31.82-35.43,1.16-12.22,12-25.34,27.31-27.29a53.91,53.91,0,0,1,16.64.27c18.15,3.32,32.26,22.65,19.95,44.95C500.2,389.11,488.56,393.28,475.09,394Zm-.67-36.79a4.46,4.46,0,0,0-4.82,4.58,4.64,4.64,0,0,0,4.25,4.66,4.89,4.89,0,0,0,5.16-4.66A4.58,4.58,0,0,0,474.42,357.22Zm-18.81,5.57c0-2.91-1.68-4.64-4.62-4.67a4.44,4.44,0,0,0-4.67,4.43,4.81,4.81,0,0,0,5,4.78A4.52,4.52,0,0,0,455.61,362.8Zm17.9,8.65c-4.28-1.87-8.71-.18-13-.75C464.71,372.6,469.16,371.14,473.51,371.44Z" transform="translate(-320.04 -187.24)"/><path class="13c16ebb-3ba5-4a9a-babf-daefc87f324b" d="M502.66,388.41c.95,4.8,2,9.56,2.8,14.37,1.68,10.52,1.15,21-.3,31.54a4,4,0,0,1-2.27,3.22c-5,2.94-10.55,3.42-16.13,3.6A85.79,85.79,0,0,1,464,438.77c-1.62-.39-2.14-1.06-2-2.72a223.75,223.75,0,0,0,1-31.15c-.12-2.57-.33-5.14-.53-7.71-.08-1.09.19-1.54,1.4-1.21,13.88,3.84,26.44.76,38-7.35A3.55,3.55,0,0,1,502.66,388.41Z" transform="translate(-320.04 -187.24)"/><path class="73b066c4-20fc-4ab9-b1aa-d0e68cf23a34" d="M457,243.69a4.27,4.27,0,0,1,4.31,4.7,6.14,6.14,0,0,1-6.16,5.62,4.19,4.19,0,0,1-4.33-4.42A6.24,6.24,0,0,1,457,243.69Z" transform="translate(-320.04 -187.24)"/><path class="73b066c4-20fc-4ab9-b1aa-d0e68cf23a34" d="M353.67,249.7c-.11-1-.24-1.75-.25-2.49,0-1.16-1.07-2.83.19-3.35a5.73,5.73,0,0,1,5,.46c1.37.83,1.44,2,.15,3A16.37,16.37,0,0,1,353.67,249.7Z" transform="translate(-320.04 -187.24)"/><path class="73b066c4-20fc-4ab9-b1aa-d0e68cf23a34" d="M404.21,243.69a4.27,4.27,0,0,1,4.34,4.68,6.15,6.15,0,0,1-6.16,5.64,4.14,4.14,0,0,1-4.32-4.42A6.19,6.19,0,0,1,404.21,243.69Z" transform="translate(-320.04 -187.24)"/><path class="73b066c4-20fc-4ab9-b1aa-d0e68cf23a34" d="M399.59,271a6.19,6.19,0,0,1-6.32,5.74,4.24,4.24,0,0,1-4.15-4.63,6.38,6.38,0,0,1,6.09-5.78A4.34,4.34,0,0,1,399.59,271Z" transform="translate(-320.04 -187.24)"/><path class="73b066c4-20fc-4ab9-b1aa-d0e68cf23a34" d="M339,272.14a6.28,6.28,0,0,1,6-5.82,4.44,4.44,0,0,1,4.46,4.65c0,3.08-3.08,5.84-6.34,5.77C340.55,276.67,338.91,274.85,339,272.14Z" transform="translate(-320.04 -187.24)"/><path class="73b066c4-20fc-4ab9-b1aa-d0e68cf23a34" d="M344.24,249c-1.48-.14-3.25,1.68-3.92,0-.37-.93-.59-3.88,1.59-4C344.32,244.94,343,247.83,344.24,249Z" transform="translate(-320.04 -187.24)"/><path class="3f16be04-a083-4c36-a195-169df094b47e" d="M397.1,369.22a12.07,12.07,0,0,0-.9,6.69,19.78,19.78,0,0,0-11,1.22c-1.2.53-1.83.16-2.09-1.17-1-5.16.25-6.73,5.51-6.75Z" transform="translate(-320.04 -187.24)"/><path class="08db42c4-7b65-4cb1-920d-8e715a92917d" d="M407.32,358.48a4.61,4.61,0,0,1,4.7,4.45,4.88,4.88,0,0,1-4.91,4.86,4.68,4.68,0,0,1-4.51-4.63A4.55,4.55,0,0,1,407.32,358.48Z" transform="translate(-320.04 -187.24)"/><path class="3f16be04-a083-4c36-a195-169df094b47e" d="M388.57,362.27a4.48,4.48,0,0,1-4.24,4.6,4.79,4.79,0,0,1-5.12-4.65,4.55,4.55,0,0,1,4.61-4.55A4.35,4.35,0,0,1,388.57,362.27Z" transform="translate(-320.04 -187.24)"/><path class="b9e2097a-f42d-4ea3-be1b-04fbd85ffe4f" d="M377,353.13a11.56,11.56,0,0,1,5.15-4.34,2.49,2.49,0,0,1,2.79.47c1.33,1.25,2.73,2.42,4.1,3.63.38.33.87.73.5,1.24s-1.09.3-1.53-.07a14,14,0,0,1-1.76-1.74c-2.5-3-3.66-3.08-6.61-.71A4.93,4.93,0,0,1,377,353.13Z" transform="translate(-320.04 -187.24)"/><path class="b9e2097a-f42d-4ea3-be1b-04fbd85ffe4f" d="M400.81,356.3a125.84,125.84,0,0,1,13.46.11C411.84,357.69,402.4,357.6,400.81,356.3Z" transform="translate(-320.04 -187.24)"/><path class="3f16be04-a083-4c36-a195-169df094b47e" d="M474.42,357.22a4.58,4.58,0,0,1,4.59,4.59,4.89,4.89,0,0,1-5.16,4.66,4.64,4.64,0,0,1-4.25-4.66A4.46,4.46,0,0,1,474.42,357.22Z" transform="translate(-320.04 -187.24)"/><path class="3f16be04-a083-4c36-a195-169df094b47e" d="M455.61,362.8a4.52,4.52,0,0,1-4.31,4.55,4.81,4.81,0,0,1-5-4.78,4.44,4.44,0,0,1,4.67-4.43C453.93,358.16,455.64,359.88,455.61,362.8Z" transform="translate(-320.04 -187.24)"/><path class="ae59eb18-5f78-49c7-83d2-1ef4040df253" d="M473.51,371.44c-4.35-.3-8.79,1.15-13-.75C464.8,371.27,469.23,369.57,473.51,371.44Z" transform="translate(-320.04 -187.24)"/></svg>