<svg id="7f9226d9-1f84-4bbc-b0b7-9c6f3e822147" data-name="Capa 1" xmlns="http://www.w3.org/2000/svg" viewBox="0 0 213.64 309.74"><defs><style>.dfe95af5-cba4-4c61-b096-b3e87f9bf0ab{fill:#171818;}.fb1a9beb-2056-4a77-8763-ab006b6f7548{fill:#fefefe;}.\32 4ba2f2d-5623-45f2-8ea7-18013694d0c6{fill:#151515;}.\38 93b8beb-86f2-4f42-ab2b-709e10acd5ea{fill:#151611;}.\33 eda0010-67f4-4216-86d0-628dcf5129d0{fill:#f6cca0;}.ed1b2ff4-623b-4fb9-999b-bce9851ded10{fill:#95b4c6;}.a76083e5-d22d-4224-8ed1-19ae79e00338{fill:#f7cca0;}.\31 af97736-b553-4b62-9f12-1038bff29a9c{fill:#509541;}.\36 95d9fe8-dc0d-4ee8-bbc7-c79e1eed1f72{fill:#f2f2f2;}.\31 8607ab7-b76d-49ca-b51b-bbb25502d6b2{fill:#312520;}.\36 68cd987-c722-43cb-bd30-c8039a041b85{fill:#392d23;}.\33 72c0ed6-0ff3-4c01-b5c2-6cca565a4800{fill:#3f3737;}.\36 8e9f0dc-f630-46b9-acb8-39686fb1a177{fill:#755756;}.f367525f-f9c9-48fd-835f-1fd9781a64c7{fill:#d39594;}.\39 723751d-dd8b-4e75-be5f-4ee6bd2143f5{fill:#e8e7e7;}</style></defs><title>card-26</title><path class="dfe95af5-cba4-4c61-b096-b3e87f9bf0ab" d="M329.68,355.53q0-71.5,0-143a26.54,26.54,0,0,1,.21-4.24,8.43,8.43,0,0,1,7.78-7.23c1.74-.17,3.49-.24,5.24-.24q93.62,0,187.25,0c1.08,0,2.16.06,3.24.14,7.08.48,9.9,3.52,9.9,10.67q0,117.75,0,235.5,0,26.12,0,52.25a14.44,14.44,0,0,1-1.11,6.34c-1.77,3.71-5,4.84-8.87,4.84H341.08c-8.29,0-11.4-3.14-11.4-11.52Q329.68,427.28,329.68,355.53Zm4.16.07q0,71.37,0,142.74c0,6.56,1.37,8,7.82,8h190c5.89,0,7.44-1.5,7.44-7.32q0-143.48,0-287c0-5.24-1.62-6.91-6.86-6.91q-95.61,0-191.23,0c-5.84,0-7.14,1.39-7.14,7.28Q333.84,284,333.84,355.6Z" transform="translate(-329.68 -200.81)"/><path class="fb1a9beb-2056-4a77-8763-ab006b6f7548" d="M333.84,355.6q0-71.62,0-143.23c0-5.89,1.3-7.28,7.14-7.28q95.61,0,191.23,0c5.25,0,6.86,1.67,6.86,6.91q0,143.48,0,287c0,5.82-1.55,7.32-7.44,7.32h-190c-6.45,0-7.82-1.39-7.82-8Q333.84,427,333.84,355.6Zm75.74,56.1c1.12,1.12,1.89,1.95,2.72,2.71,4.15,3.85,8.88,4.64,14.08,2.51a27.72,27.72,0,0,0,8.72-6.15c.93-.91,1.73-1.58,3.2-1.3s3.18-.66,3.05-2.17c-.24-2.92,1.9-3.49,3.62-4.61a12.59,12.59,0,0,0,1.6-1.19c.64-.58.73-1.41-.32-1.27-3.81.52-7.84,1.32-10.33,4.29a39.28,39.28,0,0,1-7.11,6.88c-7.11,5.11-13.34,3.64-17.76-4-.63-1.09-.4-1.5.6-2.06,5.39-3,9.24-7.55,12.3-12.81,8.74-15,6.61-36.28-11.32-47.14-9.43-5.72-19.71-6.61-30.36-5.09-8.85,1.26-16.34,5.19-21.9,12.21-9,11.31-9.68,25.59-1.63,38.68a16.09,16.09,0,0,1,2.37,11.23c0,.33,0,.66-.07,1-1.12,15-.08,29.73,4.25,44.22,1,3.22,2.37,5.58,5.6,6.6,1.64.52,1.76,1.46,1.33,3a81.42,81.42,0,0,1-12.39,25.15c-.78,1.08-1.59,2.14-2.4,3.19s-1.21,2-.09,2.83,2.18.35,2.95-.76c.24-.34.51-.66.76-1a85.17,85.17,0,0,0,14.57-28.47c.24-.86.18-1.74,1.68-1.37,8.29,2.06,16.67,1.6,25.06.74,2.43-.25,5.19-2.16,7.09-.86s2.83,4.2,4.12,6.43a205.22,205.22,0,0,1,12.13,25.39c.49,1.21,1.08,2.23,2.49,1.73,1.61-.57,1.33-1.84.78-3.11-.67-1.52-1.27-3.07-1.92-4.6a199.5,199.5,0,0,0-14-27.2c3.67-1.81,3.69-1.82,2.66-5.69a183.36,183.36,0,0,1-4.29-20.75A157.23,157.23,0,0,1,409.58,411.7Zm59.33,24.25c-.9,4.76-1.76,9.4-2.67,14-.72,3.62-.76,3.65,2.82,4.59,1,.27,1.85.38,1.65,1.86a295.4,295.4,0,0,0-2.11,29.63c0,1.28-.4,3,1.52,3.14,2.18.2,1.94-1.58,2-3,.24-9.24.95-18.45,1.76-27.66.18-2,.66-2.73,3-2.28,9.55,1.85,19.15,2.22,28.71-.06.92-.22,1.31-.13,1.46.91.37,2.47.84,4.92,1.32,7.36A166.86,166.86,0,0,0,514.82,488c.45,1.28,1.18,2.12,2.57,1.62s1.19-1.63.84-2.73c-.07-.24-.22-.45-.3-.68a173.33,173.33,0,0,1-7.44-29.45c-.24-1.53-.27-2.7,1.53-3.3,2.78-.92,4.19-3,4.58-5.88.26-2,1-3.87,1.28-5.84.92-6.08,2.36-11.6,7.23-16.24,4.29-4.08,5.14-10,3.16-15.82a29.06,29.06,0,0,0-7.08-10.75c-2.78-2.88-2.78-2.87-.64-6.14,12.19-18.58,6.45-41.05-13.18-49.89-10.93-4.92-22.57-4.78-33.65-.62C462.14,346.64,454,354.92,452,367.6c-2.68,16.6,3.91,30,18.29,38.53a2.08,2.08,0,0,1,1.11,2.2c-.09,5.08-.75,10.15-.79,15.2,0,5.55-2,9.29-7.31,11.21-1.23.45-2,1.44-1.26,2.73s2,.9,3.09.36S467.26,436.24,468.91,435.95Z" transform="translate(-329.68 -200.81)"/><path class="24ba2f2d-5623-45f2-8ea7-18013694d0c6" d="M409.58,411.7a157.23,157.23,0,0,0,1.89,17.22,183.36,183.36,0,0,0,4.29,20.75c1,3.88,1,3.88-2.66,5.69a199.5,199.5,0,0,1,14,27.2c.65,1.53,1.25,3.08,1.92,4.6.55,1.26.83,2.54-.78,3.11-1.41.49-2-.53-2.49-1.73a205.22,205.22,0,0,0-12.13-25.39c-1.29-2.23-2.18-5.11-4.12-6.43s-4.66.61-7.09.86c-8.39.86-16.77,1.32-25.06-.74-1.5-.37-1.43.5-1.68,1.37a85.17,85.17,0,0,1-14.57,28.47c-.25.33-.53.65-.76,1-.77,1.11-1.78,1.66-2.95.76s-.64-1.9.09-2.83,1.63-2.11,2.4-3.19a81.42,81.42,0,0,0,12.39-25.15c.43-1.5.31-2.44-1.33-3-3.23-1-4.64-3.38-5.6-6.6-4.33-14.48-5.38-29.23-4.25-44.22,0-.33,0-.67.07-1a16.09,16.09,0,0,0-2.37-11.23c-8.05-13.09-7.32-27.38,1.63-38.68,5.56-7,13.05-10.95,21.9-12.21,10.65-1.52,20.93-.62,30.36,5.09,17.93,10.87,20.06,32.15,11.32,47.14-3.06,5.26-6.91,9.79-12.3,12.81-1,.56-1.23,1-.6,2.06,4.42,7.6,10.65,9.06,17.76,4a39.28,39.28,0,0,0,7.11-6.88c2.49-3,6.52-3.78,10.33-4.29,1-.14,1,.69.32,1.27a12.59,12.59,0,0,1-1.6,1.19c-1.72,1.12-3.86,1.69-3.62,4.61.12,1.51-1.44,2.48-3.05,2.17s-2.27.38-3.2,1.3a27.72,27.72,0,0,1-8.72,6.15c-5.2,2.13-9.93,1.34-14.08-2.51C411.47,413.65,410.7,412.82,409.58,411.7Zm13-50.4a31.3,31.3,0,0,0-4.09-6.32c-11.66-14.63-37.6-14.67-49.5-5.77-10,7.48-14.36,18.71-11.21,30.78,3.57,13.65,12.27,22.14,26,25.4,15.31,3.62,28.5-.56,36.69-13.71a28.07,28.07,0,0,0,4.38-12.16c-2.44,1-4.37.88-5.87-1.13a4.49,4.49,0,0,1-.59-5.14c1.48-2.75,4-2.82,6.85-2.18-.31-1.85-.57-3.48-.86-5.1-.23-1.32-.4-2.77-2-3.16s-2.62.76-3.55,1.84a9.07,9.07,0,0,1-2.48,2.42,1,1,0,0,1-1.18-.07.51.51,0,0,1,0-.85C417.64,364.69,419,361.71,422.57,361.3ZM365,408.71a5.35,5.35,0,0,0-.27.86c-1.11,13.23,1.12,26,4.88,38.65a3,3,0,0,0,1.49,1.88,24.82,24.82,0,0,0,8.8,3.42,75.16,75.16,0,0,0,30.46-1.61c1.45-.39,1.77-1,1.41-2.45a218.84,218.84,0,0,1-6.3-39.13c-.1-1.58-.5-1.89-2.07-1.51-12.13,3-23.4.6-34-5.76-.75-.45-1.37-1.31-2.43-.76a68.33,68.33,0,0,0,4.51,12.09c4.93,9.39,11.19,10.55,18.73,3.11a21.18,21.18,0,0,1,8.94-5.12c1.23-.39,3.09-1.58,3.8-.15.49,1-1.55,1.84-2.65,2.45-1.57.87-2.72,1.63-2.73,3.87,0,2-1.87,3-3.84,2.4a2.71,2.71,0,0,0-2.86.73,29.62,29.62,0,0,1-4.36,2.9A10.6,10.6,0,0,1,374,423.34a21.71,21.71,0,0,1-5.71-7.48C367.18,413.58,366.18,411.25,365,408.71Z" transform="translate(-329.68 -200.81)"/><path class="893b8beb-86f2-4f42-ab2b-709e10acd5ea" d="M468.91,435.95c-1.65.29-2.6,1.32-3.79,1.89s-2.34.91-3.09-.36,0-2.28,1.26-2.73c5.26-1.92,7.26-5.65,7.31-11.21,0-5.06.7-10.12.79-15.2a2.08,2.08,0,0,0-1.11-2.2c-14.38-8.5-21-21.93-18.29-38.53,2-12.68,10.16-21,21.76-25.3,11.08-4.15,22.71-4.29,33.65.62,19.63,8.83,25.36,31.3,13.18,49.89-2.14,3.27-2.13,3.26.64,6.14a29.06,29.06,0,0,1,7.08,10.75c2,5.87,1.13,11.73-3.16,15.82-4.88,4.64-6.31,10.15-7.23,16.24-.3,2-1,3.87-1.28,5.84-.39,2.92-1.8,5-4.58,5.88-1.8.6-1.78,1.76-1.53,3.3a173.33,173.33,0,0,0,7.44,29.45c.08.23.22.45.3.68.35,1.1.49,2.26-.84,2.73s-2.12-.34-2.57-1.62a166.86,166.86,0,0,1-6.52-23.52c-.48-2.45-1-4.9-1.32-7.36-.15-1-.54-1.13-1.46-.91-9.56,2.28-19.16,1.91-28.71.06-2.3-.45-2.78.25-3,2.28-.81,9.21-1.52,18.42-1.76,27.66,0,1.39.2,3.17-2,3-1.93-.18-1.56-1.86-1.52-3.14a295.4,295.4,0,0,1,2.11-29.63c.2-1.49-.61-1.59-1.65-1.86-3.58-.95-3.54-1-2.82-4.59C467.15,445.34,468,440.71,468.91,435.95Zm-14-63.73c.62-.48,1-.81,1.4-1.06a5,5,0,0,1,6.34.95,4.72,4.72,0,0,1-.28,6.18c-1.74,2-3.76,1.79-5.86.68-.46-.24-.91-.51-1.39-.26s-.15.66-.07,1.05c3,15,15.08,27.59,32.74,26.51,13.72-.84,25.06-5.76,31.69-18.64,7.92-15.4,3.55-31.7-10.7-40.15-7.21-4.28-15.14-4.88-23.19-4.29-13.06,1-22.79,7.09-28.59,19.08-.9,1.86-.89,2.56,1.49,2.47a16.26,16.26,0,0,1,6.4.55c-1.25.83-2.58.55-3.87.55C455.28,365.87,455.28,365.85,454.95,372.22Zm60.4,27.46c-11.77,8.76-24.3,12.24-38.37,9-1.48-.34-1.66.37-1.69,1.57a203.59,203.59,0,0,1-4.84,37.77c-.43,2,0,3,2.12,3.49a85.11,85.11,0,0,0,25.77,2,27.45,27.45,0,0,0,12.5-3.83c.56-.33,1.28-.52,1.46-1.26,1.07-4.33,2.32-8.62,2.67-13.53-1.42.77-2.47,1.38-3.57,1.91s-2.34.75-3-.62.16-2,1.2-2.62c1.64-1,3.25-2,4.89-3a3.23,3.23,0,0,0,1.73-2.56C517.13,418.62,516.36,409.29,515.35,399.68Zm4.92,26c6.32-5.79,7.76-14.71-.55-22.75C520.18,410.48,520.92,417.82,520.26,425.67Z" transform="translate(-329.68 -200.81)"/><path class="3eda0010-67f4-4216-86d0-628dcf5129d0" d="M422.57,361.3c-3.54.41-4.93,3.39-7.32,4.87a.51.51,0,0,0,0,.85,1,1,0,0,0,1.18.07,9.07,9.07,0,0,0,2.48-2.42c.94-1.08,1.93-2.24,3.55-1.84s1.74,1.85,2,3.16c.29,1.62.55,3.24.86,5.1-2.86-.64-5.37-.57-6.85,2.18a4.49,4.49,0,0,0,.59,5.14c1.51,2,3.43,2.09,5.87,1.13a28.07,28.07,0,0,1-4.38,12.16c-8.18,13.15-21.37,17.33-36.69,13.71-13.75-3.25-22.45-11.75-26-25.4-3.16-12.07,1.21-23.3,11.21-30.78,11.9-8.9,37.83-8.87,49.5,5.77A31.3,31.3,0,0,1,422.57,361.3ZM411.8,393.51c-1,.44-2.16.12-3.87.28,1.87,1,3.09,1.24,4.37.31C412.65,393.48,412.45,393.31,411.8,393.51Zm-13.51-2.34c.36.36,1,.75,1.22.33.28-.62-.65-.36-.93-.67L394.25,389l-.21.62C395.43,390.19,396.65,391.2,398.29,391.17Zm-3-14.58c-3-.78-5.25-2.71-7.55-4.6-1-.84-1.68-1.72-.21-3-2.57.31-6.35,3.46-6.69,5.33,0,.25-.15.87.32.64,1.6-.77,1.58.83,2,1.43a38.91,38.91,0,0,0,8.4,8.79c6.15,4.4,13.3,6.13,20.45,7.9a.65.65,0,0,0,.79-.35c.91-1.32,2.58-1.44,3.74-2.35,1-.77,3.87-1,1-3.12-.4-.3.05-.75.15-1.12a20.76,20.76,0,0,1,.78-2.88c1-2.41,0-2.74-2.18-2.63a54.83,54.83,0,0,1-13.4-1.08c-2.73-.53-5.49-1.11-7.71-3a29.27,29.27,0,0,1,7.57-1c.57,0,1.49.08,1.23-1-.37-1.53-5.09-3.58-6.43-2.94-.73.35,1.53,1.14-.27,1.13a3.26,3.26,0,0,0-2.31.71s0,.15-.09.35l4,.51C397.45,375.26,395.92,375.2,395.33,376.59Zm-2.09-6.21c1.22.62,1.76-.12,2.4-.62,2.55-2,3.7-1.84,5.86.64a8.52,8.52,0,0,0,2.28,2.25c.44.23,1,.46,1.35,0s0-.9-.41-1.23a38.24,38.24,0,0,1-3.56-3.08c-1.47-1.62-3-1.57-4.62-.49C395.41,368.55,394.39,369.47,393.24,370.38Zm-9.08-3.58c1.76.7,4.33.07,4.25,3.3.84-.85,1.16-1.56.51-2.36C387.62,366.14,385.84,366.58,384.16,366.8Zm16.41,24.77h.05l0,.17Z" transform="translate(-329.68 -200.81)"/><path class="ed1b2ff4-623b-4fb9-999b-bce9851ded10" d="M365,408.71c1.15,2.54,2.15,4.87,3.26,7.15a21.71,21.71,0,0,0,5.71,7.48,10.6,10.6,0,0,0,12.56,1.22,29.62,29.62,0,0,0,4.36-2.9,2.71,2.71,0,0,1,2.86-.73c2,.6,3.83-.4,3.84-2.4,0-2.23,1.16-3,2.73-3.87,1.1-.61,3.14-1.46,2.65-2.45-.71-1.44-2.57-.24-3.8.15a21.18,21.18,0,0,0-8.94,5.12c-7.54,7.45-13.8,6.28-18.73-3.11A68.33,68.33,0,0,1,367,402.29c1.06-.55,1.68.31,2.43.76,10.57,6.37,21.84,8.72,34,5.76,1.58-.38,2-.07,2.07,1.51a218.84,218.84,0,0,0,6.3,39.13c.36,1.45,0,2.06-1.41,2.45a75.16,75.16,0,0,1-30.46,1.61,24.82,24.82,0,0,1-8.8-3.42,3,3,0,0,1-1.49-1.88c-3.75-12.62-6-25.42-4.88-38.65A5.35,5.35,0,0,1,365,408.71Z" transform="translate(-329.68 -200.81)"/><path class="a76083e5-d22d-4224-8ed1-19ae79e00338" d="M454.95,372.22c.34-6.36.34-6.34,6.11-6.38,1.28,0,2.62.28,3.87-.55a16.26,16.26,0,0,0-6.4-.55c-2.38.1-2.39-.61-1.49-2.47,5.8-12,15.53-18.12,28.59-19.08,8.05-.59,16,0,23.19,4.29,14.25,8.45,18.63,24.75,10.7,40.15-6.63,12.88-18,17.8-31.69,18.64-17.65,1.08-29.7-11.5-32.74-26.51-.08-.39-.44-.79.07-1.05s.93,0,1.39.26c2.09,1.11,4.11,1.33,5.86-.68a4.72,4.72,0,0,0,.28-6.18,5,5,0,0,0-6.34-.95C455.93,371.41,455.57,371.74,454.95,372.22Zm22.27,1.86a4.63,4.63,0,0,0,4.24,4.88,5,5,0,0,0,5.05-4.77,4.54,4.54,0,0,0-4.5-4.62A4.39,4.39,0,0,0,477.22,374.08Zm11.65-8.95c-3.16-1.16-11.18-1-13.38.41C480.32,365.56,484.58,365.79,488.87,365.13ZM473,384a4.48,4.48,0,0,0,4.72.89c.22-.07.67-.43.31-.75-1.11-1-2.5-.37-3.76-.5A5,5,0,0,0,473,384Z" transform="translate(-329.68 -200.81)"/><path class="1af97736-b553-4b62-9f12-1038bff29a9c" d="M515.35,399.68c1,9.61,1.78,18.95.86,28.35a3.23,3.23,0,0,1-1.73,2.56c-1.63,1-3.24,2-4.89,3-1,.61-1.8,1.39-1.2,2.62s1.88,1.16,3,.62,2.15-1.15,3.57-1.91c-.36,4.9-1.6,9.2-2.67,13.53-.18.73-.9.93-1.46,1.26a27.45,27.45,0,0,1-12.5,3.83,85.11,85.11,0,0,1-25.77-2c-2.12-.53-2.55-1.47-2.12-3.49a203.59,203.59,0,0,0,4.84-37.77c0-1.2.21-1.91,1.69-1.57C491,411.92,503.58,408.44,515.35,399.68Z" transform="translate(-329.68 -200.81)"/><path class="695d9fe8-dc0d-4ee8-bbc7-c79e1eed1f72" d="M520.26,425.67c.66-7.85-.08-15.2-.55-22.75C528,411,526.58,419.88,520.26,425.67Z" transform="translate(-329.68 -200.81)"/><path class="18607ab7-b76d-49ca-b51b-bbb25502d6b2" d="M395.29,376.56c2.23,1.88,5,2.46,7.72,3a54.83,54.83,0,0,0,13.4,1.08c2.13-.11,3.22.22,2.18,2.63a20.76,20.76,0,0,0-.78,2.88c-.1.37-.56.82-.15,1.12,2.82,2.12-.07,2.35-1,3.12-1.16.91-2.83,1-3.74,2.35a.65.65,0,0,1-.79.35c-7.15-1.78-14.31-3.5-20.45-7.9a38.91,38.91,0,0,1-8.4-8.79c-.44-.59-.42-2.2-2-1.43-.47.23-.36-.39-.32-.64.34-1.87,4.12-5,6.69-5.33-1.47,1.29-.82,2.17.21,3,2.3,1.89,4.57,3.82,7.55,4.6Zm2.58,4.56,1.47,1-.67.6c-1.27.39-.66,1.51-.89,2.3-.71-.44-.37-1.17-.49-1.77l0-.84-1.93-1.27c1.11-2,.17-3-1.66-3.59-.51-.17-1.42,0-1.55-.31-1.5-3.24-2.16-1.4-2.85.42l-1.3-.48a2.39,2.39,0,0,1-1.62-2.06h0c.5.13,1.14.76,1.42-.17.21-.71.24-1.67-.52-2a9,9,0,0,1-2.19-1.87,18.71,18.71,0,0,1,.28,3,7,7,0,0,0,3.39,6.05,16.83,16.83,0,0,0,5.92,5.21c5.15,2.92,10.83,4.46,16.46,6.11.78.23,1.51.26,1.72-.79l.53-1c1-.42,2.15-.31,2.87-1.31l-2.86-.79c.4-.57,1-.34,1.57-.48a1.26,1.26,0,0,0,1-1.11c.64-.36.11-1.38,1-1.68s.62-1.12.52-1.66c-.16-.92-1-.5-1.61-.55a9.59,9.59,0,0,0-1.45.09c-1.57-.92-3.3-.32-4.94-.5-.51.11-1.67-.57-1.08.89l-1.71,1.16c-.19-.68-.26-1.45-1.17-1.61-.17-.56-.71-.44-1.1-.6-1-1.68-2.76-.92-4.16-1.31H398c-.35,0-.79-.54-1-.05C396.67,380.88,397.31,381,397.86,381.12ZM414,390.34l.13.09,0-.14Z" transform="translate(-329.68 -200.81)"/><path class="668cd987-c722-43cb-bd30-c8039a041b85" d="M395.33,376.59c.6-1.39,2.13-1.33,3.68-2.26l-4-.51c0-.21,0-.31.09-.35a3.26,3.26,0,0,1,2.31-.71c1.8,0-.46-.78.27-1.13,1.34-.64,6.06,1.4,6.43,2.94.26,1.08-.66,1-1.23,1a29.34,29.34,0,0,0-7.57,1Z" transform="translate(-329.68 -200.81)"/><path class="668cd987-c722-43cb-bd30-c8039a041b85" d="M393.24,370.38c1.16-.91,2.18-1.83,3.31-2.58,1.62-1.07,3.15-1.12,4.62.49a38.24,38.24,0,0,0,3.56,3.08c.38.33.82.69.41,1.23s-.9.28-1.35,0a8.52,8.52,0,0,1-2.28-2.25c-2.16-2.48-3.31-2.61-5.86-.64C395,370.26,394.46,371,393.24,370.38Z" transform="translate(-329.68 -200.81)"/><path class="372c0ed6-0ff3-4c01-b5c2-6cca565a4800" d="M384.16,366.8c1.69-.23,3.46-.66,4.77.94.65.8.33,1.5-.51,2.36C388.48,366.87,385.92,367.5,384.16,366.8Z" transform="translate(-329.68 -200.81)"/><path class="68e9f0dc-f630-46b9-acb8-39686fb1a177" d="M398.29,391.17c-1.64,0-2.86-1-4.26-1.55l.21-.62,4.34,1.82A3.9,3.9,0,0,0,398.29,391.17Z" transform="translate(-329.68 -200.81)"/><path class="372c0ed6-0ff3-4c01-b5c2-6cca565a4800" d="M412.3,394.11c-1.28.93-2.5.66-4.37-.31,1.71-.17,2.84.16,3.87-.28Z" transform="translate(-329.68 -200.81)"/><path class="68e9f0dc-f630-46b9-acb8-39686fb1a177" d="M398.58,390.83c.28.31,1.21.05.93.67-.19.42-.86,0-1.22-.33A3.91,3.91,0,0,1,398.58,390.83Z" transform="translate(-329.68 -200.81)"/><polygon class="68e9f0dc-f630-46b9-acb8-39686fb1a177" points="70.88 190.76 70.88 190.94 70.93 190.77 70.88 190.76"/><path class="18607ab7-b76d-49ca-b51b-bbb25502d6b2" d="M412.3,394.11l-.5-.6C412.45,393.31,412.65,393.48,412.3,394.11Z" transform="translate(-329.68 -200.81)"/><path class="893b8beb-86f2-4f42-ab2b-709e10acd5ea" d="M477.22,374.08a4.39,4.39,0,0,1,4.79-4.52,4.54,4.54,0,0,1,4.5,4.62,5,5,0,0,1-5.05,4.77A4.63,4.63,0,0,1,477.22,374.08Z" transform="translate(-329.68 -200.81)"/><path class="668cd987-c722-43cb-bd30-c8039a041b85" d="M488.87,365.13c-4.29.66-8.55.43-13.38.41C477.68,364.15,485.7,364,488.87,365.13Z" transform="translate(-329.68 -200.81)"/><path class="668cd987-c722-43cb-bd30-c8039a041b85" d="M473,384a5,5,0,0,1,1.27-.36c1.26.13,2.64-.49,3.76.5.36.32-.09.68-.31.75A4.48,4.48,0,0,1,473,384Z" transform="translate(-329.68 -200.81)"/><path class="f367525f-f9c9-48fd-835f-1fd9781a64c7" d="M397.28,383.25c.12.6-.22,1.33.49,1.77,1.18,2.19,2.79,1.79,4.51.75l1.17-.13c1.4,3.27,2.21,3.64,5.41,2.5l1,.56.44.95c.31,1.72,1.7.64,2.53,1-.21,1.05-.94,1-1.72.79-5.63-1.65-11.31-3.19-16.46-6.11a16.82,16.82,0,0,1-5.92-5.21c.67-.18,1.62.54,2-.63l1.18.41c.57,2,.89,4.38,4,3.23Z" transform="translate(-329.68 -200.81)"/><path class="372c0ed6-0ff3-4c01-b5c2-6cca565a4800" d="M391.86,379.87l-1.18-.41h0c.34-1.25-1.15-1.05-1.43-1.81.69-1.82,1.35-3.66,2.85-.42.13.28,1,.14,1.55.31,1.83.59,2.77,1.63,1.66,3.59C394,381,393.26,379.6,391.86,379.87Z" transform="translate(-329.68 -200.81)"/><path class="372c0ed6-0ff3-4c01-b5c2-6cca565a4800" d="M403.44,385.64l-1.17.13c.15-.77.43-1.49-.79-1.79a15.89,15.89,0,0,1-2.82-1.26l.67-.6c.51-.24,1.09.79,1.49,0s-.08-1.4-.64-1.94c1.4.39,3.17-.37,4.16,1.31-.91.24-2.59-.27-2.19,1.37.19.76,1.81,1.25,2.83,1.11s.05-1.29.46-1.88c.91.16,1,.93,1.17,1.6l-.23-.39L404.85,385C404.35,385.17,403.55,384.58,403.44,385.64Z" transform="translate(-329.68 -200.81)"/><path class="372c0ed6-0ff3-4c01-b5c2-6cca565a4800" d="M390.68,379.46c-.35,1.18-1.3.45-2,.63a7,7,0,0,1-3.4-6.05,18.71,18.71,0,0,0-.28-3,9,9,0,0,0,2.19,1.87c.77.34.74,1.3.52,2-.28.93-.92.3-1.42.17l-.21-.12.22.11a2.39,2.39,0,0,0,1.62,2.06c-.14,2,1,2.48,2.73,2.29Z" transform="translate(-329.68 -200.81)"/><path class="695d9fe8-dc0d-4ee8-bbc7-c79e1eed1f72" d="M415.89,386a1.27,1.27,0,0,1-1,1.12l-2.37-.62c-1.11-.28-1-1-.74-1.85a2.81,2.81,0,0,1,4-1.17Z" transform="translate(-329.68 -200.81)"/><path class="9723751d-dd8b-4e75-be5f-4ee6bd2143f5" d="M398.66,382.72a15.89,15.89,0,0,0,2.82,1.26c1.23.29.94,1,.79,1.79-1.72,1-3.32,1.44-4.51-.75C398,384.23,397.39,383.11,398.66,382.72Z" transform="translate(-329.68 -200.81)"/><path class="695d9fe8-dc0d-4ee8-bbc7-c79e1eed1f72" d="M410.28,389.64l-.44-.95c.34-2.94,2.28-.94,3.51-1.13l2.86.79c-.72,1-1.92.89-2.87,1.31Z" transform="translate(-329.68 -200.81)"/><path class="372c0ed6-0ff3-4c01-b5c2-6cca565a4800" d="M413.35,387.56c-1.23.19-3.17-1.81-3.51,1.13l-1-.56c.36-.85.8-1.66-.67-2a16.85,16.85,0,0,1-2.53-.94,2.1,2.1,0,0,0,.77-1.89c.95,2.14,3.3,2.82,4.44,1.29l.94,0c-.28.83-.37,1.57.74,1.85l2.37.62C414.39,387.22,413.75,387,413.35,387.56Z" transform="translate(-329.68 -200.81)"/><path class="9723751d-dd8b-4e75-be5f-4ee6bd2143f5" d="M391.86,379.87c1.4-.27,2.19,1.16,3.45,1.26l1.93,1.27-1.37.7C392.75,384.25,392.43,381.9,391.86,379.87Z" transform="translate(-329.68 -200.81)"/><path class="68e9f0dc-f630-46b9-acb8-39686fb1a177" d="M411.81,384.61l-.94,0-.07-.92c.07-1.18-.77-1.07-1.53-1.06v.06l.13-1c1.65.18,3.37-.42,4.94.5.39.54,1.5.25,1.48,1.27A2.81,2.81,0,0,0,411.81,384.61Z" transform="translate(-329.68 -200.81)"/><path class="9723751d-dd8b-4e75-be5f-4ee6bd2143f5" d="M410.8,383.71l.07.92c-1.14,1.53-3.5.85-4.44-1.29l0,0,.23.39,1.71-1.16,1,.16v-.06C409.67,383.17,410,383.82,410.8,383.71Z" transform="translate(-329.68 -200.81)"/><path class="9723751d-dd8b-4e75-be5f-4ee6bd2143f5" d="M405.44,382.11c-.4.59.53,1.75-.46,1.88s-2.64-.35-2.83-1.11c-.4-1.64,1.28-1.13,2.19-1.37C404.73,381.67,405.28,381.55,405.44,382.11Z" transform="translate(-329.68 -200.81)"/><path class="9723751d-dd8b-4e75-be5f-4ee6bd2143f5" d="M400.18,380.2c.56.53,1,1.18.64,1.94s-1-.25-1.49,0l-1.47-1,.14-.92Z" transform="translate(-329.68 -200.81)"/><path class="f367525f-f9c9-48fd-835f-1fd9781a64c7" d="M415.83,383.44c0-1-1.08-.73-1.48-1.27a9.59,9.59,0,0,1,1.45-.09c.58,0,1.45-.37,1.61.55.1.54.26,1.4-.52,1.66s-.36,1.32-1,1.68Q415.86,384.7,415.83,383.44Z" transform="translate(-329.68 -200.81)"/><path class="9723751d-dd8b-4e75-be5f-4ee6bd2143f5" d="M390.68,379.46c-1.71.19-2.87-.27-2.73-2.29l1.3.48C389.53,378.41,391,378.22,390.68,379.46Z" transform="translate(-329.68 -200.81)"/><path class="68e9f0dc-f630-46b9-acb8-39686fb1a177" d="M410.28,389.64l3.06,0-.53,1C412,390.28,410.58,391.36,410.28,389.64Z" transform="translate(-329.68 -200.81)"/><path class="372c0ed6-0ff3-4c01-b5c2-6cca565a4800" d="M398,380.2l-.14.92c-.56-.1-1.19-.24-.87-1C397.2,379.66,397.65,380.19,398,380.2Z" transform="translate(-329.68 -200.81)"/><path class="372c0ed6-0ff3-4c01-b5c2-6cca565a4800" d="M409.28,382.72l-1-.16c-.59-1.46.57-.77,1.08-.89Z" transform="translate(-329.68 -200.81)"/><path class="372c0ed6-0ff3-4c01-b5c2-6cca565a4800" d="M395.87,383.1l1.37-.7,0,.84Z" transform="translate(-329.68 -200.81)"/><polygon class="68e9f0dc-f630-46b9-acb8-39686fb1a177" points="84.29 189.53 84.44 189.47 84.42 189.62 84.29 189.53"/><path class="695d9fe8-dc0d-4ee8-bbc7-c79e1eed1f72" d="M405.65,385.23a16.85,16.85,0,0,0,2.53.94c1.47.3,1,1.12.67,2-3.2,1.14-4,.77-5.41-2.49.11-1.05.91-.47,1.41-.59Z" transform="translate(-329.68 -200.81)"/><path class="18607ab7-b76d-49ca-b51b-bbb25502d6b2" d="M405.65,385.23l-.8-.18,1.53-1.72,0,0A2.1,2.1,0,0,1,405.65,385.23Z" transform="translate(-329.68 -200.81)"/><path class="18607ab7-b76d-49ca-b51b-bbb25502d6b2" d="M386.34,375.12l-.22-.11.21.12Z" transform="translate(-329.68 -200.81)"/><path class="372c0ed6-0ff3-4c01-b5c2-6cca565a4800" d="M410.8,383.71c-.83.11-1.13-.54-1.53-1.06C410,382.64,410.87,382.52,410.8,383.71Z" transform="translate(-329.68 -200.81)"/></svg>