<svg id="ecc91018-1bc0-4e50-9e8b-b4e6c346a0cb" data-name="Capa 1" xmlns="http://www.w3.org/2000/svg" viewBox="0 0 213.6 309.59"><defs><style>.\32 28e46e9-9820-46b6-a3a8-9d24eb0596cf{fill:#090909;}.de67a180-8f12-4cee-891f-803adf4c68aa{fill:#fefefe;}.\33 31042ad-72f4-4228-a17f-bcfbbd8e3b1b{fill:#151612;}.d801594c-95a7-4bfb-8b75-d96fb2cd1c05{fill:#151515;}.fa727410-5abe-4080-b358-a62d5feeb7bb{fill:#949494;}.\37 2e39e88-4b54-413b-966f-ebd41ae94fcf{fill:#cccbcb;}.\32 a48cb89-a84c-4d5c-8734-129cef901514{fill:#f7cca0;}.\33 a9d23ed-9901-439b-b20b-60d844d93ec2{fill:#509541;}.aba388e1-8908-4424-a10c-82a03b673399{fill:#96b5c7;}.ca543c21-0d08-452f-9b6b-ae673d0d4fc9{fill:#1b140e;}.\30 2cb7756-8e9b-4f78-8ee7-7a7288810e77{fill:#3d2f25;}.\30 1eb194a-cb55-4923-affe-1106261c6f34{fill:#140f09;}.\35 e79439f-cc61-4167-923c-7b6e4c8ed7fc{fill:#423328;}</style></defs><title>card-15</title><path class="228e46e9-9820-46b6-a3a8-9d24eb0596cf" d="M329.62,355.24q0-71.49,0-143c0-1.08,0-2.17.08-3.25a8.78,8.78,0,0,1,8.5-8.5c1.57-.12,3.16-.09,4.75-.09H530.42c10.34,0,12.8,2.47,12.8,12.83q0,142.35,0,284.71a33.05,33.05,0,0,1-.08,3.5c-.59,5.55-3.87,8.55-9.45,8.55q-97.24,0-194.47,0c-5.69,0-9.15-3.33-9.54-9-.07-1-.05-2-.05-3Q329.61,426.61,329.62,355.24Zm4.14-.14q0,71.74,0,143.49c0,5.57,1.75,7.32,7.3,7.32H531.79c5.53,0,7.28-1.74,7.28-7.34q0-143.49,0-287c0-5.12-1.74-6.9-6.86-7.06-.67,0-1.33,0-2,0H342.48a34.28,34.28,0,0,0-3.5.11c-3.52.36-5,1.91-5.2,5.47-.05.83,0,1.67,0,2.5Q333.75,283.86,333.75,355.1Z" transform="translate(-329.62 -200.42)"/><path class="de67a180-8f12-4cee-891f-803adf4c68aa" d="M333.75,355.1q0-71.24,0-142.49c0-.83,0-1.67,0-2.5.23-3.56,1.69-5.11,5.2-5.47a34.28,34.28,0,0,1,3.5-.11H530.21c.67,0,1.33,0,2,0,5.12.16,6.86,1.93,6.86,7.06q0,143.49,0,287c0,5.6-1.75,7.34-7.28,7.34H341.05c-5.54,0-7.3-1.75-7.3-7.32Q333.75,426.85,333.75,355.1ZM411.14,435c.62-1.8-.6-3.79.56-5.54.66,4.95,1.32,9.89,2,14.84a1.66,1.66,0,0,0,2.07,1.61,1.69,1.69,0,0,0,1.43-2c0-.41-.15-.82-.21-1.23a262.08,262.08,0,0,1-2.77-35.82c0-1,0-1.85,1.07-2.53a32.61,32.61,0,0,0,11-12.05c8.87-15.68,6.23-37.27-12.63-47.73-11.06-6.14-23-6.68-34.85-3.06-12.21,3.73-20.25,12.13-22.77,24.79-2,9.82.78,19,6.31,27.24.58.87,1.35,1.59.86,2.9-4.78,12.79-5.84,26.23-6.88,39.68-.22,2.9-.29,5.82-.44,8.73-.07,1.31.25,2.46,1.73,2.52s1.75-.93,1.78-2.19c.07-2.41.22-4.82.38-7.23.15-2.2.35-4.39.53-6.58.58,5.27,1.2,10.46,1.78,15.66.33,3,1.48,5,4.29,6,1.79.61,2,1.7,1.72,3.45a187.05,187.05,0,0,1-7.63,30.17c-.42,1.21-.93,2.57.71,3.17s2.21-.62,2.62-1.91c.81-2.53,1.67-5,2.44-7.59a196.68,196.68,0,0,0,5.6-24.86,39.49,39.49,0,0,0,5,1.07,81.18,81.18,0,0,0,25.84-.95c1.16-.24,1.61,0,1.69,1.28.2,3.15.61,6.29.85,9.45.5,6.81,1.06,13.61,1.15,20.45,0,1.55.31,3,2.36,2.54,1.3-.32,1.19-1.63,1.16-2.73-.29-9.74-.91-19.46-2-29.14-.21-1.93-.26-3.4,2.26-3.64,1.9-.18,2.53-1.27,2.3-3.31C411.82,445.34,411.54,440.18,411.14,435Zm57.93-1.58c-.7,1.31-.45,2.7-.32,4.08a76.26,76.26,0,0,1-.88,12.2c-.34,2.46.19,3.93,2.78,4.2,1.71.18,1.83,1.06,1.65,2.56-1.16,10-1.71,20.07-2,30.15,0,1.37.21,2.69,1.86,2.65,1.5,0,1.64-1.29,1.68-2.57.27-9.74.83-19.46,1.85-29.16.21-2,.76-2.24,2.59-1.9a73,73,0,0,0,29,.07c1.33-.28,1.31.24,1.44,1.18a162.49,162.49,0,0,0,6.72,27.84c.46,1.42,1,2.83,1.55,4.2a1.55,1.55,0,0,0,2.09.87,1.67,1.67,0,0,0,1.14-2,13.09,13.09,0,0,0-.59-1.9,173.38,173.38,0,0,1-7.47-29.7c-.28-1.74.13-2.59,1.7-3.19,2.48-.94,4.14-2.44,4.31-5.42.23-4.15,1.11-8.25,1.12-12.43,0-.42-.26-1,.72-1.19a81.18,81.18,0,0,1,.79,10.56c0,1.38.15,2.93,2,2.78,1.68-.14,1.57-1.58,1.53-2.89q-.41-10.87-1.67-21.66c-1-8.51-2.26-17-5.21-25.1a4.11,4.11,0,0,1,.56-4.28c13-19,7.28-41.49-13.11-50.72-9.66-4.37-20-4.29-30.1-1.45-12.54,3.52-21.42,11.47-24.48,24.22-3.82,15.9,1.64,29,14.6,38.85a2.07,2.07,0,0,1,1.07,2c-.24,4.49-.33,9-.53,13.48-.35,7.74-1.1,15.44-2.19,23.12-.17,1.2-.49,2.77,1.25,3s2.11-1.08,2.27-2.57c.42-3.8,1-7.6,1.44-11.39l.87,0Z" transform="translate(-329.62 -200.42)"/><path class="331042ad-72f4-4228-a17f-bcfbbd8e3b1b" d="M468.22,432c-.49,3.8-1,7.59-1.44,11.39-.16,1.48-.5,2.83-2.27,2.57s-1.43-1.83-1.25-3c1.09-7.67,1.84-15.38,2.19-23.12.2-4.49.29-9,.53-13.48a2.07,2.07,0,0,0-1.07-2c-13-9.9-18.42-22.95-14.6-38.85,3.06-12.75,11.94-20.7,24.48-24.22,10.12-2.84,20.44-2.92,30.1,1.45,20.39,9.23,26.07,31.75,13.11,50.72a4.11,4.11,0,0,0-.56,4.28c3,8.1,4.21,16.59,5.21,25.1q1.28,10.79,1.67,21.66c0,1.31.16,2.75-1.53,2.89-1.87.15-2-1.4-2-2.78A81.18,81.18,0,0,0,520,434c-1,.15-.72.77-.72,1.19,0,4.18-.89,8.28-1.12,12.43-.17,3-1.83,4.48-4.31,5.42-1.57.6-2,1.45-1.7,3.19a173.38,173.38,0,0,0,7.47,29.7,13.09,13.09,0,0,1,.59,1.9,1.67,1.67,0,0,1-1.14,2A1.55,1.55,0,0,1,517,489c-.59-1.37-1.09-2.78-1.55-4.2a162.49,162.49,0,0,1-6.72-27.84c-.13-.93-.11-1.46-1.44-1.18a73,73,0,0,1-29-.07c-1.83-.34-2.38-.08-2.59,1.9-1,9.7-1.58,19.42-1.85,29.16,0,1.27-.18,2.53-1.68,2.57-1.65,0-1.9-1.28-1.86-2.65.31-10.07.85-20.13,2-30.15.17-1.5.06-2.39-1.65-2.56-2.58-.27-3.11-1.74-2.78-4.2a76.26,76.26,0,0,0,.88-12.2,9.12,9.12,0,0,0,.32-4.08l0-1.44q0-4.16,0-8.31C468.71,426.47,468,429.18,468.22,432Zm-15.43-53.62c2,10.48,6.68,18.68,15.59,24,6.71,4,14.1,4.76,21.72,3.58,12.38-1.92,22.37-7.34,27.82-19.27,7.33-16.07,2.69-30.39-10.78-39-10.65-6.8-31.7-6.64-42.75,2.48-6.77,5.6-11.18,12.43-11.54,21.53,3.2-1.77,5.59-1.7,7.3.18a4.69,4.69,0,0,1,.18,6C458.66,380.13,457.06,380.29,452.78,378.36Zm59.33,22.39a5.76,5.76,0,0,0-.7.27c-.29.17-.56.36-.83.55-11.4,7.78-23.77,10.41-37.23,6.78-1.74-.47-1.6.29-1.46,1.43,1.6,13,.68,25.92-.42,38.85-.14,1.66.29,2.1,1.78,2.5,9,2.42,18.23,2.75,27.48,2.23a26.67,26.67,0,0,0,10.53-2.75c2.2-1.1,3.67-2.35,3.64-5a32.61,32.61,0,0,1,.56-4.94C517.36,427.14,515.26,414,512.11,400.75Z" transform="translate(-329.62 -200.42)"/><path class="d801594c-95a7-4bfb-8b75-d96fb2cd1c05" d="M411.14,435c.4,5.15.68,10.3,1.25,15.43.23,2-.41,3.13-2.3,3.31-2.51.23-2.47,1.71-2.26,3.64,1.08,9.68,1.69,19.4,2,29.14,0,1.1.14,2.41-1.16,2.73-2,.51-2.34-1-2.36-2.54-.09-6.83-.65-13.64-1.15-20.45-.23-3.15-.64-6.29-.85-9.45-.08-1.26-.53-1.52-1.69-1.28a81.18,81.18,0,0,1-25.84.95,39.49,39.49,0,0,1-5-1.07,196.68,196.68,0,0,1-5.6,24.86c-.76,2.55-1.63,5.06-2.44,7.59-.41,1.28-1,2.49-2.62,1.91s-1.13-2-.71-3.17a187.05,187.05,0,0,0,7.63-30.17c.29-1.74.06-2.83-1.72-3.45-2.81-1-4-3-4.29-6-.57-5.2-1.2-10.4-1.78-15.66-.18,2.19-.38,4.39-.53,6.58-.16,2.41-.31,4.82-.38,7.23,0,1.26-.43,2.25-1.78,2.19s-1.8-1.21-1.73-2.52c.16-2.91.22-5.83.44-8.73,1-13.44,2.1-26.89,6.88-39.68.49-1.31-.28-2-.86-2.9-5.53-8.29-8.27-17.42-6.31-27.24,2.52-12.66,10.55-21.05,22.77-24.79,11.86-3.62,23.79-3.08,34.85,3.06,18.86,10.47,21.51,32.05,12.63,47.73a32.61,32.61,0,0,1-11,12.05c-1.09.68-1.08,1.52-1.07,2.53A262.08,262.08,0,0,0,417,442.7c.06.41.18.82.21,1.23a1.69,1.69,0,0,1-1.43,2,1.66,1.66,0,0,1-2.07-1.61c-.65-4.95-1.31-9.9-2-14.84,0-1.65.32-3.34-.67-4.9A37.73,37.73,0,0,0,411.14,435Zm16.19-63.43a22.87,22.87,0,0,0-1.91-9.2c-4.88-10.25-12.85-16.54-24.06-18.56-9.66-1.74-19.15-1.48-27.81,3.71C364,353.27,358.34,361.64,359,373c.8,14.44,8.83,27.39,25.37,31.75,15.77,4.16,29.83.64,38.34-13.32a30,30,0,0,0,4.52-13.09c-3.9,1.9-5.43,1.82-7.14-.24a4.64,4.64,0,0,1-.26-6C421.36,370.13,423.87,369.88,427.33,371.6Zm-59.26,28.94c-.62,2.95-1.14,5.54-1.7,8.13a101.42,101.42,0,0,0-1,37.23c.19,1.22,0,2.7,1.43,3.52,2.7,1.52,5.45,3.07,8.5,3.47a84.65,84.65,0,0,0,31.47-1.62c1.69-.42,2.25-1,2.05-2.84a174.71,174.71,0,0,1-1.15-25.68c.19-4.88.44-9.75.66-14.69C393.68,412.1,380.49,409.32,368.08,400.54Z" transform="translate(-329.62 -200.42)"/><path class="fa727410-5abe-4080-b358-a62d5feeb7bb" d="M411.14,435A37.73,37.73,0,0,1,411,424.6c1,1.55.68,3.24.67,4.9C410.54,431.25,411.76,433.23,411.14,435Z" transform="translate(-329.62 -200.42)"/><path class="72e39e88-4b54-413b-966f-ebd41ae94fcf" d="M468.22,432c-.23-2.8.49-5.51.87-8.28q0,4.16,0,8.31Z" transform="translate(-329.62 -200.42)"/><path class="72e39e88-4b54-413b-966f-ebd41ae94fcf" d="M469.07,433.46a9.12,9.12,0,0,1-.32,4.08C468.62,436.16,468.37,434.77,469.07,433.46Z" transform="translate(-329.62 -200.42)"/><path class="2a48cb89-a84c-4d5c-8734-129cef901514" d="M452.78,378.36c4.28,1.93,5.88,1.77,7.53-.49a4.69,4.69,0,0,0-.18-6c-1.7-1.88-4.1-2-7.3-.18.35-9.1,4.77-15.94,11.54-21.53,11-9.12,32.1-9.28,42.75-2.48,13.46,8.6,18.11,22.92,10.78,39C512.46,398.62,502.47,404,490.09,406c-7.62,1.18-15,.44-21.72-3.58C459.46,397,454.78,388.84,452.78,378.36Zm31.89-4.23a4.72,4.72,0,0,0-9.43-.06,4.84,4.84,0,0,0,4.36,4.86A5.1,5.1,0,0,0,484.68,374.13Zm-5.29,9.8c-2.22-1.11-10.38-1.39-13-.39C470.68,384.5,475.05,383.69,479.39,383.93Z" transform="translate(-329.62 -200.42)"/><path class="3a9d23ed-9901-439b-b20b-60d844d93ec2" d="M512.11,400.75c3.15,13.22,5.25,26.39,3.34,39.89a32.61,32.61,0,0,0-.56,4.94c0,2.68-1.43,3.93-3.64,5a26.67,26.67,0,0,1-10.53,2.75c-9.26.52-18.45.19-27.48-2.23-1.49-.4-1.92-.84-1.78-2.5,1.1-12.93,2-25.88.42-38.85-.14-1.13-.28-1.89,1.46-1.43,13.46,3.62,25.82,1,37.23-6.78.28-.19.55-.38.83-.55A5.76,5.76,0,0,1,512.11,400.75Z" transform="translate(-329.62 -200.42)"/><path class="2a48cb89-a84c-4d5c-8734-129cef901514" d="M427.33,371.6c-3.47-1.73-6-1.47-7.53.57a4.64,4.64,0,0,0,.26,6c1.7,2.06,3.24,2.14,7.14.24a30,30,0,0,1-4.52,13.09c-8.52,14-22.57,17.48-38.34,13.32C367.8,400.42,359.78,387.48,359,373c-.63-11.39,5-19.77,14.57-25.48,8.66-5.19,18.16-5.45,27.81-3.71,11.21,2,19.18,8.31,24.06,18.56A22.87,22.87,0,0,1,427.33,371.6ZM404.82,374A4.48,4.48,0,0,0,400,369.5a4.6,4.6,0,0,0-4.48,4.66,5,5,0,0,0,5,4.77A4.63,4.63,0,0,0,404.82,374Zm9.1,9.14c-4.64.26-9.36-1.09-13.87.82C404.66,383.3,409.39,384.89,413.92,383.19Z" transform="translate(-329.62 -200.42)"/><path class="aba388e1-8908-4424-a10c-82a03b673399" d="M368.08,400.54c12.42,8.78,25.61,11.55,40.23,7.53-.23,4.94-.48,9.81-.66,14.69a174.71,174.71,0,0,0,1.15,25.68c.2,1.83-.37,2.42-2.05,2.84a84.65,84.65,0,0,1-31.47,1.62c-3.06-.39-5.81-2-8.5-3.47-1.46-.82-1.24-2.3-1.43-3.52a101.42,101.42,0,0,1,1-37.23C366.94,406.09,367.46,403.49,368.08,400.54Z" transform="translate(-329.62 -200.42)"/><path class="ca543c21-0d08-452f-9b6b-ae673d0d4fc9" d="M484.68,374.13a5.1,5.1,0,0,1-5.07,4.8,4.84,4.84,0,0,1-4.36-4.86,4.72,4.72,0,0,1,9.43.06Z" transform="translate(-329.62 -200.42)"/><path class="02cb7756-8e9b-4f78-8ee7-7a7288810e77" d="M479.39,383.93c-4.34-.24-8.71.57-13-.39C469,382.54,477.17,382.82,479.39,383.93Z" transform="translate(-329.62 -200.42)"/><path class="01eb194a-cb55-4923-affe-1106261c6f34" d="M404.82,374a4.63,4.63,0,0,1-4.23,4.88,5,5,0,0,1-5-4.77A4.6,4.6,0,0,1,400,369.5,4.48,4.48,0,0,1,404.82,374Z" transform="translate(-329.62 -200.42)"/><path class="5e79439f-cc61-4167-923c-7b6e4c8ed7fc" d="M413.92,383.19c-4.52,1.71-9.26.12-13.87.82C404.56,382.1,409.28,383.45,413.92,383.19Z" transform="translate(-329.62 -200.42)"/></svg>