<svg id="3a54b8a3-1456-4a88-9bdd-274f5800a788" data-name="Capa 1" xmlns="http://www.w3.org/2000/svg" viewBox="0 0 213.62 309.74"><defs><style>.\39 c8bd305-0f12-4db2-b8ee-4bc3fb01a277{fill:#181819;}.\30 ea658e9-f67e-473a-88b3-d928213622ff{fill:#fefdfe;}.\32 2de0b22-4199-4e6a-9ae6-f61c971ce4c7{fill:#171716;}.\35 beabd29-13c9-4dac-96bc-4d6eab4eb7df{fill:#141612;}.\39 923b087-e8f5-4e1f-9ebb-d9b07bb7cbc0{fill:#212122;}.fa958ac3-48f9-41b3-b300-2600957338a6{fill:#1d1d1e;}.\35 de7f426-30c8-476d-a83d-e30816894ccd{fill:#232323;}.\30 d1470c9-bbc5-4cb9-b64f-ec370d9dfe96{fill:#1f1f20;}.ee5207e7-7796-4ff3-9ba8-03eec00fddd8{fill:#4b3d30;}.\32 e34c247-b964-4719-a7b3-38e26accf844{fill:#c8c7c7;}.b7b1579b-c11c-47ae-b3c3-ac558cf2fcc9{fill:#f7cca0;}.\36 ef3da0d-5af9-45c0-a7d1-50e6b4c4060d{fill:#96b4c7;}.\34 51fa534-a923-4d56-9afa-c71f352e866b{fill:#509541;}.\36 f342173-cb41-4374-913f-ac53f8793613{fill:#f9f9f9;}.\30 1182cc2-7c4a-4e64-882a-4b55407c7951{fill:#efefee;}</style></defs><title>card-9</title><path class="9c8bd305-0f12-4db2-b8ee-4bc3fb01a277" d="M329.89,355.72q0-71.61,0-143.22a16.73,16.73,0,0,1,.39-4.71c1.15-4,3.74-6.22,7.83-6.57,1.66-.14,3.32-.22,5-.22H530.56c1,0,2,.06,3,.13,7.18.5,10,3.44,10,10.58q0,144,0,287.93c0,7.9-3.2,11.1-11,11.1h-191c-8.49,0-11.63-3.11-11.63-11.56Q329.89,427.45,329.89,355.72Zm4.16.19q0,71.49,0,143c0,6,1.53,7.59,7.46,7.59H497q18,0,36,0c4.3,0,6.06-1.67,6.35-5.94.05-.75,0-1.5,0-2.25q0-142.11,0-284.22c0-7.76-1-8.8-8.77-8.8h-188c-1.08,0-2.17,0-3.25.05-3.27.18-4.84,1.62-5.22,4.86a25.55,25.55,0,0,0-.07,3Q334.05,284.54,334.05,355.9Z" transform="translate(-329.89 -201)"/><path class="0ea658e9-f67e-473a-88b3-d928213622ff" d="M334.05,355.9q0-71.37,0-142.73a25.55,25.55,0,0,1,.07-3c.38-3.24,2-4.69,5.22-4.86,1.08-.06,2.17-.05,3.25-.05h188c7.74,0,8.77,1,8.77,8.8q0,142.11,0,284.22c0,.75,0,1.5,0,2.25-.29,4.27-2,5.94-6.35,5.94q-18,0-36,0H341.51c-5.93,0-7.46-1.55-7.46-7.59Q334.05,427.4,334.05,355.9Zm136,82.94a127.73,127.73,0,0,1-.94,13.2c-.13,1.31-.4,2.63,1.35,3.31,3.45,1.34,3.37,1.4,2.9,5.22-1.14,9.26-1.5,18.58-1.81,27.9,0,1.27.16,2.51,1.65,2.59,1.69.09,1.86-1.2,1.9-2.57.24-9.66.8-19.29,1.83-28.9.24-2.21.83-2.43,2.86-2.06,9.57,1.75,19.18,2.13,28.75,0,1.43-.32,1.29.47,1.44,1.27.68,3.76,1.29,7.54,2.07,11.28a163.87,163.87,0,0,0,5.61,19.63c.42,1.23,1,2.52,2.63,1.87,1.38-.54,1.32-1.74.77-2.95-.1-.22-.16-.47-.24-.71A163.62,163.62,0,0,1,513.35,458c-.24-1.63,0-2.49,1.52-3,3.31-1.06,4.51-3.5,4.66-6.8.11-2.49.51-5,.82-7.44.06-.5-.24-1.36.59-1.41s.6.83.64,1.32c.18,1.9.32,3.82.39,5.73,0,1.31,0,2.75,1.73,2.77,1.87,0,1.91-1.46,1.8-2.88-.51-6.81-.88-13.63-1.54-20.42-.87-8.86-2.2-17.67-5.2-26.1a4.59,4.59,0,0,1,.62-4.72c12.79-18.88,7-41.4-13.26-50.49-10-4.48-20.65-4.28-31.06-1.18-11.54,3.43-19.8,11-23.21,22.5-4.68,15.75,1.59,30.91,13.69,39.86,1,.77,1.85,1.38,1.79,2.93-.36,8.73-.66,17.47-1.72,26.15q-.65,5.33-1.26,10.66c-.12,1.08,0,2.09,1.31,2.3s2-.61,2.19-1.83c.09-.49.11-1,.18-1.49l1.51-12.14.87,0,0,1.44A10.64,10.64,0,0,0,470,438.84Zm-58.64-30.76c1.72,3.23,3.23,6.46,5.56,9.21,3.78,4.44,8.69,6.06,13.84,4.33,5.47-1.83,9.49-5.73,13.31-9.83a1.73,1.73,0,0,0-.14-2.66c-.9-.75-1.86-.44-2.65.39a40.09,40.09,0,0,1-8.14,7c-6,3.67-10.53,2.76-14.62-3a41.86,41.86,0,0,1-3.25-5.88A1.76,1.76,0,0,1,416,405a30.58,30.58,0,0,0,7.46-8c7-10.45,8.89-21.85,4.29-33.49-4.74-12-14.19-19-27-21.23-10.43-1.84-20.62-1.33-30,4.13-9.17,5.33-14.88,13.26-16.13,23.9-1.06,9,1.5,17.31,6.51,24.82a2.61,2.61,0,0,1,.15,3.32,62.29,62.29,0,0,0-6,14.44c-3.07,10.26-4.44,20.8-5.26,31.43-.1,1.25,0,2.47,1.58,2.58s1.86-1,2-2.29c.26-3.4.57-6.8,1-10.19,1.18-9.86,3.12-19.54,7.07-28.71.27-.63.25-1.65,1.49-1.82a18.22,18.22,0,0,1-.24,2.09,111.6,111.6,0,0,0-1.94,42.13c.49,3.39,1.51,5.86,4.86,7,1.4.46,1.55,1.3,1.33,2.68a176.3,176.3,0,0,1-4.89,22.15c-.9,3.11-1.89,6.19-2.94,9.26-.39,1.16-.19,2,.88,2.49a1.7,1.7,0,0,0,2.39-1.13c.23-.53.4-1.09.59-1.64a178.75,178.75,0,0,0,7.4-30c.11-.7-.26-1.78,1.28-1.43,9.83,2.22,19.66,1.81,29.48-.07,1.4-.27,2.1-.13,2.19,1.58.24,4.49.74,9,1,13.44.36,5.48.65,11,.91,16.46.06,1.24.39,2.27,1.71,2.29,1.47,0,1.9-1.1,1.83-2.42,0-.33,0-.67,0-1q-.57-14.73-2-29.4c-.17-1.68.19-2.46,1.89-2.67,2.1-.25,3-1.38,2.65-3.62A164.83,164.83,0,0,1,410,430.66,132.22,132.22,0,0,1,411.39,408.09ZM399.88,255a7.19,7.19,0,0,0-7.12-7.19c-4.63,0-8.89,4.3-8.76,8.79a6.93,6.93,0,0,0,7,7C395.8,263.6,400,259.58,399.88,255Zm3.29,49.59c.2-.82.88-.9,1.33-1.19,1.89-1.21,3.16-2.71,2.6-5.15s-2.24-3.13-4.31-3.56a18.59,18.59,0,0,0-6.46-.1c-.7.1-1.28.14-1.18,1.14.41,4,.76,8,1.13,11.93.07.81.19,1.42,1.32,1.26,1-.14,1.6-.32,1.34-1.49a4.49,4.49,0,0,1,.07-1.11c2.28.57,4.44,1.06,6.58,1.66,1,.29,1.83.65,2.27-.84.52-1.75-.92-1.45-1.67-1.74A25.74,25.74,0,0,0,403.17,304.63Zm35.5-3a7.07,7.07,0,0,0-7-7.2,8.94,8.94,0,0,0-8.72,8.77,6.87,6.87,0,0,0,6.88,7C434.62,310.17,438.72,306.2,438.67,301.61Zm-14.72-15.13c.63-.1,1.86-.38,3.09-.49,2.63-.24,3.92-1.34,3.13-4.18-.18-.66-.48-1.57.62-2.15.6-.31.3-1.26.1-1.86-.29-.89-1.1-.56-1.71-.49-2.15.26-4.28.63-6.42.88-.92.11-1.53.18-1.43,1.43.12,1.43.92,1.31,1.87,1.18s1.81-.28,2.72-.4c.73-.09,1.61-.33,1.54.91,0,.81.54,1.93-1,2.1a32.64,32.64,0,0,1-3.45.45,4.73,4.73,0,0,1-5.06-5,4.45,4.45,0,0,1,5-4.39c1.4.08,1.91-.48,2-1.52.11-1.38-1.14-1.14-1.95-1.19a7.21,7.21,0,0,0-7.66,6.86C415.23,283.48,418.46,286.64,423.95,286.48Zm5.77-28.5c1.07-.68,1.71-1,2.32-1.47a4.31,4.31,0,0,0,2-4.72,4.39,4.39,0,0,0-3.58-3.41,17.23,17.23,0,0,0-3.95-.5c-4.46-.08-4.47,0-4.12,4.32q.36,4.48.75,9c.06.65.08,1.46,1.09,1.25.57-.12,1.74.29,1.61-.61-.41-3,1.43-1.56,2.5-1.36a41.8,41.8,0,0,1,4.57,1.21c1,.3,1.46.17,1.82-.91s-.12-1.45-1.06-1.67C432.52,258.77,431.36,258.42,429.72,258Zm-34.77,18.2c2.13,3,4,5.52,5.69,8.1.59.88,1.18.86,2.08.64s1.08-.85,1-1.65c-.21-3.48-.12-7-.63-10.44-.15-1-.1-1.72-1.51-1.58s-1.13,1.09-1.11,1.95c0,2,.74,4,.23,6.28a37.88,37.88,0,0,1-5.15-7.62c-.65-1.34-1.66-1.15-2.71-1.1-1.41.07-.84,1.2-.86,1.89A45.62,45.62,0,0,0,393,283c.16.81.1,1.63,1.45,1.38s1.39-.82,1.14-1.89A17.77,17.77,0,0,1,394.94,276.18Zm47.53,24.26.57-.2c1.7,2.42,3.43,4.83,5.1,7.27.64.93,1.2,1.71,2.57,1.26s.93-1.42.89-2.25c-.15-3.23-.35-6.46-.56-9.7-.06-.85.19-1.87-1.38-1.71-1.38.14-1.33.84-1.23,1.84.2,2.05.32,4.11.48,6.17a29.05,29.05,0,0,1-5.49-7.54c-.65-1.36-1.81-1-2.81-.88-1.15.13-.63,1.18-.65,1.82a45.54,45.54,0,0,0,.91,10.4c.17.86.22,1.64,1.49,1.38s1.31-1,1.11-2C443.1,304.36,442.8,302.39,442.47,300.44Zm17.26-37.16a12.51,12.51,0,0,0,6.07-2.69,3.35,3.35,0,0,0,1.39-3.5,3.17,3.17,0,0,0-3-2.32c-1.81-.22-3.65-.27-5.47-.44-.61-.06-1.49.2-1.67-.68s.67-1.08,1.18-1.44a9.87,9.87,0,0,1,6.19-1.52c1.27,0,1.55-.52,1.59-1.62s-.74-1.14-1.48-1.14a14.07,14.07,0,0,0-8.66,2.69c-1.24.93-2.22,2.16-1.77,3.84s1.88,2.23,3.46,2.38c1.91.18,3.82.28,5.73.44.41,0,.89.08,1,.56s-.29.74-.6,1a8.92,8.92,0,0,1-4.34,1.76c-1.11.2-1,.89-.94,1.65S458.91,263.41,459.73,263.28Zm-88.58,21.29c-.15.66-.33,1.35.73,1.42.83.06,1.58.29,1.93-.92.28-1-.34-2.43,1-2.84a10.71,10.71,0,0,1,4.63-.7c1,.18.85,1.95,1.2,3a1.28,1.28,0,0,1,.08.24c.14,1.19.93,1.13,1.82,1,1.14-.19,1-.9.76-1.67-.95-3.18-1.86-6.38-2.87-9.54-1.06-3.34-1.12-3.38-4.56-2.51-1.06.27-2.6-.18-2.87,1.72C372.48,277.37,371.78,281,371.15,284.57Zm61.2.59c0,.17,0,.8,1,.83.69,0,1.74.45,1.7-.75-.13-3.42,2.36-3.34,4.63-3.74,1.11-.2,1.76-.06,1.89,1.2.07.65.39,1.28.45,1.94.11,1.14.73,1.28,1.72,1.17,1.31-.15,1.08-.88.9-1.77a69.92,69.92,0,0,0-2.47-8.35c-1.6-4.76-1.59-4.73-6.45-3.39-.76.21-1.12.5-1.25,1.27C433.8,277.24,433.12,280.92,432.36,285.16Zm-13.71,9.34a14.51,14.51,0,0,0-8.06,2.59c-1.22,1-2.22,2.15-1.85,3.82s1.8,2.3,3.38,2.46c1.74.17,3.48.24,5.22.39.55,0,1.33-.1,1.51.58s-.55,1.1-1.09,1.46a8,8,0,0,1-3.48,1.28c-1.32.16-1.37.87-1.24,1.88.16,1.2,1,.92,1.7.79a12.08,12.08,0,0,0,5.42-2.4c1.14-.93,2.08-2.08,1.67-3.64s-1.79-2.32-3.4-2.47-3.32-.21-5-.37c-.63-.06-1.54.17-1.75-.6s.73-1.21,1.3-1.6a9.55,9.55,0,0,1,5.71-1.44c1.09,0,1.89,0,1.91-1.47C420.64,293.94,419.33,294.73,418.64,294.5Zm-11.49-32.17c.58,0,1.16,0,1.75,0,4.25-.15,5.47-1.54,4.91-5.8-.32-2.47-.88-4.9-1.22-7.37-.16-1.16-.82-1-1.59-.94-1.11,0-1.19.62-1,1.47a43.64,43.64,0,0,1,.89,4.65c.5,5.43,1.63,5.3-4.86,5.45-1.81,0-2.37-.82-2.15-2.47.32-2.47.65-4.94.95-7.41.09-.75.61-1.69-.83-1.83-1.08-.1-1.75.09-1.86,1.34-.21,2.32-.62,4.62-.74,6.94C401.12,261.36,402.16,262.39,407.15,262.33Zm89.3-9.29h-.09c.2,2.23.39,4.47.6,6.7.1,1-.28,2.25,1.56,2.12s1.18-1.34,1-2.15c-.34-1.83.36-2.25,2.12-2.64,2.61-.58,3.73-.06,3.48,2.69a9.71,9.71,0,0,0,.14,1c0,1,.62,1.14,1.49,1.1,1,0,1.24-.54,1.16-1.44-.34-3.89-.67-7.78-.94-11.68-.07-1-.52-1.22-1.43-1.18s-1.32.4-1.21,1.38,0,2.17.18,3.24c.22,1.44-.17,2-1.76,2.19-3.62.36-3.61.47-3.83-3.18,0-.42-.07-.83-.08-1.24,0-1-.25-1.59-1.45-1.46s-1.45.55-1.28,1.61S496.35,252,496.45,253ZM374.57,294.41c-.95.09-1.93.22-2.93.27s-1.09.42-1,1.27c.37,3.8.67,7.6,1,11.4.08.88,0,1.77,1.51,1.65,1.68-.13,1.39-1.14,1.16-2.06-.38-1.52.22-2,1.66-2.29a16.75,16.75,0,0,0,4-1.4c1.48-.7,2.68-1.75,2.6-3.6a4.74,4.74,0,0,0-2.82-4.35A14,14,0,0,0,374.57,294.41Zm35.22-23.92v0a11.29,11.29,0,0,1-2,.1c-2-.25-2.57.64-2.3,2.54s.35,3.8.43,5.71c.3,6.73.8,7.11,7.55,5.45l.25,0c1-.1,1.42-.6,1.22-1.67s-.72-1.3-1.75-1a24.77,24.77,0,0,1-2.95.47c-1,.15-1.56-.09-1.66-1.23s.26-1.5,1.35-1.52,2.15-.18,3.23-.26,1.29-.49,1.12-1.47-.31-1.45-1.37-1.25a18.78,18.78,0,0,1-2.22.28c-1.06.07-2.24.67-2.36-1.36-.1-1.71.4-2.2,2-2.09.82.05,1.66-.17,2.48-.15,1.22,0,1.24-.69,1.23-1.61,0-1.16-.72-1.11-1.5-1.06Zm65-8.17c.58,0,1.17,0,1.75,0,3.78-.17,4.66-1.13,4.61-4.88,0-2.77-.79-5.42-1.16-8.14-.16-1.19-.87-1.14-1.79-1.08-1.18.09-1,.71-.85,1.52.33,1.54.61,3.1.84,4.66.86,6,.71,5.08-4.64,5.37-2,.11-2.7-.84-2.43-2.73.32-2.22.72-4.44.89-6.67.06-.74,1.08-2-.77-2.31-1.64-.25-1.69.72-1.81,1.9-.18,1.9-.53,3.79-.74,5.69C468.07,261,469.34,262.41,474.76,262.32Zm6.63,8.15v0a15.4,15.4,0,0,1-2.49.13c-1.81-.19-2.25.58-2,2.28.26,2.06.23,4.15.39,6.22.53,6.57.88,6.8,7.51,5.18l.25,0c1-.13,1.47-.45,1.2-1.63s-.63-1.37-1.68-1a11.24,11.24,0,0,1-2.46.37c-.87.06-2,.77-2.12-1-.1-1.46.61-1.66,1.76-1.65.83,0,1.65-.15,2.48-.19,1-.05,1.43-.42,1.38-1.54s-.64-1.35-1.6-1.19c-.74.12-1.49.16-2.22.29-1.33.23-2.09.11-2.21-1.63s.71-1.87,2-1.86c.91,0,1.82-.16,2.73-.19s1.17-.4,1.09-1.25-.15-1.51-1.25-1.41C483.22,270.42,482.3,270.43,481.39,270.47Zm-92.95,23.78v.08a14,14,0,0,1-2,.08c-2.06-.19-2.79.63-2.48,2.71a55.84,55.84,0,0,1,.45,6c.28,6.5.4,6.6,6.85,5.25.32-.07.64-.16,1-.22.94-.18,1.45-.54,1.14-1.68s-.81-1.25-1.8-1a18.55,18.55,0,0,1-2.7.4c-1,.11-1.79.18-1.84-1.25,0-1.24.61-1.35,1.52-1.36a2,2,0,0,0,1-.12c1-.66,3.3,1,3.1-1.56s-2.31-.94-3.49-1.06-2.29.38-2.42-1.65,1.12-1.79,2.3-1.89a17.89,17.89,0,0,1,2.24-.09c1,0,1.29-.36,1.25-1.33s-.37-1.35-1.34-1.3S389.36,294.25,388.44,294.25Zm52.76-46.53v.16a20.74,20.74,0,0,1-2.24,0c-2.18-.24-2.7.75-2.38,2.77a49.28,49.28,0,0,1,.41,5.72c.26,6.65.64,6.95,7.22,5.39a5.87,5.87,0,0,1,.72-.21c1.13-.11,1.21-.77,1.06-1.73s-.78-1.08-1.61-.94c-1.06.19-2.13.3-3.2.47s-1.41-.39-1.51-1.4.55-1.18,1.34-1.24c1.08-.09,2.15-.25,3.23-.31.8,0,1.26-.3,1.15-1.2s-.05-1.56-1.2-1.45c-.83.08-1.66.09-2.49.13-1.06.05-2.24.7-2.32-1.36-.07-1.76.55-2.19,2.08-2.11.83,0,1.66-.09,2.49-.06s1.2-.3,1.12-1.17,0-1.53-1.13-1.45C443,247.77,442.12,247.72,441.21,247.72Zm53.26,3.87c-2.75-2.72-6.26-3.1-9.26-1a7,7,0,0,0-2.4,8.84c1.75,4.12,6.3,5.52,11.79,3.67.9-.3,1.41-.52,1-1.69s-.88-1.18-1.83-.9a11,11,0,0,1-4.65.68,4.58,4.58,0,0,1-4.11-3.46,4.1,4.1,0,0,1,1.19-4.54c1.61-1.43,3.53-1.8,5.28-.62S493.64,252.4,494.47,251.59Zm-25,29.16a40.1,40.1,0,0,1-3.07-8.44c-.25-1-.5-1.58-1.83-1.19s-1,.91-.79,1.8A58.48,58.48,0,0,0,468,284c.4.79.76,1.39,1.83,1.26a1.77,1.77,0,0,0,1.7-1.49,64.69,64.69,0,0,1,4.07-10.93c.47-1,.24-1.39-.68-1.88-1.15-.62-1.47.07-1.8.87C471.93,274.68,470.77,277.51,469.44,280.74Zm-34.85,40.47c0-.92,0-1.83,0-2.75s-.38-1.27-1.21-1.25-1.17.54-1.24,1.28a14.15,14.15,0,0,0,0,1.5,23.65,23.65,0,0,1-9.83,20.25c-.77.58-2,1.23-1.15,2.35s1.93.27,2.79-.38A25.85,25.85,0,0,0,434.59,321.21Zm-62.84-72.76c-.42,0-1.07.66-1.44,1.24-.59.93.16,1.27.69,1.51,4.51,2,5.55,5.64,5.06,10.12a12.2,12.2,0,0,0,.09,2c0,.54.18,1,.82,1s1.3.06,1.65-.25c.6-.54.24-1.41.18-2.14-.33-4.11-1.24-8.38,3.47-10.89a1.13,1.13,0,0,0,.18-.17c.82-.72.09-1.13-.31-1.61s-.86-1-1.57-.31a25.25,25.25,0,0,0-2,1.9c-1,1.35-2,1.33-3.25.23S372.94,249.3,371.75,248.45ZM454.63,271c-2.31.26-4.87.56-7.43.82-1.07.11-1.93.19-1.76,1.71s1.17,1.09,2,.9c1.68-.39,2.11.28,2.12,1.89,0,2.58.32,5.15.42,7.72,0,1,.39,1.3,1.35,1.26s1.35-.34,1.28-1.33c-.14-2-.11-4-.33-6-.27-2.39-.76-4.75,3-4.48.92.07,1.31-.44,1.09-1.44C456.12,271.23,455.9,270.62,454.63,271Zm3.55,1.38c.3,4.09.61,8,.87,12,.07,1,.57,1.26,1.46,1.08.6-.12,1.39.07,1.31-1-.33-4.12-.62-8.24-.95-12.36-.09-1.17-1-.82-1.7-.84C458.27,271.21,458,271.7,458.18,272.37ZM418.85,250.9c-.9-1,.95-3.42-1.44-4.2-.89-.29-2,.13-1.46,1.43.6,1.53-1.16,4,1.69,4.58C418.62,252.92,419.18,252.31,418.85,250.9ZM457.93,308c-.16-.67-.09-1.72-1.47-1.62-.74.05-1.58-.11-1.45,1.09.1.93.13,1.89,1.48,1.77C457.2,309.15,458.1,309.4,457.93,308Z" transform="translate(-329.89 -201)"/><path class="22de0b22-4199-4e6a-9ae6-f61c971ce4c7" d="M411.39,408.09A132.22,132.22,0,0,0,410,430.66a164.83,164.83,0,0,0,1.49,21.42c.3,2.24-.55,3.36-2.65,3.62-1.71.21-2.06,1-1.89,2.67q1.48,14.66,2,29.4c0,.33,0,.67,0,1,.07,1.33-.36,2.44-1.83,2.42-1.32,0-1.65-1.06-1.71-2.29-.26-5.49-.55-11-.91-16.46-.3-4.48-.8-9-1-13.44-.09-1.71-.79-1.85-2.19-1.58-9.82,1.88-19.66,2.29-29.48.07-1.54-.35-1.17.73-1.28,1.43a178.75,178.75,0,0,1-7.4,30c-.19.55-.36,1.11-.59,1.64a1.7,1.7,0,0,1-2.39,1.13c-1.07-.47-1.28-1.33-.88-2.49,1-3.07,2-6.15,2.94-9.26a176.3,176.3,0,0,0,4.89-22.15c.21-1.37.06-2.22-1.33-2.68-3.35-1.11-4.37-3.58-4.86-7A111.6,111.6,0,0,1,362.84,406a18.22,18.22,0,0,0,.24-2.09c-1.24.17-1.22,1.18-1.49,1.82-4,9.17-5.89,18.86-7.07,28.71-.4,3.39-.71,6.79-1,10.19-.1,1.33-.43,2.39-2,2.29s-1.67-1.33-1.58-2.58c.82-10.63,2.19-21.17,5.26-31.43a62.29,62.29,0,0,1,6-14.44,2.61,2.61,0,0,0-.15-3.32c-5-7.51-7.57-15.79-6.51-24.82,1.24-10.64,7-18.57,16.13-23.9,9.38-5.45,19.57-6,30-4.13,12.78,2.25,22.23,9.23,27,21.23,4.6,11.65,2.76,23-4.29,33.49a30.58,30.58,0,0,1-7.46,8,1.76,1.76,0,0,0-.68,2.66,41.86,41.86,0,0,0,3.25,5.88c4.09,5.73,8.63,6.64,14.62,3a40.09,40.09,0,0,0,8.14-7c.79-.84,1.75-1.14,2.65-.39a1.73,1.73,0,0,1,.14,2.66c-3.82,4.11-7.84,8-13.31,9.83-5.15,1.73-10.06.11-13.84-4.33C414.62,414.55,413.11,411.31,411.39,408.09Zm14.67-37.88A25.88,25.88,0,0,0,420,357.07c-6.13-7.54-14.3-11.23-23.81-12-9.77-.83-19.16.31-27.15,6.72-6.44,5.17-10.58,11.7-11,20.14-.7,13,6.41,30.06,25.83,34.88,16,4,29.63.05,37.85-13.47a29.56,29.56,0,0,0,4.39-12.16,8.73,8.73,0,0,0-1.19.26A3.85,3.85,0,0,1,420,380a4.55,4.55,0,0,1-.63-5.13c1-2,2.67-2.52,4.73-2.61.75,0,1.8,1.21,2.1,0s-1.21-1.07-2-1.34c-1.17-.42-2.41-.64-3.6-1-1.48-.45-3.14-.47-4.34-1.71C419.62,368.08,422.57,369.55,426.06,370.2Zm-59,32c-.46,2.28-.81,4.24-1.26,6.17a101.21,101.21,0,0,0-1.34,40.42,3,3,0,0,0,1.36,2.49c2.62,1.48,5.31,3,8.28,3.39a83.42,83.42,0,0,0,32.21-1.76c1.39-.36,1.67-.93,1.51-2.25-.36-3-.61-6-.83-9a167,167,0,0,1,.39-30.19c.17-1.64-.24-1.78-1.72-1.32a30.8,30.8,0,0,1-8.57,1.53C386.21,411.9,376.19,409.27,367.1,402.21Z" transform="translate(-329.89 -201)"/><path class="5beabd29-13c9-4dac-96bc-4d6eab4eb7df" d="M469.52,432.31,468,444.45c-.06.5-.09,1-.18,1.49-.22,1.22-.85,2.05-2.19,1.83s-1.43-1.22-1.31-2.3q.62-5.33,1.26-10.66c1.06-8.69,1.36-17.42,1.72-26.15.06-1.55-.74-2.16-1.79-2.93-12.1-8.94-18.37-24.11-13.69-39.86,3.42-11.48,11.67-19.06,23.21-22.5,10.41-3.1,21.06-3.3,31.06,1.18,20.28,9.09,26,31.61,13.26,50.49a4.59,4.59,0,0,0-.62,4.72c3,8.43,4.33,17.24,5.2,26.1.67,6.79,1,13.61,1.54,20.42.1,1.41.07,2.9-1.8,2.88-1.69,0-1.69-1.46-1.73-2.77-.07-1.91-.21-3.82-.39-5.73,0-.48.29-1.38-.64-1.32s-.52.91-.59,1.41c-.32,2.48-.72,5-.82,7.44-.14,3.3-1.35,5.74-4.66,6.8-1.55.49-1.76,1.35-1.52,3a163.62,163.62,0,0,0,7.46,29.95c.08.24.13.48.24.71.55,1.2.61,2.4-.77,2.95-1.62.64-2.21-.65-2.63-1.87A163.87,163.87,0,0,1,512,470.07c-.79-3.74-1.39-7.52-2.07-11.28-.15-.8,0-1.59-1.44-1.27-9.57,2.13-19.18,1.76-28.75,0-2-.37-2.63-.15-2.86,2.06-1,9.61-1.59,19.25-1.83,28.9,0,1.38-.21,2.67-1.9,2.57-1.49-.08-1.69-1.32-1.65-2.59.31-9.32.67-18.64,1.81-27.9.47-3.82.55-3.88-2.9-5.22-1.75-.68-1.48-2-1.35-3.31a127.74,127.74,0,0,0,.94-13.2,14.11,14.11,0,0,0,.35-5.06l0-1.44V424C470,426.8,469.32,429.51,469.52,432.31ZM454.07,381c2.47,10.55,7.25,18.67,16.4,23.69,6.52,3.57,13.58,4.23,20.85,3.1,12.49-1.94,22.45-7.48,27.95-19.49,6.24-13.64,3.36-27.28-7.21-36.21-12-10.17-36.71-9.75-48.37,1.57-4.89,4.75-8.55,10.17-9.34,17.16-.12,1.09-.17,1.72,1.3,1.52a4.45,4.45,0,0,1,5,2.47,4.64,4.64,0,0,1-.59,5.15C458.62,381.82,456.81,382.15,454.07,381Zm19,28.91c.28,3.77.67,7.4.79,11a238.93,238.93,0,0,1-1.2,29.68c-.1,1.16-.07,1.83,1.26,2.18a88.24,88.24,0,0,0,28.49,2.33A27.45,27.45,0,0,0,514,451.6a3.37,3.37,0,0,0,1.92-2.69c1.53-11.1,2.22-22.19,0-33.29-.85-4.34-1.69-8.68-2.56-13.19C500.92,411.16,487.74,414,473.1,409.92Z" transform="translate(-329.89 -201)"/><path class="9923b087-e8f5-4e1f-9ebb-d9b07bb7cbc0" d="M399.88,255c.09,4.53-4.08,8.55-8.92,8.59a6.93,6.93,0,0,1-7-7c-.13-4.49,4.13-8.77,8.76-8.79A7.19,7.19,0,0,1,399.88,255Zm-2.76.1a4.32,4.32,0,0,0-4.46-4.59,6.47,6.47,0,0,0-6,5.85,4.14,4.14,0,0,0,4.26,4.47A6,6,0,0,0,397.12,255.15Z" transform="translate(-329.89 -201)"/><path class="fa958ac3-48f9-41b3-b300-2600957338a6" d="M403.17,304.63a25.74,25.74,0,0,1,3,.81c.76.3,2.19,0,1.67,1.74-.44,1.49-1.24,1.13-2.27.84-2.13-.6-4.3-1.09-6.58-1.66a4.49,4.49,0,0,0-.07,1.11c.26,1.17-.36,1.35-1.34,1.49-1.13.16-1.25-.44-1.32-1.26-.37-4-.72-8-1.13-11.93-.1-1,.48-1,1.18-1.14a18.59,18.59,0,0,1,6.46.1c2.07.43,3.79,1.27,4.31,3.56s-.7,3.93-2.6,5.15C404,303.74,403.37,303.81,403.17,304.63Zm-4.59-1.53a13.86,13.86,0,0,0,5.11-2.28c1.35-1,1.21-2.42-.29-3.15s-3.4-1.12-4.82-.4-.29,2.37-.26,3.61C398.32,301.55,398.46,302.2,398.57,303.11Z" transform="translate(-329.89 -201)"/><path class="fa958ac3-48f9-41b3-b300-2600957338a6" d="M438.67,301.61c0,4.59-4,8.56-8.87,8.59a6.87,6.87,0,0,1-6.88-7,8.94,8.94,0,0,1,8.72-8.77A7.07,7.07,0,0,1,438.67,301.61Zm-8.81,5.82a6,6,0,0,0,6.15-5.84,4.26,4.26,0,0,0-4.32-4.46,6.28,6.28,0,0,0-6.15,5.92A4.06,4.06,0,0,0,429.86,307.43Z" transform="translate(-329.89 -201)"/><path class="fa958ac3-48f9-41b3-b300-2600957338a6" d="M423.95,286.48c-5.49.16-8.71-3-8.59-7.81a7.21,7.21,0,0,1,7.66-6.86c.8.06,2.06-.19,1.95,1.19-.08,1-.59,1.6-2,1.52a4.45,4.45,0,0,0-5,4.39,4.73,4.73,0,0,0,5.06,5,32.64,32.64,0,0,0,3.45-.45c1.5-.17.92-1.29,1-2.1.07-1.24-.81-1-1.54-.91-.91.11-1.81.27-2.72.4s-1.75.25-1.87-1.18c-.1-1.26.51-1.32,1.43-1.43,2.15-.25,4.28-.62,6.42-.88.6-.07,1.42-.4,1.71.49.19.61.49,1.55-.1,1.86-1.1.58-.8,1.48-.62,2.15.79,2.84-.5,3.94-3.13,4.18C425.8,286.1,424.58,286.38,423.95,286.48Z" transform="translate(-329.89 -201)"/><path class="fa958ac3-48f9-41b3-b300-2600957338a6" d="M429.72,258c1.64.45,2.81.8,4,1.08.94.22,1.45.49,1.06,1.67s-.85,1.22-1.82.91a41.8,41.8,0,0,0-4.57-1.21c-1.08-.2-2.92-1.6-2.5,1.36.13.9-1,.49-1.61.61-1,.21-1-.6-1.09-1.25q-.4-4.48-.75-9c-.35-4.36-.34-4.4,4.12-4.32a17.23,17.23,0,0,1,3.95.5,4.39,4.39,0,0,1,3.58,3.41,4.31,4.31,0,0,1-2,4.72C431.43,256.93,430.79,257.3,429.72,258Zm-4.14-1.4a14.51,14.51,0,0,0,5-2.28c1.37-1.05,1.29-2.41-.24-3.13s-3.52-1.27-5-.38c-1,.6-.2,2.3-.15,3.5A18,18,0,0,0,425.58,256.57Z" transform="translate(-329.89 -201)"/><path class="fa958ac3-48f9-41b3-b300-2600957338a6" d="M394.94,276.18a17.77,17.77,0,0,0,.61,6.36c.25,1.07.15,1.65-1.14,1.89s-1.29-.57-1.45-1.38a45.62,45.62,0,0,1-.94-10.39c0-.69-.54-1.82.86-1.89,1-.05,2.06-.24,2.71,1.1a37.88,37.88,0,0,0,5.15,7.62c.5-2.32-.21-4.29-.23-6.28,0-.86-.41-1.8,1.11-1.95s1.36.61,1.51,1.58c.52,3.47.42,7,.63,10.44,0,.8,0,1.41-1,1.65s-1.49.24-2.08-.64C398.9,281.7,397.07,279.19,394.94,276.18Z" transform="translate(-329.89 -201)"/><path class="9c8bd305-0f12-4db2-b8ee-4bc3fb01a277" d="M442.47,300.44c.33,2,.62,3.92,1,5.86.2,1,.14,1.74-1.11,2s-1.32-.53-1.49-1.38a45.54,45.54,0,0,1-.91-10.4c0-.64-.51-1.68.65-1.82,1-.11,2.15-.48,2.81.88a29.05,29.05,0,0,0,5.49,7.54c-.16-2.06-.28-4.12-.48-6.17-.1-1-.14-1.7,1.23-1.84,1.57-.16,1.33.86,1.38,1.71.21,3.23.41,6.46.56,9.7,0,.83.43,1.82-.89,2.25s-1.93-.32-2.57-1.26c-1.67-2.44-3.4-4.85-5.1-7.27Z" transform="translate(-329.89 -201)"/><path class="5de7f426-30c8-476d-a83d-e30816894ccd" d="M459.73,263.28c-.82.13-1.27-.13-1.28-1s-.17-1.46.94-1.65a8.92,8.92,0,0,0,4.34-1.76c.31-.26.72-.54.6-1s-.61-.52-1-.56c-1.91-.15-3.82-.25-5.73-.44-1.57-.15-3-.69-3.46-2.38s.53-2.91,1.77-3.84a14.07,14.07,0,0,1,8.66-2.69c.75,0,1.52,0,1.48,1.14s-.32,1.66-1.59,1.62a9.87,9.87,0,0,0-6.19,1.52c-.52.36-1.35.64-1.18,1.44s1.06.62,1.67.68c1.82.18,3.66.22,5.47.44a3.17,3.17,0,0,1,3,2.32,3.35,3.35,0,0,1-1.39,3.5A12.51,12.51,0,0,1,459.73,263.28Z" transform="translate(-329.89 -201)"/><path class="fa958ac3-48f9-41b3-b300-2600957338a6" d="M371.15,284.57c.63-3.6,1.33-7.2,1.86-10.82.28-1.9,1.82-1.45,2.87-1.72,3.44-.87,3.5-.83,4.56,2.51,1,3.16,1.92,6.36,2.87,9.54.23.77.38,1.49-.76,1.67-.9.15-1.68.21-1.82-1a1.28,1.28,0,0,0-.08-.24c-.35-1.06-.16-2.83-1.2-3a10.71,10.71,0,0,0-4.63.7c-1.36.41-.74,1.87-1,2.84-.35,1.21-1.1,1-1.93.92C370.83,285.91,371,285.23,371.15,284.57Zm8.21-5.76c-1.59-1.39-.22-4.44-3-4.06-1.81.25-1.81,2.92-1.35,3.89C375.81,280.27,377.51,278.59,379.36,278.81Z" transform="translate(-329.89 -201)"/><path class="fa958ac3-48f9-41b3-b300-2600957338a6" d="M432.36,285.16c.76-4.24,1.44-7.92,2.08-11.61.13-.77.5-1.06,1.25-1.27,4.85-1.34,4.85-1.36,6.45,3.39a69.92,69.92,0,0,1,2.47,8.35c.18.88.41,1.62-.9,1.77-1,.11-1.61,0-1.72-1.17-.06-.65-.39-1.28-.45-1.94-.13-1.26-.77-1.4-1.89-1.2-2.27.4-4.76.32-4.63,3.74,0,1.2-1,.77-1.7.75C432.33,286,432.31,285.33,432.36,285.16Zm8.23-6.39c-1.41-1.37-.18-3.94-2.71-4.15-.84-.07-2.37,3.31-1.68,4.15C437.4,280.23,438.84,278.58,440.59,278.77Z" transform="translate(-329.89 -201)"/><path class="5de7f426-30c8-476d-a83d-e30816894ccd" d="M418.64,294.5c.69.23,2-.55,2,1.27,0,1.5-.82,1.49-1.91,1.47a9.55,9.55,0,0,0-5.71,1.44c-.57.39-1.55.69-1.3,1.6s1.13.54,1.75.6c1.66.16,3.32.22,5,.37s3,.82,3.4,2.47-.53,2.71-1.67,3.64a12.08,12.08,0,0,1-5.42,2.4c-.68.13-1.54.41-1.7-.79-.13-1-.08-1.72,1.24-1.88a8,8,0,0,0,3.48-1.28c.54-.36,1.3-.68,1.09-1.46s-1-.53-1.51-.58c-1.74-.15-3.49-.21-5.22-.39-1.58-.16-3-.74-3.38-2.46s.63-2.85,1.85-3.82A14.51,14.51,0,0,1,418.64,294.5Z" transform="translate(-329.89 -201)"/><path class="0d1470c9-bbc5-4cb9-b64f-ec370d9dfe96" d="M407.15,262.33c-5,.06-6-1-5.76-6,.12-2.32.53-4.62.74-6.94.11-1.24.79-1.44,1.86-1.34,1.44.13.92,1.08.83,1.83-.3,2.47-.62,4.94-.95,7.41-.22,1.64.34,2.51,2.15,2.47,6.49-.15,5.36,0,4.86-5.45a43.64,43.64,0,0,0-.89-4.65c-.17-.85-.1-1.46,1-1.47.77,0,1.43-.22,1.59.94.34,2.47.89,4.9,1.22,7.37.56,4.26-.66,5.65-4.91,5.8C408.32,262.35,407.73,262.33,407.15,262.33Z" transform="translate(-329.89 -201)"/><path class="0d1470c9-bbc5-4cb9-b64f-ec370d9dfe96" d="M496.45,253c-.1-1-.15-2-.31-3s.22-1.5,1.28-1.61,1.43.51,1.45,1.46c0,.42.05.83.08,1.24.22,3.65.21,3.54,3.83,3.18,1.58-.16,2-.75,1.76-2.19-.16-1.06-.06-2.16-.18-3.24s.24-1.34,1.21-1.38,1.36.16,1.43,1.18c.27,3.9.6,7.79.94,11.68.08.9-.13,1.4-1.16,1.44-.87,0-1.47-.06-1.49-1.1a9.71,9.71,0,0,1-.14-1c.25-2.75-.87-3.27-3.48-2.69-1.76.39-2.46.82-2.12,2.64.15.82.78,2-1,2.15s-1.47-1.12-1.56-2.12c-.22-2.23-.4-4.47-.6-6.7Z" transform="translate(-329.89 -201)"/><path class="9923b087-e8f5-4e1f-9ebb-d9b07bb7cbc0" d="M374.57,294.41a14,14,0,0,1,5.16.89,4.74,4.74,0,0,1,2.82,4.35c.08,1.84-1.12,2.9-2.6,3.6a16.75,16.75,0,0,1-4,1.4c-1.44.27-2,.77-1.66,2.29.23.91.52,1.93-1.16,2.06-1.48.12-1.43-.77-1.51-1.65-.35-3.8-.65-7.6-1-11.4-.08-.85.13-1.23,1-1.27S373.63,294.5,374.57,294.41Zm-.88,4.81c.5.71-.82,2.76,1.21,3,2.29.21,5.09-1.57,5-2.75-.07-1.47-2.19-2.4-4.9-2.35C373.65,297.1,373.28,297.65,373.69,299.22Z" transform="translate(-329.89 -201)"/><path class="5de7f426-30c8-476d-a83d-e30816894ccd" d="M409.79,270.49l2.74-.14c.78,0,1.49-.1,1.5,1.06,0,.93,0,1.64-1.23,1.61-.83,0-1.66.21-2.48.15-1.58-.1-2.07.39-2,2.09.11,2,1.3,1.44,2.36,1.36a18.78,18.78,0,0,0,2.22-.28c1.06-.2,1.22.41,1.37,1.25s-.18,1.4-1.12,1.47-2.15.25-3.23.26-1.43.44-1.35,1.52.68,1.39,1.66,1.23a24.77,24.77,0,0,0,2.95-.47c1-.29,1.54-.09,1.75,1s-.18,1.58-1.22,1.67l-.25,0c-6.75,1.66-7.26,1.29-7.55-5.45-.08-1.91-.16-3.83-.43-5.71s.28-2.79,2.3-2.54a11.29,11.29,0,0,0,2-.1Z" transform="translate(-329.89 -201)"/><path class="fa958ac3-48f9-41b3-b300-2600957338a6" d="M474.76,262.32c-5.42.09-6.69-1.29-6.1-6.66.21-1.9.56-3.78.74-5.69.11-1.18.17-2.15,1.81-1.9,1.85.28.83,1.56.77,2.31-.17,2.23-.57,4.45-.89,6.67-.27,1.89.4,2.84,2.43,2.73,5.35-.29,5.5.65,4.64-5.37-.22-1.56-.51-3.12-.84-4.66-.17-.82-.34-1.44.85-1.52.92-.07,1.63-.11,1.79,1.08.37,2.71,1.12,5.37,1.16,8.14.05,3.75-.83,4.71-4.61,4.88C475.92,262.34,475.34,262.32,474.76,262.32Z" transform="translate(-329.89 -201)"/><path class="0d1470c9-bbc5-4cb9-b64f-ec370d9dfe96" d="M481.39,270.47c.91,0,1.83,0,2.74-.13,1.1-.1,1.17.6,1.25,1.41s-.25,1.22-1.09,1.25-1.82.19-2.73.19c-1.29,0-2.12.08-2,1.86s.89,1.86,2.21,1.63c.74-.13,1.49-.17,2.22-.29,1-.16,1.54,0,1.6,1.19s-.38,1.49-1.38,1.54c-.83,0-1.66.2-2.48.19-1.15,0-1.86.19-1.76,1.65.12,1.8,1.25,1.09,2.12,1a11.24,11.24,0,0,0,2.46-.37c1.06-.32,1.44,0,1.68,1s-.24,1.5-1.2,1.63l-.25,0c-6.64,1.62-7,1.39-7.51-5.18-.17-2.07-.13-4.16-.39-6.22-.22-1.7.22-2.47,2-2.28a15.4,15.4,0,0,0,2.49-.13Z" transform="translate(-329.89 -201)"/><path class="9923b087-e8f5-4e1f-9ebb-d9b07bb7cbc0" d="M388.44,294.25c.91,0,1.83,0,2.74,0s1.3.35,1.34,1.3-.27,1.37-1.25,1.33A17.89,17.89,0,0,0,389,297c-1.17.1-2.44-.22-2.3,1.89s1.16,1.52,2.42,1.65,3.27-1.6,3.49,1.06-2.11.9-3.1,1.56a2,2,0,0,1-1,.12c-.91,0-1.56.12-1.52,1.36,0,1.44.89,1.36,1.84,1.25a18.55,18.55,0,0,0,2.7-.4c1-.26,1.51-.1,1.8,1s-.2,1.5-1.14,1.68c-.33.06-.65.15-1,.22-6.46,1.35-6.57,1.25-6.85-5.25a55.84,55.84,0,0,0-.45-6c-.32-2.08.41-2.91,2.48-2.71a14,14,0,0,0,2-.08Z" transform="translate(-329.89 -201)"/><path class="9923b087-e8f5-4e1f-9ebb-d9b07bb7cbc0" d="M441.21,247.72c.91,0,1.83,0,2.74,0,1.17-.08,1.06.69,1.13,1.45s-.27,1.2-1.12,1.17-1.67.11-2.49.06c-1.53-.08-2.15.35-2.08,2.11.08,2.06,1.26,1.42,2.32,1.36.83,0,1.66-.05,2.49-.13,1.15-.11,1.11.69,1.2,1.45s-.36,1.15-1.15,1.2c-1.08.07-2.15.23-3.23.31-.79.06-1.45.11-1.34,1.24s.39,1.57,1.51,1.4,2.14-.28,3.2-.47c.83-.15,1.44-.14,1.61.94s.07,1.62-1.06,1.73a5.87,5.87,0,0,0-.72.21c-6.59,1.55-7,1.26-7.22-5.39a49.28,49.28,0,0,0-.41-5.72c-.32-2,.2-3,2.38-2.77a20.74,20.74,0,0,0,2.24,0Z" transform="translate(-329.89 -201)"/><path class="5de7f426-30c8-476d-a83d-e30816894ccd" d="M494.47,251.59c-.83.81-1.28,2.09-3,1s-3.67-.81-5.28.62a4.1,4.1,0,0,0-1.19,4.54,4.58,4.58,0,0,0,4.11,3.46,11,11,0,0,0,4.65-.68c1-.28,1.47-.23,1.83.9s-.13,1.39-1,1.69c-5.49,1.85-10,.45-11.79-3.67a7,7,0,0,1,2.4-8.84C488.21,248.49,491.72,248.87,494.47,251.59Z" transform="translate(-329.89 -201)"/><path class="0d1470c9-bbc5-4cb9-b64f-ec370d9dfe96" d="M469.44,280.74c1.33-3.24,2.49-6.06,3.66-8.88.33-.8.65-1.49,1.8-.87.91.49,1.15.88.68,1.88a64.69,64.69,0,0,0-4.07,10.93,1.77,1.77,0,0,1-1.7,1.49c-1.07.14-1.44-.46-1.83-1.26a58.48,58.48,0,0,1-4.23-11.12c-.24-.88-.46-1.43.79-1.8s1.58.21,1.83,1.19A40.1,40.1,0,0,0,469.44,280.74Z" transform="translate(-329.89 -201)"/><path class="0d1470c9-bbc5-4cb9-b64f-ec370d9dfe96" d="M434.59,321.21a25.85,25.85,0,0,1-10.66,21c-.86.65-1.9,1.58-2.79.38s.38-1.76,1.15-2.35A23.65,23.65,0,0,0,432.12,320a14.15,14.15,0,0,1,0-1.5c.07-.74.43-1.26,1.24-1.28s1.2.47,1.21,1.25S434.59,320.29,434.59,321.21Z" transform="translate(-329.89 -201)"/><path class="0d1470c9-bbc5-4cb9-b64f-ec370d9dfe96" d="M371.75,248.45c1.19.86,2.48,1.64,3.6,2.63s2.2,1.12,3.25-.23a25.25,25.25,0,0,1,2-1.9c.71-.73,1.13-.23,1.57.31s1.13.9.31,1.61a1.13,1.13,0,0,1-.18.17c-4.7,2.5-3.8,6.78-3.47,10.89.06.72.42,1.59-.18,2.14-.35.31-1.08.24-1.65.25s-.79-.47-.82-1a12.2,12.2,0,0,1-.09-2c.5-4.47-.54-8.14-5.06-10.12-.53-.23-1.28-.58-.69-1.51C370.68,249.11,371.34,248.4,371.75,248.45Z" transform="translate(-329.89 -201)"/><path class="9923b087-e8f5-4e1f-9ebb-d9b07bb7cbc0" d="M454.63,271c1.28-.38,1.5.23,1.68,1.08.22,1-.17,1.5-1.09,1.44-3.72-.27-3.23,2.09-3,4.48.22,2,.2,4,.33,6,.07,1-.35,1.29-1.28,1.33S450,285,450,284c-.11-2.58-.41-5.15-.42-7.72,0-1.62-.44-2.28-2.12-1.89-.81.19-1.79.71-2-.9s.69-1.6,1.76-1.71C449.76,271.55,452.32,271.25,454.63,271Z" transform="translate(-329.89 -201)"/><path class="9923b087-e8f5-4e1f-9ebb-d9b07bb7cbc0" d="M458.18,272.37c-.15-.67.09-1.16,1-1.13.7,0,1.6-.33,1.7.84.32,4.12.62,8.24.95,12.36.09,1.08-.7.88-1.31,1-.89.18-1.4,0-1.46-1.08C458.79,280.42,458.48,276.46,458.18,272.37Z" transform="translate(-329.89 -201)"/><path class="5de7f426-30c8-476d-a83d-e30816894ccd" d="M418.85,250.9c.33,1.41-.23,2-1.21,1.81-2.85-.6-1.09-3.05-1.69-4.58-.51-1.31.57-1.72,1.46-1.43C419.79,247.48,417.95,249.86,418.85,250.9Z" transform="translate(-329.89 -201)"/><path class="ee5207e7-7796-4ff3-9ba8-03eec00fddd8" d="M457.93,308c.17,1.42-.73,1.18-1.44,1.24-1.36.12-1.38-.84-1.48-1.77-.13-1.2.71-1,1.45-1.09C457.84,306.26,457.77,307.31,457.93,308Z" transform="translate(-329.89 -201)"/><path class="2e34c247-b964-4719-a7b3-38e26accf844" d="M469.52,432.31c-.2-2.8.48-5.52.87-8.27v8.3Z" transform="translate(-329.89 -201)"/><path class="2e34c247-b964-4719-a7b3-38e26accf844" d="M470.37,433.78a14.11,14.11,0,0,1-.35,5.06A10.64,10.64,0,0,1,470.37,433.78Z" transform="translate(-329.89 -201)"/><path class="b7b1579b-c11c-47ae-b3c3-ac558cf2fcc9" d="M426.06,370.2c-3.49-.66-6.44-2.12-9.74-2,1.2,1.24,2.86,1.25,4.34,1.71,1.19.37,2.43.58,3.6,1,.77.28,2.3.12,2,1.34s-1.35-.08-2.1,0c-2.06.09-3.77.66-4.73,2.61A4.55,4.55,0,0,0,420,380a3.85,3.85,0,0,0,4.85,1.41,8.73,8.73,0,0,1,1.19-.26,29.56,29.56,0,0,1-4.39,12.16c-8.23,13.52-21.87,17.44-37.85,13.47C364.41,402,357.3,384.94,358,371.9c.45-8.44,4.59-15,11-20.14,8-6.41,17.37-7.55,27.15-6.72,9.51.81,17.67,4.5,23.81,12A25.88,25.88,0,0,1,426.06,370.2Zm-10.19,13.28c-3.17-1.12-12.64-1.8-15.68-1.15-2.83.6-4.44,2.7-4.52,5.76,0,1.83.78,2.71,2.58,2.36a30.51,30.51,0,0,1,7.2-.5c2.33.1,4.65.25,7,.3.59,0,1.62.44,1.28-1A5.53,5.53,0,0,1,415.87,383.49ZM405,376.08a4.72,4.72,0,0,0-9.43-.27,5.13,5.13,0,0,0,4.91,5C402.72,380.83,404.92,378.55,405,376.08Zm1.83-7.57a41.15,41.15,0,0,0-12.71,1.82C396.65,370.91,405,369.65,406.79,368.51Z" transform="translate(-329.89 -201)"/><path class="6ef3da0d-5af9-45c0-a7d1-50e6b4c4060d" d="M367.1,402.21c9.09,7.06,19.11,9.7,30,9.52a30.8,30.8,0,0,0,8.57-1.53c1.48-.45,1.89-.32,1.72,1.32a167,167,0,0,0-.39,30.19c.22,3,.47,6,.83,9,.16,1.32-.13,1.88-1.51,2.25a83.42,83.42,0,0,1-32.21,1.76c-3-.39-5.65-1.91-8.28-3.39a3,3,0,0,1-1.36-2.49,101.21,101.21,0,0,1,1.34-40.42C366.28,406.45,366.63,404.49,367.1,402.21Z" transform="translate(-329.89 -201)"/><path class="b7b1579b-c11c-47ae-b3c3-ac558cf2fcc9" d="M454.07,381c2.74,1.14,4.54.8,6-1a4.64,4.64,0,0,0,.59-5.15,4.45,4.45,0,0,0-5-2.47c-1.47.2-1.42-.43-1.3-1.52.79-7,4.44-12.41,9.34-17.16,11.66-11.32,36.34-11.74,48.37-1.57,10.56,8.93,13.45,22.57,7.21,36.21-5.5,12-15.46,17.55-27.95,19.49-7.27,1.13-14.33.47-20.85-3.1C461.33,399.69,456.54,391.56,454.07,381Zm30.48-5.14a4.54,4.54,0,0,0-4.59-4.54,4.66,4.66,0,0,0-4.77,4.68,4.84,4.84,0,0,0,4.46,4.75A4.89,4.89,0,0,0,484.55,375.87Zm-18.36,9.24c4.26,1.16,8.63.46,13,.46C474.91,384.19,470.53,385.22,466.19,385.11Z" transform="translate(-329.89 -201)"/><path class="451fa534-a923-4d56-9afa-c71f352e866b" d="M473.1,409.92c14.64,4.07,27.82,1.24,40.33-7.49.88,4.51,1.71,8.85,2.56,13.19,2.18,11.1,1.49,22.19,0,33.29A3.37,3.37,0,0,1,514,451.6a27.45,27.45,0,0,1-11.59,3.55A88.24,88.24,0,0,1,474,452.82c-1.33-.35-1.36-1-1.26-2.18a238.93,238.93,0,0,0,1.2-29.68C473.76,417.32,473.37,413.69,473.1,409.92Z" transform="translate(-329.89 -201)"/><path class="6f342173-cb41-4374-913f-ac53f8793613" d="M397.12,255.15a6,6,0,0,1-6.23,5.74,4.14,4.14,0,0,1-4.26-4.47,6.47,6.47,0,0,1,6-5.85A4.32,4.32,0,0,1,397.12,255.15Z" transform="translate(-329.89 -201)"/><path class="01182cc2-7c4a-4e64-882a-4b55407c7951" d="M398.57,303.11c-.11-.9-.26-1.56-.27-2.21,0-1.24-1-3,.26-3.61s3.28-.34,4.82.4,1.64,2.13.29,3.15A13.86,13.86,0,0,1,398.57,303.11Z" transform="translate(-329.89 -201)"/><path class="6f342173-cb41-4374-913f-ac53f8793613" d="M429.86,307.43a4.06,4.06,0,0,1-4.32-4.38,6.28,6.28,0,0,1,6.15-5.92,4.26,4.26,0,0,1,4.32,4.46A6,6,0,0,1,429.86,307.43Z" transform="translate(-329.89 -201)"/><path class="01182cc2-7c4a-4e64-882a-4b55407c7951" d="M425.58,256.57a18,18,0,0,1-.38-2.28c0-1.2-.87-2.9.15-3.5,1.5-.88,3.42-.37,5,.38s1.61,2.08.24,3.13A14.51,14.51,0,0,1,425.58,256.57Z" transform="translate(-329.89 -201)"/><path class="01182cc2-7c4a-4e64-882a-4b55407c7951" d="M379.36,278.81c-1.85-.22-3.55,1.46-4.31-.16-.46-1-.46-3.64,1.35-3.89C379.14,274.37,377.77,277.42,379.36,278.81Z" transform="translate(-329.89 -201)"/><path class="01182cc2-7c4a-4e64-882a-4b55407c7951" d="M440.59,278.77c-1.75-.19-3.19,1.46-4.39,0-.69-.84.84-4.23,1.68-4.15C440.41,274.83,439.17,277.39,440.59,278.77Z" transform="translate(-329.89 -201)"/><path class="01182cc2-7c4a-4e64-882a-4b55407c7951" d="M373.69,299.22c-.41-1.57,0-2.13,1.34-2.15,2.72-.05,4.83.88,4.9,2.35.06,1.18-2.75,3-5,2.75C372.87,302,374.19,299.93,373.69,299.22Z" transform="translate(-329.89 -201)"/><path class="5beabd29-13c9-4dac-96bc-4d6eab4eb7df" d="M415.87,383.49a5.53,5.53,0,0,0-2.15,5.76c.34,1.46-.7,1-1.28,1-2.33-.05-4.65-.2-7-.3a30.51,30.51,0,0,0-7.2.5c-1.8.35-2.63-.54-2.58-2.36.08-3.06,1.69-5.16,4.52-5.76C403.23,381.69,412.7,382.36,415.87,383.49Z" transform="translate(-329.89 -201)"/><path class="5beabd29-13c9-4dac-96bc-4d6eab4eb7df" d="M405,376.08c0,2.47-2.24,4.75-4.52,4.69a5.13,5.13,0,0,1-4.91-5,4.72,4.72,0,0,1,9.43.27Z" transform="translate(-329.89 -201)"/><path class="ee5207e7-7796-4ff3-9ba8-03eec00fddd8" d="M406.79,368.51c-1.75,1.14-10.14,2.41-12.71,1.82A41.15,41.15,0,0,1,406.79,368.51Z" transform="translate(-329.89 -201)"/><path class="5beabd29-13c9-4dac-96bc-4d6eab4eb7df" d="M484.55,375.87a4.89,4.89,0,0,1-4.89,4.89,4.84,4.84,0,0,1-4.46-4.75,4.66,4.66,0,0,1,4.77-4.68A4.54,4.54,0,0,1,484.55,375.87Z" transform="translate(-329.89 -201)"/><path class="5de7f426-30c8-476d-a83d-e30816894ccd" d="M466.19,385.11c4.34.11,8.72-.92,13,.46C474.82,385.57,470.45,386.27,466.19,385.11Z" transform="translate(-329.89 -201)"/></svg>