<svg id="8cdf1aae-110e-430b-b8d3-40dc6f175e7d" data-name="Capa 1" xmlns="http://www.w3.org/2000/svg" viewBox="0 0 213.57 309.58"><defs><style>.c8d7111e-0330-43bb-8aa7-4398a34bed5b{fill:#0d0d0a;}.\35 1a3bf8e-36b2-4562-b510-4a28f94e2b7e{fill:#fefefe;}.d30b426c-69b7-4edf-aee9-f140565482e2{fill:#f7cca0;}.baa4559a-2836-4eb5-9ec9-9c31c8907500{fill:#95b4c7;}.f0b0066c-650d-463e-9f34-4c2fa420a22a{fill:#509541;}.d9f43515-a188-46d1-b100-2e675f12711d{fill:#f8f7f8;}.\32 08e2c5b-ddb5-4693-85a4-b757f194a2b6{fill:#d46c69;}.\36 a705612-5042-492f-bfa8-e937533f3f59{fill:#eeeded;}.\35 394baf2-d6d2-4198-a5f9-854a9a947a50{fill:#5c4c3d;}.ee398dce-26e7-4325-92e1-e9fc41b427d1{fill:#202020;}.b2557d4a-4275-44c4-b929-6864deae9825{fill:#171717;}.\35 d17832c-9c8f-4c9d-8a93-94bf20299445{fill:#392c24;}.\38 0424dab-16ab-48ef-ab6c-0bdb79c8f960{fill:#493b2f;}.\34 5026e69-9bb5-4576-9bef-2d91e233a1c7{fill:#6e5743;}</style></defs><title>card-29</title><path class="c8d7111e-0330-43bb-8aa7-4398a34bed5b" d="M543.31,355.42q0,71.62,0,143.23a21.56,21.56,0,0,1-.31,4.46c-.95,4.43-4,6.85-8.47,7-.58,0-1.17,0-1.75,0h-192c-7.78,0-11.05-3.27-11.05-11.08q0-143.86,0-287.71c0-7.28,3.21-10.69,10.43-10.73,17.66-.08,35.33-.05,53-.05q68.74,0,137.48,0a23.23,23.23,0,0,1,5.71.37c4.29,1.07,6.68,3.85,6.92,8.28,0,.91,0,1.83,0,2.75Q543.31,283.68,543.31,355.42Zm-72.51,34.2c-.08,1.82,1.36,2.74,2.38,3.87.28.31.5-.15.62-.45l.18.06.19,0c.93.6,1.85,1.17,2.31-.49l.81-.06c2.22.15,2.17-1.6,2.53-3a5.41,5.41,0,0,0,3.86-3.33,8.64,8.64,0,0,0,5-2.91c-6.68.95-12.36,3-18.16,4.49-1.26.32-.64,1,.2,1.41A.67.67,0,0,0,470.8,389.62ZM423.11,369.7l.53.16,0-.56A46.18,46.18,0,0,0,400.93,346a69,69,0,0,0-34.46-6.47,47,47,0,0,0-30.92,13.33,5.24,5.24,0,0,0-1.71,4.16q.09,28.74,0,57.49a5.91,5.91,0,0,0,1.79,4.41A57.42,57.42,0,0,0,359.72,434c8.44,2.77,17.09,4.66,26,3.36,18.58-2.7,31-13.51,38-30.46,4.48-10.83,5.62-22.2,1.57-33.64a2.4,2.4,0,0,0-2.41-1.92c-5.22-.49-10.42-1.2-15.62-1.84-.76-.09-1.63,0-2.21-1.31C411.37,368,417.2,369.48,423.11,369.7ZM393.3,471a27.46,27.46,0,0,0,0-9.07l-.49,4.07c-1.91,12.53-2.51,25.17-3,37.81-.09,2.15.89,2.17,2.5,2.17q46.62-.05,93.24,0c2.62,0,4.1-.81,5.25-3,1.82-3.52,4.1-6.7,3.33-11.14-.93-5.4-1.26-10.91-1.83-16.37-1.63-15.61-5.25-30.8-9.64-45.82a2.82,2.82,0,0,0-2.09-2.15,49,49,0,0,1-19.37-11.84c-13-12.34-18.9-27.75-17.49-45.23,1.43-17.65,11.16-30.9,26.31-39.87a67,67,0,0,1,26.56-8.8c12.41-1.46,24.43-.54,35.59,5.7,2.29,1.28,4.51,2.67,7.06,4.18v-2.92q0-58.12,0-116.24c0-6.31-1.49-7.84-7.76-7.85q-15.25,0-30.5,0H342.46c-7.43,0-8.6,1.17-8.6,8.49q0,65.49,0,131v3l2.35-1.8c6-4.58,12.68-8.13,20.08-9.65,12.6-2.59,25.07-1.65,37.5,1.89,24.26,6.92,40.61,30.12,39.07,52.23-1.39,20-10.07,35.57-27,46-4.33,2.67-5.72,5.43-6.13,10a468.86,468.86,0,0,0-1.91,51.65c0,1.61-.07,3.17-2.13,3.26s-2.44-1.41-2.52-3.19C392.77,488.68,393.17,479.85,393.3,471Zm56.62-85.85c1.19-.11,3.26-1.67,2.63,1.48-.14.68.37.83.9.91,4.39.65,8.85,1.16,13.11-.25s8.47-2.42,12.67-3.73c10.35-3.23,21.33-4.62,30.82-10.39,2.91-1.77,6.72-2.35,8.16-6.15.23-.6,1.1-.58,1.79-.2a5.55,5.55,0,0,1,2,2.14,1.33,1.33,0,0,1,.06,1.63c-.44.5-.88,0-1.3-.2-.94-.53-1.58.2-2.22.64a57.13,57.13,0,0,1-7,3.88c-8.56,4.26-17.52,7.69-25.67,12.76a14,14,0,0,0-5.82,6.26c-2.21,5.07-4.89,5.46-8.24,1.27-1.72-2.15-3.48-3.9-6.54-4.51-4.07-.81-8.31-.28-12.28-1.88-1.47-.59-1.51,1.13-1.66,2-.1.58.34,1.26.57,1.88,7.69,20.51,29.56,37.45,56.64,30.42,10.82-2.81,20.68-7.27,28.89-15,.89-.84,1.74-1.6,1.73-3.11q-.08-32.37,0-64.75a2.83,2.83,0,0,0-1-2.39,43.32,43.32,0,0,0-22.44-10.77,69.73,69.73,0,0,0-36,4.43C459.89,339.32,444.11,360.87,449.92,385.17Zm-116,39.57c0,1.56,0,2.46,0,3.36q0,27.11,0,54.23c0,5.66,0,11.33,0,17,0,4.2,1.16,5.48,5.15,6.26a21.57,21.57,0,0,0,4.21.39c11.66,0,23.32,0,35,0,2.07,0,4.79.66,6-.38,1.45-1.21.48-4,.61-6.17q0-.5,0-1a304.48,304.48,0,0,1,6.7-54.93c.28-1.26.39-2-1.45-1.63-12.44,2.79-24.29.14-35.9-4.19A62.59,62.59,0,0,1,333.87,424.75Zm205.08-10.3c-.22,0-.41-.06-.53,0-.35.22-.67.49-1,.73-14.16,10.38-29.69,16.26-47.54,14.4-2-.21-1.92.69-1.49,2.09,1.92,6.2,3.51,12.49,4.92,18.82,3,13.5,4.57,27.22,5.83,41,.14,1.53.54,2.11,2.14,2.25,11.88,1,23.58-.16,35.24-2.44,2.24-.44,2.7-1.4,2.69-3.49-.07-23.66,0-47.32-.06-71A4.23,4.23,0,0,0,538.95,414.44ZM494.61,506c13.23,0,26.06,0,38.9,0a6.71,6.71,0,0,0,1.95-.31c2.9-.9,3.77-2.78,3.79-7.54,0-1.58-.16-2.11-2-1.72a121.92,121.92,0,0,1-37.73,2.25,1.37,1.37,0,0,0-1.58.85C496.88,501.57,495.82,503.62,494.61,506Z" transform="translate(-329.73 -200.52)"/><path class="51a3bf8e-36b2-4562-b510-4a28f94e2b7e" d="M393.3,471c-.13,8.83-.54,17.65-.13,26.48.08,1.78.37,3.28,2.52,3.19s2.16-1.65,2.13-3.26a468.86,468.86,0,0,1,1.91-51.65c.41-4.54,1.8-7.3,6.13-10,16.92-10.45,25.61-26,27-46,1.54-22.12-14.81-45.32-39.07-52.23-12.43-3.55-24.9-4.48-37.5-1.89-7.4,1.52-14,5.07-20.08,9.65l-2.35,1.8v-3q0-65.49,0-131c0-7.32,1.18-8.49,8.6-8.49H500.94q15.25,0,30.5,0c6.28,0,7.76,1.54,7.76,7.85q0,58.12,0,116.24v2.92c-2.54-1.51-4.77-2.9-7.06-4.18-11.16-6.25-23.18-7.16-35.59-5.7A67,67,0,0,0,470,330.6c-15.15,9-24.88,22.21-26.31,39.87-1.41,17.48,4.49,32.89,17.49,45.23a49,49,0,0,0,19.37,11.84,2.82,2.82,0,0,1,2.09,2.15c4.39,15,8,30.21,9.64,45.82.57,5.46.9,11,1.83,16.37.77,4.45-1.51,7.63-3.33,11.14-1.16,2.23-2.63,3-5.25,3q-46.62-.17-93.24,0c-1.61,0-2.59,0-2.5-2.17.53-12.65,1.13-25.28,3-37.81C393.78,467.62,392.75,469.4,393.3,471Zm3.57-202.35c.7,1.69,1.33,2.93,1.73,4.24a1.58,1.58,0,0,0,1.78,1.29,1.63,1.63,0,0,0,1.82-1.26,73.07,73.07,0,0,0,3.18-11c.16-.92.65-1.75-.9-1.94-1.35-.17-1.66.37-1.86,1.58a35.61,35.61,0,0,1-2.2,7.91c-1.61-3.13-3.09-6-4.52-8.82-.46-.91-.78-1.51-2-.84s-.92,1.42-.33,2.16c1.89,2.39,1.44,4.72-.17,7.28-1.29-2.81-2.51-5.5-3.76-8.18-.35-.74-.64-1.6-1.81-.95-.94.52-1.34,1-.71,2.11a59.5,59.5,0,0,1,4.34,10.3c.27.83.54,1.5,1.66,1.47a1.75,1.75,0,0,0,1.85-1.27C395.46,271.5,396.12,270.28,396.88,268.68Zm36.55,18.92c-1.17.14-1.32.92-1.16,1.82q.44,2.45,1,4.88c2.19,10.13,5.58,19.77,11.51,28.38.62.89,1.15,2.79,2.72,1.68,1.41-1-.1-2.06-.67-2.92a67.54,67.54,0,0,1-5-8.87,92.8,92.8,0,0,1-6.94-23C434.68,288.65,434.65,287.67,433.42,287.6ZM422,259.49a15,15,0,0,1-2,0c-2-.27-2.59.56-2.34,2.49.27,2.14.34,4.3.44,6.46.3,6,.64,6.28,6.66,5.08.41-.08.79-.28,1.2-.32.91-.1,1.31-.47,1.14-1.47s-.63-1.43-1.68-1.22-2.12.38-3.19.51c-.81.1-1.43,0-1.51-1.12s.24-1.53,1.32-1.57,2.32-.2,3.48-.27c.72,0,1.15-.35.93-1.08s.2-1.67-1-1.61a19.73,19.73,0,0,0-2.73.21c-1.61.31-2.12-.33-2.27-1.91-.17-1.84,1-1.52,2-1.57.83,0,1.66-.1,2.49-.08s1.34-.28,1.32-1.29-.44-1.51-1.5-1.41S423,259.43,422,259.49Zm10.73,0c-4.38.08-4.37.08-4.11,4.4.09,1.41.08,2.82.16,4.23.38,6.24,1.41,6.89,7.66,5.14,1.06-.3,1.53-.55,1.36-1.78-.22-1.59-1.22-1-2-.91s-1.8.28-2.7.42c-1.06.17-1.44-.27-1.53-1.35s.41-1.27,1.25-1.33c1.08-.07,2.15-.25,3.23-.25s1.29-.4,1.2-1.35-.21-1.48-1.28-1.36c-.91.1-1.84,0-2.73.2-1.56.27-1.94-.37-2-1.86-.12-1.72.8-1.66,1.95-1.63.83,0,1.66-.1,2.49-.07s1.37-.29,1.33-1.28-.36-1.56-1.48-1.42C434.6,259.4,433.68,259.43,432.77,259.49Zm-21.84,0a14.8,14.8,0,0,1-2,0c-1.82-.2-2.25.53-2,2.28.3,2,.26,4.14.37,6.21.34,6.31,1.3,7,7.53,5.32,1.16-.31,1.73-.62,1.46-1.94-.32-1.56-1.36-.81-2.14-.76s-1.8.26-2.7.39-1.27-.32-1.35-1.25.14-1.38,1.13-1.43c1.16-.05,2.31-.23,3.47-.27.89,0,1.14-.44,1.05-1.26s0-1.55-1.18-1.44c-.91.09-1.83.09-2.73.2-1.32.16-2.1.06-2.16-1.7s.81-1.83,2.08-1.79c.83,0,1.66-.1,2.49-.06,1,0,1.29-.44,1.19-1.38s-.26-1.45-1.31-1.33S412.33,259.42,410.93,259.52Zm69-1.3a11.41,11.41,0,0,0-6.39,1.48c-.55.35-1.86.5-1,1.75.63.92,1.25,1.44,2.4.57,1.63-1.23,3.58-1.15,5.5-1,.45,0,1.08-.1,1.23.54s-.35.91-.77,1.16a18.46,18.46,0,0,1-3.67,2c-2.23.7-2.16,2-1.56,3.81.21.61.31,1.14,1.1,1,.61-.13,1.64,0,1.52-.88-.21-1.59,1-1.63,1.87-2.2a20.76,20.76,0,0,0,3.2-2.35c2.19-2.25,1.4-4.86-1.62-5.63A13,13,0,0,0,479.93,258.22Zm-26.78,16.89c1.87-.36,3.75-.66,5.59-1.12.74-.19,2-.16,1.48-1.66-.4-1.19-.93-1.55-2.18-1a16.43,16.43,0,0,1-3.13.73c-1.21.26-1.78-.07-1.8-1.47,0-2.73-.29-5.46-.4-8.19,0-1.06-.47-1.41-1.54-1.38s-1.4.44-1.32,1.5c.25,3.39.5,6.78.57,10.17C450.47,274.65,451.2,275.42,453.15,275.11Zm10.1-.09a24.12,24.12,0,0,0,6.26-1c.66-.23,2,0,1.45-1.63-.44-1.24-.93-1.53-2.17-1a17.76,17.76,0,0,1-3.14.72c-1.41.31-1.88-.24-1.89-1.69,0-2.65-.28-5.3-.36-8,0-1.06-.38-1.42-1.47-1.41s-1.3.6-1.24,1.55c.21,3.39.48,6.79.48,10.19C461.18,274.66,461.82,275.34,463.25,275Zm-21.59,0a25.4,25.4,0,0,0,6.69-1.12c.69-.23,1.7-.25,1.1-1.61-.46-1-.81-1.48-2-1a22.38,22.38,0,0,1-3.13.78c-1.53.36-2-.22-2-1.79,0-2.57-.32-5.13-.41-7.7,0-1.11-.26-1.61-1.55-1.55s-1.21.77-1.16,1.64c.2,3.4.48,6.79.52,10.19C439.72,274.56,440.2,275.35,441.66,275Zm37.51-1.58c0-1-.4-1.54-1.63-1.42-.81.08-1.49.06-1.3,1.2.14.81,0,1.8,1.33,1.55C478.26,274.62,479.41,275,479.17,273.43Z" transform="translate(-329.73 -200.52)"/><path class="d30b426c-69b7-4edf-aee9-f140565482e2" d="M423.11,369.7c-5.92-.22-11.75-1.69-18-1.51.57,1.3,1.45,1.22,2.21,1.31,5.21.64,10.4,1.35,15.62,1.84a2.4,2.4,0,0,1,2.41,1.92c4,11.43,2.9,22.8-1.57,33.64-7,16.94-19.44,27.76-38,30.46-8.93,1.3-17.58-.59-26-3.36a57.42,57.42,0,0,1-24.1-15.05,5.91,5.91,0,0,1-1.79-4.41q.09-28.74,0-57.49a5.24,5.24,0,0,1,1.71-4.16,47,47,0,0,1,30.92-13.33A69,69,0,0,1,400.93,346a46.18,46.18,0,0,1,22.67,23.28Zm-39.43,29.4a7.1,7.1,0,0,0-.51-14.2,6.84,6.84,0,0,0-6.94,6.92C376.21,396,379.3,399.06,383.68,399.1Zm35.15-17.75a6.92,6.92,0,0,0-7.09,7.08c0,3.93,3.28,7.34,7,7.29a7.2,7.2,0,0,0,7.2-7.33A6.82,6.82,0,0,0,418.83,381.35Zm-51.13-2.17a5.94,5.94,0,0,0,3.28-.71c4.67-1.92,9.31-3.9,14-5.87.56-.24,1.59-.36,1.27-1.18s-1.25-.31-1.89-.05c-4.76,1.9-9.53,3.79-14.27,5.73A3.82,3.82,0,0,0,367.69,379.19Zm35.12,26.69a18.8,18.8,0,0,0-8.75.3.83.83,0,0,0-.48,1,.8.8,0,0,0,.91.64C397.14,407.69,399.81,407.63,402.81,405.88Z" transform="translate(-329.73 -200.52)"/><path class="d30b426c-69b7-4edf-aee9-f140565482e2" d="M449.92,385.17c-5.81-24.3,10-45.86,29.84-53.61a69.73,69.73,0,0,1,36-4.43,43.32,43.32,0,0,1,22.44,10.77,2.83,2.83,0,0,1,1,2.39q0,32.37,0,64.75c0,1.5-.84,2.27-1.73,3.11-8.2,7.74-18.07,12.21-28.89,15-27.09,7-49-9.91-56.64-30.42-.23-.62-.67-1.3-.57-1.88.15-.91.19-2.63,1.66-2,4,1.6,8.21,1.07,12.28,1.88,3.06.61,4.82,2.36,6.54,4.51,3.35,4.19,6,3.8,8.24-1.27a14,14,0,0,1,5.82-6.26c8.15-5.07,17.12-8.5,25.67-12.76a57.13,57.13,0,0,0,7-3.88c.64-.44,1.28-1.17,2.22-.64.42.23.86.7,1.3.2A1.33,1.33,0,0,0,522,369a5.55,5.55,0,0,0-2-2.14c-.68-.38-1.56-.41-1.79.2-1.44,3.8-5.25,4.38-8.16,6.15-9.49,5.77-20.47,7.15-30.82,10.39-4.2,1.31-8.48,2.34-12.67,3.73s-8.73.9-13.11.25c-.52-.08-1-.23-.9-.91C453.18,383.5,451.11,385.07,449.92,385.17Zm48.31-16.68c1.23-.41,2.69-.25,4.15-1.62a11.7,11.7,0,0,0-5.64,1.16c-4.62,1-9.14,2.5-14,2.25.18.48.34.74.5.74,1.55,0,2.58-.06,2.31,2.32-.34,3,1.11,4,4.15,4a23.61,23.61,0,0,0,4-.15c1-.19,2.41,1.21,3.08-.41a6.62,6.62,0,0,0,.53-3.64,7.36,7.36,0,0,0-.47-2.17C495.91,369.28,496.67,368.69,498.22,368.49Zm-31.66,3.78c-4,4-9.23,4.52-14.2,6.18,2,.06,2.67,1.26,3.21,2.8.49,1.39,1.89,2,2.94,3,.57.5.86.14,1.27-.1,2.05-1.21,4-2.56,6.43-3.09.45-.1.64-.27.4-.85C465.58,377.69,464.66,375.15,466.56,372.28Zm4.54,24.86c-.38,2.71,1.42,5.08,4.5,6.27,3.42,1.33,6.06.12,7.63-3.17,1.07-2.24,2.08-4.59,4.25-6.09.4-.28,1-.53.71-1.1-.44-.76-1.08-.16-1.48.12a11.65,11.65,0,0,0-4.66,6.54c-.83,2.87-3.14,3.77-5.85,2.58A9.1,9.1,0,0,1,471.1,397.14Zm31-41.65c-1.18-1-2-.13-2.83.21-5.33,2.11-10.42,4.8-16,6.4-1.31.38-2.39.49-3.53-.76.38,2.34.85,2.69,3.29,2.09C489.83,361.78,495.6,357.79,502.11,355.48Zm-19,25.86c-9.26-2-15.11-.52-16.59,4.13a.63.63,0,0,0,.89-.14c2.75-3.68,6.37-4.27,10.64-3.31C479.59,382.38,481.44,382.62,483.09,381.34Zm-20-15.67c-.44,2.81-2.64,2.67-4.56,2.9-2.53.3-5.07.53-7.6.79l.07.66c3.73-.21,7.51.43,11.17-.92C463.91,368.47,464,367.25,463.13,365.67Zm1.47-3.75c3.44-1.49,6.69-3.68,10.78-2.29C472.53,357.8,467.76,358.83,464.59,361.92Zm16.85-2.38c3.22.94,5.68-.85,8.23-2.34C486.78,357.41,484.44,359.7,481.44,359.53Z" transform="translate(-329.73 -200.52)"/><path class="baa4559a-2836-4eb5-9ec9-9c31c8907500" d="M333.87,424.75a62.59,62.59,0,0,0,20.38,12.91c11.61,4.33,23.46,7,35.9,4.19,1.84-.41,1.74.37,1.45,1.63a304.48,304.48,0,0,0-6.7,54.93q0,.5,0,1c-.13,2.13.84,5-.61,6.17-1.24,1-4,.38-6,.38-11.66,0-23.32,0-35,0a21.57,21.57,0,0,1-4.21-.39c-4-.78-5.12-2.07-5.15-6.26,0-5.66,0-11.33,0-17q0-27.11,0-54.23C333.87,427.21,333.87,426.31,333.87,424.75Z" transform="translate(-329.73 -200.52)"/><path class="f0b0066c-650d-463e-9f34-4c2fa420a22a" d="M538.95,414.44a4.23,4.23,0,0,1,.21,2.37c0,23.66,0,47.32.06,71,0,2.09-.45,3-2.69,3.49-11.66,2.27-23.36,3.47-35.24,2.44-1.6-.14-2-.72-2.14-2.25-1.26-13.75-2.81-27.47-5.83-41-1.42-6.33-3-12.62-4.92-18.82-.43-1.4-.56-2.3,1.49-2.09,17.85,1.86,33.38-4,47.54-14.4.33-.25.65-.51,1-.73C538.53,414.38,538.73,414.44,538.95,414.44Z" transform="translate(-329.73 -200.52)"/><path class="d9f43515-a188-46d1-b100-2e675f12711d" d="M494.61,506c1.21-2.38,2.27-4.43,3.29-6.49a1.37,1.37,0,0,1,1.58-.85,121.92,121.92,0,0,0,37.73-2.25c1.86-.39,2,.14,2,1.72,0,4.76-.88,6.64-3.79,7.54a6.71,6.71,0,0,1-1.95.31C520.67,506,507.84,506,494.61,506Z" transform="translate(-329.73 -200.52)"/><path class="208e2c5b-ddb5-4693-85a4-b757f194a2b6" d="M470.72,389.18c-.84-.38-1.46-1.09-.2-1.41,5.81-1.48,11.48-3.54,18.16-4.49a8.63,8.63,0,0,1-5,2.91c-1.84-.36-2.94.78-4,2l-.34-.63c-.71-1-1.39-1.32-2,.06l0,0c-.42-.08-.56.14-.53.52l0,0c-1.08.34-2.35-.57-3.31.51l.05,0Z" transform="translate(-329.73 -200.52)"/><path class="6a705612-5042-492f-bfa8-e937533f3f59" d="M479.3,387.53l.34.63.17,1.36c-.36,1.41-.3,3.17-2.53,3a7.77,7.77,0,0,1-.48-4.46l0,0a.51.51,0,0,0,.53-.52l0,0Z" transform="translate(-329.73 -200.52)"/><path class="6a705612-5042-492f-bfa8-e937533f3f59" d="M473.54,388.56l-.05,0c3.31-.39,2.41,2.36,3,4-.45,1.66-1.38,1.09-2.31.49-.32-.34-.12-1.14-.93-1l0,.06C473.61,390.93,472.82,389.69,473.54,388.56Z" transform="translate(-329.73 -200.52)"/><path class="baa4559a-2836-4eb5-9ec9-9c31c8907500" d="M479.81,389.51l-.17-1.36c1.08-1.19,2.18-2.33,4-2A5.41,5.41,0,0,1,479.81,389.51Z" transform="translate(-329.73 -200.52)"/><path class="baa4559a-2836-4eb5-9ec9-9c31c8907500" d="M393.3,471c-.55-1.63.48-3.41-.49-5l.49-4.07A27.46,27.46,0,0,1,393.3,471Z" transform="translate(-329.73 -200.52)"/><path class="6a705612-5042-492f-bfa8-e937533f3f59" d="M473.8,393c-.11.3-.34.75-.62.45-1-1.14-2.46-2.05-2.38-3.87,1.74-.09,1.77,1.52,2.47,2.47l0-.06C473.19,392.5,473.26,392.91,473.8,393Z" transform="translate(-329.73 -200.52)"/><path class="5394baf2-d6d2-4198-a5f9-854a9a947a50" d="M476.47,392.58c-.57-1.65.33-4.4-3-4,1-1.08,2.23-.17,3.31-.51a7.77,7.77,0,0,0,.48,4.46Z" transform="translate(-329.73 -200.52)"/><path class="5394baf2-d6d2-4198-a5f9-854a9a947a50" d="M473.27,392.09c-.7-.95-.73-2.56-2.47-2.47a.67.67,0,0,1-.08-.44l2.82-.62C472.82,389.69,473.61,390.93,473.27,392.09Z" transform="translate(-329.73 -200.52)"/><path class="5394baf2-d6d2-4198-a5f9-854a9a947a50" d="M473.8,393c-.54-.14-.61-.55-.57-1,.81-.11.61.7.93,1l-.19,0Z" transform="translate(-329.73 -200.52)"/><path class="d30b426c-69b7-4edf-aee9-f140565482e2" d="M423.6,369.31l0,.56-.53-.16Z" transform="translate(-329.73 -200.52)"/><path class="ee398dce-26e7-4325-92e1-e9fc41b427d1" d="M396.88,268.68c-.76,1.6-1.42,2.82-1.91,4.11a1.75,1.75,0,0,1-1.85,1.27c-1.12,0-1.39-.64-1.66-1.47a59.5,59.5,0,0,0-4.34-10.3c-.63-1.14-.23-1.59.71-2.11,1.17-.65,1.46.21,1.81.95,1.25,2.68,2.47,5.37,3.76,8.18,1.61-2.56,2.06-4.89.17-7.28-.59-.74-1-1.46.33-2.16s1.57-.07,2,.84c1.43,2.86,2.91,5.69,4.52,8.82a35.61,35.61,0,0,0,2.2-7.91c.2-1.21.51-1.75,1.86-1.58,1.54.19,1.06,1,.9,1.94a73.07,73.07,0,0,1-3.18,11,1.63,1.63,0,0,1-1.82,1.26,1.58,1.58,0,0,1-1.78-1.29C398.21,271.6,397.58,270.36,396.88,268.68Z" transform="translate(-329.73 -200.52)"/><path class="ee398dce-26e7-4325-92e1-e9fc41b427d1" d="M433.42,287.6c1.23.07,1.26,1,1.42,1.95a92.8,92.8,0,0,0,6.94,23,67.54,67.54,0,0,0,5,8.87c.58.87,2.08,1.93.67,2.92-1.57,1.11-2.1-.78-2.72-1.68-5.93-8.6-9.32-18.25-11.51-28.38q-.53-2.43-1-4.88C432.11,288.52,432.25,287.74,433.42,287.6Z" transform="translate(-329.73 -200.52)"/><path class="b2557d4a-4275-44c4-b929-6864deae9825" d="M422,259.49c.91-.06,1.82-.11,2.73-.2s1.48.33,1.5,1.41S425.89,262,425,262s-1.66,0-2.49.08c-1,0-2.18-.27-2,1.57.15,1.58.65,2.22,2.27,1.91a19.73,19.73,0,0,1,2.73-.21c1.23-.06.85,1,1,1.61s-.21,1-.93,1.08c-1.16.07-2.32.23-3.48.27s-1.39.52-1.32,1.57.7,1.21,1.51,1.12c1.07-.13,2.14-.29,3.19-.51s1.51.18,1.68,1.22-.23,1.37-1.14,1.47c-.41,0-.79.24-1.2.32-6,1.2-6.36.93-6.66-5.08-.11-2.16-.17-4.32-.44-6.46-.25-1.93.36-2.75,2.34-2.49A14.91,14.91,0,0,0,422,259.49Z" transform="translate(-329.73 -200.52)"/><path class="b2557d4a-4275-44c4-b929-6864deae9825" d="M432.77,259.49c.91-.06,1.83-.09,2.73-.2,1.12-.14,1.44.41,1.48,1.42s-.39,1.32-1.33,1.28-1.66.09-2.49.07c-1.15,0-2.07-.09-1.95,1.63.1,1.49.48,2.14,2,1.86.89-.16,1.82-.11,2.73-.2,1.07-.12,1.2.52,1.28,1.36s-.2,1.35-1.2,1.35-2.15.18-3.23.25c-.85.06-1.34.27-1.25,1.33s.47,1.52,1.53,1.35c.9-.14,1.8-.33,2.7-.42s1.8-.69,2,.91c.17,1.23-.29,1.48-1.36,1.78-6.25,1.75-7.28,1.1-7.66-5.14-.09-1.41-.08-2.82-.16-4.23C428.4,259.57,428.39,259.57,432.77,259.49Z" transform="translate(-329.73 -200.52)"/><path class="b2557d4a-4275-44c4-b929-6864deae9825" d="M410.93,259.52c1.4-.1,2.31-.13,3.22-.23s1.22.49,1.31,1.33-.16,1.42-1.19,1.38c-.83,0-1.66.09-2.49.06-1.27,0-2.14,0-2.08,1.79s.84,1.87,2.16,1.7c.9-.11,1.82-.11,2.73-.2,1.14-.11,1.1.67,1.18,1.44s-.16,1.23-1.05,1.26c-1.16,0-2.31.22-3.47.27-1,0-1.2.51-1.13,1.43s.37,1.4,1.35,1.25,1.8-.34,2.7-.39,1.82-.8,2.14.76c.27,1.32-.3,1.63-1.46,1.94-6.23,1.63-7.19,1-7.53-5.32-.11-2.07-.07-4.17-.37-6.21-.26-1.75.17-2.49,2-2.28A14.8,14.8,0,0,0,410.93,259.52Z" transform="translate(-329.73 -200.52)"/><path class="ee398dce-26e7-4325-92e1-e9fc41b427d1" d="M479.93,258.22a13,13,0,0,1,1.78.25c3,.77,3.82,3.38,1.62,5.63a20.76,20.76,0,0,1-3.2,2.35c-.82.56-2.08.61-1.87,2.2.12.87-.91.75-1.52.88-.79.17-.89-.37-1.1-1-.6-1.76-.66-3.11,1.56-3.81a18.46,18.46,0,0,0,3.67-2c.42-.25.9-.58.77-1.16s-.78-.51-1.23-.54c-1.92-.13-3.87-.21-5.5,1-1.15.87-1.77.35-2.4-.57-.85-1.25.46-1.4,1-1.75A11.41,11.41,0,0,1,479.93,258.22Z" transform="translate(-329.73 -200.52)"/><path class="ee398dce-26e7-4325-92e1-e9fc41b427d1" d="M453.15,275.11c-1.95.31-2.68-.45-2.72-2.41-.07-3.39-.32-6.79-.57-10.17-.08-1.07.21-1.47,1.32-1.5s1.5.32,1.54,1.38c.11,2.73.36,5.46.4,8.19,0,1.4.58,1.73,1.8,1.47a16.43,16.43,0,0,0,3.13-.73c1.25-.55,1.78-.18,2.18,1,.5,1.5-.74,1.47-1.48,1.66C456.9,274.45,455,274.74,453.15,275.11Z" transform="translate(-329.73 -200.52)"/><path class="ee398dce-26e7-4325-92e1-e9fc41b427d1" d="M463.25,275c-1.44.33-2.08-.36-2.08-2.28,0-3.4-.28-6.8-.48-10.19-.06-1,0-1.55,1.24-1.55s1.44.36,1.47,1.41c.08,2.65.34,5.3.36,8,0,1.45.48,2,1.89,1.69a17.76,17.76,0,0,0,3.14-.72c1.24-.53,1.73-.23,2.17,1,.58,1.62-.78,1.4-1.45,1.63A24.12,24.12,0,0,1,463.25,275Z" transform="translate(-329.73 -200.52)"/><path class="ee398dce-26e7-4325-92e1-e9fc41b427d1" d="M441.66,275c-1.46.34-1.94-.45-2-2.18,0-3.4-.32-6.79-.52-10.19-.05-.87-.14-1.57,1.16-1.64s1.51.44,1.55,1.55c.08,2.57.4,5.14.41,7.7,0,1.57.52,2.16,2,1.79a22.38,22.38,0,0,0,3.13-.78c1.18-.47,1.53,0,2,1,.6,1.36-.41,1.38-1.1,1.61A25.4,25.4,0,0,1,441.66,275Z" transform="translate(-329.73 -200.52)"/><path class="5d17832c-9c8f-4c9d-8a93-94bf20299445" d="M479.17,273.43c.24,1.57-.91,1.19-1.61,1.32-1.29.25-1.19-.73-1.33-1.55-.19-1.13.49-1.12,1.3-1.2C478.76,271.89,479.22,272.44,479.17,273.43Z" transform="translate(-329.73 -200.52)"/><path class="c8d7111e-0330-43bb-8aa7-4398a34bed5b" d="M383.68,399.1c-4.38,0-7.47-3.05-7.45-7.28a6.84,6.84,0,0,1,6.94-6.92,7.1,7.1,0,0,1,.51,14.2Z" transform="translate(-329.73 -200.52)"/><path class="c8d7111e-0330-43bb-8aa7-4398a34bed5b" d="M418.83,381.35a6.82,6.82,0,0,1,7.09,7,7.2,7.2,0,0,1-7.2,7.33c-3.69.05-7-3.36-7-7.29A6.92,6.92,0,0,1,418.83,381.35Z" transform="translate(-329.73 -200.52)"/><path class="5d17832c-9c8f-4c9d-8a93-94bf20299445" d="M367.69,379.19A3.82,3.82,0,0,1,370,377.1c4.74-1.94,9.51-3.83,14.27-5.73.64-.25,1.51-.9,1.89.05s-.71.94-1.27,1.18c-4.64,2-9.29,4-14,5.87A5.94,5.94,0,0,1,367.69,379.19Z" transform="translate(-329.73 -200.52)"/><path class="5d17832c-9c8f-4c9d-8a93-94bf20299445" d="M402.81,405.88c-3,1.75-5.68,1.81-8.33,2a.8.8,0,0,1-.91-.64.83.83,0,0,1,.48-1A18.8,18.8,0,0,1,402.81,405.88Z" transform="translate(-329.73 -200.52)"/><path class="b2557d4a-4275-44c4-b929-6864deae9825" d="M498.22,368.49c-1.55.2-2.31.78-1.43,2.47a7.36,7.36,0,0,1,.47,2.17,6.62,6.62,0,0,1-.53,3.64c-.67,1.62-2,.22-3.08.41a23.61,23.61,0,0,1-4,.15c-3,0-4.5-1-4.15-4,.28-2.38-.75-2.31-2.31-2.32-.16,0-.32-.27-.5-.74,4.87.25,9.39-1.28,14-2.25C497.23,368.18,497.86,367.9,498.22,368.49Z" transform="translate(-329.73 -200.52)"/><path class="b2557d4a-4275-44c4-b929-6864deae9825" d="M466.56,372.28c-1.9,2.87-1,5.41,0,7.92.24.58,0,.75-.4.85-2.39.53-4.38,1.88-6.43,3.09-.4.24-.7.61-1.27.1-1-.94-2.45-1.59-2.94-3-.54-1.54-1.23-2.75-3.21-2.8C457.33,376.79,462.57,376.23,466.56,372.28Z" transform="translate(-329.73 -200.52)"/><path class="80424dab-16ab-48ef-ab6c-0bdb79c8f960" d="M471.1,397.14a9.1,9.1,0,0,0,5.09,5.15c2.71,1.19,5,.29,5.85-2.58a11.65,11.65,0,0,1,4.66-6.54c.4-.28,1-.88,1.48-.12.33.56-.31.82-.71,1.1-2.17,1.5-3.18,3.86-4.25,6.09-1.57,3.3-4.22,4.5-7.63,3.17C472.52,402.22,470.72,399.85,471.1,397.14Z" transform="translate(-329.73 -200.52)"/><path class="5d17832c-9c8f-4c9d-8a93-94bf20299445" d="M502.11,355.48c-6.51,2.3-12.28,6.3-19,7.94-2.44.59-2.91.25-3.29-2.09,1.13,1.25,2.21,1.14,3.53.76,5.54-1.6,10.64-4.29,16-6.4C500.12,355.35,500.93,354.51,502.11,355.48Z" transform="translate(-329.73 -200.52)"/><path class="5d17832c-9c8f-4c9d-8a93-94bf20299445" d="M483.09,381.34c-1.65,1.28-3.5,1-5.07.68-4.27-1-7.89-.37-10.64,3.31a.63.63,0,0,1-.89.14C468,380.82,473.82,379.33,483.09,381.34Z" transform="translate(-329.73 -200.52)"/><path class="5394baf2-d6d2-4198-a5f9-854a9a947a50" d="M463.13,365.67c.85,1.59.79,2.8-.92,3.43-3.66,1.35-7.44.7-11.17.92l-.07-.66c2.53-.26,5.07-.5,7.6-.79C460.49,368.34,462.69,368.48,463.13,365.67Z" transform="translate(-329.73 -200.52)"/><path class="45026e69-9bb5-4576-9bef-2d91e233a1c7" d="M464.59,361.92c3.17-3.09,7.93-4.12,10.78-2.29C471.29,358.23,468,360.42,464.59,361.92Z" transform="translate(-329.73 -200.52)"/><path class="45026e69-9bb5-4576-9bef-2d91e233a1c7" d="M481.44,359.53c3,.16,5.34-2.12,8.23-2.34C487.13,358.68,484.66,360.48,481.44,359.53Z" transform="translate(-329.73 -200.52)"/><path class="5394baf2-d6d2-4198-a5f9-854a9a947a50" d="M498.22,368.49c-.36-.59-1-.31-1.49-.45a11.7,11.7,0,0,1,5.64-1.16C500.91,368.25,499.46,368.09,498.22,368.49Z" transform="translate(-329.73 -200.52)"/><path class="5394baf2-d6d2-4198-a5f9-854a9a947a50" d="M479.3,387.53l-2,.06C477.91,386.21,478.6,386.55,479.3,387.53Z" transform="translate(-329.73 -200.52)"/><path class="5394baf2-d6d2-4198-a5f9-854a9a947a50" d="M477.29,387.57a.51.51,0,0,1-.53.52C476.74,387.71,476.87,387.5,477.29,387.57Z" transform="translate(-329.73 -200.52)"/></svg>