<svg id="20016f1c-5117-48ba-a530-57bea8046d39" data-name="Capa 1" xmlns="http://www.w3.org/2000/svg" viewBox="0 0 213.57 309.58"><defs><style>.c5eee6e1-8e57-4f37-84d9-bfb26c6c7508{fill:#070707;}.b29f62d1-8100-4ca3-b8ac-bb7d991a0b1f{fill:#fefefe;}.a0a874af-474f-4b0b-82d9-51ab8c31bf34{fill:#151613;}.e259b91f-56fd-452c-b606-7c946721529b{fill:#161514;}.\37 d494bc5-e8bd-493e-b0d6-cb410dca9670{fill:#131414;}.\36 3d57a76-b67e-4f11-971c-ee97fa3f9991{fill:#181818;}.\33 05ad2ac-5658-4de8-ad11-14191056081b{fill:#1e1e1e;}.\39 0fe6e04-7aa0-4e03-8131-f925ae0cf982{fill:#f7cca0;}.\36 bce88a1-6db6-4885-8ecd-ce6d8567463a{fill:#509541;}.\36 6e59c52-1453-4118-b29f-c384d9937c98{fill:#483a2e;}.\37 4dfceb3-022c-47fd-ac1c-7006bbac12a5{fill:#95b4c7;}.dd4c599f-23f7-46e6-b2c0-32d4e1d6a0ea{fill:#d2b391;}.\30 4176bf5-70ae-45aa-a3d5-a0af78832384{fill:#fafafa;}.e8818739-0a8b-4e5b-9701-dd134308bea7{fill:#16110b;}.b78da468-392e-4188-b266-7fcaec108b18{fill:#100c07;}</style></defs><title>card-20</title><path class="c5eee6e1-8e57-4f37-84d9-bfb26c6c7508" d="M542.88,355.85q0,71.36,0,142.73c0,1,0,2,0,3-.26,5.75-3.63,9-9.41,9q-25.5,0-51,0H340.2c-7.59,0-10.89-3.31-10.89-11q0-143.85,0-287.71c0-7.43,3.18-10.81,10.58-10.83,20.25-.08,40.49,0,60.74,0q64.74,0,129.48,0a23.5,23.5,0,0,1,6,.41c4,1,6.43,3.74,6.75,7.9.08,1,.06,2,.06,3Q542.88,284.11,542.88,355.85Zm-4.1.07q0-71,0-142c0-7.64-1.12-8.74-8.88-8.74H342.4c-1,0-2,0-3,.07-4.28.26-5.77,1.77-6,6,0,.67,0,1.33,0,2q0,142.49,0,285c0,.58,0,1.17,0,1.75.1,4.53,2.09,6.48,6.66,6.48H532.31a10.28,10.28,0,0,0,2.23-.14c3-.67,4.22-2.7,4.22-7Q538.77,427.66,538.77,355.92Z" transform="translate(-329.31 -201.05)"/><path class="b29f62d1-8100-4ca3-b8ac-bb7d991a0b1f" d="M538.77,355.92q0,71.74,0,143.49c0,4.26-1.22,6.29-4.22,7a10.28,10.28,0,0,1-2.23.14H340.08c-4.57,0-6.56-2-6.66-6.48,0-.58,0-1.17,0-1.75q0-142.49,0-285c0-.67,0-1.33,0-2,.21-4.28,1.7-5.78,6-6,1-.06,2-.07,3-.07H529.89c7.76,0,8.88,1.1,8.88,8.74Q538.77,284.93,538.77,355.92Zm-89.6,15.89c-.44-.71-.67-1-.85-1.38-3.5-6.7-7-13.4-10.49-20.12-.66-1.28-1.37-2.52-3-1.71-1.83.91-.74,2.2-.14,3.36q6.46,12.38,12.93,24.76a12.25,12.25,0,0,1,1.51,4.43c1,9.66,5.62,17.42,12.72,23.87a6.8,6.8,0,0,1,2.49,5.89,204.35,204.35,0,0,1-7.79,40.35c-1.11,3.86-1.18,3.94,2.64,5,1.58.44,1.57,1.06,1.21,2.43q-3.79,14.35-6.39,29c-.24,1.36-.56,2.94,1.18,3.3s2.05-1.11,2.3-2.55c1.66-9.76,3.69-19.43,6.25-29,.37-1.4.68-1.93,2.3-1.49a34.7,34.7,0,0,0,6.16.92c7.81.69,15.65,1,23.31-1,2-.52,2.45-.11,2.79,1.74A165,165,0,0,0,507,489.16a9.21,9.21,0,0,0,.88,1.78,1.55,1.55,0,0,0,2,.53,1.46,1.46,0,0,0,1-1.57,9.79,9.79,0,0,0-.6-2.14,171.21,171.21,0,0,1-8.65-29.37c-.38-1.9-.31-3.16,1.77-3.81,1.89-.59,2.79-2,3.44-3.9a117,117,0,0,0,6.24-47.42,4.46,4.46,0,0,1,1.19-3.57,37.82,37.82,0,0,0,9.44-25.88,9.72,9.72,0,0,1,.72-3.87q5.46-13.65,10.86-27.33c.51-1.27,1.14-2.69-.65-3.36s-2.23.9-2.72,2.12c-1.56,3.94-3.08,7.89-4.64,11.83s-3.18,7.93-4.87,12.15c-7.87-19-24.45-24.31-42.17-22.21C462.75,345.21,451.18,358.16,449.17,371.81Zm-105.56-7.43c-.67-3-1.27-5.54-1.78-8.05-.73-3.58-1.41-7.17-2.11-10.76-.23-1.16-.71-2.13-2.12-1.94s-1.55,1.28-1.4,2.45c.05.41.08.83.17,1.24,1.09,5.2,2.23,10.4,3.27,15.61.76,3.82,2.59,7.45,2.63,11.37A37.08,37.08,0,0,0,350.83,398a8.09,8.09,0,0,1,2,6.06,116.42,116.42,0,0,0,5.88,45c.87,2.53,1.92,4.51,4.55,5.35,1.25.4,1.5,1.06,1.23,2.43A152.89,152.89,0,0,1,360,474.43c-1.48,4.58-3.14,9.1-4.8,13.62-.42,1.16-.59,2.17.65,2.76,1.44.69,2.13-.29,2.65-1.45.14-.3.23-.62.35-.93a175.43,175.43,0,0,0,8.25-26.89c.35-1.54.17-3.69,1.12-4.47,1.19-1,3,.66,4.54.91l.49.07a86.66,86.66,0,0,0,26.11-.7c2.15-.43,2.47.42,2.86,2,2.3,9.45,4.56,18.9,6.15,28.5.23,1.36.61,2.87,2.43,2.42,1.63-.4,1.29-1.8,1.07-3.09-1.7-9.66-3.87-19.22-6.36-28.71-.42-1.6-.47-2.51,1.53-3,3.19-.74,3.29-1.12,2.33-4.35a214.3,214.3,0,0,1-8-41.31,5.29,5.29,0,0,1,2.11-5.22c10.53-8.8,14.74-20.2,13-33.77a9.94,9.94,0,0,1,.5-5.09c2.36-6,4.57-12.12,6.88-18.17.42-1.11.35-2.06-.75-2.51a1.71,1.71,0,0,0-2.53,1.2c-.71,2.12-1.57,4.2-2.38,6.29l-3.87,10.07C401.49,334.51,353.19,335.49,343.61,364.38Zm11.41-80c-2.21-5.59-4.44-10.67-6.91-15.65-.82-1.66-1.63-.91-2.47-.3s-2.7.44-1.57,2.49a103.63,103.63,0,0,1,8,19c.48,1.51,1.34,1.61,2.58,1.63s2.18.11,2.74-1.4c.93-2.52,2.16-4.92,3.5-7.9,1.27,3.2,2.42,5.84,3.36,8.55.46,1.33,1.37,1.26,2.36,1.2s2.15.4,2.69-1.09c2.47-6.88,4.92-13.76,6.08-21,.08-.53.43-1-.34-1.49-2-1.14-3.83-.35-4.28,1.81a83.86,83.86,0,0,1-4.06,14.36,175.73,175.73,0,0,0-7.95-16.28c-.31-.55-.5-1.56-1.25-1.32a7.47,7.47,0,0,0-3,1.7c-.84.85.19,1.75.69,2.36,3,3.63,2.75,7.38.68,11.29C355.65,282.82,355.45,283.37,355,284.36Zm60.15,8.23a20.21,20.21,0,0,0,3.24,0c4.5-.74,8.69-2.24,10.49-6.9s.18-8.71-3-12.36c-4.42-5.07-10.13-5.85-16.35-5.35-1.32.11-1.18.79-1.1,1.66.52,6.13,1,12.27,1.56,18.39C410.46,292.65,410.54,292.64,415.18,292.59Zm33,0a22.07,22.07,0,0,0,3,0c4.63-.64,8.87-2.15,10.79-6.84s.16-8.86-3.07-12.54c-4.44-5-10.17-5.77-16.37-5.23-1.21.1-1,.78-.92,1.55.52,6.21,1,12.42,1.55,18.63C443.59,292.64,443.65,292.63,448.21,292.61Zm-70-18c.3,5,.64,10,.89,14.95.06,1.27.46,1.69,1.78,1.69a49.28,49.28,0,0,0,11.39-1.06c2.05-.48,1.64-1.51,1.48-2.86-.19-1.59-.88-2.16-2.46-1.7a27.87,27.87,0,0,1-5.89.94c-1.34.09-2.32,0-2.11-1.77.15-1.21-.81-2.92,1.74-2.83a47.31,47.31,0,0,0,6.21-.47c.68-.07,1.48.13,1.62-1,.32-2.62-.44-3.55-3.06-3.39-.83,0-1.67.07-2.49.17-4.52.53-4.47.54-4.71-4-.07-1.3.24-1.72,1.58-1.71,2.16,0,4.33-.38,6.48-.27s1.63-1.28,1.65-2.43,0-2.39-1.79-2.18-3.65.23-5.48.36c-2.31.17-5.38-.79-6.74.63S378.17,272.22,378.16,274.6Zm109.69-3.3c-.31,2.22.43,3.32,2.88,2.48.38-.13.84,0,1.23-.16,2.1-.57,2.67.4,2.74,2.35.16,4.81.52,9.62.72,14.43.06,1.57.88,1.79,2.12,1.5,1-.24,2.58.44,2.39-1.77-.35-4-.5-8-.62-11.94-.06-1.8-1.18-4.15,0-5.22s3.45-.73,5.26-.84c1.3-.08,2.15-.36,1.7-1.87-.34-1.14.38-3-2.14-2.62-4.92.75-9.87,1.32-14.82,1.84C488,269.62,487.4,269.91,487.85,271.3ZM484.16,285h-.06c-.39-5.13-.87-10.25-1.13-15.39-.09-1.92-1.22-1.66-2.34-1.52-.88.11-2.38-.65-2.23,1.33q.84,10.79,1.64,21.59c.08,1.11.48,1.52,1.72,1.43,2-.15,3.26-.47,2.66-3A24.67,24.67,0,0,1,484.16,285Zm-49.72-16.89c-1.84-.41-2.35.31-2.22,2.22.45,6.63.79,13.26,1.55,19.86.14,1.23-.19,2.57,1.9,2.22,1.6-.27,2.92-.14,2.66-2.59-.68-6.52-1.09-13.07-1.51-19.61C436.71,268.6,436.32,267.65,434.43,268.14Zm19.86,40c.47,1.91,1,4.18,1.58,6.41,2.11,7.42,5.08,14.39,10.53,20.06.68.71,1.43,1.67,2.47.66s.06-1.62-.57-2.29a41.13,41.13,0,0,1-8.57-14.73,86.26,86.26,0,0,1-2.89-10.54c-.19-.9-.44-1.65-1.53-1.57S454.23,306.93,454.29,308.09Zm-35.64.76c.14-.81,0-1.58-.91-1.72-1.69-.26-1.58,1.24-1.76,2.16a43.21,43.21,0,0,1-12.29,23.18c-.68.66-1.43,1.35-.47,2.28s1.53.08,2.12-.49C412.55,327.26,416.76,318.66,418.65,308.85Zm97.69-28.22c-.39-4.19-.81-8.14-1.11-12.1-.19-2.49-1.92-1.3-3.11-1.44-1.51-.17-1.5.71-1.39,1.85q.6,5.93,1.06,11.87c.1,1.29,0,2.55,2,2.18C515.29,282.71,517.1,282.89,516.33,280.63Zm11.46.74c-.47-4.46-.87-8.94-1.42-13.39-.28-2.21-2-.57-3-.84-.83-.23-1.62,0-1.48,1.31.49,4.46,1,8.92,1.32,13.4.14,1.76,1.33,1.25,2.15,1.05S528,283.43,527.8,281.37Zm-1.54,10.54c.47-.3,2.26.95,2-1-.2-1.37.63-3.94-2.38-3.39-.87.16-2.71-1-2.41,1.17C523.63,290.09,522.92,292.58,526.26,291.91Zm-11.76.1c2.37,0,2.46,0,2.37-1.32-.11-1.67.13-3.81-2.67-3.18-.74.17-2.4-.89-2.1,1C512.34,289.93,511.41,292.66,514.5,292Z" transform="translate(-329.31 -201.05)"/><path class="a0a874af-474f-4b0b-82d9-51ab8c31bf34" d="M449.17,371.81c2-13.65,13.57-26.6,31.06-28.67,17.71-2.1,34.3,3.23,42.17,22.21,1.7-4.22,3.3-8.18,4.87-12.15s3.08-7.89,4.64-11.83c.49-1.23.9-2.81,2.72-2.12s1.16,2.09.65,3.36q-5.43,13.66-10.86,27.33a9.72,9.72,0,0,0-.72,3.87,37.82,37.82,0,0,1-9.44,25.88,4.46,4.46,0,0,0-1.19,3.57,117,117,0,0,1-6.24,47.42c-.65,1.88-1.55,3.32-3.44,3.9-2.08.65-2.14,1.9-1.77,3.81a171.21,171.21,0,0,0,8.65,29.37,9.79,9.79,0,0,1,.6,2.14,1.46,1.46,0,0,1-1,1.57,1.55,1.55,0,0,1-2-.53,9.21,9.21,0,0,1-.88-1.78,165,165,0,0,1-8.68-29.61c-.34-1.84-.79-2.26-2.79-1.74-7.67,2-15.5,1.71-23.31,1a34.7,34.7,0,0,1-6.16-.92c-1.62-.44-1.92.09-2.3,1.49-2.55,9.57-4.59,19.24-6.25,29-.24,1.44-.56,2.9-2.3,2.55s-1.42-1.94-1.18-3.3q2.6-14.62,6.39-29c.36-1.37.37-2-1.21-2.43-3.81-1.07-3.75-1.15-2.64-5a204.35,204.35,0,0,0,7.79-40.35,6.8,6.8,0,0,0-2.49-5.89c-7.1-6.44-11.69-14.21-12.72-23.87a12.25,12.25,0,0,0-1.51-4.43q-6.48-12.37-12.93-24.76c-.6-1.16-1.7-2.44.14-3.36,1.63-.81,2.33.42,3,1.71,3.47,6.72,7,13.42,10.49,20.12C448.51,370.78,448.74,371.1,449.17,371.81Zm13.14-16.26c-.56-.71-1-.18-1.19.25s.47.19.7.36l.49.88c-1.9.51-3.6,1-4.84,3a32,32,0,0,0-5,13.65c-1.48,11.61,5.14,25,15.16,31.1,12,7.25,30.3,4,40.06-3.5a4.28,4.28,0,0,0,1.33-2c3.4-8.66,6.8-17.32,10.31-25.94a7.54,7.54,0,0,0,.22-5.32,29.69,29.69,0,0,0-11.85-16.17c-7.16-4.95-15.23-6-23.59-5.53-7.54.38-14.59,2.41-20.53,7.36-.58.48-1.72.73-1.31,1.93Zm47,58.11c0-2.33,0-4.66,0-7,0-1.63-.42-1.86-1.87-1-11.79,6.94-24.18,9-37.3,4.24-1.27-.46-1.76-.37-1.86,1.11a193.25,193.25,0,0,1-7.46,39.34c-.53,1.85,0,2.41,1.73,2.82A80.41,80.41,0,0,0,489.75,455a35.37,35.37,0,0,0,11.34-3.57,3.58,3.58,0,0,0,2.05-2.32C506.71,437.54,509.68,425.88,509.29,413.65Z" transform="translate(-329.31 -201.05)"/><path class="e259b91f-56fd-452c-b606-7c946721529b" d="M343.61,364.38c9.59-28.89,57.88-29.87,70.82-1.71l3.87-10.07c.8-2.09,1.66-4.17,2.38-6.29a1.71,1.71,0,0,1,2.53-1.2c1.1.45,1.17,1.4.75,2.51-2.31,6.05-4.53,12.14-6.88,18.17a9.94,9.94,0,0,0-.5,5.09c1.71,13.57-2.5,25-13,33.77a5.29,5.29,0,0,0-2.11,5.22,214.3,214.3,0,0,0,8,41.31c1,3.23.86,3.61-2.33,4.35-2,.46-1.94,1.37-1.53,3,2.48,9.49,4.66,19,6.36,28.71.23,1.29.56,2.69-1.07,3.09-1.82.44-2.2-1.07-2.43-2.42-1.59-9.6-3.85-19.05-6.15-28.5-.39-1.61-.72-2.45-2.86-2a86.66,86.66,0,0,1-26.11.7l-.49-.07c-1.58-.25-3.35-1.89-4.54-.91-1,.79-.77,2.93-1.12,4.47a175.43,175.43,0,0,1-8.25,26.89c-.12.31-.22.63-.35.93-.52,1.15-1.22,2.13-2.65,1.45-1.25-.6-1.08-1.6-.65-2.76,1.66-4.52,3.31-9,4.8-13.62a152.89,152.89,0,0,0,4.46-17.63c.27-1.37,0-2-1.23-2.43-2.63-.84-3.68-2.82-4.55-5.35a116.42,116.42,0,0,1-5.88-45,8.09,8.09,0,0,0-2-6.06,37.08,37.08,0,0,1-8.57-23.66c0-3.92-1.87-7.55-2.63-11.37-1-5.22-2.18-10.41-3.27-15.61-.09-.41-.11-.82-.17-1.24-.15-1.17-.05-2.25,1.4-2.45s1.89.77,2.12,1.94c.71,3.59,1.38,7.18,2.11,10.76C342.34,358.84,342.93,361.34,343.61,364.38ZM408,358.88c-2.85-3-5.55-6.17-9.12-8.3-9.13-5.45-19.07-6-29.22-4-11.49,2.26-19.14,9.14-23,20.19a10.5,10.5,0,0,0-.54,6.61,165.09,165.09,0,0,0,8.15,20.88c2.78,6.13,7.54,9.44,13.55,11.52,1.1.38,2.21.73,3.33,1,16.6,4.25,31.22-.3,38.82-15.55,4.76-9.55,5.28-19.46,0-29.19A8,8,0,0,0,408,358.88Zm-51.09,45a107.13,107.13,0,0,0,5.86,44.66,3,3,0,0,0,1.43,1.92c3,1.53,6,3.07,9.29,3.52a78.53,78.53,0,0,0,30-1.44c1.74-.43,2.23-1,1.69-2.83-3.66-12.82-6.51-25.81-7.39-39.15-.1-1.6-.57-2-2.12-1.35-7.42,3.15-15.09,2.91-22.81,1.47A39.87,39.87,0,0,1,356.87,403.93Z" transform="translate(-329.31 -201.05)"/><path class="7d494bc5-e8bd-493e-b0d6-cb410dca9670" d="M355,284.36c.43-1,.62-1.54.89-2,2.07-3.9,2.27-7.65-.68-11.29-.5-.61-1.53-1.51-.69-2.36a7.47,7.47,0,0,1,3-1.7c.75-.24.94.77,1.25,1.32a175.73,175.73,0,0,1,7.95,16.28,83.86,83.86,0,0,0,4.06-14.36c.45-2.16,2.33-2.95,4.28-1.81.76.45.42,1,.34,1.49-1.16,7.26-3.61,14.14-6.08,21-.54,1.5-1.68,1-2.69,1.09s-1.9.13-2.36-1.2c-.94-2.71-2.09-5.35-3.36-8.55-1.34,3-2.57,5.38-3.5,7.9-.56,1.51-1.54,1.42-2.74,1.4s-2.1-.11-2.58-1.63a103.63,103.63,0,0,0-8-19c-1.13-2,.75-1.89,1.57-2.49s1.65-1.36,2.47.3C350.59,273.69,352.82,278.77,355,284.36Z" transform="translate(-329.31 -201.05)"/><path class="7d494bc5-e8bd-493e-b0d6-cb410dca9670" d="M415.18,292.59c-4.64,0-4.72.05-5.17-4.59-.59-6.12-1-12.26-1.56-18.39-.07-.87-.21-1.55,1.1-1.66,6.22-.5,11.92.28,16.35,5.35,3.18,3.65,4.81,7.68,3,12.36s-6,6.16-10.49,6.9A20.21,20.21,0,0,1,415.18,292.59Zm1.46-4.47a10.85,10.85,0,0,0,4.27-.72c3.42-1.17,4.78-3.68,3.93-7.2-.93-3.89-6-7.75-10-7.76-1.35,0-1.42.55-1.31,1.66.36,4,.68,7.93.88,11.91C414.49,287.69,415,288.56,416.64,288.12Z" transform="translate(-329.31 -201.05)"/><path class="7d494bc5-e8bd-493e-b0d6-cb410dca9670" d="M448.21,292.61c-4.56,0-4.62,0-5-4.46-.57-6.2-1-12.42-1.55-18.63-.06-.77-.29-1.44.92-1.55,6.2-.54,11.93.18,16.37,5.23,3.24,3.68,5,7.75,3.07,12.54s-6.16,6.21-10.79,6.84A22.07,22.07,0,0,1,448.21,292.61Zm1.62-4.5a10.2,10.2,0,0,0,4-.65c3.8-1.24,5.27-4.28,3.89-8-1.28-3.5-5.91-6.82-9.59-7-1.14,0-1.61.14-1.49,1.47q.58,6.07.88,12.16C447.63,287.78,448.2,288.56,449.83,288.11Z" transform="translate(-329.31 -201.05)"/><path class="e259b91f-56fd-452c-b606-7c946721529b" d="M378.16,274.6c0-2.38-1.4-5.38.09-6.94s4.43-.47,6.74-.63c1.83-.13,3.66-.15,5.48-.36s1.81,1,1.79,2.18.53,2.54-1.65,2.43-4.32.29-6.48.27c-1.35,0-1.65.4-1.58,1.71.24,4.51.19,4.5,4.71,4,.83-.1,1.66-.12,2.49-.17,2.62-.15,3.38.77,3.06,3.39-.15,1.17-.95,1-1.62,1A47.31,47.31,0,0,1,385,282c-2.55-.09-1.59,1.62-1.74,2.83-.21,1.72.77,1.86,2.11,1.77a27.87,27.87,0,0,0,5.89-.94c1.58-.46,2.27.11,2.46,1.7.16,1.35.57,2.38-1.48,2.86a49.28,49.28,0,0,1-11.39,1.06c-1.32,0-1.71-.42-1.78-1.69C378.8,284.56,378.47,279.58,378.16,274.6Z" transform="translate(-329.31 -201.05)"/><path class="63d57a76-b67e-4f11-971c-ee97fa3f9991" d="M487.85,271.3c-.45-1.39.14-1.68,1.42-1.82,5-.52,9.9-1.09,14.82-1.84,2.52-.38,1.8,1.48,2.14,2.62.45,1.51-.4,1.79-1.7,1.87-1.81.11-4.18-.17-5.26.84s0,3.42,0,5.22c.12,4,.27,8,.62,11.94.19,2.21-1.36,1.53-2.39,1.77-1.25.29-2.06.07-2.12-1.5-.2-4.81-.55-9.62-.72-14.43-.07-2-.64-2.92-2.74-2.35-.4.11-.85,0-1.23.16C488.28,274.62,487.54,273.52,487.85,271.3Z" transform="translate(-329.31 -201.05)"/><path class="e259b91f-56fd-452c-b606-7c946721529b" d="M484.16,285a24.67,24.67,0,0,0,.28,4.46c.6,2.49-.7,2.81-2.66,3-1.24.1-1.64-.32-1.72-1.43q-.8-10.8-1.64-21.59c-.15-2,1.34-1.22,2.23-1.33,1.12-.13,2.24-.4,2.34,1.52.25,5.14.74,10.26,1.13,15.39Z" transform="translate(-329.31 -201.05)"/><path class="e259b91f-56fd-452c-b606-7c946721529b" d="M434.43,268.14c1.88-.48,2.28.46,2.38,2.1.42,6.54.83,13.09,1.51,19.61.26,2.45-1.06,2.32-2.66,2.59-2.1.35-1.76-1-1.9-2.22-.76-6.6-1.1-13.23-1.55-19.86C432.08,268.45,432.6,267.73,434.43,268.14Z" transform="translate(-329.31 -201.05)"/><path class="305ad2ac-5658-4de8-ad11-14191056081b" d="M454.29,308.09c-.06-1.16,0-1.93,1-2s1.34.67,1.53,1.57a86.26,86.26,0,0,0,2.89,10.54,41.13,41.13,0,0,0,8.57,14.73c.62.67,1.52,1.36.57,2.29s-1.79.05-2.47-.66c-5.44-5.67-8.42-12.64-10.53-20.06C455.24,312.27,454.76,310,454.29,308.09Z" transform="translate(-329.31 -201.05)"/><path class="305ad2ac-5658-4de8-ad11-14191056081b" d="M418.65,308.85c-1.89,9.81-6.09,18.41-13.32,25.41-.59.57-1.26,1.32-2.12.49s-.21-1.61.47-2.28A43.21,43.21,0,0,0,416,309.29c.18-.92.07-2.42,1.76-2.16C418.68,307.28,418.79,308,418.65,308.85Z" transform="translate(-329.31 -201.05)"/><path class="e259b91f-56fd-452c-b606-7c946721529b" d="M516.33,280.63c.76,2.26-1,2.08-2.58,2.37-2,.37-1.86-.89-2-2.18q-.47-5.94-1.06-11.87c-.12-1.14-.12-2,1.39-1.85,1.19.14,2.92-1.06,3.11,1.44C515.52,272.49,515.94,276.44,516.33,280.63Z" transform="translate(-329.31 -201.05)"/><path class="63d57a76-b67e-4f11-971c-ee97fa3f9991" d="M527.8,281.37c.22,2.06-1.49,1.31-2.4,1.53s-2,.7-2.15-1.05c-.37-4.47-.83-8.94-1.32-13.4-.14-1.28.64-1.54,1.48-1.31,1,.27,2.7-1.37,3,.84C526.93,272.43,527.33,276.9,527.8,281.37Z" transform="translate(-329.31 -201.05)"/><path class="305ad2ac-5658-4de8-ad11-14191056081b" d="M526.26,291.91c-3.34.67-2.63-1.81-2.82-3.24-.3-2.21,1.55-1,2.41-1.17,3-.55,2.18,2,2.38,3.39C528.51,292.86,526.72,291.61,526.26,291.91Z" transform="translate(-329.31 -201.05)"/><path class="305ad2ac-5658-4de8-ad11-14191056081b" d="M514.5,292c-3.09.65-2.16-2.08-2.4-3.54-.3-1.85,1.36-.8,2.1-1,2.79-.63,2.56,1.51,2.67,3.18C517,292,516.87,292,514.5,292Z" transform="translate(-329.31 -201.05)"/><path class="90fe6e04-7aa0-4e03-8131-f925ae0cf982" d="M462.26,355.54c-.41-1.21.73-1.45,1.31-1.93,5.94-4.95,13-7,20.53-7.36,8.35-.43,16.43.59,23.59,5.53A29.69,29.69,0,0,1,519.54,368a7.54,7.54,0,0,1-.22,5.32c-3.5,8.62-6.9,17.28-10.31,25.94a4.28,4.28,0,0,1-1.33,2c-9.76,7.55-28.1,10.76-40.06,3.5-10-6.08-16.65-19.49-15.16-31.1a32,32,0,0,1,5-13.65c1.24-1.91,2.95-2.44,4.84-3a54,54,0,0,0,8.81-2.41c-1-.81-1.56-.33-2.18-.31C466.65,354.39,464.64,356,462.26,355.54Zm7.62,21.72-.48,1c4-.87,4,1.33,3.88,3.84-.09,1.57,0,3.16,0,4.74,0,2.11-.18,4.37,2,5.52s4.55.57,6.66-.65c4-2.29,6.93-8.94,6.21-13.64-.2-1.32-.8-1.68-2-1.41-4.19.91-8.45.57-12.69.63C472.29,377.28,471.09,377.27,469.89,377.27Zm.42-5a4.55,4.55,0,0,0-4.83-4.59,4.66,4.66,0,0,0-4.49,4.48A5,5,0,0,0,466,376.9,4.64,4.64,0,0,0,470.31,372.23Zm13.87-1.07a4.68,4.68,0,0,0,4,4.9,4.84,4.84,0,0,0,5.2-4.57,4.6,4.6,0,0,0-9.19-.33ZM497.87,358a34.74,34.74,0,0,0-12.17-3C489.66,356.39,493.61,357.83,497.87,358Z" transform="translate(-329.31 -201.05)"/><path class="6bce88a1-6db6-4885-8ecd-ce6d8567463a" d="M509.29,413.65c.39,12.23-2.58,23.89-6.14,35.44a3.58,3.58,0,0,1-2.05,2.32A35.37,35.37,0,0,1,489.75,455a80.41,80.41,0,0,1-27.21-1.81c-1.76-.41-2.26-1-1.73-2.82A193.25,193.25,0,0,0,468.27,411c.11-1.48.59-1.57,1.86-1.11,13.12,4.71,25.51,2.7,37.3-4.24,1.45-.85,1.89-.62,1.87,1C509.26,409,509.29,411.32,509.29,413.65Z" transform="translate(-329.31 -201.05)"/><path class="66e59c52-1453-4118-b29f-c384d9937c98" d="M462.26,355.54c2.37.41,4.39-1.15,6.68-1.23.61,0,1.22-.5,2.18.31a54,54,0,0,1-8.81,2.41l-.49-.88c.21-.16.75-.05.49-.6Z" transform="translate(-329.31 -201.05)"/><path class="90fe6e04-7aa0-4e03-8131-f925ae0cf982" d="M462.31,355.54c.26.55-.28.44-.49.6-.23-.17-.85.07-.7-.36S461.75,354.83,462.31,355.54Z" transform="translate(-329.31 -201.05)"/><path class="90fe6e04-7aa0-4e03-8131-f925ae0cf982" d="M409.95,362c5.3,9.72,4.78,19.64,0,29.19-7.61,15.25-22.22,19.8-38.82,15.55-1.12-.29-2.24-.63-3.33-1-6-2.08-10.77-5.39-13.55-11.52a165.09,165.09,0,0,1-8.15-20.88,10.5,10.5,0,0,1,.54-6.61c3.85-11.05,11.5-17.93,23-20.19,10.15-2,20.09-1.41,29.22,4,3.56,2.13,6.27,5.32,9.12,8.3l-.81.82c-1.27-.54-1.9-1.79-2.9-2.6-1.49-1.21-2.49-3.23-4.61-3.52,2.61,2.75,5.12,5.47,7.73,8.08.31.31.78,1.83,1.72.46Zm-32,15.57c-.56,6.31,2.24,11.23,6.52,15.47a12.42,12.42,0,0,0,6.43,3.07,3.23,3.23,0,0,0,4-1.95c2.15-4.23,2.1-8.66,1.49-13.15-.22-1.61-.2-2.77,1.93-2.82-3.92-.35-7.73-.55-11.54-.74-.57,0-1.15,0-1.73,0l-.72-.11-4-.37a4.19,4.19,0,0,1,.53-.43c2.45-1.4,3.53-3.42,2.86-5.67a4.39,4.39,0,0,0-4.39-3.34,4.17,4.17,0,0,0-4.49,3.15,4.29,4.29,0,0,0,2.49,5.53A1,1,0,0,1,378,377.59Zm19.75-4.68a4.52,4.52,0,0,0,4.13,4.71,4.7,4.7,0,0,0,5.07-4.64,4.26,4.26,0,0,0-4.31-4.47C399.66,368.43,397.79,370.12,397.75,372.91ZM370.57,359c4.07-.92,7.3-3.49,10.67-5.82C377.31,354.37,374,356.66,370.57,359Z" transform="translate(-329.31 -201.05)"/><path class="74dfceb3-022c-47fd-ac1c-7006bbac12a5" d="M356.87,403.93a39.87,39.87,0,0,0,15.93,6.8c7.72,1.45,15.39,1.68,22.81-1.47,1.55-.66,2-.25,2.12,1.35.88,13.35,3.73,26.33,7.39,39.15.53,1.87,0,2.4-1.69,2.83a78.53,78.53,0,0,1-30,1.44c-3.31-.46-6.33-2-9.29-3.52a3,3,0,0,1-1.43-1.92A107.13,107.13,0,0,1,356.87,403.93Z" transform="translate(-329.31 -201.05)"/><path class="dd4c599f-23f7-46e6-b2c0-32d4e1d6a0ea" d="M409.95,362l-.85.1-1.95-2.42.81-.82A8,8,0,0,1,409.95,362Z" transform="translate(-329.31 -201.05)"/><path class="04176bf5-70ae-45aa-a3d5-a0af78832384" d="M416.64,288.12c-1.68.44-2.15-.43-2.23-2.1-.19-4-.52-7.94-.88-11.91-.1-1.11,0-1.66,1.31-1.66,4,0,9.06,3.87,10,7.76.85,3.52-.52,6-3.93,7.2A10.85,10.85,0,0,1,416.64,288.12Z" transform="translate(-329.31 -201.05)"/><path class="04176bf5-70ae-45aa-a3d5-a0af78832384" d="M449.83,288.11c-1.63.45-2.2-.33-2.29-2q-.31-6.09-.88-12.16c-.13-1.33.35-1.51,1.49-1.47,3.68.15,8.31,3.47,9.59,7,1.37,3.75-.09,6.78-3.89,8A10.2,10.2,0,0,1,449.83,288.11Z" transform="translate(-329.31 -201.05)"/><path class="e8818739-0a8b-4e5b-9701-dd134308bea7" d="M469.89,377.27c1.2,0,2.4,0,3.6,0,4.24-.06,8.5.28,12.69-.63,1.22-.26,1.82.1,2,1.41.73,4.7-2.24,11.34-6.21,13.64-2.11,1.22-4.41,1.83-6.66.65s-2-3.41-2-5.52c0-1.58-.13-3.17,0-4.74.15-2.51.08-4.71-3.88-3.84Z" transform="translate(-329.31 -201.05)"/><path class="e8818739-0a8b-4e5b-9701-dd134308bea7" d="M470.31,372.23A4.64,4.64,0,0,1,466,376.9a5,5,0,0,1-5.06-4.79,4.66,4.66,0,0,1,4.49-4.48A4.55,4.55,0,0,1,470.31,372.23Z" transform="translate(-329.31 -201.05)"/><path class="e8818739-0a8b-4e5b-9701-dd134308bea7" d="M484.18,371.15a4.6,4.6,0,0,1,9.19.33,4.84,4.84,0,0,1-5.2,4.57A4.68,4.68,0,0,1,484.18,371.15Z" transform="translate(-329.31 -201.05)"/><path class="66e59c52-1453-4118-b29f-c384d9937c98" d="M497.87,358c-4.26-.18-8.22-1.61-12.17-3A34.74,34.74,0,0,1,497.87,358Z" transform="translate(-329.31 -201.05)"/><path class="b78da468-392e-4188-b266-7fcaec108b18" d="M380.36,377l4,.37.72.11c.58,0,1.15-.06,1.73,0,3.81.18,7.62.38,11.54.74-2.13.05-2.15,1.2-1.93,2.82.61,4.49.66,8.92-1.49,13.15a3.23,3.23,0,0,1-4,1.95,12.42,12.42,0,0,1-6.43-3.07c-4.28-4.24-7.08-9.16-6.52-15.47C378.8,377.47,379.74,377.9,380.36,377Z" transform="translate(-329.31 -201.05)"/><path class="e8818739-0a8b-4e5b-9701-dd134308bea7" d="M380.36,377c-.62.88-1.56.45-2.36.56a1,1,0,0,0-.63-1.33,4.29,4.29,0,0,1-2.49-5.53,4.17,4.17,0,0,1,4.49-3.15,4.39,4.39,0,0,1,4.39,3.34c.67,2.26-.41,4.27-2.86,5.67A4.19,4.19,0,0,0,380.36,377Z" transform="translate(-329.31 -201.05)"/><path class="e8818739-0a8b-4e5b-9701-dd134308bea7" d="M397.75,372.91c0-2.79,1.92-4.48,4.89-4.4a4.26,4.26,0,0,1,4.31,4.47,4.7,4.7,0,0,1-5.07,4.64A4.52,4.52,0,0,1,397.75,372.91Z" transform="translate(-329.31 -201.05)"/><path class="66e59c52-1453-4118-b29f-c384d9937c98" d="M407.15,359.71l1.95,2.42c-.94,1.38-1.41-.15-1.72-.46-2.62-2.61-5.13-5.33-7.73-8.08,2.11.29,3.12,2.31,4.61,3.52C405.25,357.92,405.88,359.17,407.15,359.71Z" transform="translate(-329.31 -201.05)"/><path class="66e59c52-1453-4118-b29f-c384d9937c98" d="M370.57,359c3.38-2.34,6.74-4.64,10.67-5.82C377.87,355.51,374.64,358.08,370.57,359Z" transform="translate(-329.31 -201.05)"/><path class="e8818739-0a8b-4e5b-9701-dd134308bea7" d="M385.13,377.5l-.72-.11Z" transform="translate(-329.31 -201.05)"/></svg>