<svg id="16cb84dd-78da-4de8-a761-3760bcadb87f" data-name="Capa 1" xmlns="http://www.w3.org/2000/svg" viewBox="0 0 213.74 309.77"><defs><style>.\37 0537da7-f2bf-4b56-904a-69c98fb53622{fill:#232323;}.db4bd5ed-77b7-40ad-844d-f3dfe74792da{fill:#fefefe;}.\33 d3a6a82-5d03-4334-bb04-0af1a33f430f{fill:#131411;}.fcf8b2ed-dc63-4328-96ce-02cba45bbfb7{fill:#151515;}.\34 4a722ab-6c08-41b1-956c-e863fc3a8e10{fill:#1c1c1d;}.\32 a6ed827-3fdd-47a4-9949-d612825626fd{fill:#212121;}.\35 cd49a2e-6fa1-4339-a596-436505699365{fill:#1f1f1f;}.a31470b6-6730-491f-935f-ddb0baf69e93{fill:#1b1b1b;}.\32 95933df-21de-4400-8570-f897a795bffa{fill:#eae9ea;}.\34 b2c7639-9f61-48fa-8f9c-9e8ef1d3787f{fill:#95b4c6;}.\33 90a2851-0c70-4c4e-884b-aa6fdb268b60{fill:#f7cca0;}.ebe5abf7-193b-4b4f-b666-7f8005004b6e{fill:#509541;}.\30 0cecb40-1ef6-4982-8b88-bd2d7cefea8b{fill:#f7f7f7;}.\37 e2f6df9-bc00-41a8-9bf5-a3307137bec8{fill:#19130c;}.a9bcbfa4-7824-437a-88d0-e7807484a637{fill:#46382c;}</style></defs><title>card-22</title><path class="70537da7-f2bf-4b56-904a-69c98fb53622" d="M329.36,355.19q0-71.48,0-143a27.27,27.27,0,0,1,.25-4.23,8.32,8.32,0,0,1,7.61-7.39,38.31,38.31,0,0,1,5-.31q94.1,0,188.21,0h.75c9,.1,11.92,3,11.92,12.07q0,142.84,0,285.69c0,.5,0,1,0,1.5C543,506.72,539.6,510,532.42,510h-192c-7.72,0-11.08-3.34-11.09-11.13q0-34.12,0-68.24Q329.36,392.93,329.36,355.19Zm209.41,0q0-71.5,0-143c0-.92,0-1.84-.06-2.75a4.83,4.83,0,0,0-4.82-4.77c-1.24-.11-2.5-.09-3.75-.09H342.4c-7.94,0-8.77.83-8.77,8.65q0,142.75,0,285.49c0,5.34,1.65,7,7,7H531.86c.67,0,1.34,0,2,0a4.74,4.74,0,0,0,4.74-4.27,23.28,23.28,0,0,0,.16-3.49Q538.78,426.58,538.77,355.21Z" transform="translate(-329.36 -200.27)"/><path class="db4bd5ed-77b7-40ad-844d-f3dfe74792da" d="M538.77,355.21q0,71.37,0,142.75a23.28,23.28,0,0,1-.16,3.49,4.74,4.74,0,0,1-4.74,4.27c-.66,0-1.33,0-2,0H340.61c-5.33,0-7-1.65-7-7q0-142.75,0-285.49c0-7.82.84-8.65,8.77-8.65H530.15c1.25,0,2.5,0,3.75.09a4.83,4.83,0,0,1,4.82,4.77c.09.91.06,1.83.06,2.75Q538.77,283.71,538.77,355.21Zm-127.2,91c2.19.46,2.9-.55,3.16-2.65a108.23,108.23,0,0,0-.26-27.64c-.3-2.22.45-2.82,2.16-3.54C431.53,406.1,442,387.46,436,368c-3.48-11.23-11.83-18.55-23.12-22-10.13-3.08-20.54-3.28-30.39.64-19.08,7.59-26.6,27.23-18,45.86a7,7,0,0,1,.42,5.4c-4.72,15.79-7.86,31.78-6.26,48.42.32,3.38.86,6.25,4.48,7.44,1.55.51,1.57,1.56,1.34,3a181,181,0,0,1-7.71,30.65c-.45,1.28-1,2.72.8,3.35s2.46-.71,2.94-2.16c1.78-5.36,3.42-10.76,4.75-16.26,1.29-5.28,2.28-10.62,3.22-16a31.5,31.5,0,0,0,3.58.85,87.26,87.26,0,0,0,27.57-.85c1.18-.24,1.6,0,1.69,1.28.4,5.48,1,10.94,1.35,16.42.32,4.73.45,9.48.66,14.22.06,1.25.6,2.13,1.94,2.1a1.83,1.83,0,0,0,1.92-2.12c0-.5,0-1,0-1.5q-.47-14.73-2-29.39c-.17-1.63.19-2.44,1.91-2.68,1.29-.18,2.66-.5,3.26-2a.91.91,0,0,0,.05-1.48l-.13-5Zm55.1-8.44.06.94c-.26,3.82-.45,7.65-.79,11.46-.31,3.45-.36,3.63,3,4.45,1.58.39,1.91,1,1.75,2.56-.51,4.8-1,9.61-1.26,14.43-.35,5.4-.52,10.81-.78,16.21-.06,1.31.27,2.43,1.77,2.5s2.14-1,2.15-2.44c0-.5,0-1,0-1.5.15-9.42.88-18.79,1.87-28.15.17-1.64.44-2.13,2.35-1.78a76,76,0,0,0,29.51,0c1.15-.24,1.17.13,1.32,1,.62,3.69,1.24,7.38,2,11a179.48,179.48,0,0,0,5.91,20.59c.5,1.44,1.37,2.16,2.8,1.61s1.43-1.67.85-2.9a7.11,7.11,0,0,1-.22-.72,183.45,183.45,0,0,1-7.58-30.19c-.29-1.78.1-2.65,1.68-3.19,3.27-1.12,4.48-3.53,4.64-6.85.13-2.65.64-5.29,1-8.2,1.19,2.2.81,4.31,1,6.33.12,1.46.44,2.8,2.23,2.63,1.62-.15,1.78-1.46,1.69-2.81-.35-5.07-.56-10.15-1-15.2-1-11.36-2.31-22.69-6.25-33.51a2.59,2.59,0,0,1,.4-2.75,36.14,36.14,0,0,0,4.23-7.61c9.33-22-4-41.76-23.16-46.32a53.58,53.58,0,0,0-18.61-.79c-17.79,2-29.85,16-31.43,28.37-1.9,14.88,2.72,27,14.57,36.29a4.23,4.23,0,0,1,1.89,3.88,277,277,0,0,1-2.85,36.07c-.22,1.47-.28,2.82,1.53,3s2-1.14,2.34-2.55C465.83,441.75,465,439.44,466.67,437.75ZM359.79,247.94c-1.67-3.28-3.16-6.14-4.59-9-.42-.85-.78-1.34-1.85-.77s-1.25,1.17-.51,2.1c1.92,2.41,1.57,4.83-.09,7.41-1.33-2.85-2.64-5.59-3.88-8.36-.42-.94-.81-1.31-1.83-.68-.86.53-1.13.91-.6,1.94a62.25,62.25,0,0,1,4.32,10.31c.25.78.5,1.48,1.66,1.45a1.86,1.86,0,0,0,2-1.42c.44-1.2,1.09-2.32,1.84-3.89.75,1.85,1.37,3.19,1.82,4.58.3.92.88,1,1.7,1.07a1.47,1.47,0,0,0,1.67-1.1,81.23,81.23,0,0,0,3.39-11.44c.27-1.3-.26-1.54-1.29-1.78-1.3-.3-1.27.51-1.45,1.38A49.69,49.69,0,0,1,359.79,247.94Zm121.56,20.44c.73,1.88,1.37,3.47,2,5.07a2.24,2.24,0,0,0,2.15,1.74c1.18,0,1.14-1,1.56-1.67.68-1,.56-2.54,1.84-3.46.8,2,1.58,3.82,2.26,5.68.38,1,.92,1.17,1.89.76s1.1-.92.66-1.88a48.13,48.13,0,0,1-3.55-11.39,1.46,1.46,0,0,0-1.65-1.43c-1.11,0-1.35.52-1.52,1.49a29.8,29.8,0,0,1-1.88,7.32c-.74-2.37-1.38-4.15-1.82-6-.24-1-.49-1.62-1.68-1.72s-1.59.54-1.93,1.48a50.47,50.47,0,0,0-2.64,10.1c-.11.77-.6,1.68.84,1.79,1.08.09,1.68-.08,1.83-1.35A22.39,22.39,0,0,1,481.34,268.38ZM433.58,247.9c-.74-2.41-1.39-4.24-1.84-6.12-.25-1.05-.64-1.56-1.78-1.62s-1.44.51-1.75,1.35a53.42,53.42,0,0,0-2.74,10.32c-.12.83-.49,1.67.87,1.81,1.07.11,1.66-.08,1.82-1.35a21.15,21.15,0,0,1,1.68-6.64c.68,1.78,1.33,3.38,1.91,5a2.44,2.44,0,0,0,2.09,1.84c1.39.18,1.33-1.06,1.68-1.77.6-1.2,1-2.49,1.6-4.09.94,2.4,1.72,4.38,2.48,6.37.34.87.66,1.41,1.8.83.91-.47,1.26-.77.79-1.82a47.6,47.6,0,0,1-3.59-11.61c-.18-1.08-.78-1.25-1.74-1.27s-1.21.37-1.37,1.27A30.68,30.68,0,0,1,433.58,247.9Zm38.13.07c.77-.51,1.16-.79,1.57-1,1.91-1.17,3.23-2.72,2.73-5.1s-2.41-3.39-4.72-3.74a27.87,27.87,0,0,0-6-.1c-1,.06-1.52.21-1.39,1.41.42,4,.74,7.94,1.09,11.91.06.68.05,1.4,1.06,1.28.81-.1,1.73,0,1.6-1.34,0-.43-.25-1,.38-1.35l3.33.84c1.2.31,2.41.62,3.6,1,.84.24,1.48.19,1.63-.86.11-.82.4-1.61-.94-1.79A32,32,0,0,1,471.71,248Zm44.85,5.86a22.46,22.46,0,0,0,4.68-.63c2-.36,2.84-1.29,2.47-3.39a3.22,3.22,0,0,1,.69-3.14c.53-.57.45-2.4-1.54-2.09-2.3.35-4.61.64-6.93.91-.85.1-1.39.29-1.27,1.35s.52,1.5,1.59,1.33,2.14-.3,3.21-.44c.58-.08,1.26-.19,1.29.67,0,.7.51,1.48-.21,2.1-1.83,1.59-7.07.64-8.33-1.51-2.11-3.6,0-7.25,4.23-7.08,1.65.07,1.91-.93,2.05-1.86.21-1.41-1.1-.88-1.76-.91-4.57-.24-8,2.77-8,6.92A7.41,7.41,0,0,0,516.55,253.82ZM355.13,294.54c.57-.39,1-.67,1.38-.93,2-1.21,3.41-2.72,2.88-5.26-.47-2.23-2.3-3.56-5.26-3.73-1.82-.1-3.66,0-5.49,0-.63,0-1.43-.16-1.33.94.4,4.22.81,8.45,1.19,12.67.07.76.45,1,1.15.91s1.41.09,1.5-.89c.05-.56-.23-1.16.24-1.8,2.2.57,4.45,1.13,6.68,1.76,1,.28,1.72.4,2-.9s-.36-1.55-1.4-1.76S356.47,294.93,355.13,294.54ZM367.7,260.6A8.49,8.49,0,0,0,359,269c0,4.33,2.71,7.25,6.79,7.28a8.7,8.7,0,0,0,9-8.67A6.75,6.75,0,0,0,367.7,260.6Zm79.14,23.93a8.44,8.44,0,0,0-8.73,8.34c0,4.28,2.76,7.3,6.76,7.33,5,0,9.17-4,9.12-8.65A6.94,6.94,0,0,0,446.84,284.53Zm52.32-41.15c2.1,3,3.94,5.55,5.69,8.16a1.55,1.55,0,0,0,2,.75c1.07-.29,1.27-.88,1.22-1.81-.21-3.32-.35-6.64-.63-10-.08-.93.13-2.26-1.72-2s-1.07,1.41-1,2.25a22.83,22.83,0,0,1,.25,6,38.9,38.9,0,0,1-5-7.39,2.45,2.45,0,0,0-3-1.45c-1.42.26-.75,1.48-.77,2.25a53.11,53.11,0,0,0,.92,10.42c.18,1.07.57,1.4,1.65,1.15s1.32-.54,1-1.69A18.68,18.68,0,0,1,499.15,243.38ZM463.6,292a20.35,20.35,0,0,1-5-6.56c-.67-1.35-1.82-1-2.82-.89-1.19.1-.68,1.15-.7,1.79A47.78,47.78,0,0,0,456,297c.17.89.24,1.54,1.53,1.28s1.36-.87,1.12-1.91a21.37,21.37,0,0,1-.66-6.49c2.16,3.07,4,5.6,5.72,8.17a1.74,1.74,0,0,0,3.23-1c-.25-3.57-.53-7.14-.71-10.71-.06-1.18-.62-1.29-1.61-1.24-1.14.05-1.07.71-1.06,1.51C463.63,288.42,463.6,290.23,463.6,292Zm-53.79-17.2c-.64-4-2.19-7.49-3.19-11.17-.55-2-1.44-2.38-3.49-2.06-2.71.42-4,1.46-4.2,4.31a76.91,76.91,0,0,1-1.4,8.35c-.14.8-.61,1.64.79,1.83,1.24.17,1.83-.16,1.93-1.51.09-1.16.11-2.34,1.88-2.66,3.77-.67,3.75-.8,5,2.87.05.16,0,.34.08.49.33,1,1.09.4,1.68.42S410,275.45,409.82,274.83Zm-25.07,23.53a88.5,88.5,0,0,0-3.85-12.56c-.26-.74-.85-.62-1.45-.48a16.68,16.68,0,0,1-2.91.6c-1.54.08-2.12.88-2.34,2.3-.48,3.11-1.1,6.2-1.57,9.31-.13.86-1.13,2.09.83,2.43,1.76.31,1.6-.8,1.79-1.87.12-.69,0-1.71.81-1.94a12.17,12.17,0,0,1,4.61-.78c1.3.16.75,2,1.3,3a1.13,1.13,0,0,1,.1.48c.06,1.22.94.86,1.64.86C384.61,299.66,384.88,299.18,384.74,298.36Zm-5.41-47.07c-.34,1.44-.18,1.93.9,2s1.51-.09,1.78-1.13-.27-2.41,1.15-2.77a10.36,10.36,0,0,1,4.39-.56c1.13.23,1,1.92,1.17,3s.83,1.44,1.94,1.23c1.33-.26.95-1.08.78-1.89a75.05,75.05,0,0,0-2.72-9.06c-1.28-3.69-1.26-3.75-5.06-2.87-.93.22-2.25,0-2.5,1.54C380.56,244.51,379.88,248.18,379.33,251.3ZM366,241.75c.23,2.81.45,5.46.68,8.11.09,1.07,0,2.19,1.76,2s1.06-1.42.9-2.19c-.36-1.72.17-2.36,2-2.51,3.36-.28,3.35-.38,3.75,3a4.54,4.54,0,0,1,.05.75c0,.95.5,1.09,1.28,1s1.45-.08,1.35-1.23q-.54-6-.93-11.95c-.07-1.07-.61-1.15-1.47-1.15s-1.34.36-1.23,1.33,0,2.18.23,3.23c.31,1.49-.06,2-1.66,2.19-3.84.4-3.83.5-4-3.39,0-.42-.05-.83,0-1.25,0-1-.41-1.29-1.38-1.18C364.42,238.79,366.72,240.85,366,241.75Zm79.7,18.85a12.22,12.22,0,0,0-7,2c-1.7,1-3.27,2.26-2.67,4.55s2.56,2.36,4.39,2.52c1.49.13,3,.08,4.48.17.45,0,1.06.07,1.21.65s-.38.9-.75,1.18a8.67,8.67,0,0,1-3.91,1.5c-1,.16-1.42.6-1.22,1.67s.62,1.33,1.71,1.08a14.07,14.07,0,0,0,5-2.08c1.45-1,2.6-2.3,2.08-4.16s-2.21-2.37-3.93-2.51c-1.49-.12-3,0-4.49-.1-.63,0-1.46,0-1.61-.82s.56-1.15,1.12-1.49a11.37,11.37,0,0,1,6-1.52c.7,0,1.44.21,1.74-.88C448.62,259.73,446.59,260.88,445.73,260.61Zm-52.91,0a12.31,12.31,0,0,0-7,2c-1.71,1-3.26,2.27-2.68,4.55s2.55,2.37,4.38,2.53c1.57.14,3.16.06,4.73.23,1.23.13,1.35.79.42,1.6a7.57,7.57,0,0,1-3.86,1.62c-1.26.21-1.72.64-1.41,2,.37,1.56,1.31.8,2.12.68a10.88,10.88,0,0,0,4.54-1.92c1.46-1,2.57-2.29,2.07-4.17s-2.21-2.36-3.92-2.51c-1.49-.13-3,0-4.49-.11-.63,0-1.46,0-1.61-.82s.57-1.15,1.12-1.49a10.5,10.5,0,0,1,5.46-1.49c1.21,0,2.43.13,2.37-1.64C395,259.58,393.37,261.12,392.82,260.61Zm-26.39,23.58v.08c-1.16.09-2.32.24-3.48.25-1,0-1.31.29-1.23,1.29.3,3.89.55,7.79.79,11.69,0,.76.19,1.23,1.12,1.22a27.19,27.19,0,0,0,6.68-.57c1.25-.31.93-1.12.87-1.93-.09-1.16-.77-1-1.58-.82a23.14,23.14,0,0,1-2.7.44c-.91.1-1.81.31-1.92-1.16s.59-1.49,1.62-1.49,1.82-.14,2.74-.18,1.44-.45,1.33-1.55-.76-1.31-1.7-1.19c-.74.1-1.49.12-2.23.23-1.23.19-2,.08-2.09-1.53s.48-2,1.9-1.92c.91,0,1.82-.19,2.73-.18s1.15-.42,1.08-1.23,0-1.54-1.16-1.45C368.26,284.24,367.34,284.18,366.43,284.18Zm107.84,0a28.16,28.16,0,0,1-3.69.26c-1.86-.15-2.14.7-2,2.34.32,3.39.42,6.8.62,10.21,0,.8-.13,1.72,1.19,1.72a25.87,25.87,0,0,0,6.68-.57c1.18-.31,1.09-1,.89-1.89s-.7-1.11-1.62-.86a20.89,20.89,0,0,1-3.19.49c-.86.1-1.39-.16-1.45-1.2s.33-1.49,1.39-1.49,2.16-.14,3.23-.22,1.25-.5,1-1.49-.35-1.42-1.39-1.25c-.82.13-1.67.09-2.48.27-1.58.36-1.89-.36-2.09-1.8-.26-1.79.79-1.59,1.85-1.65s1.82-.2,2.73-.19,1.2-.51,1.17-1.41-.44-1.33-1.37-1.27C475.06,284.22,474.31,284.18,474.27,284.18Zm-45.38,34.53c-.12-1.23-.23-3.32-.57-5.36-.2-1.17.23-3.31-1.69-3-2.08.34-.9,2.3-.74,3.52,1.13,8.77.11,16.93-6.37,23.63-.64.66-1.43,1.4-.44,2.31s1.65.06,2.31-.59C426.83,333.79,428.92,327.07,428.89,318.71Zm-18-58.91c-.84.21-1.1.89-1.44,1.42-.59.92.34,1.22.83,1.44,4.24,1.91,5.55,5.25,4.93,9.64a15.89,15.89,0,0,0,.06,2c0,1.29.77,1.39,1.81,1.39s1.1-.7,1-1.48,0-1.34-.13-2c-.68-3.87-.52-7.41,3.43-9.64.86-.48.78-1.07.13-1.78s-1.24-1.06-2-.19a10.89,10.89,0,0,0-.9.86c-1.55,2.23-3.15,2.11-5,.32A21,21,0,0,0,410.85,259.8Zm74.44-11.68c-.19-4.7-.19-4.7,3-7.85.67-.66,1.6-1.11.42-2.32s-1.51-.33-2.18.24c-3.09,2.64-3.1,2.63-6.36.34a8.9,8.9,0,0,1-.82-.57c-.83-.73-1.47-1.15-2.38.08s0,1.73.73,2.06c4.14,1.8,5.2,5.12,4.81,9.25-.07.74.08,1.5,0,2.24-.05,1.14.55,1.37,1.55,1.38,1.27,0,1.25-.66,1.17-1.61S485.29,249.19,485.29,248.11Zm-72.12,51.42c1.87.21,1.43-1.15,1.34-2.15-.38-4.19-1.22-8.49,3.51-11.09,1-.57.24-1.21-.22-1.79-.61-.76-1.07-.62-1.8,0-3.51,2.81-3.54,2.78-7.14.27a6.62,6.62,0,0,1-.62-.42c-.74-.65-1.3-.78-2,.18s-.49,1.66.52,2.11c4.29,1.89,5.51,5.29,4.9,9.66a12.48,12.48,0,0,0,.06,2C411.74,299.2,412.2,299.63,413.17,299.53Zm76.76-15.81c-.88,0-1,.79-1.42,1.28-.69.88.16,1.29.66,1.5,4.62,1.92,5.53,5.63,5,10.09a11.58,11.58,0,0,0,.07,1.74c.05,1.17.83,1.23,1.74,1.22,1.11,0,1.15-.69,1.08-1.51-.05-.58,0-1.17-.1-1.74-.62-3.92-.63-7.6,3.45-9.88.92-.52.66-1.17,0-1.79s-1-1.15-1.79-.28c-.44.49-1,.86-1.44,1.38-1.28,1.64-2.53,1.81-4.1.29A25.26,25.26,0,0,0,489.93,283.73Zm-86.75-44.38c.32-1.27-.59-1.3-1.62-1.17l-7.4.93c-.92.12-2.09-.22-1.88,1.49s1.2,1.31,2.16,1.12c1.37-.27,1.93.17,1.95,1.62a61.85,61.85,0,0,0,.4,6.7c.12,1-.61,2.75,1.63,2.57,2.06-.17,1.15-1.67,1.15-2.61a44.75,44.75,0,0,0-.4-6c-.29-2.09.23-3.27,2.57-3.2C402.5,240.86,403.55,240.91,403.18,239.34ZM458,250.82c-.11-2.09-.07-4.52-.4-6.9-.28-2.05.12-3.15,2.42-3.07.83,0,1.84.08,1.7-1.43s-1.19-1.31-2.13-1.21c-2.4.26-4.79.61-7.18.9-.88.11-1.84-.11-1.74,1.4s1.08,1.41,2.07,1.21c1.47-.3,2,.09,2,1.73,0,2.57.3,5.15.43,7.72.05,1,.32,1.55,1.48,1.43C457.64,252.51,458.33,252.33,458,250.82ZM355.57,260.9c-2.21.25-4.85.57-7.49.84-1.13.11-1.84.31-1.62,1.79s1.17,1.15,2,.91c1.63-.49,2,.23,2.08,1.7.1,2.57.36,5.13.48,7.7,0,1,.31,1.47,1.45,1.42s1.35-.6,1.27-1.57c-.17-2-.26-4-.42-6-.18-2.22-.84-4.69,2.92-4.2.9.12,1.29-.46,1.09-1.45C357.14,261.29,357.09,260.56,355.57,260.9Zm127.32,38.8a14.26,14.26,0,0,0,5.49-.86c.84-.27,1.64-.37,1.23-1.61-.35-1.05-.84-1.49-2-1.05a26.75,26.75,0,0,1-3.12.83c-1.29.32-2,0-2-1.53,0-2.65-.31-5.3-.38-8,0-1.18-.42-1.6-1.63-1.54s-1.32.6-1.25,1.59c.22,3.15.47,6.3.52,9.45C479.81,299.35,480.61,300.41,482.89,299.69Zm-82.65,0a16,16,0,0,0,5.75-.9c1-.3,1.44-.64,1-1.72s-.8-1.33-1.85-.93a30.93,30.93,0,0,1-3.11.84c-1.45.38-2.11,0-2.11-1.67,0-2.57-.27-5.13-.36-7.7,0-1.08-.24-1.69-1.54-1.65s-1.4.72-1.33,1.76c.21,3.06.44,6.13.5,9.19C397.27,299.12,397.8,300.51,400.24,299.7Zm-14.16-10c.13,1.77,0,3,.36,4.07.73,2-1.43,5,1.57,5.91,2.23.65,4.79.06,7.08-.84l.24-.08c.77-.18,1.43-.28,1-1.45s-.7-1.6-1.91-1.13a28,28,0,0,1-2.88.79c-1.61.43-2.43.12-2.39-1.85.05-2.65-.28-5.31-.38-8,0-1.06-.57-1.17-1.46-1.14s-1.36.26-1.25,1.3A18.24,18.24,0,0,1,386.08,289.68Zm44.76,10.06a15.49,15.49,0,0,0,5.72-.89c.82-.29,1.84-.22,1.25-1.72-.47-1.2-1-1.24-2.05-.91s-2.08.55-3.12.81c-1.4.35-1.92-.18-1.95-1.64,0-2.57-.3-5.14-.43-7.71,0-.94.07-1.79-1.4-1.71s-1.35.84-1.28,1.81c.2,3.15.56,6.31.48,9.45C428,299.56,428.87,300.18,430.84,299.74Zm-14.63-50.16c-.24-3.53-.47-6.68-.64-9.83-.06-1.11-.62-1.37-1.61-1.36s-1.35.3-1.26,1.31q.53,6.08,1,12.17c.08,1.15.78,1,1.58.95s1.33-.14,1.18-1.13C416.28,250.85,416.25,250,416.21,249.58ZM431,264.41c.31,3.49.61,6.72.88,9.95.07.86.31,1.37,1.36,1.26s1.48-.43,1.38-1.54c-.35-4-.68-7.95-.93-11.93-.07-1.17-.77-1-1.51-1.05-1-.07-1.32.35-1.2,1.32A14.52,14.52,0,0,1,431,264.41Zm63.11-14c-.3-3.71-.62-7.28-.85-10.85-.07-1.06-.63-1.16-1.47-1.17s-1.31.38-1.23,1.35c.33,4,.65,8,.91,11.94.08,1.25.76,1.24,1.68,1.11C495.1,252.52,493.72,251.06,494.14,250.4ZM467.63,272c-.21-2.95-.48-6.26-.67-9.57-.08-1.31-.84-1.34-1.84-1.34-1.27,0-1,.87-.94,1.55.29,4,.64,7.94.93,11.91.06.86.42,1.16,1.27,1s1.53-.13,1.39-1.25C467.67,273.7,467.68,273,467.63,272Zm5.75-8.13c-.07-.84-.18-2-.24-3.13,0-.85-.23-1.42-1.3-1.26-.86.13-1.64.13-1.44,1.39s.23,2.45.32,3.68c.07,1,.65,1.21,1.53,1S473.79,265.28,473.38,263.88ZM453.79,274.1c1-2.14-.38-2.44-1-2.2-2.18.81-1.31,3.09-1.87,4.7-.49,1.41.93,1.31,1.49,1.21C455.05,277.32,453.12,274.75,453.79,274.1Zm-34.72-35.52c.07,1,.08,1.84.19,2.66s0,1.8,1.55,1.6c1.35-.18,1.41-.79,1.23-1.82-.14-.82-.19-1.66-.33-2.48s.32-2-1.28-1.83C419,236.83,418.79,237.58,419.07,238.58Zm87.74,59.36c.07-1.05-.34-1.58-1.57-1.54-1,0-1.19.46-1.16,1.37s.39,1.49,1.47,1.42C506.38,299.15,507.1,299.15,506.81,297.95Z" transform="translate(-329.36 -200.27)"/><path class="3d3a6a82-5d03-4334-bb04-0af1a33f430f" d="M466.67,437.75c-1.7,1.69-.84,4-1.37,6-.38,1.41-.58,2.76-2.34,2.55s-1.75-1.56-1.53-3a277,277,0,0,0,2.85-36.07,4.23,4.23,0,0,0-1.89-3.88C450.53,394,445.91,381.88,447.81,367c1.57-12.33,13.64-26.36,31.43-28.37a53.58,53.58,0,0,1,18.61.79C517,344,530.34,363.71,521,385.74a36.14,36.14,0,0,1-4.23,7.61,2.59,2.59,0,0,0-.4,2.75c3.94,10.82,5.2,22.15,6.25,33.51.47,5.06.68,10.13,1,15.2.09,1.36-.07,2.66-1.69,2.81-1.79.17-2.11-1.17-2.23-2.63-.16-2,.22-4.13-1-6.33-.38,2.91-.89,5.54-1,8.2-.16,3.32-1.37,5.73-4.64,6.85-1.58.54-2,1.41-1.68,3.19A183.45,183.45,0,0,0,519,487.08a7.11,7.11,0,0,0,.22.72c.58,1.23.54,2.37-.85,2.9s-2.3-.17-2.8-1.61a179.48,179.48,0,0,1-5.91-20.59c-.79-3.65-1.4-7.35-2-11-.15-.87-.17-1.24-1.32-1a76,76,0,0,1-29.51,0c-1.92-.35-2.18.14-2.35,1.78-1,9.36-1.72,18.74-1.87,28.15,0,.5,0,1,0,1.5,0,1.44-.56,2.51-2.15,2.44s-1.83-1.18-1.77-2.5c.26-5.4.43-10.81.78-16.21.31-4.82.75-9.63,1.26-14.43.16-1.53-.17-2.17-1.75-2.56-3.38-.82-3.32-1-3-4.45.34-3.81.54-7.64.79-11.46.68-2.57.38-5.18.21-7.78C467.09,433.2,465.26,435.4,466.67,437.75Zm19.06-96.1A39.07,39.07,0,0,0,471,344.25c-25.88,10.83-25.28,40.22-8.34,54.86,7.3,6.32,16.16,7.86,25.53,6.53,12.55-1.78,22.69-7.18,28.52-19.11,6.88-14.09,4.16-28.46-7.22-37.62C502.78,343.47,494.9,341.71,485.73,341.65Zm29,86.42c.32-7.85-1.63-16.54-3.3-25.28-.45-2.38-1-2.14-2.71-1-11.2,7.32-23.31,9.82-36.4,6.39-2.46-.64-1.53,1-1.43,1.84,1.43,12.81.65,25.58-.53,38.35-.15,1.65.14,2.38,1.81,2.77a85.82,85.82,0,0,0,29.7,1.86,28.16,28.16,0,0,0,9.42-3,3.38,3.38,0,0,0,2-2.84A122.42,122.42,0,0,0,514.68,428.07Z" transform="translate(-329.36 -200.27)"/><path class="fcf8b2ed-dc63-4328-96ce-02cba45bbfb7" d="M410.3,452.66c-.6,1.46-2,1.78-3.26,2-1.72.24-2.08,1-1.91,2.68q1.54,14.66,2,29.39c0,.5,0,1,0,1.5a1.83,1.83,0,0,1-1.92,2.12c-1.35,0-1.89-.85-1.94-2.1-.22-4.74-.34-9.48-.66-14.22-.37-5.48-.94-10.94-1.35-16.42-.09-1.25-.51-1.52-1.69-1.28a87.26,87.26,0,0,1-27.57.85,31.5,31.5,0,0,1-3.58-.85c-.94,5.39-1.93,10.73-3.22,16-1.34,5.5-3,10.89-4.75,16.26-.48,1.45-1.09,2.81-2.94,2.16s-1.25-2.07-.8-3.35a181,181,0,0,0,7.71-30.65c.23-1.39.21-2.45-1.34-3-3.63-1.19-4.16-4.06-4.48-7.44-1.6-16.64,1.54-32.63,6.26-48.42a7,7,0,0,0-.42-5.4c-8.59-18.63-1.07-38.28,18-45.86,9.86-3.92,20.26-3.72,30.39-.64,11.29,3.43,19.64,10.76,23.12,22,6,19.47-4.44,38.12-19.34,44.39-1.71.72-2.46,1.32-2.16,3.54a108.23,108.23,0,0,1,.26,27.64c-.26,2.1-1,3.11-3.16,2.65a3.12,3.12,0,0,1-.77-2.74,94.46,94.46,0,0,0,.76-17.91,6.31,6.31,0,0,0-.8-3.61,160.2,160.2,0,0,0-.55,24.25l.13,5Zm-8.39-40.9a26,26,0,0,0,7.23-.63,44.21,44.21,0,0,0,5.47-1.7c14.13-5.89,22.35-22.28,18.72-38-2.37-10.23-9.12-17.31-18.64-21-11.32-4.4-23-4.62-34.15,1-8.65,4.36-14.32,11.46-15.74,21.2-1.33,9.14,1.27,17.52,6.64,25C378.92,408,389.84,411.16,401.91,411.76Zm-33.37-11.38c-.7,2.62-1.36,5.26-2.09,7.87a105,105,0,0,0-3.39,39c.08.81.05,1.58,1,2.11,2.75,1.6,5.56,3.17,8.72,3.56a88.63,88.63,0,0,0,30.49-1.64c2.61-.58,3-1.67,2.81-4A155.78,155.78,0,0,1,407,418c.25-2.08.1-2.92-2.36-2.79a44.83,44.83,0,0,1-30-8.8c-.09-.07-.31,0-.5,0a3.89,3.89,0,0,0-.09.71,226.22,226.22,0,0,1-.93,34.9q-.28,3-.64,6c-.16,1.34-.91,2.23-2.3,2.09s-1.69-1.17-1.57-2.4c.08-.83.09-1.66.18-2.49A218.52,218.52,0,0,0,370,408C369.9,405.5,369.9,402.91,368.53,400.39Z" transform="translate(-329.36 -200.27)"/><path class="44a722ab-6c08-41b1-956c-e863fc3a8e10" d="M359.79,247.94a49.69,49.69,0,0,0,2.28-8.22c.18-.87.15-1.67,1.45-1.38,1,.24,1.56.48,1.29,1.78a81.23,81.23,0,0,1-3.39,11.44,1.47,1.47,0,0,1-1.67,1.1c-.82,0-1.4-.15-1.7-1.07-.45-1.39-1.07-2.73-1.82-4.58-.75,1.56-1.4,2.69-1.84,3.89a1.86,1.86,0,0,1-2,1.42c-1.15,0-1.41-.67-1.66-1.45a62.25,62.25,0,0,0-4.32-10.31c-.54-1-.26-1.41.6-1.94,1-.63,1.41-.26,1.83.68,1.24,2.77,2.55,5.51,3.88,8.36,1.67-2.59,2-5,.09-7.41-.74-.93-.57-1.52.51-2.1s1.43-.09,1.85.77C356.63,241.8,358.11,244.66,359.79,247.94Z" transform="translate(-329.36 -200.27)"/><path class="44a722ab-6c08-41b1-956c-e863fc3a8e10" d="M481.34,268.38a22.39,22.39,0,0,0-1.67,6.55c-.15,1.27-.75,1.44-1.83,1.35-1.44-.12-.95-1-.84-1.79a50.47,50.47,0,0,1,2.64-10.1c.33-.93.71-1.58,1.93-1.48s1.44.72,1.68,1.72c.44,1.83,1.08,3.61,1.82,6A29.8,29.8,0,0,0,487,263.3c.17-1,.41-1.49,1.52-1.49a1.46,1.46,0,0,1,1.65,1.43,48.13,48.13,0,0,0,3.55,11.39c.43,1,.34,1.45-.66,1.88s-1.51.29-1.89-.76c-.68-1.86-1.46-3.68-2.26-5.68-1.29.92-1.17,2.41-1.84,3.46-.42.65-.38,1.7-1.56,1.67a2.24,2.24,0,0,1-2.15-1.74C482.71,271.85,482.07,270.26,481.34,268.38Z" transform="translate(-329.36 -200.27)"/><path class="44a722ab-6c08-41b1-956c-e863fc3a8e10" d="M433.58,247.9a30.68,30.68,0,0,0,1.92-7.49c.16-.89.39-1.29,1.37-1.27s1.56.19,1.74,1.27A47.6,47.6,0,0,0,442.2,252c.47,1,.13,1.35-.79,1.82-1.14.58-1.46,0-1.8-.83-.76-2-1.54-4-2.48-6.37-.61,1.6-1,2.9-1.6,4.09-.35.71-.3,1.95-1.68,1.77a2.44,2.44,0,0,1-2.09-1.84c-.58-1.62-1.22-3.22-1.91-5a21.15,21.15,0,0,0-1.68,6.64c-.17,1.27-.75,1.46-1.82,1.35-1.36-.13-1-1-.87-1.81a53.42,53.42,0,0,1,2.74-10.32c.3-.84.65-1.41,1.75-1.35s1.53.57,1.78,1.62C432.19,243.66,432.84,245.49,433.58,247.9Z" transform="translate(-329.36 -200.27)"/><path class="2a6ed827-3fdd-47a4-9949-d612825626fd" d="M471.71,248a32,32,0,0,0,4,1.09c1.34.18,1,1,.94,1.79-.14,1.05-.79,1.1-1.63.86-1.19-.34-2.4-.65-3.6-1l-3.33-.84c-.63.37-.42.92-.38,1.35.13,1.29-.79,1.24-1.6,1.34-1,.12-1-.61-1.06-1.28-.35-4-.67-7.94-1.09-11.91-.13-1.2.39-1.35,1.39-1.41a27.87,27.87,0,0,1,6,.1c2.3.35,4.2,1.26,4.72,3.74s-.83,3.93-2.73,5.1C472.87,247.17,472.48,247.45,471.71,248Zm-2.62-7.41c-.64.46-2.15-.75-2.22.84s-.15,3.73.76,4.65,2.61-.71,3.94-1.28a1.93,1.93,0,0,0,.44-.23c.7-.55,1.63-1,1.37-2.12a2.41,2.41,0,0,0-2.21-1.71C470.52,240.6,469.85,240.61,469.08,240.56Z" transform="translate(-329.36 -200.27)"/><path class="5cd49a2e-6fa1-4339-a596-436505699365" d="M516.55,253.83a7.41,7.41,0,0,1-7.86-7.76c0-4.15,3.48-7.16,8-6.92.66,0,2-.5,1.76.91-.14.93-.4,1.93-2.05,1.86-4.26-.17-6.35,3.48-4.23,7.08,1.26,2.14,6.5,3.1,8.33,1.51.71-.62.23-1.4.21-2.1,0-.86-.7-.75-1.29-.67-1.07.14-2.15.27-3.21.44s-1.47-.28-1.59-1.33.42-1.25,1.27-1.35c2.31-.27,4.63-.56,6.93-.91,2-.31,2.08,1.52,1.54,2.09a3.22,3.22,0,0,0-.69,3.14c.36,2.09-.48,3-2.47,3.39A22.68,22.68,0,0,1,516.55,253.83Z" transform="translate(-329.36 -200.27)"/><path class="44a722ab-6c08-41b1-956c-e863fc3a8e10" d="M355.13,294.54c1.34.39,2.43.79,3.56,1s1.71.45,1.4,1.76-1,1.18-2,.9c-2.23-.63-4.48-1.18-6.68-1.76-.47.64-.19,1.23-.24,1.8-.09,1-.88.8-1.5.89s-1.08-.15-1.15-.91c-.38-4.23-.79-8.45-1.19-12.67-.11-1.1.7-.93,1.33-.94,1.83,0,3.67-.1,5.49,0,3,.17,4.8,1.5,5.26,3.73.53,2.54-.91,4.06-2.88,5.26C356.1,293.86,355.71,294.15,355.13,294.54Zm-4.38-1.5a14.57,14.57,0,0,0,5-2.19c1.16-.8,1.53-1.91.33-2.86a5.86,5.86,0,0,0-5.47-.63c-1.05.34-.15,2.07-.15,3.16A24.07,24.07,0,0,0,350.75,293Z" transform="translate(-329.36 -200.27)"/><path class="a31470b6-6730-491f-935f-ddb0baf69e93" d="M367.7,260.6a6.75,6.75,0,0,1,7.1,7,8.7,8.7,0,0,1-9,8.67c-4.08,0-6.81-2.95-6.79-7.28A8.49,8.49,0,0,1,367.7,260.6ZM361.63,269a4.26,4.26,0,0,0,4.4,4.59,6.24,6.24,0,0,0,6.09-5.7,4.28,4.28,0,0,0-4.28-4.71A6.18,6.18,0,0,0,361.63,269Z" transform="translate(-329.36 -200.27)"/><path class="a31470b6-6730-491f-935f-ddb0baf69e93" d="M446.84,284.53a6.94,6.94,0,0,1,7.15,7c.05,4.7-4.15,8.69-9.12,8.65-4,0-6.79-3-6.76-7.33A8.44,8.44,0,0,1,446.84,284.53Zm4.34,7c0-2.87-1.7-4.47-4.55-4.41a6.2,6.2,0,0,0-5.93,5.9,4.3,4.3,0,0,0,4.37,4.45A6.09,6.09,0,0,0,451.18,291.56Z" transform="translate(-329.36 -200.27)"/><path class="5cd49a2e-6fa1-4339-a596-436505699365" d="M499.15,243.38a18.68,18.68,0,0,0,.65,6.66c.28,1.14,0,1.45-1,1.69s-1.47-.08-1.65-1.15a53.11,53.11,0,0,1-.92-10.42c0-.78-.65-2,.77-2.25a2.45,2.45,0,0,1,3,1.45,38.9,38.9,0,0,0,5,7.39,22.83,22.83,0,0,0-.25-6c-.07-.83-.75-2,1-2.25s1.64,1.05,1.72,2c.28,3.31.42,6.64.63,10,.06.93-.15,1.53-1.22,1.81a1.55,1.55,0,0,1-2-.75C503.09,248.92,501.26,246.38,499.15,243.38Z" transform="translate(-329.36 -200.27)"/><path class="a31470b6-6730-491f-935f-ddb0baf69e93" d="M463.6,292c0-1.81,0-3.61,0-5.42,0-.8-.08-1.46,1.06-1.51,1,0,1.55.06,1.61,1.24.18,3.57.46,7.14.71,10.71a1.74,1.74,0,0,1-3.23,1c-1.76-2.57-3.57-5.1-5.72-8.17a21.37,21.37,0,0,0,.66,6.49c.25,1,.2,1.65-1.12,1.91s-1.35-.4-1.53-1.28a47.78,47.78,0,0,1-.92-10.67c0-.64-.5-1.69.7-1.79,1-.08,2.15-.46,2.82.89A20.35,20.35,0,0,0,463.6,292Z" transform="translate(-329.36 -200.27)"/><path class="5cd49a2e-6fa1-4339-a596-436505699365" d="M409.82,274.83c.15.62-.27.9-1,.87s-1.34.6-1.68-.42c-.05-.16,0-.34-.08-.49-1.21-3.67-1.19-3.54-5-2.87-1.77.32-1.8,1.49-1.88,2.66-.1,1.35-.69,1.68-1.93,1.51-1.4-.19-.93-1-.79-1.83a76.91,76.91,0,0,0,1.4-8.35c.19-2.85,1.49-3.89,4.2-4.31,2.05-.32,2.94,0,3.49,2.06C407.63,267.34,409.18,270.86,409.82,274.83Zm-7.15-5.64c.72-.43,2.52.28,2.35-1.14-.14-1.18,0-3.43-2-3.39-2.35,0-1.22,2.44-1.76,3.72C400.84,269.43,401.94,269.15,402.66,269.19Z" transform="translate(-329.36 -200.27)"/><path class="44a722ab-6c08-41b1-956c-e863fc3a8e10" d="M384.74,298.36c.14.82-.13,1.3-1,1.31-.7,0-1.58.37-1.64-.86a1.13,1.13,0,0,0-.1-.48c-.55-1,0-2.8-1.3-3a12.17,12.17,0,0,0-4.61.78c-.8.23-.69,1.25-.81,1.94-.19,1.07,0,2.18-1.79,1.87-2-.34-1-1.57-.83-2.43.47-3.11,1.09-6.2,1.57-9.31.22-1.42.8-2.22,2.34-2.3a16.68,16.68,0,0,0,2.91-.6c.6-.14,1.19-.25,1.45.48A88.5,88.5,0,0,1,384.74,298.36Zm-7.2-5.27c.47-.72,2.49.49,2.45-1.1,0-1.21-.12-3.48-1.91-3.48-2.29,0-1.22,2.47-1.85,3.76C375.85,293,376.5,293.25,377.54,293.09Z" transform="translate(-329.36 -200.27)"/><path class="a31470b6-6730-491f-935f-ddb0baf69e93" d="M379.33,251.3c.55-3.11,1.23-6.79,1.83-10.48.25-1.56,1.57-1.32,2.5-1.54,3.79-.88,3.78-.82,5.06,2.87a75.05,75.05,0,0,1,2.72,9.06c.17.81.55,1.63-.78,1.89-1.11.22-1.72,0-1.94-1.23s0-2.78-1.17-3a10.36,10.36,0,0,0-4.39.56c-1.42.36-.9,1.8-1.15,2.77s-.77,1.23-1.78,1.13S379,252.73,379.33,251.3Zm7.74-5.36c-1.24-1.2.12-4.2-2.4-4-2,.17-1.85,2.79-1.48,3.86C383.86,247.74,385.6,245.59,387.07,245.94Z" transform="translate(-329.36 -200.27)"/><path class="a31470b6-6730-491f-935f-ddb0baf69e93" d="M366,241.75c.69-.9-1.61-3,1.25-3.28,1-.11,1.42.18,1.38,1.18,0,.41,0,.83,0,1.25.18,3.88.17,3.79,4,3.39,1.6-.17,2-.71,1.66-2.19-.22-1-.12-2.16-.23-3.23s.25-1.33,1.23-1.33,1.4.08,1.47,1.15q.39,6,.93,11.95c.1,1.15-.57,1.16-1.35,1.23s-1.33-.07-1.28-1a4.54,4.54,0,0,0-.05-.75c-.39-3.34-.38-3.23-3.75-3-1.78.15-2.31.79-2,2.51.16.78.93,2-.9,2.19s-1.67-.9-1.76-2C366.48,247.21,366.26,244.56,366,241.75Z" transform="translate(-329.36 -200.27)"/><path class="44a722ab-6c08-41b1-956c-e863fc3a8e10" d="M445.73,260.61c.86.27,2.9-.88,2.16,1.77-.3,1.09-1,.88-1.74.88a11.37,11.37,0,0,0-6,1.52c-.56.34-1.27.72-1.12,1.49s1,.79,1.61.82c1.49.07,3,0,4.49.1,1.72.14,3.41.64,3.93,2.51s-.63,3.16-2.08,4.16a14.07,14.07,0,0,1-5,2.08c-1.09.25-1.51,0-1.71-1.08s.18-1.51,1.22-1.67a8.67,8.67,0,0,0,3.91-1.5c.37-.28.9-.59.75-1.18s-.76-.62-1.21-.65c-1.49-.1-3,0-4.48-.17-1.83-.16-3.82-.31-4.39-2.52s1-3.54,2.67-4.55A12.22,12.22,0,0,1,445.73,260.61Z" transform="translate(-329.36 -200.27)"/><path class="44a722ab-6c08-41b1-956c-e863fc3a8e10" d="M392.82,260.61c.55.51,2.17-1,2.24,1,.06,1.77-1.16,1.62-2.37,1.64a10.5,10.5,0,0,0-5.46,1.49c-.55.34-1.27.72-1.12,1.49s1,.79,1.61.82c1.49.06,3,0,4.49.11,1.71.14,3.4.61,3.92,2.51s-.61,3.17-2.07,4.17a10.88,10.88,0,0,1-4.54,1.92c-.81.12-1.75.88-2.12-.68-.31-1.33.15-1.76,1.41-2a7.57,7.57,0,0,0,3.86-1.62c.93-.81.8-1.47-.42-1.6-1.56-.17-3.16-.09-4.73-.23-1.84-.16-3.82-.33-4.38-2.53s1-3.54,2.68-4.55A12.31,12.31,0,0,1,392.82,260.61Z" transform="translate(-329.36 -200.27)"/><path class="2a6ed827-3fdd-47a4-9949-d612825626fd" d="M366.43,284.18c.91,0,1.83.05,2.74,0,1.16-.09,1.09.7,1.16,1.45s-.16,1.24-1.08,1.23-1.83.22-2.73.18c-1.42-.06-2,.25-1.9,1.92s.86,1.72,2.09,1.53c.74-.11,1.49-.13,2.23-.23.94-.12,1.58,0,1.7,1.19s-.3,1.51-1.33,1.55-1.82.17-2.74.18-1.73.12-1.62,1.49,1,1.26,1.92,1.16a23.14,23.14,0,0,0,2.7-.44c.81-.19,1.49-.35,1.58.82.06.81.38,1.62-.87,1.93a27.19,27.19,0,0,1-6.68.57c-.93,0-1.07-.47-1.12-1.22-.24-3.9-.48-7.8-.79-11.69-.08-1,.28-1.29,1.23-1.29,1.16,0,2.32-.16,3.48-.25Z" transform="translate(-329.36 -200.27)"/><path class="2a6ed827-3fdd-47a4-9949-d612825626fd" d="M474.27,284.18s.79,0,1.54,0c.94-.06,1.34.29,1.37,1.27s-.12,1.42-1.17,1.41-1.82.14-2.73.19-2.1-.14-1.85,1.65c.2,1.44.51,2.15,2.09,1.8.81-.18,1.66-.13,2.48-.27,1-.17,1.21.4,1.39,1.25s-.08,1.42-1,1.49-2.16.22-3.23.22-1.45.4-1.39,1.49.6,1.3,1.45,1.2a20.89,20.89,0,0,0,3.19-.49c.92-.25,1.4-.1,1.62.86s.29,1.59-.89,1.89a25.87,25.87,0,0,1-6.68.57c-1.32,0-1.14-.92-1.19-1.72-.2-3.4-.31-6.81-.62-10.21-.15-1.64.12-2.49,2-2.34A28.16,28.16,0,0,0,474.27,284.18Z" transform="translate(-329.36 -200.27)"/><path class="2a6ed827-3fdd-47a4-9949-d612825626fd" d="M428.89,318.71c0,8.36-2.06,15.08-7.51,20.51-.65.65-1.34,1.48-2.31.59s-.2-1.64.44-2.31c6.48-6.71,7.5-14.86,6.37-23.63-.16-1.23-1.34-3.18.74-3.52,1.91-.31,1.49,1.83,1.69,3C428.66,315.39,428.77,317.48,428.89,318.71Z" transform="translate(-329.36 -200.27)"/><path class="5cd49a2e-6fa1-4339-a596-436505699365" d="M410.85,259.8a21,21,0,0,1,2.76,2c1.84,1.8,3.45,1.91,5-.32a10.89,10.89,0,0,1,.9-.86c.78-.87,1.35-.54,2,.19s.73,1.3-.13,1.78c-4,2.23-4.11,5.77-3.43,9.64.11.65.08,1.32.13,2s.13,1.48-1,1.48-1.82-.1-1.81-1.39a15.89,15.89,0,0,1-.06-2c.62-4.38-.7-7.73-4.93-9.64-.49-.22-1.43-.52-.83-1.44C409.75,260.69,410,260,410.85,259.8Z" transform="translate(-329.36 -200.27)"/><path class="5cd49a2e-6fa1-4339-a596-436505699365" d="M485.29,248.11c0,1.08-.07,2.17,0,3.24s.1,1.63-1.17,1.61c-1,0-1.6-.24-1.55-1.38,0-.74-.12-1.5,0-2.24.39-4.13-.68-7.45-4.81-9.25-.75-.33-1.67-.79-.73-2.06s1.56-.82,2.38-.08a8.9,8.9,0,0,0,.82.57c3.26,2.3,3.27,2.3,6.36-.34.67-.57,1.11-1.34,2.18-.24s.25,1.66-.42,2.32C485.1,243.41,485.1,243.41,485.29,248.11Z" transform="translate(-329.36 -200.27)"/><path class="5cd49a2e-6fa1-4339-a596-436505699365" d="M413.17,299.53c-1,.1-1.42-.34-1.45-1.27a12.48,12.48,0,0,1-.06-2c.61-4.37-.61-7.78-4.9-9.66-1-.44-1.29-1.06-.52-2.11s1.26-.84,2-.18a6.62,6.62,0,0,0,.62.42c3.6,2.52,3.63,2.54,7.14-.27.73-.59,1.19-.72,1.8,0,.46.57,1.26,1.22.22,1.79-4.73,2.61-3.89,6.9-3.51,11.09C414.6,298.38,415,299.75,413.17,299.53Z" transform="translate(-329.36 -200.27)"/><path class="5cd49a2e-6fa1-4339-a596-436505699365" d="M489.93,283.73a25.26,25.26,0,0,1,3.21,2.3c1.56,1.52,2.82,1.35,4.1-.29.4-.52,1-.88,1.44-1.38.78-.87,1.25-.25,1.79.28s.9,1.27,0,1.79c-4.08,2.29-4.07,6-3.45,9.88.09.57.05,1.16.1,1.74.07.82,0,1.49-1.08,1.51-.91,0-1.69-.05-1.74-1.22a11.58,11.58,0,0,1-.07-1.74c.49-4.45-.42-8.17-5-10.09-.5-.21-1.35-.62-.66-1.5C488.89,284.51,489,283.75,489.93,283.73Z" transform="translate(-329.36 -200.27)"/><path class="2a6ed827-3fdd-47a4-9949-d612825626fd" d="M403.18,239.34c.36,1.57-.69,1.52-1.46,1.49-2.34-.07-2.86,1.11-2.57,3.2a44.75,44.75,0,0,1,.4,6c0,.95.92,2.44-1.15,2.61-2.24.18-1.51-1.56-1.63-2.57a61.85,61.85,0,0,1-.4-6.7c0-1.45-.57-1.9-1.95-1.62-1,.19-2,.48-2.16-1.12s1-1.38,1.88-1.49l7.4-.93C402.59,238,403.5,238.07,403.18,239.34Z" transform="translate(-329.36 -200.27)"/><path class="2a6ed827-3fdd-47a4-9949-d612825626fd" d="M458,250.82c.37,1.51-.32,1.69-1.29,1.79-1.16.12-1.43-.44-1.48-1.43-.13-2.58-.44-5.15-.43-7.72,0-1.64-.57-2-2-1.73-1,.2-2,.43-2.07-1.21s.86-1.3,1.74-1.4c2.39-.3,4.78-.64,7.18-.9.93-.1,2-.44,2.13,1.21s-.87,1.46-1.7,1.43c-2.3-.08-2.7,1-2.42,3.07C457.89,246.31,457.86,248.74,458,250.82Z" transform="translate(-329.36 -200.27)"/><path class="5cd49a2e-6fa1-4339-a596-436505699365" d="M355.57,260.9c1.52-.34,1.57.39,1.73,1.19.2,1-.19,1.57-1.09,1.45-3.77-.49-3.11,2-2.92,4.2.16,2,.25,4,.42,6,.08,1-.09,1.53-1.27,1.57s-1.4-.41-1.45-1.42c-.12-2.57-.39-5.13-.48-7.7-.05-1.47-.44-2.19-2.08-1.7-.8.24-1.74.65-2-.91s.49-1.67,1.62-1.79C350.73,261.47,353.36,261.15,355.57,260.9Z" transform="translate(-329.36 -200.27)"/><path class="5cd49a2e-6fa1-4339-a596-436505699365" d="M482.89,299.69c-2.28.72-3.08-.35-3.11-2.67,0-3.15-.3-6.31-.52-9.45-.07-1,.08-1.53,1.25-1.59s1.6.35,1.63,1.54c.07,2.65.36,5.3.38,8,0,1.57.7,1.85,2,1.53a26.75,26.75,0,0,0,3.12-.83c1.16-.44,1.64,0,2,1.05.41,1.23-.39,1.33-1.23,1.61A14.26,14.26,0,0,1,482.89,299.69Z" transform="translate(-329.36 -200.27)"/><path class="44a722ab-6c08-41b1-956c-e863fc3a8e10" d="M400.24,299.7c-2.44.81-3-.58-3-2.77-.07-3.07-.29-6.13-.5-9.19-.07-1,0-1.72,1.33-1.76s1.51.57,1.54,1.65c.08,2.57.35,5.14.36,7.7,0,1.64.66,2.06,2.11,1.67a30.93,30.93,0,0,0,3.11-.84c1-.4,1.5,0,1.85.93s0,1.42-1,1.72A16,16,0,0,1,400.24,299.7Z" transform="translate(-329.36 -200.27)"/><path class="a31470b6-6730-491f-935f-ddb0baf69e93" d="M386.08,289.68a18.24,18.24,0,0,0,0-2.39c-.11-1,.33-1.27,1.25-1.3s1.42.08,1.46,1.14c.1,2.66.43,5.32.38,8,0,2,.78,2.28,2.39,1.85a28,28,0,0,0,2.88-.79c1.21-.47,1.53.1,1.91,1.13s-.23,1.27-1,1.45l-.24.08c-2.3.9-4.85,1.49-7.08.84-3-.88-.84-3.94-1.57-5.91C386,292.7,386.21,291.45,386.08,289.68Z" transform="translate(-329.36 -200.27)"/><path class="a31470b6-6730-491f-935f-ddb0baf69e93" d="M430.84,299.74c-2,.44-2.84-.18-2.78-2.51.08-3.14-.28-6.3-.48-9.45-.06-1-.11-1.74,1.28-1.81s1.35.77,1.4,1.71c.13,2.57.38,5.14.43,7.71,0,1.46.55,2,1.95,1.64,1-.26,2.1-.47,3.12-.81s1.58-.3,2.05.91c.59,1.51-.43,1.43-1.25,1.72A15.49,15.49,0,0,1,430.84,299.74Z" transform="translate(-329.36 -200.27)"/><path class="2a6ed827-3fdd-47a4-9949-d612825626fd" d="M416.21,249.58c0,.44.08,1.28.2,2.1.16,1-.46,1.05-1.18,1.13s-1.49.2-1.58-.95q-.44-6.09-1-12.17c-.09-1,.32-1.3,1.26-1.31s1.55.26,1.61,1.36C415.74,242.9,416,246,416.21,249.58Z" transform="translate(-329.36 -200.27)"/><path class="2a6ed827-3fdd-47a4-9949-d612825626fd" d="M431,264.41a14.52,14.52,0,0,0,0-2c-.12-1,.19-1.39,1.2-1.32.75,0,1.44-.12,1.51,1.05.25,4,.58,8,.93,11.93.1,1.11-.37,1.43-1.38,1.54s-1.29-.4-1.36-1.26C431.63,271.13,431.33,267.9,431,264.41Z" transform="translate(-329.36 -200.27)"/><path class="5cd49a2e-6fa1-4339-a596-436505699365" d="M494.14,250.4c-.42.66,1,2.12-1,2.38-.93.13-1.6.14-1.68-1.11-.26-4-.58-8-.91-11.94-.08-1,.23-1.36,1.23-1.35s1.4.11,1.47,1.17C493.52,243.13,493.84,246.69,494.14,250.4Z" transform="translate(-329.36 -200.27)"/><path class="2a6ed827-3fdd-47a4-9949-d612825626fd" d="M467.63,272c0,1,0,1.69.12,2.35.15,1.13-.61,1.15-1.39,1.25s-1.2-.19-1.27-1c-.29-4-.64-7.94-.93-11.91-.05-.68-.32-1.55.94-1.55,1,0,1.77,0,1.84,1.34C467.15,265.75,467.42,269.06,467.63,272Z" transform="translate(-329.36 -200.27)"/><path class="295933df-21de-4400-8570-f897a795bffa" d="M410.22,446.18a160.2,160.2,0,0,1,.55-24.25,6.31,6.31,0,0,1,.8,3.61,94.46,94.46,0,0,1-.76,17.91,3.12,3.12,0,0,0,.77,2.74Z" transform="translate(-329.36 -200.27)"/><path class="70537da7-f2bf-4b56-904a-69c98fb53622" d="M473.38,263.88c.41,1.4-.38,1.5-1.12,1.68s-1.45,0-1.53-1c-.09-1.23-.13-2.47-.32-3.68s.57-1.26,1.44-1.39c1.07-.16,1.26.41,1.3,1.26C473.2,261.9,473.31,263,473.38,263.88Z" transform="translate(-329.36 -200.27)"/><path class="70537da7-f2bf-4b56-904a-69c98fb53622" d="M453.79,274.1c-.67.65,1.26,3.22-1.42,3.71-.56.1-2,.21-1.49-1.21.56-1.61-.31-3.89,1.87-4.7C453.41,271.66,454.77,272,453.79,274.1Z" transform="translate(-329.36 -200.27)"/><path class="70537da7-f2bf-4b56-904a-69c98fb53622" d="M419.07,238.58c-.27-1-.06-1.75,1.36-1.87,1.6-.14,1.15,1,1.28,1.83s.19,1.66.33,2.48c.18,1,.12,1.64-1.23,1.82-1.51.21-1.43-.73-1.55-1.6S419.14,239.58,419.07,238.58Z" transform="translate(-329.36 -200.27)"/><path class="a31470b6-6730-491f-935f-ddb0baf69e93" d="M506.81,297.95c.29,1.2-.43,1.2-1.25,1.25-1.08.06-1.43-.38-1.47-1.42s.11-1.34,1.16-1.37C506.47,296.37,506.89,296.89,506.81,297.95Z" transform="translate(-329.36 -200.27)"/><path class="4b2c7639-9f61-48fa-8f9c-9e8ef1d3787f" d="M466.67,437.75c-1.41-2.35.42-4.55.27-6.84.17,2.6.47,5.21-.21,7.78Z" transform="translate(-329.36 -200.27)"/><path class="295933df-21de-4400-8570-f897a795bffa" d="M410.3,452.66l.05-1.48A.91.91,0,0,1,410.3,452.66Z" transform="translate(-329.36 -200.27)"/><path class="390a2851-0c70-4c4e-884b-aa6fdb268b60" d="M485.73,341.65c9.17.06,17.05,1.82,23.81,7.26,11.38,9.16,14.1,23.53,7.22,37.62-5.82,11.93-16,17.33-28.52,19.11-9.38,1.33-18.23-.21-25.53-6.53-16.93-14.64-17.54-44,8.34-54.86A39.07,39.07,0,0,1,485.73,341.65Zm-27.08,27.93a4.58,4.58,0,0,0-4.68,4.49,4.92,4.92,0,0,0,4.84,5,4.79,4.79,0,0,0,4.63-4.87A4.52,4.52,0,0,0,458.65,369.58Zm23.85-1a4.56,4.56,0,0,0-4.84,4.58,4.78,4.78,0,0,0,4.57,4.92,5,5,0,0,0,4.91-4.95A4.64,4.64,0,0,0,482.51,368.62Zm-2.42,13.67c-4.31-2.28-8.85-1.31-13.35-.8C471.15,382.29,475.68,381.35,480.08,382.29ZM490.93,367a35.86,35.86,0,0,0-11.33-6.4A48,48,0,0,0,490.93,367Zm-38.1,0c4.13-1.43,7.71-3.85,11.29-6.27A34.75,34.75,0,0,0,452.83,367.06Z" transform="translate(-329.36 -200.27)"/><path class="ebe5abf7-193b-4b4f-b666-7f8005004b6e" d="M514.68,428.07a122.42,122.42,0,0,1-1.4,19,3.38,3.38,0,0,1-2,2.84,28.16,28.16,0,0,1-9.42,3,85.82,85.82,0,0,1-29.7-1.86c-1.67-.39-2-1.12-1.81-2.77,1.18-12.76,2-25.54.53-38.35-.1-.86-1-2.49,1.43-1.84,13.08,3.43,25.2.93,36.4-6.39,1.7-1.11,2.26-1.35,2.71,1C513.05,411.53,515,420.22,514.68,428.07Z" transform="translate(-329.36 -200.27)"/><path class="390a2851-0c70-4c4e-884b-aa6fdb268b60" d="M401.91,411.76c-12.07-.6-23-3.8-30.48-14.18-5.37-7.43-8-15.82-6.64-25,1.42-9.74,7.09-16.84,15.74-21.2,11.12-5.61,22.83-5.39,34.15-1,9.52,3.7,16.27,10.78,18.64,21,3.64,15.7-4.59,32.09-18.72,38a44.21,44.21,0,0,1-5.47,1.7A26,26,0,0,1,401.91,411.76Zm.16-16a24.21,24.21,0,0,0,2.11-1.92,4.71,4.71,0,0,0-5.21-7.58c-2.13.67-3,2.45-3,4.66a4.57,4.57,0,0,0,4,4.43c.71.16,1.5-.21,2.13.36,0,1.9-1.19,3.52-1.38,5.38-.12,1.12-.55,3-.11,3.24,1.12.62,1.8-.93,2.71-1.51a16.85,16.85,0,0,1,4.17-2.18,6.33,6.33,0,0,1,6.81,1.84c1.74,1.8,2.39,1.75,3.6-.45.43-.78.57-1.73.93-2.56.81-1.87.1-2.5-1.77-3C412.09,395,407.08,395.52,402.07,395.75Zm22.1.52a4.83,4.83,0,0,0,5-4.84,4.77,4.77,0,0,0-4.61-4.65,4.75,4.75,0,0,0-.35,9.49Zm-2.44-18.89A47.28,47.28,0,0,0,433,383.74,34.68,34.68,0,0,0,421.72,377.37Zm-28.17,5.24.54.71,11.21-6.42-.44-.76A75.28,75.28,0,0,0,393.55,382.61Z" transform="translate(-329.36 -200.27)"/><path class="4b2c7639-9f61-48fa-8f9c-9e8ef1d3787f" d="M368.53,400.39c1.37,2.52,1.37,5.12,1.51,7.66a218.52,218.52,0,0,1-1.28,37.13c-.09.83-.11,1.66-.18,2.49-.11,1.23.25,2.26,1.57,2.4s2.14-.75,2.3-2.09q.36-3,.64-6a226.22,226.22,0,0,0,.93-34.9,3.89,3.89,0,0,1,.09-.71c.19,0,.4-.11.5,0a44.83,44.83,0,0,0,30,8.8c2.46-.13,2.62.71,2.36,2.79a155.78,155.78,0,0,0-.94,29.39c.16,2.31-.2,3.4-2.81,4A88.63,88.63,0,0,1,372.74,453c-3.17-.4-6-2-8.72-3.56-.92-.53-.88-1.3-1-2.11a105,105,0,0,1,3.39-39C367.17,405.64,367.84,403,368.53,400.39Z" transform="translate(-329.36 -200.27)"/><path class="00cecb40-1ef6-4982-8b88-bd2d7cefea8b" d="M469.08,240.56c.77.05,1.44,0,2.08.16a2.41,2.41,0,0,1,2.21,1.71c.26,1.08-.67,1.57-1.37,2.12a1.93,1.93,0,0,1-.44.23c-1.33.57-3.1,2.13-3.94,1.28s-.83-3.06-.76-4.65S468.45,241,469.08,240.56Z" transform="translate(-329.36 -200.27)"/><path class="00cecb40-1ef6-4982-8b88-bd2d7cefea8b" d="M350.75,293a24.07,24.07,0,0,1-.26-2.51c0-1.1-.9-2.83.15-3.16a5.86,5.86,0,0,1,5.47.63c1.2.95.83,2.06-.33,2.86A14.57,14.57,0,0,1,350.75,293Z" transform="translate(-329.36 -200.27)"/><path class="00cecb40-1ef6-4982-8b88-bd2d7cefea8b" d="M361.63,269a6.18,6.18,0,0,1,6.21-5.81,4.28,4.28,0,0,1,4.28,4.71,6.24,6.24,0,0,1-6.09,5.7A4.26,4.26,0,0,1,361.63,269Z" transform="translate(-329.36 -200.27)"/><path class="00cecb40-1ef6-4982-8b88-bd2d7cefea8b" d="M451.18,291.56a6.09,6.09,0,0,1-6.11,5.95,4.3,4.3,0,0,1-4.37-4.45,6.2,6.2,0,0,1,5.93-5.9C449.48,287.09,451.13,288.69,451.18,291.56Z" transform="translate(-329.36 -200.27)"/><path class="295933df-21de-4400-8570-f897a795bffa" d="M402.66,269.19c-.72,0-1.82.24-1.37-.81.54-1.28-.59-3.68,1.76-3.72,1.91,0,1.82,2.21,2,3.39C405.18,269.48,403.39,268.76,402.66,269.19Z" transform="translate(-329.36 -200.27)"/><path class="295933df-21de-4400-8570-f897a795bffa" d="M377.54,293.09c-1,.15-1.68-.07-1.31-.82.63-1.28-.44-3.76,1.85-3.76,1.79,0,1.88,2.27,1.91,3.48C380,293.58,378,292.37,377.54,293.09Z" transform="translate(-329.36 -200.27)"/><path class="295933df-21de-4400-8570-f897a795bffa" d="M387.07,245.94c-1.47-.34-3.21,1.8-3.88-.13-.37-1.06-.52-3.69,1.48-3.86C387.19,241.74,385.83,244.74,387.07,245.94Z" transform="translate(-329.36 -200.27)"/><path class="7e2f6df9-bc00-41a8-9bf5-a3307137bec8" d="M458.65,369.58a4.52,4.52,0,0,1,4.79,4.62,4.79,4.79,0,0,1-4.63,4.87,4.92,4.92,0,0,1-4.84-5A4.58,4.58,0,0,1,458.65,369.58Z" transform="translate(-329.36 -200.27)"/><path class="7e2f6df9-bc00-41a8-9bf5-a3307137bec8" d="M482.51,368.62a4.64,4.64,0,0,1,4.64,4.56,5,5,0,0,1-4.91,4.95,4.78,4.78,0,0,1-4.57-4.92A4.56,4.56,0,0,1,482.51,368.62Z" transform="translate(-329.36 -200.27)"/><path class="a9bcbfa4-7824-437a-88d0-e7807484a637" d="M480.08,382.29c-4.41-.94-8.94,0-13.35-.8C471.24,381,475.77,380,480.08,382.29Z" transform="translate(-329.36 -200.27)"/><path class="a9bcbfa4-7824-437a-88d0-e7807484a637" d="M490.93,367a48,48,0,0,1-11.33-6.4A35.86,35.86,0,0,1,490.93,367Z" transform="translate(-329.36 -200.27)"/><path class="a9bcbfa4-7824-437a-88d0-e7807484a637" d="M452.83,367.06a34.75,34.75,0,0,1,11.29-6.27C460.54,363.21,457,365.63,452.83,367.06Z" transform="translate(-329.36 -200.27)"/><path class="7e2f6df9-bc00-41a8-9bf5-a3307137bec8" d="M402.06,395.75c5-.23,10-.76,15,.67,1.87.54,2.58,1.18,1.77,3-.36.83-.5,1.77-.93,2.56-1.22,2.2-1.86,2.26-3.6.45a6.33,6.33,0,0,0-6.81-1.84,16.85,16.85,0,0,0-4.17,2.18c-.91.57-1.59,2.12-2.71,1.51-.43-.24,0-2.12.11-3.24.19-1.86,1.34-3.47,1.38-5.38Z" transform="translate(-329.36 -200.27)"/><path class="7e2f6df9-bc00-41a8-9bf5-a3307137bec8" d="M424.17,396.27a4.75,4.75,0,0,1,.35-9.49,4.77,4.77,0,0,1,4.61,4.65A4.83,4.83,0,0,1,424.17,396.27Z" transform="translate(-329.36 -200.27)"/><path class="7e2f6df9-bc00-41a8-9bf5-a3307137bec8" d="M402.11,395.71c-.63-.56-1.42-.2-2.13-.36a4.57,4.57,0,0,1-4-4.43c-.09-2.21.82-4,3-4.66a4.71,4.71,0,0,1,5.21,7.58,24.26,24.26,0,0,1-2.11,1.92Z" transform="translate(-329.36 -200.27)"/><path class="a9bcbfa4-7824-437a-88d0-e7807484a637" d="M421.72,377.37A34.68,34.68,0,0,1,433,383.74,47.28,47.28,0,0,1,421.72,377.37Z" transform="translate(-329.36 -200.27)"/><path class="a9bcbfa4-7824-437a-88d0-e7807484a637" d="M393.55,382.61a75.28,75.28,0,0,1,11.32-6.47l.44.76-11.21,6.42Z" transform="translate(-329.36 -200.27)"/></svg>