<svg id="ee7db2bd-6e90-4c59-a117-7386924a64f9" data-name="Capa 1" xmlns="http://www.w3.org/2000/svg" viewBox="0 0 97.11 140.84"><defs><style>.ac8d0115-f1ea-4f9d-9345-2fe787ca9352{fill:#0a0a0a;}.c74a6bee-fb5e-4b45-9a67-329422358a69{fill:#fdfdfd;}.\37 ad0a230-ae3d-446e-8f11-4e5e27cf269d{fill:#0b0a0a;}.\33 3ef9a9c-0acc-4592-8d43-059da03e8878{fill:#090908;}.\38 ccdd945-0f3d-4c1f-bfc7-9aeec3b2356a{fill:#0e0e0e;}.\32 7d7eb01-d568-4576-8826-0ecf8002093c{fill:#111;}.\32 1e4c299-81dd-4ff5-9577-2d83feed56af{fill:#161616;}.\39 700e946-428b-4250-b491-ece39b1deabe{fill:#f4c99e;}.f246c9d5-ecf9-4144-b593-a4b3f1dbf7d0{fill:#93b3c6;}.\34 91cad01-f0d1-4e13-9884-679eebbcb7ca{fill:#f9f9f9;}.\39 80ba65d-3823-4dec-b73c-d7ca86f6d890{fill:#f5ca9e;}.a1288ac0-b544-4b6e-84b0-f83e33fc0a81{fill:#4f9441;}.\36 f93bbb2-8112-473a-b71f-5e815541c530{fill:#f1f1f1;}.cf6342f9-15df-409e-a92e-fe5913908680{fill:#080605;}.\39 a8e6239-c6e8-4b18-8e6b-e550a6596fc9{fill:#4d3e31;}</style></defs><title>card-3</title><path class="ac8d0115-f1ea-4f9d-9345-2fe787ca9352" d="M514.59,741.41q0,32.7,0,65.39c0,.36,0,.73,0,1.09a3.93,3.93,0,0,1-4.3,3.94H422c-2.75,0-4.37-1.61-4.49-4.44,0-.2,0-.39,0-.59q0-65.39,0-130.79a8.11,8.11,0,0,1,.1-1.33,4,4,0,0,1,4-3.65c.53,0,1.06,0,1.59,0H509a13.49,13.49,0,0,1,2,.12,3.8,3.8,0,0,1,3.53,3.9c0,.33,0,.67,0,1Q514.59,708.71,514.59,741.41Zm-1.87,0q0-32.48,0-65c0-2.93-.59-3.52-3.55-3.52H423a15.37,15.37,0,0,0-1.59.06,1.93,1.93,0,0,0-1.88,1.62,5.92,5.92,0,0,0-.16,1.41q0,65.43,0,130.85c0,2.2.9,3.1,3.11,3.1H510a2.42,2.42,0,0,0,2.73-2.67c0-.28,0-.56,0-.84Q512.72,773.93,512.72,741.4Z" transform="translate(-417.48 -670.99)"/><path class="c74a6bee-fb5e-4b45-9a67-329422358a69" d="M512.72,741.4q0,32.53,0,65.05c0,.28,0,.56,0,.84A2.42,2.42,0,0,1,510,810H422.47c-2.2,0-3.11-.9-3.11-3.1q0-65.43,0-130.85a5.92,5.92,0,0,1,.16-1.41,1.93,1.93,0,0,1,1.88-1.62,15.37,15.37,0,0,1,1.59-.06h86.17c3,0,3.55.58,3.55,3.52Q512.72,708.92,512.72,741.4ZM455,765.57a3.91,3.91,0,0,1,.64,1.37,14,14,0,0,0,2.95,5.39,2.58,2.58,0,0,0,2,.79,3.42,3.42,0,0,0,2.6-1.63c2.34-3.09,3.45-6.73,4.63-10.34.14-.43.25-1-.41-1.17s-.93.18-1.12.8a46.41,46.41,0,0,1-3.13,8,7.57,7.57,0,0,1-1.69,2.27,1.36,1.36,0,0,1-2.13-.1,5.07,5.07,0,0,1-.7-.93,25.1,25.1,0,0,1-2.18-5.42c-.12-.4,0-.58.32-.82a16.56,16.56,0,0,0,6.78-13.64,14.34,14.34,0,0,0-4.06-10.4,16.16,16.16,0,0,0-9.8-5c-4.52-.62-8.94-.41-13,1.91a14.36,14.36,0,0,0-7.47,10.66,16.21,16.21,0,0,0,2.6,11.18c.35.56.25.74-.28,1a18.73,18.73,0,0,0-5.12,4,6.18,6.18,0,0,0-.7,7.39,15,15,0,0,0,4,4.25,5.07,5.07,0,0,1,.93.71c.25.31.83.66,0,1.14-.58.35-.37,1.14.33,1.33a.55.55,0,0,1,.5.6c.13,1.39.41,2.77.43,4.16a3.44,3.44,0,0,0,2.53,3.57.59.59,0,0,1,.45.81c-.31,1.5-.54,3-.85,4.52a69.82,69.82,0,0,1-2.78,10c-.18.48-.17.9.36,1.11a.81.81,0,0,0,1.14-.52c.08-.18.14-.37.2-.55a77.8,77.8,0,0,0,3.23-12.81c.08-.52,0-1.2.34-1.52s.94.19,1.44.22h.08a38.26,38.26,0,0,0,12.58-.36c.59-.12.78,0,.83.58.19,2.79.44,5.57.63,8.36.12,1.84.18,3.68.27,5.52,0,.51.22.9.77.9s.81-.4.8-1c0-.11,0-.22,0-.34-.09-4.5-.48-9-.89-13.46-.1-1.14-.12-1.14,1-1.43s1.25-.57,1.12-1.67A87.77,87.77,0,0,1,455,765.57Zm49.24,10.84c0,.16,0,.33,0,.49q.21,3,.41,6a.8.8,0,0,0,.56.84.75.75,0,0,0,.86-.35,1.27,1.27,0,0,0,.12-.89c-.2-2.78-.34-5.58-.63-8.35-.48-4.64-1-9.27-2.73-13.67a.84.84,0,0,1,.13-.92,17,17,0,0,0,2.25-4.09,14.72,14.72,0,0,0-9.44-20.11,20,20,0,0,0-15.92,1.4,14.16,14.16,0,0,0-7.57,10c-1.3,7.08,1,12.86,6.74,17.21a.94.94,0,0,1,.45.89c-.06,1.67,0,3.35-.11,5A118.07,118.07,0,0,1,478.3,782c-.08.52,0,1,.63,1.08s.85-.31.92-.85c.11-.83.24-1.66.34-2.49.14-1.16.25-2.33.39-3.5,0-.16,0-.38.24-.37s.17.24.18.4,0,.28,0,.42c-.15,2.82-.29,5.63-.61,8.44-.13,1.15,0,1.37,1.05,1.63,1.21.31,1.19.3,1,1.54a133.82,133.82,0,0,0-.82,13.54c0,.54.08,1.07.76,1.07s.78-.49.79-1.05c0-1.26.09-2.51.13-3.77.11-3.3.41-6.58.74-9.86.06-.58.17-.81.86-.64a25.24,25.24,0,0,0,4.47.62,30.32,30.32,0,0,0,9.07-.53c.51-.12.6,0,.67.48a71,71,0,0,0,1.83,8.68c.54,1.87,1.15,3.73,1.73,5.6a.83.83,0,0,0,1.15.64c.52-.18.54-.65.4-1.12,0-.11-.08-.21-.11-.31A81.21,81.21,0,0,1,500.68,788c-.13-.75-.06-1.23.78-1.51a3,3,0,0,0,2.14-2.84C503.82,781.27,504,778.85,504.29,776.4Zm-64.64-65.1a18.31,18.31,0,0,1-.93-2.86c-.09-.36-.15-.67-.67-.67s-.71.06-.88.54a26.35,26.35,0,0,0-1.3,4.84c-.06.38-.1.65.41.69s.74.07.81-.52a15.91,15.91,0,0,1,.75-3.17c.39,1,.76,1.82,1.09,2.7.17.45.56.41.9.48s.38-.27.47-.48c.31-.74.6-1.5.9-2.24.41,1,.84,2.07,1.21,3.11.16.44.38.4.69.23s.69-.18.44-.69a23.12,23.12,0,0,1-1.71-5.5c-.12-.57-.47-.41-.8-.45s-.52.12-.58.51A17.62,17.62,0,0,1,439.64,711.3Zm30.74-14.93a8.93,8.93,0,0,1-.92,0c-.75-.08-.95.24-.86,1,.2,1.69.33,3.39.49,5.08,0,.32-.06.7.5.64s.82-.12.69-.72.13-.55.56-.43c.91.26,1.83.48,2.74.75.41.12.66.15.76-.39s.1-.75-.46-.81a2.24,2.24,0,0,1-.64-.17c-.29-.13-.78,0-.83-.39s.42-.39.66-.56a2,2,0,0,0-.61-3.77A5.62,5.62,0,0,0,470.38,696.37Zm23.08,0a5.06,5.06,0,0,1-.83,0c-.87-.11-.92.34-.84,1,.19,1.63.31,3.28.47,4.92,0,.33-.1.76.53.72s.78-.18.66-.75.19-.51.58-.4c.89.25,1.78.48,2.66.73.39.11.7.25.85-.37s0-.76-.55-.84a7.56,7.56,0,0,1-1.13-.3c-.27-.09-.35-.27-.08-.48s.37-.25.55-.38a2,2,0,0,0-.54-3.66A6.68,6.68,0,0,0,493.46,696.34ZM447,713.85a4.07,4.07,0,0,0,4.16-3.83,3.2,3.2,0,0,0-3.13-3.32,3.92,3.92,0,0,0-4.08,3.78A3.1,3.1,0,0,0,447,713.85Zm6.78-1.72c1.09.28,2.2.53,3.3.84.41.12.6.08.69-.38s.2-.66-.35-.8a4,4,0,0,1-1.74-.59l.67-.45a2.09,2.09,0,0,0,1.16-2.3,2.19,2.19,0,0,0-2-1.65,16.05,16.05,0,0,0-2.84-.08c-.61,0-.69.25-.64.76q.27,2.71.49,5.42c0,.43.22.52.6.44s.72,0,.62-.53A.92.92,0,0,1,453.77,712.12Zm-10.86-13.18c.85,1.22,1.72,2.43,2.54,3.67a.68.68,0,0,0,.89.32.65.65,0,0,0,.56-.77c-.12-1.64-.21-3.28-.31-4.92,0-.48-.21-.67-.74-.6s-.55.4-.5.82c.11,1,.2,2,.32,3.21-.3-.38-.44-.54-.56-.71a21.73,21.73,0,0,1-2-3.15c-.29-.61-.77-.46-1.21-.44s-.35.49-.35.78a23.53,23.53,0,0,0,.43,4.9c.07.33,0,.81.66.65s.64-.45.51-.94A6.42,6.42,0,0,1,442.91,698.94Zm6.39,4.28c.2,0,.39,0,.59,0a3.18,3.18,0,0,0,3-1.84,3.12,3.12,0,0,0-.9-3.43,4.64,4.64,0,0,0-4-1.4c-.47,0-.63.12-.57.62.16,1.55.26,3.12.41,4.67S447.79,703.17,449.31,703.22Zm-10.22-1.93c.27-.09.45,0,.52.39a9.74,9.74,0,0,1,.26,1.05c.05.62.38.6.86.52s.39-.44.33-.74a47.78,47.78,0,0,0-1.64-5.35c-.1-.28-.19-.5-.58-.41-.65.16-1.31.27-2,.4a.53.53,0,0,0-.45.52c-.29,1.7-.58,3.41-.89,5.11-.08.43,0,.59.49.63s.66-.13.76-.61-.13-1.07.6-1.2Zm25.36,1.7h0c.36,0,.73,0,1.09,0,1.64-.14,2.15-.71,2-2.38a34.76,34.76,0,0,0-.59-3.71c-.12-.67-.52-.39-.87-.4-.5,0-.42.32-.36.63.16.82.35,1.64.48,2.46.34,2.12.31,2.15-1.83,2.15h-.33c-1,0-1.22-.19-1.1-1.24s.3-2.32.44-3.49c0-.25.17-.62-.31-.59-.32,0-.79-.21-.86.37a22.06,22.06,0,0,0-.38,4.41c.11,1.32.59,1.77,1.92,1.8Zm19.88-5.28a3.46,3.46,0,0,0,0,.58c.19.74-.15,1-.85,1-1.64.14-1.63.17-1.7-1.53,0-.2,0-.39,0-.59,0-.56-.29-.58-.75-.58s-.56.28-.52.68c.15,1.61.33,3.22.43,4.84,0,.62.31.65.8.59.72-.08.37-.57.34-.88-.06-.65-.17-1.16.79-1.25,1.63-.14,1.64-.21,1.8,1.53,0,.51.2.65.72.62s.53-.31.5-.71c-.14-1.73-.28-3.45-.38-5.18,0-.51-.19-.66-.71-.65s-.61.31-.55.75C484.31,697.2,484.31,697.45,484.33,697.7Zm2.47,1.53h0c.06,1,.13,2.06.19,3.09,0,.35.11.56.53.55a11.53,11.53,0,0,0,2.9-.27c.44-.12.65-.25.55-.79s-.38-.57-.82-.47-.93.15-1.4.22-.62-.15-.67-.6.18-.57.56-.6l1.33-.11c.38,0,.78,0,.73-.61s-.37-.71-.88-.63-.78.05-1.16.11-.64,0-.68-.53c-.09-1-.13-1,.94-1.09a9.48,9.48,0,0,1,1.09,0c.45,0,.58-.14.56-.58s-.09-.67-.6-.64c-.92.06-1.84.1-2.76.08-.52,0-.6.21-.56.66C486.74,697.73,486.76,698.49,486.8,699.24Zm-28.06,10.62h0c.06.92.12,1.84.16,2.76,0,.36.1.56.53.56a11.76,11.76,0,0,0,3.07-.31c.54-.14.42-.47.37-.83s-.29-.47-.65-.39a12.37,12.37,0,0,1-1.4.23c-.38,0-.76.11-.78-.53s.17-.68.65-.69.83-.09,1.25-.1.72-.06.69-.65-.31-.62-.75-.56-.68,0-1,.09c-.7.15-1,0-1-.82,0-.56.09-.82.71-.77.41,0,.84,0,1.25,0s.7,0,.66-.56-.2-.73-.75-.69c-.86.08-1.73.11-2.59.12-.45,0-.58.15-.54.59C458.67,708.13,458.7,709,458.74,709.86ZM461,720.28c0-.44-.08-1.11-.16-1.77-.05-.41-.1-.9-.71-.82s-.47.55-.42,1a11,11,0,0,1-.86,6.21,12.33,12.33,0,0,1-4.06,4.69c-.3.22-.63.5-.35.9s.67.3,1,0C458.81,728,460.91,724.85,461,720.28Zm-1.69-23h0a11.52,11.52,0,0,1-1.33.08c-.58,0-.76.18-.7.76.18,1.6.32,3.21.45,4.82,0,.39.15.5.56.49.68,0,.71-.37.58-.87-.19-.74,0-1.11.84-1.06.19,0,.39,0,.58,0,.39,0,.48-.2.49-.59,0-.87-.54-.65-1-.6-1.06.12-1,.12-1.16-.95-.07-.57,0-.91.69-.83.38,0,.78-.08,1.16-.06s.73-.12.71-.69-.38-.54-.78-.52Zm20.6-.18c.08-.52-.15-.73-.77-.64-1.24.19-2.49.33-3.74.46-.35,0-.48.15-.46.52,0,.53.15.8.8.69,1.06-.17,1.06-.13,1.11,1s.14,2.28.2,3.42c0,.46.26.53.67.49s.6-.11.55-.58c-.1-1.08-.15-2.17-.21-3.26-.07-1.29-.06-1.29,1.21-1.5C479.53,697.67,480,697.76,479.86,697.12ZM500,700.68h0c.8-.08,1.61-.19,2.41-.21.57,0,.6-.28.58-.74s-.23-.6-.68-.55c-1.1.14-2.21.26-3.32.35-.5,0-.66.2-.61.72s.28.59.71.53S499.73,700.71,500,700.68ZM465,712.13c-.4,0-.82-.14-.74.46.05.42,0,.87.66.79.3,0,.74.12.65-.45C465.47,712.53,465.53,712,465,712.13Zm2.58.51c-.05.49.1.8.72.75.38,0,.54-.1.51-.52s-.13-.81-.72-.74C467.76,712.17,467.41,712.1,467.55,712.64Zm3.78.74c.42,0,.75.05.71-.41s-.18-.78-.76-.76c-.38,0-.54.08-.52.51S471,713.46,471.33,713.39Z" transform="translate(-417.48 -670.99)"/><path class="7ad0a230-ae3d-446e-8f11-4e5e27cf269d" d="M455,765.57a87.77,87.77,0,0,0,.25,19.55c.14,1.1-.06,1.41-1.12,1.67s-1.15.29-1,1.43c.4,4.48.79,9,.89,13.46,0,.11,0,.22,0,.34,0,.55-.2,1-.8,1s-.75-.4-.77-.9c-.09-1.84-.15-3.68-.27-5.52-.19-2.79-.43-5.57-.63-8.36,0-.61-.23-.7-.83-.58a38.26,38.26,0,0,1-12.58.36h-.08c-.5,0-1.07-.6-1.44-.22s-.26,1-.34,1.52a77.8,77.8,0,0,1-3.23,12.81c-.06.19-.12.37-.2.55a.81.81,0,0,1-1.14.52c-.53-.21-.54-.63-.36-1.11a69.82,69.82,0,0,0,2.78-10c.31-1.5.55-3,.85-4.52a.59.59,0,0,0-.45-.81,3.44,3.44,0,0,1-2.53-3.57c0-1.39-.3-2.77-.43-4.16a.55.55,0,0,0-.5-.6c-.7-.18-.91-1-.33-1.33.8-.48.21-.83,0-1.14a5.07,5.07,0,0,0-.93-.71,15,15,0,0,1-4-4.25,6.18,6.18,0,0,1,.7-7.39,18.73,18.73,0,0,1,5.12-4c.53-.31.63-.49.28-1a16.21,16.21,0,0,1-2.6-11.18,14.36,14.36,0,0,1,7.47-10.66c4.08-2.31,8.49-2.53,13-1.91a16.16,16.16,0,0,1,9.8,5,14.34,14.34,0,0,1,4.06,10.4,16.56,16.56,0,0,1-6.78,13.64c-.31.24-.44.42-.32.82a25.1,25.1,0,0,0,2.18,5.42,5.07,5.07,0,0,0,.7.93,1.36,1.36,0,0,0,2.13.1,7.57,7.57,0,0,0,1.69-2.27,46.41,46.41,0,0,0,3.13-8c.2-.62.5-1,1.12-.8s.56.74.41,1.17c-1.19,3.6-2.3,7.25-4.63,10.34a3.42,3.42,0,0,1-2.6,1.63,2.58,2.58,0,0,1-2-.79,14,14,0,0,1-2.95-5.39A3.91,3.91,0,0,0,455,765.57ZM446.13,736c-3.65,0-7.14.69-10.14,3a12.75,12.75,0,0,0-5,7.68,14.63,14.63,0,0,0,2.57,11.46c4,5.68,9.79,7.37,16.26,6.7,6.14-.63,10-4.53,11.7-10.31,1.81-6.17.09-11.71-5.14-15.59C453.32,736.72,449.82,736.08,446.13,736ZM453,770.86c0-.86.1-2.56.25-4.26.06-.7-.06-.85-.78-.67a19.61,19.61,0,0,1-16.9-3.3c-.37-.27-.56-.33-.64.21s-.16.88-.26,1.31a48.35,48.35,0,0,0-.74,19.6c.05.3.06.59.38.78a11.27,11.27,0,0,0,4.09,1.65,38.23,38.23,0,0,0,14.13-.73c.85-.2,1.09-.5,1-1.4A82.05,82.05,0,0,1,453,770.86Zm-21.49,3.69c0-.37.06-.56.07-.75a43.27,43.27,0,0,1,.85-7.38c.35-1.72.7-3.44,1.05-5.16,0-.22.14-.43,0-.63s-.29-.09-.44,0a15.49,15.49,0,0,0-5.65,4.6,4.29,4.29,0,0,0-.31,4.59A13.43,13.43,0,0,0,431.47,774.55Z" transform="translate(-417.48 -670.99)"/><path class="33ef9a9c-0acc-4592-8d43-059da03e8878" d="M504.29,776.4c-.24,2.45-.47,4.86-.69,7.28a3,3,0,0,1-2.14,2.84c-.83.28-.9.75-.78,1.51a81.21,81.21,0,0,0,3.46,13.61c0,.11.08.21.11.31.15.47.13.94-.4,1.12a.83.83,0,0,1-1.15-.64c-.57-1.87-1.18-3.72-1.73-5.6a71,71,0,0,1-1.83-8.68c-.07-.46-.16-.61-.67-.48a30.32,30.32,0,0,1-9.07.53,25.24,25.24,0,0,1-4.47-.62c-.69-.17-.8.07-.86.64-.34,3.28-.64,6.56-.74,9.86,0,1.26-.1,2.51-.13,3.77,0,.56-.14,1.05-.79,1.05s-.77-.52-.76-1.07a133.82,133.82,0,0,1,.82-13.54c.15-1.24.17-1.23-1-1.54-1-.26-1.18-.48-1.05-1.63.32-2.8.45-5.62.61-8.44,0-.14,0-.28,0-.42s0-.38-.18-.4-.22.21-.24.37c-.13,1.17-.25,2.33-.39,3.5-.1.83-.23,1.66-.34,2.49-.07.54-.34.93-.92.85s-.7-.55-.63-1.08a118.07,118.07,0,0,0,1.16-12.08c.07-1.67.05-3.35.11-5a.94.94,0,0,0-.45-.89c-5.77-4.35-8-10.13-6.74-17.21a14.16,14.16,0,0,1,7.57-10,20,20,0,0,1,15.92-1.4,14.72,14.72,0,0,1,9.44,20.11,17,17,0,0,1-2.25,4.09.84.84,0,0,0-.13.92c1.69,4.4,2.26,9,2.73,13.67.29,2.78.42,5.57.63,8.35a1.27,1.27,0,0,1-.12.89.75.75,0,0,1-.86.35.8.8,0,0,1-.56-.84q-.2-3-.41-6C504.32,776.73,504.3,776.57,504.29,776.4Zm-30.15-30c-.32.15-.25.47-.29.71a18.71,18.71,0,0,0-.26,4.17c.35,5.68,4.25,12.2,11.48,13.5a19,19,0,0,0,9.72-1,14.48,14.48,0,0,0,5.42-3.26,16.41,16.41,0,0,0,4.39-7.87c2-7.69-3.22-14-9.11-15.84a21.1,21.1,0,0,0-9-.61,14.55,14.55,0,0,0-11.33,7.54,4.92,4.92,0,0,0-1,2.65Zm26.52,15.93-.65.43A20.06,20.06,0,0,1,483.22,766c-.94-.21-.92-.23-.8.74a48.63,48.63,0,0,1,.36,6,101.4,101.4,0,0,1-.56,11.19c-.13,1.24-.13,1.25,1.11,1.55a38.41,38.41,0,0,0,11,1,13.66,13.66,0,0,0,6.8-1.77c.34-.21.64-.39.71-.85a74.2,74.2,0,0,0,.65-7.49A43.72,43.72,0,0,0,501.39,766C501.14,764.82,500.91,763.62,500.65,762.34ZM481,772.81l-.2,0c-.06.69-.12,1.37-.17,2.06,0,.13,0,.3.17.31s.2-.16.2-.29C481.05,774.22,481,773.52,481,772.81Z" transform="translate(-417.48 -670.99)"/><path class="8ccdd945-0f3d-4c1f-bfc7-9aeec3b2356a" d="M439.64,711.3a17.62,17.62,0,0,0,.79-3.49c.06-.39.2-.55.58-.51s.69-.12.8.45a23.12,23.12,0,0,0,1.71,5.5c.25.51-.17.54-.44.69s-.53.21-.69-.23c-.37-1-.8-2.08-1.21-3.11-.3.75-.59,1.5-.9,2.24-.09.21-.13.55-.47.48s-.73,0-.9-.48c-.33-.88-.7-1.74-1.09-2.7a15.91,15.91,0,0,0-.75,3.17c-.06.59-.38.55-.81.52s-.47-.31-.41-.69a26.35,26.35,0,0,1,1.3-4.84c.17-.47.43-.53.88-.54s.58.31.67.67A18.31,18.31,0,0,0,439.64,711.3Z" transform="translate(-417.48 -670.99)"/><path class="27d7eb01-d568-4576-8826-0ecf8002093c" d="M470.38,696.37a5.62,5.62,0,0,1,2.07.18,2,2,0,0,1,.61,3.77c-.24.17-.7.26-.66.56s.54.26.83.39a2.24,2.24,0,0,0,.64.17c.56.06.55.35.46.81s-.36.51-.76.39c-.91-.26-1.83-.48-2.74-.75-.42-.12-.67-.07-.56.43s-.21.68-.69.72-.47-.32-.5-.64c-.16-1.69-.29-3.39-.49-5.08-.09-.73.11-1,.86-1A8.93,8.93,0,0,0,470.38,696.37Zm.68,1.2c-1.27,0-1.17-.21-1.11,1.07,0,.11,0,.22,0,.33.14,1.46.15,1.48,1.47.83.61-.3,1.57-.47,1.37-1.4S471.68,697.64,471.06,697.57Z" transform="translate(-417.48 -670.99)"/><path class="27d7eb01-d568-4576-8826-0ecf8002093c" d="M493.46,696.34a6.68,6.68,0,0,1,2.32.27,2,2,0,0,1,.54,3.66c-.18.13-.37.24-.55.38s-.19.38.08.48a7.56,7.56,0,0,0,1.13.3c.51.09.68.27.55.84s-.45.48-.85.37c-.89-.25-1.78-.47-2.66-.73-.38-.11-.69-.15-.58.4s-.15.71-.66.75-.49-.39-.53-.72c-.16-1.64-.28-3.28-.47-4.92-.08-.7,0-1.15.84-1A5.06,5.06,0,0,0,493.46,696.34Zm.85,1.24c-1.29,0-1.29,0-1.17,1.1l0,.25c.16,1.5.17,1.51,1.51.86.6-.29,1.51-.49,1.34-1.35S494.9,697.62,494.31,697.58Z" transform="translate(-417.48 -670.99)"/><path class="27d7eb01-d568-4576-8826-0ecf8002093c" d="M447,713.85a3.1,3.1,0,0,1-3-3.38,3.92,3.92,0,0,1,4.08-3.78,3.2,3.2,0,0,1,3.13,3.32A4.07,4.07,0,0,1,447,713.85Zm.14-1.27a2.67,2.67,0,0,0,2.76-2.63,1.89,1.89,0,0,0-2-2.06,2.84,2.84,0,0,0-2.78,2.67A1.88,1.88,0,0,0,447.13,712.58Z" transform="translate(-417.48 -670.99)"/><path class="27d7eb01-d568-4576-8826-0ecf8002093c" d="M453.77,712.12a.92.92,0,0,0,0,.69c.1.56-.31.46-.62.53s-.56,0-.6-.44q-.22-2.71-.49-5.42c-.05-.51,0-.77.64-.76a16.05,16.05,0,0,1,2.84.08,2.19,2.19,0,0,1,2,1.65,2.09,2.09,0,0,1-1.16,2.3l-.67.45a4,4,0,0,0,1.74.59c.55.14.42.41.35.8s-.28.5-.69.38C456,712.66,454.86,712.4,453.77,712.12Zm.85-4.24c-1.35,0-1.35,0-1.25,1.16l0,.25c.15,1.41.17,1.45,1.48.85.62-.28,1.58-.46,1.41-1.38S455.19,707.92,454.62,707.88Z" transform="translate(-417.48 -670.99)"/><path class="27d7eb01-d568-4576-8826-0ecf8002093c" d="M442.91,698.94a6.42,6.42,0,0,0,.19,2.81c.13.5.13.79-.51.94s-.59-.32-.66-.65a23.53,23.53,0,0,1-.43-4.9c0-.29-.19-.75.35-.78s.92-.17,1.21.44a21.73,21.73,0,0,0,2,3.15c.12.18.27.34.56.71-.12-1.24-.21-2.23-.32-3.21,0-.42-.1-.74.5-.82s.71.13.74.6c.1,1.64.2,3.28.31,4.92a.65.65,0,0,1-.56.77.68.68,0,0,1-.89-.32C444.63,701.37,443.76,700.16,442.91,698.94Z" transform="translate(-417.48 -670.99)"/><path class="27d7eb01-d568-4576-8826-0ecf8002093c" d="M449.31,703.22c-1.52,0-1.31.29-1.47-1.38s-.24-3.12-.41-4.67c-.05-.5.1-.6.57-.62a4.64,4.64,0,0,1,4,1.4,3.12,3.12,0,0,1,.9,3.43,3.18,3.18,0,0,1-3,1.84C449.7,703.23,449.5,703.22,449.31,703.22Zm2.61-2.89a3,3,0,0,0-2.76-2.54c-.42,0-.35.26-.33.49q.11,1.62.25,3.24c0,.19,0,.4.21.51C450.2,702.52,451.93,701.4,451.92,700.33Z" transform="translate(-417.48 -670.99)"/><path class="8ccdd945-0f3d-4c1f-bfc7-9aeec3b2356a" d="M439.09,701.28l-1.72.3c-.73.13-.52.77-.6,1.2s-.25.66-.76.61-.57-.2-.49-.63c.31-1.7.6-3.4.89-5.11a.53.53,0,0,1,.45-.52c.66-.12,1.32-.24,2-.4.39-.1.48.12.58.41a47.78,47.78,0,0,1,1.64,5.35c.07.3.24.65-.33.74s-.81.1-.86-.52a9.74,9.74,0,0,0-.26-1.05C439.54,701.32,439.36,701.19,439.09,701.28Zm-1.4-1c1-.08,1.35-.19,1.34-.48,0-.59-.64-1.69-.94-1.68-.53,0-.88.83-.88,1.84C437.22,700.41,437.43,700.36,437.69,700.31Z" transform="translate(-417.48 -670.99)"/><path class="27d7eb01-d568-4576-8826-0ecf8002093c" d="M464.45,703h-.67c-1.33,0-1.81-.48-1.92-1.8a22.06,22.06,0,0,1,.38-4.41c.07-.58.54-.35.86-.37.48,0,.34.35.31.59-.14,1.16-.31,2.32-.44,3.49s.05,1.23,1.1,1.24h.33c2.14,0,2.17,0,1.83-2.15-.13-.83-.32-1.64-.48-2.46-.06-.32-.15-.64.36-.63.34,0,.74-.28.87.4a34.76,34.76,0,0,1,.59,3.71c.12,1.66-.38,2.24-2,2.38-.36,0-.72,0-1.09,0Z" transform="translate(-417.48 -670.99)"/><path class="27d7eb01-d568-4576-8826-0ecf8002093c" d="M484.33,697.7c0-.25,0-.5-.06-.75-.07-.44-.06-.74.55-.75s.68.14.71.65c.1,1.73.24,3.45.38,5.18,0,.4.07.68-.5.71s-.67-.11-.72-.62c-.15-1.74-.17-1.67-1.8-1.53-1,.09-.85.6-.79,1.25,0,.31.38.8-.34.88-.49.06-.76,0-.8-.59-.1-1.62-.27-3.23-.43-4.84,0-.4,0-.68.52-.68s.78,0,.75.58c0,.19,0,.39,0,.59.07,1.69.06,1.66,1.7,1.53.7-.06,1-.27.85-1A3.52,3.52,0,0,1,484.33,697.7Z" transform="translate(-417.48 -670.99)"/><path class="21e4c299-81dd-4ff5-9577-2d83feed56af" d="M486.8,699.24c0-.75-.07-1.5-.13-2.25,0-.44,0-.66.56-.66.92,0,1.84,0,2.76-.08.52,0,.58.22.6.64s-.11.61-.56.58a9.48,9.48,0,0,0-1.09,0c-1.06.05-1,.05-.94,1.09,0,.5.24.6.68.53s.78-.06,1.16-.11.84,0,.88.63-.35.58-.73.61l-1.33.11c-.38,0-.61.12-.56.6s.2.67.67.6.94-.12,1.4-.22.71-.09.82.47-.1.67-.55.79a11.53,11.53,0,0,1-2.9.27c-.43,0-.51-.2-.53-.55-.06-1-.12-2.06-.19-3.09Z" transform="translate(-417.48 -670.99)"/><path class="21e4c299-81dd-4ff5-9577-2d83feed56af" d="M458.74,709.86c0-.86-.07-1.73-.15-2.59,0-.44.09-.59.54-.59.86,0,1.73,0,2.59-.12.55,0,.72.16.75.69s-.26.57-.66.56-.84.07-1.25,0c-.62-.06-.69.2-.71.77,0,.79.29,1,1,.82.32-.07.67,0,1-.09s.72,0,.75.56-.25.64-.69.65-.83.1-1.25.1-.67.15-.65.69.4.57.78.53a12.37,12.37,0,0,0,1.4-.23c.36-.08.6,0,.65.39s.17.7-.37.83a11.76,11.76,0,0,1-3.07.31c-.42,0-.51-.2-.53-.56,0-.92-.11-1.84-.16-2.76Z" transform="translate(-417.48 -670.99)"/><path class="27d7eb01-d568-4576-8826-0ecf8002093c" d="M461,720.28c0,4.56-2.14,7.74-5.54,10.21-.36.26-.75.36-1,0s0-.68.35-.9a12.33,12.33,0,0,0,4.06-4.69,11,11,0,0,0,.86-6.21c-.05-.42-.22-.89.42-1s.66.41.71.82C460.87,719.17,460.91,719.84,461,720.28Z" transform="translate(-417.48 -670.99)"/><path class="27d7eb01-d568-4576-8826-0ecf8002093c" d="M459.26,697.31l1.08,0c.39,0,.76-.12.78.52s-.18.73-.71.69-.78.1-1.16.06c-.71-.08-.76.26-.69.83.12,1.06.1,1.06,1.16.95.48-.05,1-.28,1,.6,0,.39-.1.58-.49.59-.19,0-.39,0-.58,0-.79,0-1,.33-.84,1.06.13.49.1.85-.58.87-.41,0-.53-.09-.56-.49-.13-1.61-.27-3.22-.45-4.82-.06-.58.12-.79.7-.76a11.52,11.52,0,0,0,1.33-.08Z" transform="translate(-417.48 -670.99)"/><path class="27d7eb01-d568-4576-8826-0ecf8002093c" d="M479.86,697.12c.12.64-.33.55-.62.59-1.27.21-1.28.2-1.21,1.5.06,1.09.11,2.17.21,3.26,0,.48-.14.55-.55.58s-.64,0-.67-.49c-.06-1.14-.15-2.28-.2-3.42s-.05-1.14-1.11-1c-.65.11-.76-.17-.8-.69,0-.37.11-.48.46-.52,1.25-.14,2.5-.28,3.74-.46C479.7,696.39,479.93,696.61,479.86,697.12Z" transform="translate(-417.48 -670.99)"/><path class="21e4c299-81dd-4ff5-9577-2d83feed56af" d="M500,700.68c-.3,0-.61,0-.91.09s-.66,0-.71-.53.11-.68.61-.72c1.11-.09,2.22-.21,3.32-.35.45-.06.66,0,.68.55s0,.73-.58.74c-.81,0-1.61.14-2.41.21Z" transform="translate(-417.48 -670.99)"/><path class="21e4c299-81dd-4ff5-9577-2d83feed56af" d="M465,712.13c.56-.11.5.4.56.79.09.57-.35.41-.65.45-.65.08-.6-.37-.66-.79C464.15,712,464.57,712.17,465,712.13Z" transform="translate(-417.48 -670.99)"/><path class="21e4c299-81dd-4ff5-9577-2d83feed56af" d="M467.55,712.64c-.14-.54.21-.47.52-.51.59-.07.69.26.72.74s-.13.49-.51.52C467.65,713.44,467.5,713.13,467.55,712.64Z" transform="translate(-417.48 -670.99)"/><path class="ac8d0115-f1ea-4f9d-9345-2fe787ca9352" d="M471.33,713.39c-.35.07-.53-.15-.56-.66s.14-.49.52-.51c.57,0,.72.28.76.76S471.75,713.35,471.33,713.39Z" transform="translate(-417.48 -670.99)"/><path class="9700e946-428b-4250-b491-ece39b1deabe" d="M446.13,736c3.69.06,7.19.7,10.22,3,5.22,3.88,7,9.42,5.14,15.59-1.7,5.79-5.56,9.68-11.7,10.31-6.47.67-12.3-1-16.26-6.7A14.63,14.63,0,0,1,431,746.71a12.75,12.75,0,0,1,5-7.68C439,736.7,442.48,736.06,446.13,736Zm13.59,12.93c0-.56.42-.28.67-.33.42-.09.92.15,1.45-.39a29,29,0,0,0-5.94-.06.2.2,0,0,0-.16.25.22.22,0,0,0,.24.18l1.09,0c.2,0,.49-.07.43.31a2,2,0,0,0-.81,2.73,2,2,0,0,0,2.68,1C461,752,461.15,750.13,459.73,748.95Zm-10.54-.35c.12-.64.62-.22.92-.33s.51.08.51-.26-.27-.23-.46-.23c-1.45,0-2.9-.08-4.35,0-.36,0-1-.19-1,.32s.68.13,1,.22.77-.3.82.34a2,2,0,0,0-.84,1.56,2.06,2.06,0,0,0,1.63,2.14,1.91,1.91,0,0,0,2.31-1A2.1,2.1,0,0,0,449.19,748.59Zm2.42,4.15c-3.57-.21-3.77.35-4.4,3-.06.26-.24.6,0,.79s.52-.09.76-.2a12.85,12.85,0,0,1,6.93-1c1.35.15,1.32.14,1.79-1.1.22-.6,0-.75-.53-.88A26,26,0,0,0,451.61,752.75Z" transform="translate(-417.48 -670.99)"/><path class="f246c9d5-ecf9-4144-b593-a4b3f1dbf7d0" d="M453,770.86a82.05,82.05,0,0,0,.5,13.21c.11.9-.13,1.2-1,1.4a38.23,38.23,0,0,1-14.13.73,11.27,11.27,0,0,1-4.09-1.65c-.33-.19-.33-.48-.38-.78a48.35,48.35,0,0,1,.74-19.6c.1-.43.2-.87.26-1.31s.27-.48.64-.21a19.61,19.61,0,0,0,16.9,3.3c.72-.18.85,0,.78.67C453.06,768.3,452.95,770,453,770.86Z" transform="translate(-417.48 -670.99)"/><path class="491cad01-f0d1-4e13-9884-679eebbcb7ca" d="M431.47,774.55a13.43,13.43,0,0,1-4.47-4.73,4.29,4.29,0,0,1,.31-4.59,15.49,15.49,0,0,1,5.65-4.6c.15-.08.3-.17.44,0s.08.42,0,.63c-.35,1.72-.7,3.44-1.05,5.16a43.27,43.27,0,0,0-.85,7.38C431.53,774,431.5,774.18,431.47,774.55Z" transform="translate(-417.48 -670.99)"/><path class="980ba65d-3823-4dec-b73c-d7ca86f6d890" d="M474.13,746.42a4.92,4.92,0,0,1,1-2.65,14.55,14.55,0,0,1,11.33-7.54,21.1,21.1,0,0,1,9,.61c5.9,1.8,11.1,8.15,9.11,15.84a16.41,16.41,0,0,1-4.39,7.87,14.48,14.48,0,0,1-5.42,3.26,19,19,0,0,1-9.72,1c-7.23-1.3-11.14-7.82-11.48-13.5a18.71,18.71,0,0,1,.26-4.17c0-.24,0-.57.29-.71.09.44.4.27.66.23,1.6-.27,3.13-.81,4.69-1.2.17,0,.45-.07.37-.34s-.34-.13-.51-.09A33.23,33.23,0,0,0,474.13,746.42Zm3.15,6.4a2.12,2.12,0,0,0,2-2.15,2.06,2.06,0,0,0-2.24-2.06,2.11,2.11,0,0,0-2,2A2.19,2.19,0,0,0,477.27,752.82Zm8.42-2.55a2.08,2.08,0,0,0,1.92,2.12,2.18,2.18,0,0,0,2.28-2.16,2.1,2.1,0,0,0-2-2.05A2,2,0,0,0,485.7,750.28Zm-5.34,3.48a1.37,1.37,0,0,0,1.26.45,20.86,20.86,0,0,1,4.5.22c.2.05.48.26.57,0s-.25-.38-.48-.44C484.35,753.46,482.47,753.75,480.36,753.76ZM491.19,747c0-.37-.34-.45-.59-.51-1.51-.39-3-.75-4.54-1.12-.17,0-.42-.17-.49.12s.2.29.38.33c1.45.4,2.9.81,4.35,1.19A1.2,1.2,0,0,0,491.19,747Z" transform="translate(-417.48 -670.99)"/><path class="a1288ac0-b544-4b6e-84b0-f83e33fc0a81" d="M500.65,762.34c.26,1.28.49,2.47.74,3.66a43.72,43.72,0,0,1,1.05,10.37,74.2,74.2,0,0,1-.65,7.49c-.06.46-.36.64-.71.85a13.66,13.66,0,0,1-6.8,1.77,38.41,38.41,0,0,1-11-1c-1.24-.3-1.24-.31-1.11-1.55a101.4,101.4,0,0,0,.56-11.19,48.63,48.63,0,0,0-.36-6c-.13-1-.14-1,.8-.74A20.06,20.06,0,0,0,500,762.77Z" transform="translate(-417.48 -670.99)"/><path class="f246c9d5-ecf9-4144-b593-a4b3f1dbf7d0" d="M481,772.81c0,.71,0,1.42,0,2.13,0,.13,0,.3-.2.29s-.18-.18-.17-.31c.05-.69.11-1.37.17-2.06Z" transform="translate(-417.48 -670.99)"/><path class="6f93bbb2-8112-473a-b71f-5e815541c530" d="M471.06,697.57c.62.07,1.56-.11,1.76.83s-.76,1.1-1.37,1.4c-1.32.65-1.33.62-1.47-.83,0-.11,0-.22,0-.33C469.89,697.36,469.79,697.6,471.06,697.57Z" transform="translate(-417.48 -670.99)"/><path class="6f93bbb2-8112-473a-b71f-5e815541c530" d="M494.31,697.58c.59,0,1.53-.08,1.71.86s-.74,1.06-1.34,1.35c-1.34.66-1.35.64-1.51-.86l0-.25C493,697.57,493,697.57,494.31,697.58Z" transform="translate(-417.48 -670.99)"/><path class="491cad01-f0d1-4e13-9884-679eebbcb7ca" d="M447.13,712.58a1.88,1.88,0,0,1-2-2,2.84,2.84,0,0,1,2.78-2.67,1.89,1.89,0,0,1,2,2.06A2.67,2.67,0,0,1,447.13,712.58Z" transform="translate(-417.48 -670.99)"/><path class="6f93bbb2-8112-473a-b71f-5e815541c530" d="M454.62,707.88c.57,0,1.5,0,1.67.88s-.8,1.1-1.41,1.38c-1.31.59-1.33.56-1.48-.85l0-.25C453.27,707.87,453.27,707.87,454.62,707.88Z" transform="translate(-417.48 -670.99)"/><path class="6f93bbb2-8112-473a-b71f-5e815541c530" d="M451.92,700.33c0,1.08-1.72,2.19-2.64,1.7-.21-.11-.2-.32-.21-.51q-.13-1.62-.25-3.24c0-.24-.09-.48.33-.49A3,3,0,0,1,451.92,700.33Z" transform="translate(-417.48 -670.99)"/><path class="6f93bbb2-8112-473a-b71f-5e815541c530" d="M437.69,700.31c-.26,0-.47.1-.48-.32,0-1,.35-1.81.88-1.84.3,0,.91,1.09.94,1.68C439,700.12,438.71,700.23,437.69,700.31Z" transform="translate(-417.48 -670.99)"/><path class="33ef9a9c-0acc-4592-8d43-059da03e8878" d="M451.61,752.75a26.13,26.13,0,0,1,4.55.57c.55.13.76.28.53.88-.46,1.25-.44,1.26-1.79,1.1a12.85,12.85,0,0,0-6.93,1c-.24.11-.51.39-.76.2s-.06-.53,0-.79C447.84,753.09,448,752.54,451.61,752.75Z" transform="translate(-417.48 -670.99)"/><path class="cf6342f9-15df-409e-a92e-fe5913908680" d="M449.19,748.59a2.1,2.1,0,0,1,.55,2.7,1.91,1.91,0,0,1-2.31,1,2.06,2.06,0,0,1-1.63-2.14,2,2,0,0,1,.84-1.56.57.57,0,0,0,.48-.26c.46-.59.93-.69,1.42,0A.7.7,0,0,0,449.19,748.59Z" transform="translate(-417.48 -670.99)"/><path class="cf6342f9-15df-409e-a92e-fe5913908680" d="M459.73,748.95c1.43,1.18,1.25,3-.36,3.69a2,2,0,0,1-2.68-1,2,2,0,0,1,.81-2.73A3.78,3.78,0,0,1,459.73,748.95Z" transform="translate(-417.48 -670.99)"/><path class="9a8e6239-c6e8-4b18-8e6b-e550a6596fc9" d="M459.73,748.95a3.78,3.78,0,0,0-2.23,0c.06-.38-.22-.3-.43-.31l-1.09,0a.22.22,0,0,1-.24-.18.2.2,0,0,1,.16-.25,29,29,0,0,1,5.94.06c-.54.54-1,.3-1.45.39C460.15,748.67,459.72,748.39,459.73,748.95Z" transform="translate(-417.48 -670.99)"/><path class="9a8e6239-c6e8-4b18-8e6b-e550a6596fc9" d="M449.19,748.59a.7.7,0,0,1-.65-.28c-.5-.65-1-.55-1.42,0a.57.57,0,0,1-.48.26c0-.64-.54-.27-.82-.34s-1,.14-1-.22.68-.31,1-.32c1.45,0,2.9,0,4.35,0,.19,0,.46,0,.46.23s-.32.2-.51.26S449.3,748,449.19,748.59Z" transform="translate(-417.48 -670.99)"/><path class="33ef9a9c-0acc-4592-8d43-059da03e8878" d="M477.27,752.82a2.19,2.19,0,0,1-2.27-2.16,2.11,2.11,0,0,1,2-2,2.06,2.06,0,0,1,2.24,2.06A2.12,2.12,0,0,1,477.27,752.82Z" transform="translate(-417.48 -670.99)"/><path class="cf6342f9-15df-409e-a92e-fe5913908680" d="M485.7,750.28a2,2,0,0,1,2.19-2.09,2.1,2.1,0,0,1,2,2.05,2.18,2.18,0,0,1-2.28,2.16A2.08,2.08,0,0,1,485.7,750.28Z" transform="translate(-417.48 -670.99)"/><path class="9a8e6239-c6e8-4b18-8e6b-e550a6596fc9" d="M480.36,753.76c2.11,0,4-.3,5.85.19.22.06.58.11.48.44s-.37.09-.57,0a20.86,20.86,0,0,0-4.5-.22A1.37,1.37,0,0,1,480.36,753.76Z" transform="translate(-417.48 -670.99)"/><path class="9a8e6239-c6e8-4b18-8e6b-e550a6596fc9" d="M491.19,747a1.2,1.2,0,0,1-.88,0c-1.45-.38-2.9-.79-4.35-1.19-.18,0-.44-.07-.38-.33s.31-.16.49-.12c1.52.37,3,.73,4.54,1.12C490.85,746.56,491.15,746.63,491.19,747Z" transform="translate(-417.48 -670.99)"/><path class="9a8e6239-c6e8-4b18-8e6b-e550a6596fc9" d="M474.13,746.42a33.23,33.23,0,0,1,5.22-1.42c.17,0,.43-.16.51.09s-.2.3-.37.34c-1.57.39-3.09.94-4.69,1.2-.25,0-.57.21-.66-.23Z" transform="translate(-417.48 -670.99)"/></svg>