<svg id="1ae819e7-8784-40df-8ec3-60200baa1f0a" data-name="Capa 1" xmlns="http://www.w3.org/2000/svg" viewBox="0 0 213.73 309.77"><defs><style>.\39 0549f30-b351-4d92-a32f-251f93d0e557{fill:#232323;}.\37 c333275-1c81-4a8f-ae8f-c1980add581a{fill:#fefefe;}.\30 c9158d5-8ff8-45c2-aea1-9cd74f5db27b{fill:#131511;}.\30 60b0199-79f5-444e-a8f2-ea1ec04f4357{fill:#141414;}.\30 1d7429d-a6ee-432b-8454-3ce4c815f513{fill:#1b1c1c;}.\36 a56853e-13a4-49f3-a2be-8486d3bd4654{fill:#1e1e1e;}.e6fb7594-a6d8-413f-9534-9eef6723fbb3{fill:#bfbfbf;}.f3f3baae-7a5f-4c74-aac7-678239ea056e{fill:#777;}.\32 749d146-5654-432d-b90b-211529b01245{fill:#f7cca0;}.ec42301c-f6c6-4f55-8390-e8df11c4b3eb{fill:#509541;}.\39 29b7f49-f5b4-4e52-9aae-e68844983001{fill:#4a3b2f;}.\39 715f8ed-b674-4d66-9a94-1413da1e3d35{fill:#96b5c7;}.e6a99ebe-c950-4b85-8a6d-1392812635fb{fill:#f8f7f8;}.\35 787f389-bae0-4523-991c-aace79e8203b{fill:#efefef;}.\36 d97d5ef-9a0f-4eac-b019-d5291df3b8b8{fill:#18120b;}</style></defs><title>card-31</title><path class="90549f30-b351-4d92-a32f-251f93d0e557" d="M534.44,342.08q0,71.48,0,143a22.45,22.45,0,0,1-.19,3.48c-.91,5.79-3.94,8.38-9.85,8.39q-20.62,0-41.24,0H331.93c-7.89,0-11.21-3.31-11.21-11.26q0-143.72,0-287.44c0-7.44,2.86-10.47,10.23-11,1-.07,2-.09,3-.09H521.4c1.08,0,2.16,0,3.24.12,6.85.49,9.79,3.65,9.8,10.58Q534.45,270,534.44,342.08Zm-4.32.09q0-71.5,0-143c0-.83,0-1.67,0-2.5q-.32-4.74-5-5.11c-1.16-.09-2.33-.08-3.5-.08H332.83c-6.73,0-7.85,1.15-7.85,7.82q0,143,0,286c0,5.76,1.52,7.32,7.16,7.32h190.5c.83,0,1.67,0,2.5,0a4.77,4.77,0,0,0,4.84-4.45,26.25,26.25,0,0,0,.14-3.49Q530.13,413.42,530.12,342.17Z" transform="translate(-320.71 -187.17)"/><path class="7c333275-1c81-4a8f-ae8f-c1980add581a" d="M530.12,342.17q0,71.25,0,142.5a26.25,26.25,0,0,1-.14,3.49,4.77,4.77,0,0,1-4.84,4.45c-.83,0-1.67,0-2.5,0H332.14c-5.64,0-7.16-1.55-7.16-7.32q0-143,0-286c0-6.67,1.12-7.82,7.85-7.82H521.57c1.17,0,2.34,0,3.5.08q4.71.36,5,5.11c.06.83,0,1.67,0,2.5Q530.12,270.67,530.12,342.17Zm-86.63-71.09a6.76,6.76,0,0,0-5-6.36,8.89,8.89,0,0,0-9.59,4.17,8,8,0,0,0,.56,9.06c2.19,2.62,5,2.73,7.95,1.95a8.39,8.39,0,0,0,6-7.38c.43-.18.59.07.62.44.59,7.36,6.44,8.77,12.75,6.74,1.4-.45,1.11-1,.74-2-.57-1.43-1.49-.58-2.27-.41-2.46.54-5,1.21-7-.88a4.87,4.87,0,0,1-.6-6,4.38,4.38,0,0,1,6-1.27c1.4.81,2.1.26,2.6-.68.58-1.08-.67-1.36-1.28-1.73-3.65-2.24-8.21-.67-10.32,3.41C444.47,270.56,444.83,272.08,443.49,271.09ZM400.62,430l0-.94h.88c.19,1.15.32,2.31.59,3.44a1.73,1.73,0,0,0,2.1,1.33,1.58,1.58,0,0,0,1.45-1.74,27.22,27.22,0,0,0-.33-3c-1.54-10.22-2.13-20.53-2.68-30.84A2.46,2.46,0,0,1,404,395.5c6.17-3.1,10.52-8.1,13.77-14.05,7.67-14,6.52-33.85-9.45-45.26-10.22-7.3-21.71-8.34-33.64-6.49a33,33,0,0,0-27.9,26.67c-1.51,8.7.59,16.85,4.9,24.47.47.84,1.26,1.54.79,2.72-3.34,8.43-4.67,17.31-5.77,26.23-.94,7.69-1.44,15.42-1.75,23.16-.06,1.38.41,2.36,1.9,2.34s1.7-1,1.77-2.22a10.43,10.43,0,0,1,.75-4.45c.39,3.25.75,5.88,1,8.51.11,1.17.39,2.22,1.57,2.59,4.73,1.46,4.49,4.83,3.43,8.59-.27,1-.41,2-.61,2.93a181,181,0,0,1-6.35,23.57c-.73,2.13-.18,3.29,1.46,3.28,1.44,0,1.72-1.14,2.07-2.14A172.61,172.61,0,0,0,359,448.72c.25-1.47.08-3.29.89-4.33,1-1.31,2.71.19,4.08.37a84.09,84.09,0,0,0,26.59-.82c1.62-.3,1.93,0,2.08,1.54,1,9.7,1.69,19.41,1.94,29.15,0,1.38,0,2.93,1.91,2.88s1.9-1.68,1.84-3.15c-.41-9.65-.93-19.3-2-28.9-.25-2.22.12-3.17,2.33-3.49,2-.29,2.78-1.51,2.51-3.57-.23-1.73-.19-3.49-.27-5.24A4.08,4.08,0,0,0,400.62,430Zm58-10.43c-.41,6.15-.69,12.31-1.28,18.44-.23,2.4.42,3.73,2.79,4,1.86.24,2.14,1.23,1.93,2.92-1,8.19-1.43,16.42-1.84,24.65-.1,2-.15,4-.16,6a1.69,1.69,0,0,0,1.91,1.82,1.66,1.66,0,0,0,1.71-1.77c0-1,.14-2,.17-3,.23-8.91.95-17.79,1.72-26.67.16-1.86.61-2.65,2.69-2a35.83,35.83,0,0,0,5.65.9,67.57,67.57,0,0,0,21.87-.51c2.77-.56,2.92.34,3.22,2.34a162,162,0,0,0,7.49,29.18c.48,1.38,1.09,2.65,2.79,2,1.54-.6,1.19-1.91.75-3.19a176.31,176.31,0,0,1-7.67-30.17c-.27-1.7-.13-2.58,1.54-3.19a6.58,6.58,0,0,0,4.74-6.75,79.9,79.9,0,0,1,1-8.74,22.45,22.45,0,0,1,1.2,6.63c.09,1.31-.08,2.94,1.9,2.83s1.85-1.75,1.75-3.19c-.32-4.9-.57-9.81-1-14.7-1-11.28-2.21-22.53-6.24-33.24a2.58,2.58,0,0,1,.48-2.72,39.38,39.38,0,0,0,5-9.73c7.46-20.71-5.22-38.17-21.25-43a47.45,47.45,0,0,0-28.29.21c-11.34,3.52-19.57,11-22.83,22.25-4.47,15.43.47,30.22,13.69,40.36.69.53,1.6.82,1.57,2-.18,6.58-.24,13.18-2.61,19.44-1.49,3.93-3.29,4.39-6.57,1.85-4-3.11-6.68-7.38-9.43-11.54-2.22-3.36-2.19-3.37-5.35-.75a6.31,6.31,0,0,1-1.22.86c-1.12.55-1.83,1.34-1.15,2.56a1.88,1.88,0,0,0,3,.55c1.5-1.13,2.09-.49,3,.83,2.87,4.3,5.83,8.56,10.27,11.45,4,2.59,7.83,1.59,10-2.61a24.28,24.28,0,0,0,2.51-8.56,1.76,1.76,0,0,1,.49-.06l.1.94ZM437,241.95a8.64,8.64,0,0,0-8.86,8.28,6.94,6.94,0,0,0,6.79,7.38,8.8,8.8,0,0,0,9.11-8.6A6.77,6.77,0,0,0,437,241.95Zm42.5,22.62a8.77,8.77,0,0,0-9,8.47,6.89,6.89,0,0,0,6.93,7.23c4.9,0,9-3.83,9-8.46A7,7,0,0,0,479.54,264.56ZM371.15,241.95a8.49,8.49,0,0,0-8.86,8.22c-.09,4.36,2.78,7.44,6.93,7.44a8.81,8.81,0,0,0,8.91-8.54A6.76,6.76,0,0,0,371.15,241.95Zm124.9,32.73c.86-.56,1.26-.83,1.68-1.08,1.94-1.16,3.19-2.73,2.72-5.12s-2.19-3.2-4.25-3.66c-2.22-.49-4.48-.16-6.71-.21-.93,0-1.14.43-1.07,1.23.36,4.14.73,8.28,1.06,12.43.06.79.45,1,1.13.88s1.65.3,1.48-.74c-.41-2.58,1-1.72,2.27-1.36,1.6.45,3.21.83,4.82,1.26.8.22,1.56.65,1.87-.71.26-1.14,0-1.71-1.13-1.95S497.7,275.09,496.05,274.68Zm-25.64-29.09c.12,1.24.24,2.48.34,3.72s.15,2.49.28,3.72c.54,4.88-.17,3.88,4.42,4a8.06,8.06,0,0,0,3.58-.92c3.68-1.71,4.92-5.44,2.78-8.89-1.84-3-4.41-4.89-8.12-4.92C470.26,242.27,470.26,242.22,470.41,245.58ZM416.48,265c-2.41-.71-2.85.58-2.52,3,.46,3.37.67,6.77,1,10.16.07.77,0,1.48,1.14,1.48,2.24,0,4.46.18,6.59-.83,3.67-1.75,4.92-5.43,2.77-8.9C423.47,266.78,420.75,264.77,416.48,265ZM393,278.12c0,1-.49,1.87.8,1.93.93,0,1.74.21,1.92-1.19.11-.9-.18-2.28.91-2.64a10.42,10.42,0,0,1,4.62-.66c1.23.2.79,2,1.24,3a.78.78,0,0,1,0,.25c.1,1.22.83,1.13,1.77,1s1.08-.62.91-1.54a70.1,70.1,0,0,0-2.71-9.29c-1.2-3.66-1.21-3.67-5-2.92-1.06.21-2.33-.08-2.59,1.65C394.32,271.26,393.59,274.83,393,278.12Zm-7-24.51c-4.29,0-4.28,0-3.64-4.35.28-1.89.49-3.79.73-5.69.09-.69.52-1.56-.79-1.58-.94,0-1.79-.12-1.89,1.28-.16,2.15-.55,4.29-.79,6.44-.6,5.34.71,6.78,6.1,6.75,1,0,2-.21,3-.23,2.58,0,3.52-1.6,3.54-3.88A49.6,49.6,0,0,0,391,243c-.24-1.31-1.15-.91-1.93-.85-.94.07-.94.61-.77,1.4.44,2,.85,4.07,1.13,6.13C390,253.58,389.91,253.59,386,253.6Zm-25,12.27c.34-1,0-1.29-1-1.33a13.65,13.65,0,0,0-8.9,2.59c-1.3.94-2.48,2.14-1.94,4s2.18,2.36,3.92,2.49,3.31.17,5,.32c.44,0,1.1-.09,1.27.52s-.43,1-.88,1.34a9.58,9.58,0,0,1-3.94,1.44c-1.22.2-1.08,1-1,1.85.09,1.15.86,1,1.63.88a12.26,12.26,0,0,0,5.8-2.69,3.41,3.41,0,0,0,1.4-3.5,3.47,3.47,0,0,0-2.68-2.33c-1.81-.55-3.63-.22-5.45-.37-.74-.06-1.77.07-2-.68-.27-.93.75-1.35,1.45-1.77a10.22,10.22,0,0,1,5.76-1.24C360.56,267.39,361.23,267.11,361.07,265.87Zm49.5-23.9a11.93,11.93,0,0,0-7.48,2.22c-1.4.91-2.7,2.07-2.3,4.05.44,2.17,2.28,2.49,4,2.72,1.56.21,3.16.12,4.74.18.57,0,1.28,0,1.43.68s-.5,1-1,1.31a9.25,9.25,0,0,1-4,1.41c-1.14.14-1,.82-1,1.6.07,1,.47,1.25,1.46,1.1a12.25,12.25,0,0,0,5.27-2.1c1.44-1,2.63-2.3,2.09-4.16s-2.2-2.37-4-2.48c-1.58-.09-3.16-.07-4.74-.18-.54,0-1.3-.06-1.39-.79s.46-1.05,1-1.35A10.9,10.9,0,0,1,411,244.6c.68,0,1.39.25,1.69-.89C413.36,241,411.32,242.24,410.56,242Zm16,10.16c-.23-3.28-.48-6.1-.6-8.92-.05-1.2-.32-1.81-1.72-1.71-1.6.11-1.06,1.14-1,1.95a16.67,16.67,0,0,0,.2,2.48c.25,1.43,0,2.16-1.73,2.37-3.56.44-3.54.58-3.87-3,0-.33-.09-.66-.1-1,0-1,0-1.94-1.56-1.84s-1.2,1.06-1.14,1.88q.37,4.84.84,9.68c.09.88-.25,2.11,1.49,1.91s1.09-1.26,1.18-2.18-.72-2,.84-2.45c3.24-1,4.31-.44,4.68,2.82,0,.08,0,.17,0,.25.05,1,.32,1.73,1.65,1.53s1.24-.79,1.07-1.73S426.61,252.49,426.58,252.13Zm24.86,4.26a20.11,20.11,0,0,0,2.49,0c3.58-.45,4.36-1.41,4.23-5a63.91,63.91,0,0,0-1.16-8.13c-.19-1.15-.81-1.23-1.76-1.15-1.26.11-1.19.77-1,1.72.33,1.37.54,2.77.77,4.15,1,5.84,1,5.81-4.83,5.7-1.79,0-2.42-.71-2.19-2.39.35-2.55.71-5.1,1-7.65.08-.64.55-1.58-.78-1.61-1,0-1.77-.08-1.88,1.3-.18,2.32-.67,4.61-.83,6.92C445.22,255.25,446.4,256.46,451.44,256.39Zm-73.16,8.13a6.72,6.72,0,0,1-1.36,0c-2.06-.27-2.79.49-2.45,2.6a57,57,0,0,1,.44,6c.34,6.44,1.13,7,7.54,5.26a1.56,1.56,0,0,1,.24-.07c1-.1,1.48-.4,1.28-1.57-.23-1.32-1-1.32-2-1.13s-2.12.34-3.19.46-1.16-.58-1.25-1.41.34-1.16,1.1-1.21c1-.08,2-.17,3-.28.84-.09,1.93.24,1.7-1.36-.17-1.24-.74-1.49-1.83-1.28-.56.11-1.17,0-1.74.08-1.54.28-2.35,0-2.47-1.88-.16-2.39,1.5-1.35,2.46-1.57a6.74,6.74,0,0,1,2-.05c.94.07,1.34-.23,1.31-1.25s-.26-1.59-1.4-1.49C380.74,264.39,379.82,264.42,378.28,264.52Zm-14.36,4.63a18.93,18.93,0,0,0,.27,4.22c.52,1.81-.93,4.42,1.19,5.32,1.8.76,4.09.18,6.13-.31a3.15,3.15,0,0,1,.47-.15c1.09-.08,1.25-.6,1.13-1.65-.15-1.3-.83-1.2-1.71-1s-2,.34-2.94.48-1.52-.13-1.57-1.3c0-1,.33-1.31,1.23-1.36,1.16-.06,2.32-.22,3.48-.28,1,0,1-.68.93-1.39s-.1-1.35-1.08-1.27-1.83.05-2.74.16c-1.3.15-2.14.07-2.26-1.68s.74-1.87,2-1.82c.83,0,1.66-.06,2.49,0s1.45-.2,1.31-1.26c-.12-.9-.29-1.63-1.48-1.46-.82.11-1.66.11-2.49.14C363.7,264.63,363.7,264.63,363.92,269.15Zm79,27.17c0-1.17,0-2.33,0-3.5,0-1,.27-2.23-1.18-2.3s-1.26,1.22-1.32,2.19a42.47,42.47,0,0,0,5,23.09c1.12,2.13,2.46,4.14,3.74,6.19a1.25,1.25,0,0,0,1.93.44c.66-.47.52-1.16.13-1.78s-.85-1.23-1.26-1.86C445.62,312,442.9,304.56,443,296.32Zm-93-55.27c-.64.22-.93.82-1.28,1.34-.68,1,.27,1.39.86,1.65,4.21,1.84,5.27,5.25,4.91,9.45-.06.74.07,1.49,0,2.24,0,1,.43,1.22,1.36,1.27,1.95.1,1.32-1.26,1.32-2.2,0-3.82-1.45-8,3-10.61.79-.45,1.46-1,.49-2.15s-1.66-.43-2.39.28A16.42,16.42,0,0,0,357,243.5c-1,1.25-2,1.37-3.28.23A41,41,0,0,0,349.94,241ZM466.55,265c-2.23.26-4.46.47-6.68.81-.84.13-2.08-.13-1.87,1.56s1.27,1.32,2.17,1.12c1.39-.3,1.89,0,1.91,1.54,0,2.49.33,5,.43,7.46,0,1.15.17,1.83,1.66,1.75s1.25-.91,1.2-1.82c-.15-2.4-.12-4.83-.48-7.2-.31-2.06.44-2.75,2.34-2.59,1.62.13,2.13-.66,1.67-2.09S467.32,265.22,466.55,265Zm-3.14-7.83a15,15,0,0,0,5.52-.86c.8-.27,1.84-.22,1.25-1.75-.47-1.23-1-1.22-2-.9s-2.09.54-3.13.8c-1.36.35-2-.06-2-1.58,0-2.49-.22-5-.4-7.48-.06-.88.39-2.06-1.37-2S460,244.7,460,245.64c.11,2.91.47,5.82.42,8.72C460.36,256.76,461.07,257.81,463.4,257.13Zm42.38,19.41c-.9-.12-1.39.07-1.32,1.15s.43,1.65,1.61,1.56c.77-.06,1.52,0,1.28-1.15C507.18,277.17,507.06,276.25,505.78,276.54Z" transform="translate(-320.71 -187.17)"/><path class="0c9158d5-8ff8-45c2-aea1-9cd74f5db27b" d="M458.65,408.5l-.1-.94a.78.78,0,0,0,.13-1.2.41.41,0,0,0-.4,0,1.21,1.21,0,0,0-.22,1.29,24.28,24.28,0,0,1-2.51,8.56c-2.22,4.19-6.06,5.2-10,2.61-4.44-2.89-7.4-7.15-10.27-11.45-.88-1.32-1.47-2-3-.83a1.88,1.88,0,0,1-3-.55c-.67-1.22,0-2,1.15-2.56a6.31,6.31,0,0,0,1.22-.86c3.16-2.62,3.13-2.61,5.35.75,2.75,4.16,5.41,8.43,9.43,11.54,3.28,2.54,5.08,2.08,6.57-1.85,2.37-6.26,2.43-12.86,2.61-19.44,0-1.2-.88-1.49-1.57-2-13.23-10.15-18.17-24.94-13.69-40.36,3.27-11.26,11.5-18.73,22.83-22.25a47.45,47.45,0,0,1,28.29-.21c16,4.85,28.71,22.31,21.25,43a39.38,39.38,0,0,1-5,9.73,2.58,2.58,0,0,0-.48,2.72c4,10.71,5.25,22,6.24,33.24.43,4.89.68,9.8,1,14.7.09,1.44.31,3.07-1.75,3.19s-1.82-1.52-1.9-2.83a22.45,22.45,0,0,0-1.2-6.63,79.9,79.9,0,0,0-1,8.74,6.58,6.58,0,0,1-4.74,6.75c-1.67.61-1.81,1.49-1.54,3.19A176.31,176.31,0,0,0,510,474.71c.44,1.28.79,2.59-.75,3.19-1.69.66-2.31-.61-2.79-2A162,162,0,0,1,499,446.72c-.3-2-.45-2.9-3.22-2.34a67.57,67.57,0,0,1-21.87.51,35.83,35.83,0,0,1-5.65-.9c-2.08-.61-2.53.18-2.69,2-.78,8.88-1.49,17.76-1.72,26.67,0,1-.12,2-.17,3a1.66,1.66,0,0,1-1.71,1.77,1.69,1.69,0,0,1-1.91-1.82c0-2,.06-4,.16-6,.42-8.23.84-16.47,1.84-24.65.21-1.69-.07-2.68-1.93-2.92-2.37-.3-3-1.64-2.79-4,.58-6.13.87-12.29,1.28-18.44A32.79,32.79,0,0,0,458.65,408.5ZM443.2,353.17l-.16,1c-.21,2.32-.54,4.63-.61,6.95C442,374.9,450.5,387.69,463,392.25a34.33,34.33,0,0,0,17.23,1.29c11.72-1.79,21.23-7,26.94-17.88,7.29-13.92,5-28.25-6.2-37.81-7.28-6.23-16-7.72-25.21-7.53C459.94,330.67,447.9,339.1,443.2,353.17Zm58.55,35.22c-1.68,1.09-3.28,2.28-5,3.23-10.41,5.67-21.35,7.67-33,4.54-1.48-.4-1.93-.14-1.73,1.39.23,1.73.32,3.47.46,5.21.9,11.16.09,22.27-.91,33.37-.11,1.22-.16,2.11,1.51,2.53a82.64,82.64,0,0,0,31.67,1.8,18.72,18.72,0,0,0,8.67-3.64c1.72-1.29,1.09-3.58,1.34-5.4A109.31,109.31,0,0,0,501.74,388.39Z" transform="translate(-320.71 -187.17)"/><path class="060b0199-79f5-444e-a8f2-ea1ec04f4357" d="M400.58,429.09l0,.94a5.27,5.27,0,0,0,.3,3.13c.08,1.75,0,3.51.27,5.24.27,2.06-.55,3.29-2.51,3.57-2.21.32-2.58,1.27-2.33,3.49,1.08,9.6,1.6,19.25,2,28.9.06,1.46.18,3.09-1.84,3.15s-1.88-1.49-1.91-2.88c-.25-9.74-1-19.45-1.94-29.15-.15-1.51-.47-1.84-2.08-1.54a84.09,84.09,0,0,1-26.59.82c-1.37-.18-3-1.68-4.08-.37-.82,1-.64,2.85-.89,4.33A172.61,172.61,0,0,1,351.95,476c-.35,1-.62,2.13-2.07,2.14-1.64,0-2.19-1.14-1.46-3.28a181,181,0,0,0,6.35-23.57c.19-1,.33-2,.61-2.93,1.07-3.75,1.31-7.12-3.43-8.59-1.18-.36-1.46-1.41-1.57-2.59-.25-2.63-.6-5.26-1-8.51a10.43,10.43,0,0,0-.75,4.45c-.07,1.26-.41,2.21-1.77,2.22s-2-1-1.9-2.34c.31-7.74.8-15.47,1.75-23.16,1.1-8.92,2.43-17.8,5.77-26.23.46-1.17-.32-1.88-.79-2.72-4.31-7.62-6.41-15.78-4.9-24.47a33,33,0,0,1,27.9-26.67c11.93-1.86,23.42-.82,33.64,6.49,16,11.41,17.12,31.23,9.45,45.26-3.25,6-7.6,11-13.77,14.05a2.46,2.46,0,0,0-1.43,2.79c.56,10.31,1.15,20.62,2.68,30.84a27.22,27.22,0,0,1,.33,3,1.58,1.58,0,0,1-1.45,1.74,1.73,1.73,0,0,1-2.1-1.33c-.26-1.13-.4-2.29-.59-3.44a18.17,18.17,0,0,0-1-5.84C399.64,425.22,400.76,427.14,400.58,429.09Zm-17.17-96.57a41.25,41.25,0,0,0-7.62.55c-12.55,1.88-22.83,11-25.35,22.71-2.77,12.87,4.2,30.41,19.17,36.77a44.15,44.15,0,0,0,12.23,3.3c12.58,1.45,23.21-1.94,30.83-12.65,8.7-12.21,8.56-29.94-2.37-40.74C402.91,335.14,393.88,332.39,383.41,332.52Zm-30,88a100,100,0,0,0,.7,13.82c.1,1,0,2.05,1,2.66,2.66,1.57,5.4,3.11,8.46,3.53a85.1,85.1,0,0,0,31.22-1.66c2-.47,2.28-1.32,2.13-3.05-.26-3-.4-6-.48-9a185.09,185.09,0,0,1,1.06-26.43c.22-1.88-.43-2.12-2-1.67a25.1,25.1,0,0,1-6.4.94c-11,.22-21.1-2.43-29.76-9.5-1.15-.93-1.49-.53-1.75.63C355.42,400.72,352.94,410.59,353.41,420.51Z" transform="translate(-320.71 -187.17)"/><path class="01d7429d-a6ee-432b-8454-3ce4c815f513" d="M437,241.95a6.77,6.77,0,0,1,7,7.06,8.8,8.8,0,0,1-9.11,8.6,6.94,6.94,0,0,1-6.79-7.38A8.64,8.64,0,0,1,437,241.95Zm-.13,2.61a6.08,6.08,0,0,0-6,5.78c0,2.79,1.78,4.66,4.43,4.59,3.15-.08,6.06-2.87,6.08-5.82A4.35,4.35,0,0,0,436.91,244.56Z" transform="translate(-320.71 -187.17)"/><path class="01d7429d-a6ee-432b-8454-3ce4c815f513" d="M479.54,264.56a7,7,0,0,1,7,7.24c0,4.63-4.12,8.48-9,8.46a6.89,6.89,0,0,1-6.93-7.23A8.77,8.77,0,0,1,479.54,264.56Zm-1.91,13a6.11,6.11,0,0,0,6.13-5.67,4.34,4.34,0,0,0-4.38-4.69c-3.15,0-6.23,3-6.15,6A4.24,4.24,0,0,0,477.64,277.55Z" transform="translate(-320.71 -187.17)"/><path class="01d7429d-a6ee-432b-8454-3ce4c815f513" d="M443.49,272.52a8.39,8.39,0,0,1-6,7.38c-2.93.79-5.76.67-7.95-1.95a8,8,0,0,1-.56-9.06,8.89,8.89,0,0,1,9.59-4.17,6.76,6.76,0,0,1,5,6.36Zm-8.63,5a6.08,6.08,0,0,0,6.09-5.71,4.29,4.29,0,0,0-4.41-4.66,6.21,6.21,0,0,0-6.06,6A4.12,4.12,0,0,0,434.85,277.55Z" transform="translate(-320.71 -187.17)"/><path class="01d7429d-a6ee-432b-8454-3ce4c815f513" d="M371.15,241.95a6.76,6.76,0,0,1,7,7.12,8.81,8.81,0,0,1-8.91,8.54c-4.15,0-7-3.07-6.93-7.44A8.49,8.49,0,0,1,371.15,241.95Zm-6.2,8.48a4.2,4.2,0,0,0,4.28,4.51c3.26,0,6.27-2.85,6.23-5.91a4.27,4.27,0,0,0-4.58-4.46A6.1,6.1,0,0,0,365,250.42Z" transform="translate(-320.71 -187.17)"/><path class="01d7429d-a6ee-432b-8454-3ce4c815f513" d="M496.05,274.68c1.65.42,2.75.73,3.87,1s1.39.81,1.13,1.95c-.31,1.36-1.07.93-1.87.71-1.6-.43-3.22-.81-4.82-1.26-1.26-.35-2.67-1.21-2.27,1.36.16,1-.93.61-1.48.74s-1.06-.09-1.13-.88c-.33-4.14-.7-8.29-1.06-12.43-.07-.8.14-1.25,1.07-1.23,2.24.05,4.49-.28,6.71.21,2.06.46,3.81,1.39,4.25,3.66s-.78,4-2.72,5.12C497.31,273.84,496.91,274.12,496.05,274.68Zm-4.67-4.7c.78.81-1,2.91,1.29,2.93,2.12,0,5.56-2.51,5.21-3.59-.8-2.49-3.08-2-5-2.15C490.24,267,491.74,268.88,491.38,270Z" transform="translate(-320.71 -187.17)"/><path class="01d7429d-a6ee-432b-8454-3ce4c815f513" d="M470.41,245.58c-.15-3.37-.15-3.32,3.29-3.29,3.71,0,6.28,2,8.12,4.92,2.13,3.45.9,7.19-2.78,8.89a8.06,8.06,0,0,1-3.58.92c-4.59-.12-3.88.88-4.42-4-.14-1.24-.18-2.48-.28-3.72S470.53,246.82,470.41,245.58Zm9.67,5c0-2.59-3.21-5.64-5.78-5.55-.76,0-1,.26-1,1,.18,2.23.29,4.48.48,6.71,0,.54-.08,1.18.6,1.52C476.4,255.31,480.08,252.91,480.09,250.61Z" transform="translate(-320.71 -187.17)"/><path class="01d7429d-a6ee-432b-8454-3ce4c815f513" d="M416.48,265c4.26-.26,7,1.74,8.94,4.88,2.15,3.47.9,7.15-2.77,8.9-2.13,1-4.36.83-6.59.83-1.12,0-1.08-.7-1.14-1.48-.29-3.39-.49-6.79-1-10.16C413.63,265.62,414.08,264.33,416.48,265Zm.49,5.89.49,4.95c0,.47-.05,1.05.64,1.13a5.92,5.92,0,0,0,4.62-1.31,3.22,3.22,0,0,0,.77-3.65,5.93,5.93,0,0,0-2.82-3.32c-1.06-.65-2.38-1.41-3.45-.84C416.45,268.3,417.13,269.73,417,270.93Z" transform="translate(-320.71 -187.17)"/><path class="01d7429d-a6ee-432b-8454-3ce4c815f513" d="M393,278.12c.6-3.29,1.34-6.86,1.89-10.47.26-1.73,1.53-1.44,2.59-1.65,3.8-.75,3.8-.74,5,2.92a70.1,70.1,0,0,1,2.71,9.29c.17.92.12,1.35-.91,1.54s-1.66.26-1.77-1a.78.78,0,0,0,0-.25c-.45-1,0-2.79-1.24-3a10.42,10.42,0,0,0-4.62.66c-1.1.35-.8,1.74-.91,2.64-.18,1.41-1,1.23-1.92,1.19C392.5,280,392.95,279.11,393,278.12Zm5.16-5c.42-.76,2.47.8,2.31-1.16-.1-1.18-.12-3.26-1.76-3.32-2.39-.09-1.37,2.31-1.9,3.59C396.38,273.22,397.1,273.27,398.15,273.11Z" transform="translate(-320.71 -187.17)"/><path class="90549f30-b351-4d92-a32f-251f93d0e557" d="M386,253.6c3.89,0,3.93,0,3.39-4-.28-2.06-.69-4.1-1.13-6.13-.17-.79-.16-1.33.77-1.4.78-.06,1.69-.46,1.93.85a49.6,49.6,0,0,1,1.26,9.38c0,2.28-1,3.84-3.54,3.88-1,0-2,.22-3,.23-5.4,0-6.7-1.41-6.1-6.75.24-2.15.63-4.28.79-6.44.1-1.4,1-1.29,1.89-1.28,1.31,0,.87.88.79,1.58-.24,1.9-.45,3.8-.73,5.69C381.74,253.62,381.73,253.62,386,253.6Z" transform="translate(-320.71 -187.17)"/><path class="6a56853e-13a4-49f3-a2be-8486d3bd4654" d="M361.07,265.87c.17,1.24-.5,1.52-1.62,1.49a10.22,10.22,0,0,0-5.76,1.24c-.7.42-1.72.84-1.45,1.77.21.75,1.24.62,2,.68,1.81.15,3.64-.18,5.45.37a3.47,3.47,0,0,1,2.68,2.33,3.41,3.41,0,0,1-1.4,3.5,12.26,12.26,0,0,1-5.8,2.69c-.77.16-1.53.27-1.63-.88-.07-.85-.21-1.65,1-1.85a9.58,9.58,0,0,0,3.94-1.44c.45-.31,1.08-.64.88-1.34s-.82-.48-1.27-.52c-1.65-.15-3.31-.19-5-.32s-3.36-.6-3.92-2.49.65-3,1.94-4a13.65,13.65,0,0,1,8.9-2.59C361.07,264.58,361.41,264.88,361.07,265.87Z" transform="translate(-320.71 -187.17)"/><path class="01d7429d-a6ee-432b-8454-3ce4c815f513" d="M410.56,242c.76.28,2.8-.94,2.09,1.74-.3,1.14-1,.91-1.69.89a10.9,10.9,0,0,0-6.19,1.59c-.49.3-1,.74-1,1.35s.86.75,1.39.79c1.58.11,3.16.09,4.74.18,1.76.1,3.42.65,4,2.48s-.65,3.16-2.09,4.16a12.25,12.25,0,0,1-5.27,2.1c-1,.15-1.39-.14-1.46-1.1-.06-.78-.18-1.45,1-1.6a9.25,9.25,0,0,0,4-1.41c.47-.31,1.12-.64,1-1.31s-.87-.66-1.43-.68c-1.58-.07-3.18,0-4.74-.18-1.73-.23-3.56-.55-4-2.72-.41-2,.9-3.14,2.3-4.05A11.93,11.93,0,0,1,410.56,242Z" transform="translate(-320.71 -187.17)"/><path class="6a56853e-13a4-49f3-a2be-8486d3bd4654" d="M426.58,252.13c0,.36.06,1.2.2,2s.13,1.55-1.07,1.73-1.6-.49-1.65-1.53c0-.08,0-.17,0-.25-.37-3.26-1.44-3.85-4.68-2.82-1.56.5-.75,1.59-.84,2.45s.45,2-1.18,2.18-1.4-1-1.49-1.91q-.48-4.83-.84-9.68c-.06-.83-.41-1.78,1.14-1.88s1.53.81,1.56,1.84c0,.33.07.66.1,1,.33,3.63.31,3.49,3.87,3,1.75-.22,2-.95,1.73-2.37a16.67,16.67,0,0,1-.2-2.48c0-.81-.56-1.84,1-1.95,1.4-.09,1.67.51,1.72,1.71C426.1,246,426.35,248.85,426.58,252.13Z" transform="translate(-320.71 -187.17)"/><path class="6a56853e-13a4-49f3-a2be-8486d3bd4654" d="M451.44,256.39c-5,.06-6.22-1.14-5.88-6.19.16-2.32.65-4.61.83-6.92.11-1.38.92-1.32,1.88-1.3,1.33,0,.85,1,.78,1.61-.31,2.56-.67,5.1-1,7.65-.23,1.68.4,2.36,2.19,2.39,5.8.11,5.83.14,4.83-5.7-.24-1.39-.45-2.79-.77-4.15-.23-.95-.3-1.61,1-1.72.95-.08,1.56,0,1.76,1.15a63.91,63.91,0,0,1,1.16,8.13c.13,3.62-.64,4.58-4.23,5A20.11,20.11,0,0,1,451.44,256.39Z" transform="translate(-320.71 -187.17)"/><path class="6a56853e-13a4-49f3-a2be-8486d3bd4654" d="M378.28,264.52c1.55-.09,2.46-.13,3.37-.21,1.14-.11,1.37.48,1.4,1.49s-.37,1.32-1.31,1.25a6.74,6.74,0,0,0-2,.05c-1,.22-2.62-.83-2.46,1.57.12,1.9.93,2.16,2.47,1.88.57-.1,1.17,0,1.74-.08,1.1-.21,1.66,0,1.83,1.28.22,1.6-.87,1.26-1.7,1.36-1,.11-2,.21-3,.28-.77.06-1.21.3-1.1,1.21s.2,1.53,1.25,1.41,2.14-.26,3.19-.46,1.74-.19,2,1.13c.2,1.17-.32,1.47-1.28,1.57a1.56,1.56,0,0,0-.24.07c-6.41,1.74-7.19,1.18-7.54-5.26a57,57,0,0,0-.44-6c-.34-2.11.39-2.87,2.45-2.6A6.72,6.72,0,0,0,378.28,264.52Z" transform="translate(-320.71 -187.17)"/><path class="01d7429d-a6ee-432b-8454-3ce4c815f513" d="M363.92,269.15c-.22-4.52-.22-4.52,4.42-4.7.83,0,1.67,0,2.49-.14,1.19-.16,1.36.56,1.48,1.46.15,1.07-.42,1.28-1.31,1.26s-1.66.08-2.49,0c-1.3-.06-2.15,0-2,1.82s1,1.82,2.26,1.68c.91-.1,1.83-.08,2.74-.16s1,.56,1.08,1.27.06,1.34-.93,1.39c-1.16.06-2.32.22-3.48.28-.9,0-1.27.36-1.23,1.36,0,1.16.59,1.44,1.57,1.3s2-.3,2.94-.48,1.56-.26,1.71,1c.12,1.05,0,1.58-1.13,1.65a3.15,3.15,0,0,0-.47.15c-2,.49-4.34,1.08-6.13.31-2.13-.9-.68-3.52-1.19-5.32A18.93,18.93,0,0,1,363.92,269.15Z" transform="translate(-320.71 -187.17)"/><path class="6a56853e-13a4-49f3-a2be-8486d3bd4654" d="M443.49,272.52v-1.44c1.34,1,1-.53,1.17-.9,2.11-4.08,6.67-5.64,10.32-3.41.61.37,1.86.65,1.28,1.73-.5.93-1.21,1.48-2.6.68a4.38,4.38,0,0,0-6,1.27,4.87,4.87,0,0,0,.6,6c2.09,2.09,4.58,1.41,7,.88.78-.17,1.71-1,2.27.41.37.94.67,1.53-.74,2-6.3,2-12.16.62-12.75-6.74C444.07,272.6,443.92,272.34,443.49,272.52Z" transform="translate(-320.71 -187.17)"/><path class="6a56853e-13a4-49f3-a2be-8486d3bd4654" d="M443,296.32c-.05,8.24,2.66,15.64,7.08,22.49.41.63.86,1.23,1.26,1.86s.53,1.31-.13,1.78a1.25,1.25,0,0,1-1.93-.44c-1.27-2-2.61-4.06-3.74-6.19a42.47,42.47,0,0,1-5-23.09c.06-1-.16-2.26,1.32-2.19s1.18,1.31,1.18,2.3C442.95,294,443,295.15,443,296.32Z" transform="translate(-320.71 -187.17)"/><path class="6a56853e-13a4-49f3-a2be-8486d3bd4654" d="M349.94,241a41,41,0,0,1,3.76,2.68c1.27,1.14,2.25,1,3.28-.23a16.42,16.42,0,0,1,1.28-1.18c.73-.71,1.31-1.49,2.39-.28s.3,1.7-.49,2.15c-4.47,2.58-3,6.79-3,10.61,0,.95.63,2.3-1.32,2.2-.93,0-1.4-.29-1.36-1.27,0-.75-.1-1.5,0-2.24.36-4.2-.69-7.61-4.91-9.45-.59-.26-1.54-.61-.86-1.65C349,241.87,349.3,241.27,349.94,241Z" transform="translate(-320.71 -187.17)"/><path class="6a56853e-13a4-49f3-a2be-8486d3bd4654" d="M466.55,265c.78.26,1.9-.85,2.35.54s0,2.23-1.67,2.09c-1.9-.16-2.65.53-2.34,2.59.36,2.37.33,4.8.48,7.2.06.91.3,1.74-1.2,1.82s-1.61-.61-1.66-1.75c-.1-2.49-.4-5-.43-7.46,0-1.49-.52-1.84-1.91-1.54-.91.19-2,.52-2.17-1.12s1-1.43,1.87-1.56C462.08,265.43,464.32,265.22,466.55,265Z" transform="translate(-320.71 -187.17)"/><path class="01d7429d-a6ee-432b-8454-3ce4c815f513" d="M463.4,257.13c-2.33.68-3-.37-3-2.77.06-2.9-.3-5.81-.42-8.72,0-.94-.61-2.2,1.28-2.27s1.31,1.12,1.37,2c.18,2.49.39,5,.4,7.48,0,1.52.6,1.93,2,1.58,1-.27,2.11-.48,3.13-.8s1.56-.32,2,.9c.59,1.52-.45,1.48-1.25,1.75A15,15,0,0,1,463.4,257.13Z" transform="translate(-320.71 -187.17)"/><path class="90549f30-b351-4d92-a32f-251f93d0e557" d="M505.78,276.54c1.28-.29,1.4.63,1.58,1.55.24,1.18-.52,1.09-1.28,1.15-1.18.1-1.54-.45-1.61-1.56S504.88,276.42,505.78,276.54Z" transform="translate(-320.71 -187.17)"/><path class="e6fb7594-a6d8-413f-9534-9eef6723fbb3" d="M400.58,429.09c.18-1.95-.94-3.87-.1-5.85a18.17,18.17,0,0,1,1,5.84Z" transform="translate(-320.71 -187.17)"/><path class="f3f3baae-7a5f-4c74-aac7-678239ea056e" d="M458.65,408.5a32.79,32.79,0,0,1-.07,11.1Z" transform="translate(-320.71 -187.17)"/><path class="f3f3baae-7a5f-4c74-aac7-678239ea056e" d="M458.06,407.63a1.21,1.21,0,0,1,.22-1.29.41.41,0,0,1,.4,0,.78.78,0,0,1-.13,1.2A1.77,1.77,0,0,0,458.06,407.63Z" transform="translate(-320.71 -187.17)"/><path class="e6fb7594-a6d8-413f-9534-9eef6723fbb3" d="M400.93,433.16a5.27,5.27,0,0,1-.3-3.13A4.08,4.08,0,0,1,400.93,433.16Z" transform="translate(-320.71 -187.17)"/><path class="2749d146-5654-432d-b90b-211529b01245" d="M443.2,353.17c4.7-14.07,16.74-22.5,32.61-22.83,9.21-.2,17.93,1.29,25.21,7.53,11.17,9.56,13.48,23.89,6.2,37.81-5.71,10.92-15.22,16.08-26.94,17.88A34.33,34.33,0,0,1,463,392.25c-12.54-4.56-21.05-17.36-20.61-31.17.07-2.32.4-4.63.61-6.95a52.49,52.49,0,0,0,12.87-3.68C451.53,350.78,447.39,352.11,443.2,353.17Zm33.57,26.48c1.17-6.34-2.25-11.75-8-12.48a49.65,49.65,0,0,0-7.71,0c-1.16,0-1.86.4-1.25,1.86a11.65,11.65,0,0,1,.82,5.13c-.09,1.62.25,2.07,1.89,1.34a9.4,9.4,0,0,1,8.62.47A48.13,48.13,0,0,1,476.77,379.65ZM469,361.54a4.69,4.69,0,0,0,4.32,4.85,5,5,0,0,0,5-4.82,4.61,4.61,0,0,0-4.6-4.56C470.81,357,469,358.73,469,361.54Zm-18.59,5.6a4.6,4.6,0,0,0,4.39-4.74,4.51,4.51,0,0,0-4.81-4.6,4.6,4.6,0,0,0-4.56,4.61A4.7,4.7,0,0,0,450.4,367.13Zm18.67-17.06a40.91,40.91,0,0,0,12.23,3.15A33.64,33.64,0,0,0,469.08,350.07Z" transform="translate(-320.71 -187.17)"/><path class="ec42301c-f6c6-4f55-8390-e8df11c4b3eb" d="M501.74,388.39a109.31,109.31,0,0,1,3,43c-.25,1.83.39,4.11-1.34,5.4a18.72,18.72,0,0,1-8.67,3.64,82.64,82.64,0,0,1-31.67-1.8c-1.66-.43-1.62-1.31-1.51-2.53,1-11.1,1.82-22.21.91-33.37-.14-1.74-.23-3.49-.46-5.21-.2-1.53.25-1.79,1.73-1.39,11.61,3.14,22.56,1.13,33-4.54C498.47,390.68,500.06,389.49,501.74,388.39Z" transform="translate(-320.71 -187.17)"/><path class="929b7f49-f5b4-4e52-9aae-e68844983001" d="M443.2,353.17c4.2-1.06,8.33-2.39,12.71-2.72A52.49,52.49,0,0,1,443,354.13Z" transform="translate(-320.71 -187.17)"/><path class="2749d146-5654-432d-b90b-211529b01245" d="M383.41,332.52c10.47-.12,19.5,2.62,26.89,9.94,10.93,10.81,11.07,28.54,2.37,40.74-7.63,10.71-18.25,14.1-30.83,12.65a44.15,44.15,0,0,1-12.23-3.3c-15-6.36-21.94-23.9-19.17-36.77,2.52-11.69,12.8-20.83,25.35-22.71A41.25,41.25,0,0,1,383.41,332.52ZM411.2,360c-2.89,0-4.76,1.81-4.75,4.58a4.7,4.7,0,0,0,4.37,4.81,4.92,4.92,0,0,0,5-4.83A4.63,4.63,0,0,0,411.2,360ZM387.73,359a4.51,4.51,0,0,0-4.78,4.34,4.83,4.83,0,0,0,4.71,5.07c2.3.12,4.5-2.07,4.63-4.6A4.46,4.46,0,0,0,387.73,359Zm15.51,12.71c-4.51-.12-9.13-1.64-13.39,1.06C394.26,371.48,398.84,372.75,403.25,371.75Zm-22.3-15.53a38.43,38.43,0,0,0,12.4-3.32C389.06,353.46,384.83,354.22,380.95,356.21Zm24.68-2.41-.2.68c3.68,1,7.35,2.07,11,3.07.13,0,.45-.22.5-.39a.71.71,0,0,0-.6-.91C412.8,355.4,409.3,354.18,405.63,353.81Z" transform="translate(-320.71 -187.17)"/><path class="9715f8ed-b674-4d66-9a94-1413da1e3d35" d="M353.41,420.51c-.46-9.92,2-19.79,4.21-29.7.26-1.16.6-1.57,1.75-.63,8.66,7.07,18.75,9.72,29.76,9.5a25.1,25.1,0,0,0,6.4-.94c1.6-.45,2.24-.21,2,1.67a185.09,185.09,0,0,0-1.06,26.43c.09,3,.22,6,.48,9,.15,1.73-.14,2.59-2.13,3.05a85.1,85.1,0,0,1-31.22,1.66c-3.07-.42-5.81-2-8.46-3.53-1-.61-.95-1.7-1-2.66A100,100,0,0,1,353.41,420.51Z" transform="translate(-320.71 -187.17)"/><path class="e6a99ebe-c950-4b85-8a6d-1392812635fb" d="M436.91,244.56a4.35,4.35,0,0,1,4.51,4.55c0,3-2.93,5.74-6.08,5.82-2.65.07-4.46-1.8-4.43-4.59A6.08,6.08,0,0,1,436.91,244.56Z" transform="translate(-320.71 -187.17)"/><path class="e6a99ebe-c950-4b85-8a6d-1392812635fb" d="M477.64,277.55a4.24,4.24,0,0,1-4.41-4.37c-.07-3,3-6,6.15-6a4.34,4.34,0,0,1,4.38,4.69A6.11,6.11,0,0,1,477.64,277.55Z" transform="translate(-320.71 -187.17)"/><path class="e6a99ebe-c950-4b85-8a6d-1392812635fb" d="M434.85,277.55a4.12,4.12,0,0,1-4.39-4.34,6.21,6.21,0,0,1,6.06-6,4.29,4.29,0,0,1,4.41,4.66A6.08,6.08,0,0,1,434.85,277.55Z" transform="translate(-320.71 -187.17)"/><path class="e6a99ebe-c950-4b85-8a6d-1392812635fb" d="M365,250.42a6.1,6.1,0,0,1,5.93-5.87,4.27,4.27,0,0,1,4.58,4.46c0,3.06-3,5.92-6.23,5.91A4.2,4.2,0,0,1,365,250.42Z" transform="translate(-320.71 -187.17)"/><path class="5787f389-bae0-4523-991c-aace79e8203b" d="M491.38,270c.36-1.1-1.14-3,1.49-2.81,1.93.15,4.21-.34,5,2.15.35,1.08-3.09,3.61-5.21,3.59C490.38,272.89,492.16,270.79,491.38,270Z" transform="translate(-320.71 -187.17)"/><path class="e6a99ebe-c950-4b85-8a6d-1392812635fb" d="M480.09,250.61c0,2.3-3.69,4.71-5.66,3.71-.68-.34-.55-1-.6-1.52-.19-2.23-.3-4.48-.48-6.71-.06-.77.2-1,1-1C476.88,245,480.09,248,480.09,250.61Z" transform="translate(-320.71 -187.17)"/><path class="e6a99ebe-c950-4b85-8a6d-1392812635fb" d="M417,270.93c.16-1.2-.52-2.63.26-3,1.07-.57,2.39.19,3.45.84A5.93,5.93,0,0,1,423.5,272a3.22,3.22,0,0,1-.77,3.65,5.92,5.92,0,0,1-4.62,1.31c-.7-.08-.6-.66-.64-1.13Z" transform="translate(-320.71 -187.17)"/><path class="5787f389-bae0-4523-991c-aace79e8203b" d="M398.15,273.11c-1,.16-1.77.12-1.35-.9.53-1.27-.5-3.68,1.9-3.59,1.63.06,1.66,2.14,1.76,3.32C400.62,273.91,398.57,272.35,398.15,273.11Z" transform="translate(-320.71 -187.17)"/><path class="6d97d5ef-9a0f-4eac-b019-d5291df3b8b8" d="M476.77,379.65a48.13,48.13,0,0,0-5.63-3.64,9.4,9.4,0,0,0-8.62-.47c-1.63.74-2,.28-1.89-1.34a11.65,11.65,0,0,0-.82-5.13c-.61-1.46.1-1.83,1.25-1.86a49.65,49.65,0,0,1,7.71,0C474.52,367.9,477.94,373.31,476.77,379.65Z" transform="translate(-320.71 -187.17)"/><path class="6d97d5ef-9a0f-4eac-b019-d5291df3b8b8" d="M469,361.54c0-2.8,1.81-4.54,4.75-4.53a4.61,4.61,0,0,1,4.6,4.56,5,5,0,0,1-5,4.82A4.69,4.69,0,0,1,469,361.54Z" transform="translate(-320.71 -187.17)"/><path class="6d97d5ef-9a0f-4eac-b019-d5291df3b8b8" d="M450.4,367.13a4.7,4.7,0,0,1-5-4.73A4.6,4.6,0,0,1,450,357.8a4.51,4.51,0,0,1,4.81,4.6A4.6,4.6,0,0,1,450.4,367.13Z" transform="translate(-320.71 -187.17)"/><path class="929b7f49-f5b4-4e52-9aae-e68844983001" d="M469.08,350.07a33.64,33.64,0,0,1,12.23,3.15A40.91,40.91,0,0,1,469.08,350.07Z" transform="translate(-320.71 -187.17)"/><path class="6d97d5ef-9a0f-4eac-b019-d5291df3b8b8" d="M411.2,360a4.63,4.63,0,0,1,4.61,4.56,4.92,4.92,0,0,1-5,4.83,4.7,4.7,0,0,1-4.37-4.81C406.45,361.79,408.31,360,411.2,360Z" transform="translate(-320.71 -187.17)"/><path class="6d97d5ef-9a0f-4eac-b019-d5291df3b8b8" d="M387.73,359a4.46,4.46,0,0,1,4.56,4.81c-.13,2.53-2.33,4.72-4.63,4.6a4.83,4.83,0,0,1-4.71-5.07A4.51,4.51,0,0,1,387.73,359Z" transform="translate(-320.71 -187.17)"/><path class="929b7f49-f5b4-4e52-9aae-e68844983001" d="M403.25,371.75c-4.4,1-9-.27-13.39,1.06C394.11,370.11,398.74,371.63,403.25,371.75Z" transform="translate(-320.71 -187.17)"/><path class="929b7f49-f5b4-4e52-9aae-e68844983001" d="M380.95,356.21c3.88-2,8.11-2.75,12.4-3.32A38.43,38.43,0,0,1,380.95,356.21Z" transform="translate(-320.71 -187.17)"/><path class="929b7f49-f5b4-4e52-9aae-e68844983001" d="M405.63,353.81c3.67.38,7.17,1.6,10.74,2.45a.71.71,0,0,1,.6.91c0,.17-.37.43-.5.39-3.68-1-7.36-2-11-3.07Z" transform="translate(-320.71 -187.17)"/></svg>