<svg id="a9932c02-7ddc-49a4-b0a8-7ca748ab1663" data-name="Capa 1" xmlns="http://www.w3.org/2000/svg" viewBox="0 0 213.7 309.78"><defs><style>.\35 6e3ab0f-d584-43c8-b4c9-534bde8ccfc5{fill:#181819;}.b357ffd9-3f83-43f9-aaf2-ed99c8c820fe{fill:#fefefe;}.\38 eaaa2a1-8c2c-437e-bfdb-e940cf774070{fill:#171716;}.\37 74d6423-0684-4c3e-bd71-5c620cfe179c{fill:#151612;}.b54122bd-a848-4e34-99cc-55fcbcb24a33{fill:#1e1e1f;}.f99197a0-ad60-4b05-9fa5-7615316246aa{fill:#232323;}.\35 118f2e2-b53c-4e70-9779-7bcf2173c98b{fill:#202021;}.\37 78270e8-2646-4c88-8dcc-ef550603a32a{fill:#cac9c9;}.\34 8b3f089-12a0-4f9a-9a12-38728d3a366f{fill:#959595;}.\34 a987d89-b7ef-4146-97f7-bc2fb6968bef{fill:#f7cca0;}.\31 081874f-de58-4e9c-ba88-93e1cea7c75e{fill:#95b4c7;}.b4d446a0-47dd-49ae-be7c-0741d7f8d74a{fill:#f9f9f9;}.\30 ecb3f3d-b1f3-48b1-82aa-ca5fd224f1e8{fill:#509541;}.\32 fe6bfa3-2b61-4891-a34b-4036e8f88c51{fill:#17110b;}.\38 598afe9-ad3e-4584-90a4-7a276f6cb887{fill:#655343;}</style></defs><title>card-27</title><path class="56e3ab0f-d584-43c8-b4c9-534bde8ccfc5" d="M329.29,355.38q0-71.61,0-143.22a16.76,16.76,0,0,1,.43-5c1.2-4,3.79-6.13,7.92-6.46,1.58-.12,3.16-.2,4.74-.2q93.85,0,187.71,0c9.25,0,12.91,2.56,12.89,12.88q-.18,142.47-.07,284.93c0,1,0,2-.05,3-.47,5.76-3.84,9-9.62,9q-97.1,0-194.2,0c-5.84,0-9.32-3.37-9.69-9.18-.06-.91,0-1.83,0-2.75Q329.29,426.86,329.29,355.38Zm4.16-.1q0,71.74,0,143.48c0,5.64,1.64,7.26,7.28,7.26H532.21c4.56,0,6.34-1.73,6.53-6.27,0-.67,0-1.33,0-2q0-142,0-284c0-8-1-9-8.85-9H342.17c-1.17,0-2.33,0-3.5.06-3.16.18-4.7,1.57-5.13,4.69a22.05,22.05,0,0,0-.09,3Q333.45,283.91,333.45,355.28Z" transform="translate(-329.29 -200.51)"/><path class="b357ffd9-3f83-43f9-aaf2-ed99c8c820fe" d="M333.45,355.28q0-71.37,0-142.73a22.05,22.05,0,0,1,.09-3c.43-3.11,2-4.5,5.13-4.69,1.16-.07,2.33-.06,3.5-.06H529.9c7.86,0,8.85,1,8.85,9q0,142,0,284c0,.67,0,1.33,0,2-.19,4.54-2,6.27-6.53,6.27H340.74c-5.65,0-7.28-1.63-7.28-7.26Q333.45,427,333.45,355.28ZM521,436.41c.56-.57.06-1.6.9-2,.21,3.49.39,7,.63,10.47.09,1.33.11,2.94,2,2.74,1.69-.18,1.58-1.57,1.48-2.9-.25-3.57-.37-7.15-.64-10.71-.8-10.54-1.66-21.13-4.85-31.24-1.53-4.85-1.19-8.41,1.36-13,9.21-16.44,4.55-34.87-10.67-44.33-10.23-6.37-21.36-6.56-32.79-4.42-11.87,2.22-24.58,12.46-26.92,26.6-2.52,15.25,2.64,27.65,15.07,36.9a2.77,2.77,0,0,1,1.12,2.75A298.2,298.2,0,0,1,464.93,443c-.19,1.3-.51,3,1.38,3.17s2-1.29,2.13-2.72c.44-3.88,1-7.75,1.49-11.63h.91l-.12,4a4,4,0,0,0-.28,3.1c-.25,3.74-.27,7.51-.81,11.2-.36,2.45.25,3.74,2.66,4,1.78.2,1.94,1,1.74,2.69-1.17,9.93-1.69,19.9-2,29.89,0,1.29,0,2.7,1.75,2.73s1.72-1.39,1.77-2.67c.32-9.32.73-18.63,1.79-27.91.39-3.38.27-3.28,3.53-2.75,9.34,1.53,18.7,2,28-.14,1.44-.33,1.39.35,1.54,1.37a157.7,157.7,0,0,0,4.88,21.89c1,3.17,2,6.32,3.05,9.48a1.72,1.72,0,0,0,2.3,1.3,1.69,1.69,0,0,0,1.07-2.41c-.2-.63-.45-1.25-.67-1.88A173.23,173.23,0,0,1,514,457.48c-.37-2.26-.1-3.77,2.3-4.56a5,5,0,0,0,3.57-4.84C520.12,444.18,520.6,440.3,521,436.41ZM408.68,401.17c1.25-1.72,2.34-3.08,3.27-4.54,8.13-12.72,9.44-25.86,1.37-39-6.21-10.12-15.95-15.09-27.58-16.23-9.78-1-19.35-.15-27.83,5.51-10.19,6.8-15.55,16.24-14.92,28.65a37.38,37.38,0,0,0,8.16,21.34,4.76,4.76,0,0,1,1,4.51c-3.38,14-5.35,28.15-3.27,42.55,1.42,9.8-.78,8.14,9.24,12.54a2.56,2.56,0,0,1,1.81,2c2,9.89,1.69,19.52-2.78,28.75-.53,1.1-1.16,2.26.26,3s2.31-.13,2.93-1.42a44.85,44.85,0,0,0,4.13-14c.7-5.65,0-11.21-.93-16.88a87,87,0,0,0,23.56-.26c2.42-.34,5.23-2.16,7.11-.84s2.54,4.17,3.59,6.43A124.19,124.19,0,0,1,406.15,488c.51,2.22,1.64,3,2.94,2.14s.8-1.84.55-2.92a126.23,126.23,0,0,0-11-30.38c-.27-.51-1.4-1.29-.19-1.81,2-.85,1.43-2.37,1.26-3.81a190.09,190.09,0,0,1-1-34.91c.11-1.58.41-2,2.17-1.73,8.17,1.28,16.37,2.08,24.51-.23,5.32-1.51,9.23-4.54,10.52-10.18a3,3,0,0,1,1.63-2A10.52,10.52,0,0,0,443,392a62.86,62.86,0,0,0-2.71-15.19,7.62,7.62,0,0,0-8.86-4.91c-1.17.31-2.39,1.29-1.86,2.52.93,2.16-.34,2-1.7,2.2a5.32,5.32,0,0,0-1.89.57c-1.19.64-2.15,1.67-1.38,3s1.88.39,2.81-.09a8.53,8.53,0,0,0,1.08-.63c2.38-1.71,4.64.93,7,.2.09,0,.35.33.45.54,1.87,4.09,3.88,8.15,3.43,12.85a6.52,6.52,0,0,1-3,5.41c-.54-3.69-1.14-7.12-1.54-10.58-.37-3.25-3.16-4.08-5.34-5.41a9.93,9.93,0,0,0-2.67-.57c-1.24-.25-2.72.36-2.43,1.73.59,2.73-1.08,2.2-2.54,2.16-1.22,0-2.35.13-3,1.38a1.54,1.54,0,0,0,.21,1.87c1,.88,2,.18,3-.07s2.06-1.34,3-.45a3.64,3.64,0,0,0,3.29,1.26A1.7,1.7,0,0,1,430.1,391a52.55,52.55,0,0,1,2.51,7c.45,2.15-.18,3-2.26,3.36C423.22,402.71,416.14,402.1,408.68,401.17Zm-4-113.93-3.88-8.49c-.35-.77-.74-1.24-1.69-.66-.78.47-1.36.74-.75,1.85a58.39,58.39,0,0,1,4.47,10.53,1.73,1.73,0,0,0,1.76,1.38c1.11.09,1.42-.57,1.77-1.35.54-1.23,1.11-2.46,1.86-4.1.67,1.63,1.2,2.75,1.6,3.92.34,1,.62,1.79,2,1.77s1.45-.76,1.78-1.65a52.06,52.06,0,0,0,2.83-9.53c.16-.93,1.67-2.47-.6-3s-1.62,1.35-1.91,2.37a40.91,40.91,0,0,1-2.2,7.09c-1.56-3.09-3-6-4.49-8.84-.36-.71-.58-1.61-1.8-.92-1,.59-1.32,1.17-.54,2.13C406.84,282.2,406.27,284.63,404.67,287.23ZM365.34,285c.84,2.11,1.54,3.84,2.21,5.58a2,2,0,0,0,1.89,1.32c1.1.11,1.18-.75,1.46-1.37.61-1.37,1.12-2.77,1.8-4.48l2.39,6.17c.36.92.7,1.65,2,1,1-.52,1-1,.58-1.94a50.38,50.38,0,0,1-3.42-10.91c-.18-.91-.31-1.68-1.65-1.67-1.5,0-1.5.93-1.68,1.93a21.41,21.41,0,0,1-1.7,6.36c-1.11-1.86-1.4-3.84-2-5.72-.24-.8-.41-1.5-1.57-1.52s-1.54.44-1.92,1.44a54.42,54.42,0,0,0-2.64,9.85c-.15.85-.65,1.74.9,2,1.37.23,1.56-.47,1.71-1.45A30.17,30.17,0,0,1,365.34,285ZM504.2,255.18c-2.18-.68-2.72.52-2.38,2.9.36,2.55.43,5.13.64,7.7.34,4.2.94,4.66,5.17,3.92a12,12,0,0,0,2.62-.76c3.82-1.62,5.12-5.53,2.89-9A9.5,9.5,0,0,0,504.2,255.18Zm-111.36,7.12c-.13,5.81,1,7,5.72,6.91a28.43,28.43,0,0,0,3-.22c3-.35,3.88-1.29,3.83-4.36a54.8,54.8,0,0,0-1.27-8.61c-.21-1.15-.78-1.24-1.73-1.11-1.12.15-1.05.84-.9,1.63.3,1.55.68,3.08.89,4.64.75,5.4.15,5.94-5.36,5.3-1.27-.15-1.7-.66-1.68-1.9a74.9,74.9,0,0,1,.92-7.66c.09-.74.83-1.87-.76-2.12-1.28-.2-1.76.35-1.89,1.58C393.37,258.7,393,261,392.84,262.31ZM481,263.71c-.22-2.12-.46-3.6-.5-5.09,0-1.08-.37-1.39-1.46-1.36-1.25,0-1.27.68-1.18,1.61.33,3.55.65,7.11.93,10.67.07.85.19,1.38,1.26,1.32s1.6-.31,1.4-1.44c-.24-1.39.59-1.25,1.46-1,1.92.51,3.85,1,5.76,1.56.85.25,1.41.22,1.67-.77s.13-1.57-1-1.81c-1.46-.31-2.88-.76-4.34-1.08s-2.19-.8-.94-2.33c1.52-1.86,2.87-3.86,4.31-5.79.53-.71.92-1.24-.1-2s-1.52-.38-2.12.47C484.57,258.84,482.95,261,481,263.71Zm-24.45,2.74c-3.69.15-3.89,0-3.56-3.62.2-2.15.64-4.27.91-6.41.08-.66.42-1.59-.85-1.61-.82,0-1.62-.18-1.77,1.1-.39,3.13-1.07,6.23-.85,9.41.15,2.19,1.19,3.5,3.52,3.77a28.69,28.69,0,0,0,5.71-.14c2.25-.19,3.2-1.49,3.28-3.61.11-3.11-.72-6.09-1.2-9.12-.18-1.13-.66-1.54-1.84-1.3-1.34.27-.9,1.1-.76,1.9.4,2.29.79,4.58,1.16,6.87.28,1.75,0,3-2.26,2.71A8.53,8.53,0,0,0,456.52,266.45ZM416,254.78a12.81,12.81,0,0,0-7,1.93c-1.68,1-3.29,2.24-2.73,4.53s2.6,2.33,4.39,2.54c1.56.18,3.16,0,4.72.22,1.14.14,1.41.78.41,1.62a7.78,7.78,0,0,1-4.08,1.68c-1.14.14-1.32.63-1.25,1.63.09,1.34.92,1.12,1.76,1a11.12,11.12,0,0,0,4.6-1.79c1.49-1,2.94-2.19,2.44-4.21s-2.33-2.42-4.12-2.58-3.32-.13-5-.27c-.42,0-1.12-.05-1.11-.7,0-.32.38-.71.67-1a9.66,9.66,0,0,1,6.27-2c1.14,0,2.14.1,2.07-1.56C418,254,416.56,255.16,416,254.78Zm79.66-.19v0a11.45,11.45,0,0,1-2,.08c-2-.26-2.58.61-2.31,2.51s.16,3.83.48,5.7-1.08,4.8,1.09,5.84c1.87.89,4.4.24,6.59-.4a1.58,1.58,0,0,1,.25,0c1-.12,1.25-.63,1-1.56s-.53-1.46-1.68-1.09a20.33,20.33,0,0,1-3.19.51c-.89.13-1.41-.15-1.45-1.17s.09-1.63,1.27-1.61a17,17,0,0,0,2.48-.16c.91-.12,2,.16,1.89-1.54s-1.09-1.3-2.07-1.18c-.58.07-1.16.12-1.73.22-1.35.26-2,0-2.19-1.65-.17-1.84.72-1.84,2-1.83.91,0,1.82-.14,2.73-.17,1.09,0,1.06-.76,1-1.56s-.41-1.18-1.24-1.12C497.66,254.49,496.66,254.53,495.67,254.59Zm-57.5,22.62v.15a15.31,15.31,0,0,1-2,0c-2-.27-2.61.58-2.34,2.53s.35,4.14.47,6.22c.34,6.28.65,6.52,6.95,5.14.24-.05.48-.16.72-.2.86-.15,1.58-.26,1.3-1.54s-1-1.31-2-1.11-2,.31-3,.44-1.38-.18-1.41-1.2.12-1.44,1.13-1.49,2.32-.24,3.48-.27,1-.8,1-1.56-.32-1.2-1.21-1.1-1.85,0-2.74.19c-1.65.35-1.9-.47-2.06-1.85-.22-1.8.88-1.61,2-1.63.92,0,1.83-.09,2.75-.08,1.1,0,1.13-.65,1.11-1.48s-.32-1.2-1.19-1.15S439.16,277.21,438.17,277.21Zm34.19-6.73a15.76,15.76,0,0,0,4-.66c.78-.2,1.41-.46,1-1.52-.31-.88-.54-1.47-1.72-1.07a12.69,12.69,0,0,1-4.17.66,4.53,4.53,0,0,1-4.63-3.06,4,4,0,0,1,.94-4.8,4.54,4.54,0,0,1,5.53-.73c.48.23.9.91,1.53.36a3.23,3.23,0,0,0,1.08-1.3c.19-.69-.6-.9-1-1.21a7.07,7.07,0,0,0-8.37.47,6.88,6.88,0,0,0-2.19,8.08C465.57,269.07,468,270.59,472.35,270.48Zm-106-15.69c-1.77.18-3.51.36-5.25.51-.64.06-1.22.17-1,1,.15.64-.18,1.84,1,1.62,2.33-.44,2.08,1.13,2.21,2.5s.29,3,.44,4.47c.1,1,.4,2-1.18,2.16-1,.1-.61,1-.62,1.62s.14,1.08.8,1c2.07-.16,4.14-.38,6.21-.6.77-.08.91-.64.75-1.28s0-1.64-1-1.38c-2.56.68-2.36-1-2.48-2.6-.1-1.33-.18-2.66-.35-4-.19-1.49-.14-2.68,1.89-2.49,1.14.11,1.11-.67,1-1.48C368.62,254,367.2,255,366.34,254.8Zm24.58,6.72h.16q-.31-2.59-.63-5.19c-.1-.83-.06-1.68-1.38-1.53s-1.42.7-1.27,1.83a52.41,52.41,0,0,1,.5,6.2c0,3.1-.85,3.8-3.91,3.62-2.47-.15-2.7-1.84-2.6-3.69.06-1.17-.51-1.38-1.48-1.44s-1.11.35-1.21,1.15c-.43,3.6,1.47,6.27,4.78,6.62,4.46.47,6.73-1.24,7-5.32C391,263,390.93,262.26,390.93,261.52Zm-.7,17.29c-.72-.83-1.09-1.27-1.49-1.69-.63-.66-1,0-1.46.3-1.16.9-2.07,2.8-3.37,2.66s-2.62-1.61-3.92-2.49a4.24,4.24,0,0,1-.62-.42c-.95-.93-1.38-.16-1.94.51-.7.84-.26,1.26.45,1.72,1,.69,2,1.55,3.07,2.13a3.52,3.52,0,0,1,1.94,3.65c-.06,1.91.15,3.83.2,5.74,0,1,.28,1.51,1.44,1.48s1.44-.5,1.33-1.52,0-2-.22-3c-.61-3.35-.17-6.26,3.07-8.14C389.21,279.47,389.69,279.15,390.22,278.81Zm33.68,2.76c.32,3.42.62,6.55.88,9.69.08,1,0,1.74,1.46,1.67s1.34-1,1.16-1.85c-.36-1.71.24-2.37,2-2.41,1,0,2.52.14,2.08-1.82s-1.67-.68-2.56-.8c-.65-.09-1.44.63-1.93-.33-1-2-.07-3.58,2.21-3.72l1.49-.07c.86-.06,1.83.24,1.79-1.3s-.78-1.39-1.76-1.33c-1.57.09-3.15.2-4.72.2S423.4,280,423.9,281.57Zm21.52-18.31c-.4-.37-1.52.95-2-.56-.74-2.38-.16-3.27,2.35-3.34.58,0,1.17-.07,1.75-.05,1,0,1.47-.34,1.44-1.46s-.58-1.34-1.58-1.26a52.16,52.16,0,0,1-5.24.22c-1.44,0-1.9.5-1.74,1.92.36,3.31.61,6.63.91,9.94.07.82-.06,1.69,1.28,1.62s1.59-.74,1.34-1.79c-.45-1.85.31-2.56,2.12-2.59.87,0,2.06.35,2-1.39C447.93,262.55,446.62,263.45,445.42,263.27ZM412.51,313.6c0-.9,0-1.9,0-2.89a1,1,0,0,0-1.09-1.11,1.12,1.12,0,0,0-1.28.93,12.08,12.08,0,0,0-.11,2c-.13,6-1.52,11.66-5.37,16.5-.59.74-1.65,1.56-.48,2.51s1.79-.32,2.37-1C410.58,325.65,412.19,319.9,412.51,313.6Zm17-58.53c-2.31.25-5,.56-7.77.84-1,.1-1.69.28-1.5,1.65.2,1.52,1.06,1.19,1.94,1,1.64-.44,2.2.18,2.21,1.84,0,2.49.26,5,.39,7.48,0,.88.06,1.57,1.33,1.54s1.41-.78,1.33-1.78c-.15-1.91-.26-3.82-.4-5.73-.17-2.23-.7-4.65,3-4.26,1,.11,1.2-.6,1-1.5C430.88,255.41,430.89,254.72,429.47,255.07Zm-8,32.71h0c-.2-2.9-.44-5.79-.6-8.69-.06-1-.52-1.24-1.43-1.21s-1.36.32-1.29,1.33q.46,6,.84,11.92c.08,1.16.73,1.28,1.69,1.2s1.14-.73,1-1.56C421.64,289.76,421.55,288.77,421.46,287.78Zm25.89,1.62c-1-.23-1.16.28-1.07,1.23s.31,1.5,1.43,1.43c.83-.06,1.38-.1,1.29-1.19S448.62,289.12,447.35,289.39Z" transform="translate(-329.29 -200.51)"/><path class="8eaaa2a1-8c2c-437e-bfdb-e940cf774070" d="M408.68,401.17c7.46.94,14.54,1.55,21.67.17,2.08-.4,2.71-1.21,2.26-3.36a52.55,52.55,0,0,0-2.51-7,1.7,1.7,0,0,0-1.72-1.19,3.64,3.64,0,0,1-3.29-1.26c-.91-.89-2,.21-3,.45s-2.05,1-3,.07a1.54,1.54,0,0,1-.21-1.87c.61-1.25,1.73-1.41,3-1.38,1.46,0,3.13.57,2.54-2.16-.29-1.37,1.19-2,2.43-1.73a9.93,9.93,0,0,1,2.67.57c2.18,1.33,5,2.16,5.34,5.41.4,3.46,1,6.89,1.54,10.58a6.52,6.52,0,0,0,3-5.41c.45-4.69-1.56-8.76-3.43-12.85-.1-.21-.36-.57-.45-.54-2.36.72-4.62-1.91-7-.2a8.53,8.53,0,0,1-1.08.63c-.93.48-2,1.43-2.81.09s.19-2.38,1.38-3a5.32,5.32,0,0,1,1.89-.57c1.36-.15,2.63,0,1.7-2.2-.53-1.23.69-2.21,1.86-2.52a7.62,7.62,0,0,1,8.86,4.91A62.86,62.86,0,0,1,443,392a10.52,10.52,0,0,1-5.45,10.21,3,3,0,0,0-1.63,2c-1.3,5.64-5.2,8.68-10.52,10.18-8.15,2.31-16.35,1.5-24.51.23-1.76-.28-2.07.15-2.17,1.73a190.09,190.09,0,0,0,1,34.91c.17,1.45.72,3-1.26,3.81-1.21.52-.07,1.31.19,1.81a126.23,126.23,0,0,1,11,30.38c.25,1.08.62,2.15-.55,2.92s-2.44.08-2.94-2.14a124.19,124.19,0,0,0-8.32-24.77c-1-2.26-1.77-5.17-3.59-6.43s-4.69.5-7.11.84a87,87,0,0,1-23.56.26c.89,5.67,1.63,11.23.93,16.88a44.85,44.85,0,0,1-4.13,14c-.62,1.29-1.51,2.16-2.93,1.42s-.8-1.9-.26-3c4.48-9.24,4.83-18.87,2.78-28.75a2.56,2.56,0,0,0-1.81-2c-10-4.4-7.82-2.74-9.24-12.54-2.08-14.4-.11-28.55,3.27-42.55a4.76,4.76,0,0,0-1-4.51A37.38,37.38,0,0,1,343,375.57c-.63-12.41,4.73-21.85,14.92-28.65,8.49-5.66,18.05-6.47,27.83-5.51,11.64,1.14,21.37,6.12,27.58,16.23,8.07,13.13,6.76,26.27-1.37,39C411,398.08,409.93,399.44,408.68,401.17Zm-7.87-40.78c2.53-.82,4.21-1.49,5.95-1.89,2.45-.56,2.06-1.37.7-3-11.82-13.85-38.93-14.59-51.39-2.92-5.83,5.45-9.79,11.92-9.64,20.08.46,25,20,37.43,42.53,34.84,10.33-1.19,17.56-7.48,22.36-16.54,4.17-7.89,4.53-16.22,2.43-24.73-.21-.86-.18-2.66-1.69-2.24-2.65.74-5.27.11-7.88.33-1.31.11-2.07-.41-1.42-1.71S403.27,360.45,400.81,360.38Zm-6,68.45c.19-4.41.39-8.82.57-13.23,0-.77.37-1.72-.93-1.91-4.19-.63-8.22-2.12-12.49-2.3a44.56,44.56,0,0,1-23.09-7.1C355.43,402,355.5,402,354.6,406c-3.2,14-4.29,28.12-1.73,42.38.18,1,.22,2,1.26,2.56,2.77,1.54,5.58,3.06,8.76,3.5a84.2,84.2,0,0,0,31.48-1.68c1.59-.38,2-1.06,1.84-2.74A207.72,207.72,0,0,1,394.8,428.83Zm37.28-24.16a55.78,55.78,0,0,1-22.76.05c-3.86-.76-6.25,1.14-9.08,2.65-1.26.67-.83,1.88-.94,2.89s.81.9,1.41,1c6.75,1,13.53,1.72,20.34.59C425.55,411.08,429.75,409.7,432.08,404.67Z" transform="translate(-329.29 -200.51)"/><path class="774d6423-0684-4c3e-bd71-5c620cfe179c" d="M470.73,435.83l.12-4a37.29,37.29,0,0,0-.28-10.28l-.63,10.27c-.5,3.88-1,7.75-1.49,11.63-.16,1.43-.37,2.91-2.13,2.72s-1.58-1.86-1.38-3.17a298.2,298.2,0,0,0,2.81-35.81,2.77,2.77,0,0,0-1.12-2.75c-12.43-9.25-17.59-21.65-15.07-36.9,2.34-14.14,15-24.39,26.92-26.6,11.43-2.13,22.56-1.94,32.79,4.42,15.22,9.47,19.88,27.89,10.67,44.33-2.55,4.54-2.89,8.1-1.36,13,3.19,10.1,4,20.69,4.85,31.24.27,3.57.38,7.15.64,10.71.09,1.33.2,2.72-1.48,2.9-1.94.21-2-1.4-2-2.74-.23-3.49-.42-7-.63-10.47a8.13,8.13,0,0,0-.46-4.16,21.18,21.18,0,0,0-.44,6.21c-.39,3.89-.87,7.78-1.15,11.68a5,5,0,0,1-3.57,4.84c-2.39.79-2.67,2.3-2.3,4.56a173.23,173.23,0,0,0,7.11,28.25c.22.63.47,1.24.67,1.88a1.69,1.69,0,0,1-1.07,2.41,1.72,1.72,0,0,1-2.3-1.3c-1-3.16-2.08-6.31-3.05-9.48a157.7,157.7,0,0,1-4.88-21.89c-.16-1-.1-1.7-1.54-1.37-9.32,2.13-18.68,1.66-28,.14-3.25-.53-3.14-.63-3.53,2.75-1.06,9.27-1.47,18.59-1.79,27.91,0,1.29.06,2.71-1.77,2.67S472,488,472,486.71c.3-10,.83-20,2-29.89.19-1.64,0-2.48-1.74-2.69-2.41-.27-3-1.57-2.66-4,.54-3.69.57-7.46.81-11.2A6.07,6.07,0,0,0,470.73,435.83Zm-16.43-60.9c.8,11.85,5.53,21.16,15.38,27.41,7.66,4.86,16.16,5.24,24.82,3.42,10.29-2.17,18.83-6.9,24-16.56,9.2-17.15,4.49-34.08-11.43-42-12.85-6.42-26.15-5.58-38.67,1.79-5.9,3.47-9.88,8.73-12.42,15.28,2.91.35,5.69-.2,8.32.84a33,33,0,0,1-6.84.34c-1.75-.09-2.48.49-2.08,2.27,3.43-1,5.67-.45,6.88,1.72a4.59,4.59,0,0,1-.79,5.74C459.84,376.94,458,376.93,454.3,374.93Zm59.61,26a7.23,7.23,0,0,0-.81.37c-11.61,8.12-24.21,11.05-38.08,7.25-1.57-.43-1.39.34-1.28,1.41,1.32,13,.64,25.95-.5,38.89-.15,1.67.26,2.13,1.75,2.51a87,87,0,0,0,25.76,2.37A28.74,28.74,0,0,0,514.57,450a3.41,3.41,0,0,0,1.86-2.7c1.26-9.09,2-18.2.94-27.36C516.62,413.61,515.32,407.35,513.91,401Z" transform="translate(-329.29 -200.51)"/><path class="b54122bd-a848-4e34-99cc-55fcbcb24a33" d="M404.67,287.23c1.61-2.6,2.17-5,.17-7.48-.78-1-.5-1.53.54-2.13,1.22-.7,1.44.21,1.8.92,1.48,2.87,2.93,5.76,4.49,8.84a40.91,40.91,0,0,0,2.2-7.09c.29-1-.22-2.85,1.91-2.37s.75,2.05.6,3a52.06,52.06,0,0,1-2.83,9.53c-.34.89-.53,1.64-1.78,1.65s-1.63-.78-2-1.77c-.4-1.17-.93-2.29-1.6-3.92-.75,1.64-1.31,2.87-1.86,4.1-.34.78-.65,1.44-1.77,1.35a1.73,1.73,0,0,1-1.76-1.38,58.39,58.39,0,0,0-4.47-10.53c-.62-1.11,0-1.38.75-1.85,1-.58,1.34-.11,1.69.66Z" transform="translate(-329.29 -200.51)"/><path class="b54122bd-a848-4e34-99cc-55fcbcb24a33" d="M365.34,285a30.17,30.17,0,0,0-1.62,6.58c-.15,1-.34,1.68-1.71,1.45-1.55-.26-1-1.15-.9-2a54.42,54.42,0,0,1,2.64-9.85c.38-1,.76-1.46,1.92-1.44s1.34.72,1.57,1.52c.56,1.88.84,3.86,2,5.72a21.41,21.41,0,0,0,1.7-6.36c.18-1,.18-1.92,1.68-1.93,1.33,0,1.47.76,1.65,1.67a50.38,50.38,0,0,0,3.42,10.91c.42.93.43,1.42-.58,1.94-1.27.66-1.61-.08-2-1l-2.39-6.17c-.68,1.7-1.2,3.11-1.8,4.48-.28.62-.36,1.48-1.46,1.37a2,2,0,0,1-1.89-1.32C366.88,288.85,366.17,287.12,365.34,285Z" transform="translate(-329.29 -200.51)"/><path class="b54122bd-a848-4e34-99cc-55fcbcb24a33" d="M504.2,255.18a9.5,9.5,0,0,1,8.95,4.73c2.23,3.51.94,7.41-2.89,9a12,12,0,0,1-2.62.76c-4.24.73-4.83.27-5.17-3.92-.21-2.57-.28-5.15-.64-7.7C501.48,255.71,502,254.5,504.2,255.18Zm.67,6.62c.1,1.09.24,2.58.39,4.07.05.48,0,1,.56,1.28,1.87.9,5.56-1.41,5.65-3.53s-1.22-3.55-2.85-4.65c-1-.7-2.32-1.52-3.46-1s-.08,1.92-.29,2.91A6.71,6.71,0,0,0,504.87,261.8Z" transform="translate(-329.29 -200.51)"/><path class="f99197a0-ad60-4b05-9fa5-7615316246aa" d="M392.84,262.31c.17-1.31.53-3.61.77-5.92.13-1.23.6-1.78,1.89-1.58,1.59.25.85,1.37.76,2.12a74.9,74.9,0,0,0-.92,7.66c0,1.23.4,1.75,1.68,1.9,5.51.63,6.1.1,5.36-5.3-.22-1.56-.59-3.09-.89-4.64-.15-.79-.21-1.48.9-1.63,1-.13,1.53,0,1.73,1.11a54.8,54.8,0,0,1,1.27,8.61c.06,3.07-.81,4-3.83,4.36a28.43,28.43,0,0,1-3,.22C393.81,269.26,392.71,268.12,392.84,262.31Z" transform="translate(-329.29 -200.51)"/><path class="b54122bd-a848-4e34-99cc-55fcbcb24a33" d="M481,263.71c2-2.7,3.6-4.88,5.17-7.09.6-.84,1-1.28,2.12-.47s.64,1.3.1,2c-1.44,1.93-2.78,3.93-4.31,5.79-1.25,1.52-.57,2,.94,2.33s2.88.78,4.34,1.08c1.12.24,1.24.84,1,1.81s-.82,1-1.67.77c-1.91-.56-3.84-1-5.76-1.56-.87-.23-1.71-.37-1.46,1,.2,1.13-.38,1.39-1.4,1.44s-1.2-.47-1.26-1.32c-.28-3.56-.6-7.12-.93-10.67-.09-.93-.07-1.57,1.18-1.61,1.09,0,1.43.28,1.46,1.36C480.51,260.11,480.75,261.59,481,263.71Z" transform="translate(-329.29 -200.51)"/><path class="5118f2e2-b53c-4e70-9779-7bcf2173c98b" d="M456.52,266.46a8.49,8.49,0,0,1,1.49-.06c2.21.29,2.54-1,2.26-2.71-.37-2.29-.77-4.58-1.16-6.87-.14-.79-.58-1.62.76-1.9,1.18-.24,1.66.17,1.84,1.3.48,3,1.31,6,1.2,9.12-.07,2.13-1,3.42-3.28,3.61a28.69,28.69,0,0,1-5.71.14c-2.32-.26-3.36-1.58-3.52-3.77-.22-3.18.46-6.28.85-9.41.16-1.27,1-1.1,1.77-1.1,1.27,0,.94.94.85,1.61-.27,2.14-.71,4.26-.91,6.41C452.63,266.45,452.83,266.6,456.52,266.46Z" transform="translate(-329.29 -200.51)"/><path class="56e3ab0f-d584-43c8-b4c9-534bde8ccfc5" d="M416,254.78c.56.38,2-.82,2.05,1.05.07,1.66-.92,1.56-2.07,1.56a9.66,9.66,0,0,0-6.27,2c-.3.24-.67.63-.67,1,0,.65.7.67,1.11.7,1.65.14,3.32.12,5,.27s3.62.55,4.12,2.58-.95,3.22-2.44,4.21a11.12,11.12,0,0,1-4.6,1.79c-.85.12-1.67.34-1.76-1-.07-1,.11-1.49,1.25-1.63a7.78,7.78,0,0,0,4.08-1.68c1-.84.74-1.48-.41-1.62-1.56-.19-3.16,0-4.72-.22-1.79-.21-3.84-.31-4.39-2.54s1.05-3.52,2.73-4.53A12.81,12.81,0,0,1,416,254.78Z" transform="translate(-329.29 -200.51)"/><path class="f99197a0-ad60-4b05-9fa5-7615316246aa" d="M495.67,254.59c1-.06,2-.1,3-.17.83-.06,1.22.27,1.24,1.12s.05,1.52-1,1.56c-.91,0-1.82.18-2.73.17-1.27,0-2.16,0-2,1.83.16,1.68.84,1.91,2.19,1.65.57-.11,1.15-.15,1.73-.22,1-.12,1.92-.47,2.07,1.18s-1,1.42-1.89,1.54a17,17,0,0,1-2.48.16c-1.18,0-1.32.65-1.27,1.61s.56,1.3,1.45,1.17a20.33,20.33,0,0,0,3.19-.51c1.15-.36,1.46.15,1.68,1.09s-.07,1.44-1,1.56a1.58,1.58,0,0,0-.25,0c-2.18.63-4.72,1.29-6.59.4-2.17-1-.75-3.84-1.09-5.84s-.21-3.82-.48-5.7.3-2.77,2.31-2.51a11.45,11.45,0,0,0,2-.08Z" transform="translate(-329.29 -200.51)"/><path class="b54122bd-a848-4e34-99cc-55fcbcb24a33" d="M438.17,277.21c1,0,2,0,3,0s1.17.32,1.19,1.15,0,1.5-1.11,1.48c-.91,0-1.83.06-2.75.08-1.09,0-2.19-.17-2,1.63.17,1.38.42,2.21,2.06,1.85.88-.19,1.83-.08,2.74-.19s1.2.25,1.21,1.1.18,1.53-1,1.56-2.32.22-3.48.27-1.16.59-1.13,1.49.51,1.32,1.41,1.2,2-.25,3-.44,1.69-.16,2,1.11-.43,1.39-1.3,1.54c-.24,0-.48.15-.72.2-6.29,1.38-6.61,1.14-6.95-5.14-.11-2.08-.18-4.17-.47-6.22s.32-2.8,2.34-2.53a15.31,15.31,0,0,0,2,0Z" transform="translate(-329.29 -200.51)"/><path class="b54122bd-a848-4e34-99cc-55fcbcb24a33" d="M472.35,270.48c-4.38.11-6.78-1.41-8-4.77a6.88,6.88,0,0,1,2.19-8.08,7.07,7.07,0,0,1,8.37-.47c.45.31,1.24.53,1,1.21a3.23,3.23,0,0,1-1.08,1.3c-.62.55-1-.13-1.53-.36a4.54,4.54,0,0,0-5.53.73,4,4,0,0,0-.94,4.8,4.53,4.53,0,0,0,4.63,3.06,12.69,12.69,0,0,0,4.17-.66c1.18-.4,1.41.19,1.72,1.07.37,1.06-.25,1.32-1,1.52A15.76,15.76,0,0,1,472.35,270.48Z" transform="translate(-329.29 -200.51)"/><path class="f99197a0-ad60-4b05-9fa5-7615316246aa" d="M366.34,254.8c.86.24,2.28-.79,2.46,1.1.08.82.1,1.59-1,1.48-2-.2-2.08,1-1.89,2.49.17,1.32.26,2.65.35,4,.11,1.55-.09,3.28,2.48,2.6,1-.27.81.8,1,1.38s0,1.2-.75,1.28c-2.07.22-4.14.44-6.21.6-.65.05-.8-.5-.8-1s-.36-1.52.62-1.62c1.58-.16,1.28-1.17,1.18-2.16q-.23-2.24-.44-4.47c-.13-1.37.12-2.94-2.21-2.5-1.16.22-.83-1-1-1.62-.2-.83.37-.94,1-1C362.83,255.16,364.57,255,366.34,254.8Z" transform="translate(-329.29 -200.51)"/><path class="5118f2e2-b53c-4e70-9779-7bcf2173c98b" d="M390.93,261.52c0,.75,0,1.5,0,2.24-.29,4.07-2.57,5.79-7,5.32-3.31-.35-5.22-3-4.78-6.62.1-.79.31-1.2,1.21-1.15s1.54.26,1.48,1.44c-.1,1.85.13,3.54,2.6,3.69,3.06.18,3.94-.52,3.91-3.62a52.41,52.41,0,0,0-.5-6.2c-.15-1.13,0-1.69,1.27-1.83s1.28.7,1.38,1.53q.31,2.59.63,5.19Z" transform="translate(-329.29 -200.51)"/><path class="f99197a0-ad60-4b05-9fa5-7615316246aa" d="M390.22,278.81c-.54.34-1,.66-1.51,1-3.24,1.88-3.68,4.79-3.07,8.14.18,1,.11,2,.22,3s-.17,1.5-1.33,1.52-1.42-.5-1.44-1.48c-.05-1.91-.26-3.83-.2-5.74a3.52,3.52,0,0,0-1.94-3.65c-1.09-.58-2-1.45-3.07-2.13-.7-.46-1.15-.88-.45-1.72.55-.67,1-1.44,1.94-.51a4.24,4.24,0,0,0,.62.42c1.3.89,2.54,2.35,3.92,2.49s2.21-1.76,3.37-2.66c.41-.32.83-1,1.46-.3C389.13,277.54,389.5,278,390.22,278.81Z" transform="translate(-329.29 -200.51)"/><path class="b54122bd-a848-4e34-99cc-55fcbcb24a33" d="M423.9,281.57c-.5-1.57.43-2.07,2.08-2.07s3.15-.11,4.72-.2c1-.06,1.73-.09,1.76,1.33s-.93,1.24-1.79,1.3l-1.49.07c-2.28.14-3.22,1.72-2.21,3.72.49,1,1.28.24,1.93.33.89.12,2.15-1,2.56.8s-1.08,1.79-2.08,1.82c-1.74,0-2.34.71-2,2.41.18.87.34,1.77-1.16,1.85s-1.38-.71-1.46-1.67C424.53,288.13,424.22,285,423.9,281.57Z" transform="translate(-329.29 -200.51)"/><path class="5118f2e2-b53c-4e70-9779-7bcf2173c98b" d="M445.42,263.27c1.2.19,2.51-.72,2.6,1.26.08,1.75-1.11,1.38-2,1.39-1.81,0-2.57.74-2.12,2.59.26,1.05,0,1.72-1.34,1.79s-1.2-.8-1.28-1.62c-.29-3.32-.55-6.63-.91-9.94-.15-1.41.3-1.95,1.74-1.92a52.16,52.16,0,0,0,5.24-.22c1-.08,1.55.06,1.58,1.26s-.41,1.5-1.44,1.46c-.58,0-1.16,0-1.75.05-2.5.08-3.09,1-2.35,3.34C443.9,264.21,445,262.9,445.42,263.27Z" transform="translate(-329.29 -200.51)"/><path class="5118f2e2-b53c-4e70-9779-7bcf2173c98b" d="M412.51,313.6c-.32,6.3-1.93,12-6,16.91-.57.69-1.17,2-2.37,1s-.11-1.77.48-2.51c3.85-4.83,5.25-10.45,5.37-16.5a12.08,12.08,0,0,1,.11-2,1.12,1.12,0,0,1,1.28-.93,1,1,0,0,1,1.09,1.11C412.52,311.7,412.51,312.7,412.51,313.6Z" transform="translate(-329.29 -200.51)"/><path class="5118f2e2-b53c-4e70-9779-7bcf2173c98b" d="M429.47,255.07c1.42-.34,1.41.35,1.53,1,.15.9-.06,1.6-1,1.5-3.67-.39-3.13,2-3,4.26.14,1.91.25,3.82.4,5.73.08,1,.07,1.75-1.33,1.78s-1.28-.66-1.33-1.54c-.12-2.49-.37-5-.39-7.48,0-1.66-.57-2.28-2.21-1.84-.88.24-1.74.56-1.94-1-.18-1.36.49-1.54,1.5-1.65C424.43,255.63,427.15,255.32,429.47,255.07Z" transform="translate(-329.29 -200.51)"/><path class="f99197a0-ad60-4b05-9fa5-7615316246aa" d="M421.46,287.78c.1,1,.18,2,.29,3,.1.83,0,1.47-1,1.56s-1.61,0-1.69-1.2q-.39-6-.84-11.92c-.08-1,.36-1.3,1.29-1.33s1.37.21,1.43,1.21c.16,2.9.39,5.79.6,8.69Z" transform="translate(-329.29 -200.51)"/><path class="778270e8-2646-4c88-8dcc-ef550603a32a" d="M469.93,431.86l.63-10.27a37.29,37.29,0,0,1,.28,10.28Z" transform="translate(-329.29 -200.51)"/><path class="56e3ab0f-d584-43c8-b4c9-534bde8ccfc5" d="M447.35,289.39c1.27-.27,1.56.37,1.65,1.46s-.45,1.14-1.29,1.19c-1.12.08-1.33-.47-1.43-1.43S446.32,289.16,447.35,289.39Z" transform="translate(-329.29 -200.51)"/><path class="48b3f089-12a0-4f9a-9a12-38728d3a366f" d="M521,436.41a21.18,21.18,0,0,1,.44-6.21,8.13,8.13,0,0,1,.46,4.16C521.05,434.8,521.56,435.84,521,436.41Z" transform="translate(-329.29 -200.51)"/><path class="778270e8-2646-4c88-8dcc-ef550603a32a" d="M470.73,435.83a6.07,6.07,0,0,1-.28,3.1A4,4,0,0,1,470.73,435.83Z" transform="translate(-329.29 -200.51)"/><path class="4a987d89-b7ef-4146-97f7-bc2fb6968bef" d="M400.81,360.38c2.45.07,2.68.81,2,2.25s.11,1.81,1.42,1.71c2.62-.22,5.23.41,7.88-.33,1.5-.42,1.47,1.38,1.69,2.24,2.1,8.51,1.74,16.84-2.43,24.73-4.8,9.07-12,15.35-22.36,16.54-22.54,2.6-42.07-9.88-42.53-34.84-.15-8.17,3.81-14.63,9.64-20.08,12.46-11.66,39.57-10.93,51.39,2.92,1.36,1.59,1.75,2.4-.7,3C405,358.89,403.35,359.56,400.81,360.38Zm-33.92,4.26a9.07,9.07,0,0,0,3.89,6,30.24,30.24,0,0,0,8,3.92c6.56,2.18,13.22,3.26,20.08,1.72,1.51-.34,3.23-.53,4.2-2.41C390.88,371.16,379,367.81,366.89,364.65Zm12.55-6.59c1.63.62,1.25,1.31.56,2.41-1.54,2.43-1,3.35,1.83,3.35a40.53,40.53,0,0,1,4.23,0c2.32.25,3.22-.6,2.16-2.75-.6-1.2.38-1.16,1.1-1.67C386,358.65,382.92,357.51,379.44,358.06Z" transform="translate(-329.29 -200.51)"/><path class="1081874f-de58-4e9c-ba88-93e1cea7c75e" d="M394.8,428.83A207.72,207.72,0,0,0,396.21,450c.2,1.68-.25,2.36-1.84,2.74a84.2,84.2,0,0,1-31.48,1.68c-3.18-.44-6-2-8.76-3.5-1-.57-1.08-1.56-1.26-2.56-2.57-14.26-1.47-28.36,1.73-42.38.9-4,.82-4,4.26-1.71a44.56,44.56,0,0,0,23.09,7.1c4.27.18,8.3,1.67,12.49,2.3,1.3.2,1,1.14.93,1.91C395.19,420,395,424.42,394.8,428.83Z" transform="translate(-329.29 -200.51)"/><path class="b4d446a0-47dd-49ae-be7c-0741d7f8d74a" d="M432.08,404.67c-2.32,5-6.53,6.41-11,7.16-6.8,1.13-13.58.41-20.34-.59-.61-.09-1.52,0-1.41-1s-.32-2.21.94-2.89c2.83-1.51,5.23-3.41,9.08-2.65A55.78,55.78,0,0,0,432.08,404.67Z" transform="translate(-329.29 -200.51)"/><path class="4a987d89-b7ef-4146-97f7-bc2fb6968bef" d="M454.3,374.93c3.73,2,5.54,2,7.17.2a4.59,4.59,0,0,0,.79-5.74c-1.21-2.17-3.45-2.7-6.88-1.72-.4-1.78.33-2.36,2.08-2.27a33,33,0,0,0,6.84-.34c-2.63-1-5.42-.48-8.32-.84,2.55-6.55,6.52-11.81,12.42-15.28,12.52-7.37,25.82-8.21,38.67-1.79,15.92,7.95,20.63,24.88,11.43,42-5.18,9.65-13.72,14.39-24,16.56-8.66,1.83-17.16,1.44-24.82-3.42C459.83,396.09,455.1,386.78,454.3,374.93Zm15.11,5.7a24.4,24.4,0,0,0,7,0l1.5,0,1.46.07,2.78.36.06-.64-2.82-.51c-3.68-.73-7.4.38-11.09-.28-.38-.07-.71.1-.42.51.15.21.57.22.87.32Zm12.27-14.35a4.52,4.52,0,0,0-4.81,4.55,4.74,4.74,0,0,0,4.33,4.84,5.12,5.12,0,0,0,5.06-4.81A4.71,4.71,0,0,0,481.69,366.28Zm-6-2.22-.05.69H488.5C484.22,363.52,479.93,363.85,475.64,364.06Z" transform="translate(-329.29 -200.51)"/><path class="0ecb3f3d-b1f3-48b1-82aa-ca5fd224f1e8" d="M513.91,401c1.41,6.39,2.71,12.65,3.47,19,1.1,9.17.31,18.27-.94,27.36a3.41,3.41,0,0,1-1.86,2.7,28.74,28.74,0,0,1-13.83,3.74A87,87,0,0,1,475,451.39c-1.49-.38-1.9-.85-1.75-2.51,1.13-12.95,1.82-25.91.5-38.89-.11-1.07-.29-1.84,1.28-1.41,13.87,3.8,26.47.87,38.08-7.25A7.23,7.23,0,0,1,513.91,401Z" transform="translate(-329.29 -200.51)"/><path class="b4d446a0-47dd-49ae-be7c-0741d7f8d74a" d="M504.87,261.8a6.71,6.71,0,0,1,0-.9c.21-1-.86-2.36.29-2.91s2.43.28,3.46,1c1.63,1.1,2.94,2.46,2.85,4.65s-3.78,4.43-5.65,3.53c-.56-.27-.51-.8-.56-1.28C505.11,264.38,505,262.89,504.87,261.8Z" transform="translate(-329.29 -200.51)"/><path class="2fe6bfa3-2b61-4891-a34b-4036e8f88c51" d="M366.89,364.65c12.13,3.16,24,6.52,36.19,9.26-1,1.87-2.69,2.07-4.2,2.41-6.86,1.54-13.52.46-20.08-1.72a30.24,30.24,0,0,1-8-3.92A9.07,9.07,0,0,1,366.89,364.65Z" transform="translate(-329.29 -200.51)"/><path class="774d6423-0684-4c3e-bd71-5c620cfe179c" d="M379.44,358.06c3.48-.55,6.51.59,9.86,1.37-.72.5-1.69.46-1.1,1.67,1.07,2.15.16,3-2.16,2.75a40.53,40.53,0,0,0-4.23,0c-2.81,0-3.37-.92-1.83-3.35C380.69,359.37,381.07,358.68,379.44,358.06Z" transform="translate(-329.29 -200.51)"/><path class="2fe6bfa3-2b61-4891-a34b-4036e8f88c51" d="M481.69,366.28a4.71,4.71,0,0,1,4.59,4.58,5.12,5.12,0,0,1-5.06,4.81,4.74,4.74,0,0,1-4.33-4.84A4.52,4.52,0,0,1,481.69,366.28Z" transform="translate(-329.29 -200.51)"/><path class="f99197a0-ad60-4b05-9fa5-7615316246aa" d="M475.64,364.06c4.29-.21,8.58-.54,12.86.69H475.59Z" transform="translate(-329.29 -200.51)"/><path class="f99197a0-ad60-4b05-9fa5-7615316246aa" d="M476.4,380.62a24.4,24.4,0,0,1-7,0l-.67-.16c-.3-.1-.72-.11-.87-.32-.3-.41,0-.58.42-.51,3.68.66,7.41-.45,11.09.28l0,.78-1.46-.07A1,1,0,0,0,476.4,380.62Z" transform="translate(-329.29 -200.51)"/><path class="8598afe9-ad3e-4584-90a4-7a276f6cb887" d="M479.36,380.71l0-.78,2.82.51-.06.64Z" transform="translate(-329.29 -200.51)"/><path class="8598afe9-ad3e-4584-90a4-7a276f6cb887" d="M476.4,380.62a1,1,0,0,1,1.5,0Z" transform="translate(-329.29 -200.51)"/><path class="8598afe9-ad3e-4584-90a4-7a276f6cb887" d="M468.75,380.47l.67.16Z" transform="translate(-329.29 -200.51)"/></svg>