<svg id="448f6618-9f50-4905-9b2f-0b6e1130895c" data-name="Capa 1" xmlns="http://www.w3.org/2000/svg" viewBox="0 0 213.6 309.59"><defs><style>.\30 fa330ea-a817-429a-be8d-d8456dc9ad9a{fill:#0b0c0a;}.\34 d858911-3d13-4ede-86eb-889264d7dbb4{fill:#fefefe;}.b075e691-393a-4384-b40a-abc2e5d1a5c9{fill:#f8cda0;}.\36 e9d22b8-6183-48d8-a3b2-a75c07411625{fill:#f7cca0;}.a4505f8f-cddc-4691-86cb-e72d365a6ab0{fill:#96b5c8;}.\35 540cabc-56c4-4c5c-a990-5980fad64685{fill:#509541;}.\38 f50d8e7-503e-44a0-a95f-6c40b9c9c33f{fill:#faf9fa;}.\30 e9f9912-427b-412e-9291-18313494cead{fill:#f7f7f7;}.\39 70fd701-6035-43e6-ace8-d17ec34b791b{fill:#f3f3f3;}.\35 4f07ea6-40fd-4f97-ae52-05538d83a3c2{fill:#e5e4e4;}.e595814d-5025-4092-b5e3-6b6450f4b212{fill:#949494;}.\35 3e8624d-3aee-4839-b786-913325bc5440{fill:#c3c2c2;}.deaa6163-cd8d-41b1-aa4f-c43a7fa64a9a{fill:#282828;}.\30 b55bcf7-5fa2-4bb7-85a8-a6162ac4c77b{fill:#2f2f2f;}.dc808206-7e14-440d-9cff-e9dd7f8b3090{fill:#917b66;}</style></defs><title>card-24</title><path class="0fa330ea-a817-429a-be8d-d8456dc9ad9a" d="M329.15,354.93q0-71.36,0-142.73c0-1.08,0-2.17.08-3.25a8.78,8.78,0,0,1,8.53-8.47c1.49-.12,3-.09,4.5-.09H530c10.31,0,12.77,2.48,12.77,12.86q0,142.35,0,284.71a32.31,32.31,0,0,1-.09,3.5c-.6,5.54-3.89,8.52-9.47,8.52q-97.11,0-194.22,0c-6,0-9.46-3.35-9.78-9.31,0-.91,0-1.83,0-2.75Q329.15,426.42,329.15,354.93Zm92.26,97c-.06.47-.3,1.15.3,1.26.75.14.55-.63.56-1.05,0-.74,0-1.48,0-2.21v-2.79h-.53Zm-54.18,53c-5.63-.85-11.39-1.14-16.73-3.29-1.83-.73-2.49-.42-2.65,1.42,0,.41-.09.82-.14,1.23-.24.49-.88,1,.08,1.42l19.42,0h5.08v-.36Zm168.45-7.53a1.15,1.15,0,0,0-.34-1.12l0-2.34a4.78,4.78,0,0,0,.31-1.16c0-6.57.15-13.14.07-19.71,0-3,.24-6.11-.79-9.34-.15,2.42-.53,4.56.3,6.64-.88.16-.54.92-.61,1.4-.65,4.68-1.09,9.39-1.91,14-1.19,6.7-1.93,13.52-4.46,20,2.37-.15,4.79.41,7.13-.51,2-.8,2.62-2.49,3.11-4.45s-1.34-1.49-1.93-2.28C536.28,498.26,536,497.88,535.67,497.49ZM445.83,451c-1.8,12-3.76,24-6.35,35.86-.59,2.69-2,3.75-4.06,3.27s-2.67-1.92-2.17-4.58c.72-3.84,1.52-7.67,2.25-11.5a507.8,507.8,0,0,0,7.18-53.42c.14-1.69.55-3.37-1.52-4.52-1.64-.91-2.95-3.25-4.48-3.33s-3.36,1.82-5.11,2.71a3.2,3.2,0,0,0-2,3,426.91,426.91,0,0,0-.61,43c.28,8.07.91,16.13,1.32,24.19.15,3-1.87,4.68-4.31,3.72-1.88-.74-2.07-2.39-2.18-4.12-.66-10-1.24-19.95-1.45-29.94,0-.63.36-1.55-.74-1.74-.57.58-.39,1.28-.43,1.92a400.06,400.06,0,0,0-.16,42.44c.12,2.88-.56,3.87-3.43,4.48-1.38.3-2.75.65-4.14.87-.9.14-1.24.47-1.2,1.44s.6,1.18,1.44,1.17c2.42,0,4.83,0,7.25,0h25.46a5.57,5.57,0,0,0-3.12-1.78c-2.27-.76-3.17-2.11-2.63-4.56.59-2.67.95-5.41,1.37-8.12,1.93-12.42,3.71-24.86,4.27-37.44a18.92,18.92,0,0,0,.07-7.59Zm14.92-75.93c-1.43-.67-2.87-1.3-4.27-2-.58-.3-1.56-.67-.82-1.61.87-1.09.66-2.4.8-3.59.87-7.39,1.44-14.92-.79-22.05-6.1-19.57-19-32.56-38.74-38.64-15-4.63-30.31-5.44-45.24-.6-24.19,7.85-41.14,30.72-35.45,59.57,2.59,13.14,8.1,24.84,18.28,33.84,11.15,9.86,24.54,14.64,39.14,16.56,15.06,2,28.76-1.24,41-10.39a53.41,53.41,0,0,0,14.46-17c1.46-2.63,3-3.88,5.89-3.88a42.13,42.13,0,0,0,4.7-.58c1.27-.15,1.89-.66,1-1.89-1.34-1.93-1.26-3.64.61-5.16.48-.11,1.27-.2.86.52-1,1.7.3,1.3,1.1,1.35s1.5,0,2.25,0a27.45,27.45,0,0,1,12.6,2.92,11.5,11.5,0,0,1-2.82,0c-4-1.28-8-1-12.08-1-.85,0-1.6-.26-1.35,1.22.46,2.68-.17,3.41-2.93,3.65a2.13,2.13,0,0,0-2.07,1.34,70.08,70.08,0,0,1-14.29,19.69c-1,.95-1,1.44.06,2.3a55.83,55.83,0,0,0,9.53,6.36c13.54,7.11,27.89,7.64,42.54,4.95,18.93-3.48,33.51-13.2,42.74-30.39a7.66,7.66,0,0,0,1.14-3.75q-.06-23.61,0-47.22a5.13,5.13,0,0,0-.72-2.84,52.48,52.48,0,0,0-24.43-21.3A71.45,71.45,0,0,0,489,309.71c-13.67-.73-26.9.79-39,7.84-1.84,1.07-2.47,1.63-.75,3.62,6.32,7.37,11,15.77,12.91,25.29a70.48,70.48,0,0,1-.39,27.55C461.62,374.71,461.46,375.07,460.75,375.06Zm77.4-48.66c.64-.39.45-.85.45-1.22q0-57.12,0-114.24c0-4.28-1.76-6.08-6-6.38-1-.07-2-.06-3-.06H376.89c-12.17,0-24.33,0-36.5,0-5.63,0-7.1,1.61-7.1,7.18q0,59.49,0,119c0,.58-.23,1.25.37,1.94.44-.89.78-1.64,1.16-2.36,8.05-15.31,20.37-25.5,37-30.13a80.35,80.35,0,0,1,33.66-1.74c13.29,2,25.69,6.15,36,15.12,1.2,1,1.93,1,3.19.16a59,59,0,0,1,18-7.77,89.87,89.87,0,0,1,34-1.44c15,2.23,28.25,8,38.84,19.13C536.42,324.53,537.29,325.48,538.14,326.4ZM348.22,402.57c-1.54,5.71-2.95,11.08-4.43,16.43a183.35,183.35,0,0,0-5.56,68,2.51,2.51,0,0,0,1,2.15c5.49,3.66,11.15,7,17.73,8.28A143.17,143.17,0,0,0,373,499.63a146.55,146.55,0,0,0,40.26-2.29,1.79,1.79,0,0,0,1.69-2.18c-1-24.27-.11-48.45,3.91-72.45.33-2-.3-1.81-1.76-1.46-18.7,4.47-36.31.89-53.21-7.44A67.53,67.53,0,0,1,348.22,402.57Zm143,103.27c5.67,0,10-.28,14.33.07,5.84.48,11-1.38,16-3.83a4.51,4.51,0,0,0,2.69-3.53,234.88,234.88,0,0,0,4.34-27.33,159.33,159.33,0,0,0,.2-28.43c-.73-8.21-1.81-16.36-3-24.51-.53-3.64-.42-3.55-3.64-1.66-21.34,12.56-43.73,15.6-67.29,7.14-1.85-.66-2.22-.39-2.2,1.51.08,7.5.31,15-.05,22.49A410.37,410.37,0,0,1,447,497.06c-.24,1.41-.1,2.06,1.38,2.55a176.3,176.3,0,0,0,20.5,5.36C476.76,506.6,484.69,505.4,491.23,505.84Zm-157.86-94c.44,0,.41-.43.5-.7a135.17,135.17,0,0,1,6.54-16.89,1.42,1.42,0,0,0,0-1.61,83.17,83.17,0,0,1-7.05-13.77Zm-.08,80.67c0,2.85-.09,5.34,0,7.82a5.47,5.47,0,0,0,6,5.6c.81,0,1.41-.06,1.59-1.08.36-2,.85-3.88,1.31-5.81a1.21,1.21,0,0,0-.64-1.45C338.87,495.93,336.22,494.29,333.29,492.47Zm205.35-68.84q0-5.71,0-11.43c0-3.76,0-7.52,0-11.93-1.66,2.08-2.87,3.63-4.12,5.13a1.54,1.54,0,0,0-.29,1.61C536.06,412.45,537,418.08,538.65,423.64ZM405.72,504.86c-2.21.49-4.59-.45-6.7.88C401.27,505.58,403.66,506.6,405.72,504.86Z" transform="translate(-329.15 -200.39)"/><path class="4d858911-3d13-4ede-86eb-889264d7dbb4" d="M538.14,326.4c-.85-.92-1.72-1.87-2.61-2.81-10.59-11.16-23.87-16.9-38.84-19.13a89.87,89.87,0,0,0-34,1.44,59,59,0,0,0-18,7.77c-1.26.79-2,.88-3.19-.16-10.35-9-22.76-13.14-36-15.12a80.35,80.35,0,0,0-33.66,1.74c-16.64,4.64-29,14.83-37,30.13-.38.72-.72,1.47-1.16,2.36-.6-.69-.37-1.36-.37-1.94q0-59.49,0-119c0-5.57,1.48-7.15,7.1-7.18,12.17-.07,24.33,0,36.5,0H529.62c1,0,2,0,3,.06,4.21.29,6,2.1,6,6.38q0,57.12,0,114.24C538.59,325.55,538.78,326,538.14,326.4Zm-72.42-43c-1.4.2-1.79,1.57-2.8,2.44-.76-2.62-2.4-4.06-5.1-3.42-2.32.54-3.94,2-4,4.6-1.14.79-.92-.24-1-.76-.32-3.09-1.52-4.18-4.38-3.92a5.05,5.05,0,0,0-4.46,5.06,3.83,3.83,0,0,0,3,3.77c2.37.53,4.13-.57,5.54-2.45.29-.38-.1-1.88,1.24-1a3.56,3.56,0,0,0,3.19,3.5,4.87,4.87,0,0,0,5.29-2.75l.49-.16c1.57,2.34,3.44,4,6.52,2.84l.54-.22c.76,0,1.16-.2.84-1,0-.3-.06-.48-.41-.42h-.51l-3.34.34a4.21,4.21,0,0,1-1.91-2.46l0-.91a3.69,3.69,0,0,1,1.74-1.69l2,0c.58.4,1.24.66,1.56-.18s-.44-1-1.06-1.2A2.79,2.79,0,0,0,465.72,283.43ZM425,286c-1.58-1.09-1.6-1.09-1.29-2.84a.9.9,0,0,0-.53-1,5.1,5.1,0,0,0-4.71.2c-1.28.63,2.42,2.49,0,3.87.18.25.46.74.54.71,1-.38,2.1.5,2.73.36,1.94-.43,3.66-.69,5.56.22,1.07.51,2.53-.24,3.74.53a2.44,2.44,0,0,1-2.15,1.39c-.63.1-1.24.23-1.08,1,.21,1,1,.63,1.62.49a7.25,7.25,0,0,0,1.83-.77c1-.55,1.82-1.28,1.55-2.56s-1.34-1.32-2.32-1.52-2.23.2-3.41-.47A4.63,4.63,0,0,1,431,284c.66,0,1.19-.26,1.17-1,0-1-.79-.63-1.3-.62C428.22,282.45,426,283.27,425,286Zm15.7,1.86c.48,1.18.83,2.1,1.23,3,.21.46.49.87,1.14.63s.59-.65.37-1.18a30.31,30.31,0,0,1-1.85-6.18c-.1-.57-.31-1.15-1.1-1.1s-.67.76-.87,1.27c-.4,1-.1,2.29-1.18,3.21-.27-.93-.51-1.72-.73-2.52s-.46-1.29-1.28-1.3-.95.63-1.1,1.17c-.47,1.67-.85,3.37-1.31,5-.17.61-.29,1.17.48,1.41s.87-.52,1-1c.34-.91.16-2,.88-2.8,1.18.75.54,3.11,2.42,3.05C440.15,290.49,439.84,288.81,440.69,287.82Zm30.5-2.68h-.08c.17,1.4.33,2.81.5,4.21.06.5.09,1,.8,1s.85-.5.75-1c-.27-1.4.47-1.69,1.65-1.79,1.49-.14,1.36.83,1.38,1.75,0,.68.27,1.16,1,1.06s.63-.85.6-1.38c-.11-1.66-.23-3.33-.46-5-.1-.7.45-2-.87-1.94s-.82,1.34-.67,1.94c.5,2-.73,2-2,2-1.57,0-.91-1.28-1-2s-.15-1.41-1.09-1.28-.52.88-.55,1.41C471.13,284.47,471.17,284.8,471.19,285.14Zm11.39,2.68c.77-1.54,1.6-1.08,2.47-.61.08,0,.67-.57.62-.64a24.43,24.43,0,0,1-1.6-4.19c-.57-1.53-3.37-.54-4.74,0-1,.4,2.21,2.54,0,4,.17.18.35.53.5.51C480.84,286.79,481.89,286.16,482.58,287.82Z" transform="translate(-329.15 -200.39)"/><path class="b075e691-393a-4384-b40a-abc2e5d1a5c9" d="M461.31,377.62c-1.86,1.53-1.95,3.23-.61,5.16.85,1.22.24,1.74-1,1.89a42.13,42.13,0,0,1-4.7.58c-2.89,0-4.43,1.26-5.89,3.88a53.41,53.41,0,0,1-14.46,17c-12.19,9.15-25.89,12.36-41,10.39-14.6-1.91-28-6.7-39.14-16.56-10.18-9-15.69-20.7-18.28-33.84-5.69-28.84,11.25-51.72,35.45-59.57,14.92-4.84,30.21-4,45.24.6,19.71,6.08,32.64,19.07,38.74,38.64,2.22,7.13,1.65,14.67.79,22.05-.14,1.19.07,2.49-.8,3.59-.75.94.24,1.31.82,1.61,1.39.74,2.84,1.36,4.27,2Zm-21.64-13.26c1.93.39,3.72.25,5.13-1.34,2.42-.77,5.4-.49,7.19-4a26.26,26.26,0,0,1-10.35,3.38,24.39,24.39,0,0,1-5.65.55.85.85,0,0,0-1,.76c0,.19.56.64.63.6C437,363.44,438.32,364.83,439.67,364.36Z" transform="translate(-329.15 -200.39)"/><path class="6e9d22b8-6183-48d8-a3b2-a75c07411625" d="M461.31,377.62l-.57-2.56c.72,0,.87-.35,1-1.06a70.48,70.48,0,0,0,.39-27.55c-1.91-9.52-6.6-17.93-12.91-25.29-1.71-2-1.08-2.56.75-3.62,12.14-7,25.36-8.57,39-7.84a71.45,71.45,0,0,1,24.42,5.67,52.48,52.48,0,0,1,24.43,21.3,5.13,5.13,0,0,1,.72,2.84q0,23.61,0,47.22a7.66,7.66,0,0,1-1.14,3.75c-9.23,17.19-23.82,26.91-42.74,30.39-14.65,2.69-29,2.16-42.54-4.95a55.83,55.83,0,0,1-9.53-6.36c-1-.86-1-1.35-.06-2.3a70.08,70.08,0,0,0,14.29-19.69,2.13,2.13,0,0,1,2.07-1.34c2.76-.23,3.39-1,2.93-3.65-.25-1.48.5-1.23,1.35-1.22,4,.06,8.12-.26,12.08,1a11.5,11.5,0,0,0,2.82,0,27.45,27.45,0,0,0-12.6-2.92c-.75,0-1.5,0-2.25,0s-2.07.35-1.1-1.35C462.59,377.42,461.79,377.51,461.31,377.62Zm17-21.19a8.17,8.17,0,0,0-8.45,8.25c-.05,4.18,3.71,8.28,7.64,8.31,5.23,0,9-3.6,9-8.57A8.18,8.18,0,0,0,478.27,356.43Zm14.09-8.1a7.9,7.9,0,0,0-.54-1.32,20.29,20.29,0,0,0-5.36-6.16c-5.53-4.13-14.78,1-16.84,5.1-.31.61-.57,1.38,0,1.85.83.65,1.09-.37,1.49-.77.88-.88,1.64-1.88,2.54-2.75a10.27,10.27,0,0,1,13.45-1,11.42,11.42,0,0,1,4,5.33c.17.45.22,1,.94.84C492.43,349.34,492.43,349,492.36,348.32Z" transform="translate(-329.15 -200.39)"/><path class="a4505f8f-cddc-4691-86cb-e72d365a6ab0" d="M348.22,402.57a67.53,67.53,0,0,0,15.68,11.24c16.9,8.33,34.51,11.91,53.21,7.44,1.46-.35,2.1-.53,1.76,1.46-4,24-4.92,48.17-3.91,72.45a1.79,1.79,0,0,1-1.69,2.18A146.55,146.55,0,0,1,373,499.63,143.17,143.17,0,0,1,357,497.47c-6.59-1.29-12.24-4.62-17.73-8.28a2.51,2.51,0,0,1-1-2.15,183.35,183.35,0,0,1,5.56-68C345.28,413.65,346.69,408.28,348.22,402.57Z" transform="translate(-329.15 -200.39)"/><path class="5540cabc-56c4-4c5c-a990-5980fad64685" d="M491.23,505.84c-6.54-.43-14.47.76-22.33-.86a176.3,176.3,0,0,1-20.5-5.36c-1.48-.5-1.62-1.15-1.38-2.55a410.37,410.37,0,0,0,5.63-49.31c.36-7.48.13-15,.05-22.49,0-1.91.35-2.18,2.2-1.51,23.56,8.45,46,5.42,67.29-7.14,3.22-1.89,3.1-2,3.64,1.66,1.2,8.15,2.28,16.31,3,24.51a159.33,159.33,0,0,1-.2,28.43,234.88,234.88,0,0,1-4.34,27.33,4.51,4.51,0,0,1-2.69,3.53c-5.09,2.44-10.2,4.3-16,3.83C501.26,505.55,496.9,505.84,491.23,505.84Z" transform="translate(-329.15 -200.39)"/><path class="8f50d8e7-503e-44a0-a95f-6c40b9c9c33f" d="M446.28,454c-.56,12.58-2.35,25-4.27,37.44-.42,2.71-.77,5.44-1.37,8.12-.54,2.45.36,3.8,2.63,4.56a5.57,5.57,0,0,1,3.12,1.78H420.93c-2.42,0-4.83,0-7.25,0-.84,0-1.4-.09-1.44-1.17s.3-1.29,1.2-1.44c1.39-.22,2.76-.57,4.14-.87,2.87-.61,3.55-1.6,3.43-4.48a400.06,400.06,0,0,1,.16-42.44c0-.64-.14-1.34.43-1.92,1.11.2.73,1.12.74,1.74.2,10,.78,20,1.45,29.94.11,1.72.31,3.38,2.18,4.12,2.44,1,4.47-.75,4.31-3.72-.42-8.07-1-16.12-1.32-24.19a426.91,426.91,0,0,1,.61-43,3.2,3.2,0,0,1,2-3c1.75-.9,3.46-2.79,5.11-2.71s2.84,2.41,4.48,3.33c2.06,1.15,1.66,2.84,1.52,4.52A507.8,507.8,0,0,1,435.5,474c-.73,3.84-1.53,7.66-2.25,11.5-.5,2.66.24,4.13,2.17,4.58s3.47-.58,4.06-3.27C442.06,475,444,463,445.83,451,446.48,451.92,445.89,453,446.28,454Z" transform="translate(-329.15 -200.39)"/><path class="0e9f9912-427b-412e-9291-18313494cead" d="M535.36,494l0,2.34a.84.84,0,0,0,.34,1.12c.3.39.61.77.9,1.16.58.79,2.42.33,1.93,2.28s-1.09,3.65-3.11,4.45c-2.33.92-4.76.36-7.13.51,2.53-6.46,3.27-13.28,4.46-20,.82-4.65,1.26-9.36,1.91-14,.07-.48-.28-1.24.61-1.4Z" transform="translate(-329.15 -200.39)"/><path class="970fd701-6035-43e6-ace8-d17ec34b791b" d="M333.37,411.81v-33a83.17,83.17,0,0,0,7.05,13.77,1.42,1.42,0,0,1,0,1.61,135.17,135.17,0,0,0-6.54,16.89C333.78,411.38,333.81,411.8,333.37,411.81Z" transform="translate(-329.15 -200.39)"/><path class="0e9f9912-427b-412e-9291-18313494cead" d="M333.29,492.47c2.93,1.81,5.58,3.46,8.24,5.08a1.21,1.21,0,0,1,.64,1.45c-.46,1.93-.95,3.86-1.31,5.81-.19,1-.79,1.05-1.59,1.08a5.47,5.47,0,0,1-6-5.6C333.2,497.81,333.29,495.32,333.29,492.47Z" transform="translate(-329.15 -200.39)"/><path class="54f07ea6-40fd-4f97-ae52-05538d83a3c2" d="M538.65,423.64c-1.61-5.56-2.58-11.19-4.41-16.61a1.54,1.54,0,0,1,.29-1.61c1.25-1.5,2.46-3.05,4.12-5.13,0,4.41,0,8.17,0,11.93S538.65,419.83,538.65,423.64Z" transform="translate(-329.15 -200.39)"/><path class="970fd701-6035-43e6-ace8-d17ec34b791b" d="M367.21,505.83l-19.42,0-.08-1.42c0-.41.1-.82.14-1.23.16-1.84.82-2.15,2.65-1.42,5.34,2.15,11.1,2.44,16.73,3.29Z" transform="translate(-329.15 -200.39)"/><path class="e595814d-5025-4092-b5e3-6b6450f4b212" d="M535.36,494l-.11-23.57c-.83-2.08-.45-4.23-.3-6.64,1,3.23.75,6.32.79,9.34.08,6.57,0,13.14-.07,19.71A4.78,4.78,0,0,1,535.36,494Z" transform="translate(-329.15 -200.39)"/><path class="54f07ea6-40fd-4f97-ae52-05538d83a3c2" d="M405.72,504.86c-2.06,1.73-4.45.72-6.7.88C401.13,504.41,403.51,505.36,405.72,504.86Z" transform="translate(-329.15 -200.39)"/><path class="53e8624d-3aee-4839-b786-913325bc5440" d="M446.28,454c-.39-1,.2-2.08-.45-3l.52-4.59A18.92,18.92,0,0,1,446.28,454Z" transform="translate(-329.15 -200.39)"/><path class="53e8624d-3aee-4839-b786-913325bc5440" d="M367.21,505.83V505l5.08.46v.36Z" transform="translate(-329.15 -200.39)"/><path class="53e8624d-3aee-4839-b786-913325bc5440" d="M421.41,452l.29-4.79h.53V450C421.52,450.45,422.17,451.5,421.41,452Z" transform="translate(-329.15 -200.39)"/><path class="8f50d8e7-503e-44a0-a95f-6c40b9c9c33f" d="M421.41,452c.76-.47.11-1.51.82-2,0,.74.07,1.48,0,2.21,0,.43.19,1.19-.56,1.05C421.11,453.12,421.34,452.44,421.41,452Z" transform="translate(-329.15 -200.39)"/><path class="53e8624d-3aee-4839-b786-913325bc5440" d="M347.71,504.38l.08,1.42C346.83,505.38,347.47,504.87,347.71,504.38Z" transform="translate(-329.15 -200.39)"/><path class="e595814d-5025-4092-b5e3-6b6450f4b212" d="M535.67,497.49a.84.84,0,0,1-.34-1.12A1.15,1.15,0,0,1,535.67,497.49Z" transform="translate(-329.15 -200.39)"/><path class="deaa6163-cd8d-41b1-aa4f-c43a7fa64a9a" d="M425,286c1-2.69,3.22-3.51,5.85-3.59.52,0,1.28-.35,1.3.62,0,.73-.51,1-1.17,1a4.63,4.63,0,0,0-3.94,1.59c1.18.67,2.35.26,3.41.47s2.06.29,2.32,1.52-.57,2-1.55,2.56a7.25,7.25,0,0,1-1.83.77c-.58.14-1.4.51-1.62-.49-.17-.79.45-.92,1.08-1A2.44,2.44,0,0,0,431,288c-1.21-.76-2.67,0-3.74-.53-1.9-.91-3.62-.64-5.56-.22-.63.14-1.69-.74-2.73-.36-.08,0-.35-.46-.54-.71,2.45-1.38-1.25-3.24,0-3.87a5.1,5.1,0,0,1,4.71-.2.9.9,0,0,1,.53,1C423.39,284.87,423.42,284.87,425,286Z" transform="translate(-329.15 -200.39)"/><path class="deaa6163-cd8d-41b1-aa4f-c43a7fa64a9a" d="M453.78,287.06c.1-2.63,1.72-4.06,4-4.6,2.7-.64,4.34.81,5.1,3.42,1-.87,1.4-2.25,2.8-2.44l3,0c.61.18,1.39.34,1.06,1.2s-1,.58-1.56.18a1.4,1.4,0,0,0-2,0,3.69,3.69,0,0,0-1.74,1.69.55.55,0,0,0,0,.91,4.21,4.21,0,0,0,1.91,2.46c1.13.09,2.29.45,3.34-.34h.51l.41.42c.33.83-.07,1.08-.84,1l-.54.22c-3.08,1.14-5-.5-6.52-2.84,0-.25.43-.66,0-.71s-.43.5-.45.87a4.87,4.87,0,0,1-5.29,2.75,3.56,3.56,0,0,1-3.19-3.5Zm5-3.1a3.36,3.36,0,0,0-3.47,3.15c0,1.5.67,2.54,2.32,2.63a3.41,3.41,0,0,0,3.59-3.29A2.28,2.28,0,0,0,458.78,284Z" transform="translate(-329.15 -200.39)"/><path class="deaa6163-cd8d-41b1-aa4f-c43a7fa64a9a" d="M440.69,287.82c-.85,1-.54,2.67-1.85,2.71-1.87.06-1.24-2.3-2.42-3.05-.72.81-.54,1.88-.88,2.8-.18.48-.13,1.29-1,1s-.65-.8-.48-1.41c.46-1.68.84-3.37,1.31-5,.15-.54.35-1.18,1.1-1.17s1.09.63,1.28,1.3.46,1.59.73,2.52c1.08-.92.78-2.2,1.18-3.21.2-.51,0-1.21.87-1.27s1,.53,1.1,1.1a30.31,30.31,0,0,0,1.85,6.18c.22.53.28.93-.37,1.18s-.94-.16-1.14-.63C441.52,289.92,441.17,289,440.69,287.82Z" transform="translate(-329.15 -200.39)"/><path class="0b55bcf7-5fa2-4bb7-85a8-a6162ac4c77b" d="M453.78,287.06v.7c-1.35-.88-1,.62-1.24,1-1.41,1.88-3.17,3-5.54,2.45a3.83,3.83,0,0,1-3-3.77,5.05,5.05,0,0,1,4.46-5.06c2.86-.26,4.06.83,4.38,3.92C452.87,286.81,452.64,287.85,453.78,287.06Zm-5.84,2.68c2-.07,3.8-1.77,3.59-3.39-.18-1.44-.91-2.46-2.62-2.39a3.24,3.24,0,0,0-3.25,3.35C445.76,288.91,446.61,289.72,447.94,289.74Z" transform="translate(-329.15 -200.39)"/><path class="0b55bcf7-5fa2-4bb7-85a8-a6162ac4c77b" d="M471.19,285.14c0-.33-.06-.67,0-1,0-.53-.33-1.29.55-1.41s1,.57,1.09,1.28-.54,2,1,2c1.28,0,2.52-.05,2-2-.15-.6-.71-1.9.67-1.94s.77,1.23.87,1.94c.23,1.65.35,3.31.46,5,0,.52.29,1.26-.6,1.38s-1-.38-1-1.06c0-.92.1-1.89-1.38-1.75-1.19.11-1.93.39-1.65,1.79.1.52-.06,1-.75,1s-.74-.51-.8-1c-.17-1.4-.33-2.81-.5-4.21Z" transform="translate(-329.15 -200.39)"/><path class="deaa6163-cd8d-41b1-aa4f-c43a7fa64a9a" d="M482.58,287.82c-.69-1.65-1.74-1-2.72-.92-.15,0-.33-.33-.5-.51,2.18-1.45-1-3.59,0-4,1.37-.55,4.17-1.54,4.74,0a24.43,24.43,0,0,0,1.6,4.19c0,.07-.55.68-.62.64C484.17,286.74,483.35,286.28,482.58,287.82Z" transform="translate(-329.15 -200.39)"/><path class="0b55bcf7-5fa2-4bb7-85a8-a6162ac4c77b" d="M469.74,289.52c-1,.79-2.21.42-3.34.34Z" transform="translate(-329.15 -200.39)"/><path class="0b55bcf7-5fa2-4bb7-85a8-a6162ac4c77b" d="M468.73,283.45l-3,0A2.79,2.79,0,0,1,468.73,283.45Z" transform="translate(-329.15 -200.39)"/><path class="0b55bcf7-5fa2-4bb7-85a8-a6162ac4c77b" d="M466.27,284.79a1.4,1.4,0,0,1,2,0Z" transform="translate(-329.15 -200.39)"/><path class="0b55bcf7-5fa2-4bb7-85a8-a6162ac4c77b" d="M462.27,288.51c0-.37,0-.92.45-.87s.07.46,0,.71Z" transform="translate(-329.15 -200.39)"/><path class="0b55bcf7-5fa2-4bb7-85a8-a6162ac4c77b" d="M464.49,287.4a.55.55,0,0,1,0-.91Z" transform="translate(-329.15 -200.39)"/><path class="0b55bcf7-5fa2-4bb7-85a8-a6162ac4c77b" d="M469.28,291.19l.54-.22Z" transform="translate(-329.15 -200.39)"/><path class="0b55bcf7-5fa2-4bb7-85a8-a6162ac4c77b" d="M470.66,289.94l-.41-.42C470.6,289.45,470.69,289.64,470.66,289.94Z" transform="translate(-329.15 -200.39)"/><path class="0b55bcf7-5fa2-4bb7-85a8-a6162ac4c77b" d="M439.67,364.36c-1.35.48-2.69-.92-4.07,0-.07,0-.64-.41-.63-.6a.85.85,0,0,1,1-.76,24.39,24.39,0,0,0,5.65-.55A26.26,26.26,0,0,0,452,359c-1.79,3.52-4.76,3.23-7.19,4-1.76-.35-3.45.15-5.15.46C438.51,363.68,439.61,364.06,439.67,364.36Z" transform="translate(-329.15 -200.39)"/><path class="dc808206-7e14-440d-9cff-e9dd7f8b3090" d="M439.67,364.36c-.06-.3-1.16-.68,0-.88,1.7-.3,3.39-.8,5.15-.46C443.39,364.6,441.6,364.75,439.67,364.36Z" transform="translate(-329.15 -200.39)"/><path class="0fa330ea-a817-429a-be8d-d8456dc9ad9a" d="M478.27,356.43a8.18,8.18,0,0,1,8.17,8c.07,5-3.75,8.61-9,8.57-3.93,0-7.7-4.12-7.64-8.31A8.17,8.17,0,0,1,478.27,356.43Z" transform="translate(-329.15 -200.39)"/><path class="deaa6163-cd8d-41b1-aa4f-c43a7fa64a9a" d="M492.36,348.32c.06.65.06,1-.33,1.13-.72.21-.77-.38-.94-.84a11.42,11.42,0,0,0-4-5.33,10.27,10.27,0,0,0-13.45,1c-.89.87-1.66,1.86-2.54,2.75-.4.41-.66,1.43-1.49.77-.6-.47-.33-1.24,0-1.85,2.06-4.12,11.31-9.23,16.84-5.1a20.29,20.29,0,0,1,5.36,6.16A7.9,7.9,0,0,1,492.36,348.32Z" transform="translate(-329.15 -200.39)"/><path class="970fd701-6035-43e6-ace8-d17ec34b791b" d="M458.78,284a2.28,2.28,0,0,1,2.44,2.49,3.41,3.41,0,0,1-3.59,3.29c-1.65-.09-2.31-1.13-2.32-2.63A3.36,3.36,0,0,1,458.78,284Z" transform="translate(-329.15 -200.39)"/><path class="970fd701-6035-43e6-ace8-d17ec34b791b" d="M447.94,289.74c-1.33,0-2.18-.83-2.27-2.43a3.24,3.24,0,0,1,3.25-3.35c1.71-.08,2.43.94,2.62,2.39C451.74,288,450,289.67,447.94,289.74Z" transform="translate(-329.15 -200.39)"/></svg>