<svg id="f2ca8085-fcf0-46dd-ad7a-f5730a797f83" data-name="Capa 1" xmlns="http://www.w3.org/2000/svg" viewBox="0 0 97.12 140.84"><defs><style>.ce0f282d-43ca-44aa-8bcf-fc14784dfba3{fill:#0a0a0a;}.\39 013d5a1-349c-4b25-a2c9-d3266c6e9592{fill:#fcfcfc;}.\30 96da495-1e58-4a0a-9ad1-82fa3cae7603{fill:#0a0909;}.\33 fac3f31-25bd-40a2-8e6e-962c979f6e20{fill:#080807;}.\34 ba21149-be13-4f83-ab4c-788dbae8c330{fill:#111112;}.\32 b2b2879-dde2-4656-946e-61d81bfba6b4{fill:#100f10;}.\39 073f877-5525-4735-a23d-b6811a91daf1{fill:#111;}.a2d294e6-35df-4240-95f6-1a5880aa0c0f{fill:#131314;}.bf7f20d9-0ba7-4c97-a499-8a89dbd5da9c{fill:#151415;}.f379f2c0-c426-4fda-a4df-07b95ba1507c{fill:#f5ca9e;}.ce500a93-f159-4b3c-a876-70f311e032ff{fill:#94b3c6;}.\36 6720d7f-eb5e-4da1-85f0-c4cfc0fa9756{fill:#f6ca9f;}.d677dd62-0ce9-4859-964d-247c640e7a23{fill:#4f9442;}.ce7b4f5f-f209-411f-8644-2f35702160cf{fill:#ededec;}.\34 064ce4d-1f16-4b6d-bea6-768152feeb87{fill:#f5f5f5;}</style></defs><title>card-5</title><path class="ce0f282d-43ca-44aa-8bcf-fc14784dfba3" d="M417.76,741.39q0-32.69,0-65.39a9,9,0,0,1,.1-1.59,4,4,0,0,1,4-3.41c.56,0,1.12,0,1.68,0h85.76a9.9,9.9,0,0,1,2.74.23c1.81.52,2.8,1.94,2.85,4.14,0,1.15,0,2.29,0,3.44q0,63.88,0,127.75a12.53,12.53,0,0,1-.1,1.59,3.86,3.86,0,0,1-4.18,3.68h-88c-3.19,0-4.79-1.58-4.8-4.78,0-5.7,0-11.4,0-17.1Q417.76,765.66,417.76,741.39Zm1.87,0q0,12.49,0,25,0,20.24,0,40.49c0,2.11.84,3,2.79,3h87.85c1.74,0,2.48-.67,2.67-2.42a10,10,0,0,0,0-1.09q0-64.88,0-129.77c0-3.17-.6-3.76-3.77-3.76H423.63l-1.34,0c-1.81.07-2.58.83-2.65,2.64,0,.22,0,.45,0,.67Q419.64,708.79,419.64,741.4Z" transform="translate(-417.76 -670.98)"/><path class="9013d5a1-349c-4b25-a2c9-d3266c6e9592" d="M419.64,741.4q0-32.61,0-65.22c0-.22,0-.45,0-.67.07-1.8.83-2.57,2.65-2.64l1.34,0h85.59c3.18,0,3.77.59,3.77,3.76q0,64.88,0,129.77a10,10,0,0,1,0,1.09c-.19,1.75-.93,2.42-2.67,2.42H422.43c-2,0-2.79-.91-2.79-3q0-20.24,0-40.49Q419.64,753.89,419.64,741.4Zm59.86-44c0-.6-.3-.75-.88-.52a10.64,10.64,0,0,1-1.3.31c-.52.13-.75,0-.77-.59,0-1.2-.14-2.4-.2-3.6,0-.38-.16-.49-.51-.44s-.61,0-.58.48c.11,1.62.18,3.24.26,4.85,0,.29.08.48.42.47a7,7,0,0,0,3.55-.69l.24.13c-.14.38,0,.56.4.58s.64,0,.69-.49,0-1.17.94-1.27c1.52-.16,1.54-.24,1.91,1.25.12.47.34.46.72.43s.41-.34.34-.66a37.49,37.49,0,0,0-1-3.62c-.69-2-.69-2.06-2.74-1.4a.52.52,0,0,0-.43.44l-.7,4.29C479.76,697.46,479.64,697.51,479.5,697.38Zm-24.16,67.2c.06.18.14.36.19.54.78,2.53,1.58,5.06,2.32,7.6a1,1,0,0,0,1.43.84c1.38-.32,2.78-.61,4.15-1a43.52,43.52,0,0,0,8.2-3.12c.5-.25.76-.61.49-1.14s-.73-.41-1.17-.23c-.21.08-.4.21-.6.31a44.4,44.4,0,0,1-10.52,3.52c-.45.1-.69,0-.84-.47-.7-2.38-1.43-4.75-2.17-7.12a.62.62,0,0,1,.28-.83,16.06,16.06,0,0,0,6.59-9.38c1.51-5.89.37-11.13-4.09-15.45a16.49,16.49,0,0,0-9-4.4c-4.75-.78-9.39-.55-13.57,2.13-4.38,2.8-6.88,6.78-7,12.07a16.88,16.88,0,0,0,2.9,9.72c.49.74.57,1.17-.24,1.7a9.92,9.92,0,0,0-1.65,1.54,31.76,31.76,0,0,0-5.74,9.27,60,60,0,0,0-2.32,6.72c-.16.52-.09,1,.48,1.16s.87-.19,1-.71.23-.8.36-1.2A40.94,40.94,0,0,1,430.2,765a18,18,0,0,1,3.29-3.68c-.2.85-.33,1.53-.51,2.2a49.8,49.8,0,0,0-1.63,18.24c.15,1.55.59,2.71,2,3.27,1,.39,1,1.11,1,2a40.86,40.86,0,0,1-3,13.16c-.23.55-.34,1.07.31,1.34s1-.19,1.22-.76a42.41,42.41,0,0,0,2.74-10.23c.15-1.37.27-2.74.33-4.15.48.12.88.24,1.29.31a38.09,38.09,0,0,0,12.67.19c.47-.08.64.05.71.51.21,1.49.46,3,.69,4.47.54,3.47,1.1,6.95,1.63,10.42.09.6.44.87,1,.78s.67-.52.59-1c-.15-1-.28-1.93-.43-2.9-.63-3.94-1.25-7.88-1.9-11.82-.09-.57,0-.84.61-1,1.46-.33,1.47-.36,1.39-1.88a94,94,0,0,1,.38-16.65A7.55,7.55,0,0,1,455.34,764.58Zm48.46,11c.05.32.13.64.16,1,.13,1.87.25,3.73.37,5.6,0,.14,0,.28,0,.42,0,.59.21,1,.86,1s.72-.51.7-1c-.11-2.6-.33-5.18-.53-7.77a55.16,55.16,0,0,0-2.79-14.42.81.81,0,0,1,.14-.83A19.17,19.17,0,0,0,505.4,754a14.53,14.53,0,0,0,.19-8.58,14.71,14.71,0,0,0-11-10.31,20.84,20.84,0,0,0-12.47.53,15.16,15.16,0,0,0-10.34,15.23,16.27,16.27,0,0,0,6.78,12.77,2,2,0,0,1,.93,2,147.52,147.52,0,0,1-1.38,16.26c-.08.55.08,1,.67,1s.86-.26.92-.85c.16-1.53.34-3.05.54-4.57,0-.28-.05-.66.49-.91,0,.8,0,1.49,0,2.17-.08,2.09-.26,4.18-.49,6.26-.11,1,0,1.23,1,1.47l.65.14c.37.07.49.26.44.65-.37,2.91-.55,5.84-.73,8.76-.12,1.89-.17,3.79-.24,5.69a.76.76,0,0,0,.77.9c.56,0,.76-.37.78-.88s0-1,.06-1.51c.1-4.19.46-8.36.9-12.53,0-.44.2-.56.64-.46a30.53,30.53,0,0,0,4.47.63,29,29,0,0,0,9.31-.57c.55-.14.45.21.51.48.33,1.75.63,3.51,1,5.26a65.48,65.48,0,0,0,2.54,8.84c.12.33.17.74.56.88a.79.79,0,0,0,.87-.11c.34-.35.25-.74.1-1.17a73.7,73.7,0,0,1-3.54-14.18c-.07-.52,0-.82.52-1a3.13,3.13,0,0,0,2.26-3C503.33,780.7,503.69,778.14,503.8,775.54Zm-14.68-79.88c.3.77.58,1.37.77,2,.14.43.42.43.78.45s.49-.16.58-.47c.33-1.09.69-2.18,1-3.27.16-.53.13-1.41.43-1.54.52-.22.91.56,1.43.81a1.33,1.33,0,0,1,.81,1.4c0,.89.08,1.78.11,2.68,0,.38.1.54.53.53s.59-.17.54-.6,0-.85-.08-1.25a3.1,3.1,0,0,1,1.37-3.59c.34-.21.49-.44.12-.85s-.62-.19-.91.09c-1.23,1.16-1.22,1.15-2.56.21-.44-.31-.89-1.12-1.48-.14a.18.18,0,0,1-.16,0c-.86-.28-.85.36-1,.89a13.36,13.36,0,0,1-.9,3.15c-.67-1.37-1.3-2.61-1.88-3.88-.24-.53-.5-.45-.89-.2s-.13.68,0,.9c.8,1,.45,2-.11,3-.34-.18-.33-.49-.44-.74-.43-.94-.84-1.89-1.25-2.83-.12-.28-.26-.5-.61-.25s-.66.22-.38.72a24.21,24.21,0,0,1,1.9,4.64c.11.37.36.43.7.45a.55.55,0,0,0,.64-.39C488.5,697,488.77,696.42,489.12,695.66Zm-51-9.59c.36,1,.66,1.81,1,2.63.11.28.11.76.72.51s.46-.57.28-1a21.2,21.2,0,0,1-1.37-4.47c-.07-.37-.09-.73-.68-.72s-.57.39-.64.76a11.39,11.39,0,0,1-.76,2.88,14.87,14.87,0,0,1-.85-2.66.58.58,0,0,0-.62-.51c-.35,0-.54,0-.68.41a25.89,25.89,0,0,0-1.21,4.52c-.07.43,0,.6.47.66s.57-.13.63-.53c.13-.77.31-1.53.48-2.29,0-.14,0-.37.23-.35s.19.18.23.31c.23.63.48,1.25.68,1.88.13.41.44.45.77.51s.44-.27.54-.5C437.6,687.48,437.83,686.84,438.12,686.07ZM482,708.25a5.13,5.13,0,0,0,1.83-.3,1.71,1.71,0,0,0,1.3-1.38,1.54,1.54,0,0,0-.84-1.67c-.28-.15-.31-.25-.16-.56.61-1.27.12-2.14-1.29-2.38a7.28,7.28,0,0,0-2.23.17c-.51.07-.7.25-.64.81.15,1.33.22,2.66.32,4S480.43,708.26,482,708.25Zm-16.72-21.52c.26-.18.41-.3.57-.4a2,2,0,0,0,1.18-2.19c-.19-.9-.91-1.44-2.11-1.6a13.11,13.11,0,0,0-2.26,0c-.48,0-.61.18-.55.66.17,1.61.3,3.22.44,4.84,0,.33,0,.68.52.61.4-.05.64-.13.53-.6s.17-.53.56-.42c.83.23,1.68.43,2.5.68.4.12.53,0,.63-.37s.14-.62-.35-.72S465.93,686.91,465.31,686.73Zm40.76,9.38c.38-.24.61-.38.84-.53a1.9,1.9,0,0,0-.59-3.54,9.19,9.19,0,0,0-3.07-.1c-.32,0-.34.21-.32.46q.23,2.58.45,5.16c0,.33.12.52.51.46s.7,0,.59-.55.15-.59.59-.46c.8.23,1.62.41,2.41.67.39.12.56.05.64-.34s.2-.64-.33-.74S506.73,696.3,506.08,696.11Zm-50.7-10.58a2.94,2.94,0,0,0-2.88-3.05,3.72,3.72,0,0,0-3.57,3.6,2.8,2.8,0,0,0,2.79,3A3.6,3.6,0,0,0,455.37,685.53Zm37.88,1.19c.38-.24.6-.37.8-.51a1.91,1.91,0,0,0,1-2,2,2,0,0,0-1.69-1.64,9.5,9.5,0,0,0-2.75-.09c-.45,0-.55.19-.51.62.17,1.64.3,3.28.45,4.92,0,.31,0,.64.48.56s.69-.05.57-.56.18-.57.6-.45c.83.24,1.68.42,2.5.68.46.15.5-.1.59-.43s.13-.57-.32-.67S493.94,686.92,493.26,686.72Zm-1,18a3,3,0,0,0-2.91-3,3.75,3.75,0,0,0-3.59,3.6,2.89,2.89,0,0,0,2.82,3A3.69,3.69,0,0,0,492.24,704.75Zm-55,9.89a2.92,2.92,0,0,0-2.86-3.07,3.68,3.68,0,0,0-3.59,3.57,2.83,2.83,0,0,0,2.75,3.05A3.66,3.66,0,0,0,437.29,714.64Zm9.88,1.18.78-.48a1.93,1.93,0,0,0,1.09-2.07,2,2,0,0,0-1.75-1.56,8.77,8.77,0,0,0-2.67-.08c-.46,0-.54.23-.5.64.17,1.64.3,3.28.46,4.92,0,.26,0,.59.43.51s.75,0,.62-.61.12-.49.51-.39c.83.23,1.68.41,2.51.65.38.11.56.06.66-.35s.11-.63-.36-.72S447.87,716,447.17,715.82Zm36.08-30.27a2.92,2.92,0,0,0-2.86-3.07,3.72,3.72,0,0,0-3.59,3.59,2.8,2.8,0,0,0,2.77,3A3.58,3.58,0,0,0,483.25,685.55Zm-34.87,9.36a2.92,2.92,0,0,0-2.88-3.05,3.74,3.74,0,0,0-3.57,3.61,2.81,2.81,0,0,0,2.8,3A3.59,3.59,0,0,0,448.38,694.91Zm6.72.63a11.84,11.84,0,0,1-2.29-3.2c-.27-.58-.73-.43-1.14-.39s-.28.48-.28.75a22,22,0,0,0,.42,4.5c.07.32,0,.68.58.52s.6-.31.46-.75c-.23-.69-.17-1.43-.45-2.11-.06-.14-.13-.42.09-.52s.32.16.42.31c.7,1,1.41,2,2.08,3a.58.58,0,0,0,.77.25.56.56,0,0,0,.49-.64c0-1.54-.12-3.07-.28-4.6,0-.36-.08-.65-.59-.56s-.55.23-.51.66C455,693.71,455,694.62,455.11,695.54Zm12.29-3.48c-1.18,0-1.19,0-1.09,1.19s.2,2.16.28,3.25c.14,1.92.32,2.06,2.27,1.69a4.25,4.25,0,0,0,1-.33,2.44,2.44,0,0,0,1.24-3.43A3.89,3.89,0,0,0,467.39,692.06ZM462,716.14c.3-.15.44,0,.51.32a9.5,9.5,0,0,1,.25,1.05c.06.51.34.5.75.44s.36-.37.3-.66a29.92,29.92,0,0,0-1-3.61c-.2-.55-.23-1.28-.62-1.6s-1.13.16-1.73.16-.79.32-.88.86c-.22,1.43-.49,2.85-.74,4.28-.06.31-.26.66.33.72s.77,0,.75-.56c0-.86.42-1.23,1.25-1.25A6.33,6.33,0,0,0,462,716.14Zm17.74-8.26a23.4,23.4,0,0,0-1.13-4.14c-.56-1.76-.57-1.73-2.4-1.35a.86.86,0,0,0-.8.85c-.22,1.49-.49,3-.75,4.44,0,.27-.08.53.31.51s.64.24.73-.28c0-.25.11-.49.13-.74a.62.62,0,0,1,.67-.67c.58,0,1.24-.46,1.68-.17s.36.95.46,1.46c.07.36.25.38.53.3S479.81,708.15,479.76,707.88Zm-53.91-10c-.1.36,0,.45.37.5.52.08.71-.12.72-.61a1,1,0,0,1,1.06-1.16c1.42-.16,1.44-.23,1.78,1.22.12.49.33.52.75.47s.42-.43.33-.74c-.33-1.18-.66-2.36-1-3.53-.62-2-.63-1.95-2.64-1.43-.31.08-.48.19-.53.52C426.39,694.71,426.12,696.3,425.86,697.86Zm35.26,9.82c0-.13,0-.24,0-.35a27.76,27.76,0,0,0-1-3.52c-.59-1.84-.59-1.82-2.51-1.39a.76.76,0,0,0-.69.76c-.23,1.49-.5,3-.75,4.45,0,.2-.19.48.14.55s.61.19.79,0a1.48,1.48,0,0,0,.2-.8c0-.52.21-.82.79-.85s1.14-.36,1.53-.18.4,1,.52,1.5c.08.36.26.37.54.29S461.21,708.13,461.12,707.68Zm7,3.91a6.16,6.16,0,0,0-2.94.78c-.89.49-1.41,1.28-1.22,1.91.27.93,1.1,1,1.88,1.1.55.06,1.12,0,1.67.06.24,0,.57,0,.64.28s-.22.48-.45.63a3.29,3.29,0,0,1-1.56.55c-.63,0-.38.49-.39.8,0,.47.32.34.59.3a5,5,0,0,0,2-.8c.62-.43,1.18-.92,1-1.77s-1-1-1.72-1-1.34-.07-2-.11c-.19,0-.42,0-.48-.27s.14-.35.28-.47a3.74,3.74,0,0,1,2.66-.83c.58,0,.8-.17.79-.72S468.35,711.72,468.14,711.59Zm-.64-4.18a19.14,19.14,0,0,1,3,.76c.42.13.53-.05.62-.4s.1-.56-.34-.66c-.73-.17-1.44-.42-2.18-.59-.48-.11-.52-.28-.24-.67.68-.92,1.32-1.86,2-2.78.18-.25.27-.42,0-.68s-.6-.35-.9.11c-.65,1-1.36,1.92-2.18,3.05-.09-.93-.18-1.61-.21-2.3,0-.45-.26-.45-.61-.45s-.52.17-.48.56q.22,2.33.39,4.66c0,.4.18.49.57.49C467.82,708.54,467.23,707.77,467.5,707.42Zm28.18.39.62,0c1.51-.13,1.85-.5,1.81-2a26.79,26.79,0,0,0-.53-3.55c-.09-.53-.44-.38-.76-.36s-.37.31-.32.6c.12.63.28,1.25.35,1.89.32,2.65.54,2.3-2.13,2.38-.61,0-.87-.28-.79-.88.14-1.13.28-2.27.42-3.4,0-.28.22-.63-.33-.64-.4,0-.69,0-.74.51-.08.94-.26,1.88-.34,2.82C492.79,707.31,493.35,707.88,495.68,707.81ZM446,701.75a5.55,5.55,0,0,0-3.47,1.17,1.52,1.52,0,0,0-.65,1.53c.12.67.67.86,1.22,1a10.05,10.05,0,0,0,1.33.12c.36,0,.73,0,1.08.06s.5,0,.57.27-.2.44-.39.57a3.88,3.88,0,0,1-1.7.64c-.33,0-.42.23-.35.52s-.08.52.3.59a4.37,4.37,0,0,0,3.22-1.81,1.21,1.21,0,0,0-.85-1.7,8.78,8.78,0,0,0-2.32-.21c-.35,0-.85.07-.94-.34s.4-.56.69-.75a3.85,3.85,0,0,1,2.24-.54c.47,0,.8,0,.8-.63S446.26,701.88,446,701.75Zm23.83,24.4c0-.42-.12-1.14-.19-1.86,0-.45-.14-.89-.72-.79s-.45.58-.39,1a10.65,10.65,0,0,1-3.48,10.12c-.32.29-.81.62-.36,1.09s.75,0,1.08-.24A11.72,11.72,0,0,0,469.86,726.15Zm-29.54-8.48.71,0c1.8-.1,2.25-.63,2-2.43-.12-1-.34-2-.45-3.07-.06-.58-.4-.46-.76-.44-.53,0-.36.36-.3.66.13.66.28,1.31.36,2,.28,2.38.56,2.17-2.06,2.25-.68,0-1-.27-.9-1,.15-1.16.3-2.33.46-3.49,0-.28,0-.52-.35-.49s-.67-.19-.74.3a17.81,17.81,0,0,0-.34,4.33,1.38,1.38,0,0,0,1.37,1.33C439.71,717.65,440.08,717.66,440.31,717.68Zm18.09-29.06c.42,0,.75,0,1.09-.05,1.34-.12,1.7-.51,1.68-1.87a21.31,21.31,0,0,0-.5-3.73c-.1-.52-.44-.38-.76-.35s-.36.33-.31.61c.12.66.29,1.31.37,2,.3,2.63.46,2.14-2,2.3-.7,0-1-.24-.94-1,.16-1.13.29-2.27.44-3.4,0-.24.13-.55-.28-.54s-.68-.2-.74.28a15.19,15.19,0,0,0-.33,4.49,1.34,1.34,0,0,0,1.28,1.23C457.76,688.6,458.13,688.6,458.41,688.62Zm5.43,3.16v0c-.45,0-.89.08-1.34.07s-.57.16-.54.6q.18,2.42.29,4.85c0,.44.18.57.6.58a11.44,11.44,0,0,0,2.57-.28c.57-.12.42-.45.39-.81,0-.52-.38-.35-.67-.31l-1.24.19c-.41.07-.61-.06-.64-.52s.07-.62.52-.62.78-.1,1.17-.1.7-.11.66-.67-.37-.51-.74-.47-.67,0-1,.11-.67,0-.74-.57c-.09-.74.1-1,.86-.94a9,9,0,0,0,.92,0c.39,0,.62-.07.6-.56s-.2-.63-.66-.58A8.68,8.68,0,0,1,463.84,691.78Zm22.68-3.2c.22,0,.45,0,.67,0,1.6-.1,2-.49,1.91-2.07a24.19,24.19,0,0,0-.47-3.48c-.09-.48-.33-.47-.7-.43s-.42.32-.36.65c.16.85.33,1.7.45,2.56.22,1.58.21,1.58-1.34,1.67l-.75,0c-.71,0-1-.28-.93-1,.15-1.08.29-2.16.4-3.24,0-.25.27-.65-.28-.69s-.76-.05-.8.54c-.06,1-.24,1.94-.29,2.92C483.9,688.2,484.34,688.63,486.52,688.58Zm11.92,6.25h0c.05.84.12,1.67.14,2.51,0,.43.16.58.59.58a11.88,11.88,0,0,0,2.49-.26c.54-.11.57-.34.5-.81s-.43-.37-.73-.32-.77.13-1.16.17-.65.12-.68-.43.06-.73.6-.72c.36,0,.72-.07,1.08-.09s.71,0,.66-.57-.28-.66-.75-.56c-.27.05-.56,0-.83.1-.67.15-.93,0-.92-.78,0-.57.17-.74.7-.71s.78-.05,1.17,0,.52-.25.51-.64-.17-.53-.56-.5c-.81.06-1.62.11-2.43.12-.44,0-.59.15-.54.59C498.36,693.26,498.39,694,498.44,694.83Zm-60.31-2.95c-.36,0-.73.05-1.09.06s-.52.08-.48.48q.24,2.59.44,5.18c0,.36.18.44.53.44.64,0,.59-.39.49-.78-.17-.7.07-1,.78-1.13a4.11,4.11,0,0,0,1.51-.49c.65-.39,1.23-.84,1.13-1.7a2.08,2.08,0,0,0-1.48-1.84A6,6,0,0,0,438.13,691.88Zm-6.89.82c.15,1.67.31,3.25.43,4.84,0,.39.14.54.56.49s.64-.1.51-.53c-.3-1.06.3-1.36,1.17-1.48a2.78,2.78,0,0,0,.57-.15c1.14-.42,1.71-1.11,1.63-2a2.18,2.18,0,0,0-2-1.94,13.32,13.32,0,0,0-2.09-.05C431.38,691.91,431.05,692.08,431.24,692.69Zm-.81,11.92a4.08,4.08,0,0,0,.05.58c.19.83-.38,2,.44,2.44s1.8,0,2.71-.14c.41-.08.62-.18.52-.7s-.34-.52-.74-.43-.77.13-1.16.18-.7.07-.72-.5.15-.69.65-.69.78-.09,1.17-.1.57-.15.54-.6-.25-.55-.65-.49-.89.09-1.33.13c-.19,0-.37.06-.47-.21-.29-.77,0-1.26.79-1.3.36,0,.72-.06,1.09-.06s.45-.28.44-.61,0-.53-.45-.5c-.86.06-1.73.1-2.59.12-.38,0-.47.16-.43.52C430.36,703.06,430.39,703.84,430.44,704.62Zm41.4,6.89v.09c-.39,0-.78,0-1.17,0-.55,0-.71.17-.64.74.12,1,.15,2.06.21,3.09.14,2.46.24,2.53,2.69,2a3.57,3.57,0,0,1,.49-.12c.52,0,.5-.3.45-.73s-.4-.39-.71-.34-.77.13-1.16.17-.7.09-.72-.49.1-.71.63-.69.78-.09,1.16-.1.62-.07.56-.56-.18-.6-.62-.52-.62,0-.91.09c-.73.19-1,0-1-.81,0-.49.09-.73.63-.7.36,0,.72,0,1.09,0s.69,0,.68-.55-.26-.57-.67-.53S472.17,711.5,471.84,711.5Zm-15.57,6.75c.13,0,.41,0,.68-.08s.76-.17,1.14-.25.55-.2.39-.63-.23-.57-.7-.43a6.74,6.74,0,0,1-1.65.26A1.77,1.77,0,0,1,454.2,716a1.89,1.89,0,0,1,.37-2.24,1.78,1.78,0,0,1,2.38-.15c.52.32.65-.1.86-.32s-.07-.48-.27-.63a3,3,0,1,0-1.27,5.59Zm18-29.11a9,9,0,0,0,1.8-.28c.3-.06.61-.13.43-.6s-.21-.68-.73-.49a4.33,4.33,0,0,1-2.05.27,1.91,1.91,0,0,1-1.65-1.55,1.86,1.86,0,0,1,2.81-2c.54.39.71,0,.93-.25s-.12-.51-.33-.66a2.54,2.54,0,0,0-1.56-.5,3.06,3.06,0,1,0,.35,6.1Zm-46.52-6.43v0c-.47,0-.94.13-1.42.13s-.53.22-.51.62.2.59.63.49.6,0,.62.47c0,.89.17,1.78.25,2.67,0,.3.09.64-.4.64s-.36.43-.36.73.28.39.58.36c.67-.08,1.33-.15,2-.2.41,0,.67-.06.62-.61s-.25-.62-.69-.49-.68-.07-.7-.58c0-.81-.11-1.62-.2-2.42-.06-.5,0-.84.63-.77s.63-.23.59-.71-.38-.43-.71-.4Zm18.44,6.1c.69.12.57-.36.56-.78-.06-1.75-.66-3.65,1.42-4.79.5-.27.05-.53-.12-.78s-.41-.25-.65,0c-.45.45-.86,1.21-1.41,1.19s-1-.66-1.57-1l-.2-.15c-.29-.25-.52-.46-.84,0s-.23.6.16.85.94.7,1.43,1a1.09,1.09,0,0,1,.57,1c0,1,.09,1.95.12,2.92C445.67,688.7,445.77,688.91,446.22,688.82Zm-18,29.06c.38.1.52-.1.49-.5a11.26,11.26,0,0,0-.06-1.5,3,3,0,0,1,1.37-3.43c.4-.26.38-.49.06-.85s-.52-.21-.8,0c-1.38,1.26-1.38,1.26-2.89.1l-.13-.11c-.3-.19-.53-.6-.93,0s-.12.66.24.9.89.68,1.36,1a1.16,1.16,0,0,1,.58,1.1c0,.95.1,1.9.12,2.84C427.66,717.81,427.79,718,428.24,717.88Zm70.06-29.23c.49.14.55-.17.52-.61-.07-.89-.12-1.78-.16-2.68-.07-1.39-.07-1.42,1.29-1.63.46-.07.44-.29.4-.62s-.1-.57-.55-.5q-1.74.26-3.49.43c-.41,0-.49.2-.47.59,0,.58.33.64.77.5.75-.24,1,.06,1,.8,0,1.09.12,2.17.17,3.26C497.77,688.51,497.82,688.76,498.3,688.65ZM459.16,698c.43.05.58-.13.53-.58-.08-.86-.11-1.72-.16-2.58-.1-1.47-.1-1.49,1.29-1.77.41-.08.41-.28.36-.58s0-.61-.51-.54c-1.18.18-2.37.31-3.56.45-.33,0-.39.17-.4.48,0,.66.31.74.84.59s.88,0,.89.69c0,1.11.13,2.22.19,3.33C458.63,697.89,458.7,698.16,459.16,698Zm-4.26,3.8c-1.23.15-2.42.32-3.61.44-.39,0-.42.2-.41.54,0,.76.55.57.95.48s.72,0,.73.59c0,1.14.13,2.28.19,3.42,0,.39.11.6.58.57s.56-.2.53-.62c-.07-.89-.12-1.78-.17-2.67-.07-1.4-.07-1.43,1.25-1.67.44-.08.45-.28.42-.62S455.23,701.77,454.89,701.85Zm46.19,6c.42.05.61-.09.57-.55-.08-.94-.12-1.89-.17-2.84-.07-1.3-.07-1.32,1.21-1.54.37-.07.54-.17.47-.58s-.12-.56-.56-.5c-1.16.17-2.32.3-3.48.44-.22,0-.48,0-.44.35s-.06.58.19.68a1.48,1.48,0,0,0,.82,0c.51-.13.69,0,.7.56,0,1.14.1,2.28.15,3.42C500.54,707.66,500.57,708,501.08,707.86Zm-64.16,0c.4.09.61-.05.56-.57-.09-.91-.12-1.83-.18-2.75-.09-1.35-.1-1.37,1.24-1.6.41-.07.47-.22.44-.6s-.14-.54-.56-.48q-1.74.25-3.48.43c-.36,0-.43.16-.43.52,0,.6.32.65.74.52.78-.25.94.11,1,.8,0,1.08.13,2.17.18,3.25C436.42,707.69,436.45,708,436.92,707.86Zm24.83-3.79h0c.06,1.17.15,2.34.17,3.51,0,.54.21.66.7.63a10.87,10.87,0,0,0,2.71-.44c.31-.1.74-.07.55-.68s-.39-.54-.83-.38-.92.21-1.38.33-.7,0-.71-.57c0-1.17-.14-2.34-.19-3.51,0-.39-.07-.62-.56-.58s-.6.16-.53.61A9.93,9.93,0,0,1,461.75,704.06ZM427,707.87a12.61,12.61,0,0,0,2.73-.44c.35-.09.55-.21.35-.63s-.19-.64-.68-.45a7.78,7.78,0,0,1-1.62.39c-.5.09-.61-.09-.63-.55,0-1.19-.16-2.39-.21-3.58,0-.49-.24-.51-.63-.5s-.47.24-.44.59c.1,1.44.23,2.89.24,4.33C426.12,707.82,426.42,708,427,707.87Zm22.2-13.19c.09,1,.19,2,.26,3,0,.38.11.55.54.5s.57-.08.53-.52q-.21-2.54-.37-5.09c0-.43-.25-.47-.6-.47s-.5.2-.47.57C449.14,693.34,449.16,694,449.2,694.68Zm52.6-8.14c1-.11,2-.23,3-.3.45,0,.56-.19.52-.62s-.17-.59-.62-.53q-1.48.19-3,.31c-.39,0-.62.09-.57.58S501.35,686.67,501.8,686.54Zm-60.7,16.61c0-.44-.12-.89-.13-1.33s-.14-.57-.6-.53-.53.26-.47.65a12.38,12.38,0,0,1,.14,1.33c0,.4.11.6.59.54S441.21,703.57,441.1,703.16ZM430.67,682.8c.07.58.13,1,.17,1.46s.29.33.54.3.55,0,.51-.37c-.05-.64-.13-1.27-.2-1.9,0-.17-.14-.22-.29-.23C430.7,682,430.51,682.3,430.67,682.8Zm45.07,35c.22,0,.6.14.5-.38s0-.81-.64-.7c-.25,0-.61-.09-.53.4S475.12,717.9,475.73,717.76Zm35-20.12c0-.42-.06-.75-.63-.69-.3,0-.54,0-.48.45s.05.77.64.7C510.57,698.07,510.83,698.08,510.72,697.64Z" transform="translate(-417.76 -670.98)"/><path class="096da495-1e58-4a0a-9ad1-82fa3cae7603" d="M455.34,764.58a7.55,7.55,0,0,0-.77,3.22,94,94,0,0,0-.38,16.65c.08,1.52.07,1.55-1.39,1.88-.62.14-.7.41-.61,1,.65,3.94,1.27,7.88,1.9,11.82.15,1,.28,1.93.43,2.9.08.51-.07.95-.59,1s-.88-.18-1-.78c-.53-3.48-1.08-6.95-1.63-10.42-.23-1.49-.48-3-.69-4.47-.07-.46-.24-.58-.71-.51a38.09,38.09,0,0,1-12.67-.19c-.41-.07-.81-.19-1.29-.31-.06,1.41-.18,2.78-.33,4.15a42.41,42.41,0,0,1-2.74,10.23c-.22.57-.52,1.06-1.22.76s-.53-.79-.31-1.34a40.86,40.86,0,0,0,3-13.16c.05-.88.05-1.6-1-2-1.46-.55-1.89-1.71-2-3.27A49.8,49.8,0,0,1,433,763.52c.18-.67.32-1.35.51-2.2A18,18,0,0,0,430.2,765a40.94,40.94,0,0,0-5.33,11.67c-.12.4-.24.8-.36,1.2s-.44.89-1,.71-.63-.64-.48-1.16a60,60,0,0,1,2.32-6.72,31.76,31.76,0,0,1,5.74-9.27,9.92,9.92,0,0,1,1.65-1.54c.81-.53.73-1,.24-1.7a16.88,16.88,0,0,1-2.9-9.72c.07-5.29,2.58-9.27,7-12.07,4.19-2.68,8.82-2.91,13.57-2.13a16.49,16.49,0,0,1,9,4.4c4.46,4.32,5.59,9.56,4.09,15.45a16.06,16.06,0,0,1-6.59,9.38.62.62,0,0,0-.28.83c.75,2.37,1.48,4.74,2.17,7.12.15.51.39.57.84.47a44.4,44.4,0,0,0,10.52-3.52c.2-.1.39-.22.6-.31.43-.17.9-.3,1.17.23s0,.89-.49,1.14a43.52,43.52,0,0,1-8.2,3.12c-1.37.37-2.77.65-4.15,1a1,1,0,0,1-1.43-.84c-.74-2.54-1.54-5.07-2.32-7.6C455.48,764.93,455.4,764.76,455.34,764.58Zm6.58-19.82h0c0-.18.06-.38-.17-.48l-.64-1.17a13.62,13.62,0,0,0-5.29-5.35,19.27,19.27,0,0,0-11.9-2.15,13.79,13.79,0,0,0-9.54,5.15c-5,6.15-2.63,14.65,1.84,19a17.17,17.17,0,0,0,12.22,4.68,13.23,13.23,0,0,0,11.83-6.37,15.25,15.25,0,0,0,1.8-13.14Zm-17.65,41.06A36.23,36.23,0,0,0,452,785c.61-.12.73-.39.69-1a84.9,84.9,0,0,1,.62-18.13c.09-.58-.1-.57-.57-.45A14,14,0,0,1,449,766a20.16,20.16,0,0,1-13.39-4.64c-.36-.3-.48-.27-.58.18-.23,1-.48,1.95-.74,2.92a46.05,46.05,0,0,0-1.29,18c0,.31,0,.61.35.8a12.16,12.16,0,0,0,4,1.86A31,31,0,0,0,444.27,785.82Z" transform="translate(-417.76 -670.98)"/><path class="3fac3f31-25bd-40a2-8e6e-962c979f6e20" d="M503.8,775.54c-.11,2.6-.47,5.16-.67,7.73a3.13,3.13,0,0,1-2.26,3c-.53.2-.59.49-.52,1a73.7,73.7,0,0,0,3.54,14.18c.15.43.24.82-.1,1.17a.79.79,0,0,1-.87.11c-.4-.14-.44-.55-.56-.88a65.48,65.48,0,0,1-2.54-8.84c-.37-1.74-.67-3.51-1-5.26-.05-.27,0-.63-.51-.48a29,29,0,0,1-9.31.57,30.53,30.53,0,0,1-4.47-.63c-.44-.1-.59,0-.64.46-.44,4.17-.8,8.34-.9,12.53,0,.5,0,1-.06,1.51s-.22.89-.78.88a.76.76,0,0,1-.77-.9c.07-1.9.12-3.79.24-5.69.19-2.93.36-5.85.73-8.76,0-.39-.07-.58-.44-.65l-.65-.14c-1-.24-1.14-.45-1-1.47.22-2.08.41-4.17.49-6.26,0-.68,0-1.37,0-2.17-.54.25-.45.62-.49.91-.2,1.52-.38,3-.54,4.57-.06.59-.36.9-.92.85s-.75-.49-.67-1a147.52,147.52,0,0,0,1.38-16.26,2,2,0,0,0-.93-2,16.27,16.27,0,0,1-6.78-12.77,15.16,15.16,0,0,1,10.34-15.23,20.84,20.84,0,0,1,12.47-.53,14.71,14.71,0,0,1,11,10.31,14.53,14.53,0,0,1-.19,8.58,19.17,19.17,0,0,1-2.68,5.46.81.81,0,0,0-.14.83,55.16,55.16,0,0,1,2.79,14.42c.21,2.59.42,5.18.53,7.77,0,.53-.08,1-.7,1s-.87-.37-.86-1c0-.14,0-.28,0-.42-.12-1.87-.24-3.73-.37-5.6C503.93,776.18,503.85,775.86,503.8,775.54Zm-23-1.94a2.59,2.59,0,0,0-.19-1.58v1.56a.86.86,0,0,0,.07.93A1.23,1.23,0,0,0,480.85,773.6Zm8.6-37.61c-3.7,0-7.22.68-10.29,2.92a13.57,13.57,0,0,0-5.5,7.94c-.11.46-.13.73.53.8a2,2,0,0,1,1.76,2.18,2.07,2.07,0,0,1-2,2c-.54,0-.58.21-.5.66A14.78,14.78,0,0,0,480.32,763c3.4,2.11,7.17,2.31,11,1.55,5.52-1.08,9.72-3.86,12-9.24,2.44-5.87,1.47-11.29-2.92-15.42C497.31,737,493.55,736,489.44,736ZM482,765.54c.13,1.87.29,3.57.34,5.26a106.6,106.6,0,0,1-.5,13.21c-.07.79.14,1.12.93,1.32a39.75,39.75,0,0,0,10.87,1.06,13.65,13.65,0,0,0,7.13-1.79,1.3,1.3,0,0,0,.76-1.09c.07-1.05.27-2.1.39-3.15a44.64,44.64,0,0,0,.13-8.69,88.58,88.58,0,0,0-1.51-8.81c-.13-.68-.23-.7-.76-.31A20.14,20.14,0,0,1,488,766.42,18.86,18.86,0,0,1,482,765.54Zm-1.16,10.14c-.07-.09.12-.44-.17-.39s-.25.49-.29.76-.06.42.17.37S480.88,776,480.85,775.69Z" transform="translate(-417.76 -670.98)"/><path class="4ba21149-be13-4f83-ab4c-788dbae8c330" d="M489.12,695.66c-.35.77-.63,1.33-.86,1.92a.55.55,0,0,1-.64.39c-.34,0-.58-.08-.7-.45a24.21,24.21,0,0,0-1.9-4.64c-.27-.5.14-.54.38-.72s.49,0,.61.25c.41.95.82,1.89,1.25,2.83.11.24.1.56.44.74.56-1,.9-1.94.11-3-.17-.23-.57-.56,0-.9s.65-.33.89.2c.58,1.26,1.22,2.51,1.88,3.88a13.36,13.36,0,0,0,.9-3.15c.12-.53.1-1.17,1-.89a.18.18,0,0,0,.16,0c.59-1,1-.16,1.48.14,1.34.93,1.33,1,2.56-.21.29-.28.49-.57.91-.09s.22.64-.12.85a3.1,3.1,0,0,0-1.37,3.59c.08.41,0,.84.08,1.25s-.09.59-.54.6-.52-.15-.53-.53c0-.89-.14-1.79-.11-2.68a1.33,1.33,0,0,0-.81-1.4c-.52-.25-.91-1-1.43-.81-.31.13-.27,1-.43,1.54-.33,1.09-.69,2.18-1,3.27-.09.31-.23.48-.58.47s-.64,0-.78-.45C489.7,697,489.43,696.43,489.12,695.66Z" transform="translate(-417.76 -670.98)"/><path class="2b2b2879-dde2-4656-946e-61d81bfba6b4" d="M438.12,686.07c-.29.77-.52,1.41-.77,2-.1.23-.12.58-.54.5s-.64-.1-.77-.51c-.2-.64-.45-1.26-.68-1.88,0-.13-.07-.3-.23-.31s-.2.21-.23.35c-.17.76-.35,1.52-.48,2.29-.07.4-.17.59-.63.53s-.55-.23-.47-.66a25.89,25.89,0,0,1,1.21-4.52c.14-.38.33-.44.68-.41a.58.58,0,0,1,.62.51,14.87,14.87,0,0,0,.85,2.66,11.39,11.39,0,0,0,.76-2.88c.07-.37,0-.75.64-.76s.61.34.68.72a21.2,21.2,0,0,0,1.37,4.47c.18.42.31.74-.28,1s-.6-.23-.72-.51C438.78,687.88,438.48,687,438.12,686.07Z" transform="translate(-417.76 -670.98)"/><path class="2b2b2879-dde2-4656-946e-61d81bfba6b4" d="M482,708.25c-1.6,0-1.6,0-1.71-1.31s-.18-2.67-.32-4c-.06-.56.13-.73.64-.81a7.28,7.28,0,0,1,2.23-.17c1.41.23,1.9,1.1,1.29,2.38-.15.31-.11.42.16.56a1.54,1.54,0,0,1,.84,1.67,1.71,1.71,0,0,1-1.3,1.38A5.13,5.13,0,0,1,482,708.25Zm.52-2.6c-.33.31-1.19-.42-1.2.63s.14,1.07,1.34.85c.56-.1,1.45-.05,1.37-.88S483.15,705.73,482.55,705.64Zm-1.34-1.71c.14.15-.32.7.33.71s2-.83,1.83-1.2c-.21-.64-.82-.41-1.28-.42S480.94,703,481.21,703.93Z" transform="translate(-417.76 -670.98)"/><path class="9073f877-5525-4735-a23d-b6811a91daf1" d="M465.31,686.73c.62.18,1.13.37,1.66.47s.44.34.35.72-.23.49-.63.37c-.83-.25-1.67-.45-2.5-.68-.39-.11-.68-.12-.56.42s-.13.55-.53.6c-.55.07-.49-.28-.52-.61-.14-1.61-.26-3.23-.44-4.84-.05-.48.07-.64.55-.66a13.11,13.11,0,0,1,2.26,0c1.2.17,1.92.7,2.11,1.6a2,2,0,0,1-1.18,2.19C465.72,686.43,465.57,686.55,465.31,686.73Zm-1.94-2.1c0,.43,0,.79.06,1.15s.11.42.41.31a6.66,6.66,0,0,0,1.85-.93.71.71,0,0,0,.22-1,2.5,2.5,0,0,0-2.3-.61C462.88,683.79,463.56,684.34,463.37,684.63Z" transform="translate(-417.76 -670.98)"/><path class="4ba21149-be13-4f83-ab4c-788dbae8c330" d="M506.08,696.11c.66.19,1.18.38,1.72.48s.4.39.33.74-.25.47-.64.34c-.79-.25-1.61-.43-2.41-.67-.44-.13-.71-.1-.59.46s-.24.5-.59.55-.48-.13-.51-.46q-.22-2.58-.45-5.16c0-.25,0-.43.32-.46a9.19,9.19,0,0,1,3.07.1,1.9,1.9,0,0,1,.59,3.54C506.69,695.73,506.45,695.87,506.08,696.11Zm-1.93-2.34c0,.24,0,.38,0,.52.17,1.56,0,1.41,1.37.79.56-.26,1.45-.44,1.24-1.31S505.73,693,505,693,503.87,693,504.14,693.77Z" transform="translate(-417.76 -670.98)"/><path class="4ba21149-be13-4f83-ab4c-788dbae8c330" d="M455.37,685.53a3.6,3.6,0,0,1-3.67,3.56,2.8,2.8,0,0,1-2.79-3,3.72,3.72,0,0,1,3.57-3.6A2.94,2.94,0,0,1,455.37,685.53Zm-1.09,0a1.8,1.8,0,0,0-1.85-1.92,2.64,2.64,0,0,0-2.47,2.57,1.73,1.73,0,0,0,1.82,1.84A2.53,2.53,0,0,0,454.28,685.5Z" transform="translate(-417.76 -670.98)"/><path class="9073f877-5525-4735-a23d-b6811a91daf1" d="M493.26,686.72c.68.2,1.21.38,1.75.49s.42.32.32.67-.13.57-.59.43c-.82-.26-1.67-.45-2.5-.68-.43-.12-.73-.14-.6.45s-.22.51-.57.56-.45-.26-.48-.56c-.14-1.64-.28-3.28-.45-4.92,0-.43.05-.6.51-.62a9.5,9.5,0,0,1,2.75.09,2,2,0,0,1,1.69,1.64,1.91,1.91,0,0,1-1,2C493.85,686.35,493.64,686.48,493.26,686.72Zm-2-2.36c.25,2.13-.08,2,1.43,1.34.57-.25,1.43-.45,1.23-1.32s-1.06-.74-1.74-.82S491,683.62,491.28,684.36Z" transform="translate(-417.76 -670.98)"/><path class="4ba21149-be13-4f83-ab4c-788dbae8c330" d="M492.24,704.75a3.69,3.69,0,0,1-3.67,3.58,2.89,2.89,0,0,1-2.82-3,3.75,3.75,0,0,1,3.59-3.6A3,3,0,0,1,492.24,704.75Zm-1.06,0a1.83,1.83,0,0,0-1.89-1.9,2.66,2.66,0,0,0-2.49,2.55,1.77,1.77,0,0,0,1.84,1.85A2.62,2.62,0,0,0,491.18,704.72Z" transform="translate(-417.76 -670.98)"/><path class="9073f877-5525-4735-a23d-b6811a91daf1" d="M437.29,714.64a3.66,3.66,0,0,1-3.69,3.55,2.83,2.83,0,0,1-2.75-3.05,3.68,3.68,0,0,1,3.59-3.57A2.92,2.92,0,0,1,437.29,714.64Zm-1.07-.07a1.86,1.86,0,0,0-1.88-1.91,2.64,2.64,0,0,0-2.45,2.58,1.7,1.7,0,0,0,1.82,1.82A2.55,2.55,0,0,0,436.22,714.57Z" transform="translate(-417.76 -670.98)"/><path class="2b2b2879-dde2-4656-946e-61d81bfba6b4" d="M447.17,715.82c.71.19,1.23.36,1.78.47s.46.34.36.72-.29.46-.66.35c-.83-.24-1.68-.42-2.51-.65-.38-.11-.62-.09-.51.39s-.25.55-.62.61-.41-.25-.43-.51c-.15-1.64-.29-3.28-.46-4.92,0-.41,0-.61.5-.64a8.77,8.77,0,0,1,2.67.08,2,2,0,0,1,1.75,1.56,1.93,1.93,0,0,1-1.09,2.07Zm-1.08-3.2c-.23.18-.84-.3-.84.4s.1,1.22.16,1.83c0,.26.09.43.41.29a6.92,6.92,0,0,0,1.86-.94.72.72,0,0,0-.09-1.25A3,3,0,0,0,446.09,712.62Z" transform="translate(-417.76 -670.98)"/><path class="4ba21149-be13-4f83-ab4c-788dbae8c330" d="M483.25,685.55a3.58,3.58,0,0,1-3.68,3.54,2.8,2.8,0,0,1-2.77-3,3.72,3.72,0,0,1,3.59-3.59A2.92,2.92,0,0,1,483.25,685.55Zm-1.07,0a1.81,1.81,0,0,0-1.86-1.92,2.64,2.64,0,0,0-2.48,2.56,1.74,1.74,0,0,0,1.82,1.84A2.54,2.54,0,0,0,482.18,685.5Z" transform="translate(-417.76 -670.98)"/><path class="9073f877-5525-4735-a23d-b6811a91daf1" d="M448.38,694.91a3.59,3.59,0,0,1-3.66,3.56,2.81,2.81,0,0,1-2.8-3,3.74,3.74,0,0,1,3.57-3.61A2.92,2.92,0,0,1,448.38,694.91Zm-1.08,0a1.82,1.82,0,0,0-1.81-2,2.65,2.65,0,0,0-2.52,2.52,1.75,1.75,0,0,0,1.78,1.88A2.54,2.54,0,0,0,447.31,694.93Z" transform="translate(-417.76 -670.98)"/><path class="4ba21149-be13-4f83-ab4c-788dbae8c330" d="M455.11,695.54c-.08-.92-.13-1.83-.24-2.75,0-.43.08-.59.51-.66s.55.2.59.56c.16,1.53.24,3.06.28,4.6a.56.56,0,0,1-.49.64.58.58,0,0,1-.77-.25c-.67-1-1.38-2-2.08-3-.11-.15-.18-.41-.42-.31s-.15.37-.09.52c.28.68.22,1.43.45,2.11.15.43,0,.62-.46.75s-.51-.2-.58-.52a22,22,0,0,1-.42-4.5c0-.26-.19-.7.28-.75s.87-.19,1.14.39A11.84,11.84,0,0,0,455.11,695.54Z" transform="translate(-417.76 -670.98)"/><path class="9073f877-5525-4735-a23d-b6811a91daf1" d="M467.39,692.06a3.89,3.89,0,0,1,3.73,2.35,2.44,2.44,0,0,1-1.24,3.43,4.25,4.25,0,0,1-1,.33c-1.95.38-2.13.23-2.27-1.69-.08-1.08-.2-2.16-.28-3.25S466.22,692.07,467.39,692.06Zm.09,1.69c.06.77.11,1.54.17,2.32,0,.19,0,.39.07.58s0,.38.21.48a1.92,1.92,0,0,0,2.36-1.7,2.72,2.72,0,0,0-2.3-2.22C467.52,693.14,467.38,693.29,467.49,693.75Z" transform="translate(-417.76 -670.98)"/><path class="4ba21149-be13-4f83-ab4c-788dbae8c330" d="M462,716.14a6.33,6.33,0,0,1-.85.13c-.83,0-1.28.39-1.25,1.25,0,.56-.3.6-.75.56s-.38-.4-.33-.72c.25-1.43.52-2.85.74-4.28.08-.55.28-.87.88-.86s1.28-.53,1.73-.16.42,1.06.62,1.6a29.92,29.92,0,0,1,1,3.61c.06.29.22.59-.3.66s-.69.07-.75-.44a9.5,9.5,0,0,0-.25-1.05C462.47,716.17,462.33,716,462,716.14Zm-1.62-1.4c-.06.36-.05.63.28.51s1.27.13,1.27-.48,0-1.48-.76-1.51C460.12,713.22,460.75,714.35,460.4,714.74Z" transform="translate(-417.76 -670.98)"/><path class="9073f877-5525-4735-a23d-b6811a91daf1" d="M479.76,707.88c0,.26-.34.15-.57.22s-.46.06-.53-.3c-.1-.51-.13-1.24-.46-1.46s-1.1.13-1.68.17a.62.62,0,0,0-.67.67c0,.25-.09.49-.13.74-.08.51-.46.26-.73.28s-.36-.24-.31-.51c.26-1.48.54-3,.75-4.44a.86.86,0,0,1,.8-.85c1.83-.38,1.83-.41,2.4,1.35A23.4,23.4,0,0,1,479.76,707.88Zm-3.11-2.52c.29-.3,1.19.25,1.12-.52,0-.48,0-1.5-.81-1.44s-.5,1.1-.75,1.67C476.07,705.39,476.33,705.42,476.66,705.36Z" transform="translate(-417.76 -670.98)"/><path class="9073f877-5525-4735-a23d-b6811a91daf1" d="M425.86,697.86c.26-1.56.54-3.15.8-4.75.05-.33.22-.44.53-.52,2-.52,2-.53,2.64,1.43.37,1.17.71,2.35,1,3.53.09.3.23.66-.33.74s-.63,0-.75-.47c-.34-1.45-.37-1.38-1.78-1.22a1,1,0,0,0-1.06,1.16c0,.49-.2.7-.72.61C425.9,698.31,425.76,698.22,425.86,697.86Zm1.93-2.31c.3-.27,1.2.18,1.15-.52,0-.47.11-1.49-.77-1.46s-.51,1.09-.78,1.64C427.27,695.44,427.37,695.67,427.79,695.55Z" transform="translate(-417.76 -670.98)"/><path class="2b2b2879-dde2-4656-946e-61d81bfba6b4" d="M461.12,707.68c.09.45-.28.35-.53.42s-.45.07-.54-.29c-.12-.53-.05-1.28-.52-1.5s-1,.15-1.53.18-.76.33-.79.85a1.48,1.48,0,0,1-.2.8c-.18.23-.53.1-.79,0s-.17-.36-.14-.55c.25-1.48.52-3,.75-4.45a.76.76,0,0,1,.69-.76c1.92-.43,1.92-.45,2.51,1.39a27.76,27.76,0,0,1,1,3.52C461.09,707.44,461.1,707.55,461.12,707.68ZM458,705.37c.32-.26,1.18.18,1.16-.5,0-.49,0-1.34-.78-1.51-.45-.09-.83.83-.81,1.74C457.58,705.42,457.72,705.42,458,705.37Z" transform="translate(-417.76 -670.98)"/><path class="a2d294e6-35df-4240-95f6-1a5880aa0c0f" d="M468.14,711.59c.21.13.73-.26.75.4s-.21.75-.79.72a3.74,3.74,0,0,0-2.66.83c-.15.12-.34.25-.28.47s.29.25.48.27c.67,0,1.34,0,2,.11s1.51.16,1.72,1-.36,1.34-1,1.77a5,5,0,0,1-2,.8c-.27,0-.6.17-.59-.3,0-.31-.25-.77.39-.8a3.29,3.29,0,0,0,1.56-.55c.23-.15.53-.31.45-.63s-.4-.27-.64-.28c-.56,0-1.12,0-1.67-.06-.78-.08-1.61-.17-1.88-1.1-.19-.64.33-1.43,1.22-1.91A6.16,6.16,0,0,1,468.14,711.59Z" transform="translate(-417.76 -670.98)"/><path class="4ba21149-be13-4f83-ab4c-788dbae8c330" d="M467.5,707.42c-.27.36.32,1.12-.62,1.12-.39,0-.54-.1-.57-.49q-.17-2.33-.39-4.66c0-.39.07-.56.48-.56s.58,0,.61.45c0,.69.12,1.37.21,2.3.82-1.14,1.53-2.07,2.18-3.05.31-.46.52-.44.9-.11s.21.43,0,.68c-.67.92-1.31,1.87-2,2.78-.28.38-.25.55.24.67.73.17,1.44.42,2.18.59.43.1.43.31.34.66s-.2.53-.62.4A19.14,19.14,0,0,0,467.5,707.42Z" transform="translate(-417.76 -670.98)"/><path class="2b2b2879-dde2-4656-946e-61d81bfba6b4" d="M479.86,697.33l.7-4.29a.52.52,0,0,1,.43-.44c2-.66,2.05-.65,2.74,1.4a37.49,37.49,0,0,1,1,3.62c.07.31.15.6-.34.66s-.6,0-.72-.43c-.37-1.49-.39-1.41-1.91-1.25-.91.1-.88.68-.94,1.27s-.3.51-.69.49-.54-.2-.4-.58C479.89,697.66,479.86,697.49,479.86,697.33Zm2.32-3.9c-1,.35-.7,1.22-.92,1.82-.12.32.13.44.35.31.41-.23,1.24.22,1.23-.56A2,2,0,0,0,482.18,693.43Z" transform="translate(-417.76 -670.98)"/><path class="a2d294e6-35df-4240-95f6-1a5880aa0c0f" d="M495.68,707.81c-2.33.07-2.89-.5-2.72-2.68.07-.94.25-1.88.34-2.82,0-.53.34-.52.74-.51.55,0,.36.37.33.64-.14,1.13-.28,2.27-.42,3.4-.07.6.18.9.79.88,2.66-.08,2.45.27,2.13-2.38-.08-.63-.23-1.26-.35-1.89-.06-.29-.12-.57.32-.6s.67-.17.76.36a26.79,26.79,0,0,1,.53,3.55c0,1.5-.3,1.86-1.81,2Z" transform="translate(-417.76 -670.98)"/><path class="4ba21149-be13-4f83-ab4c-788dbae8c330" d="M446,701.75c.23.13.78-.26.78.47s-.33.65-.8.63a3.85,3.85,0,0,0-2.24.54c-.3.18-.77.37-.69.75s.59.31.94.34a8.78,8.78,0,0,1,2.32.21,1.21,1.21,0,0,1,.85,1.7A4.37,4.37,0,0,1,444,708.2c-.38-.07-.25-.37-.3-.59s0-.47.35-.52a3.88,3.88,0,0,0,1.7-.64c.19-.14.48-.27.39-.57s-.36-.24-.57-.27-.72,0-1.08-.06a10.05,10.05,0,0,1-1.33-.12c-.55-.11-1.1-.3-1.22-1a1.52,1.52,0,0,1,.65-1.53A5.55,5.55,0,0,1,446,701.75Z" transform="translate(-417.76 -670.98)"/><path class="2b2b2879-dde2-4656-946e-61d81bfba6b4" d="M469.86,726.15a11.72,11.72,0,0,1-4.06,9.3c-.33.29-.7.63-1.08.24s0-.8.36-1.09a10.65,10.65,0,0,0,3.48-10.12c-.06-.41-.24-.89.39-1s.68.35.72.79C469.74,725,469.81,725.73,469.86,726.15Z" transform="translate(-417.76 -670.98)"/><path class="9073f877-5525-4735-a23d-b6811a91daf1" d="M440.31,717.68c-.24,0-.6,0-1-.06a1.38,1.38,0,0,1-1.37-1.33,17.81,17.81,0,0,1,.34-4.33c.06-.49.46-.27.74-.3s.39.21.35.49c-.16,1.16-.3,2.32-.46,3.49-.09.69.22,1,.9,1,2.62-.08,2.33.12,2.06-2.25-.08-.66-.23-1.32-.36-2-.06-.3-.23-.62.3-.66.36,0,.7-.14.76.44.11,1,.33,2,.45,3.07.21,1.8-.24,2.33-2,2.43Z" transform="translate(-417.76 -670.98)"/><path class="bf7f20d9-0ba7-4c97-a499-8a89dbd5da9c" d="M458.41,688.62c-.28,0-.64,0-1-.06a1.34,1.34,0,0,1-1.28-1.23,15.19,15.19,0,0,1,.33-4.49c.06-.48.47-.28.74-.28s.31.29.28.54c-.14,1.13-.28,2.27-.44,3.4-.11.75.24,1,.94,1,2.45-.16,2.29.33,2-2.3-.08-.66-.24-1.32-.37-2-.05-.28-.13-.57.31-.61s.66-.17.76.35a21.31,21.31,0,0,1,.5,3.73c0,1.36-.34,1.75-1.68,1.87C459.16,688.59,458.83,688.6,458.41,688.62Z" transform="translate(-417.76 -670.98)"/><path class="bf7f20d9-0ba7-4c97-a499-8a89dbd5da9c" d="M463.84,691.78a8.68,8.68,0,0,0,1,0c.46-.05.64.09.66.58s-.2.57-.6.56a9,9,0,0,1-.92,0c-.76-.09-.95.2-.86.94.07.54.26.65.74.57s.67-.07,1-.11.7-.11.74.47-.19.67-.66.67-.78.09-1.17.1-.54.2-.52.62.22.59.64.52l1.24-.19c.29,0,.62-.21.67.31,0,.36.18.69-.39.81a11.44,11.44,0,0,1-2.57.28c-.42,0-.58-.14-.6-.58q-.1-2.43-.29-4.85c0-.44.09-.61.54-.6s.89,0,1.34-.07Z" transform="translate(-417.76 -670.98)"/><path class="a2d294e6-35df-4240-95f6-1a5880aa0c0f" d="M486.52,688.58c-2.18.05-2.62-.38-2.51-2.57.05-1,.22-1.94.29-2.92,0-.59.39-.57.8-.54s.31.44.28.69c-.11,1.08-.25,2.16-.4,3.24-.1.73.22,1,.93,1l.75,0c1.55-.09,1.56-.09,1.34-1.67-.12-.86-.3-1.71-.45-2.56-.06-.32-.12-.6.36-.65s.61,0,.7.43a24.19,24.19,0,0,1,.47,3.48c.07,1.58-.31,2-1.91,2.07C487,688.59,486.74,688.58,486.52,688.58Z" transform="translate(-417.76 -670.98)"/><path class="bf7f20d9-0ba7-4c97-a499-8a89dbd5da9c" d="M498.44,694.83c0-.78-.08-1.56-.16-2.34,0-.44.11-.59.54-.59.81,0,1.62-.06,2.43-.12.39,0,.56.08.56.5s0,.65-.51.64-.78.06-1.17,0-.69.13-.7.71c0,.73.25.93.92.78.27-.06.56,0,.83-.1.48-.09.7,0,.75.56s-.29.55-.66.57-.72.1-1.08.09c-.54,0-.63.23-.6.72s.35.47.68.43.77-.12,1.16-.17.65-.26.73.32,0,.7-.5.81a11.88,11.88,0,0,1-2.49.26c-.43,0-.58-.16-.59-.58,0-.84-.09-1.67-.14-2.51Z" transform="translate(-417.76 -670.98)"/><path class="4ba21149-be13-4f83-ab4c-788dbae8c330" d="M438.13,691.88a6,6,0,0,1,1.82.21,2.08,2.08,0,0,1,1.48,1.84c.1.86-.48,1.3-1.13,1.7a4.11,4.11,0,0,1-1.51.49c-.71.11-1,.43-.78,1.13.1.39.15.78-.49.78-.36,0-.51-.07-.53-.44q-.21-2.59-.44-5.18c0-.4.15-.48.48-.48S437.77,691.9,438.13,691.88Zm.44,1.09c-.89,0-.89,0-.79,1.11s.12,1.27,1.28.87c.53-.19,1.37-.17,1.26-1s-.87-.81-1.49-.92A1.86,1.86,0,0,0,438.57,693Z" transform="translate(-417.76 -670.98)"/><path class="4ba21149-be13-4f83-ab4c-788dbae8c330" d="M431.24,692.69c-.19-.61.14-.78.78-.78a13.32,13.32,0,0,1,2.09.05,2.18,2.18,0,0,1,2,1.94c.09.85-.48,1.55-1.63,2a2.78,2.78,0,0,1-.57.15c-.87.12-1.48.43-1.17,1.48.12.43-.17.49-.51.53s-.53-.1-.56-.49C431.55,695.95,431.4,694.36,431.24,692.69Zm2.08.27c-.85,0-.88,0-.93.37-.2,1.72.31,2.11,1.88,1.43l.3-.15c.62-.36.66-.88.08-1.3A2.38,2.38,0,0,0,433.32,693Z" transform="translate(-417.76 -670.98)"/><path class="4ba21149-be13-4f83-ab4c-788dbae8c330" d="M430.44,704.62c0-.78-.07-1.56-.14-2.34,0-.36.06-.51.43-.52.86,0,1.73-.06,2.59-.12.41,0,.45.19.45.5s0,.62-.44.61-.72,0-1.09.06c-.79,0-1.08.53-.79,1.3.1.27.28.23.47.21.44,0,.89-.07,1.33-.13s.61,0,.65.49-.11.59-.54.6-.78.1-1.17.1-.67.16-.65.69.34.55.72.5.78-.09,1.16-.18.64-.1.74.43-.11.63-.52.7c-.91.17-2,.53-2.71.14s-.25-1.61-.44-2.44A4.25,4.25,0,0,1,430.44,704.62Z" transform="translate(-417.76 -670.98)"/><path class="9073f877-5525-4735-a23d-b6811a91daf1" d="M471.84,711.5c.33,0,.67,0,1,0s.66,0,.67.53-.3.55-.68.55-.73.06-1.09,0c-.54,0-.61.21-.63.7,0,.77.24,1,1,.81.29-.08.61,0,.91-.09s.57.1.62.52-.17.55-.56.56-.78.11-1.16.1-.64.19-.63.69.35.54.72.49.77-.12,1.16-.17.64-.24.71.34.06.7-.45.73a3.57,3.57,0,0,0-.49.12c-2.46.52-2.55.44-2.69-2-.06-1-.09-2.06-.21-3.09-.07-.57.09-.77.64-.74.39,0,.78,0,1.17,0Z" transform="translate(-417.76 -670.98)"/><path class="4ba21149-be13-4f83-ab4c-788dbae8c330" d="M456.27,718.26a3.06,3.06,0,1,1,1.27-5.59c.19.15.59.28.27.63s-.34.64-.86.32a1.78,1.78,0,0,0-2.38.15,1.89,1.89,0,0,0-.37,2.24,1.77,1.77,0,0,0,1.94,1.14,6.74,6.74,0,0,0,1.65-.26c.47-.14.57.07.7.43s0,.55-.39.63-.76.18-1.14.25S456.39,718.25,456.27,718.26Z" transform="translate(-417.76 -670.98)"/><path class="a2d294e6-35df-4240-95f6-1a5880aa0c0f" d="M474.29,689.15a3.06,3.06,0,1,1-.35-6.1,2.54,2.54,0,0,1,1.56.5c.2.15.67.28.33.66s-.39.65-.93.25a1.86,1.86,0,0,0-2.81,2,1.91,1.91,0,0,0,1.65,1.55,4.33,4.33,0,0,0,2.05-.27c.52-.19.59.12.73.49s-.13.54-.43.6A9,9,0,0,1,474.29,689.15Z" transform="translate(-417.76 -670.98)"/><path class="a2d294e6-35df-4240-95f6-1a5880aa0c0f" d="M427.77,682.72l.92-.09c.33,0,.67-.16.71.4s0,.77-.59.71-.68.28-.63.77c.09.8.17,1.61.2,2.42,0,.51.18.73.7.58s.63,0,.69.49-.21.59-.62.61c-.67,0-1.34.12-2,.2-.3,0-.59.07-.58-.36s-.22-.73.36-.73.43-.34.4-.64c-.08-.89-.2-1.78-.25-2.67,0-.48-.23-.57-.62-.47s-.61,0-.63-.49,0-.62.51-.62.95-.08,1.42-.13Z" transform="translate(-417.76 -670.98)"/><path class="a2d294e6-35df-4240-95f6-1a5880aa0c0f" d="M446.22,688.82c-.45.09-.54-.12-.55-.5,0-1-.11-1.95-.12-2.92a1.09,1.09,0,0,0-.57-1c-.49-.31-.94-.7-1.43-1s-.43-.44-.16-.85.55-.28.84,0l.2.15c.52.37,1,1,1.57,1s1-.74,1.41-1.19c.25-.25.43-.32.65,0s.62.5.12.78c-2.08,1.14-1.48,3-1.42,4.79C446.79,688.46,446.9,688.94,446.22,688.82Z" transform="translate(-417.76 -670.98)"/><path class="a2d294e6-35df-4240-95f6-1a5880aa0c0f" d="M428.24,717.88c-.44.1-.58-.07-.58-.47,0-.95-.12-1.9-.12-2.84a1.16,1.16,0,0,0-.58-1.1c-.47-.3-.89-.67-1.36-1s-.58-.41-.24-.9.63-.15.93,0l.13.11c1.51,1.16,1.51,1.17,2.89-.1.28-.26.46-.42.8,0s.35.59-.06.85a3,3,0,0,0-1.37,3.43,11.26,11.26,0,0,1,.06,1.5C428.75,717.78,428.62,718,428.24,717.88Z" transform="translate(-417.76 -670.98)"/><path class="a2d294e6-35df-4240-95f6-1a5880aa0c0f" d="M498.3,688.65c-.48.11-.52-.14-.54-.46-.05-1.09-.17-2.17-.17-3.26,0-.73-.22-1-1-.8-.44.14-.75.08-.77-.5,0-.39.06-.55.47-.59q1.75-.18,3.49-.43c.45-.07.51.15.55.5s.06.55-.4.62c-1.36.21-1.36.23-1.29,1.63,0,.89.1,1.78.16,2.68C498.85,688.48,498.79,688.79,498.3,688.65Z" transform="translate(-417.76 -670.98)"/><path class="bf7f20d9-0ba7-4c97-a499-8a89dbd5da9c" d="M459.16,698c-.45.11-.52-.16-.54-.51-.06-1.11-.19-2.22-.19-3.33,0-.71-.28-.86-.89-.69s-.86.06-.84-.59c0-.31.07-.45.4-.48,1.19-.13,2.38-.27,3.56-.45.5-.07.46.25.51.54s.05.5-.36.58c-1.39.28-1.38.3-1.29,1.77.06.86.08,1.73.16,2.58C459.73,697.92,459.59,698.1,459.16,698Z" transform="translate(-417.76 -670.98)"/><path class="bf7f20d9-0ba7-4c97-a499-8a89dbd5da9c" d="M454.89,701.85c.33-.08.43.12.47.46s0,.54-.42.62c-1.33.25-1.32.27-1.25,1.67,0,.89.09,1.78.17,2.67,0,.42-.07.59-.53.62s-.56-.18-.58-.57c-.06-1.14-.17-2.28-.19-3.42,0-.58-.19-.71-.73-.59s-.91.28-.95-.48c0-.34,0-.5.41-.54C452.47,702.17,453.66,702,454.89,701.85Z" transform="translate(-417.76 -670.98)"/><path class="a2d294e6-35df-4240-95f6-1a5880aa0c0f" d="M501.08,707.86c-.51.12-.54-.21-.55-.58,0-1.14-.12-2.28-.15-3.42,0-.53-.19-.69-.7-.56a1.48,1.48,0,0,1-.82,0c-.25-.1-.17-.44-.19-.68s.22-.32.44-.35c1.16-.14,2.32-.27,3.48-.44.44-.06.5.15.56.5s-.1.51-.47.58c-1.27.22-1.28.24-1.21,1.54,0,.95.09,1.89.17,2.84C501.69,707.77,501.5,707.92,501.08,707.86Z" transform="translate(-417.76 -670.98)"/><path class="9073f877-5525-4735-a23d-b6811a91daf1" d="M436.92,707.86c-.47.1-.5-.16-.52-.47-.06-1.08-.16-2.17-.18-3.25,0-.69-.18-1-1-.8-.42.14-.74.08-.74-.52,0-.36.06-.48.43-.52q1.74-.18,3.48-.43c.42-.06.52.09.56.48s0,.53-.44.6c-1.34.23-1.33.25-1.24,1.6.06.92.09,1.84.18,2.75C437.53,707.8,437.32,707.94,436.92,707.86Z" transform="translate(-417.76 -670.98)"/><path class="a2d294e6-35df-4240-95f6-1a5880aa0c0f" d="M479.51,697.65a7,7,0,0,1-3.55.69c-.35,0-.41-.19-.42-.47-.08-1.62-.15-3.24-.26-4.85,0-.5.28-.43.58-.48s.5.06.51.44c.05,1.2.16,2.4.2,3.6,0,.57.24.73.77.59a10.64,10.64,0,0,0,1.3-.31c.57-.23.84-.08.88.52Z" transform="translate(-417.76 -670.98)"/><path class="bf7f20d9-0ba7-4c97-a499-8a89dbd5da9c" d="M461.75,704.06a9.93,9.93,0,0,0-.07-1.08c-.07-.45.11-.57.53-.61s.54.19.56.58c0,1.17.15,2.34.19,3.51,0,.53.22.69.71.57s.93-.17,1.38-.33.67-.15.83.38-.24.57-.55.68a10.87,10.87,0,0,1-2.71.44c-.49,0-.69-.09-.7-.63,0-1.17-.11-2.34-.17-3.51Z" transform="translate(-417.76 -670.98)"/><path class="4ba21149-be13-4f83-ab4c-788dbae8c330" d="M427,707.87c-.58.14-.87-.05-.88-.84,0-1.44-.14-2.89-.24-4.33,0-.35,0-.58.44-.59s.61,0,.63.5c0,1.2.16,2.39.21,3.58,0,.46.14.64.63.55a7.78,7.78,0,0,0,1.62-.39c.49-.2.53.14.68.45s0,.54-.35.63A12.61,12.61,0,0,1,427,707.87Z" transform="translate(-417.76 -670.98)"/><path class="4ba21149-be13-4f83-ab4c-788dbae8c330" d="M449.2,694.68c0-.67-.05-1.34-.12-2,0-.38,0-.57.47-.57s.58,0,.6.47q.16,2.55.37,5.09c0,.44-.19.48-.53.52s-.52-.12-.54-.5C449.39,696.68,449.28,695.68,449.2,694.68Z" transform="translate(-417.76 -670.98)"/><path class="bf7f20d9-0ba7-4c97-a499-8a89dbd5da9c" d="M501.8,686.54c-.45.13-.57-.12-.62-.57s.18-.54.57-.58q1.49-.12,3-.31c.45-.06.58.12.62.53s-.07.59-.52.62C503.83,686.31,502.83,686.43,501.8,686.54Z" transform="translate(-417.76 -670.98)"/><path class="bf7f20d9-0ba7-4c97-a499-8a89dbd5da9c" d="M441.1,703.16c.11.41,0,.6-.47.66s-.57-.14-.59-.54a12.38,12.38,0,0,0-.14-1.33c-.06-.39,0-.61.47-.65s.59.1.6.53S441,702.71,441.1,703.16Z" transform="translate(-417.76 -670.98)"/><path class="bf7f20d9-0ba7-4c97-a499-8a89dbd5da9c" d="M430.67,682.8c-.16-.5,0-.83.74-.75.15,0,.27.07.29.23.07.63.14,1.27.2,1.9,0,.38-.28.34-.51.37s-.51.09-.54-.3S430.74,683.38,430.67,682.8Z" transform="translate(-417.76 -670.98)"/><path class="bf7f20d9-0ba7-4c97-a499-8a89dbd5da9c" d="M475.73,717.76c-.62.14-.6-.3-.67-.68s.28-.35.53-.4c.6-.11.57.32.64.7S476,717.72,475.73,717.76Z" transform="translate(-417.76 -670.98)"/><path class="bf7f20d9-0ba7-4c97-a499-8a89dbd5da9c" d="M510.72,697.64c.11.44-.15.43-.46.47-.59.07-.58-.3-.64-.7s.17-.41.48-.45C510.66,696.89,510.74,697.22,510.72,697.64Z" transform="translate(-417.76 -670.98)"/><path class="bf7f20d9-0ba7-4c97-a499-8a89dbd5da9c" d="M479.51,697.65v-.27c.14.13.26.08.36,0,0,.16,0,.33-.11.45Z" transform="translate(-417.76 -670.98)"/><path class="f379f2c0-c426-4fda-a4df-07b95ba1507c" d="M462.07,745a15.25,15.25,0,0,1-1.8,13.14,13.23,13.23,0,0,1-11.83,6.37,17.17,17.17,0,0,1-12.22-4.68c-4.47-4.38-6.88-12.89-1.84-19a13.79,13.79,0,0,1,9.54-5.15,19.27,19.27,0,0,1,11.9,2.15,13.62,13.62,0,0,1,5.29,5.35l.64,1.17a23.66,23.66,0,0,1-3.39.34c-.48,0-.68-.16-.73-.73-.37,1.14-.33,1.2.64,1.25a11.81,11.81,0,0,0,3.65-.37h0Zm-3.51,9.36-1.9-.33a.16.16,0,0,0,0-.15c.23-.38.45-.77.71-1.13s.34-.47.65-.47c.15,0,.32.17.36-.11s-.12-.24-.25-.3a4.78,4.78,0,0,0-1.89-.65,21.35,21.35,0,0,0-8.3,1.19c-.33.11-.74.29-.71.72s.48.56.85.69a11.58,11.58,0,0,0,2.9.29c2.52.18,5,.5,7.57.5.29.11.34.27.08.46s-.55.35-.87.56c.52.21.79-.12,1.07-.36s.48-.3.42-.58S458.84,754.31,458.56,754.31Zm-9.25-8.47a2.06,2.06,0,0,0-2.06,2.08,2.12,2.12,0,1,0,4.23,0A2.07,2.07,0,0,0,449.31,745.84ZM459.75,751A2.15,2.15,0,0,0,462,748.8a2.05,2.05,0,0,0-2.11-2,2,2,0,0,0-2.06,2.07A2.09,2.09,0,0,0,459.75,751Zm-12.6-7.18a9.19,9.19,0,0,0,5.16,1c.36,0,.48-.24.49-.55s0-.64-.34-.79c-.17-.07-.48-.13-.45.15.13,1.29-.71.7-1.23.64A17.36,17.36,0,0,0,447.15,743.79Z" transform="translate(-417.76 -670.98)"/><path class="ce500a93-f159-4b3c-a876-70f311e032ff" d="M444.27,785.82a31,31,0,0,1-6.91-.66,12.16,12.16,0,0,1-4-1.86c-.31-.19-.31-.5-.35-.8a46.05,46.05,0,0,1,1.29-18c.26-1,.52-1.94.74-2.92.11-.45.22-.49.58-.18A20.16,20.16,0,0,0,449,766a14,14,0,0,0,3.72-.54c.46-.13.65-.13.57.45a84.9,84.9,0,0,0-.62,18.13c0,.57-.08.84-.69,1A36.23,36.23,0,0,1,444.27,785.82Z" transform="translate(-417.76 -670.98)"/><path class="bf7f20d9-0ba7-4c97-a499-8a89dbd5da9c" d="M461.91,744.75a11.81,11.81,0,0,1-3.65.37c-1,0-1-.1-.64-1.25,0,.58.25.77.73.73a23.66,23.66,0,0,0,3.39-.34C462,744.37,461.9,744.58,461.91,744.75Z" transform="translate(-417.76 -670.98)"/><path class="bf7f20d9-0ba7-4c97-a499-8a89dbd5da9c" d="M462.07,745l-.15-.2Z" transform="translate(-417.76 -670.98)"/><path class="66720d7f-eb5e-4da1-85f0-c4cfc0fa9756" d="M489.44,736c4.11,0,7.86,1,10.92,3.88,4.39,4.13,5.36,9.56,2.92,15.42-2.24,5.38-6.44,8.16-12,9.24-3.84.75-7.61.55-11-1.55a14.78,14.78,0,0,1-6.87-10.52c-.08-.44,0-.64.5-.66a2.07,2.07,0,0,0,2-2,2,2,0,0,0-1.76-2.18c-.65-.07-.63-.35-.53-.8a13.57,13.57,0,0,1,5.5-7.94C482.22,736.67,485.74,736,489.44,736Zm-5.54,17.78c.29.06.57.27.94.11a.77.77,0,0,0-.78-.37c-2-.52-3.95,0-5.92-.19a2.2,2.2,0,0,0,1.59.45C481.13,753.83,482.52,753.61,483.91,753.77Zm.35-2.34a2.27,2.27,0,0,0,2.31-2.16,2.11,2.11,0,0,0-4.22-.07A2.15,2.15,0,0,0,484.25,751.42Z" transform="translate(-417.76 -670.98)"/><path class="d677dd62-0ce9-4859-964d-247c640e7a23" d="M482,765.54a18.86,18.86,0,0,0,6,.88,20.14,20.14,0,0,0,11.81-3.86c.54-.39.63-.37.76.31a88.58,88.58,0,0,1,1.51,8.81,44.64,44.64,0,0,1-.13,8.69c-.11,1.05-.32,2.1-.39,3.15a1.3,1.3,0,0,1-.76,1.09,13.65,13.65,0,0,1-7.13,1.79,39.75,39.75,0,0,1-10.87-1.06c-.79-.2-1-.53-.93-1.32a106.6,106.6,0,0,0,.5-13.21C482.29,769.11,482.13,767.42,482,765.54Z" transform="translate(-417.76 -670.98)"/><path class="9013d5a1-349c-4b25-a2c9-d3266c6e9592" d="M480.85,775.69c0,.35,0,.67-.29.74s-.2-.23-.17-.37-.11-.7.29-.76S480.77,775.6,480.85,775.69Z" transform="translate(-417.76 -670.98)"/><path class="ce7b4f5f-f209-411f-8644-2f35702160cf" d="M480.66,773.59V772a2.59,2.59,0,0,1,.19,1.58Z" transform="translate(-417.76 -670.98)"/><path class="9013d5a1-349c-4b25-a2c9-d3266c6e9592" d="M480.66,773.59h.19a1.23,1.23,0,0,1-.12.91A.86.86,0,0,1,480.66,773.59Z" transform="translate(-417.76 -670.98)"/><path class="ce7b4f5f-f209-411f-8644-2f35702160cf" d="M482.55,705.64c.6.08,1.43-.15,1.51.6s-.8.77-1.37.88c-1.2.22-1.34.1-1.34-.85S482.22,706,482.55,705.64Z" transform="translate(-417.76 -670.98)"/><path class="ce7b4f5f-f209-411f-8644-2f35702160cf" d="M481.21,703.93c-.27-1,.37-.92.88-.91s1.07-.22,1.28.42c.12.37-1.18,1.21-1.83,1.2S481.34,704.09,481.21,703.93Z" transform="translate(-417.76 -670.98)"/><path class="ce7b4f5f-f209-411f-8644-2f35702160cf" d="M463.37,684.63c.19-.28-.49-.84.24-1a2.5,2.5,0,0,1,2.3.61.71.71,0,0,1-.22,1,6.66,6.66,0,0,1-1.85.93c-.3.11-.4,0-.41-.31S463.4,685.05,463.37,684.63Z" transform="translate(-417.76 -670.98)"/><path class="ce7b4f5f-f209-411f-8644-2f35702160cf" d="M504.14,693.77c-.27-.77.21-.89.9-.82s1.54,0,1.74.82-.68,1.05-1.24,1.31c-1.37.62-1.2.77-1.37-.79C504.16,694.15,504.16,694,504.14,693.77Z" transform="translate(-417.76 -670.98)"/><path class="4064ce4d-1f16-4b6d-bea6-768152feeb87" d="M454.28,685.5a2.53,2.53,0,0,1-2.5,2.49,1.73,1.73,0,0,1-1.82-1.84,2.64,2.64,0,0,1,2.47-2.57A1.8,1.8,0,0,1,454.28,685.5Z" transform="translate(-417.76 -670.98)"/><path class="ce7b4f5f-f209-411f-8644-2f35702160cf" d="M491.28,684.36c-.25-.74.23-.87.93-.79s1.54,0,1.74.82-.66,1.07-1.23,1.32C491.21,686.35,491.53,686.49,491.28,684.36Z" transform="translate(-417.76 -670.98)"/><path class="4064ce4d-1f16-4b6d-bea6-768152feeb87" d="M491.18,704.72a2.62,2.62,0,0,1-2.54,2.5,1.77,1.77,0,0,1-1.84-1.85,2.66,2.66,0,0,1,2.49-2.55A1.83,1.83,0,0,1,491.18,704.72Z" transform="translate(-417.76 -670.98)"/><path class="4064ce4d-1f16-4b6d-bea6-768152feeb87" d="M436.22,714.57a2.55,2.55,0,0,1-2.51,2.49,1.7,1.7,0,0,1-1.82-1.82,2.64,2.64,0,0,1,2.45-2.58A1.86,1.86,0,0,1,436.22,714.57Z" transform="translate(-417.76 -670.98)"/><path class="ce7b4f5f-f209-411f-8644-2f35702160cf" d="M446.09,712.62a3,3,0,0,1,1.5.34.72.72,0,0,1,.09,1.25,6.92,6.92,0,0,1-1.86.94c-.33.14-.39,0-.41-.29-.06-.61-.15-1.22-.16-1.83S445.86,712.81,446.09,712.62Z" transform="translate(-417.76 -670.98)"/><path class="4064ce4d-1f16-4b6d-bea6-768152feeb87" d="M482.18,685.5a2.54,2.54,0,0,1-2.51,2.49,1.74,1.74,0,0,1-1.82-1.84,2.64,2.64,0,0,1,2.48-2.56A1.81,1.81,0,0,1,482.18,685.5Z" transform="translate(-417.76 -670.98)"/><path class="4064ce4d-1f16-4b6d-bea6-768152feeb87" d="M447.31,694.93a2.54,2.54,0,0,1-2.55,2.45,1.75,1.75,0,0,1-1.78-1.88,2.65,2.65,0,0,1,2.52-2.52A1.82,1.82,0,0,1,447.31,694.93Z" transform="translate(-417.76 -670.98)"/><path class="4064ce4d-1f16-4b6d-bea6-768152feeb87" d="M467.49,693.75c-.11-.46,0-.61.51-.53a2.72,2.72,0,0,1,2.3,2.22,1.92,1.92,0,0,1-2.36,1.7c-.26-.1-.18-.31-.21-.48s-.05-.39-.07-.58C467.6,695.3,467.54,694.52,467.49,693.75Z" transform="translate(-417.76 -670.98)"/><path class="ce7b4f5f-f209-411f-8644-2f35702160cf" d="M460.4,714.74c.34-.38-.28-1.52.79-1.48.75,0,.76,1,.76,1.51s-.83.32-1.27.48S460.34,715.1,460.4,714.74Z" transform="translate(-417.76 -670.98)"/><path class="ce7b4f5f-f209-411f-8644-2f35702160cf" d="M476.66,705.36c-.32.06-.58,0-.44-.29.25-.57-.21-1.61.75-1.67s.76,1,.81,1.44C477.84,705.61,476.94,705.06,476.66,705.36Z" transform="translate(-417.76 -670.98)"/><path class="ce7b4f5f-f209-411f-8644-2f35702160cf" d="M427.79,695.55c-.42.11-.51-.12-.41-.34.27-.56-.25-1.61.78-1.64s.74,1,.77,1.46C429,695.74,428.09,695.28,427.79,695.55Z" transform="translate(-417.76 -670.98)"/><path class="ce7b4f5f-f209-411f-8644-2f35702160cf" d="M458,705.37c-.29,0-.43,0-.43-.26,0-.91.36-1.83.81-1.74.8.16.77,1,.78,1.51C459.19,705.55,458.33,705.11,458,705.37Z" transform="translate(-417.76 -670.98)"/><path class="ce7b4f5f-f209-411f-8644-2f35702160cf" d="M482.18,693.43a2,2,0,0,1,.66,1.57c0,.78-.82.33-1.23.56-.22.13-.47,0-.35-.31C481.48,694.65,481.16,693.78,482.18,693.43Z" transform="translate(-417.76 -670.98)"/><path class="ce7b4f5f-f209-411f-8644-2f35702160cf" d="M438.57,693a1.91,1.91,0,0,1,.25,0c.62.11,1.39.09,1.49.92s-.73.86-1.26,1c-1.16.41-1.17.38-1.28-.87S437.69,692.94,438.57,693Z" transform="translate(-417.76 -670.98)"/><path class="ce7b4f5f-f209-411f-8644-2f35702160cf" d="M433.32,693a2.38,2.38,0,0,1,1.34.36c.58.42.54.95-.08,1.3l-.3.15c-1.57.67-2.08.28-1.88-1.43C432.44,693,432.47,692.95,433.32,693Z" transform="translate(-417.76 -670.98)"/><path class="3fac3f31-25bd-40a2-8e6e-962c979f6e20" d="M456.66,754l1.9.33v.25c-2.53,0-5-.32-7.57-.5a11.58,11.58,0,0,1-2.9-.29c-.37-.12-.82-.22-.85-.69s.38-.61.71-.72a21.35,21.35,0,0,1,8.3-1.19,4.78,4.78,0,0,1,1.89.65c.12.07.27.14.25.3s-.21.12-.36.11c-.31,0-.49.24-.65.47s-.48.75-.71,1.13C456.54,753.88,456.53,753.93,456.66,754Z" transform="translate(-417.76 -670.98)"/><path class="3fac3f31-25bd-40a2-8e6e-962c979f6e20" d="M449.31,745.84a2.07,2.07,0,0,1,2.17,2.06,2.12,2.12,0,1,1-4.23,0A2.06,2.06,0,0,1,449.31,745.84Z" transform="translate(-417.76 -670.98)"/><path class="3fac3f31-25bd-40a2-8e6e-962c979f6e20" d="M459.75,751a2.09,2.09,0,0,1-1.9-2.15,2,2,0,0,1,2.06-2.07,2.05,2.05,0,0,1,2.11,2A2.15,2.15,0,0,1,459.75,751Z" transform="translate(-417.76 -670.98)"/><path class="bf7f20d9-0ba7-4c97-a499-8a89dbd5da9c" d="M447.15,743.79a17.36,17.36,0,0,1,3.63.48c.52.06,1.36.65,1.23-.64,0-.28.28-.22.45-.15.34.15.35.48.34.79s-.13.54-.49.55A9.19,9.19,0,0,1,447.15,743.79Z" transform="translate(-417.76 -670.98)"/><path class="bf7f20d9-0ba7-4c97-a499-8a89dbd5da9c" d="M458.55,754.56v-.25c.28,0,.61,0,.69.32s-.23.42-.42.58-.55.58-1.07.36c.32-.2.6-.37.87-.56S458.84,754.67,458.55,754.56Z" transform="translate(-417.76 -670.98)"/><path class="d677dd62-0ce9-4859-964d-247c640e7a23" d="M456.66,754c-.13,0-.12-.09,0-.15A.16.16,0,0,1,456.66,754Z" transform="translate(-417.76 -670.98)"/><path class="3fac3f31-25bd-40a2-8e6e-962c979f6e20" d="M484.25,751.42a2.15,2.15,0,0,1-1.92-2.23,2.11,2.11,0,0,1,4.22.07A2.27,2.27,0,0,1,484.25,751.42Z" transform="translate(-417.76 -670.98)"/><path class="bf7f20d9-0ba7-4c97-a499-8a89dbd5da9c" d="M483.91,753.77c-1.39-.15-2.78.06-4.16,0a2.2,2.2,0,0,1-1.59-.45c2,.22,4-.33,5.92.19Z" transform="translate(-417.76 -670.98)"/><path class="d677dd62-0ce9-4859-964d-247c640e7a23" d="M483.91,753.77l.16-.26a.77.77,0,0,1,.78.37C484.48,754,484.2,753.83,483.91,753.77Z" transform="translate(-417.76 -670.98)"/></svg>