<svg id="61a71ced-a6ed-4e35-a0e0-4e0704d29433" data-name="Capa 1" xmlns="http://www.w3.org/2000/svg" viewBox="0 0 214.04 310.95"><defs><style>.a91aad1e-e9ea-43f4-b568-cc152664676a{fill:#fefefe;}.\32 31b7657-b49f-4441-a539-daf18e440b57{fill:#ba2f22;}.\34 eb67f2c-097b-4822-9134-7c653db8df26{fill:#161616;}.\30 a1c3263-6c71-44c1-af07-bb8221d98a8a{fill:#91673c;}.f64cfb34-1561-4c37-90f5-9b292cfcb2e7{fill:#d9e5ed;}.\37 718cb97-90cb-4924-aaea-6603fec9e38a{fill:#423220;}.\30 3e8ee67-7bcb-48ad-8c31-5d34df5cbdef{fill:#e9e6e6;}.\31 42f0e50-f86b-4708-af0f-afdf3cb010b0{fill:#384f9d;}.d007cb91-6861-4467-938b-33627c65d8ba{fill:#7b5834;}.eecaa423-e7a7-4c2b-9101-5f07858b0b7d{fill:#2b3788;}.\35 c837ce8-009a-4974-86e3-81319bf4cfdb{fill:#badddd;}.\39 04308f6-0f05-42a0-bbfd-fce9cfdecb39{fill:#f7cca0;}.\35 be204f4-2907-4f3a-80ac-5468ad3dd745{fill:#94b2c5;}.\33 f4289e1-8771-4566-a189-f5b9f1efa011{fill:#fafafa;}.\38 29c161c-329c-4509-b3bc-fe164af92734{fill:#483a2e;}.d63e9fcc-f4bc-4456-bf8a-491182407e63{fill:#f1eec9;}.\37 f626afc-6972-4da3-b69a-d4aeacf1f476{fill:none;}</style></defs><title>card-16</title><path class="a91aad1e-e9ea-43f4-b568-cc152664676a" d="M542.66,210.91c-.15-5.92-3.29-9.16-9.23-9.5-1.33-.08-2.66-.15-4-.15q-93.62,0-187.25,0c-1.66,0-3.33.07-5,.22a8.47,8.47,0,0,0-8,7.76A33.24,33.24,0,0,0,329,213q0,70.95,0,141.89,0,38.33,0,76.65,0,33.12,0,66.23c0,7.63,3.31,10.86,11,10.86H532.27c6.87,0,10.27-3.35,10.39-10.18,0-.66,0-1.32,0-2q0-141.89,0-283.78C542.66,212.07,542.68,211.49,542.66,210.91ZM538.43,497c0,5.89-1.5,7.39-7.32,7.39H340.89c-.78,0-1.49,0-2.12-.08h4.54c4.05-2.45,4.87-4.8,3.66-9.57-.29-1.15.19-1.64,1-2.18,2-1.3,4.07-2.58,6-4,4.43-3.28,5.18-6.39,2.94-11.43a38.4,38.4,0,0,0-4.77-7.22c-1.25-1.67-1.1-2.87.46-4.2,2-1.66,3.81-3.45,5.65-5.23,1.61-1.57,2.1-3.33.6-5.28-1-1.26-.92-2.13.53-3.18.36-.26.71-.54,1.05-.82a44.48,44.48,0,0,0,4.08-3.87c7.07-7.44,6.88-14.92-.47-22.15-1.36-1.34-2.7-2.69-4.11-4-1.16-1.05-1-1.91.16-2.81,2.09-1.64,4.18-3.27,6.21-5a25.05,25.05,0,0,0,3-2.94c5.72-6.74,4-12.83-4.3-16a28.8,28.8,0,0,1-3.84-1.76c-2.26-1.25-2.31-2-.36-3.61,1.42-1.15,2.9-2.22,4.27-3.43a12.53,12.53,0,0,0,4.47-8,7.17,7.17,0,0,0-7.72-8.34c-.76,0-1.62.14-2.08-.53s.33-1.31.7-1.88c1-1.6,2.2-3.12,3.15-4.76,1.95-3.36.09-6.67-3.85-6.9a1.44,1.44,0,0,1-1.41-.75c-.32-.71.12-1.24.63-1.71,1.5-1.38,3.43-2,5.22-2.84,4.95-2.31,7.17-5.23,6.76-8.94a14.26,14.26,0,0,0-2.58-6.18c-2.25-3.37-5.48-5.75-8.54-8.27-1.63-1.34-1.68-2.35-.07-3.67a40.33,40.33,0,0,0,3.61-3.42c3-3.15,3.42-6,1.14-9.63-1.87-3-4.08-5.82-6.15-8.71-.91-1.27-2-2.2.7-3.08a21.67,21.67,0,0,0,6.74-3.67c3.43-2.74,4.42-5.67,3.17-9.85a22.29,22.29,0,0,0-6.49-9.82c-1.51-1.42-3-2.85-4.57-4.22s-1.33-2.66.15-3.91l1-.8c3.41-2.87,3.16-4.55-1-6.37-1.37-.6-2.81-1-4.14-1.7-2.49-1.22-2.6-2-.57-4,.95-.92,2-1.7,3.07-2.54,4.59-3.74,4.58-8.63,0-12.37-2.74-2.25-6.07-3.38-9.23-4.84-2.79-1.28-2.95-1.78-1.53-4.51.61-1.17,1.34-2.28,1.88-3.48,1.72-3.84.28-7.2-1.65-10.52-.58-1-1.27-.25-2-.41a58.2,58.2,0,0,0,2.25-5.46c.59-1.94.6-3.22-.06-4.06q92.53,0,185.06,0c5.73,0,7.23,1.55,7.23,7.24Q538.44,354.86,538.43,497Z" transform="translate(-329.03 -200.39)"/><path class="231b7657-b49f-4441-a539-daf18e440b57" d="M345.05,201.09c.91,0,1.82-.14,2.73-.14H530c1.42,0,2.84,0,4.25.08,4.9.32,7.79,3,8.57,7.82a20.49,20.49,0,0,1,.21,3.23q0,143.37,0,286.74a27,27,0,0,1-.35,4.47,8.2,8.2,0,0,1-7.75,7.24,23.39,23.39,0,0,1-2.5.06H344.22c-.83,0-1.66-.09-2.49-.13,1.61-1.42,3.68-2.31,4.81-4.27a5.9,5.9,0,0,0,1.18.24q13.69,0,27.37,0l.52,0c.73.08,1.49.31,2.1-.36l2.38,0h1.16l4-.06a2.11,2.11,0,0,0,2.71.14,4.72,4.72,0,0,0,2.68.28q11.1,0,22.19,0l46.13-.08a13.78,13.78,0,0,0,6.12-.2c6.47.58,12.95.22,19.42.19a10.94,10.94,0,0,0,4.09.07c5.73.05,11.46.15,17.19.15,6.06,0,12.12-.11,18.18-.17l1.14,0c2.9,0,5.81.2,8.7.09s4.07-1.43,4.81-4.43a4.63,4.63,0,0,0,.35-2.67c0-3.74-.07-7.48-.07-11.22q0-26.05,0-52.1c0-5.23,0-10.46,0-15.69,0-8.3-.09-16.6-.14-24.9a3.22,3.22,0,0,0-.16-2.59c0-.92.09-1.83.09-2.75q0-88.75,0-177.5a19.7,19.7,0,0,0-.16-3.24,4.6,4.6,0,0,0-3.63-4,16.62,16.62,0,0,0-4.22-.36h-28l-155.75,0Z" transform="translate(-329.03 -200.39)"/><path class="4eb67f2c-097b-4822-9134-7c653db8df26" d="M345.05,201.09l2,4c-.15,1.54.35,3.25-.87,4.53s-.74,1.86.2,2.86c2.1,2.25,3.61,4.85,3.12,8.08a45.42,45.42,0,0,1-1.57,7c-.4,1.24-.11,1.58,1,1.93a22.28,22.28,0,0,1,7,3.69c5.64,4.51,7.33,13.32,3.22,18.55-1.59,2-1.14,2.67.66,3.95,3.28,2.33,4,5.41,2.28,9-.86,1.75-.91,2.6,1.12,3.42,1.8.72,2.9,2.48,3.82,4.17a33.5,33.5,0,0,1,3.79,12c1,7.83-2.28,13.56-9.53,16.42,3,3.31,5.69,6.78,6.33,11.34.68,4.83-1.88,8.39-4.9,11.7,5.64,3.87,8.23,9.41,9.6,15.68A11.43,11.43,0,0,1,370,349a18.63,18.63,0,0,1-6.56,5.16c3.74,3.51,4.77,9.44,1.44,12.16,3.69,3,6.4,6.41,6.07,11.62a15.09,15.09,0,0,1-6.23,11.73c4.53,1.52,6.7,5,9,8.36.72,1.41.3,3,.49,4.42,0,4.94-2.23,8.73-5.88,11.87-1.58,1.36-3,2.91-4.58,4.24-1,.81-1.06,1.43-.28,2.42,1.44,1.83,2.77,3.75,4.15,5.62A19,19,0,0,1,363.73,453c-.67.5-1.37,1-2.06,1.4-.5.32-.95.53-.6,1.34,1.25,2.87-.09,5.2-1.83,7.31a53.25,53.25,0,0,1-4.35,4.46c-.71.68-.92,1.13-.22,2,2.19,2.8,3.19,6.16,4.18,9.52,2.34,8-1.95,15.23-8.54,17-.85.22-1.3.5-1.2,1.49.33,3.23-.89,6-2.56,8.68-1.14,2-3.21,2.85-4.81,4.27-2.46.32-4.88,1.12-7.41.8-.68-.09-1.6.12-1.74-1s.67-1.26,1.32-1.57c2.4-1.13,4.93-2,7.22-3.37,4.43-2.57,5.34-4.93,4.08-9.9-.29-1.16.19-1.66,1-2.2,2-1.31,4.07-2.6,6-4,4.43-3.3,5.18-6.44,2.94-11.52a38.73,38.73,0,0,0-4.77-7.28c-1.25-1.68-1.1-2.9.46-4.23,2-1.68,3.81-3.47,5.65-5.28,1.61-1.58,2.1-3.36.6-5.32-1-1.27-.92-2.15.53-3.21a38.55,38.55,0,0,0,5.13-4.73c7.07-7.5,6.88-15-.47-22.33-1.36-1.35-2.7-2.71-4.11-4-1.16-1.06-1-1.92.16-2.83,2.09-1.65,4.18-3.3,6.21-5a25.17,25.17,0,0,0,3-3c5.72-6.79,4-12.93-4.3-16.08a28.71,28.71,0,0,1-3.84-1.77c-2.26-1.26-2.31-2-.36-3.63,1.42-1.16,2.9-2.24,4.27-3.46a12.65,12.65,0,0,0,4.47-8.11,7.21,7.21,0,0,0-7.72-8.41c-.76,0-1.62.14-2.08-.54s.33-1.32.7-1.89c1-1.61,2.2-3.14,3.15-4.79,1.95-3.38.09-6.72-3.85-7a1.44,1.44,0,0,1-1.41-.76c-.32-.71.12-1.25.63-1.73,1.5-1.39,3.43-2,5.22-2.86,7.42-3.49,8.76-8.35,4.19-15.24-2.25-3.4-5.48-5.79-8.54-8.33-1.63-1.35-1.68-2.37-.07-3.7a40.49,40.49,0,0,0,3.61-3.45c3-3.18,3.42-6,1.14-9.71-1.87-3-4.08-5.86-6.15-8.78-.91-1.28-2-2.22.7-3.1a21.62,21.62,0,0,0,6.74-3.7c3.43-2.76,4.42-5.72,3.17-9.92a22.48,22.48,0,0,0-6.49-9.9c-1.51-1.43-3-2.87-4.57-4.25s-1.33-2.68.15-3.94l1-.81c3.41-2.89,3.16-4.59-1-6.42-1.37-.61-2.81-1-4.14-1.71-2.49-1.23-2.6-2.06-.57-4,.95-.93,2-1.71,3.07-2.56,4.59-3.77,4.58-8.69,0-12.46-2.74-2.26-6.07-3.41-9.23-4.88-2.79-1.29-2.95-1.79-1.53-4.55.61-1.18,1.34-2.3,1.88-3.51,1.72-3.87.28-7.25-1.65-10.6-.58-1-1.27-.25-2-.42a58.93,58.93,0,0,0,2.25-5.5c1.14-3.79.15-5.11-3.78-5.48a7.22,7.22,0,0,1-1.08-.31C341.16,199.83,343,200.15,345.05,201.09Z" transform="translate(-329.03 -200.39)"/><path class="a91aad1e-e9ea-43f4-b568-cc152664676a" d="M373.72,398.07c-2.35-3.32-4.51-6.84-9-8.36A15.09,15.09,0,0,0,370.91,378c.33-5.21-2.38-8.62-6.07-11.62,3.33-2.72,2.29-8.65-1.44-12.16A18.63,18.63,0,0,0,370,349a11.43,11.43,0,0,0,2.35-9.61c-1.37-6.27-4-11.81-9.6-15.68,3-3.31,5.58-6.87,4.9-11.7-.64-4.56-3.34-8-6.33-11.34,7.25-2.86,10.5-8.58,9.53-16.42a33.5,33.5,0,0,0-3.79-12c-.92-1.69-2-3.45-3.82-4.17-2-.82-2-1.68-1.12-3.42,1.75-3.55,1-6.63-2.28-9-1.81-1.28-2.25-1.92-.66-3.95,4.1-5.24,2.41-14-3.22-18.55a22.28,22.28,0,0,0-7-3.69c-1.06-.35-1.35-.68-1-1.93a45.42,45.42,0,0,0,1.57-7c.49-3.23-1-5.83-3.12-8.08-.94-1-1.27-1.74-.2-2.86s.71-3,.87-4.53l155.75,0h28a16.62,16.62,0,0,1,4.22.36,4.6,4.6,0,0,1,3.63,4,19.7,19.7,0,0,1,.16,3.24q0,88.75,0,177.5c0,.92-.06,1.83-.09,2.75-2,.38-4.1.69-6.13,1.15-6.36,1.46-12.87,3-17.47,7.88-2.69,2.86-5.85,4.63-9,6.63-1.27.81-1.74.52-2.4-.68a35.11,35.11,0,0,0-13.13-13.36c-.07-1-.2-2-.2-3,0-6.91-.06-13.83,0-20.74a2.31,2.31,0,0,0-2-2.61c-3.6-1.1-6.68.38-9.84,1.67a2.36,2.36,0,0,0-1.56,2.95,37.26,37.26,0,0,1,.6,9.45c-.17,1.46-.59,2.93-2.19,3.27s-3.18,0-3.91-1.5c-2.63-5.53-7.66-7-13-8-9.34-1.86-18.73-.78-28.1-.49a20.62,20.62,0,0,0-13.22,5.21,77.21,77.21,0,0,0-18,22.19c-2.38,4.57-4.34,9.35-6.6,14a21,21,0,0,1-4.35,6.06c0-4.29,0-7.87,0-11.44q0-13.24-.11-26.49c0-.71.53-1.84-.85-1.93-4.11-.27-8.14-.07-11.86,2-.83.47-.8,1.13-.81,1.89,0,3.66-.11,7.33-.17,11Zm40.72-103c4.6,0,6.46-3.11,4.42-7.22-.49-1-1.83-2.2-1-3.07,2.23-2.39,1-4.64.23-7-1.31-3.9-3.59-4.79-7.31-2.94-1.45.72-2.85,1.81-4.09-.44-.41-.74-1.55-.89-2.5-.91-4.48-.08-8.87,5.52-7.6,9.77.66,2.2,2.51,4.19.94,6.73-.15.24.09.82.28,1.17.9,1.71,6.91,4.39,8.15,3.15,2.37-2.36,3.94-.39,5.8.28A7.08,7.08,0,0,0,414.45,295.06Zm35-.79a8.42,8.42,0,0,0-7.28,4.48c-1.48,2.65-.85,4.88,1.11,7a30.56,30.56,0,0,0,4.5,3.93c4.5,3.3,6.93,2.4,7.91-3,.17-.94.32-1.42,1.47-1.48,2.73-.16,3.92-1.43,4.26-4.15.27-2.16-1.25-5-3.32-5.23C455,295.46,451.76,296.21,449.41,294.28Zm7.23,59.14c-2.12-1.67-3.21-.62-4,1.1a13.29,13.29,0,0,0-.91,2.3c-.6,2.26.6,4.16,2.9,4.14a15.81,15.81,0,0,1,6,1.24c1.77.7,2.58.07,3.19-1.54.24-.63-.11-1.85,1.22-1.8,1.79.07,2.14-1.3,2.46-2.59s-.67-2.27-1.71-2.69c-1.54-.63-1.46-1.46-1.15-2.86.61-2.79-1.26-4.29-3.95-3.41C457.79,348.25,456.85,349.59,456.65,353.42Z" transform="translate(-329.03 -200.39)"/><path class="4eb67f2c-097b-4822-9134-7c653db8df26" d="M490.58,394.54a35.11,35.11,0,0,1,13.13,13.36c.66,1.2,1.13,1.49,2.4.68,3.15-2,6.32-3.78,9-6.63,4.6-4.89,11.11-6.43,17.47-7.88,2-.46,4.08-.77,6.13-1.15a3.22,3.22,0,0,1,.16,2.59l-.2.16c-1.8.2-4.31-1-4.58,2.26-.69,1.14-.29,2.42-.44,3.63l-1.58,10.31c-.65,1-.44,2.11-.43,3.2l-.43,1-.27,2.45-3.34,17.9c-.49,2.9-1.6,5.68-1.53,8.68a9.47,9.47,0,0,0-1,3.55c-.91,4.79-1.85,9.58-2.74,14.38s-2.88,9.42-4.67,14a2,2,0,0,0-.12.46c-3.44,4.76-6,10.11-9.91,14.55l-2.19,2a11.31,11.31,0,0,0-2.86,2.38l-.57.61v-.07A2.59,2.59,0,0,0,500,498l-.48.42a70.31,70.31,0,0,0-10.84,8,11,11,0,0,1-4.09-.07c2.53-1.75,5.08-3.45,7.58-5.24,9.9-7.14,18.69-15.28,23.76-26.72,3.5-7.9,5.18-16.25,6.53-24.74,2.8-17.6,5.91-35.16,9.89-52.81-5.9,1.84-11.51,4.15-16.1,8.44a8.77,8.77,0,0,0-2.71,4.7c-1.57,8.07-4.27,15.94-4.81,24.18a114.1,114.1,0,0,1-7.43,32.43c-3.78,10.17-9.3,18.85-18,25.44-6.1,4.61-12.06,9.42-18.09,14.14a13.79,13.79,0,0,1-6.12.2c2.45-4.12,7.06-5.5,10.86-8.4a8.92,8.92,0,0,0-1.17-.36c-19.78-2.48-39.38-6-59-9.43-6.78-1.18-13.6-2.13-20.4-3.18.51-1,1.45-.57,2.19-.58,2.72-.06,5.44,0,8.16,0l.5,0a382.82,382.82,0,0,1,40.41,5.26c-.18-1-.73-1.08-1.13-1.32-7.75-4.75-16.39-8.16-22.55-15.26a1.24,1.24,0,0,0-1.54-.37c-9,3.35-18.17,6.28-27,10.15-.73.32-1.39.64-1.05,1.63a27.69,27.69,0,0,0-.22,9.33,62.33,62.33,0,0,1,.94,12.31,2.11,2.11,0,0,1-2.72-.14c-.08-5.91.14-11.85-.38-17.73-.27-3,.61-5,2.85-6.6A39.1,39.1,0,0,1,392,479c6.1-3.31,12.66-5.47,19.24-7.56,2.81-.89,3-1.08.94-3.05-4.26-4.19-7-9.29-9.21-14.71a21.18,21.18,0,0,0-9.06-10.32c-3.64-2.15-4.77-5.53-3.12-9.12,1.38-3,4.33-4,8.33-2.63a2.46,2.46,0,0,0,3-.77,50.15,50.15,0,0,1,5.61-5.32c6.26-4.7,13.23-8.28,20.06-12.06a8.73,8.73,0,0,0,3.92-3.95,39.74,39.74,0,0,1,9.94-13c8.54-7.25,18.49-9.84,29.49-9,1,.73,2-.38,3-.05,1.85.3,3.39,1.71,5.39,1.45l1.53.07c2.22,1.81,5,2.5,7.46,3.94ZM430.85,431c0,6.94.62,12.36,2.56,17.43C438.11,460.7,446.71,468.8,460,471c10.68,1.79,20.16-1.68,28.89-7.68a3.67,3.67,0,0,0,1.86-3.89,96.89,96.89,0,0,1-.09-22.92c1.12-8.74,3.62-16.92,9.9-23.47,1-1,.49-1.77,0-2.65-3-5.66-7.64-9.75-13-13.18-11.51-7.38-31-8.64-43.51,2.73C434.4,408.71,431.07,419.92,430.85,431Zm-1.39-16.32c-2.57,1.39-4.67,2.51-6.76,3.66-7.28,4-13.07,10-19.45,15.15-1.63,1.32-2.84,1.84-4.78.64a3.8,3.8,0,0,0-4.87.33,4.91,4.91,0,0,0-1,5.56c.64,1.64,2.17,2,3.57,2.42a10.35,10.35,0,0,1,6.89,6.68c6.29,16.64,18.3,27.58,34.39,34.41a8.69,8.69,0,0,1,4.11,3.07,17.14,17.14,0,0,0,1.77,2.1,2,2,0,0,0,2.32.4c.79-.31.59-1.18.47-1.76-.65-3.1,0-6.7-3.16-8.9a3.93,3.93,0,0,1-.62-.78c-.92-1.1-1.26-2.29.06-3.23s2.31-.25,3.19.86c1,1.3,2.21,2.49,3.23,3.8.86,1.1,1.67.9,2.43,0,1.34-1.54,2.61-3.14,4-4.8a38.57,38.57,0,0,1-18.47-12.12c-9.81-11.9-11.18-25.71-8.92-40.3C428.23,419.63,428.85,417.42,429.46,414.64Zm80.61-3.89a27.39,27.39,0,0,0-12.91,15.51c-3.83,10.68-3.63,21.7-2.59,32.79.13,1.43.52,2.31,2,2s3.64,1.53,4.35-1.57C504.61,443.52,507,427.34,510.07,410.75ZM447.55,491c8.85,1.31,17.48,2.56,26.09,3.89a3.31,3.31,0,0,0,2.69-.94c3.32-2.5,6.67-5,10-7.5,6.67-5.13,10.12-12.35,12.82-20,.14-.41.39-.92-.25-1.28-1.44-.79-5.43.1-6.43,1.48-5,6.89-10.4,13.43-17.54,18.25-5.11,3.45-10.64,5.43-16.95,4.23-3.49-.67-6.43-2.48-9.46-4.75C448.31,486.72,449.27,488.95,447.55,491Zm3.8-9.72c5.37,4.26,11,5.32,17.17,2.55,5.95-2.69,10.45-7.18,14.77-12.1-1.12-.31-1.76.35-2.5.64A40.61,40.61,0,0,1,462,475.28a7.55,7.55,0,0,0-5.58,1.45C454.65,478.06,453.09,479.68,451.35,481.25Z" transform="translate(-329.03 -200.39)"/><path class="0a1c3263-6c71-44c1-af07-bb8221d98a8a" d="M471.16,387.56c-11-.83-21,1.76-29.49,9a39.74,39.74,0,0,0-9.94,13,8.73,8.73,0,0,1-3.92,3.95c-6.83,3.78-13.8,7.36-20.06,12.06a50.15,50.15,0,0,0-5.61,5.32,2.46,2.46,0,0,1-3,.77c-4-1.41-6.95-.38-8.33,2.63-1.65,3.59-.52,7,3.12,9.12A21.18,21.18,0,0,1,403,453.72c2.25,5.41,5,10.52,9.21,14.71,2,2,1.87,2.16-.94,3.05-6.58,2.09-13.14,4.25-19.24,7.56a39.1,39.1,0,0,0-4.21,2.65c-2.24,1.61-3.12,3.55-2.85,6.6.52,5.87.29,11.81.38,17.73l-4,.06c-.37-1.68.32-3.29.33-5q0-55.23,0-110.45c0-2.54.65-3.68,3.12-4.36,1.8-.49,2.12-.27,2,1.48-.38,6.47-.8,12.93-1,19.41-.18,7.24-.11,14.49-.11,21.74,0,1.28-.52,2.88.92,3.65s2.42-.65,3.61-1.12a5.07,5.07,0,0,0,1-.72,31.3,31.3,0,0,0,9.63-11.56c4.75-9.43,9.35-18.94,16.24-27.12a43.59,43.59,0,0,1,22.4-14.14c2.86-.79,5.63.3,8.41,0C457.44,376.82,465,380.5,471.16,387.56Z" transform="translate(-329.03 -200.39)"/><path class="f64cfb34-1561-4c37-90f5-9b292cfcb2e7" d="M465.14,506.17c6-4.72,12-9.52,18.09-14.14,8.72-6.59,14.24-15.27,18-25.44a114.1,114.1,0,0,0,7.43-32.43c.54-8.24,3.24-16.11,4.81-24.18a8.77,8.77,0,0,1,2.71-4.7c4.59-4.29,10.21-6.6,16.1-8.44-4,17.65-7.08,35.21-9.89,52.81-1.35,8.49-3,16.85-6.53,24.74C510.83,485.83,502,494,492.14,501.12c-2.49,1.8-5,3.5-7.58,5.24C478.09,506.39,471.61,506.75,465.14,506.17Z" transform="translate(-329.03 -200.39)"/><path class="a91aad1e-e9ea-43f4-b568-cc152664676a" d="M346.54,506.2c1.66-2.65,2.89-5.45,2.56-8.68-.1-1,.36-1.27,1.2-1.49,6.6-1.73,10.88-9,8.54-17-1-3.36-2-6.71-4.18-9.52-.71-.91-.49-1.36.22-2a53.25,53.25,0,0,0,4.35-4.46c1.74-2.1,3.08-4.44,1.83-7.31-.35-.81.1-1,.6-1.34.7-.45,1.4-.91,2.06-1.4a19,19,0,0,0,3.91-26.37c-1.38-1.87-2.71-3.79-4.15-5.62-.78-1-.69-1.61.28-2.42,1.59-1.33,3-2.88,4.58-4.24,3.64-3.14,5.9-6.93,5.88-11.87l.18,0,.18,0c0,.5.1,1,.1,1.49q.17,34.82.34,69.63c.06,10.65.16,21.3.24,31.95l-.16.84q-13.69,0-27.37,0A5.9,5.9,0,0,1,346.54,506.2Z" transform="translate(-329.03 -200.39)"/><path class="7718cb97-90cb-4924-aaea-6603fec9e38a" d="M375.25,505.56c-.08-10.65-.18-21.3-.24-31.95q-.18-34.82-.34-69.63c0-.5-.06-1-.1-1.49l-.1-4.45c.06-3.66.13-7.33.17-11,0-.76,0-1.41.81-1.89,3.72-2.11,7.75-2.31,11.86-2,1.37.09.84,1.22.85,1.93q.09,13.24.11,26.49c0,3.57,0,7.15,0,11.44a21,21,0,0,0,4.35-6.06c2.26-4.63,4.23-9.41,6.6-14a77.21,77.21,0,0,1,18-22.19,20.62,20.62,0,0,1,13.22-5.21c9.37-.29,18.76-1.37,28.1.49,5.36,1.07,10.39,2.5,13,8,.73,1.54,2.41,1.82,3.91,1.5s2-1.81,2.19-3.27a37.26,37.26,0,0,0-.6-9.45,2.36,2.36,0,0,1,1.56-2.95c3.16-1.29,6.24-2.77,9.84-1.67a2.31,2.31,0,0,1,2,2.61c-.07,6.91,0,13.83,0,20.74,0,1,.13,2,.2,3l-2-1.56q0-9.12.06-18.25c0-4.19,0-4.16-3.8-2.41a1.85,1.85,0,0,0-1.22,2.1c.07,2.5.08,5,0,7.5a11,11,0,0,1-2.51,7.12l-1.53-.07a8.88,8.88,0,0,0,1.63-5.62,53.56,53.56,0,0,1,.15-8.72c.24-1.58-1.08-1.52-1.94-1.66-1.43-.23-.73,1-.76,1.55a15.82,15.82,0,0,0,.32,4c1,4.94-.46,7.57-4.8,9-1-.33-2,.78-3,.05-6.18-7.06-13.72-10.75-23.3-9.65-2.78.32-5.56-.77-8.41,0A43.59,43.59,0,0,0,417,392.08c-6.89,8.18-11.49,17.69-16.24,27.12a31.3,31.3,0,0,1-9.63,11.56,5.07,5.07,0,0,1-1,.72c-1.19.46-2.23,1.85-3.61,1.12s-.92-2.37-.92-3.65c0-7.25-.07-14.5.11-21.74.16-6.47.59-12.94,1-19.41.1-1.75-.22-2-2-1.48-2.47.68-3.12,1.82-3.12,4.36q.11,55.23,0,110.45c0,1.66-.7,3.27-.33,5h-1.16c0-8.57-.22-17.13-.3-25.69-.29-30.3,0-60.61-.63-90.9,0-.25,0-.5,0-.75-.07-.69.23-1.71-1-1.59a1.44,1.44,0,0,0-1.42,1.89,12.46,12.46,0,0,1,.35,2.45c-.21,17.73.15,35.45-.32,53.18-.53,19.63.09,39.29-.64,58.92a2.11,2.11,0,0,0,1.57,2.45c-.6.67-1.36.44-2.1.36Zm13-76.27c3.51-1,5.63-3.38,7.56-6,5.1-6.94,8-15.05,12.19-22.51,4.86-8.73,11.29-15.72,20.24-20.3.56-.29,1.46-.33,1.56-1.48-3.32.56-6.53,1.17-9.25,3-8.78,5.84-15.54,13.42-19.42,23.37-2.57,6.6-5.49,13.05-10.7,18.06C388.66,425.09,388.37,427,388.23,429.29Zm91-58.23c2.59,2,4.58.49,6.6-.53.46-.23,1.3-.3,1.11-1.06s-1-.68-1.48-.55C483.41,369.49,481.27,369.8,479.21,371.06Z" transform="translate(-329.03 -200.39)"/><path class="03e8ee67-7bcb-48ad-8c31-5d34df5cbdef" d="M388,506.16a62.33,62.33,0,0,0-.94-12.31,27.69,27.69,0,0,1,.22-9.33,2.88,2.88,0,0,1,2,.48c6.8,1.05,13.62,2,20.4,3.18,19.62,3.43,39.23,6.95,59,9.43a8.92,8.92,0,0,1,1.17.36c-3.8,2.9-8.42,4.28-10.86,8.4l-46.13.08q-11.1,0-22.19,0A4.72,4.72,0,0,1,388,506.16Z" transform="translate(-329.03 -200.39)"/><path class="142f0e50-f86b-4708-af0f-afdf3cb010b0" d="M502.62,496.37a11.3,11.3,0,0,1,2.86-2.38c3.92-.26,7.19,1.75,10.66,3.06a1.58,1.58,0,0,0,1.51,1l.53.38.13-.19-.65-.2c-.06-1-.76-1-1.49-1-1.47-2.73-4.25-3.23-6.87-4-.68-.19-1.54.07-1.62-1,3.91-4.44,6.47-9.79,9.91-14.55,4.95.09,9.4,1.81,13.69,4.1,1.46.78,2,2.72,3.88,3h0a3.59,3.59,0,0,1-.5,2h0a1.08,1.08,0,0,0-1,.51h0a.93.93,0,0,0-1,1h0a1,1,0,0,0-1,.51h0a2.59,2.59,0,0,0-1.52.75,30.72,30.72,0,0,0-8,9.05c-.58.93-1.09,1.92-2.45,1.69l-.2-.65-.19.13.38.54a4.05,4.05,0,0,1,.5,2.49l-.2.21.21-.2c2.57,0,2.83,2.33,3.87,3.87-6.06.06-12.12.16-18.18.17-5.73,0-11.46-.1-17.19-.15a70.26,70.26,0,0,1,10.84-8l.15.15V500c-.42.24-.88.47-.78,1.07a.41.41,0,0,0,.35.19c.6-.24.38-.8.44-1.25,1,0,1-.77,1-1.51h0c1-.07,1.53-.57,1.4-1.63V497Zm-4.71,6,0,.37c0-.06.13-.11.13-.18S498,502.42,497.92,502.35Z" transform="translate(-329.03 -200.39)"/><path class="d007cb91-6861-4467-938b-33627c65d8ba" d="M377.71,506.06a2.11,2.11,0,0,1-1.57-2.45c.73-19.64.11-39.29.64-58.92.48-17.73.11-35.46.32-53.18a12.46,12.46,0,0,0-.35-2.45,1.44,1.44,0,0,1,1.42-1.89c1.21-.12.91.9,1,1.59,0,.25,0,.5,0,.75.67,30.3.35,60.6.63,90.9.08,8.56.26,17.13.3,25.69Z" transform="translate(-329.03 -200.39)"/><path class="142f0e50-f86b-4708-af0f-afdf3cb010b0" d="M538.68,502.11c-.73,3-2,4.33-4.81,4.43s-5.8,0-8.7-.09a45.24,45.24,0,0,0-2.56-3.92,2.07,2.07,0,0,1,0-3,73.09,73.09,0,0,1,7.38-8.63c.7-.65,1.64-1.19,1.64-2.36h0a1,1,0,0,0,1-.51h0a.93.93,0,0,0,1-1h0a1.06,1.06,0,0,0,1-.51h0l2.51.5h0l.51.51h0l.51.51h0a14,14,0,0,1,.53,3.65C538.62,495.16,538.67,498.63,538.68,502.11Z" transform="translate(-329.03 -200.39)"/><path class="eecaa423-e7a7-4c2b-9101-5f07858b0b7d" d="M538.68,502.11c0-3.47-.06-6.95,0-10.42a14,14,0,0,0-.53-3.65c.17-.36.48-.72.48-1.09,0-6.81,0-13.62,0-20.43,0-1.51-.91-2-2.07-2.4-2.65-.81-5.32-1.57-8.23-2.42,3.13-.57,5.86.24,8.57.91,1.43.36,1.74,0,1.72-1.35,0-3.82-.1-7.64,0-11.46a6,6,0,0,0-1.54-4.76c1,0,1.55-.32,1.52-1.44-.05-2,0-4,0-6,0-.46.18-1.08-.41-1.31s-.84.37-1.24.62c-1.69,1-3.08,2.5-4.93,3.27l-.6-.44a12.24,12.24,0,0,1,5-3.55c1.81-.84,2.5-2,2.24-3.85a16.76,16.76,0,0,1,0-2.23c0-8.21,0-8.21-7.72-11.62l.27-2.45c.51,1.29,5.34,4.49,6.59,4.39.65,0,.84-.45.84-1,0-2.84,0-5.68,0-9l-7,4.64c0-1.09-.21-2.2.43-3.19.37.29-.48,2,1.06.93a7,7,0,0,0,1.58-1.17c1.17-1.45,3.67-1.83,3.86-3.95.26-2.89.06-5.83.06-8.86a11.91,11.91,0,0,0-5,2.75c.16-1.21-.25-2.49.44-3.63.24.5-.16,1.78.86,1.33,1.6-.71,4-.87,3.72-3.59l.2-.16c0,8.3.11,16.6.14,24.9,0,5.23,0,10.46,0,15.69q0,26.05,0,52.1c0,3.74.07,7.48.07,11.22A4.63,4.63,0,0,1,538.68,502.11Z" transform="translate(-329.03 -200.39)"/><path class="eecaa423-e7a7-4c2b-9101-5f07858b0b7d" d="M531.65,488.53c0,1.16-.95,1.7-1.64,2.36a73.09,73.09,0,0,0-7.38,8.63,2.07,2.07,0,0,0,0,3,45.24,45.24,0,0,1,2.56,3.92l-1.14,0c-1-1.54-1.3-3.86-3.87-3.87h0a4.05,4.05,0,0,0-.5-2.49h0c1.36.22,1.88-.77,2.45-1.69a30.72,30.72,0,0,1,8-9.05A2.59,2.59,0,0,1,531.65,488.53Z" transform="translate(-329.03 -200.39)"/><path class="d007cb91-6861-4467-938b-33627c65d8ba" d="M375.25,505.56l.36.86-.52,0Z" transform="translate(-329.03 -200.39)"/><path class="5c837ce8-009a-4974-86e3-81319bf4cfdb" d="M374.49,398l.1,4.45-.18,0-.18,0c-.2-1.47.23-3-.49-4.43Z" transform="translate(-329.03 -200.39)"/><path class="4eb67f2c-097b-4822-9134-7c653db8df26" d="M414.45,295.06a7,7,0,0,1-2.68-.43c-1.86-.67-3.44-2.64-5.8-.28-1.24,1.24-7.25-1.45-8.15-3.15-.19-.35-.43-.92-.28-1.17,1.56-2.53-.28-4.53-.94-6.73-1.28-4.25,3.12-9.85,7.6-9.77.95,0,2.09.17,2.5.91,1.24,2.26,2.64,1.17,4.09.44,3.71-1.85,6-1,7.31,2.94.78,2.31,2,4.57-.23,7-.82.88.52,2.09,1,3.07C420.91,292,419,295,414.45,295.06Zm-7.77-15.4c-.2-.4-.39-.61-.39-.82,0-1.55-.44-2.77-2.06-3.27s-2.66.45-3.55,1.62c-.45.59-1,1.15-1.37,1.78-1.74,2.72-.42,5.29,2.77,5.48.86,0,2.12-.44,2.4.69s-.7,1.93-1.7,2.46-2.51.95-2.29,2.26c.18,1.06,1.72,1,2.71,1.31a9.49,9.49,0,0,0,1.2.32,1.15,1.15,0,0,0,1.46-1.26c-.05-1.09-.46-2.28,1-2.63,1.3-.31,1.9.82,2.53,1.67a5.94,5.94,0,0,0,4.76,2.76c1.18,0,2.43,0,3-1.2s-.47-2.11-1.29-2.89c-.42-.4-.92-.72-1.35-1.1-2.1-1.86-2-2.65.4-3.94,1-.53,1.86-1,1.75-2.4a2.68,2.68,0,0,0-2.13-2.45A7.84,7.84,0,0,0,406.68,279.67Z" transform="translate(-329.03 -200.39)"/><path class="4eb67f2c-097b-4822-9134-7c653db8df26" d="M449.41,294.28c2.35,1.93,5.57,1.19,8.65,1.56,2.08.25,3.6,3.08,3.32,5.23-.35,2.73-1.53,4-4.26,4.15-1.15.07-1.3.55-1.47,1.48-1,5.4-3.41,6.3-7.91,3a30.56,30.56,0,0,1-4.5-3.93c-2-2.14-2.6-4.37-1.11-7A8.42,8.42,0,0,1,449.41,294.28Zm4.26,11.83c-.12-.77-.29-1.59-.38-2.41-.18-1.67.47-2.4,2.18-1.83.47.16.9.43,1.37.59a1.45,1.45,0,0,0,1.94-.59,2.27,2.27,0,0,0,.3-2.13c-.39-.87-1.23-.77-2-.61a25.75,25.75,0,0,0-3.1.89,1.8,1.8,0,0,1-2.47-.88c-1.16-1.95-2.84-3.22-5.17-2.4s-2.72,3.15-3.13,5.28a1.36,1.36,0,0,0,1,1.77c.78.14,1.61,1.21,2.42.1.35-.47.59-1.11,1.31-.87s.65,1.06.72,1.69.17,1.32.22,2c.14,2,1.38,2.52,3.09,2.34S453.42,307.32,453.68,306.11Z" transform="translate(-329.03 -200.39)"/><path class="7718cb97-90cb-4924-aaea-6603fec9e38a" d="M456.65,353.42c.2-3.83,1.15-5.17,4-6.12,2.69-.89,4.56.62,3.95,3.41-.31,1.4-.39,2.23,1.15,2.86,1,.43,2.06,1.27,1.71,2.69s-.67,2.66-2.46,2.59c-1.34,0-1,1.16-1.22,1.8-.61,1.62-1.41,2.25-3.19,1.54a15.81,15.81,0,0,0-6-1.24c-2.31,0-3.51-1.88-2.9-4.14a13.29,13.29,0,0,1,.91-2.3C453.43,352.8,454.53,351.75,456.65,353.42Zm6.1-2.35a1.41,1.41,0,0,0-1.06-1.49c-1.82-.62-3.11.35-3.2,2.59-.07,1.68-.13,3.12-2.47,2.26a1.39,1.39,0,0,0-2,.91c-.3,1-1.27,1.91-.4,3,.66.83,1.91,1.52,2.6,1,1.44-1,1.59-.38,2.3.76a2.72,2.72,0,0,0,3.2.74c1.18-.53.37-1.54,0-2.35-.67-1.65.51-1.48,1.52-1.58.76-.08,2.05.44,2.14-.61.12-1.31-1.26-1.26-2.23-1.39-.33,0-.67,0-1-.08-1.31-.3-1.85-.87-.58-1.94A2.65,2.65,0,0,0,462.75,351.07Z" transform="translate(-329.03 -200.39)"/><path class="904308f6-0f05-42a0-bbfd-fce9cfdecb39" d="M430.85,431c.21-11,3.54-22.24,13.2-31,12.55-11.37,32-10.11,43.51-2.73,5.34,3.43,9.94,7.52,13,13.18.47.88,1,1.63,0,2.65-6.28,6.55-8.78,14.73-9.9,23.47a96.89,96.89,0,0,0,.09,22.92,3.67,3.67,0,0,1-1.86,3.89c-8.73,6-18.21,9.47-28.89,7.68-13.25-2.22-21.85-10.32-26.55-22.63C431.48,443.31,430.86,437.9,430.85,431Zm24.77-.45c3.76-2.22,5-5.8,5.48-10.39-1.67,1.93-1.74,4.21-3.43,5.46-.56-.61.52-1.55-.53-2.28-.43.91-.79,1.74-1.21,2.52-.51.94-.16,1.44.75,1.74.07,1.14-1.3,1.79-1,3a.78.78,0,0,0-.19.08s0,.09,0,.14Zm7.24-1.46c3,1.32,3.1,3.46,2.5,5.71-.42,1.58-1.28,3-1.85,4.6-.3.82-1.16,1.53-.68,2.92a12.7,12.7,0,0,0,3.51-8.53c0-2.07-.77-4.25.92-6.1a.69.69,0,0,0-.44-1.15C465.74,427.47,465.84,430.11,462.87,429Zm-20.26-9.17a15.16,15.16,0,0,0,2.76.57,12.77,12.77,0,0,0,8-2.84c.53-.39.92-1,.34-1.72-.36-.43-.78-.27-1.06.06C450,419,446.61,420.05,442.61,419.88Zm6,36.63c3.68-1.69,5.77-9.65,3-12C452.77,449.15,450.4,452.66,448.56,456.51Zm-11-16.18c.56,2.86-.35,5.41-1.09,8C439,446,438.74,443.25,437.57,440.33Zm13.36,4.34a5.53,5.53,0,0,0-.87,4.91C451.26,447.48,451.35,447,450.93,444.67Z" transform="translate(-329.03 -200.39)"/><path class="5c837ce8-009a-4974-86e3-81319bf4cfdb" d="M429.46,414.64c-.61,2.78-1.23,5-1.58,7.24-2.27,14.58-.89,28.39,8.92,40.3a38.57,38.57,0,0,0,18.47,12.12c-1.37,1.66-2.64,3.26-4,4.8-.76.87-1.57,1.07-2.43,0-1-1.31-2.19-2.5-3.23-3.8-.88-1.11-1.92-1.76-3.19-.86s-1,2.13-.06,3.23a3.93,3.93,0,0,0,.62.78c3.21,2.2,2.52,5.8,3.16,8.9.12.58.32,1.45-.47,1.76a2,2,0,0,1-2.32-.4,17.14,17.14,0,0,1-1.77-2.1,8.69,8.69,0,0,0-4.11-3.07c-16.09-6.83-28.1-17.77-34.39-34.41a10.35,10.35,0,0,0-6.89-6.68c-1.4-.43-2.94-.78-3.57-2.42a4.91,4.91,0,0,1,1-5.56,3.8,3.8,0,0,1,4.87-.33c1.94,1.19,3.15.68,4.78-.64,6.38-5.18,12.17-11.13,19.45-15.15C424.79,417.15,426.89,416,429.46,414.64Zm-27.93,25.05a6.3,6.3,0,0,0-.06,1,4.17,4.17,0,0,0,.24,1c5.73,12.83,11.95,25.26,24.56,33,3.73,2.31,7.11,5.21,11.26,6.81,1,.37,2.25.93,3,0s-.44-1.77-.9-2.57c-7.27-12.64-17.52-22.73-28-32.6A29.77,29.77,0,0,0,401.53,439.69Z" transform="translate(-329.03 -200.39)"/><path class="142f0e50-f86b-4708-af0f-afdf3cb010b0" d="M537.15,445a6,6,0,0,1,1.54,4.76c-.13,3.82-.07,7.64,0,11.46,0,1.33-.29,1.71-1.72,1.35-2.71-.67-5.44-1.48-8.57-.91,2.9.85,5.57,1.61,8.23,2.42,1.16.35,2.08.89,2.07,2.4,0,6.81,0,13.62,0,20.43,0,.36-.31.72-.48,1.09h0l-.51-.51h0l-.51-.51h0a2.78,2.78,0,0,0-2-2.51h0c-.87-2.19-2.63-3.55-4.52-4.74-4-2.5-8.4-2.88-12.93-2.77,1.78-4.6,3.76-9.13,4.67-14s1.83-9.58,2.74-14.38a9.47,9.47,0,0,1,1-3.55l4.16-3.19.14.1c2.53.4,4.57,1.92,6.77,3Z" transform="translate(-329.03 -200.39)"/><path class="5be204f4-2907-4f3a-80ac-5468ad3dd745" d="M510.07,410.75c-3.07,16.59-5.46,32.77-9.11,48.73-.71,3.1-2.85,1.26-4.35,1.57s-1.9-.57-2-2c-1-11.09-1.24-22.11,2.59-32.79A27.39,27.39,0,0,1,510.07,410.75Z" transform="translate(-329.03 -200.39)"/><path class="3f4289e1-8771-4566-a189-f5b9f1efa011" d="M447.55,491c1.72-2,.76-4.25.94-6.65,3,2.27,6,4.08,9.46,4.75,6.3,1.2,11.83-.78,16.95-4.23,7.14-4.82,12.53-11.37,17.54-18.25,1-1.38,5-2.27,6.43-1.48.65.36.4.87.25,1.28-2.71,7.68-6.15,14.9-12.82,20-3.29,2.54-6.64,5-10,7.5a3.31,3.31,0,0,1-2.69.94C465,493.53,456.4,492.28,447.55,491Z" transform="translate(-329.03 -200.39)"/><path class="3f4289e1-8771-4566-a189-f5b9f1efa011" d="M389.3,485a2.88,2.88,0,0,0-2-.48c-.34-1,.32-1.31,1.05-1.63,8.81-3.87,18-6.81,27-10.15a1.24,1.24,0,0,1,1.54.37c6.15,7.1,14.8,10.51,22.55,15.26.4.25,1,.33,1.13,1.32a382.82,382.82,0,0,0-40.41-5.26c-.15-.24-.31-.28-.5,0-2.72,0-5.44,0-8.16,0C390.75,484.44,389.81,484,389.3,485Z" transform="translate(-329.03 -200.39)"/><path class="3f4289e1-8771-4566-a189-f5b9f1efa011" d="M451.35,481.25c1.74-1.57,3.3-3.19,5.07-4.52a7.55,7.55,0,0,1,5.58-1.45,40.61,40.61,0,0,0,18.79-2.94c.74-.28,1.38-.95,2.5-.64-4.32,4.92-8.82,9.41-14.77,12.1C462.39,486.57,456.73,485.51,451.35,481.25Z" transform="translate(-329.03 -200.39)"/><path class="142f0e50-f86b-4708-af0f-afdf3cb010b0" d="M530.94,418.5c7.72,3.42,7.72,3.42,7.72,11.62a16.76,16.76,0,0,0,0,2.23c.26,1.9-.43,3-2.24,3.85a12.23,12.23,0,0,0-5,3.55l-1.1,0c-.75-1.27-3.11-1.23-2.75-3.4Z" transform="translate(-329.03 -200.39)"/><path class="0a1c3263-6c71-44c1-af07-bb8221d98a8a" d="M481.12,389a11,11,0,0,0,2.51-7.12c.07-2.5.06-5,0-7.5a1.85,1.85,0,0,1,1.22-2.1c3.78-1.75,3.81-1.78,3.8,2.41q0,9.12-.06,18.25C486.16,391.54,483.34,390.85,481.12,389Z" transform="translate(-329.03 -200.39)"/><path class="142f0e50-f86b-4708-af0f-afdf3cb010b0" d="M533.65,401.57a11.91,11.91,0,0,1,5-2.75c0,3,.19,6-.06,8.86-.19,2.12-2.68,2.49-3.86,3.95a7,7,0,0,1-1.58,1.17c-1.54,1-.68-.64-1.06-.93Z" transform="translate(-329.03 -200.39)"/><path class="142f0e50-f86b-4708-af0f-afdf3cb010b0" d="M531.64,415.07l7-4.64c0,3.36,0,6.19,0,9,0,.54-.2.94-.84,1-1.25.09-6.07-3.11-6.59-4.39Z" transform="translate(-329.03 -200.39)"/><path class="d007cb91-6861-4467-938b-33627c65d8ba" d="M474.2,387.51c4.34-1.47,5.8-4.1,4.8-9a15.82,15.82,0,0,1-.32-4c0-.54-.67-1.78.76-1.55.85.13,2.18.08,1.94,1.66a53.56,53.56,0,0,0-.15,8.72,8.88,8.88,0,0,1-1.63,5.62C477.59,389.22,476,387.81,474.2,387.51Z" transform="translate(-329.03 -200.39)"/><path class="eecaa423-e7a7-4c2b-9101-5f07858b0b7d" d="M517.69,477c4.53-.11,9,.26,12.93,2.77,1.89,1.19,3.66,2.55,4.52,4.74-1.86-.24-2.42-2.18-3.88-3-4.29-2.29-8.75-4-13.69-4.1A2,2,0,0,1,517.69,477Z" transform="translate(-329.03 -200.39)"/><path class="eecaa423-e7a7-4c2b-9101-5f07858b0b7d" d="M527.61,436.41c-.35,2.16,2,2.13,2.75,3.4-.43.68-2.06,1.28-.12,2.09l-4.17,3.19C526,442.09,527.12,439.31,527.61,436.41Z" transform="translate(-329.03 -200.39)"/><path class="eecaa423-e7a7-4c2b-9101-5f07858b0b7d" d="M516.14,497c-3.47-1.31-6.74-3.32-10.66-3.06l2.19-2c.08,1.09.94.83,1.62,1,2.62.73,5.4,1.23,6.87,4Z" transform="translate(-329.03 -200.39)"/><path class="142f0e50-f86b-4708-af0f-afdf3cb010b0" d="M538.68,395.67c.26,2.72-2.12,2.89-3.72,3.59-1,.45-.62-.83-.86-1.33C534.37,394.63,536.88,395.87,538.68,395.67Z" transform="translate(-329.03 -200.39)"/><path class="eecaa423-e7a7-4c2b-9101-5f07858b0b7d" d="M502.05,496.92c.13,1.05-.39,1.56-1.4,1.63L500,498A2.59,2.59,0,0,1,502.05,496.92Z" transform="translate(-329.03 -200.39)"/><path class="142f0e50-f86b-4708-af0f-afdf3cb010b0" d="M500,498l.67.57h-1l-.15-.15Z" transform="translate(-329.03 -200.39)"/><path class="eecaa423-e7a7-4c2b-9101-5f07858b0b7d" d="M502.62,496.37l-.57.61Z" transform="translate(-329.03 -200.39)"/><path class="03e8ee67-7bcb-48ad-8c31-5d34df5cbdef" d="M399.65,484.41c.18-.25.35-.21.5,0Z" transform="translate(-329.03 -200.39)"/><path class="d007cb91-6861-4467-938b-33627c65d8ba" d="M388.23,429.29c.14-2.29.43-4.19,2.19-5.89,5.21-5,8.13-11.46,10.7-18.06,3.88-10,10.64-17.53,19.42-23.37,2.71-1.8,5.92-2.42,9.25-3-.1,1.15-1,1.19-1.56,1.48-8.95,4.58-15.38,11.57-20.24,20.3-4.15,7.46-7.09,15.57-12.19,22.51C393.86,425.91,391.74,428.32,388.23,429.29Z" transform="translate(-329.03 -200.39)"/><path class="0a1c3263-6c71-44c1-af07-bb8221d98a8a" d="M479.21,371.06c2.07-1.25,4.2-1.57,6.23-2.14.49-.14,1.31-.13,1.48.55s-.65.83-1.11,1.06C483.79,371.55,481.8,373.1,479.21,371.06Z" transform="translate(-329.03 -200.39)"/><path class="eecaa423-e7a7-4c2b-9101-5f07858b0b7d" d="M535.15,484.53a2.78,2.78,0,0,1,2,2.51l-2.51-.5A3.59,3.59,0,0,0,535.15,484.53Z" transform="translate(-329.03 -200.39)"/><path class="eecaa423-e7a7-4c2b-9101-5f07858b0b7d" d="M499.65,498.54h1c0,.74,0,1.46-1,1.51h0Z" transform="translate(-329.03 -200.39)"/><path class="eecaa423-e7a7-4c2b-9101-5f07858b0b7d" d="M517.65,498a1.58,1.58,0,0,1-1.51-1l0,0c.73,0,1.44,0,1.49,1Z" transform="translate(-329.03 -200.39)"/><path class="eecaa423-e7a7-4c2b-9101-5f07858b0b7d" d="M499.65,500c-.06.45.16,1-.44,1.25a.41.41,0,0,1-.35-.19c-.1-.6.36-.83.78-1.07Z" transform="translate(-329.03 -200.39)"/><path class="eecaa423-e7a7-4c2b-9101-5f07858b0b7d" d="M533.65,487a.93.93,0,0,1-1,1A.93.93,0,0,1,533.65,487Z" transform="translate(-329.03 -200.39)"/><path class="eecaa423-e7a7-4c2b-9101-5f07858b0b7d" d="M519.64,500l-.38-.54.19-.13.2.65Z" transform="translate(-329.03 -200.39)"/><path class="eecaa423-e7a7-4c2b-9101-5f07858b0b7d" d="M517.65,498l.65.2-.13.19-.53-.38Z" transform="translate(-329.03 -200.39)"/><path class="eecaa423-e7a7-4c2b-9101-5f07858b0b7d" d="M532.65,488a1,1,0,0,1-1,.51A1,1,0,0,1,532.65,488Z" transform="translate(-329.03 -200.39)"/><path class="eecaa423-e7a7-4c2b-9101-5f07858b0b7d" d="M497.92,502.35c0,.07.1.14.1.2s-.08.12-.13.18Z" transform="translate(-329.03 -200.39)"/><path class="eecaa423-e7a7-4c2b-9101-5f07858b0b7d" d="M534.65,486.54a1.06,1.06,0,0,1-1,.51A1.08,1.08,0,0,1,534.65,486.54Z" transform="translate(-329.03 -200.39)"/><path class="eecaa423-e7a7-4c2b-9101-5f07858b0b7d" d="M520.15,502.54l-.21.2.2-.21Z" transform="translate(-329.03 -200.39)"/><path class="eecaa423-e7a7-4c2b-9101-5f07858b0b7d" d="M537.65,487.53l.51.51Z" transform="translate(-329.03 -200.39)"/><path class="eecaa423-e7a7-4c2b-9101-5f07858b0b7d" d="M537.15,487l.51.51Z" transform="translate(-329.03 -200.39)"/><path class="142f0e50-f86b-4708-af0f-afdf3cb010b0" d="M532.06,440.21c1.86-.77,3.25-2.24,4.93-3.27.4-.25.68-.84,1.24-.62s.41.84.41,1.31c0,2,0,4,0,6,0,1.12-.54,1.46-1.52,1.44h0c-.87-2.37-3-3.2-5-4.16Z" transform="translate(-329.03 -200.39)"/><path class="829c161c-329c-4509-b3bc-fe164af92734" d="M532.06,440.21l0,.67L530.37,442l-.14-.1c-1.94-.81-.31-1.42.12-2.09l1.1,0Z" transform="translate(-329.03 -200.39)"/><path class="3f4289e1-8771-4566-a189-f5b9f1efa011" d="M406.68,279.67a7.84,7.84,0,0,1,7.9-1.62,2.68,2.68,0,0,1,2.13,2.45c.11,1.37-.75,1.87-1.75,2.4-2.43,1.29-2.5,2.08-.4,3.94.43.39.93.7,1.35,1.1.83.78,2,1.5,1.29,2.89s-1.85,1.23-3,1.2a5.94,5.94,0,0,1-4.76-2.76c-.62-.85-1.22-2-2.53-1.67-1.48.35-1.07,1.54-1,2.63a1.15,1.15,0,0,1-1.46,1.26,9.49,9.49,0,0,1-1.2-.32c-1-.3-2.53-.25-2.71-1.31-.23-1.31,1.27-1.72,2.29-2.26s2-1.29,1.7-2.46-1.55-.64-2.4-.69c-3.19-.18-4.51-2.75-2.77-5.48.4-.63.92-1.18,1.37-1.78.9-1.17,1.89-2.14,3.55-1.62s2.09,1.72,2.06,3.27C406.29,279.05,406.48,279.26,406.68,279.67Z" transform="translate(-329.03 -200.39)"/><path class="3f4289e1-8771-4566-a189-f5b9f1efa011" d="M453.68,306.11c-.25,1.21.12,2.73-1.68,2.93s-3-.37-3.09-2.34c0-.66-.14-1.32-.22-2s.09-1.43-.72-1.69-1,.39-1.31.87c-.81,1.11-1.64,0-2.42-.1a1.36,1.36,0,0,1-1-1.77c.41-2.13.75-4.45,3.13-5.28s4,.45,5.17,2.4A1.8,1.8,0,0,0,454,300a25.75,25.75,0,0,1,3.1-.89c.73-.16,1.56-.27,2,.61a2.27,2.27,0,0,1-.3,2.13,1.45,1.45,0,0,1-1.94.59c-.47-.16-.9-.43-1.37-.59-1.7-.57-2.36.17-2.18,1.83C453.39,304.52,453.55,305.34,453.68,306.11Z" transform="translate(-329.03 -200.39)"/><path class="3f4289e1-8771-4566-a189-f5b9f1efa011" d="M462.74,351.07a2.64,2.64,0,0,1-1.13,1.86c-1.26,1.08-.73,1.64.58,1.94.32.07.66,0,1,.08,1,.13,2.34.09,2.23,1.39-.09,1-1.38.53-2.14.61-1,.1-2.18-.07-1.52,1.58.33.81,1.14,1.82,0,2.35a2.72,2.72,0,0,1-3.2-.74c-.71-1.14-.87-1.77-2.3-.76-.69.48-1.94-.21-2.6-1-.86-1.09.1-2,.4-3a1.39,1.39,0,0,1,2-.91c2.34.86,2.4-.58,2.47-2.26.09-2.24,1.38-3.21,3.2-2.59A1.4,1.4,0,0,1,462.74,351.07Z" transform="translate(-329.03 -200.39)"/><path class="7718cb97-90cb-4924-aaea-6603fec9e38a" d="M462.87,429c3,1.06,2.87-1.58,4-2.54a.69.69,0,0,1,.44,1.15c-1.7,1.85-.9,4-.92,6.1a12.7,12.7,0,0,1-3.51,8.53c-.48-1.39.38-2.1.68-2.92.57-1.55,1.43-3,1.85-4.6C466,432.51,465.82,430.36,462.87,429Z" transform="translate(-329.03 -200.39)"/><path class="829c161c-329c-4509-b3bc-fe164af92734" d="M442.61,419.88c4,.18,7.39-.9,10.07-3.93.29-.33.71-.49,1.06-.06.58.7.19,1.32-.34,1.72a12.77,12.77,0,0,1-8,2.84A15.16,15.16,0,0,1,442.61,419.88Z" transform="translate(-329.03 -200.39)"/><path class="829c161c-329c-4509-b3bc-fe164af92734" d="M448.56,456.51c1.84-3.85,4.21-7.36,3-12C454.33,446.86,452.24,454.82,448.56,456.51Z" transform="translate(-329.03 -200.39)"/><path class="829c161c-329c-4509-b3bc-fe164af92734" d="M457.67,425.58c1.68-1.25,1.76-3.53,3.43-5.46-.51,4.59-1.71,8.17-5.48,10.39l0,0c-.28-1.21,1.09-1.86,1-3h0a.77.77,0,0,0,.51-1v0c.56-.15.75-.48.51-1Z" transform="translate(-329.03 -200.39)"/><path class="829c161c-329c-4509-b3bc-fe164af92734" d="M437.57,440.33c1.17,2.91,1.38,5.71-1.09,8C437.23,445.75,438.13,443.19,437.57,440.33Z" transform="translate(-329.03 -200.39)"/><path class="829c161c-329c-4509-b3bc-fe164af92734" d="M450.93,444.67c.42,2.33.33,2.81-.87,4.91A5.53,5.53,0,0,1,450.93,444.67Z" transform="translate(-329.03 -200.39)"/><path class="d007cb91-6861-4467-938b-33627c65d8ba" d="M456.69,427.56c-.91-.29-1.26-.8-.75-1.74.43-.78.78-1.61,1.21-2.52,1,.72,0,1.66.53,2.28v0c-.64.11-.84.44-.51,1v0c-.68.09-1,.35-.51,1Z" transform="translate(-329.03 -200.39)"/><path class="829c161c-329c-4509-b3bc-fe164af92734" d="M455.62,430.51l-.16.26s0-.12,0-.14a.79.79,0,0,1,.19-.08Z" transform="translate(-329.03 -200.39)"/><path class="4eb67f2c-097b-4822-9134-7c653db8df26" d="M401.53,439.69a29.77,29.77,0,0,1,10.11,6.56c10.49,9.87,20.74,20,28,32.6.46.8,1.7,1.57.9,2.57s-2.06.42-3,0c-4.15-1.6-7.52-4.51-11.26-6.81-12.61-7.79-18.83-20.21-24.56-33a4.17,4.17,0,0,1-.24-1A6.3,6.3,0,0,1,401.53,439.69Zm30.17,32.23-.06-.79c-1.91-3.92-5.22-6.69-8.06-9.85-.46-.52-.84-.1-1.27.17-1.4.88-2.83,1.7-4.26,2.53-.49.29-1.23.51-.54,1.23,3.37,3.51,6.68,7.11,11.4,8.89l-.06,0c2,2,4.56,2.72,7.14,3.57a37.27,37.27,0,0,0-2.83-5C432.85,472.16,432.6,471.29,431.7,471.92Zm-19.55-13.64v.13l.11,0c1.05,1.47,2.09,2.95,3.17,4.39.28.38.59,1.23,1.26.32,1.32-1.81,3.3-2.58,5.53-3.29-2.13-1.87-3.75-4-6-5.42-1-1.58-2.55-2.53-3.74-3.89-.33-.38-.82-.72-1.19-.07-.91,1.57-2.5,3-.85,5.06A25.1,25.1,0,0,1,412.15,458.28Zm-1-9.21c-2.07-1.47-3.35-3.7-6.18-4.84,1.59,2.87,2.2,5.57,3.78,7.8Z" transform="translate(-329.03 -200.39)"/><path class="eecaa423-e7a7-4c2b-9101-5f07858b0b7d" d="M530.37,442l1.72-1.12c2,1,4.18,1.79,5,4.16C534.94,443.91,532.91,442.39,530.37,442Z" transform="translate(-329.03 -200.39)"/><path class="904308f6-0f05-42a0-bbfd-fce9cfdecb39" d="M457.17,426.57c-.32-.59-.12-.92.51-1C457.91,426.08,457.73,426.42,457.17,426.57Z" transform="translate(-329.03 -200.39)"/><path class="904308f6-0f05-42a0-bbfd-fce9cfdecb39" d="M456.67,427.56c-.5-.68-.17-.94.51-1A.77.77,0,0,1,456.67,427.56Z" transform="translate(-329.03 -200.39)"/><path class="d63e9fcc-f4bc-4456-bf8a-491182407e63" d="M428.91,474.1c-4.72-1.78-8-5.39-11.4-8.89-.69-.72,0-.94.54-1.23,1.43-.83,2.86-1.65,4.26-2.53.44-.27.81-.69,1.27-.17,2.84,3.16,6.16,5.93,8.06,9.85C430.39,471.8,429,472.31,428.91,474.1Z" transform="translate(-329.03 -200.39)"/><path class="d63e9fcc-f4bc-4456-bf8a-491182407e63" d="M416.23,454.45c2.23,1.44,3.85,3.55,6,5.42-2.23.71-4.21,1.47-5.53,3.29-.67.91-1,.06-1.26-.32-1.09-1.44-2.12-2.92-3.17-4.39a5.85,5.85,0,0,0,3.42-3.44l-.06.05.46-.44Z" transform="translate(-329.03 -200.39)"/><path class="d63e9fcc-f4bc-4456-bf8a-491182407e63" d="M412.15,458.28a25.1,25.1,0,0,0-1.69-2.72c-1.65-2.05-.06-3.5.85-5.06.37-.64.86-.31,1.19.07,1.19,1.35,2.78,2.31,3.74,3.89l-.16.17-.46.45.06-.05C413.77,455.32,413.18,457,412.15,458.28Z" transform="translate(-329.03 -200.39)"/><path class="d63e9fcc-f4bc-4456-bf8a-491182407e63" d="M431.7,471.92c.9-.63,1.15.23,1.47.71a37.27,37.27,0,0,1,2.83,5c-2.58-.85-5.18-1.54-7.14-3.57A7.37,7.37,0,0,0,431.7,471.92Z" transform="translate(-329.03 -200.39)"/><path class="d63e9fcc-f4bc-4456-bf8a-491182407e63" d="M411.14,449.07l-2.4,3c-1.57-2.23-2.19-4.93-3.78-7.8C407.79,445.37,409.07,447.6,411.14,449.07Z" transform="translate(-329.03 -200.39)"/><path class="829c161c-329c-4509-b3bc-fe164af92734" d="M412.15,458.28c1-1.24,1.62-3,3.52-3.27a5.85,5.85,0,0,1-3.42,3.44l-.11,0Z" transform="translate(-329.03 -200.39)"/><path class="d007cb91-6861-4467-938b-33627c65d8ba" d="M431.7,471.92a7.37,7.37,0,0,1-2.85,2.16l.06,0c0-1.79,1.48-2.3,2.73-3Z" transform="translate(-329.03 -200.39)"/><path class="829c161c-329c-4509-b3bc-fe164af92734" d="M415.61,455.07l.46-.45Z" transform="translate(-329.03 -200.39)"/><path class="7f626afc-6972-4da3-b69a-d4aeacf1f476" d="M332.58,510.28c.14,1.1,1.06.89,1.74,1,2.53.32,4.94-.47,7.41-.8.83,0,1.66.13,2.48.13H532.46a23.37,23.37,0,0,0,2.5-.06,10.57,10.57,0,0,0,2.1-.46H332.58A1.44,1.44,0,0,0,332.58,510.28Z" transform="translate(-329.03 -200.39)"/><path class="7f626afc-6972-4da3-b69a-d4aeacf1f476" d="M534.28,201c-1.41-.09-2.83-.08-4.25-.08H347.78c-.91,0-1.82.09-2.73.14-2-.92-3.82-1.24-5.39,1H538.45A10.46,10.46,0,0,0,534.28,201Z" transform="translate(-329.03 -200.39)"/></svg>