<svg id="ab0e4856-5db8-46a2-a297-c3d26308270a" data-name="Capa 1" xmlns="http://www.w3.org/2000/svg" viewBox="0 0 213.59 309.58"><defs><style>.f2214030-4a3a-4247-99e5-829510b36cfc{fill:#0c0c0b;}.\31 8f9e620-e442-44e2-92f1-437cb29aa74e{fill:#fdfdfd;}.\34 6557428-0e14-4b90-a503-c8d1bde78e7e{fill:#f7cca0;}.\36 f311f48-9202-49c1-ab74-93a7464c4833{fill:#96b5c8;}.f8f3f5a2-00a6-41d4-81b5-7409ffd35aeb{fill:#fcfcfd;}.f0fdd52f-5860-4f70-a540-69c470b98ee5{fill:#1e1e1e;}.\37 3c9ea8d-695d-4c3f-83d5-ac1ec3a4e3da{fill:#212121;}.\30 8eb42e1-909e-40c6-bd4f-846985a673b0{fill:#1f1f1f;}.\39 d479fc4-0796-436c-b3f4-7e05d78c79ac{fill:#252526;}.\36 c2210bd-ecbb-4fb3-81ca-e1d7fc6700a0{fill:#372c22;}.f5c9d18b-6a7a-4cec-893c-fc3bd5f5db40{fill:#110d08;}.\34 a34e300-f953-43bc-93cf-0360889c150e{fill:#0f0b06;}.\39 f10e0ad-7632-4650-a9ef-bcf3e42644ca{fill:#554435;}.cbe296b2-e76c-4e78-8066-55662ccc5184{fill:#f3f3f2;}.a770faba-2fcd-4b24-9d78-1dbf655ea81f{fill:#f9f8f8;}.d98144ae-7531-4f6f-9cb8-ed4c0be40988{fill:#eeeded;}</style></defs><title>card-12</title><path class="f2214030-4a3a-4247-99e5-829510b36cfc" d="M543.26,355.53q0,71.62,0,143.23c0,.75,0,1.5,0,2.25-.26,6-3.63,9.3-9.7,9.3h-193c-7.6,0-10.89-3.29-10.89-11q0-144,0-288c0-7.1,3.26-10.54,10.3-10.58,16.5-.09,33-.06,49.49-.06H530.2c1.42,0,2.84,0,4.25.07,5.47.39,8.64,3.74,8.8,9.24,0,.83,0,1.67,0,2.5Q543.26,284,543.26,355.53ZM376.7,405h-.45c-.36.83-.74,1.65-1.08,2.49-5.58,14-7.42,28.6-7.93,43.46-.22,6.41-.19,12.83.19,19.24a2.92,2.92,0,0,1-1.88,3.18,3,3,0,0,1-3.23-.71c-.87-.76-.72-1.82-.77-2.8a191.47,191.47,0,0,1,1.77-41.6c1.85-11.3,4.82-22.27,10.85-32.16.95-1.55,1-2.35-.48-3.61a62.45,62.45,0,0,1-14.75-18.71c-12-23.14-8.34-48.78,10.55-65.14,20.56-17.8,44.72-20.92,70-12.91,16.76,5.31,28.91,16.89,34.11,34.13,7.2,23.88,1.93,45-15.79,62.79-.91.91-.74,1.24,0,2.09,5.75,6.36,11.66,12.57,16.77,19.49A8.15,8.15,0,0,1,476.4,418c.35,2.77-1.17,4.06-3.87,3.42a10.41,10.41,0,0,1-3.9-2.14c-3.08-2.34-6.11-4.74-9.53-7.41.41,3.93.81,7.38,1.11,10.84,1.35,15.34,2.82,30.67,4.85,45.94.51,3.83.33,4.34-3.29,5.85-1.39.58-1.86,1.17-1.57,2.74,1.68,9,3.29,18,4.78,27,.27,1.64.91,1.93,2.39,1.93q32.87-.06,65.75,0c3.77,0,5.67-1.79,6-5.55.08-.91,0-1.83,0-2.75q0-142.62,0-285.24c0-.67,0-1.33,0-2-.18-3.52-1.86-5.31-5.37-5.68a28.89,28.89,0,0,0-3-.09H342.53a32.74,32.74,0,0,0-3.74.13c-3.14.36-4.39,1.58-4.86,4.71a20.19,20.19,0,0,0-.12,3q0,89,0,178,0,53.87,0,107.75c0,6.21,1.57,7.76,7.85,7.76h50c1,0,1.93.13,2.06-1.41.54-6.05,1.17-12.1,1.83-18.13.14-1.3-.41-1.63-1.55-2-2.77-.87-5.46-2-8.18-3a3.83,3.83,0,0,1-2.6-3.61c-.17-2.24-.47-4.47-.73-6.7-1.7-14.81-3.22-29.63-4.28-44.5C377.69,419.58,377.2,412.3,376.7,405Zm64.63-8.36c-2.28-3.05-4.88-4.54-8.67-3.63a45.07,45.07,0,0,1-6.95.66c-2.64.21-4.18-.75-4.2-2.71,0-2.32,1.44-3.16,3.56-3.27,2.41-.12,4.83-.17,7.22-.47,5.29-.66,9.84.52,13.23,4.91.1.13.24.23.35.35a1.79,1.79,0,0,0,2.78.22,48.18,48.18,0,0,0,6.4-5.18c12.82-13.47,17.79-29.37,15.17-47.84C467,317,448.91,302.56,430.92,298.88a70.21,70.21,0,0,0-43,4.39c-17.32,7.6-28.37,20.81-29.9,39.57-1.79,21.92,8.35,39.08,26.73,50.72,12.32,7.8,26.38,9.12,40.71,7.52A46.08,46.08,0,0,0,441.33,396.67Zm-59.1,2.24c0,1.52,0,2.59,0,3.65q1.1,21.33,3.11,42.59c.95,10,2.18,20,3.27,30,.1.94.2,1.7,1.31,2.13,5.77,2.25,11.64,4.1,17.92,3.83a142.69,142.69,0,0,0,49.25-10.63c2-.82,2.35-1.78,2.08-3.7-2.42-17.74-3.85-35.58-5.47-53.4-.45-5-1.85-8.89-6.15-11.69a2.69,2.69,0,0,0-3.09-.36c-13.69,6.58-28,7.09-42.69,4.55A64.79,64.79,0,0,1,382.23,398.9Zm47.06,107.3c9.16,0,18.33-.11,27.49.07,2.51,0,2.7-.83,2.32-2.84-1.34-7.11-2.6-14.23-3.88-21.35-.79-4.39-.78-4.39-4.89-3l-1.42.46a136.08,136.08,0,0,1-46.12,7c-1.48,0-1.46.67-1.5,1.6a153.46,153.46,0,0,1-1.53,15.65c-.31,2.09.37,2.45,2.29,2.43C411.12,506.15,420.2,506.2,429.28,506.2Z" transform="translate(-329.67 -200.73)"/><path class="18f9e620-e442-44e2-92f1-437cb29aa74e" d="M376.7,405c.5,7.28,1,14.55,1.51,21.83,1.07,14.87,2.58,29.69,4.28,44.5.26,2.23.56,4.46.73,6.7a3.83,3.83,0,0,0,2.6,3.61c2.71,1,5.41,2.14,8.18,3,1.14.36,1.7.69,1.55,2-.66,6-1.29,12.08-1.83,18.13-.14,1.54-1,1.41-2.06,1.41h-50c-6.29,0-7.85-1.54-7.85-7.76q0-53.87,0-107.75,0-89,0-178a20.19,20.19,0,0,1,.12-3c.47-3.13,1.72-4.35,4.86-4.71a32.74,32.74,0,0,1,3.74-.13H530.77a28.89,28.89,0,0,1,3,.09c3.51.37,5.19,2.16,5.37,5.68,0,.66,0,1.33,0,2q0,142.62,0,285.24c0,.92,0,1.84,0,2.75-.34,3.76-2.24,5.55-6,5.55q-32.87,0-65.75,0c-1.48,0-2.12-.29-2.39-1.93-1.49-9-3.1-18-4.78-27-.29-1.57.18-2.16,1.57-2.74,3.62-1.51,3.8-2,3.29-5.85-2-15.27-3.51-30.6-4.85-45.94-.3-3.46-.7-6.91-1.11-10.84,3.42,2.66,6.46,5.07,9.53,7.41a10.41,10.41,0,0,0,3.9,2.14c2.7.63,4.22-.65,3.87-3.42a8.15,8.15,0,0,0-1.81-3.78c-5.11-6.91-11-13.13-16.77-19.49-.77-.85-.94-1.18,0-2.09,17.71-17.79,23-38.91,15.79-62.79-5.2-17.24-17.35-28.81-34.11-34.13-25.26-8-49.43-4.89-70,12.91-18.88,16.35-22.58,42-10.55,65.14a62.45,62.45,0,0,0,14.75,18.71c1.46,1.26,1.43,2.06.48,3.61-6,9.89-9,20.86-10.85,32.16a191.47,191.47,0,0,0-1.77,41.6c.05,1-.09,2,.77,2.8a3,3,0,0,0,3.23.71,2.92,2.92,0,0,0,1.88-3.18c-.38-6.41-.41-12.83-.19-19.24.51-14.87,2.35-29.51,7.93-43.46.34-.84.72-1.66,1.08-2.49Zm98.06-141.86c.76,1.88,1.39,3.22,1.84,4.62.3.94.89,1,1.7,1.06a1.43,1.43,0,0,0,1.63-1.12,66.14,66.14,0,0,0,3.3-11.22c.14-.74.6-1.65-.85-1.8-1.16-.12-1.54.16-1.78,1.35a31.24,31.24,0,0,1-2.37,8.09c-1.57-3.09-3-5.9-4.42-8.69-.39-.75-.56-1.75-1.94-1s-.94,1.52-.31,2.33c1.87,2.42,1.19,4.7-.3,7.26l-3.79-8.28c-.37-.81-.73-1.49-1.84-.87-.89.49-1.19.92-.64,1.94a61.73,61.73,0,0,1,4.44,10.56,1.57,1.57,0,0,0,1.61,1.21,1.5,1.5,0,0,0,1.73-1C473.29,266.24,473.92,265,474.76,263.16Zm-59.58-21.67c.84-.49,1.19-.69,1.54-.9,1.85-1.17,3.39-2.57,2.91-5-.51-2.6-2.45-3.53-4.86-3.92a24,24,0,0,0-6,0c-1,.08-1.27.41-1.18,1.39.39,4,.72,7.95,1.06,11.92.05.62.13,1.25,1,1.06.58-.13,1.73.16,1.62-.68-.38-2.94,1.47-1.54,2.54-1.34,1.46.27,2.88.77,4.33,1.13.85.21,1.75.69,2.11-.79.31-1.3-.28-1.56-1.32-1.77S416.75,241.94,415.18,241.49Zm55.61-2.7a7,7,0,0,0-6.82-7.38A9,9,0,0,0,455,240a6.92,6.92,0,0,0,6.71,7.22A8.83,8.83,0,0,0,470.79,238.8Zm23.26,8.54c.42,0,1.18,0,1.92-.15,4.4-.65,4.53-.8,4.72-5.17,0-.57-.07-1,.6-1.45s.32-1.38.09-2-1-.42-1.53-.35c-2.23.27-4.45.6-6.68.87-.94.11-1.57.28-1.33,1.51s.73,1.34,1.72,1.16,2.14-.31,3.21-.46c.64-.09,1.22,0,1.22.81s.47,1.49-.34,2.06c-1.23.88-5.66.81-7-.19a4.71,4.71,0,0,1-1.94-5.28c.7-2.5,2.68-3.53,5.18-3.28,1.43.14,1.55-.92,1.65-1.68.14-1.07-.92-.91-1.61-1a7.29,7.29,0,0,0-8.1,6.67C485.54,244,488.91,247.39,494.06,247.34Zm-139.53,6.84c-4.6,0-8.74,4.14-8.66,8.57a6.88,6.88,0,0,0,7.08,7.08,8.77,8.77,0,0,0,8.77-8.41A7,7,0,0,0,354.53,254.18Zm7.82-17.11c2,2.84,3.85,5.36,5.59,8a1.66,1.66,0,0,0,2.06.78c1.11-.24,1.22-.93,1.17-1.84-.2-3.32-.34-6.65-.61-10-.07-.85.17-2.07-1.56-1.88s-1.19,1.19-1.12,2.13c.15,1.92.28,3.84.47,6.43a42.31,42.31,0,0,1-5.41-8c-.67-1.4-1.74-1.07-2.75-1-1.37.08-.84,1.23-.83,1.93a56.73,56.73,0,0,0,.91,10.18c.17.84.21,1.87,1.67,1.5,1.3-.33,1.17-1,1-2A15.55,15.55,0,0,1,362.35,237.07Zm122.5,30.77c-.33,1.16-.07,1.67.94,1.77.83.08,1.33,0,1.64-1s-.25-2.43,1-2.85A10.52,10.52,0,0,1,493,265c1.14.17,1,1.88,1.2,3s.73,1.45,1.87,1.3c1.67-.22.95-1.24.73-2-.76-2.71-1.53-5.41-2.4-8.08-1.52-4.65-1.55-4.61-6.17-3.46-.92.23-1.43.58-1.59,1.58C486.1,260.93,485.43,264.51,484.85,267.84Zm-52.83.47c-.27.74.08,1.2,1.2,1.33s1.42-.39,1.55-1.38-.08-2.1.87-2.43a10.9,10.9,0,0,1,4.62-.83c1.29.15,1.07,1.92,1.25,3,.25,1.47,1,1.5,2.07,1.3,1.48-.28.72-1.36.56-2-.93-3.36-2.12-6.65-3-10-.53-2.15-1.65-2.7-3.5-1.9-1.29.55-3.35-.33-3.72,2.07C433.4,261,432.7,264.48,432,268.31Zm-1.84-3.64c-.24-2.81-.57-6.12-.76-9.43-.07-1.17-.41-1.56-1.62-1.5-1.4.07-1.07,1-1.05,1.74A10.64,10.64,0,0,0,427,258c.48,1.79-.14,2.49-2,2.7-3.4.4-3.39.49-3.68-2.83,0-.41-.06-.83-.07-1.24,0-1,.21-2-1.45-1.89s-1.22,1-1.16,1.89c.23,3.23.46,6.46.76,9.68.08.89-.14,2.09,1.55,1.86s1.34-1.29,1.09-2.18c-.54-1.92.34-2.44,2-2.62,3.25-.34,3.24-.4,3.54,3,0,.33,0,.66.06,1,0,.79.51,1,1.18.83s1.45.08,1.43-1C430.3,266.5,430.24,265.84,430.18,264.67Zm48.35-18.84c.58,0,1.17,0,1.75,0,3.82-.19,4.65-1.09,4.56-4.91a69.76,69.76,0,0,0-1.18-8.14c-.18-1.25-1-1.06-1.84-1-1.28.05-.91.81-.76,1.55.29,1.47.56,2.94.77,4.42,1,6.51.72,5.28-4.85,5.56-1.81.09-2.38-.8-2.16-2.45.33-2.47.67-4.95,1-7.42.09-.74.59-1.71-.89-1.77-1.08,0-1.66.13-1.75,1.41-.14,2.07-.57,4.12-.77,6.19C471.84,244.63,473.13,246,478.53,245.83Zm-25.23-3.67c-.26-3.56-.49-6.45-.66-9.36-.06-1-.06-1.75-1.46-1.71s-1.35.8-1.24,1.79.08,2,.24,3c.22,1.38-.29,1.81-1.68,2-3.6.45-3.59.54-4-3,0-.41-.12-.82-.14-1.24,0-.86,0-1.61-1.34-1.52s-1.42.74-1.32,1.79q.49,5.21.89,10.43c.06.83.36,1.1,1.21,1.14,1.55.07,1.41-.81,1.44-1.9,0-.9-.94-2.18.78-2.68,3.61-1,4.22-.68,4.7,3a4.53,4.53,0,0,1,0,.5c0,1.08.71,1.09,1.54,1.06s1.34-.4,1.16-1.38C453.37,243.17,453.32,242.33,453.3,242.16Zm60.93.17c-.27-3.31-.6-6.62-.79-9.94-.07-1.2-.63-1.28-1.59-1.27s-1.18.62-1.09,1.46c.1,1,.1,2,.28,3,.29,1.54-.12,2.15-1.82,2.33-3.57.38-3.55.5-3.87-3,0-.41-.06-.83-.08-1.24,0-.82.14-1.66-1.24-1.59s-1.47.65-1.37,1.74c.29,3.23.52,6.46.78,9.69.09,1.08,0,2.18,1.77,1.9s.75-1.49.9-2.29-.7-1.84.48-2.14a8.91,8.91,0,0,1,4.38-.41c1.09.32.54,2.05.71,3.16a4.63,4.63,0,0,1,0,.75c0,1,.65,1,1.36.93s1.39,0,1.29-1C514.3,243.66,514.27,243,514.23,242.33Zm-135.77-5c-.79-.37-2.45,1.48-2.78-1.14s1.29-2.15,2.7-2.27a13.23,13.23,0,0,1,1.74-.09c1,0,1.32-.32,1.24-1.32s-.25-1.39-1.29-1.31c-2,.15-4,.27-6,.31-1.14,0-1.36.52-1.26,1.56.21,2.23.3,4.48.43,6.72.37,6.6,1.16,7.16,7.65,5.39l.24-.05c1-.18,1.31-.68,1.13-1.74-.21-1.26-.86-1.13-1.77-.93s-2,.24-3,.4-1.47-.21-1.52-1.31.3-1.31,1.25-1.34c1.16,0,2.31-.28,3.47-.33s.93-.68.92-1.37-.08-1.35-1.05-1.27C380,237.3,379.3,237.31,378.46,237.35Zm22.5-6.12c-4.6.29-4.59.29-4.35,5,.06,1.25.1,2.49.17,3.74.41,6.4.92,6.77,7.3,5.3l.25,0c1.14-.18,1.77-.59,1.44-2s-1.12-.84-1.9-.72c-1,.15-2,.22-3,.36s-1.31-.29-1.35-1.23.11-1.4,1.16-1.42,2.15-.28,3.23-.3,1.3-.61,1.25-1.6-.72-1.13-1.52-1.06-1.49.14-2.24.16c-.92,0-2.14.91-2.26-1.11-.1-1.69.3-2.47,2.08-2.35.82.06,1.66-.13,2.49-.12s1.21-.3,1.1-1.18,0-1.53-1.15-1.44C402.79,231.29,401.87,231.23,401,231.23Zm60.91,70.48c.94,0,1.49-.69,2.11-1.21A46.18,46.18,0,0,0,479.12,277c.25-.9,1.1-2.27-.52-2.73s-1.63,1-1.92,2a44,44,0,0,1-12.8,20.94c-.85.79-1.79,1.48-2.63,2.28a1.2,1.2,0,0,0-.39,1.55A1.18,1.18,0,0,0,461.87,301.71Zm-73-60.1a42.45,42.45,0,0,1-3.08-8.55c-.25-1-.53-1.48-1.67-1.16s-1.23.79-1,1.79a59.15,59.15,0,0,0,4.35,11.38c.37.73.73,1.26,1.69,1.07a1.83,1.83,0,0,0,1.73-1.44,65.17,65.17,0,0,1,4.09-11c.47-1,.25-1.5-.71-1.94s-1.41,0-1.77.95C391.41,235.61,390.2,238.43,388.87,241.62ZM505.22,264c-1.39-3.26.22-5.64,3-7.57.07,0,.12-.12.19-.17.78-.57,1.11-1.1.25-2s-1.26-.78-2.06-.08c-1.08,1-2,2.77-3.36,2.59s-2.48-1.55-3.71-2.41a5.38,5.38,0,0,1-.61-.43c-.8-.74-1.32-.57-2,.31s-.37,1.55.5,1.93c4.16,1.81,5.49,5.09,5,9.38-.08.73.15,1.5.12,2.24-.05,1.12.45,1.39,1.49,1.35s1.22-.55,1.18-1.43C505.18,266.64,505.22,265.47,505.22,264Zm-137.5-1.22c-.69.09-1.84.52-2-1.57s.55-2.65,2.42-2.45c.74.07,1.49,0,2.24,0,1.2,0,1-.84,1-1.57s-.34-1.15-1.2-1.09q-3,.19-6,.23c-1.09,0-1.43.47-1.33,1.54.33,3.47.6,6.94.87,10.41.07.92.2,1.57,1.41,1.5s1.51-.77,1.21-1.81c-.55-1.89.35-2.45,2.09-2.58.77-.06,2.16.55,2.08-1.27S369.3,262.71,367.72,262.82Zm71.45-31.11c-2.89.36-5.37.63-7.84,1-.81.12-2.16-.51-2.09,1.28s1.22,1.49,2.26,1.28c1.48-.3,1.82.32,1.86,1.68.06,2.58.3,5.15.44,7.73,0,1,.26,1.57,1.45,1.46s1.39-.53,1.3-1.59c-.2-2.24-.05-4.53-.46-6.72-.47-2.5.35-3.53,2.81-3.44,1,0,1.45-.39,1.34-1.5S439.66,231.61,439.17,231.71Zm15.24,22.81c-2.45.27-5.09.58-7.73.85-1.11.11-1.87.34-1.63,1.8s1.27,1,2,.82c1.59-.42,2,.18,2.06,1.71,0,2.49.29,5,.4,7.47,0,1,.12,1.71,1.48,1.66,1.54-.06,1.2-1.05,1.16-1.9-.09-1.83-.19-3.65-.38-5.47-.25-2.39-.64-4.76,3.09-4.37,1,.11,1.05-.75.94-1.58S455.52,254.21,454.41,254.52Zm72.1-21.42c.05-1.12-.53-1.49-1.69-1.32q-3.69.53-7.41.92c-1,.11-2,0-1.78,1.61s1.19,1.13,2,1c1.64-.32,2.13.24,2.13,1.89,0,2.48.3,5,.42,7.46,0,.91.09,1.61,1.34,1.52s1.37-.59,1.29-1.6c-.17-2.15-.1-4.33-.43-6.46-.37-2.38,0-3.84,2.81-3.72C525.9,234.42,526.77,234.37,526.51,233.1ZM417.05,256c0-1.14-.33-1.7-1.66-1.48-2.45.4-4.94.57-7.41.87-1,.12-2,0-1.85,1.63s1.24,1.22,2.14,1c1.33-.33,1.94-.08,1.95,1.48,0,2.48.28,5,.43,7.45.06,1-.17,2,1.47,1.91s1.16-1.29,1.14-2.13a59.33,59.33,0,0,0-.43-6.7c-.29-2,.19-2.93,2.36-2.82C415.95,257.22,417.16,257.39,417.05,256Zm-20.13-.4c-.07-.59-.14-1.32-1.43-1.11-2.54.4-5.12.63-7.68.9-1.1.11-1.87.32-1.69,1.78.2,1.64,1.22,1,2,.85,1.52-.39,2.07,0,2.08,1.66,0,2.58.33,5.15.43,7.72,0,1,.24,1.49,1.41,1.45s1.29-.72,1.23-1.63c-.16-2.24-.19-4.5-.49-6.72s0-3.53,2.65-3.31C396.16,257.21,397.23,257.19,396.92,255.57Zm-47.36-10.79c-.28-3.76-.59-7.72-.85-11.69-.06-.86-.38-1.2-1.23-1.07s-1.54-.07-1.45,1.15c.32,4,.6,8.1.87,12.15.07,1.1.77,1,1.56,1C349.44,246.33,349.84,246,349.56,244.78Zm31,13.24c.29,3.53.53,6.58.8,9.63.07.84.15,1.66,1.44,1.43,1-.17,1.41-.5,1.31-1.59q-.54-5.81-.9-11.64c-.07-1.07-.59-1.14-1.44-1.15s-1.34.31-1.23,1.31A14.85,14.85,0,0,1,380.59,258Zm134.09,3.47c-.19-2.08-.42-4.23-.57-6.38-.08-1.07-.52-1.45-1.59-1.29-.9.13-1.32.43-1.19,1.44q.44,3.33.7,6.68c.08,1,.25,1.48,1.43,1.44C514.91,263.33,514.82,262.52,514.68,261.49Zm-.94,7.34c.79,0,1.51,0,1.33-1s-.2-1.83-1.55-1.67c-.76.09-1.48-.05-1.34,1.14S512.65,269,513.74,268.83Z" transform="translate(-329.67 -200.73)"/><path class="46557428-0e14-4b90-a503-c8d1bde78e7e" d="M441.33,396.67a46.08,46.08,0,0,1-15.91,4.42c-14.33,1.6-28.4.28-40.71-7.52-18.38-11.64-28.52-28.81-26.73-50.72,1.53-18.76,12.58-32,29.9-39.57a70.21,70.21,0,0,1,43-4.39c18,3.68,36.08,18.09,39.31,40.84,2.62,18.47-2.35,34.37-15.17,47.84a48.18,48.18,0,0,1-6.4,5.18,1.79,1.79,0,0,1-2.78-.22c-.11-.12-.25-.22-.35-.35-3.39-4.39-7.93-5.57-13.23-4.91-2.39.3-4.81.35-7.22.47-2.12.11-3.57.94-3.56,3.27,0,2,1.56,2.92,4.2,2.71a45.07,45.07,0,0,0,6.95-.66C436.45,392.13,439,393.61,441.33,396.67Zm-5.15-36.38c-4.53-.34-9.08.65-13.66,1.42a18,18,0,0,0-6.35,2.07c-1.79,1.06-2.87,2.57-2.49,4.73s.86,4.05,1.38,6.05c.41,1.58,1.25,2.19,2.91,1.24,5.71-3.24,11.69-5.48,18.54-4.44A14.44,14.44,0,0,1,436.17,360.28Zm-22.83-1a7.39,7.39,0,0,0,7.3-7.52,7.68,7.68,0,0,0-15.36-.47C405.17,355.78,408.63,359.22,413.35,359.28Zm30.28-11.59c0,4,3.45,7.86,7.08,7.94a7.9,7.9,0,0,0,8-7.8c0-4.6-3-7.7-7.59-7.69A7.3,7.3,0,0,0,443.63,347.69Zm15.77-12.42c.14-1.59.2-1.64-.24-2.13-2.56-2.8-5.33-5.57-9.43-5.22-4.55.38-7.68,3.25-9.88,7.12-.44.77-.88,2,.11,2.44s1-1,1.43-1.6.84-1.23,1.26-1.85c3.58-5.19,9.1-6,13.9-1.88A33.76,33.76,0,0,1,459.4,335.27Zm-38.91,4.38c.92-1.49.14-2.35-.57-3.12-6-6.5-15.6-4.66-18.75,3.58-.25.65-.89,1.65,0,2,1,.39.88-.88,1.11-1.48,2.55-6.68,9.82-8.51,15.19-3.8C418.46,337.68,419.4,338.62,420.49,339.65Zm11.38,35a5.68,5.68,0,0,0-5.55.83c.59.14.82.27,1,.23C428.85,375.34,430.36,375,431.87,374.62Z" transform="translate(-329.67 -200.73)"/><path class="6f311f48-9202-49c1-ab74-93a7464c4833" d="M382.23,398.9a64.79,64.79,0,0,0,19.54,7c14.66,2.55,29,2,42.69-4.55a2.69,2.69,0,0,1,3.09.36c4.3,2.8,5.69,6.71,6.15,11.69,1.62,17.82,3.05,35.66,5.47,53.4.26,1.92-.12,2.88-2.08,3.7a142.69,142.69,0,0,1-49.25,10.63c-6.28.27-12.15-1.58-17.92-3.83-1.11-.43-1.2-1.19-1.31-2.13-1.09-10-2.32-20-3.27-30q-2-21.26-3.11-42.59C382.18,401.49,382.23,400.42,382.23,398.9Z" transform="translate(-329.67 -200.73)"/><path class="f8f3f5a2-00a6-41d4-81b5-7409ffd35aeb" d="M429.28,506.2c-9.08,0-18.16-.05-27.24,0-1.92,0-2.6-.34-2.29-2.43a153.46,153.46,0,0,0,1.53-15.65c0-.93,0-1.64,1.5-1.6a136.08,136.08,0,0,0,46.12-7l1.42-.46c4.11-1.4,4.1-1.4,4.89,3,1.28,7.12,2.54,14.24,3.88,21.35.38,2,.19,2.89-2.32,2.84C447.62,506.09,438.45,506.2,429.28,506.2Z" transform="translate(-329.67 -200.73)"/><path class="f0fdd52f-5860-4f70-a540-69c470b98ee5" d="M474.76,263.16c-.84,1.83-1.47,3.08-2,4.38a1.5,1.5,0,0,1-1.73,1,1.57,1.57,0,0,1-1.61-1.21A61.73,61.73,0,0,0,465,256.81c-.55-1-.25-1.45.64-1.94,1.11-.61,1.47.07,1.84.87l3.79,8.28c1.49-2.56,2.17-4.84.3-7.26-.63-.81-1.11-1.58.31-2.33s1.56.27,1.94,1c1.44,2.79,2.86,5.6,4.42,8.69a31.24,31.24,0,0,0,2.37-8.09c.24-1.19.62-1.47,1.78-1.35,1.46.15,1,1.06.85,1.8a66.14,66.14,0,0,1-3.3,11.22,1.43,1.43,0,0,1-1.63,1.12c-.81,0-1.4-.13-1.7-1.06C476.15,266.38,475.52,265,474.76,263.16Z" transform="translate(-329.67 -200.73)"/><path class="f0fdd52f-5860-4f70-a540-69c470b98ee5" d="M415.18,241.49c1.57.44,2.65.82,3.76,1s1.63.47,1.32,1.77c-.36,1.48-1.26,1-2.11.79-1.45-.36-2.87-.87-4.33-1.13-1.07-.19-2.91-1.6-2.54,1.34.11.85-1,.55-1.62.68-.84.19-.91-.44-1-1.06-.34-4-.67-7.95-1.06-11.92-.1-1,.21-1.3,1.18-1.39a24,24,0,0,1,6,0c2.4.39,4.34,1.31,4.86,3.92.48,2.45-1.06,3.85-2.91,5C416.37,240.8,416,241,415.18,241.49Zm-4.56-5c.37,4.13.37,4.14,4,2.25a11.23,11.23,0,0,0,1.85-1.23,1.35,1.35,0,0,0,.5-1.54c-.43-1.4-3-2.21-5.52-1.84C409.39,234.4,411,235.79,410.62,236.47Z" transform="translate(-329.67 -200.73)"/><path class="73c9ea8d-695d-4c3f-83d5-ac1ec3a4e3da" d="M470.79,238.8a8.83,8.83,0,0,1-9,8.41A6.92,6.92,0,0,1,455,240a9,9,0,0,1,8.93-8.57A7,7,0,0,1,470.79,238.8Zm-13.1,1.2a4.11,4.11,0,0,0,4.25,4.46,6.11,6.11,0,0,0,6.23-5.8,4.26,4.26,0,0,0-4.28-4.5A6.18,6.18,0,0,0,457.69,240Z" transform="translate(-329.67 -200.73)"/><path class="08eb42e1-909e-40c6-bd4f-846985a673b0" d="M494.06,247.34c-5.15,0-8.52-3.34-8.22-7.94a7.29,7.29,0,0,1,8.1-6.67c.69.07,1.75-.09,1.61,1-.1.76-.22,1.82-1.65,1.68-2.51-.25-4.48.79-5.18,3.28a4.71,4.71,0,0,0,1.94,5.28c1.35,1,5.77,1.07,7,.19.81-.58.34-1.37.34-2.06s-.58-.9-1.22-.81c-1.07.14-2.15.27-3.21.46s-1.51-.07-1.72-1.16.39-1.39,1.33-1.51c2.23-.27,4.45-.59,6.68-.87.54-.07,1.27-.39,1.53.35s.72,1.53-.09,2-.57.89-.6,1.45c-.19,4.37-.32,4.51-4.72,5.17C495.24,247.31,494.48,247.31,494.06,247.34Z" transform="translate(-329.67 -200.73)"/><path class="08eb42e1-909e-40c6-bd4f-846985a673b0" d="M354.53,254.18a7,7,0,0,1,7.18,7.24,8.77,8.77,0,0,1-8.77,8.41,6.88,6.88,0,0,1-7.08-7.08C345.79,258.32,349.93,254.22,354.53,254.18Zm0,2.61a6.25,6.25,0,0,0-5.92,6.15,4.13,4.13,0,0,0,4.48,4.26c3.2-.14,6-2.89,6-5.86A4.42,4.42,0,0,0,354.51,256.79Z" transform="translate(-329.67 -200.73)"/><path class="73c9ea8d-695d-4c3f-83d5-ac1ec3a4e3da" d="M362.35,237.07a15.55,15.55,0,0,0,.55,6.21c.22,1.05.35,1.68-1,2-1.46.37-1.51-.66-1.67-1.5a56.73,56.73,0,0,1-.91-10.18c0-.7-.54-1.85.83-1.93,1-.06,2.08-.39,2.75,1a42.31,42.31,0,0,0,5.41,8c-.19-2.59-.33-4.51-.47-6.43-.07-.94-.57-1.94,1.12-2.13s1.49,1,1.56,1.88c.27,3.32.41,6.65.61,10,.05.91-.06,1.6-1.17,1.84a1.66,1.66,0,0,1-2.06-.78C366.2,242.42,364.35,239.9,362.35,237.07Z" transform="translate(-329.67 -200.73)"/><path class="08eb42e1-909e-40c6-bd4f-846985a673b0" d="M484.85,267.84c.59-3.33,1.25-6.91,1.84-10.51.16-1,.67-1.35,1.59-1.58,4.62-1.15,4.65-1.18,6.17,3.46.88,2.67,1.64,5.38,2.4,8.08.21.76.94,1.78-.73,2-1.14.15-1.67-.15-1.87-1.3s-.07-2.81-1.2-3a10.52,10.52,0,0,0-4.6.77c-1.26.42-.71,1.88-1,2.85s-.81,1-1.64,1C484.77,269.51,484.52,269,484.85,267.84Zm5.08-5.09c.67-.4,2.5.33,2.34-1.22-.12-1.14,0-3.32-1.78-3.33-2.38,0-1.42,2.33-1.88,3.65C488.24,262.91,489,262.89,489.93,262.76Z" transform="translate(-329.67 -200.73)"/><path class="08eb42e1-909e-40c6-bd4f-846985a673b0" d="M432,268.31c.69-3.83,1.39-7.34,1.93-10.87.37-2.4,2.43-1.51,3.72-2.07,1.85-.8,3-.25,3.5,1.9.84,3.38,2,6.67,3,10,.16.59.92,1.68-.56,2-1.1.2-1.83.17-2.07-1.3-.17-1,0-2.81-1.25-3a10.9,10.9,0,0,0-4.62.83c-.95.33-.76,1.57-.87,2.43s-.4,1.51-1.55,1.38S431.74,269,432,268.31Zm5.17-5.58c.65-.35,2.49.37,2.36-1.15-.09-1.16,0-3.38-1.92-3.36-2.36,0-1.18,2.43-1.8,3.68C435.38,262.8,436.16,262.94,437.18,262.73Z" transform="translate(-329.67 -200.73)"/><path class="73c9ea8d-695d-4c3f-83d5-ac1ec3a4e3da" d="M430.18,264.67c.07,1.16.13,1.83.14,2.49,0,1-.83.83-1.43,1s-1.15,0-1.18-.83c0-.33,0-.66-.06-1-.3-3.37-.29-3.31-3.54-3-1.71.18-2.59.7-2,2.62.25.9.53,2-1.09,2.18s-1.47-1-1.55-1.86c-.3-3.22-.53-6.45-.76-9.68-.06-.86-.37-1.79,1.16-1.89s1.42.91,1.45,1.89c0,.42,0,.83.07,1.24.28,3.32.28,3.23,3.68,2.83,1.82-.22,2.45-.91,2-2.7a10.64,10.64,0,0,1-.22-2.48c0-.77-.35-1.67,1.05-1.74,1.21-.06,1.55.33,1.62,1.5C429.61,258.55,429.94,261.86,430.18,264.67Z" transform="translate(-329.67 -200.73)"/><path class="f0fdd52f-5860-4f70-a540-69c470b98ee5" d="M478.53,245.83c-5.39.18-6.69-1.2-6.16-6.59.2-2.07.63-4.12.77-6.19.09-1.29.67-1.46,1.75-1.41,1.48.06,1,1,.89,1.77-.3,2.48-.64,4.95-1,7.42-.22,1.65.35,2.54,2.16,2.45,5.57-.28,5.81,1,4.85-5.56-.22-1.48-.48-3-.77-4.42-.15-.75-.52-1.5.76-1.55.85,0,1.66-.22,1.84,1a69.76,69.76,0,0,1,1.18,8.14c.09,3.81-.74,4.72-4.56,4.91C479.69,245.86,479.11,245.83,478.53,245.83Z" transform="translate(-329.67 -200.73)"/><path class="08eb42e1-909e-40c6-bd4f-846985a673b0" d="M453.3,242.16c0,.17.07,1,.22,1.82.18,1-.18,1.35-1.16,1.38s-1.52,0-1.54-1.06a4.53,4.53,0,0,0,0-.5c-.48-3.67-1.09-4-4.7-3-1.72.5-.76,1.77-.78,2.68,0,1.08.11,2-1.44,1.9-.85,0-1.15-.3-1.21-1.14q-.4-5.22-.89-10.43c-.1-1,0-1.7,1.32-1.79s1.29.66,1.34,1.52c0,.41.1.82.14,1.24.37,3.58.36,3.5,4,3,1.39-.17,1.9-.6,1.68-2-.16-1-.12-2-.24-3s-.2-1.75,1.24-1.79,1.4.73,1.46,1.71C452.81,235.71,453,238.61,453.3,242.16Z" transform="translate(-329.67 -200.73)"/><path class="f0fdd52f-5860-4f70-a540-69c470b98ee5" d="M514.22,242.33c0,.66.07,1.33.14,2,.1,1-.61,1-1.29,1s-1.36.06-1.36-.93a4.63,4.63,0,0,0,0-.75c-.18-1.11.37-2.84-.71-3.16a8.91,8.91,0,0,0-4.38.41c-1.18.3-.34,1.41-.48,2.14s.89,2-.9,2.29-1.68-.82-1.77-1.9c-.26-3.23-.49-6.46-.78-9.69-.1-1.08.09-1.67,1.37-1.74s1.2.77,1.24,1.59c0,.42,0,.83.08,1.24.32,3.52.3,3.39,3.87,3,1.7-.18,2.11-.79,1.82-2.33-.19-1-.18-2-.28-3-.09-.83,0-1.44,1.09-1.46s1.52.07,1.59,1.27C513.62,235.71,514,239,514.22,242.33Z" transform="translate(-329.67 -200.73)"/><path class="73c9ea8d-695d-4c3f-83d5-ac1ec3a4e3da" d="M378.46,237.35c.84,0,1.51-.05,2.17-.11,1-.08,1,.56,1.05,1.27s.1,1.33-.92,1.37-2.31.28-3.47.33c-.95,0-1.3.34-1.25,1.34s.45,1.48,1.52,1.31,2-.19,3-.4,1.56-.34,1.77.93c.18,1.07-.13,1.57-1.13,1.74l-.24.05c-6.49,1.77-7.28,1.21-7.65-5.39-.13-2.24-.22-4.49-.43-6.72-.1-1,.12-1.54,1.26-1.56,2,0,4-.16,6-.31,1-.08,1.22.42,1.29,1.31s-.28,1.36-1.24,1.32a13.23,13.23,0,0,0-1.74.09c-1.41.12-3-.23-2.7,2.27S377.67,237,378.46,237.35Z" transform="translate(-329.67 -200.73)"/><path class="73c9ea8d-695d-4c3f-83d5-ac1ec3a4e3da" d="M401,231.23c.92,0,1.83.06,2.74,0,1.17-.09,1.06.7,1.15,1.44s-.25,1.19-1.1,1.18-1.67.18-2.49.12c-1.78-.12-2.18.67-2.08,2.35.11,2,1.34,1.13,2.26,1.11.75,0,1.49-.1,2.24-.16s1.46-.07,1.52,1.06-.07,1.58-1.25,1.6-2.15.28-3.23.3-1.2.53-1.16,1.42.36,1.38,1.35,1.23,2-.21,3-.36c.78-.12,1.57-.66,1.9.72s-.3,1.8-1.44,2l-.25,0c-6.38,1.47-6.89,1.1-7.3-5.3-.08-1.25-.11-2.49-.17-3.74C396.37,231.53,396.36,231.53,401,231.23Z" transform="translate(-329.67 -200.73)"/><path class="08eb42e1-909e-40c6-bd4f-846985a673b0" d="M461.87,301.71a1.18,1.18,0,0,1-1-.63,1.2,1.2,0,0,1,.39-1.55c.84-.8,1.78-1.49,2.63-2.28a44,44,0,0,0,12.8-20.94c.29-1,.39-2.43,1.92-2s.77,1.83.52,2.73A46.18,46.18,0,0,1,464,300.51C463.36,301,462.8,301.73,461.87,301.71Z" transform="translate(-329.67 -200.73)"/><path class="73c9ea8d-695d-4c3f-83d5-ac1ec3a4e3da" d="M388.87,241.62c1.33-3.19,2.54-6,3.67-8.86.36-.9.68-1.45,1.77-.95s1.18,1,.71,1.94a65.17,65.17,0,0,0-4.09,11,1.83,1.83,0,0,1-1.73,1.44c-1,.19-1.32-.34-1.69-1.07a59.15,59.15,0,0,1-4.35-11.38c-.27-1-.09-1.5,1-1.79s1.42.19,1.67,1.16A42.45,42.45,0,0,0,388.87,241.62Z" transform="translate(-329.67 -200.73)"/><path class="9d479fc4-0796-436c-b3f4-7e05d78c79ac" d="M505.22,264c0,1.43,0,2.59,0,3.76,0,.88-.13,1.39-1.18,1.43s-1.54-.24-1.49-1.35c0-.74-.2-1.51-.12-2.24.48-4.29-.84-7.56-5-9.38-.87-.38-1.23-.94-.5-1.93s1.17-1,2-.31a5.38,5.38,0,0,0,.61.43c1.23.85,2.39,2.24,3.71,2.41s2.28-1.64,3.36-2.59c.8-.71,1.3-.7,2.06.08s.53,1.4-.25,2c-.07,0-.12.12-.19.17C505.44,258.4,503.83,260.78,505.22,264Z" transform="translate(-329.67 -200.73)"/><path class="08eb42e1-909e-40c6-bd4f-846985a673b0" d="M367.72,262.82c1.58-.11,2.7-.46,2.78,1.28s-1.3,1.22-2.08,1.27c-1.73.13-2.63.69-2.09,2.58.3,1,.14,1.73-1.21,1.81s-1.34-.58-1.41-1.5c-.26-3.47-.54-6.95-.87-10.41-.1-1.07.24-1.52,1.33-1.54q3,0,6-.23c.86-.05,1.23.23,1.2,1.09s.22,1.57-1,1.57c-.75,0-1.5.12-2.24,0-1.88-.19-2.59.37-2.42,2.45S367,262.91,367.72,262.82Z" transform="translate(-329.67 -200.73)"/><path class="9d479fc4-0796-436c-b3f4-7e05d78c79ac" d="M439.17,231.71c.49-.09.95.17,1,1.2s-.29,1.54-1.34,1.5c-2.45-.09-3.27.94-2.81,3.44.41,2.19.26,4.48.46,6.72.09,1.06-.2,1.5-1.3,1.59s-1.4-.5-1.45-1.46c-.13-2.58-.37-5.15-.44-7.73,0-1.36-.37-2-1.86-1.68-1,.21-2.2.52-2.26-1.28s1.28-1.16,2.09-1.28C433.8,232.34,436.28,232.07,439.17,231.71Z" transform="translate(-329.67 -200.73)"/><path class="73c9ea8d-695d-4c3f-83d5-ac1ec3a4e3da" d="M454.41,254.52c1.11-.31,1.32.2,1.42,1s.1,1.69-.94,1.58c-3.73-.38-3.33,2-3.09,4.37.19,1.82.29,3.65.38,5.47,0,.84.38,1.84-1.16,1.9-1.36.05-1.44-.65-1.48-1.66-.11-2.49-.36-5-.4-7.47,0-1.53-.47-2.13-2.06-1.71-.76.2-1.77.79-2-.82s.52-1.69,1.63-1.8C449.32,255.09,452,254.79,454.41,254.52Z" transform="translate(-329.67 -200.73)"/><path class="73c9ea8d-695d-4c3f-83d5-ac1ec3a4e3da" d="M526.51,233.1c.26,1.27-.6,1.32-1.34,1.29-2.79-.12-3.19,1.35-2.81,3.72.33,2.12.26,4.3.43,6.46.08,1-.17,1.52-1.29,1.6s-1.3-.6-1.34-1.52c-.12-2.49-.43-5-.42-7.46,0-1.65-.49-2.21-2.13-1.89-.79.15-1.81.6-2-1s.75-1.49,1.78-1.61q3.71-.4,7.41-.92C526,231.61,526.56,232,526.51,233.1Z" transform="translate(-329.67 -200.73)"/><path class="73c9ea8d-695d-4c3f-83d5-ac1ec3a4e3da" d="M417.05,256c.11,1.43-1.1,1.25-1.87,1.21-2.17-.12-2.64.82-2.36,2.82a59.33,59.33,0,0,1,.43,6.7c0,.84.65,2-1.14,2.13s-1.41-.94-1.47-1.91c-.15-2.48-.41-5-.43-7.45,0-1.56-.61-1.81-1.95-1.48-.9.22-2,.74-2.14-1s.9-1.51,1.85-1.63c2.47-.3,5-.47,7.41-.87C416.72,254.27,417,254.82,417.05,256Z" transform="translate(-329.67 -200.73)"/><path class="08eb42e1-909e-40c6-bd4f-846985a673b0" d="M396.92,255.57c.31,1.62-.76,1.64-1.5,1.58-2.63-.22-2.94,1.15-2.65,3.31s.33,4.48.49,6.72c.07.91,0,1.59-1.23,1.63s-1.37-.44-1.41-1.45c-.1-2.58-.41-5.15-.43-7.72,0-1.63-.56-2-2.08-1.66-.77.2-1.79.79-2-.85-.18-1.46.59-1.66,1.69-1.78,2.56-.27,5.14-.49,7.68-.9C396.78,254.25,396.85,255,396.92,255.57Z" transform="translate(-329.67 -200.73)"/><path class="73c9ea8d-695d-4c3f-83d5-ac1ec3a4e3da" d="M349.56,244.78c.28,1.18-.12,1.55-1.09,1.56-.8,0-1.49.08-1.56-1-.27-4.05-.55-8.1-.87-12.15-.1-1.22.74-1,1.45-1.15s1.17.21,1.23,1.07C349,237.06,349.29,241,349.56,244.78Z" transform="translate(-329.67 -200.73)"/><path class="73c9ea8d-695d-4c3f-83d5-ac1ec3a4e3da" d="M380.59,258a14.85,14.85,0,0,0,0-2c-.11-1,.26-1.32,1.23-1.31s1.37.09,1.44,1.15q.36,5.83.9,11.64c.1,1.09-.31,1.42-1.31,1.59-1.29.23-1.37-.59-1.44-1.43C381.12,264.61,380.88,261.55,380.59,258Z" transform="translate(-329.67 -200.73)"/><path class="9d479fc4-0796-436c-b3f4-7e05d78c79ac" d="M514.68,261.49c.13,1,.22,1.84-1.21,1.89-1.18,0-1.36-.47-1.43-1.44q-.26-3.35-.7-6.68c-.13-1,.29-1.31,1.19-1.44,1.07-.16,1.51.22,1.59,1.29C514.27,257.27,514.49,259.41,514.68,261.49Z" transform="translate(-329.67 -200.73)"/><path class="6c2210bd-ecbb-4fb3-81ca-e1d7fc6700a0" d="M513.74,268.83c-1.09.2-1.42-.46-1.55-1.53s.58-1.06,1.34-1.14c1.35-.15,1.4.78,1.55,1.67S514.53,268.82,513.74,268.83Z" transform="translate(-329.67 -200.73)"/><path class="f5c9d18b-6a7a-4cec-893c-fc3bd5f5db40" d="M436.17,360.28a14.44,14.44,0,0,0,.34,11.07c-6.84-1-12.83,1.19-18.54,4.44-1.66.94-2.5.34-2.91-1.24-.52-2-1-4-1.38-6.05s.7-3.67,2.49-4.73a18,18,0,0,1,6.35-2.07C427.09,360.94,431.64,359.94,436.17,360.28Z" transform="translate(-329.67 -200.73)"/><path class="f5c9d18b-6a7a-4cec-893c-fc3bd5f5db40" d="M413.35,359.28c-4.71-.06-8.18-3.5-8.05-8a7.68,7.68,0,0,1,15.36.47A7.39,7.39,0,0,1,413.35,359.28Z" transform="translate(-329.67 -200.73)"/><path class="4a34e300-f953-43bc-93cf-0360889c150e" d="M443.63,347.69a7.3,7.3,0,0,1,7.51-7.56c4.55,0,7.61,3.09,7.59,7.69a7.9,7.9,0,0,1-8,7.8C447.07,355.55,443.62,351.68,443.63,347.69Z" transform="translate(-329.67 -200.73)"/><path class="6c2210bd-ecbb-4fb3-81ca-e1d7fc6700a0" d="M459.4,335.27a33.76,33.76,0,0,0-2.86-3.12c-4.79-4.09-10.31-3.31-13.9,1.88-.42.61-.81,1.26-1.26,1.85s-.39,2-1.43,1.6-.55-1.66-.11-2.44c2.2-3.87,5.33-6.74,9.88-7.12,4.1-.34,6.87,2.42,9.43,5.22C459.6,333.63,459.54,333.68,459.4,335.27Z" transform="translate(-329.67 -200.73)"/><path class="6c2210bd-ecbb-4fb3-81ca-e1d7fc6700a0" d="M420.49,339.65c-1.09-1-2-2-3-2.85-5.37-4.71-12.64-2.88-15.19,3.8-.23.61-.06,1.87-1.11,1.48-.88-.32-.24-1.33,0-2,3.14-8.24,12.78-10.08,18.75-3.58C420.63,337.3,421.41,338.16,420.49,339.65Z" transform="translate(-329.67 -200.73)"/><path class="9f10e0ad-7632-4650-a9ef-bcf3e42644ca" d="M431.87,374.62c-1.51.36-3,.72-4.53,1.06-.19,0-.43-.09-1-.23A5.68,5.68,0,0,1,431.87,374.62Z" transform="translate(-329.67 -200.73)"/><path class="cbe296b2-e76c-4e78-8066-55662ccc5184" d="M410.62,236.47c.39-.68-1.23-2.07.84-2.37,2.53-.36,5.1.45,5.52,1.84a1.35,1.35,0,0,1-.5,1.54,11.23,11.23,0,0,1-1.85,1.23C411,240.61,411,240.6,410.62,236.47Z" transform="translate(-329.67 -200.73)"/><path class="a770faba-2fcd-4b24-9d78-1dbf655ea81f" d="M457.69,240a6.18,6.18,0,0,1,6.2-5.84,4.26,4.26,0,0,1,4.28,4.5,6.11,6.11,0,0,1-6.23,5.8A4.11,4.11,0,0,1,457.69,240Z" transform="translate(-329.67 -200.73)"/><path class="a770faba-2fcd-4b24-9d78-1dbf655ea81f" d="M354.51,256.79a4.42,4.42,0,0,1,4.55,4.55c0,3-2.8,5.72-6,5.86a4.13,4.13,0,0,1-4.48-4.26A6.25,6.25,0,0,1,354.51,256.79Z" transform="translate(-329.67 -200.73)"/><path class="d98144ae-7531-4f6f-9cb8-ed4c0be40988" d="M489.93,262.76c-.94.13-1.68.16-1.31-.91.46-1.32-.51-3.67,1.88-3.65,1.81,0,1.66,2.19,1.78,3.33C492.43,263.09,490.6,262.36,489.93,262.76Z" transform="translate(-329.67 -200.73)"/><path class="d98144ae-7531-4f6f-9cb8-ed4c0be40988" d="M437.18,262.73c-1,.21-1.8.07-1.35-.84.62-1.25-.56-3.65,1.8-3.68,1.91,0,1.82,2.21,1.92,3.36C439.67,263.1,437.83,262.38,437.18,262.73Z" transform="translate(-329.67 -200.73)"/></svg>