<svg id="d44d2184-08e5-43fb-9d0c-c09e36ff9e33" data-name="Capa 1" xmlns="http://www.w3.org/2000/svg" viewBox="0 0 213.64 309.75"><defs><style>.b458b351-6bfa-4cd8-b3bd-f02c8fb55bba{fill:#171818;}.\34 de8111f-5cfb-46b7-9d0f-a92e922544c3{fill:#fdfdfd;}.d5832c2e-e525-4223-84fc-e1b47d861410{fill:#161615;}.e57ced62-30be-49de-9f1e-cb381d43ec24{fill:#202121;}.f11cc33a-7de0-4ce7-a39e-3516bd7c7e14{fill:#1e1e1e;}.e5d88073-d8ea-431d-8525-673bed42ede8{fill:#1b1c1c;}.d56ffcbf-2716-47d9-8582-c9148d934db3{fill:#252526;}.\39 0ee681b-adfc-4c75-a0dc-8d4f091446b5{fill:#95b4c7;}.\35 4d3aca3-5ae1-4f96-8fb6-90272090c56e{fill:#544435;}.\36 0fea037-61e9-4b99-bfe1-7edcaf50f840{fill:#f7cca0;}.d7488924-7875-4f26-8394-873d9bcfbb15{fill:#509541;}.ca089591-5bb7-4b6e-a204-b0a267195800{fill:#eeeeed;}.e175f4fb-ae32-4773-bbd7-1e5a8c1b9410{fill:#f6f6f5;}.c9d765d3-4c01-408f-8fbe-7077e4f5af7b{fill:#e9e8e8;}.c56d6a26-5170-48fb-8c51-3bbe5eada9a2{fill:#1a140d;}</style></defs><title>card-17</title><path class="b458b351-6bfa-4cd8-b3bd-f02c8fb55bba" d="M543.2,355.51q0,71.62,0,143.25a20.76,20.76,0,0,1-.3,4.22c-1,4.71-3.83,7.25-8.6,7.52-.66,0-1.33,0-2,0H340.55c-7.65,0-11-3.26-11-11q0-144,0-288c0-7.22,2.8-10.18,9.92-10.64,1.08-.07,2.16-.14,3.24-.14H530c1.41,0,2.83.08,4.24.16,5.42.32,8.53,3.39,8.95,8.83.06.83,0,1.67,0,2.5Q543.21,283.88,543.2,355.51Zm-209.47.06q0,71.49,0,143c0,6.21,1.46,7.69,7.58,7.69H531.55c5.88,0,7.43-1.51,7.43-7.34q0-143.36,0-286.72c0-5.56-1.54-7.15-7.13-7.15q-95.37,0-190.73,0c-6.09,0-7.38,1.33-7.38,7.3Q333.73,284,333.74,355.57Z" transform="translate(-329.58 -200.77)"/><path class="4de8111f-5cfb-46b7-9d0f-a92e922544c3" d="M333.74,355.57q0-71.62,0-143.24c0-6,1.29-7.3,7.38-7.3q95.37,0,190.73,0c5.58,0,7.13,1.59,7.13,7.15q0,143.36,0,286.72c0,5.83-1.55,7.34-7.43,7.34H341.32c-6.12,0-7.58-1.48-7.58-7.69Q333.74,427.06,333.74,355.57ZM369,316.62c1.6.73,2.42.32,2.23-1.54.43-3.34,3.36-2.38,5.25-2.77,1.55-.32,1.15,1.65,1.48,2.61s.51,2.09,2,1.65.74-1.65.54-2.41c-.85-3.11-2-6.14-2.74-9.28-.56-2.56-1.89-2.89-4-2.16-1.36.47-3.19,0-3.45,2.38-.35,3.2-1,6.37-1.55,9.55-1-1.47-2.29-2-4-1.1a7.26,7.26,0,0,1-1.69.41c-1.39.33-2.17,0-2.16-1.65a57.22,57.22,0,0,0-.34-6.72c-.11-1,.63-2.77-1.61-2.57s-1,1.73-1,2.64c0,1.91.22,3.82.29,5.73.21,6.08.39,6.17,6.45,5,1.29-.25,2.53-1.43,4-.47C368.33,316.32,368.41,316.57,369,316.62Zm74.77-27.05c-.24.26-.68.95-.81.48-.53-1.82-1.63-1.12-2.71-.85-.8.2-1.64.28-2.43.52-1.46.43-2.08.11-2.09-1.58,0-2.57-.3-5.14-.43-7.71,0-.93.11-1.8-1.39-1.66s-1.3.89-1.24,1.86c.21,3.48.44,7,.55,10.45,0,1.19.41,1.56,1.59,1.55a27.25,27.25,0,0,0,8.52-1.58l0,1c-.1.39.08.5.43.43,1.64.6,2.21-.22,2.41-1.71.09-.68-.2-1.73.7-2a12.8,12.8,0,0,1,4.63-.64c1.3.18,1,1.87,1.27,2.92s.57,1.63,1.83,1.32,1-.93.84-1.84a89.85,89.85,0,0,0-2.71-9c-1.19-3.68-1.21-3.73-5-2.84-.91.21-2.25-.08-2.47,1.53C444.78,283.37,444.23,286.46,443.73,289.57Zm58.48,1c-1-1.88-2.38-1.93-4.1-1.1a13.94,13.94,0,0,1-1.7.3c-1.61.53-2-.23-2.06-1.69-.08-2.57-.27-5.13-.42-7.7,0-.83,0-1.66-1.29-1.57s-1.47.63-1.39,1.74c.24,3.31.47,6.62.53,9.93,0,1.71.59,2.22,2.32,2.21,2.74,0,5.25-1.26,8-1.2-.6,1.58.69,1.08,1.35,1.19,1.08.18,1.29-.61,1.27-1.38-.09-3.68,3-2.7,4.84-3.07,2.09-.41,1.42,1.74,1.89,2.78.36.81.28,1.81,1.7,1.51,1.58-.34,1.19-1.32.91-2.26-.85-2.86-1.72-5.71-2.64-8.55-1.24-3.81-1.27-3.82-5.2-2.92-1,.23-2.13.2-2.34,1.72C503.38,283.82,502.77,287.17,502.21,290.52Zm-92,141c.57,4.29,1.14,8.58,1.73,12.86.18,1.33.62,2.62,2.31,2.2,1.46-.36,1.35-1.54,1.17-2.82a263.11,263.11,0,0,1-2.8-36.08c0-1.1,0-2,1.19-2.71a32.59,32.59,0,0,0,11.64-13.43c5-10,5.8-20.42,1.14-30.61-5.08-11.1-14.15-17.7-26.19-19.79-11-1.91-21.78-1.39-31.52,4.93-8.57,5.56-13.81,13.33-14.83,23.65-.89,9,1.81,17.08,6.68,24.54.58.88,1.39,1.61.89,2.9A90.31,90.31,0,0,0,357,415.8a276.55,276.55,0,0,0-2.75,29.58c-.07,1.35.07,2.67,1.79,2.68s1.7-1.22,1.75-2.48c.12-3.24.3-6.49.5-9.73a5,5,0,0,1,.89-3.26c0,4.84.65,9.1,1,13.37.3,3.83,1.23,7,5.39,8.22,1.12.32,1.22,1.1,1,2.14-.59,2.94-1,5.9-1.63,8.83a173,173,0,0,1-6.26,22.56c-.4,1.14-.53,2.22.74,2.75s2.17-.27,2.62-1.52c.2-.55.4-1.09.59-1.64A197.44,197.44,0,0,0,369.55,460c.2-1.15.06-2.62.73-3.35.91-1,2.19.32,3.35.45a86,86,0,0,0,27.33-.79c1.31-.27,1.73-.13,1.83,1.3.42,6,1,11.95,1.44,17.92.29,4.15.39,8.32.59,12.48.06,1.22.54,2.15,1.95,2s1.57-1,1.56-2.14c0-.42,0-.83,0-1.25-.28-9.49-.86-19-2-28.4-.26-2.19,0-3.64,2.57-3.88,1.65-.15,2.08-1.3,1.93-2.88-.43-4.64-.76-9.29-1.13-13.94C410.25,435.59,409,433.46,410.2,431.55Zm119.07-.66c-.33-.57-.7-1.11-1-1.69-3.84-7.75-7.7-15.48-11.47-23.25C514.92,402,515,402,518,398.72c.62-.67,1.23-1.36,1.81-2.07,12.67-15.69,10.84-35.71-4.77-48-9.93-7.79-21.8-9.85-33.86-7.82-25,4.22-33.9,28.73-26.24,47.56a44.43,44.43,0,0,0,5.86,10.21c-9,1.58-17.66,2.6-26.35,3.41-1.06.1-2.4.47-3.15,0-1-.63.07-1.94,0-3s-.23-1.86-1.38-2a1.7,1.7,0,0,0-2.13,1.57c-.23,1.56-.37,3.14-.51,4.71-.19,2,.63,2.86,2.77,2.67,10.2-.9,20.38-1.93,30.47-3.72,1.48-.26,1.85-.05,1.8,1.5-.53,14.73-1,29.46-1.46,44.19-.18,5.23-.37,4.47,4,5.9,1.55.51,1.76,1.17,1.58,2.69-1.21,10.09-1.77,20.24-2.09,30.39,0,1.36-.13,3,1.71,3s1.77-1.55,1.81-2.9c.3-9.82.88-19.63,1.92-29.4.18-1.7.5-2.16,2.39-1.73,10,2.29,20.15,3.15,30.37,1.36.73,3.69,1.43,7.45,2.21,11.19a168.1,168.1,0,0,0,5.71,20.13c.35,1,.73,2.1,2.17,2a1.55,1.55,0,0,0,1.51-1.41,5.53,5.53,0,0,0-.46-2.16,175.49,175.49,0,0,1-7.32-28.46c-.34-2-.18-3.35,2-4,1.73-.48,2.44-1.69,2.42-3.56,0-3.08.17-6.16.25-9.24.3-11.58.52-23.15.24-34.73,0-.93-.48-2.1.77-3,.42.82.78,1.46,1.09,2.13q5.53,12,11.6,23.73c2.68,5.19,3.58,5.4,8.49,1.94.34-.24.66-.51,1-.73,1-.63,1.41-1.52.74-2.52s-1.84-1-2.82-.25S530.29,430,529.28,430.88ZM462.55,240.8c-.71-2.37-1.32-4.21-1.79-6.09a1.72,1.72,0,0,0-1.62-1.55c-1.08-.14-1.5.38-1.81,1.25a53.38,53.38,0,0,0-2.73,10.35c-.12.86-.39,1.64.93,1.8s1.59-.32,1.72-1.46a21.43,21.43,0,0,1,1.65-6.55c.78,2,1.52,3.65,2.09,5.38a2.14,2.14,0,0,0,2.07,1.47c1.05.12,1.09-.86,1.37-1.48.58-1.32,1.06-2.67,1.74-4.39l2.5,6.3c.32.8.53,1.47,1.76.94s1.12-1.13.69-2.09a48.53,48.53,0,0,1-3.4-10.93c-.18-1-.41-1.66-1.7-1.66s-1.38.88-1.56,1.76A26.18,26.18,0,0,1,462.55,240.8ZM356.67,262.16c.93,2.34,1.73,4.3,2.48,6.29.32.85.58,1.51,1.75,1s1.23-1,.74-2.07a46.28,46.28,0,0,1-3.4-10.89c-.19-1-.46-1.62-1.7-1.64s-1.39.8-1.58,1.71c-.46,2.2-.66,4.48-2,6.92-.68-2.35-1.29-4.24-1.77-6.16a1.63,1.63,0,0,0-1.68-1.43c-1.11-.12-1.46.44-1.76,1.28a48.89,48.89,0,0,0-2.66,10.08c-.11.83-.67,1.8.95,1.94,1.3.11,1.51-.47,1.66-1.53a16.84,16.84,0,0,1,1.7-6.28c.72,1.82,1.39,3.42,2,5.05a2.14,2.14,0,0,0,2,1.62c1.22.12,1.27-.86,1.57-1.57C355.53,265.21,356,263.89,356.67,262.16Zm124.77,30.61a12.76,12.76,0,0,0,5.84-1.05c2.88-1.49,3.28-4.73.73-6.67-.79-.6-1.33-.75-.61-2,1.24-2.08.45-3.85-1.77-4.82-2.63-1.16-5.23-.37-7.82.19-1,.22-.68,1-.65,1.59.18,3.07.41,6.14.61,9.22C478,292.79,478,292.79,481.44,292.76Zm-14.88-23.69a13.59,13.59,0,0,0,5.93-.89c3.41-1.44,3.93-4.79,1-7-.95-.7-.83-1-.35-1.85,1.14-2.11.43-3.81-1.81-4.8s-4.71-.37-7.09,0c-1.37.19-1.59.82-1.48,2,.3,3.22.74,6.45.75,9.67C463.5,268.73,464.47,269.6,466.57,269.07ZM423.1,292.76a16.52,16.52,0,0,0,4.29-.57c1.62-.58,3.12-1.26,3.45-3.2a3.64,3.64,0,0,0-1.92-4.21c-.91-.47-.59-.83-.28-1.5,1.24-2.66.38-4.35-2.45-5.29-2.19-.73-4.28,0-6.41.25-1.27.16-1.55.81-1.4,2,.34,3,.54,6,.76,9C419.39,292.82,419.37,292.82,423.1,292.76Zm-79.38,12.39c.24,3.29.46,6.26.69,9.24,0,.33.09.66.12,1,.07.75.06,1.5,1.14,1.57,2.84.18,5.67.21,8.27-1.11a3.74,3.74,0,0,0,.57-6.66c-.88-.65-1.17-.84-.51-1.94,1.17-1.94.46-3.68-1.61-4.68s-4-.56-6.11-.37S343,303.12,343.72,305.15Zm41.16-17.83c.74-.48,1.13-.75,1.54-1,1.88-1.18,3.31-2.64,2.78-5.08s-2.42-3.37-4.72-3.76a24,24,0,0,0-5.72-.1c-1.33.09-1.66.56-1.52,1.83.4,3.72.69,7.46,1,11.19.07.77,0,1.58,1.22,1.37.78-.14,1.76.05,1.46-1.35s.6-1.15,1.47-.91c1.92.53,3.86,1,5.78,1.51,1,.29,1.44-.08,1.71-1.12s-.13-1.27-1-1.46C387.67,288.18,386.49,287.78,384.88,287.32Zm-19.82-47.89a6.84,6.84,0,0,0,7,7.13,8.79,8.79,0,0,0,8.75-8.68,6.93,6.93,0,0,0-7.14-7A8.87,8.87,0,0,0,365.06,239.43Zm32.8-1.33a6.91,6.91,0,0,0-6.89-7.25,8.88,8.88,0,0,0-8.81,8.37c0,4.21,2.81,7.31,6.77,7.35A8.76,8.76,0,0,0,397.86,238.09ZM513,239.31a24.2,24.2,0,0,1-5.36-7.22c-.63-1.34-1.67-1.16-2.71-1.07-1.37.11-.81,1.24-.83,1.94a45,45,0,0,0,.81,9.91c.16.83,0,2.11,1.68,1.77s1.07-1.27.93-2.23c-.27-1.86-1-3.7-.58-6.1,2.1,3,3.95,5.53,5.7,8.13a1.61,1.61,0,0,0,2.05.74c1-.24,1.13-.77,1.09-1.6q-.31-5.35-.59-10.7c-.05-1-.37-1.48-1.52-1.38s-1.26.62-1.14,1.63C512.77,235.18,512.85,237.25,513,239.31Zm8.29,6.8a32.52,32.52,0,0,0,3.66-.67c4.75-1.42,6.27-6.07,3.29-10.05a10,10,0,0,0-9.36-4.12c-1.45.1-1.78.68-1.63,2a95.14,95.14,0,0,1,.85,9.93C518.12,245.68,519.12,246.32,521.29,246.11ZM444.9,268.69c1.42-.09,2.27-.07,3.08-.21,4.91-.87,7.28-4.67,5.54-8.82-1.64-3.91-6.82-6.52-11-5.66-1.17.24-1,.94-.9,1.65.26,3.4.64,6.79.79,10.19C442.55,267.93,443,269.27,444.9,268.69Zm47.27-22.46c1.19.27,1.54-.45,1.52-1.39-.08-3.69,3-2.7,4.86-3.07s1.5,1.71,1.84,2.79.62,1.83,2,1.45.87-1.42.64-2.2c-.87-3-1.81-6-2.76-9-1.05-3.33-1.08-3.37-4.54-2.53-1.16.28-2.67,0-2.93,2-.46,3.53-1.13,7-1.83,10.54C490.71,246,491.15,246.29,492.17,246.23Zm-72-1.18c-.06.37-.25,1.12,1,1.18.89,0,1.54.12,1.77-1.1.17-.9-.2-2.27.92-2.63a10.77,10.77,0,0,1,4.62-.74c1.22.17,1,1.88,1.25,3s.7,1.52,1.86,1.31c1.34-.24,1-1,.79-1.85-.83-3.91-2.3-7.62-3.49-11.42-.34-1.09-.84-1.22-1.82-.94a24.54,24.54,0,0,1-3.41.7,1.44,1.44,0,0,0-1.46,1.36C421.58,237.47,420.91,241.07,420.2,245.05Zm-67,32.32a13.16,13.16,0,0,0-8,2.45c-1.33.95-2.41,2.2-1.94,4s1.89,2.22,3.46,2.37c1.9.18,3.81.26,5.72.44a3.33,3.33,0,0,1,1.06.54,4,4,0,0,1-.63,1,8.52,8.52,0,0,1-4.33,1.78c-1.35.22-1,1.1-.93,1.87,0,1.06.84.87,1.46.76a12,12,0,0,0,5.64-2.47c1.16-.95,2-2.09,1.56-3.67s-1.72-2.2-3.18-2.37c-1.73-.2-3.49-.22-5.23-.39-.6-.06-1.49.19-1.67-.69s.67-1.08,1.19-1.43a9.42,9.42,0,0,1,5.69-1.51c1.19,0,2.18,0,2.09-1.62C355.14,276.63,353.75,277.67,353.24,277.37Zm49.12-37.75a18.46,18.46,0,0,1-.67-5.13c-.08-.9-.55-1.14-1.33-1-.57.1-1.49-.23-1.39.89.33,3.89.68,7.78,1,11.67.06.66.32,1.12,1.09,1,.6-.11,1.65.13,1.54-.8-.31-2.77,1.33-1.65,2.53-1.36q2.29.56,4.56,1.24c.93.28,1.51.22,1.84-.89s-.12-1.44-1.1-1.68c-2-.5-4.07-1.1-6.34-1.73,1.93-2.65,3.66-5.08,5.46-7.45.68-.89.77-1.41-.28-2.16s-1.41-.12-1.91.56C405.78,235,404.17,237.14,402.35,239.62Zm-9.1,72.71h0c-.24-3.07-.45-6.14-.74-9.21-.09-1,.24-2.26-1.59-2.07s-1,1.55-1.05,2.43a5.61,5.61,0,0,0,.21,2c.47,1.77-.4,2.27-2,2.48-3.33.45-3.32.51-3.68-2.77a10,10,0,0,1-.12-1.74c.07-1.07-.3-1.44-1.42-1.41s-1.29.69-1.21,1.61c.29,3.31.54,6.63.84,9.94.08.91-.19,2.08,1.53,1.84s1.27-1.35,1.06-2.21c-.48-1.95.42-2.54,2.15-2.56a6.78,6.78,0,0,0,1.73-.18c1.15-.32,1.5.23,1.56,1.24s.14,1.83.18,2.74.55,1.12,1.34,1c.62-.13,1.42,0,1.31-1.06C393.33,313.66,393.3,313,393.25,312.33Zm100.82-44.27c.15,0,.73,0,1.31-.06,4.17-.34,5.15-1.35,4.81-5.46-.21-2.55-.8-5.08-1.2-7.62-.16-1-.61-1.35-1.69-1.14-1.26.24-1.08.94-.9,1.82.32,1.54.63,3.09.86,4.65.74,5.08.27,5.54-4.87,5.21-1.67-.11-2.42-.77-2.17-2.48q.54-3.82,1-7.65c.09-.79.34-1.7-1-1.72-1,0-1.5.23-1.61,1.33-.23,2.39-.72,4.77-.83,7.17C487.51,267,488.68,268.1,494.07,268.06ZM391.6,253.56a14.12,14.12,0,0,0-7.13,2.17c-1.52,1-2.92,2.17-2.51,4.19.45,2.24,2.43,2.49,4.27,2.68,1.57.16,3.15.1,4.72.24.41,0,1.07,0,1.18.67s-.44.85-.82,1.13a9.09,9.09,0,0,1-4.15,1.55c-1.26.2-1,1.14-.89,1.93.09,1,.77.83,1.47.71a12.23,12.23,0,0,0,4.84-1.86c1.49-1,2.91-2.18,2.43-4.22s-2.38-2.39-4.12-2.6c-1.39-.17-2.82-.09-4.23-.11-.68,0-1.55,0-1.76-.65-.29-.87.67-1.24,1.25-1.63a11.27,11.27,0,0,1,5.44-1.55c1-.09,2.24.46,2.24-1.39C393.84,252.8,392.34,253.89,391.6,253.56ZM415,268.06c.26,0,1,0,1.75-.09,3.84-.4,4.77-1.4,4.45-5.31-.21-2.56-.77-5.09-1.19-7.62-.14-.86-.33-1.54-1.58-1.3s-1.23.95-1,2c.35,1.45.57,2.93.8,4.41.83,5.17.25,5.76-4.93,5.33-1.5-.12-2.33-.66-2.11-2.31q.54-3.95,1-7.9c.08-.71.31-1.56-.91-1.6-.88,0-1.61-.09-1.72,1.16-.22,2.48-.75,4.94-.85,7.42C408.54,267,409.69,268.09,415,268.06Zm57.67-30.35c.32,8.13.89,8.62,7.8,6.84.16,0,.33-.06.49-.09,1.06-.2.9-.94.82-1.73-.11-1.07-.63-1.15-1.53-.93s-2.14.31-3.2.49c-.89.14-1.4-.06-1.47-1.1s.07-1.59,1.26-1.61,2.31-.25,3.48-.33c1-.06.94-.7.89-1.4s-.18-1.35-1.12-1.25-1.65.2-2.48.25c-1,.07-2.3.76-2.4-1.32-.08-1.65.38-2.23,2-2.12a26.19,26.19,0,0,0,2.74-.2c.74,0,1.08-.36,1-1.09s.26-1.55-.79-1.51c-2.49.1-5.18-.2-7.37.68-1.18.48.14,3,0,4.66C472.62,236.54,472.67,237.13,472.67,237.71ZM357.61,282.14h-.06c.21,2.32.42,4.63.64,7,.09,1-.29,2.25,1.56,2.09s1.13-1.36,1-2.18c-.2-1.56,0-2.39,1.91-2.52,3.25-.23,3.24-.39,3.69,2.88,0,.25.09.49.1.74,0,1.06.71,1.08,1.54,1.07,1,0,1.23-.52,1.15-1.43-.34-3.89-.69-7.78-.94-11.68-.07-1.1-.6-1.14-1.45-1.14s-1.32.37-1.22,1.34c.12,1.16.06,2.33.2,3.48s-.13,1.72-1.49,1.9c-3.84.51-3.83.6-4.12-3.35,0-.25,0-.5-.06-.75-.07-.92,0-1.83-1.45-1.71s-1.42.8-1.27,1.83C357.49,280.48,357.53,281.31,357.61,282.14Zm110,2.08h-.07c-.11-1.91-.27-3.82-.32-5.73,0-1.1-.26-1.67-1.56-1.59s-1.24.75-1.15,1.66c.12,1.24.17,2.49.24,3.73,0,.62-.05,1-.82,1.26-3.76,1.19-4.47.76-4.82-3.07,0-.33-.09-.66-.1-1,0-1,0-1.78-1.48-1.66s-1.28.94-1.2,1.88c.29,3.15.54,6.3.87,9.44.09.84-.48,2.08,1.31,2s1.38-1.31,1.25-2.24c-.24-1.62.12-2.34,2-2.48,3.24-.25,3.23-.39,3.62,2.94a4.52,4.52,0,0,1,0,.5c0,1.14.65,1.32,1.65,1.26s1.18-.6,1.08-1.48C467.87,287.86,467.74,286,467.57,284.21Zm47.57-3.41h.07c.21,2.65.34,5.31.67,7.94.12.92-.5,2.55,1.56,2.42s1-1.62,1.09-2.56c.07-.62-.48-1.54.34-1.77a10.64,10.64,0,0,1,4.38-.6c1.23.21.63,1.81.89,2.79a2.36,2.36,0,0,1,0,.74c-.07,1,.32,1.45,1.45,1.41s1.24-.73,1.17-1.64c-.31-3.72-.62-7.45-.89-11.18-.07-.94-.17-1.53-1.39-1.48s-1.39.57-1.28,1.55.1,2,.28,3c.26,1.38.06,2.05-1.62,2.24-3.89.43-3.88.55-4.12-3.51a11.84,11.84,0,0,1,0-1.24c0-.89-.38-1.16-1.22-1.06s-1.53.09-1.4,1.22A15.68,15.68,0,0,1,515.14,280.81Zm-92.31-25.25c.3,3.57.64,7.46.94,11.35.07,1,.51,1.26,1.44,1.2s1.55-.26,1.24-1.3c-.7-2.32.46-3.08,2.53-3.32a8.85,8.85,0,0,0,2.57-.91c1.72-.8,3.3-1.88,3.11-4a4.88,4.88,0,0,0-3.7-4.5c-2.28-.7-4.61-.44-6.93-.39C422.89,253.66,422.56,254.23,422.83,255.56Zm83-2a5.33,5.33,0,0,1-1.28,0c-2.12-.31-2.74.56-2.45,2.63s.32,4.31.46,6.47c.36,5.74.6,5.93,6.34,4.89.49-.09,1-.29,1.45-.36.86-.12,1.41-.34,1.12-1.43-.24-.9-.42-1.53-1.6-1.22a24.59,24.59,0,0,1-3.2.49c-.82.1-1.46,0-1.49-1.1,0-.94,0-1.65,1.22-1.68s2.16-.16,3.24-.17,1.19-.59,1.15-1.47-.3-1.4-1.34-1.22c-.82.14-1.67.07-2.48.2-1.37.22-2.08,0-2.21-1.68-.15-1.87.85-1.8,2.07-1.79.66,0,1.33,0,2-.06.91,0,1.85.08,1.79-1.39s-.82-1.39-1.83-1.27C508.08,253.45,507.33,253.46,505.87,253.55ZM435.69,314c-1.33.1-1.34,1-1.24,2,.25,2.31.41,4.64.81,6.93,1.18,6.6,3.64,12.59,8.54,17.37.73.71,1.58,1.59,2.55.69s0-1.73-.71-2.42a26.89,26.89,0,0,1-6-9.38A46.81,46.81,0,0,1,436.94,316C436.87,315.15,437,314.07,435.69,314Zm-65.89-50.8c-1.3-3.19.41-5.44,3-7.35.77-.57,1.43-1.09.41-2.15s-1.47-.45-2.21.21c-3,2.68-3.05,2.66-6.47.23-.27-.19-.56-.36-.82-.57-.77-.61-1.37-1-2.16.16s-.15,1.69.72,2.06c4.15,1.77,5.12,5.15,4.83,9.23-.05.74.08,1.49.06,2.24s.17,1.38,1.23,1.36,1.51-.32,1.44-1.44S369.8,264.66,369.8,263.16Zm72.71-32c-2.23.26-4.78.54-7.33.85-.91.11-2.08-.19-1.92,1.5s1.19,1.3,2.13,1.08c1.6-.37,2,.32,2,1.79,0,2.57.31,5.13.43,7.7,0,1,.37,1.47,1.49,1.41s1.35-.57,1.26-1.59c-.18-2.06-.11-4.16-.41-6.2-.36-2.44-.21-4.24,2.95-4,1,.07,1.26-.44,1.15-1.4S443.84,230.92,442.51,231.21Zm-41.63,46.32-7.76,1c-.9.12-2.06-.27-1.93,1.45s1.26,1.29,2.13,1.11c1.61-.33,2,.3,2,1.8,0,2.58.31,5.15.44,7.73,0,.87.22,1.42,1.29,1.33s1.49-.37,1.39-1.51c-.2-2.24-.05-4.53-.44-6.73-.42-2.38.09-3.62,2.7-3.5.86,0,1.66,0,1.5-1.34C402,277.77,401.6,277.37,400.88,277.53Zm6-22.52c.05-.93-.37-1.28-1.5-1.12-2.54.37-5.1.61-7.66.89-1.07.12-1.9.26-1.63,1.77s1.34,1,2.06.83c1.64-.45,2,.21,2,1.71,0,2.4.26,4.8.4,7.21.06,1-.13,2,1.5,1.88s1.17-1.09,1.13-1.91c-.11-2.4-.18-4.82-.47-7.2-.22-1.82.27-2.62,2.2-2.53C405.8,256.58,407.15,256.87,406.88,255Zm70.24,6.74h.22c.12,1.91.25,3.81.34,5.72,0,.81.1,1.52,1.19,1.44a28.86,28.86,0,0,0,7.6-1.17c1-.35,1.1-.76.78-1.62s-.65-1.25-1.64-.93c-1.18.38-2.4.6-3.62.86s-1.78,0-1.79-1.44c0-2.74-.33-5.47-.42-8.21,0-1.14-.55-1.35-1.55-1.34s-1.11.67-1.1,1.47C477.14,258.26,477.12,260,477.12,261.75ZM354.61,237.38h.18a13.85,13.85,0,0,0,0,2.23c.36,2.15-.7,5.37,1,6.26,2.17,1.15,5.16.06,7.72-.71l.24-.06c.87-.17,1.3-.54,1-1.54s-.76-1.34-1.81-1-2.41.59-3.61.88-1.63,0-1.66-1.32c-.05-2.48-.22-5-.45-7.45-.08-.88.61-2.27-1.34-2.25s-1.23,1.27-1.25,2.22S354.61,236.47,354.61,237.38Zm84.68,27.92h0c-.23-3.31-.49-6.62-.69-9.94-.06-1.11-.59-1.37-1.6-1.32s-1.25.52-1.17,1.43c.32,3.89.62,7.78.88,11.67.07,1,.43,1.5,1.53,1.34.92-.13,1.36-.47,1.17-1.45A16.61,16.61,0,0,1,439.29,265.3Zm-65.07,23.62-.78-9.62c-.07-.85,0-1.68-1.36-1.52-1,.13-1.43.49-1.33,1.57.35,3.89.67,7.79.92,11.69.07,1.11.67,1.12,1.49,1.09s1.28-.23,1.17-1.15C374.26,290.42,374.27,289.83,374.22,288.92Zm-29.77-57.51c.08.91.23,2.07.28,3.23s.5,1.29,1.45,1.09c.72-.15,1.55,0,1.34-1.24s-.27-2.48-.37-3.73c-.08-1-.66-1.18-1.55-1S344.08,230.09,344.46,231.41Zm65.94,73.46c-.22-1.59-.35-2.49-.46-3.39s-.25-1.41-1.37-1.18c-.94.19-1.57.4-1.34,1.54.18.89.19,1.82.41,2.7.17.7-.54,2,1.2,1.81S410.54,305.41,410.4,304.88Zm-7.74-2.78c.67,1.12-1,3.43,1.35,4.29.69.26,2.18-.1,1.57-1.42-.68-1.49,1-3.84-1.56-4.52C403.29,300.25,402.23,300.36,402.66,302.09Zm-53.4-69.56a15.66,15.66,0,0,1,.24,1.88c0,1.08.5,1.33,1.56,1.26,1.23-.07,1.29-.7,1.15-1.62s-.16-1.65-.33-2.45.36-2.13-1.4-2S349.17,230.93,349.26,232.54Zm59.23,58.09c.1-.94-.36-1.55-1.71-1.5-1.13,0-1.11.64-1.1,1.46,0,1.25.7,1.51,1.78,1.45C408.23,292,408.79,291.86,408.48,290.62Zm-8.8,24.4c0-1-.36-1.71-1.58-1.55-.6.08-1.4-.18-1.28.93s.35,1.91,1.75,1.74C399.3,316.06,399.89,316,399.68,315Z" transform="translate(-329.58 -200.77)"/><path class="d5832c2e-e525-4223-84fc-e1b47d861410" d="M409.68,437.56c.37,4.65.7,9.3,1.13,13.94.15,1.58-.28,2.73-1.93,2.88-2.59.24-2.83,1.69-2.57,3.88,1.12,9.43,1.7,18.91,2,28.4,0,.42,0,.83,0,1.25,0,1.1-.28,2-1.56,2.14s-1.89-.83-1.95-2c-.2-4.16-.3-8.32-.59-12.48-.42-6-1-11.95-1.44-17.92-.1-1.43-.52-1.56-1.83-1.3a86,86,0,0,1-27.33.79c-1.16-.14-2.43-1.45-3.35-.45-.67.73-.52,2.2-.73,3.35a197.44,197.44,0,0,1-6.91,27.29c-.18.55-.39,1.1-.59,1.64-.45,1.25-1.23,2.11-2.62,1.52s-1.14-1.62-.74-2.75a173,173,0,0,0,6.26-22.56c.6-2.93,1-5.9,1.63-8.83.21-1,.1-1.81-1-2.14-4.16-1.2-5.09-4.39-5.39-8.22-.33-4.28-1-8.53-1-13.37a5,5,0,0,0-.89,3.26c-.2,3.24-.37,6.48-.5,9.73,0,1.26-.18,2.49-1.75,2.48s-1.86-1.33-1.79-2.68A276.55,276.55,0,0,1,357,415.8a90.31,90.31,0,0,1,4.59-18.6c.5-1.29-.31-2-.89-2.9-4.88-7.46-7.57-15.53-6.68-24.54,1-10.32,6.26-18.09,14.83-23.65,9.74-6.32,20.52-6.84,31.52-4.93,12,2.09,21.11,8.69,26.19,19.79,4.66,10.19,3.84,20.62-1.14,30.61A32.59,32.59,0,0,1,413.79,405c-1.17.74-1.19,1.61-1.19,2.71a263.11,263.11,0,0,0,2.8,36.08c.19,1.28.29,2.47-1.17,2.82-1.69.41-2.13-.88-2.31-2.2-.59-4.29-1.15-8.58-1.73-12.86a17.62,17.62,0,0,0-.85-7.11C409.3,428.82,408.94,433.21,409.68,437.56Zm16.22-64.15c.19-10-5-18.62-14.6-24.39-11.12-6.7-23.2-7.07-35.12-2.8-12.15,4.36-19.89,16.32-18.82,28.08,2.27,24.95,22.13,34.85,42.46,32.41C416.36,404.73,426.17,388.88,425.9,373.41Zm-19.17,35.37c-12.88,3.63-24.78,1.81-36.06-4.7-1.35-.78-2.72-2.79-3.88-2.29-1.32.58-1,2.93-1.36,4.51a103,103,0,0,0-1.67,40.4c.21,1.27,0,2.71,1.49,3.5,2.78,1.51,5.58,3,8.77,3.45a85.38,85.38,0,0,0,30.75-1.54c2.24-.52,2.63-1.46,2.4-3.53A166,166,0,0,1,406,423.63C406.21,418.73,406.49,413.84,406.73,408.78Z" transform="translate(-329.58 -200.77)"/><path class="d5832c2e-e525-4223-84fc-e1b47d861410" d="M529.28,430.88c1-.89,1.91-1.74,2.88-2.49s2.07-.87,2.82.25.25,1.89-.74,2.52c-.35.22-.67.49-1,.73-4.91,3.46-5.8,3.26-8.49-1.94q-6.07-11.74-11.6-23.73c-.31-.66-.66-1.3-1.09-2.13-1.26.88-.8,2-.77,3,.28,11.58.06,23.16-.24,34.73-.08,3.08-.29,6.16-.25,9.24,0,1.87-.68,3.08-2.42,3.56-2.2.61-2.36,2-2,4A175.49,175.49,0,0,0,513.67,487a5.53,5.53,0,0,1,.46,2.16,1.55,1.55,0,0,1-1.51,1.41c-1.44.13-1.82-.94-2.17-2a168.1,168.1,0,0,1-5.71-20.13c-.78-3.74-1.49-7.5-2.21-11.19-10.23,1.79-20.35.92-30.37-1.36-1.89-.43-2.21,0-2.39,1.73-1,9.78-1.63,19.58-1.92,29.4,0,1.35.1,3-1.81,2.9s-1.75-1.68-1.71-3c.32-10.16.88-20.3,2.09-30.39.18-1.52,0-2.18-1.58-2.69-4.36-1.43-4.18-.67-4-5.9.51-14.73.94-29.46,1.46-44.19.06-1.55-.32-1.76-1.8-1.5-10.09,1.79-20.27,2.82-30.47,3.72-2.14.19-3-.65-2.77-2.67.15-1.57.29-3.15.51-4.71a1.7,1.7,0,0,1,2.13-1.57c1.16.16,1.32,1,1.38,2s-1,2.35,0,3c.75.48,2.08.11,3.15,0,8.69-.81,17.36-1.83,26.35-3.41a44.43,44.43,0,0,1-5.86-10.21c-7.65-18.84,1.2-43.34,26.24-47.56,12.06-2,23.93,0,33.86,7.82,15.61,12.25,17.44,32.26,4.77,48-.57.71-1.19,1.4-1.81,2.07-3,3.27-3.08,3.3-1.18,7.21,3.78,7.78,7.64,15.51,11.47,23.25C528.58,429.77,528.94,430.31,529.28,430.88Zm-41.87-87.13a40.21,40.21,0,0,0-6.37.51c-25.83,5.81-31.59,32.76-18.63,50.63,5.54,7.64,13.53,10.8,22.71,11.9,15.68,1.88,29.18-5.07,36.33-19.12a28.36,28.36,0,0,0-5.75-33.89C507.93,346.41,498.38,344,487.41,343.75Zm-21.76,59.72c-.48,15.35-.93,30.24-1.42,45.12,0,1.26.53,1.68,1.64,2.05a80,80,0,0,0,22.76,4.1c5.74.17,11.52.31,16.84-2.51,1-.51,1.82-.88,1.85-2.3.36-13.72,1.14-27.44.57-41.18-.07-1.7-.32-2-2.09-1.35-11.74,4.5-23.41,4.39-34.88-1C469.28,405.67,467.75,404.66,465.65,403.46Z" transform="translate(-329.58 -200.77)"/><path class="e57ced62-30be-49de-9f1e-cb381d43ec24" d="M462.55,240.8a26.18,26.18,0,0,0,1.92-7c.18-.89.17-1.76,1.56-1.76s1.51.7,1.7,1.66a48.53,48.53,0,0,0,3.4,10.93c.43,1,.54,1.55-.69,2.09s-1.44-.14-1.76-.94l-2.5-6.3c-.67,1.72-1.16,3.07-1.74,4.39-.27.63-.32,1.6-1.37,1.48a2.14,2.14,0,0,1-2.07-1.47c-.58-1.73-1.31-3.4-2.09-5.38a21.43,21.43,0,0,0-1.65,6.55c-.14,1.14-.51,1.62-1.72,1.46s-1.05-.94-.93-1.8a53.38,53.38,0,0,1,2.73-10.35c.31-.87.73-1.39,1.81-1.25a1.72,1.72,0,0,1,1.62,1.55C461.23,236.59,461.84,238.43,462.55,240.8Z" transform="translate(-329.58 -200.77)"/><path class="f11cc33a-7de0-4ce7-a39e-3516bd7c7e14" d="M356.67,262.16c-.67,1.73-1.15,3.06-1.7,4.35-.3.71-.35,1.69-1.57,1.57a2.14,2.14,0,0,1-2-1.62c-.6-1.63-1.27-3.23-2-5.05a16.84,16.84,0,0,0-1.7,6.28c-.15,1.06-.36,1.64-1.66,1.53-1.62-.14-1.06-1.11-.95-1.94a48.89,48.89,0,0,1,2.66-10.08c.3-.84.65-1.4,1.76-1.28a1.63,1.63,0,0,1,1.68,1.43c.47,1.92,1.09,3.81,1.77,6.16,1.3-2.44,1.5-4.72,2-6.92.19-.92.22-1.74,1.58-1.71s1.5.61,1.7,1.64a46.28,46.28,0,0,0,3.4,10.89c.48,1,.38,1.6-.74,2.07s-1.43-.18-1.75-1C358.4,266.46,357.6,264.5,356.67,262.16Z" transform="translate(-329.58 -200.77)"/><path class="e5d88073-d8ea-431d-8525-673bed42ede8" d="M481.44,292.76c-3.44,0-3.44,0-3.67-3.51-.2-3.07-.43-6.14-.61-9.22,0-.6-.37-1.38.65-1.59,2.6-.55,5.19-1.34,7.82-.19,2.22,1,3,2.75,1.77,4.82-.72,1.21-.18,1.36.61,2,2.55,1.94,2.15,5.18-.73,6.67A12.76,12.76,0,0,1,481.44,292.76Zm2.12-6.15c-3.1,0-3.71.49-3.09,2.48s2.36.91,3.52.84,3.06-.17,2.87-1.94c-.16-1.51-1.85-1.3-3.06-1.38Zm-1.11-6.33c-.63.86-2.87-.8-2.55,1.73.09.76-.55,2.35,1.23,2,1.61-.3,3.61-.77,4-2.47S483.54,280.76,482.46,280.28Z" transform="translate(-329.58 -200.77)"/><path class="f11cc33a-7de0-4ce7-a39e-3516bd7c7e14" d="M466.57,269.07c-2.1.53-3.07-.34-3.08-2.92,0-3.23-.45-6.45-.75-9.67-.11-1.16.11-1.79,1.48-2,2.38-.32,4.73-1,7.09,0s3,2.68,1.81,4.8c-.47.88-.59,1.15.35,1.85,3,2.2,2.44,5.55-1,7A13.59,13.59,0,0,1,466.57,269.07Zm2.28-6.08a5.14,5.14,0,0,1-.69,0c-1.39-.05-2.25.09-2.07,2s1.33,1.46,2.4,1.4a11.25,11.25,0,0,0,2-.35c1-.23,2.21-.39,2.16-1.63-.05-1.45-1.4-1.36-2.46-1.45C469.81,263,469.48,263,468.84,263Zm-3.27-4.58c.43.56-.51,1.87.94,2s4.62-1.92,4.33-2.76c-.44-1.29-1.72-1.11-2.73-1S465.39,256.18,465.57,258.41Z" transform="translate(-329.58 -200.77)"/><path class="e5d88073-d8ea-431d-8525-673bed42ede8" d="M423.1,292.76c-3.73.06-3.71.06-4-3.52-.22-3-.42-6-.76-9-.14-1.23.13-1.88,1.4-2,2.13-.26,4.21-1,6.41-.25,2.83.94,3.69,2.63,2.45,5.29-.31.67-.62,1,.28,1.5a3.64,3.64,0,0,1,1.92,4.21c-.33,1.94-1.83,2.61-3.45,3.2A16.52,16.52,0,0,1,423.1,292.76Zm1.49-6.22c-.75.71-2.78-.79-2.89,1.67-.13,3,2.06,1.83,3.39,1.76s3.11-.11,3.05-1.77C428.08,286.28,426.13,286.79,424.59,286.54Zm-.71-6.15c-.84.56-2.92-.83-2.63,1.65.09.73-.57,2,.95,2.06s4.6-1.87,4.33-2.75C426.12,280.07,424.87,280.66,423.88,280.39Z" transform="translate(-329.58 -200.77)"/><path class="e5d88073-d8ea-431d-8525-673bed42ede8" d="M343.72,305.15c-.75-2,.47-2.78,2.56-3s4.13-.59,6.11.37,2.77,2.74,1.61,4.68c-.66,1.1-.37,1.3.51,1.94a3.74,3.74,0,0,1-.57,6.66c-2.6,1.32-5.43,1.29-8.27,1.11-1.08-.07-1.07-.82-1.14-1.57,0-.33-.09-.66-.12-1C344.19,311.41,344,308.43,343.72,305.15Zm6.22,5.65c-1.21.52-3.71-.75-2.93,2.4.57,2.29,2.09,1,3.16.94,1.35,0,3.38-.09,3.27-1.84S351.28,311,349.95,310.79Zm-.79-6.28c-1,.45-3-.66-2.69,1.75.09.73-.42,2.19,1,2,1.68-.21,3.79-.69,4.2-2.53C352,304.28,350.13,304.81,349.16,304.51Z" transform="translate(-329.58 -200.77)"/><path class="f11cc33a-7de0-4ce7-a39e-3516bd7c7e14" d="M384.88,287.32c1.6.46,2.79.86,4,1.12.87.19,1.28.39,1,1.46s-.66,1.41-1.71,1.12c-1.92-.53-3.86-1-5.78-1.51-.87-.24-1.79-.57-1.47.91s-.69,1.2-1.46,1.35c-1.18.22-1.15-.6-1.22-1.37-.33-3.73-.62-7.47-1-11.19-.14-1.28.19-1.74,1.52-1.83a24,24,0,0,1,5.72.1c2.3.39,4.18,1.27,4.72,3.76s-.9,3.91-2.78,5.08C386,286.57,385.62,286.84,384.88,287.32Zm-4.67-5.06c.23,4.12.23,4.13,3.79,2.35a16.47,16.47,0,0,0,2.08-1.31,1.32,1.32,0,0,0,.54-1.53c-.37-1.38-3.08-2.25-5.5-1.87C379.16,280.2,380.63,281.61,380.21,282.26Z" transform="translate(-329.58 -200.77)"/><path class="f11cc33a-7de0-4ce7-a39e-3516bd7c7e14" d="M365.06,239.43a8.87,8.87,0,0,1,8.62-8.58,6.93,6.93,0,0,1,7.14,7,8.79,8.79,0,0,1-8.75,8.68A6.84,6.84,0,0,1,365.06,239.43Zm2.64,0a4.17,4.17,0,0,0,4.34,4.42,6.19,6.19,0,0,0,6.15-6,4.28,4.28,0,0,0-4.38-4.41A6.17,6.17,0,0,0,367.7,239.47Z" transform="translate(-329.58 -200.77)"/><path class="e5d88073-d8ea-431d-8525-673bed42ede8" d="M397.86,238.09a8.76,8.76,0,0,1-8.93,8.47c-4,0-6.82-3.13-6.77-7.35a8.88,8.88,0,0,1,8.81-8.37A6.91,6.91,0,0,1,397.86,238.09Zm-2.62.09a4.24,4.24,0,0,0-4.36-4.66,6.26,6.26,0,0,0-6.12,5.71,4.25,4.25,0,0,0,4.12,4.66A6.22,6.22,0,0,0,395.24,238.18Z" transform="translate(-329.58 -200.77)"/><path class="e5d88073-d8ea-431d-8525-673bed42ede8" d="M513,239.31c-.15-2.06-.23-4.13-.47-6.19-.12-1,0-1.53,1.14-1.63s1.47.38,1.52,1.38q.27,5.35.59,10.7c0,.83-.1,1.36-1.09,1.6a1.61,1.61,0,0,1-2.05-.74c-1.75-2.61-3.6-5.15-5.7-8.13-.39,2.4.31,4.24.58,6.1.14,1,.71,1.9-.93,2.23s-1.51-.94-1.68-1.77a45,45,0,0,1-.81-9.91c0-.7-.54-1.83.83-1.94,1-.09,2.08-.27,2.71,1.07A24.2,24.2,0,0,0,513,239.31Z" transform="translate(-329.58 -200.77)"/><path class="e57ced62-30be-49de-9f1e-cb381d43ec24" d="M521.29,246.11c-2.16.21-3.17-.43-3.18-2.88a95.14,95.14,0,0,0-.85-9.93c-.15-1.35.17-1.92,1.63-2a10,10,0,0,1,9.36,4.12c3,4,1.46,8.64-3.29,10.05A32.52,32.52,0,0,1,521.29,246.11Zm.21-2.78c2.19-.21,4-.35,5.09-2a3.46,3.46,0,0,0-.06-3.79,7,7,0,0,0-4.68-3.44c-1-.24-1.78-.2-1.62,1.25.25,2.23.38,4.47.52,6.71C520.81,242.87,521,243.39,521.5,243.34Z" transform="translate(-329.58 -200.77)"/><path class="f11cc33a-7de0-4ce7-a39e-3516bd7c7e14" d="M444.9,268.69c-1.87.58-2.35-.76-2.44-2.86-.15-3.4-.53-6.79-.79-10.19-.05-.71-.28-1.4.9-1.65,4.14-.86,9.31,1.75,11,5.66,1.75,4.15-.63,8-5.54,8.82C447.17,268.62,446.33,268.6,444.9,268.69Zm-.23-8.86c.15,1.54.42,3.11.43,4.69s.74,1.67,1.89,1.45c1.81-.34,3.79-.6,4.27-2.82.54-2.48-.86-4.13-2.8-5.37-1-.67-2.35-1.56-3.45-1S444.93,258.77,444.67,259.83Z" transform="translate(-329.58 -200.77)"/><path class="f11cc33a-7de0-4ce7-a39e-3516bd7c7e14" d="M492.17,246.23c-1,.06-1.46-.23-1.22-1.44.7-3.5,1.37-7,1.83-10.54.26-2,1.77-1.72,2.93-2,3.46-.84,3.49-.8,4.54,2.53,1,3,1.89,6,2.76,9,.23.78.82,1.79-.64,2.2s-1.64-.36-2-1.45.12-3.18-1.84-2.79-4.94-.62-4.86,3.07C493.71,245.78,493.36,246.49,492.17,246.23Zm2.66-8.16c-.19,1-.18,1.76.85,1.44s2.86.14,2.84-1-.11-3.5-1.73-3.65C494.45,234.61,495.4,237.12,494.83,238.07Z" transform="translate(-329.58 -200.77)"/><path class="f11cc33a-7de0-4ce7-a39e-3516bd7c7e14" d="M420.2,245.05c.71-4,1.38-7.58,2-11.18a1.44,1.44,0,0,1,1.46-1.36,24.54,24.54,0,0,0,3.41-.7c1-.28,1.48-.15,1.82.94,1.19,3.8,2.65,7.51,3.49,11.42.17.82.55,1.62-.79,1.85-1.16.21-1.64-.15-1.86-1.31s0-2.79-1.25-3a10.77,10.77,0,0,0-4.62.74c-1.12.37-.75,1.74-.92,2.63-.23,1.22-.88,1.15-1.77,1.1C419.95,246.17,420.14,245.42,420.2,245.05Zm8.52-5.86c-1.78-1.55-.64-4.4-3-4.31s-2,3.07-1.62,4C424.81,240.56,426.6,238.75,428.71,239.19Z" transform="translate(-329.58 -200.77)"/><path class="e57ced62-30be-49de-9f1e-cb381d43ec24" d="M353.24,277.37c.51.3,1.91-.74,2,1,.09,1.62-.9,1.64-2.09,1.62a9.42,9.42,0,0,0-5.69,1.51c-.52.35-1.35.63-1.19,1.43s1.07.63,1.67.69c1.74.17,3.49.19,5.23.39,1.47.17,2.77.77,3.18,2.37s-.41,2.72-1.56,3.67a12,12,0,0,1-5.64,2.47c-.62.11-1.42.3-1.46-.76,0-.76-.42-1.65.93-1.87a8.52,8.52,0,0,0,4.33-1.78,4,4,0,0,0,.63-1,3.33,3.33,0,0,0-1.06-.54c-1.9-.18-3.81-.26-5.72-.44-1.57-.15-3-.66-3.46-2.37s.62-3,1.94-4A13.16,13.16,0,0,1,353.24,277.37Z" transform="translate(-329.58 -200.77)"/><path class="e57ced62-30be-49de-9f1e-cb381d43ec24" d="M402.35,239.62c1.82-2.48,3.43-4.67,5-6.87.5-.68.83-1.33,1.91-.56s1,1.27.28,2.16c-1.8,2.37-3.52,4.8-5.46,7.45,2.28.63,4.3,1.24,6.34,1.73,1,.24,1.44.53,1.1,1.68s-.91,1.17-1.84.89q-2.26-.67-4.56-1.24c-1.2-.29-2.84-1.41-2.53,1.36.1.93-.94.68-1.54.8-.78.15-1-.31-1.09-1-.34-3.89-.7-7.78-1-11.67-.09-1.12.82-.78,1.39-.89.77-.14,1.25.09,1.33,1A18.46,18.46,0,0,0,402.35,239.62Z" transform="translate(-329.58 -200.77)"/><path class="e5d88073-d8ea-431d-8525-673bed42ede8" d="M502.21,290.52c.55-3.35,1.17-6.7,1.64-10.06.21-1.52,1.35-1.49,2.34-1.72,3.93-.9,4-.89,5.2,2.92.92,2.84,1.79,5.69,2.64,8.55.28.95.67,1.93-.91,2.26-1.42.3-1.34-.7-1.7-1.51-.47-1,.2-3.19-1.89-2.78-1.88.37-4.93-.61-4.84,3.07,0,.78-.19,1.57-1.27,1.38-.66-.11-2,.39-1.35-1.19Zm4.74-4.61c.52-.87,2.76.68,2.54-1.33-.13-1.16,0-3.36-1.78-3.34-2.43,0-1.48,2.49-2,3.89C505.48,285.91,506,286.15,506.95,285.91Z" transform="translate(-329.58 -200.77)"/><path class="e57ced62-30be-49de-9f1e-cb381d43ec24" d="M393.25,312.33c0,.66.08,1.33.15,2,.11,1-.69.93-1.31,1.06-.79.17-1.3,0-1.34-1s-.13-1.83-.18-2.74-.41-1.56-1.56-1.24a6.78,6.78,0,0,1-1.73.18c-1.73,0-2.63.61-2.15,2.56.21.86.59,2-1.06,2.21s-1.45-.93-1.53-1.84c-.3-3.31-.55-6.63-.84-9.94-.08-.92,0-1.58,1.21-1.61s1.49.35,1.42,1.41a10,10,0,0,0,.12,1.74c.36,3.29.35,3.22,3.68,2.77,1.59-.21,2.46-.71,2-2.48a5.61,5.61,0,0,1-.21-2c.09-.88-.92-2.23,1.05-2.43s1.51,1.11,1.59,2.07c.28,3.06.5,6.14.74,9.21Z" transform="translate(-329.58 -200.77)"/><path class="e5d88073-d8ea-431d-8525-673bed42ede8" d="M443.3,292.08l0-1c.56-.37.45-.94.45-1.49.5-3.1,1.06-6.2,1.49-9.31.22-1.61,1.56-1.32,2.47-1.53,3.81-.89,3.83-.84,5,2.84a89.85,89.85,0,0,1,2.71,9c.19.91.37,1.54-.84,1.84s-1.56-.29-1.83-1.32,0-2.75-1.27-2.92a12.8,12.8,0,0,0-4.63.64c-.91.23-.61,1.27-.7,2-.2,1.49-.77,2.31-2.41,1.71Zm4.91-6.11c.53-.93,2.75.65,2.56-1.37-.11-1.19-.06-3.37-1.76-3.35-2.43,0-1.44,2.52-2,3.91C446.69,286.1,447.43,286,448.21,286Z" transform="translate(-329.58 -200.77)"/><path class="e57ced62-30be-49de-9f1e-cb381d43ec24" d="M494.07,268.06c-5.38,0-6.56-1.06-6.34-6,.11-2.4.6-4.77.83-7.17.1-1.09.59-1.34,1.61-1.33,1.39,0,1.14.93,1,1.72q-.45,3.83-1,7.65c-.24,1.71.51,2.37,2.17,2.48,5.14.33,5.61-.13,4.87-5.21-.23-1.56-.54-3.11-.86-4.65-.18-.87-.36-1.58.9-1.82,1.09-.21,1.53.12,1.69,1.14.39,2.54,1,5.06,1.2,7.62.34,4.11-.64,5.12-4.81,5.46C494.79,268,494.21,268.05,494.07,268.06Z" transform="translate(-329.58 -200.77)"/><path class="f11cc33a-7de0-4ce7-a39e-3516bd7c7e14" d="M391.6,253.56c.74.33,2.24-.76,2.24,1.27,0,1.84-1.28,1.29-2.24,1.39a11.27,11.27,0,0,0-5.44,1.55c-.58.39-1.54.76-1.25,1.63.21.63,1.09.63,1.76.65,1.41,0,2.84-.05,4.23.11,1.74.21,3.63.53,4.12,2.6s-.94,3.2-2.43,4.22a12.23,12.23,0,0,1-4.84,1.86c-.7.12-1.38.3-1.47-.71-.07-.79-.37-1.74.89-1.93a9.09,9.09,0,0,0,4.15-1.55c.38-.28.92-.53.82-1.13s-.77-.63-1.18-.67c-1.57-.14-3.16-.08-4.72-.24-1.84-.18-3.81-.43-4.27-2.68-.41-2,1-3.23,2.51-4.19A14.12,14.12,0,0,1,391.6,253.56Z" transform="translate(-329.58 -200.77)"/><path class="e57ced62-30be-49de-9f1e-cb381d43ec24" d="M415,268.06c-5.31,0-6.46-1.06-6.26-5.86.1-2.48.63-4.94.85-7.42.11-1.24.84-1.18,1.72-1.16,1.22,0,1,.89.91,1.6q-.47,4-1,7.9c-.23,1.65.61,2.19,2.11,2.31,5.18.43,5.75-.16,4.93-5.33-.24-1.48-.46-3-.8-4.41-.24-1-.38-1.69,1-2s1.44.44,1.58,1.3c.42,2.54,1,5.07,1.19,7.62.32,3.91-.61,4.91-4.45,5.31C416,268.05,415.26,268.05,415,268.06Z" transform="translate(-329.58 -200.77)"/><path class="e5d88073-d8ea-431d-8525-673bed42ede8" d="M368.75,314.65c.53-3.18,1.19-6.35,1.55-9.55.26-2.35,2.09-1.91,3.45-2.38,2.11-.73,3.44-.4,4,2.16.69,3.14,1.89,6.17,2.74,9.28.21.76,1.14,1.93-.54,2.41s-1.68-.56-2-1.65.07-2.93-1.48-2.61c-1.89.39-4.82-.58-5.25,2.77-.52.83-1,1.78-2.23,1.54-.54-.05-.63-.3-.32-.73Zm4.94-4.59c.69-.39,2.53.29,2.34-1.27-.15-1.15.05-3.41-2-3.3-2.29.13-1.2,2.46-1.74,3.74C371.9,310.23,372.82,310.17,373.7,310.07Z" transform="translate(-329.58 -200.77)"/><path class="e57ced62-30be-49de-9f1e-cb381d43ec24" d="M472.67,237.71c0-.58,0-1.17,0-1.75.16-1.63-1.16-4.19,0-4.66,2.2-.88,4.89-.59,7.37-.68,1,0,.69.92.79,1.51s-.22,1.06-1,1.09a26.19,26.19,0,0,1-2.74.2c-1.61-.1-2.06.47-2,2.12.1,2.08,1.35,1.38,2.4,1.32.83-.05,1.65-.17,2.48-.25s1.07.52,1.12,1.25.11,1.34-.89,1.4c-1.16.07-2.32.31-3.48.33s-1.33.62-1.26,1.61.59,1.24,1.47,1.1c1.07-.17,2.16-.24,3.2-.49s1.43-.14,1.53.93c.08.78.24,1.52-.82,1.73-.16,0-.33.05-.49.09C473.55,246.34,473,245.84,472.67,237.71Z" transform="translate(-329.58 -200.77)"/><path class="f11cc33a-7de0-4ce7-a39e-3516bd7c7e14" d="M357.61,282.14c-.08-.83-.13-1.66-.24-2.48-.15-1-.07-1.71,1.27-1.83s1.38.8,1.45,1.71c0,.25,0,.5.06.75.28,4,.27,3.86,4.12,3.35,1.37-.18,1.64-.7,1.49-1.9s-.07-2.33-.2-3.48c-.1-1,.23-1.35,1.22-1.34s1.38,0,1.45,1.14c.25,3.9.59,7.79.94,11.68.08.91-.11,1.41-1.15,1.43-.83,0-1.5,0-1.54-1.07,0-.25-.07-.49-.1-.74-.44-3.27-.43-3.11-3.69-2.88-1.92.14-2.11,1-1.91,2.52.1.82.77,2-1,2.18s-1.47-1.09-1.56-2.09c-.22-2.32-.43-4.63-.64-7Z" transform="translate(-329.58 -200.77)"/><path class="f11cc33a-7de0-4ce7-a39e-3516bd7c7e14" d="M467.57,284.21c.16,1.82.3,3.65.5,5.47.1.88,0,1.42-1.08,1.48s-1.64-.12-1.65-1.26a4.52,4.52,0,0,0,0-.5c-.39-3.33-.38-3.18-3.62-2.94-1.84.14-2.2.86-2,2.48.14.94.67,2.2-1.25,2.24s-1.22-1.21-1.31-2c-.33-3.14-.58-6.29-.87-9.44-.09-.94-.24-1.76,1.2-1.88s1.44.7,1.48,1.66c0,.33.07.66.1,1,.35,3.83,1.07,4.26,4.82,3.07.76-.24.85-.64.82-1.26-.08-1.25-.12-2.49-.24-3.73-.09-.91-.12-1.59,1.15-1.66s1.53.49,1.56,1.59c0,1.91.2,3.82.32,5.73Z" transform="translate(-329.58 -200.77)"/><path class="f11cc33a-7de0-4ce7-a39e-3516bd7c7e14" d="M515.14,280.81a15.68,15.68,0,0,0,0-1.74c-.13-1.13.64-1.12,1.4-1.22s1.27.16,1.22,1.06a11.84,11.84,0,0,0,0,1.24c.23,4.06.22,3.94,4.12,3.51,1.68-.19,1.87-.86,1.62-2.24-.18-1-.17-2-.28-3s.1-1.5,1.28-1.55,1.33.54,1.39,1.48c.26,3.73.57,7.45.89,11.18.08.91.1,1.59-1.17,1.64s-1.52-.36-1.45-1.41a2.36,2.36,0,0,0,0-.74c-.25-1,.34-2.58-.89-2.79a10.64,10.64,0,0,0-4.38.6c-.81.23-.27,1.15-.34,1.77-.1.95,1.07,2.42-1.09,2.56s-1.44-1.49-1.56-2.42c-.34-2.63-.46-5.29-.67-7.94Z" transform="translate(-329.58 -200.77)"/><path class="e57ced62-30be-49de-9f1e-cb381d43ec24" d="M422.83,255.56c-.26-1.33.07-1.9,1.19-1.92,2.32,0,4.65-.31,6.93.39a4.88,4.88,0,0,1,3.7,4.5c.19,2.17-1.39,3.24-3.11,4a8.85,8.85,0,0,1-2.57.91c-2.07.25-3.23,1-2.53,3.32.31,1-.36,1.24-1.24,1.3s-1.37-.22-1.44-1.2C423.47,263,423.13,259.13,422.83,255.56Zm2.89,3c.6.72-.83,2.58,1.26,2.65,2.24.07,5.09-1.62,5-2.77-.08-1.48-2.22-2.38-4.88-2.39C425,256.09,425.79,257.43,425.72,258.6Z" transform="translate(-329.58 -200.77)"/><path class="e5d88073-d8ea-431d-8525-673bed42ede8" d="M505.87,253.55c1.46-.09,2.21-.1,3-.18,1-.12,1.77-.13,1.83,1.27s-.88,1.34-1.79,1.39c-.66,0-1.33.07-2,.06-1.22,0-2.23-.09-2.07,1.79.14,1.68.84,1.91,2.21,1.68.82-.13,1.67-.07,2.48-.2,1-.17,1.3.3,1.34,1.22s-.1,1.45-1.15,1.47-2.16.15-3.24.17-1.24.74-1.22,1.68c0,1.11.67,1.2,1.49,1.1a24.59,24.59,0,0,0,3.2-.49c1.18-.31,1.36.32,1.6,1.22.29,1.09-.26,1.31-1.12,1.43-.49.07-1,.27-1.45.36-5.74,1-6,.85-6.34-4.89-.13-2.16-.15-4.33-.46-6.47s.33-2.93,2.45-2.63A5.33,5.33,0,0,0,505.87,253.55Z" transform="translate(-329.58 -200.77)"/><path class="e57ced62-30be-49de-9f1e-cb381d43ec24" d="M435.69,314c1.35.11,1.18,1.18,1.25,2a46.81,46.81,0,0,0,2.72,13.13,26.89,26.89,0,0,0,6,9.38c.69.69,1.81,1.39.71,2.42s-1.82,0-2.55-.69c-4.91-4.78-7.37-10.77-8.54-17.37-.41-2.29-.57-4.62-.81-6.93C434.35,315,434.36,314.06,435.69,314Z" transform="translate(-329.58 -200.77)"/><path class="e57ced62-30be-49de-9f1e-cb381d43ec24" d="M369.8,263.16c0,1.5-.06,2.75,0,4s-.39,1.42-1.44,1.44-1.25-.49-1.23-1.36-.12-1.5-.06-2.24c.29-4.08-.68-7.46-4.83-9.23-.87-.37-1.53-.86-.72-2.06s1.39-.76,2.16-.16c.26.21.55.37.82.57,3.42,2.44,3.44,2.46,6.47-.23.75-.66,1.25-1.22,2.21-.21s.35,1.58-.41,2.15C370.21,257.73,368.5,260,369.8,263.16Z" transform="translate(-329.58 -200.77)"/><path class="d56ffcbf-2716-47d9-8582-c9148d934db3" d="M442.51,231.21c1.32-.29,1.61.23,1.71,1.13s-.19,1.47-1.15,1.4c-3.15-.23-3.31,1.57-2.95,4,.3,2,.23,4.14.41,6.2.09,1-.11,1.53-1.26,1.59s-1.44-.39-1.49-1.41c-.12-2.57-.39-5.13-.43-7.7,0-1.47-.37-2.16-2-1.79-.94.22-2,.58-2.13-1.08s1-1.38,1.92-1.5C437.73,231.75,440.29,231.46,442.51,231.21Z" transform="translate(-329.58 -200.77)"/><path class="e57ced62-30be-49de-9f1e-cb381d43ec24" d="M400.88,277.53c.72-.16,1.17.24,1.3,1.32.16,1.3-.63,1.38-1.5,1.34-2.61-.12-3.12,1.12-2.7,3.5.39,2.2.24,4.49.44,6.73.1,1.14-.38,1.43-1.39,1.51s-1.25-.46-1.29-1.33c-.13-2.58-.42-5.15-.44-7.73,0-1.5-.36-2.13-2-1.8-.87.18-2,.62-2.13-1.11s1-1.33,1.93-1.45Z" transform="translate(-329.58 -200.77)"/><path class="f11cc33a-7de0-4ce7-a39e-3516bd7c7e14" d="M406.88,255c.27,1.86-1.08,1.58-1.93,1.53-1.93-.1-2.42.71-2.2,2.53.29,2.38.36,4.8.47,7.2,0,.82.42,1.81-1.13,1.91s-1.44-.91-1.5-1.88c-.14-2.4-.37-4.8-.4-7.21,0-1.5-.39-2.16-2-1.71-.72.2-1.78.75-2.06-.83s.56-1.65,1.63-1.77c2.56-.28,5.12-.52,7.66-.89C406.51,253.72,406.94,254.08,406.88,255Z" transform="translate(-329.58 -200.77)"/><path class="d56ffcbf-2716-47d9-8582-c9148d934db3" d="M502.21,290.52l-.14.93c-2.72-.05-5.24,1.19-8,1.2-1.73,0-2.29-.5-2.32-2.21-.06-3.31-.3-6.63-.53-9.93-.08-1.11.14-1.66,1.39-1.74s1.25.74,1.29,1.57c.15,2.57.34,5.13.42,7.7,0,1.46.45,2.21,2.06,1.69a13.94,13.94,0,0,0,1.7-.3C499.83,288.59,501.25,288.64,502.21,290.52Z" transform="translate(-329.58 -200.77)"/><path class="e57ced62-30be-49de-9f1e-cb381d43ec24" d="M443.73,289.57c0,.54.11,1.11-.45,1.49a27.25,27.25,0,0,1-8.52,1.58c-1.18,0-1.56-.36-1.59-1.55-.11-3.48-.33-7-.55-10.45-.06-1-.16-1.73,1.24-1.86s1.34.73,1.39,1.66c.14,2.57.43,5.14.43,7.71,0,1.68.63,2,2.09,1.58.79-.24,1.63-.32,2.43-.52,1.08-.27,2.18-1,2.71.85C443,290.51,443.49,289.83,443.73,289.57Z" transform="translate(-329.58 -200.77)"/><path class="e57ced62-30be-49de-9f1e-cb381d43ec24" d="M368.75,314.65l-.11,1.24c-1.45-1-2.69.22-4,.47-6.07,1.2-6.25,1.1-6.45-5-.07-1.91-.32-3.82-.29-5.73,0-.92-1.11-2.45,1-2.64s1.5,1.57,1.61,2.57a57.22,57.22,0,0,1,.34,6.72c0,1.68.77,2,2.16,1.65a7.26,7.26,0,0,0,1.69-.41C366.46,312.66,367.72,313.18,368.75,314.65Z" transform="translate(-329.58 -200.77)"/><path class="e57ced62-30be-49de-9f1e-cb381d43ec24" d="M477.12,261.75c0-1.74,0-3.49,0-5.23,0-.81,0-1.46,1.1-1.47s1.52.2,1.55,1.34c.09,2.74.4,5.47.42,8.21,0,1.46.62,1.69,1.79,1.44s2.44-.48,3.62-.86c1-.32,1.34.13,1.64.93s.22,1.28-.78,1.62a28.86,28.86,0,0,1-7.6,1.17c-1.09.08-1.15-.63-1.19-1.44-.09-1.91-.22-3.81-.34-5.72Z" transform="translate(-329.58 -200.77)"/><path class="e5d88073-d8ea-431d-8525-673bed42ede8" d="M354.61,237.38c0-.91,0-1.82,0-2.73s-.68-2.2,1.25-2.22,1.26,1.36,1.34,2.25c.23,2.48.39,5,.45,7.45,0,1.27.53,1.59,1.66,1.32s2.43-.51,3.61-.88,1.49,0,1.81,1-.11,1.38-1,1.54l-.24.06c-2.56.78-5.55,1.86-7.72.71-1.67-.89-.61-4.1-1-6.26a13.85,13.85,0,0,1,0-2.23Z" transform="translate(-329.58 -200.77)"/><path class="d56ffcbf-2716-47d9-8582-c9148d934db3" d="M439.29,265.3a16.61,16.61,0,0,0,.15,1.74c.18,1-.25,1.32-1.17,1.45-1.11.15-1.46-.3-1.53-1.34-.26-3.89-.56-7.78-.88-11.67-.07-.91.15-1.38,1.17-1.43s1.54.21,1.6,1.32c.19,3.31.45,6.62.69,9.94Z" transform="translate(-329.58 -200.77)"/><path class="e57ced62-30be-49de-9f1e-cb381d43ec24" d="M374.22,288.92c0,.91,0,1.5.1,2.07.11.92-.38,1.12-1.17,1.15s-1.42,0-1.49-1.09c-.25-3.9-.57-7.8-.92-11.69-.1-1.08.29-1.44,1.33-1.57,1.32-.16,1.29.67,1.36,1.52Z" transform="translate(-329.58 -200.77)"/><path class="d56ffcbf-2716-47d9-8582-c9148d934db3" d="M344.46,231.41c-.38-1.32.34-1.47,1.14-1.64s1.47,0,1.55,1c.1,1.24.16,2.5.37,3.73s-.62,1.09-1.34,1.24c-1,.2-1.4-.08-1.45-1.09S344.54,232.33,344.46,231.41Z" transform="translate(-329.58 -200.77)"/><path class="d56ffcbf-2716-47d9-8582-c9148d934db3" d="M410.4,304.88c.14.53.05,1.35-1.55,1.48s-1-1.11-1.2-1.81c-.22-.88-.23-1.81-.41-2.7-.23-1.14.4-1.35,1.34-1.54,1.12-.23,1.27.36,1.37,1.18S410.19,303.29,410.4,304.88Z" transform="translate(-329.58 -200.77)"/><path class="d56ffcbf-2716-47d9-8582-c9148d934db3" d="M402.66,302.09c-.43-1.73.64-1.84,1.37-1.65,2.58.69.88,3,1.56,4.52.6,1.31-.88,1.68-1.57,1.42C401.69,305.52,403.33,303.21,402.66,302.09Z" transform="translate(-329.58 -200.77)"/><path class="d56ffcbf-2716-47d9-8582-c9148d934db3" d="M349.26,232.54c-.09-1.6-.51-2.75,1.23-2.9s1.22,1.15,1.4,2,.21,1.64.33,2.45.08,1.54-1.15,1.62c-1.06.06-1.52-.18-1.56-1.26A15.66,15.66,0,0,0,349.26,232.54Z" transform="translate(-329.58 -200.77)"/><path class="90ee681b-adfc-4c75-a0dc-8d4f091446b5" d="M409.68,437.56c-.74-4.35-.38-8.74-.32-13.12a17.62,17.62,0,0,1,.85,7.11C409,433.46,410.25,435.59,409.68,437.56Z" transform="translate(-329.58 -200.77)"/><path class="54d3aca3-5ae1-4f96-8fb6-90272090c56e" d="M408.48,290.62c.31,1.24-.25,1.37-1,1.41-1.08.06-1.76-.2-1.78-1.45,0-.82,0-1.41,1.1-1.46C408.13,289.07,408.58,289.68,408.48,290.62Z" transform="translate(-329.58 -200.77)"/><path class="d56ffcbf-2716-47d9-8582-c9148d934db3" d="M399.68,315c.21,1-.38,1-1.12,1.11-1.4.16-1.62-.68-1.75-1.74s.67-.85,1.28-.93C399.33,313.31,399.69,314,399.68,315Z" transform="translate(-329.58 -200.77)"/><path class="e57ced62-30be-49de-9f1e-cb381d43ec24" d="M369,316.62c1.26.24,1.7-.71,2.23-1.54C371.38,316.94,370.56,317.35,369,316.62Z" transform="translate(-329.58 -200.77)"/><path class="e57ced62-30be-49de-9f1e-cb381d43ec24" d="M443.3,292.08l.43.43C443.37,292.57,443.2,292.46,443.3,292.08Z" transform="translate(-329.58 -200.77)"/><path class="60fea037-61e9-4b99-bfe1-7edcaf50f840" d="M425.9,373.41c.27,15.47-9.53,31.32-26.07,33.3-20.33,2.44-40.19-7.47-42.46-32.41-1.07-11.77,6.67-23.73,18.82-28.08,11.91-4.27,24-3.9,35.12,2.8C420.89,354.79,426.09,363.4,425.9,373.41ZM395,379.64a4.7,4.7,0,1,0-4.82-4.93A4.84,4.84,0,0,0,395,379.64Zm18.55-3.89a4.63,4.63,0,0,0,4.34,4.79,4.9,4.9,0,0,0,4.92-4.86,4.54,4.54,0,0,0-4.54-4.57A4.48,4.48,0,0,0,413.56,375.75Zm-4.5,8.09c-7.11-.68-10.94-.48-13.53.62C400.09,385.27,406.35,385.06,409.06,383.84Z" transform="translate(-329.58 -200.77)"/><path class="90ee681b-adfc-4c75-a0dc-8d4f091446b5" d="M406.73,408.78c-.24,5.06-.52,10-.7,14.86a166,166,0,0,0,1.14,24.93c.23,2.08-.16,3-2.4,3.53A85.38,85.38,0,0,1,374,453.64c-3.19-.42-6-1.94-8.77-3.45-1.44-.78-1.28-2.23-1.49-3.5a103,103,0,0,1,1.67-40.4c.37-1.58,0-3.93,1.36-4.51,1.16-.5,2.52,1.51,3.88,2.29C382,410.58,393.85,412.4,406.73,408.78Z" transform="translate(-329.58 -200.77)"/><path class="60fea037-61e9-4b99-bfe1-7edcaf50f840" d="M487.41,343.75c11,.21,20.52,2.66,28.28,10a28.36,28.36,0,0,1,5.75,33.89c-7.15,14.05-20.64,21-36.33,19.12-9.18-1.1-17.16-4.27-22.71-11.9-13-17.87-7.21-44.82,18.63-50.63A40.21,40.21,0,0,1,487.41,343.75Zm5.36,45.72c-.08-7-7.77-12.85-15.21-11.84a2.4,2.4,0,0,0-2.07,2.44,45,45,0,0,1-.82,5.66c-.35,1.4.06,1.91,1.34,2.21,4.76,1.12,9.51,2.3,14.26,3.46C492.09,391.84,493,391.31,492.77,389.47Zm-.93-11.88a4.75,4.75,0,0,0,4.85-4.66,4.68,4.68,0,0,0-9.35,0A4.53,4.53,0,0,0,491.84,377.59Zm-18.17-8A4.59,4.59,0,0,0,469,365a4.51,4.51,0,0,0-4.75,4.41,5,5,0,0,0,4.61,5C471.29,374.55,473.63,372.18,473.67,369.61Zm14.55-6.67c7.33-3.64,7.33-3.64,11.75,2.33a6.19,6.19,0,0,0-5.11-6.16C491.72,358.77,488.51,360.62,488.22,362.93Zm-23.35-3.62a6.7,6.7,0,0,1,6.57-2.76c2.77.43,3.42,3.17,5.21,5.13a6.82,6.82,0,0,0-5.62-6.41A5.84,5.84,0,0,0,464.87,359.31Z" transform="translate(-329.58 -200.77)"/><path class="d7488924-7875-4f26-8394-873d9bcfbb15" d="M465.65,403.46c2.1,1.19,3.63,2.2,5.27,3,11.48,5.35,23.15,5.46,34.88,1,1.76-.67,2-.34,2.09,1.35.57,13.74-.21,27.46-.57,41.18,0,1.42-.88,1.79-1.85,2.3-5.32,2.82-11.09,2.68-16.84,2.51a80,80,0,0,1-22.76-4.1c-1.11-.37-1.68-.79-1.64-2.05C464.72,433.7,465.18,418.82,465.65,403.46Z" transform="translate(-329.58 -200.77)"/><path class="ca089591-5bb7-4b6e-a204-b0a267195800" d="M483.56,286.62h.25c1.21.08,2.9-.14,3.06,1.38.19,1.77-1.69,1.87-2.87,1.94s-2.87,1.22-3.52-.84S480.46,286.65,483.56,286.62Z" transform="translate(-329.58 -200.77)"/><path class="ca089591-5bb7-4b6e-a204-b0a267195800" d="M482.46,280.28c1.09.47,3-.28,2.63,1.29s-2.35,2.18-4,2.47c-1.77.33-1.13-1.27-1.23-2C479.59,279.48,481.82,281.15,482.46,280.28Z" transform="translate(-329.58 -200.77)"/><path class="e175f4fb-ae32-4773-bbd7-1e5a8c1b9410" d="M468.84,263c.64,0,1,0,1.3,0,1.06.09,2.41,0,2.46,1.45,0,1.24-1.21,1.4-2.16,1.63a11.25,11.25,0,0,1-2,.35c-1.07.06-2.21.57-2.4-1.4s.68-2.06,2.07-2A5.14,5.14,0,0,0,468.84,263Z" transform="translate(-329.58 -200.77)"/><path class="c9d765d3-4c01-408f-8fbe-7077e4f5af7b" d="M465.57,258.41c-.18-2.23,1.49-1.65,2.54-1.75s2.29-.27,2.73,1c.29.84-2.95,2.91-4.33,2.76S466,259,465.57,258.41Z" transform="translate(-329.58 -200.77)"/><path class="ca089591-5bb7-4b6e-a204-b0a267195800" d="M424.59,286.54c1.54.25,3.49-.27,3.56,1.65.06,1.66-1.84,1.7-3.05,1.77s-3.52,1.28-3.39-1.76C421.81,285.75,423.84,287.25,424.59,286.54Z" transform="translate(-329.58 -200.77)"/><path class="ca089591-5bb7-4b6e-a204-b0a267195800" d="M423.88,280.39c1,.27,2.24-.32,2.64,1,.28.87-2.88,2.84-4.33,2.75s-.86-1.33-.95-2.06C421,279.56,423,280.95,423.88,280.39Z" transform="translate(-329.58 -200.77)"/><path class="ca089591-5bb7-4b6e-a204-b0a267195800" d="M349.95,310.79c1.33.25,3.4-.33,3.51,1.5s-1.92,1.79-3.27,1.84c-1.07,0-2.59,1.35-3.16-.94C346.23,310,348.74,311.31,349.95,310.79Z" transform="translate(-329.58 -200.77)"/><path class="c9d765d3-4c01-408f-8fbe-7077e4f5af7b" d="M349.16,304.51c1,.3,2.79-.24,2.47,1.24-.41,1.84-2.52,2.32-4.2,2.53-1.38.17-.86-1.3-1-2C346.16,303.86,348.17,305,349.16,304.51Z" transform="translate(-329.58 -200.77)"/><path class="e175f4fb-ae32-4773-bbd7-1e5a8c1b9410" d="M380.21,282.26c.41-.65-1.05-2.05.9-2.36,2.42-.38,5.13.49,5.5,1.87a1.32,1.32,0,0,1-.54,1.53A16.47,16.47,0,0,1,384,284.6C380.45,286.39,380.44,286.37,380.21,282.26Z" transform="translate(-329.58 -200.77)"/><path class="e175f4fb-ae32-4773-bbd7-1e5a8c1b9410" d="M367.7,239.47a6.17,6.17,0,0,1,6.11-5.94,4.28,4.28,0,0,1,4.38,4.41,6.19,6.19,0,0,1-6.15,6A4.17,4.17,0,0,1,367.7,239.47Z" transform="translate(-329.58 -200.77)"/><path class="e175f4fb-ae32-4773-bbd7-1e5a8c1b9410" d="M395.24,238.18a6.22,6.22,0,0,1-6.37,5.71,4.25,4.25,0,0,1-4.12-4.66,6.26,6.26,0,0,1,6.12-5.71A4.24,4.24,0,0,1,395.24,238.18Z" transform="translate(-329.58 -200.77)"/><path class="e175f4fb-ae32-4773-bbd7-1e5a8c1b9410" d="M521.5,243.34c-.47.05-.68-.47-.74-1.24-.15-2.24-.28-4.48-.52-6.71-.16-1.45.6-1.49,1.62-1.25a7,7,0,0,1,4.68,3.44,3.46,3.46,0,0,1,.06,3.79C525.47,243,523.68,243.12,521.5,243.34Z" transform="translate(-329.58 -200.77)"/><path class="e175f4fb-ae32-4773-bbd7-1e5a8c1b9410" d="M444.67,259.83c.26-1.07-.69-2.51.32-3s2.41.32,3.45,1c1.94,1.24,3.34,2.89,2.8,5.37-.48,2.22-2.45,2.47-4.27,2.82-1.14.22-1.88,0-1.89-1.45S444.82,261.37,444.67,259.83Z" transform="translate(-329.58 -200.77)"/><path class="ca089591-5bb7-4b6e-a204-b0a267195800" d="M494.83,238.07c.57-1-.38-3.46,2-3.25,1.62.14,1.71,2.43,1.73,3.65s-1.83.73-2.84,1S494.64,239.09,494.83,238.07Z" transform="translate(-329.58 -200.77)"/><path class="c9d765d3-4c01-408f-8fbe-7077e4f5af7b" d="M428.71,239.19c-2.12-.44-3.9,1.37-4.58-.3-.38-.94-.67-3.93,1.62-4S426.93,237.64,428.71,239.19Z" transform="translate(-329.58 -200.77)"/><path class="c9d765d3-4c01-408f-8fbe-7077e4f5af7b" d="M506.95,285.91c-.93.23-1.47,0-1.2-.78.48-1.4-.47-3.87,2-3.89,1.74,0,1.65,2.18,1.78,3.34C509.71,286.59,507.47,285,506.95,285.91Z" transform="translate(-329.58 -200.77)"/><path class="c9d765d3-4c01-408f-8fbe-7077e4f5af7b" d="M448.21,286c-.78.05-1.52.13-1.16-.81.52-1.4-.47-3.89,2-3.91,1.69,0,1.64,2.16,1.76,3.35C451,286.62,448.74,285,448.21,286Z" transform="translate(-329.58 -200.77)"/><path class="c9d765d3-4c01-408f-8fbe-7077e4f5af7b" d="M373.7,310.07c-.87.1-1.8.17-1.38-.83.54-1.28-.55-3.62,1.74-3.74,2-.11,1.83,2.14,2,3.3C376.23,310.35,374.39,309.67,373.7,310.07Z" transform="translate(-329.58 -200.77)"/><path class="ca089591-5bb7-4b6e-a204-b0a267195800" d="M425.72,258.6c.07-1.17-.69-2.51,1.39-2.5,2.67,0,4.8.91,4.88,2.39.06,1.14-2.78,2.84-5,2.77C424.89,261.18,426.32,259.32,425.72,258.6Z" transform="translate(-329.58 -200.77)"/><path class="c56d6a26-5170-48fb-8c51-3bbe5eada9a2" d="M395,379.64a4.84,4.84,0,0,1-4.82-4.93,4.57,4.57,0,0,1,4.67-4.47,4.7,4.7,0,0,1,.15,9.4Z" transform="translate(-329.58 -200.77)"/><path class="c56d6a26-5170-48fb-8c51-3bbe5eada9a2" d="M413.56,375.75a4.48,4.48,0,0,1,4.72-4.64,4.54,4.54,0,0,1,4.54,4.57,4.9,4.9,0,0,1-4.92,4.86A4.63,4.63,0,0,1,413.56,375.75Z" transform="translate(-329.58 -200.77)"/><path class="54d3aca3-5ae1-4f96-8fb6-90272090c56e" d="M409.06,383.84c-2.72,1.23-9,1.43-13.53.62C398.12,383.35,402,383.16,409.06,383.84Z" transform="translate(-329.58 -200.77)"/><path class="c56d6a26-5170-48fb-8c51-3bbe5eada9a2" d="M492.77,389.47c.28,1.84-.68,2.37-2.5,1.93-4.75-1.17-9.5-2.34-14.26-3.46-1.28-.3-1.69-.81-1.34-2.21a45,45,0,0,0,.82-5.66,2.4,2.4,0,0,1,2.07-2.44C485,376.62,492.69,382.44,492.77,389.47Z" transform="translate(-329.58 -200.77)"/><path class="c56d6a26-5170-48fb-8c51-3bbe5eada9a2" d="M491.84,377.59a4.53,4.53,0,0,1-4.5-4.63,4.68,4.68,0,0,1,9.35,0A4.75,4.75,0,0,1,491.84,377.59Z" transform="translate(-329.58 -200.77)"/><path class="c56d6a26-5170-48fb-8c51-3bbe5eada9a2" d="M473.67,369.61c0,2.57-2.38,4.95-4.76,4.84a5,5,0,0,1-4.61-5A4.51,4.51,0,0,1,469,365,4.59,4.59,0,0,1,473.67,369.61Z" transform="translate(-329.58 -200.77)"/><path class="54d3aca3-5ae1-4f96-8fb6-90272090c56e" d="M488.22,362.93c.29-2.31,3.49-4.17,6.64-3.84a6.19,6.19,0,0,1,5.11,6.16C495.55,359.3,495.55,359.3,488.22,362.93Z" transform="translate(-329.58 -200.77)"/><path class="54d3aca3-5ae1-4f96-8fb6-90272090c56e" d="M464.87,359.31a5.84,5.84,0,0,1,6.17-4,6.82,6.82,0,0,1,5.62,6.41c-1.79-2-2.44-4.71-5.21-5.13A6.7,6.7,0,0,0,464.87,359.31Z" transform="translate(-329.58 -200.77)"/></svg>