<svg id="e9240755-4d06-417e-bfd7-853d217d2ead" data-name="Capa 1" xmlns="http://www.w3.org/2000/svg" viewBox="0 0 213.57 309.58"><defs><style>.\32 a65dd24-60a1-4f99-a6df-a57e67fb36a5{fill:#070707;}.\32 4bd22d0-8939-4292-a1b5-7672312ba05e{fill:#fefefe;}.\37 4fe0af1-a8d8-472c-8b71-cd42581db80e{fill:#141612;}.\32 b04048d-6657-4b24-9276-8a69ed3e140c{fill:#161615;}.\35 69ea831-1324-4e52-ae21-7a4aecedde31{fill:#1a1a1a;}.\31 14e236a-b45e-43d6-bfcb-81359f1a84c5{fill:#1e1e1e;}.\38 fe8fe16-31b6-405d-9b9a-c2c99d3aca30{fill:#46382d;}.ab27df94-ac5b-47cf-a535-6c7bed546bb6{fill:#f6cca0;}.eebdcf84-dfb7-4b3d-8eb4-34641ffca171{fill:#509441;}.\39 77d45ef-180e-43f7-8822-daf19692f9f2{fill:#f5f5f5;}.\38 d7c1cf5-9184-452b-869d-9ea9c99a9ca8{fill:#c8ab8c;}.\38 79a2173-a906-4062-bd3e-a656163b7871{fill:#94b3c5;}.a88c0531-0327-4ffe-878e-e01faa0732f5{fill:#dad9da;}.\36 bd6a886-0b9f-40fb-ae70-f7f02bb958d4{fill:#f0eff0;}.\30 2faffe0-af7a-419e-b5d5-e471c86d8593{fill:#ecebec;}</style></defs><title>card-2</title><path class="2a65dd24-60a1-4f99-a6df-a57e67fb36a5" d="M528.27,297q0,71.61,0,143.23a18,18,0,0,1-.4,5,8.33,8.33,0,0,1-8.11,6.51c-.67,0-1.33,0-2,0h-192c-7.79,0-11.07-3.26-11.07-11.05q0-143.85,0-287.71c0-7.38,3.21-10.62,10.65-10.79.75,0,1.5,0,2.25,0h188a23.25,23.25,0,0,1,6,.42,8.3,8.3,0,0,1,6.66,7.71c.1,1.08.07,2.16.07,3.25Q528.27,225.29,528.27,297Zm-4.1,0q0-71.24,0-142.49c0-.83,0-1.67,0-2.5-.14-3.39-1.79-5.22-5.14-5.61a30.43,30.43,0,0,0-3.49-.11H327c-6.73,0-8.22,1.34-8.22,7.38q0,143.36,0,286.73c0,5.37,1.85,7.22,7.17,7.22H517.23c.58,0,1.17,0,1.75,0a5,5,0,0,0,4.94-4.14,13.9,13.9,0,0,0,.24-3.72Q524.17,368.39,524.17,297Z" transform="translate(-314.71 -142.17)"/><path class="24bd22d0-8939-4292-a1b5-7672312ba05e" d="M524.17,297q0,71.37,0,142.74a13.9,13.9,0,0,1-.24,3.72,5,5,0,0,1-4.94,4.14c-.58,0-1.17,0-1.75,0H326c-5.32,0-7.17-1.85-7.17-7.22q0-143.36,0-286.73c0-6,1.48-7.38,8.22-7.38H515.52a30.43,30.43,0,0,1,3.49.11c3.36.39,5,2.22,5.14,5.61,0,.83,0,1.67,0,2.5Q524.17,225.77,524.17,297Zm-30.08,53c1.47-1.78,2.9-3.64,4.46-5.38C509,333,510.44,318,502.69,305.77,494.18,292.38,474.23,287,461,290c-10,2.28-17.86,7.75-22.2,17.25-5.81,12.72-4.38,24.93,3.68,36.33.67.94.63,1.32-.33,1.85A24,24,0,0,0,437.3,349c-2.75,2.53-3,5.18-.73,8.14a24.92,24.92,0,0,0,5.39,5.16,2.37,2.37,0,0,1,1,3.15c-1.71,5-3.25,10.12-4.94,15.16-1.07,3.18-1.12,3.14-4.1,1.85a19.07,19.07,0,0,0-3.05-1.07c-4.34-1.06-7.06.31-8.8,4.38a24.18,24.18,0,0,0-.91,2.58c-1.61,5.37-2,10.94-2.87,16.45-.19,1.27-.33,2.71,1.41,2.92,1.93.24,1.91-1.29,2.12-2.66.85-5.75,1.33-11.58,3.14-17.16.6-1.84,1.43-3.44,3.78-3.2,2.59.27,5.21.75,6.53,3.25a5.8,5.8,0,0,0,2.23,2.48,79.16,79.16,0,0,0,19.16,8.25A61.74,61.74,0,0,0,472,401.38a29.35,29.35,0,0,0-4.08,10.46c-.49,3.11-.64,6.23,1.54,8.81a55.22,55.22,0,0,0,11,10.08c1,.71,2.15,1.61,3.22.12s-.16-2.19-1.2-2.92a72,72,0,0,1-9-7.87c-2.21-2.18-2.59-4.67-2.09-7.55.6-3.42,2.22-6.4,3.63-9.5a4,4,0,0,1,3.39-2.74c2.52-.29,4-1.58,5-4.06,3.12-7.72,6.06-15.49,7.39-23.74.4-2.49,1.32-2.72,3.51-2.06a37.25,37.25,0,0,0,10.31,1.72c3.71,0,5.54-2,5.07-5.71a11.64,11.64,0,0,0-3.77-7.13C502.09,355.71,498.17,352.25,494.09,350ZM377.87,297.2c-4.78.08-10.25.49-15.2,2.8-16.7,7.79-22.92,21.87-17.66,39.48a2.1,2.1,0,0,1-.71,2.57,42.16,42.16,0,0,0-6.88,7.55c-5.63,8.06-4.94,14.8,2.3,21.46a3.36,3.36,0,0,1,1.19,3c-.27,6.34.44,12.61,1.08,18.92.36,3.51,1.91,5.49,4.92,6.67,1.49.58,1.83,1.39,1.62,3a186.41,186.41,0,0,1-5.8,28.82c-.35,1.18-.56,2.41,1,2.83s2-.71,2.38-1.91c.54-1.92,1.08-3.84,1.56-5.77a165.76,165.76,0,0,0,4.13-22.31c.08-.77-.56-2.45,1.47-2.09a77.68,77.68,0,0,0,27.79-.45c1.54-.29,2.3-.2,2.72,1.67,2.07,9.26,3.78,18.58,5.19,28,.2,1.37.54,2.62,2.23,2.28s1.47-1.66,1.26-3c-1.48-9.53-3.37-19-5.48-28.4-.27-1.18-.34-2,1.08-2.14,2.64-.32,2.78-2,2.5-4.19a174.14,174.14,0,0,1-1.39-24.17,2.47,2.47,0,0,1,1.48-2.51c2.86-1.54,5.28-3.62,6-7a3.19,3.19,0,0,1,1.81-2.42,27.87,27.87,0,0,0,10.15-9.42c7.57-11.65,9.27-24,2.27-36.28S392.23,297.37,377.87,297.2Zm73.88-88.09a82.14,82.14,0,0,0-3-10c-1.68-5-1.65-5-6.82-3.65a1.91,1.91,0,0,0-1.71,1.75c-.62,3.77-1.39,7.52-2,11.3-.11.71-1.12,2,.81,2.23,1.53.17,2.09-.38,2.17-1.87.05-.93,0-2,1.21-2.5,3.71-1.47,5.19-.79,6.26,3a1.72,1.72,0,0,1,0,.25c.14,1.07.78,1.09,1.63.82C451.08,210.2,452,210.3,451.74,209.12Zm-29.34,26.45c-.61-3.79-2-7.35-3.19-11-1.24-3.86-1.23-3.61-5.35-3.11-2.43.29-2.9,1.5-3.19,3.47-.48,3.28-1.15,6.54-1.72,9.8-.16.89-.88,1.92.81,2.29s1.93-.42,2.19-1.78c.16-.85-.3-2.23,1-2.51,1.69-.35,3.53-.93,5.1-.57,1.18.27.94,2.28,1.33,3.51.05.16.09.32.14.48.37,1.14,1.25.45,1.89.48S422.59,236.35,422.41,235.56Zm-5-29.87c.69-.22,1.16.15,1.33,1.09s.44,1.6.6,2.41c.2,1,.46,1.57,1.79,1.25s1.35-.77,1.13-1.86a81.59,81.59,0,0,0-2.93-9.76c-1.49-4.43-1.47-4.35-6-3.57a2.69,2.69,0,0,0-2.57,2.66c-.51,3.53-1.25,7-1.81,10.55-.12.78-1.14,2,.73,2.25,1.42.2,2.09-.14,2.24-1.72.09-1-.19-2.49,1.54-2.7C414.74,206.14,416,205.92,417.44,205.69Zm-38,3.67c-.07.45-.45,1.13.27,1.22,1.11.14,2.52.79,2.84-1.24.16-1-.31-2.46,1-2.83a12.37,12.37,0,0,1,5.13-.69c1.15.2,1,2.1,1.27,3.26s.55,1.67,1.94,1.33,1.24-.91,1-2a94.25,94.25,0,0,0-2.78-9.3c-1.69-5.17-2.08-5.34-7.26-3.62-.73.24-1.09.51-1.23,1.3C381,201,380.23,205.19,379.48,209.36Zm13.46,25.3a77.57,77.57,0,0,0-2.78-9.31c-1.48-4.56-1.48-4.49-6.33-3.71a2.24,2.24,0,0,0-2.25,2.32c-.53,3.87-1.3,7.7-2.08,11.53-.19.92-.18,1.44.87,1.53.88.07,1.9.48,2.06-1a13,13,0,0,0,.26-1.47c0-1.33.56-1.91,1.93-2s3-.94,4.12-.48,1.09,2.45,1.38,3.8,1.22.79,1.94.77S393.34,236.26,392.95,234.66Zm86.56-22.95c1.21,0,1.83-.27,1.45-1.91-.78-3.32-1.88-6.53-2.93-9.75-1.4-4.28-1.41-4.16-6-3.48a2.53,2.53,0,0,0-2.55,2.59c-.52,3.69-1.24,7.36-1.93,11-.16.84-.59,1.62.76,1.81,1,.14,1.93.34,2.18-1.17.16-1-.15-2.43.7-2.78a13.31,13.31,0,0,1,5.29-1.11c1.36,0,.93,1.86,1.41,2.83C478.25,210.51,477.69,212,479.51,211.72Zm-41.39,23.94c-.34.74,0,1.25,1.12,1.41s1.8,0,1.93-1.23c.11-1.05-.1-2.57.9-2.93a12,12,0,0,1,5.33-.8c1,.12,1.06,2,1.2,3.07.19,1.49.84,1.77,2.16,1.52,1.51-.29,1-1.32.8-2.12q-1.34-4.67-2.83-9.29c-1.44-4.49-1.45-4.46-6.1-3.64-1.1.19-2.12.21-2.36,1.68C439.63,227.34,438.89,231.35,438.13,235.66ZM436.25,234h0c-.32-3.48-.69-7-.92-10.44-.08-1.2-.44-1.55-1.63-1.5-1.35.06-1.43.69-1.28,1.78.18,1.32.11,2.67.29,4s-.34,1.58-1.45,1.76c-4.32.71-4.31.74-4.75-3.55a14.38,14.38,0,0,1-.16-1.74c0-1.27-.78-1.18-1.67-1.18-1.09,0-1.42.4-1.32,1.51.35,3.73.57,7.47.91,11.2.09,1-.17,2.21,1.67,2.11s1.47-1.27,1.26-2.22c-.47-2.15.34-2.93,2.47-3.06,3.24-.19,3.23-.3,3.62,3,0,.33.13.66.14,1,0,1.34.81,1.3,1.86,1.23,1.24-.07,1.3-.63,1.1-1.6A18.44,18.44,0,0,1,436.25,234Zm-3.64-35c.25,3.94.25,3.94-1.51,4.18-4.12.58-4.12.58-4.55-3.65a12,12,0,0,1-.14-1.49c0-1.38-.81-1.32-1.82-1.28-1.24,0-1.24.72-1.16,1.66.32,3.72.56,7.45.9,11.17.09,1-.06,2.17,1.7,2.08s1.18-1.3,1.28-2.26-.76-2.26.43-2.64a9.93,9.93,0,0,1,4.88-.53c1.24.26.38,2,.72,3.09.18.55.13,1.17.3,1.71.34,1.07,1.25.46,1.9.53s1.06-.27,1-1q-.62-6.94-1.21-13.89c-.1-1.16-.91-.92-1.65-.91-.89,0-1.44.28-1.27,1.32C432.52,197.83,432.56,198.58,432.61,199Zm-54.85,10.29c-.34-4.11-.7-8.08-1-12.06-.08-1.15-.41-1.59-1.64-1.54s-1.53.62-1.39,1.73.18,2.49.39,3.71c.26,1.48-.21,2-1.76,2.11-4.25.43-4.24.53-4.54-3.84,0-.25,0-.5,0-.75,0-1,.17-2-1.47-2s-1.69.86-1.57,2.09c.33,3.55.63,7.11.92,10.67.1,1.15-.09,2.35,1.8,2.19s1.07-1.44,1.2-2.35-.77-2.16.26-2.48c1.62-.52,3.48-1.18,5.09-.56,1.11.42.53,2.09.67,3.2s-.1,2.31,1.79,2.2C378.69,211.57,377.55,210.12,377.76,209.34Zm25.38-9.63h.1a6.5,6.5,0,0,0,.15,1.49c.51,1.53,0,1.92-1.58,2.08-4.4.44-4.39.53-4.59-4,0-.33,0-.67,0-1,0-1.19-.52-1.56-1.7-1.48s-1.42.52-1.33,1.55q.53,6.09,1,12.18c.06.8.32,1.15,1.19,1.2,1.6.09,2-.52,1.73-2.07-.21-1.18-1.18-2.72,1.35-3.08,4.24-.61,4.22-.77,4.74,3.59,0,.25,0,.5.06.75.22,1.13,1.11.71,1.79.74s1.3-.16,1.22-1.1q-.57-6.84-1.11-13.67c-.1-1.21-.92-1.11-1.8-1.09-1.05,0-1.23.56-1.18,1.44S403.14,198.88,403.14,199.71Zm-25.41,35.51c-.33-4-.7-7.8-.93-11.62-.07-1.2-.46-1.54-1.65-1.52s-1.53.62-1.38,1.71c.13.9.09,1.84.29,2.72.48,2.13-.06,3.14-2.49,3.21-3.34.1-3.34.27-3.65-3.06,0-.5-.08-1-.11-1.49-.06-1,.22-2.14-1.58-2.08-2,.07-1.5,1.33-1.42,2.39q.38,5.09.88,10.17c.1,1-.35,2.43,1.68,2.28s1.16-1.49,1.32-2.48c.13-.83-.93-1.89.64-2.48,3.69-1.38,5-.63,5.41,3.2.16,1.62,1.42,2.44,2.64,1.6C378.42,237.06,377.53,235.93,377.73,235.22Zm74.94-35.82c.35,3.79.71,7.34,1,10.91.08,1.08.49,1.36,1.54,1.38,2.05,0,1.38-1.27,1.38-2.36,0-.88-1-2.14.44-2.55,1.58-.45,3.44-1,4.88-.51,1.13.35.66,2.37.75,3.66s.24,1.82,1.69,1.76,1.47-.92,1.38-2c-.35-4.14-.72-8.29-1-12.44-.08-1.14-.42-1.61-1.65-1.56s-1.48.71-1.36,1.78c.16,1.4.24,2.82.37,4.22.06.65.26,1.18-.75,1.45-4.82,1.31-5.34,1-5.57-4,0-.5,0-1-.06-1.5-.08-.94-.75-1-1.45-.89s-1.6-.11-1.55,1.08C452.69,198.46,452.67,199,452.67,199.4Zm-58.53,26.9c.32,3.26.65,6.4.94,9.55.11,1.17-.09,2.3,1.85,2.05s.93-1.46,1-2.34-.84-2.1.86-2.64c4.08-1.3,4.91-.83,5.34,3.33a4.42,4.42,0,0,1,0,.5c0,1.23.72,1.22,1.67,1.15s1.49-.29,1.38-1.45q-.62-6.45-1.07-12.92c-.09-1.27-.69-1.43-1.78-1.41s-1.31.65-1.23,1.6a19.52,19.52,0,0,0,.23,3.47c.57,2-.41,2.36-2.1,2.5-3.9.31-3.89.37-4.05-3.63,0-.5-.06-1,0-1.5,0-1.26-.66-1.52-1.76-1.4C392.78,223.43,394.89,225.43,394.14,226.3Zm14,24.12c-.06-.83.46-2.13-1-2.35-1.72-.26-1.44,1.18-1.53,2.2-1.13,12.68-4,24.77-11.89,35.15-.51.67-1.08,1.51-.18,2.15s1.72.15,2.29-.74c.31-.49.7-.93,1-1.4C404.3,275,407.06,263,408.18,250.42Zm25.61-.2c.06.22.16.54.24.86a100.41,100.41,0,0,0,12.44,30.73c.53.85,1,2.34,2.34,1.51s.29-1.91-.22-2.76a99.16,99.16,0,0,1-10.41-23.84c-.66-2.31-1.26-4.63-1.86-7-.22-.85-.68-1.33-1.6-1.15S433.69,249.37,433.79,250.22Zm23.86-20.31c-.25-2.48-.56-5-.71-7.44-.09-1.35-.82-1.34-1.83-1.3-1.18,0-1.33.61-1.2,1.62.31,2.47.58,5,.77,7.44.08,1.05.41,1.5,1.52,1.35S458,231.21,457.65,229.91Zm7.41.09c-.27-2.57-.59-5-.74-7.38-.07-1.19-.43-1.56-1.63-1.48s-1.55.53-1.39,1.71c.34,2.47.64,5,.83,7.44.09,1.09.43,1.45,1.53,1.28S465.41,231.09,465.05,230Zm7.23-1.62c-.19-2.06-.45-4-.52-5.86,0-1.35-.78-1.36-1.8-1.36-1.2,0-1.35.61-1.24,1.57.28,2.55.57,5.11.78,7.67.1,1.16.66,1.32,1.65,1.16C473.75,231.15,471.72,229.28,472.28,228.38Zm-16,6c-1.06-.09-1.67.13-1.51,1.36s.47,1.9,1.82,1.74c.75-.09,1.61.07,1.37-1.15C457.8,235.36,458,234,456.31,234.41Zm9,1.75c.14-1.15-.18-1.87-1.59-1.79-.91.06-1.64,0-1.5,1.3.11,1.11.29,1.93,1.7,1.85C464.84,237.48,465.61,237.46,465.29,236.16Zm6.09,1.33c1.09.16,1.48-.26,1.42-1.38s-.46-1.79-1.78-1.74c-1.05,0-1.43.31-1.38,1.44S470.07,237.69,471.38,237.49Z" transform="translate(-314.71 -142.17)"/><path class="74fe0af1-a8d8-472c-8b71-cd42581db80e" d="M494.09,350c4.08,2.24,8,5.7,11.83,9.29a11.64,11.64,0,0,1,3.77,7.13c.47,3.66-1.36,5.75-5.07,5.71a37.25,37.25,0,0,1-10.31-1.72c-2.19-.66-3.1-.44-3.51,2.06-1.33,8.25-4.27,16-7.39,23.74-1,2.47-2.49,3.77-5,4.06A4,4,0,0,0,475,403c-1.41,3.1-3,6.08-3.63,9.5-.5,2.88-.12,5.37,2.09,7.55a72,72,0,0,0,9,7.87c1,.73,2.31,1.39,1.2,2.92s-2.19.59-3.22-.12a55.22,55.22,0,0,1-11-10.08c-2.17-2.58-2-5.7-1.54-8.81A29.35,29.35,0,0,1,472,401.38a61.74,61.74,0,0,1-15.31-2.71,79.16,79.16,0,0,1-19.16-8.25,5.8,5.8,0,0,1-2.23-2.48c-1.32-2.5-3.95-3-6.53-3.25-2.35-.25-3.18,1.35-3.78,3.2-1.81,5.58-2.3,11.4-3.14,17.16-.2,1.37-.18,2.9-2.12,2.66-1.74-.22-1.6-1.66-1.41-2.92.84-5.5,1.27-11.08,2.87-16.45a24.18,24.18,0,0,1,.91-2.58c1.74-4.07,4.47-5.43,8.8-4.38a19.07,19.07,0,0,1,3.05,1.07c3,1.29,3,1.33,4.1-1.85,1.69-5,3.23-10.13,4.94-15.16a2.37,2.37,0,0,0-1-3.15,24.92,24.92,0,0,1-5.39-5.16c-2.3-3-2-5.61.73-8.14a24,24,0,0,1,4.81-3.55c1-.52,1-.9.33-1.85-8.05-11.4-9.48-23.61-3.68-36.33,4.34-9.5,12.15-15,22.2-17.25,13.27-3,33.22,2.38,41.73,15.77,7.75,12.2,6.29,27.24-4.14,38.85C497,346.36,495.56,348.22,494.09,350Zm-52.35-40.35c-.57-.27-.53.37-.79.55a2.06,2.06,0,0,0-.7,2c-1,3.32-1.87,6.64-1.5,10.25,3-2.42,5.57-2.57,7.51-.56a4,4,0,0,1,1,3.93c-.4,1.56-1.84.47-2.76.77a3.67,3.67,0,0,1-.74.09l-2,.18c-1.18.33-3-.23-2.35,2.26,2.78,11.39,9.46,19.15,20.92,22.19,12.42,3.3,24.06,2.22,34-7.07,13.29-12.45,13.45-31.36.07-43-5.59-4.88-12.44-7.3-19.72-8.32-12.38-1.72-22.89,1.72-30.74,11.83-1.11,1.42-2.32,2.92-2.14,5Zm5,56.13c-1.7,5.67-3.35,11.34-5.44,16.86-1.45,3.83-1.06,4.8,2.51,6.94.5.3,1,.52,1.56.78a80.64,80.64,0,0,0,18.4,6.22,26.93,26.93,0,0,0,13.57.1,3.19,3.19,0,0,0,2.48-1.81,111,111,0,0,0,7.44-23.76c.33-1.87-.26-2.43-1.91-2.86-3.62-.93-7.3-1.67-10.71-3.31-1.22-.59-2-1.46-1.26-2.76s1.77-1,2.84-.46c3.24,1.62,6.86,2,10.25,3.08,1.11.37,1.69.29,1.73-1.1.08-2.33.36-4.64.46-7,.17-4,.14-4-3.48-2.67-.62.23-1.26.45-1.9.62a41.85,41.85,0,0,1-31.48-3.12c-1.56-.81-2-.42-2.21,1.18a58.24,58.24,0,0,1-1.48,7.08c-.43,1.53-.24,2.4,1.31,3.13,3.91,1.85,7.74,3.87,11.61,5.82,1.13.57,2.51,1.12,1.8,2.72s-2.1,1.16-3.39.52C455.33,370,451.14,367.92,446.79,365.79Zm46-12.6c-.36,4.28-.66,8-1,11.7-.07.8-.08,1.46.92,1.7a71.32,71.32,0,0,0,11.48,2c1.85.12,2.43-.75,1.78-2.42a11.33,11.33,0,0,0-1.42-2.88C501.46,359.24,497.33,356.37,492.82,353.19Zm-48.28,6.49c.75-3.68,1.43-7,2.09-10.32.11-.55.27-1.14-.25-1.62s-1.08-.13-1.57.13a23.78,23.78,0,0,0-5.4,3.92,2.07,2.07,0,0,0-.18,3.1A20.85,20.85,0,0,0,444.53,359.67Z" transform="translate(-314.71 -142.17)"/><path class="2b04048d-6657-4b24-9276-8a69ed3e140c" d="M377.87,297.2c14.36.16,26,4.74,33,17s5.3,24.62-2.27,36.28a27.87,27.87,0,0,1-10.15,9.42,3.19,3.19,0,0,0-1.81,2.42c-.69,3.35-3.11,5.43-6,7a2.47,2.47,0,0,0-1.48,2.51A174.14,174.14,0,0,0,390.61,396c.28,2.17.13,3.86-2.5,4.19-1.42.17-1.35,1-1.08,2.14,2.12,9.41,4,18.87,5.48,28.4.21,1.32.42,2.65-1.26,3s-2-.92-2.23-2.28c-1.4-9.38-3.11-18.7-5.19-28-.42-1.88-1.18-2-2.72-1.67a77.68,77.68,0,0,1-27.79.45c-2-.36-1.39,1.33-1.47,2.09a165.76,165.76,0,0,1-4.13,22.31c-.48,1.93-1,3.85-1.56,5.77-.33,1.19-.83,2.31-2.38,1.91s-1.38-1.65-1-2.83a186.41,186.41,0,0,0,5.8-28.82c.21-1.63-.14-2.44-1.62-3-3-1.18-4.57-3.16-4.92-6.67-.64-6.3-1.35-12.58-1.08-18.92a3.36,3.36,0,0,0-1.19-3c-7.24-6.67-7.93-13.4-2.3-21.46a42.16,42.16,0,0,1,6.88-7.55,2.1,2.1,0,0,0,.71-2.57c-5.26-17.61,1-31.69,17.66-39.48C367.62,297.69,373.08,297.28,377.87,297.2Zm.15,3.38a38.29,38.29,0,0,0-7.88.68C352,304.56,342,321.8,348.38,339.1c4.93,13.41,15.1,19.94,28.84,21.57,10.66,1.26,19.94-1.38,27.12-9.86,9.56-11.28,10.46-29.7-.43-40.55C396.86,303.23,388.29,300.49,378,300.58Zm-29.27,46.91c-1.54,7.77-3.13,14.73-3.82,21.86-.12,1.29.67,1.75,1.55,2.27a72.62,72.62,0,0,0,15.34,6.54c2.62.82,5.27,1.53,7.91,2.26,1.14.32,1.77,1,1.48,2.18s-1.14,1.34-2.15,1.2a11.6,11.6,0,0,1-1.46-.33c-7.3-2-14.53-4.27-21.25-7.86-1.27-.68-1.71-.6-1.7,1A106.54,106.54,0,0,0,346,393.5a2.45,2.45,0,0,0,1.12,2.09c2.64,1.43,5.3,2.95,8.29,3.34a81.26,81.26,0,0,0,30-1.78,1.5,1.5,0,0,0,1.36-1.91,204.1,204.1,0,0,1-1.2-22.18c0-1.17-.4-1.37-1.5-1.15-2.94.58-5.89,1.1-8.85,1.51a82.71,82.71,0,0,1-11.21.68c-1.29,0-2.52-.26-2.56-1.73,0-1.7,1.33-1.85,2.67-1.82.58,0,1.17,0,1.75,0a91.76,91.76,0,0,0,18.28-2.27c2-.51,1.61-1.84,1.59-3.06,0-1.59-1.35-.91-2.08-.89A45.58,45.58,0,0,1,366,361.49,33.44,33.44,0,0,1,348.75,347.49Zm-7.39,20.14c.67-7.05,2.47-13.62,3.51-20.82C335.94,354.48,335.58,363,341.35,367.63Zm48.64-2a4.24,4.24,0,0,0,2.19-2.44c.13-.36-.37-.63-.63-.51-.93.46-2.34.5-2.16,2.12C389.45,365.24,389.41,365.67,390,365.68Z" transform="translate(-314.71 -142.17)"/><path class="569ea831-1324-4e52-ae21-7a4aecedde31" d="M451.74,209.12c.27,1.19-.66,1.08-1.34,1.3-.85.27-1.49.25-1.63-.82a1.72,1.72,0,0,0,0-.25c-1.06-3.77-2.55-4.46-6.26-3-1.23.49-1.16,1.57-1.21,2.5-.08,1.48-.63,2-2.17,1.87-1.93-.21-.92-1.52-.81-2.23.58-3.78,1.34-7.53,2-11.3a1.91,1.91,0,0,1,1.71-1.75c5.18-1.33,5.14-1.35,6.82,3.65A82.14,82.14,0,0,1,451.74,209.12Zm-4.59-6.53c-1.7-1.39-.17-4.75-3.19-4.33-2.1.29-1.9,3.4-1.48,4.29C443.28,204.24,445.18,202.62,447.15,202.59Z" transform="translate(-314.71 -142.17)"/><path class="569ea831-1324-4e52-ae21-7a4aecedde31" d="M422.41,235.57c.19.79-.26,1.12-.93,1.09s-1.52.67-1.89-.48c-.05-.16-.09-.32-.14-.48-.39-1.23-.15-3.24-1.33-3.51-1.58-.36-3.42.21-5.1.57-1.34.28-.88,1.66-1,2.51-.26,1.36-.55,2.13-2.19,1.78s-1-1.4-.81-2.29c.57-3.27,1.24-6.52,1.72-9.8.29-2,.76-3.17,3.19-3.47,4.12-.5,4.1-.75,5.35,3.11C420.39,228.22,421.8,231.78,422.41,235.57Zm-9.26-7.46c-.1.83-.39,1.81.69,1.46s3.24.29,3.28-1.2c0-1.31-.05-3.83-1.9-4C412.56,224.2,413.78,226.95,413.14,228.11Z" transform="translate(-314.71 -142.17)"/><path class="569ea831-1324-4e52-ae21-7a4aecedde31" d="M417.44,205.69c-1.48.23-2.7.45-3.94.6-1.73.21-1.45,1.7-1.54,2.7-.15,1.58-.83,1.92-2.24,1.72-1.86-.27-.85-1.47-.73-2.25.56-3.52,1.3-7,1.81-10.55a2.69,2.69,0,0,1,2.57-2.66c4.53-.78,4.51-.85,6,3.57a81.59,81.59,0,0,1,2.93,9.76c.22,1.09.12,1.56-1.13,1.86s-1.59-.23-1.79-1.25c-.16-.81-.46-1.6-.6-2.41S418.13,205.47,417.44,205.69Zm-4.29-3.91c-.08.78-.5,1.65.71,1.46s3.22.08,3.22-1.2.13-3.81-2-3.88C412.59,198.07,413.74,200.63,413.15,201.78Z" transform="translate(-314.71 -142.17)"/><path class="569ea831-1324-4e52-ae21-7a4aecedde31" d="M379.48,209.36c.75-4.17,1.52-8.34,2.22-12.52.13-.78.5-1.06,1.23-1.3,5.18-1.72,5.58-1.55,7.26,3.62a94.25,94.25,0,0,1,2.78,9.3c.23,1,.32,1.63-1,2s-1.67-.11-1.94-1.33-.12-3.06-1.27-3.26a12.37,12.37,0,0,0-5.13.69c-1.34.37-.88,1.85-1,2.83-.32,2-1.73,1.38-2.84,1.24C379,210.49,379.41,209.81,379.48,209.36Zm9-6.73c-1.53-1.49-.17-4.45-3.23-4.45-.64,0-2,4-1.47,4.58C385.16,204.08,386.59,202.55,388.45,202.63Z" transform="translate(-314.71 -142.17)"/><path class="569ea831-1324-4e52-ae21-7a4aecedde31" d="M392.95,234.66c.4,1.6-.07,2-.86,2s-1.64.62-1.94-.77-.14-3.29-1.38-3.8-2.72.41-4.12.48-1.94.65-1.93,2a13,13,0,0,1-.26,1.47c-.16,1.45-1.18,1-2.06,1-1.05-.09-1.06-.6-.87-1.53.78-3.83,1.55-7.66,2.08-11.53a2.24,2.24,0,0,1,2.25-2.32c4.84-.78,4.85-.85,6.33,3.71A77.57,77.57,0,0,1,392.95,234.66Zm-9.22-6.53c0,.77-.27,1.81.81,1.44s3.28.25,3.3-1.16-.09-3.84-1.93-4C383.22,224.16,384.57,227,383.73,228.13Z" transform="translate(-314.71 -142.17)"/><path class="569ea831-1324-4e52-ae21-7a4aecedde31" d="M479.51,211.72c-1.82.33-1.27-1.2-1.63-1.94-.48-1-.05-2.79-1.41-2.83a13.31,13.31,0,0,0-5.29,1.11c-.85.35-.54,1.83-.7,2.78-.25,1.51-1.14,1.31-2.18,1.17-1.35-.18-.92-1-.76-1.81.7-3.67,1.42-7.33,1.93-11a2.53,2.53,0,0,1,2.55-2.59c4.58-.68,4.6-.8,6,3.48,1.05,3.23,2.15,6.44,2.93,9.75C481.34,211.45,480.72,211.73,479.51,211.72Zm-6.45-7.24c.41-1.06,2.86.75,2.68-1.28-.11-1.31,0-3.88-2.09-3.8-2.42.09-1.38,2.67-1.92,4.13C471.45,204.28,471.74,204.84,473.06,204.47Z" transform="translate(-314.71 -142.17)"/><path class="569ea831-1324-4e52-ae21-7a4aecedde31" d="M438.13,235.66c.76-4.31,1.51-8.32,2.16-12.34.24-1.47,1.27-1.48,2.36-1.68,4.64-.82,4.66-.85,6.1,3.64q1.48,4.63,2.83,9.29c.23.8.71,1.83-.8,2.12-1.31.25-2,0-2.16-1.52-.14-1.1-.18-2.95-1.2-3.07a12,12,0,0,0-5.33.8c-1,.36-.79,1.88-.9,2.93-.14,1.26-.87,1.37-1.93,1.23S437.79,236.4,438.13,235.66Zm4.2-7.39c0,.67-.3,1.59.62,1.32,1.24-.36,3.44.28,3.51-1.25.06-1.24,0-3.85-2-4C441.76,224.25,443.29,227.16,442.33,228.27Z" transform="translate(-314.71 -142.17)"/><path class="569ea831-1324-4e52-ae21-7a4aecedde31" d="M436.25,234a18.44,18.44,0,0,0,.2,2.24c.2,1,.14,1.53-1.1,1.6-1.05.06-1.83.11-1.86-1.23,0-.33-.1-.66-.14-1-.39-3.29-.39-3.18-3.62-3-2.14.13-2.94.9-2.47,3.06.21,1,.62,2.12-1.26,2.22s-1.58-1.15-1.67-2.11c-.35-3.73-.56-7.47-.91-11.2-.1-1.11.22-1.51,1.32-1.51.89,0,1.7-.09,1.67,1.18a14.38,14.38,0,0,0,.16,1.74c.43,4.29.43,4.26,4.75,3.55,1.11-.18,1.62-.54,1.45-1.76s-.11-2.67-.29-4c-.15-1.09-.07-1.72,1.28-1.78,1.19-.05,1.56.3,1.63,1.5.22,3.49.6,7,.92,10.44Z" transform="translate(-314.71 -142.17)"/><path class="114e236a-b45e-43d6-bfcb-81359f1a84c5" d="M432.61,199c0-.46-.09-1.21-.21-1.95-.17-1,.39-1.31,1.27-1.32.74,0,1.55-.25,1.65.91q.59,6.95,1.21,13.89c.07.77-.28,1.11-1,1s-1.56.54-1.9-.53c-.18-.55-.13-1.17-.3-1.71-.34-1.05.52-2.83-.72-3.09a9.93,9.93,0,0,0-4.88.53c-1.19.38-.34,1.73-.43,2.64s.62,2.16-1.28,2.26-1.61-1.09-1.7-2.08c-.34-3.72-.58-7.45-.9-11.17-.08-.93-.08-1.61,1.16-1.66,1,0,1.85-.1,1.82,1.28a12,12,0,0,0,.14,1.49c.43,4.23.43,4.23,4.55,3.65C432.86,203,432.86,203,432.61,199Z" transform="translate(-314.71 -142.17)"/><path class="114e236a-b45e-43d6-bfcb-81359f1a84c5" d="M377.76,209.34c-.21.78.93,2.24-1.24,2.37-1.89.11-1.64-1.05-1.79-2.2s.44-2.77-.67-3.2c-1.61-.62-3.48,0-5.09.56-1,.33-.13,1.63-.26,2.48s.71,2.19-1.2,2.35-1.71-1-1.8-2.19c-.3-3.56-.59-7.12-.92-10.67-.12-1.22,0-2,1.57-2.09s1.43,1,1.47,2c0,.25,0,.5,0,.75.3,4.37.29,4.27,4.54,3.84,1.55-.16,2-.63,1.76-2.11-.21-1.22-.23-2.48-.39-3.71s.1-1.67,1.39-1.73,1.56.39,1.64,1.54C377.05,201.25,377.42,205.22,377.76,209.34Z" transform="translate(-314.71 -142.17)"/><path class="114e236a-b45e-43d6-bfcb-81359f1a84c5" d="M403.14,199.71c0-.83,0-1.66,0-2.49s.13-1.42,1.18-1.44c.89,0,1.71-.12,1.8,1.09q.55,6.84,1.11,13.67c.08.94-.45,1.14-1.22,1.1s-1.57.39-1.79-.74c0-.24,0-.5-.06-.75-.52-4.37-.49-4.2-4.74-3.59-2.53.36-1.56,1.91-1.35,3.08.27,1.55-.12,2.15-1.73,2.07-.87,0-1.13-.4-1.19-1.2q-.47-6.09-1-12.18c-.09-1,.21-1.48,1.33-1.55s1.74.29,1.7,1.48c0,.33,0,.67,0,1,.2,4.55.19,4.46,4.59,4,1.56-.16,2.09-.56,1.58-2.08a6.5,6.5,0,0,1-.15-1.49Z" transform="translate(-314.71 -142.17)"/><path class="114e236a-b45e-43d6-bfcb-81359f1a84c5" d="M377.73,235.22c-.2.71.7,1.84-.33,2.55-1.22.84-2.48,0-2.64-1.6-.37-3.83-1.72-4.58-5.41-3.2-1.57.59-.51,1.65-.64,2.48-.16,1,.72,2.33-1.32,2.48s-1.58-1.23-1.68-2.28q-.49-5.08-.88-10.17c-.08-1.06-.58-2.33,1.42-2.39,1.8-.06,1.52,1,1.58,2.08,0,.5.06,1,.11,1.49.31,3.33.31,3.16,3.65,3.06,2.43-.07,3-1.08,2.49-3.21-.2-.88-.16-1.82-.29-2.72-.15-1.09.07-1.68,1.38-1.71s1.57.32,1.65,1.52C377,227.42,377.39,231.22,377.73,235.22Z" transform="translate(-314.71 -142.17)"/><path class="114e236a-b45e-43d6-bfcb-81359f1a84c5" d="M452.67,199.4c0-.36,0-.94,0-1.53-.05-1.19.86-1,1.55-1.08s1.37,0,1.45.89c0,.5,0,1,.06,1.5.23,5,.75,5.3,5.57,4,1-.27.81-.8.75-1.45-.13-1.41-.21-2.82-.37-4.22-.12-1.06,0-1.72,1.36-1.78s1.57.42,1.65,1.56c.29,4.15.66,8.29,1,12.44.09,1.05.2,1.91-1.38,2s-1.61-.62-1.69-1.76.37-3.31-.75-3.66c-1.44-.45-3.3.07-4.88.51-1.42.4-.43,1.67-.44,2.55,0,1.09.67,2.41-1.38,2.36-1,0-1.46-.3-1.54-1.38C453.38,206.75,453,203.19,452.67,199.4Z" transform="translate(-314.71 -142.17)"/><path class="569ea831-1324-4e52-ae21-7a4aecedde31" d="M394.14,226.3c.75-.87-1.36-2.87,1.28-3.15,1.1-.12,1.79.14,1.76,1.4,0,.5,0,1,0,1.5.16,4,.16,3.93,4.05,3.63,1.69-.13,2.67-.46,2.1-2.5a19.52,19.52,0,0,1-.23-3.47c-.08-.94,0-1.58,1.23-1.6s1.69.14,1.78,1.41q.45,6.47,1.07,12.92c.11,1.17-.39,1.37-1.38,1.45s-1.69.08-1.67-1.15a4.42,4.42,0,0,0,0-.5c-.43-4.16-1.26-4.64-5.34-3.33-1.7.54-.78,1.71-.86,2.64s1,2.08-1,2.34-1.74-.88-1.85-2.05C394.79,232.71,394.47,229.56,394.14,226.3Z" transform="translate(-314.71 -142.17)"/><path class="114e236a-b45e-43d6-bfcb-81359f1a84c5" d="M408.18,250.42c-1.12,12.58-3.89,24.54-11.25,35-.33.48-.72.91-1,1.4-.57.89-1.38,1.39-2.29.74s-.33-1.49.18-2.15c7.9-10.39,10.75-22.48,11.89-35.15.09-1-.19-2.46,1.53-2.2C408.64,248.3,408.13,249.59,408.18,250.42Z" transform="translate(-314.71 -142.17)"/><path class="114e236a-b45e-43d6-bfcb-81359f1a84c5" d="M433.79,250.22c-.1-.85.12-1.44.92-1.6s1.38.3,1.6,1.15c.61,2.32,1.2,4.65,1.86,7a99.16,99.16,0,0,0,10.41,23.84c.51.85,1.62,1.93.22,2.76s-1.82-.66-2.34-1.51A100.41,100.41,0,0,1,434,251.09C434,250.76,433.85,250.45,433.79,250.22Z" transform="translate(-314.71 -142.17)"/><path class="114e236a-b45e-43d6-bfcb-81359f1a84c5" d="M457.65,229.91c.37,1.3-.4,1.54-1.45,1.68s-1.44-.3-1.52-1.35c-.19-2.49-.45-5-.77-7.44-.13-1,0-1.57,1.2-1.62,1,0,1.75,0,1.83,1.3C457.09,225,457.4,227.44,457.65,229.91Z" transform="translate(-314.71 -142.17)"/><path class="114e236a-b45e-43d6-bfcb-81359f1a84c5" d="M465.05,230c.36,1.08-.31,1.41-1.4,1.57s-1.44-.19-1.53-1.28c-.19-2.49-.49-5-.83-7.44-.16-1.17.15-1.63,1.39-1.71s1.56.3,1.63,1.48C464.46,225,464.79,227.44,465.05,230Z" transform="translate(-314.71 -142.17)"/><path class="114e236a-b45e-43d6-bfcb-81359f1a84c5" d="M472.28,228.38c-.56.89,1.47,2.76-1.12,3.18-1,.16-1.56,0-1.65-1.16-.21-2.56-.5-5.12-.78-7.67-.11-1,0-1.58,1.24-1.57,1,0,1.75,0,1.8,1.36C471.83,224.43,472.09,226.32,472.28,228.38Z" transform="translate(-314.71 -142.17)"/><path class="8fe8fe16-31b6-405d-9b9a-c2c99d3aca30" d="M456.31,234.41c1.67-.4,1.49.95,1.68,2,.24,1.22-.62,1.06-1.37,1.15-1.35.16-1.68-.59-1.82-1.74S455.24,234.32,456.31,234.41Z" transform="translate(-314.71 -142.17)"/><path class="8fe8fe16-31b6-405d-9b9a-c2c99d3aca30" d="M465.29,236.16c.32,1.3-.45,1.32-1.39,1.37-1.42.08-1.59-.75-1.7-1.85-.13-1.27.59-1.25,1.5-1.3C465.11,234.28,465.43,235,465.29,236.16Z" transform="translate(-314.71 -142.17)"/><path class="8fe8fe16-31b6-405d-9b9a-c2c99d3aca30" d="M471.38,237.49c-1.31.21-1.67-.45-1.73-1.68s.32-1.4,1.38-1.44c1.31,0,1.71.53,1.78,1.74S472.47,237.64,471.38,237.49Z" transform="translate(-314.71 -142.17)"/><path class="ab27df94-ac5b-47cf-a535-6c7bed546bb6" d="M441.71,309.71c-.18-2,1-3.53,2.14-5,7.85-10.11,18.36-13.55,30.74-11.83,7.28,1,14.13,3.44,19.72,8.32,13.37,11.68,13.22,30.58-.07,43-9.91,9.29-21.55,10.36-34,7.07-11.46-3-18.14-10.8-20.92-22.19-.61-2.49,1.17-1.94,2.35-2.26.41,2.22,1.88,2.5,4.31.78-.48-1-1.77-.08-2.28-1a3.67,3.67,0,0,0,.74-.09c.92-.3,2.36.8,2.76-.77a4,4,0,0,0-1-3.93c-1.93-2-4.54-1.86-7.51.56-.36-3.6.53-6.93,1.5-10.25,3.88-2.11,6.18-5.83,9.18-8.85C446.32,304.89,444.43,307.79,441.71,309.71Zm20.54,17c.7.73,3.81.89,5.57.21l-1.58-.3,0-.8,1.44.07.7.13c1.6-.57,1.33-1.88,1.08-3a4.24,4.24,0,0,0-5-3.33c-2.62.38-3.87,2.41-3.58,5.78-.08.3-.12.58.35.37h1Zm-17,2.53a33.12,33.12,0,0,1,3.43,6.41c.68,1.51,1.24,3.08,2,4.58,2.45,5.18,6.26,7,11.81,5.74a21.45,21.45,0,0,0,12.34-7.9c2.1-2.69,3.72-5.22,1.14-8.63-.75-1-1.08-1.52-2.39-1.35A173,173,0,0,1,445.22,329.27Zm33.44-17.5a38.31,38.31,0,0,0-8.58-8.65C470.85,305,475.94,310.16,478.66,311.78Zm-37.85,15.95c-.22.27-.44.42-.46.59s.1.55.23.59c.4.13.56-.19.55-.53C441.13,328.2,441,328,440.81,327.72Z" transform="translate(-314.71 -142.17)"/><path class="eebdcf84-dfb7-4b3d-8eb4-34641ffca171" d="M446.79,365.79c4.35,2.13,8.53,4.17,12.7,6.23,1.29.64,2.63,1.17,3.39-.52s-.67-2.15-1.8-2.72c-3.86-1.95-7.69-4-11.61-5.82-1.54-.73-1.73-1.6-1.31-3.13a58.24,58.24,0,0,0,1.48-7.08c.24-1.6.65-2,2.21-1.18a41.85,41.85,0,0,0,31.48,3.12c.64-.18,1.27-.39,1.9-.62,3.62-1.36,3.65-1.36,3.48,2.67-.1,2.33-.38,4.64-.46,7,0,1.38-.62,1.46-1.73,1.1-3.39-1.11-7-1.46-10.25-3.08-1.07-.54-2.2-.73-2.84.46s0,2.17,1.26,2.76c3.4,1.64,7.09,2.38,10.71,3.31,1.66.43,2.25,1,1.91,2.86a111,111,0,0,1-7.44,23.76,3.19,3.19,0,0,1-2.48,1.81,26.93,26.93,0,0,1-13.57-.1,80.64,80.64,0,0,1-18.4-6.22c-.52-.26-1.06-.48-1.56-.78-3.57-2.13-4-3.11-2.51-6.94C443.44,377.13,445.09,371.46,446.79,365.79Z" transform="translate(-314.71 -142.17)"/><path class="977d45ef-180e-43f7-8822-daf19692f9f2" d="M492.82,353.19c4.51,3.19,8.64,6.05,11.78,10.08a11.33,11.33,0,0,1,1.42,2.88c.65,1.67.07,2.54-1.78,2.42a71.32,71.32,0,0,1-11.48-2c-1-.23-1-.9-.92-1.7C492.15,361.18,492.46,357.46,492.82,353.19Z" transform="translate(-314.71 -142.17)"/><path class="977d45ef-180e-43f7-8822-daf19692f9f2" d="M444.53,359.67a20.85,20.85,0,0,1-5.31-4.8,2.07,2.07,0,0,1,.18-3.1,23.78,23.78,0,0,1,5.4-3.92c.48-.26,1-.66,1.57-.13s.36,1.07.25,1.62C446,352.68,445.28,356,444.53,359.67Z" transform="translate(-314.71 -142.17)"/><path class="8fe8fe16-31b6-405d-9b9a-c2c99d3aca30" d="M441.71,309.71c2.72-1.92,4.61-4.83,7.72-6.32-3,3-5.3,6.74-9.18,8.85a2.06,2.06,0,0,1,.7-2c.34-.07.72-.08.79-.55Z" transform="translate(-314.71 -142.17)"/><path class="8d7c1cf5-9184-452b-869d-9ea9c99a9ca8" d="M443.74,326.72c.51.89,1.8,0,2.28,1-2.43,1.71-3.9,1.44-4.31-.78Z" transform="translate(-314.71 -142.17)"/><path class="ab27df94-ac5b-47cf-a535-6c7bed546bb6" d="M441.74,309.66c-.07.47-.45.48-.79.55C441.22,310,441.17,309.39,441.74,309.66Z" transform="translate(-314.71 -142.17)"/><path class="ab27df94-ac5b-47cf-a535-6c7bed546bb6" d="M378,300.58c10.27-.09,18.85,2.65,25.91,9.68,10.89,10.85,10,29.27.43,40.55-7.18,8.47-16.46,11.12-27.12,9.86-13.74-1.62-23.91-8.16-28.84-21.57-6.36-17.3,3.58-34.54,21.75-37.84A38.29,38.29,0,0,1,378,300.58Zm3.82,57.76c6.25.16,12.92-4.26,14.4-9.55,1-3.62.68-4-3-3.81-.5,0-1,0-1.5,0a71.43,71.43,0,0,1-20.43-2.73c-.73-.21-1.85-1.22-2.13.75C368,351.32,373.54,358.13,381.84,358.34Zm20.22-21.9a42.35,42.35,0,0,0-11,2.76c-.68.24-1.27,1-.35,1.45,1.54.69,3,1.87,5.06,1.37-.28-1.22-1.6-1.09-2-2.08C396.48,338.68,399.57,338.32,402.06,336.44Zm-26.26,2.1c-1.89.19-3.29.32-4.69.48-.41,0-.82.2-.75.76s.47.47.76.45c2.15-.17,4.29-.34,6.43-.59.71-.08,1.16-.71.43-1.16a31.8,31.8,0,0,0-10.16-4.61C369.92,336.08,373,336.56,375.8,338.54Zm-7.3-9.11-.38.88,10.33,5.92.41-.71A66.59,66.59,0,0,0,368.51,329.43Zm21.9,6.48A44.37,44.37,0,0,0,402,332.77C397.93,332.85,394.15,334.2,390.4,335.9Z" transform="translate(-314.71 -142.17)"/><path class="879a2173-a906-4062-bd3e-a656163b7871" d="M348.75,347.49a33.44,33.44,0,0,0,17.25,14,45.58,45.58,0,0,0,17.63,2.83c.73,0,2.06-.71,2.08.89,0,1.23.41,2.55-1.59,3.06a91.76,91.76,0,0,1-18.28,2.27c-.58,0-1.17,0-1.75,0-1.34,0-2.72.12-2.67,1.82,0,1.46,1.27,1.73,2.56,1.73a82.71,82.71,0,0,0,11.21-.68c3-.41,5.91-.93,8.85-1.51,1.1-.22,1.5,0,1.5,1.15a204.1,204.1,0,0,0,1.2,22.18,1.5,1.5,0,0,1-1.36,1.91,81.26,81.26,0,0,1-30,1.78c-3-.39-5.65-1.91-8.29-3.34A2.45,2.45,0,0,1,346,393.5a106.54,106.54,0,0,1-1.34-16.91c0-1.57.44-1.64,1.7-1,6.72,3.58,14,5.82,21.25,7.86a11.6,11.6,0,0,0,1.46.33c1,.15,1.89-.11,2.15-1.2s-.34-1.86-1.48-2.18c-2.64-.73-5.29-1.44-7.91-2.26a72.62,72.62,0,0,1-15.34-6.54c-.88-.52-1.67-1-1.55-2.27C345.62,362.23,347.21,355.27,348.75,347.49Z" transform="translate(-314.71 -142.17)"/><path class="977d45ef-180e-43f7-8822-daf19692f9f2" d="M341.35,367.63c-5.78-4.65-5.42-13.15,3.51-20.82C343.82,354,342,360.58,341.35,367.63Z" transform="translate(-314.71 -142.17)"/><path class="a88c0531-0327-4ffe-878e-e01faa0732f5" d="M390,365.68c-.59,0-.55-.43-.59-.84-.18-1.62,1.22-1.66,2.16-2.12.25-.13.76.15.63.51A4.24,4.24,0,0,1,390,365.68Z" transform="translate(-314.71 -142.17)"/><path class="6bd6a886-0b9f-40fb-ae70-f7f02bb958d4" d="M447.15,202.59c-2,0-3.87,1.65-4.67,0-.42-.89-.62-4,1.48-4.29C447,197.84,445.45,201.21,447.15,202.59Z" transform="translate(-314.71 -142.17)"/><path class="02faffe0-af7a-419e-b5d5-e471c86d8593" d="M413.14,228.11c.64-1.16-.58-3.9,2.08-3.71,1.84.14,1.94,2.66,1.9,4,0,1.49-2.13.83-3.28,1.2S413,228.93,413.14,228.11Z" transform="translate(-314.71 -142.17)"/><path class="6bd6a886-0b9f-40fb-ae70-f7f02bb958d4" d="M413.15,201.78c.59-1.15-.57-3.71,1.94-3.63,2.12.07,2,2.61,2,3.88s-2,1-3.22,1.2S413.07,202.56,413.15,201.78Z" transform="translate(-314.71 -142.17)"/><path class="6bd6a886-0b9f-40fb-ae70-f7f02bb958d4" d="M388.45,202.63c-1.86-.07-3.29,1.45-4.7.12-.57-.54.83-4.57,1.47-4.58C388.28,198.17,386.92,201.14,388.45,202.63Z" transform="translate(-314.71 -142.17)"/><path class="02faffe0-af7a-419e-b5d5-e471c86d8593" d="M383.73,228.13c.84-1.11-.51-4,2.19-3.73,1.83.16,1.94,2.7,1.93,4s-2.15.77-3.3,1.16S383.77,228.91,383.73,228.13Z" transform="translate(-314.71 -142.17)"/><path class="02faffe0-af7a-419e-b5d5-e471c86d8593" d="M473.06,204.47c-1.31.37-1.6-.2-1.33-.95.53-1.46-.5-4,1.92-4.13,2.14-.08,2,2.48,2.09,3.8C475.92,205.23,473.47,203.41,473.06,204.47Z" transform="translate(-314.71 -142.17)"/><path class="02faffe0-af7a-419e-b5d5-e471c86d8593" d="M442.33,228.27c1-1.11-.57-4,2.15-3.88,2,.1,2,2.71,2,4-.07,1.53-2.27.89-3.51,1.25C442,229.86,442.32,228.94,442.33,228.27Z" transform="translate(-314.71 -142.17)"/><path class="2a65dd24-60a1-4f99-a6df-a57e67fb36a5" d="M445.22,329.27a173,173,0,0,0,28.28-1.15c1.31-.17,1.64.37,2.39,1.35,2.58,3.41,1,5.94-1.14,8.63a21.45,21.45,0,0,1-12.34,7.9c-5.55,1.3-9.36-.56-11.81-5.74-.71-1.5-1.27-3.07-2-4.58A33.12,33.12,0,0,0,445.22,329.27Z" transform="translate(-314.71 -142.17)"/><path class="74fe0af1-a8d8-472c-8b71-cd42581db80e" d="M460.88,325.47c-.3-3.37,1-5.4,3.58-5.78a4.24,4.24,0,0,1,5,3.33c.25,1.16.52,2.47-1.08,3l-.7-.13-1.44-.07a9.52,9.52,0,0,0-4.09,0h-1Z" transform="translate(-314.71 -142.17)"/><path class="8fe8fe16-31b6-405d-9b9a-c2c99d3aca30" d="M478.66,311.78c-2.72-1.62-7.8-6.8-8.58-8.65A38.31,38.31,0,0,1,478.66,311.78Z" transform="translate(-314.71 -142.17)"/><path class="8fe8fe16-31b6-405d-9b9a-c2c99d3aca30" d="M466.24,326.66l1.58.3c-1.77.68-4.88.51-5.57-.21Z" transform="translate(-314.71 -142.17)"/><path class="8d7c1cf5-9184-452b-869d-9ea9c99a9ca8" d="M466.24,326.66l-4,.08-.07-.89a9.52,9.52,0,0,1,4.09,0Z" transform="translate(-314.71 -142.17)"/><path class="8d7c1cf5-9184-452b-869d-9ea9c99a9ca8" d="M440.81,327.72c.15.3.32.48.32.66,0,.34-.15.65-.55.53-.14,0-.25-.4-.23-.59S440.59,328,440.81,327.72Z" transform="translate(-314.71 -142.17)"/><path class="8d7c1cf5-9184-452b-869d-9ea9c99a9ca8" d="M460.88,325.47l.35.37C460.76,326,460.8,325.78,460.88,325.47Z" transform="translate(-314.71 -142.17)"/><path class="8d7c1cf5-9184-452b-869d-9ea9c99a9ca8" d="M467.71,325.93l.7.13Z" transform="translate(-314.71 -142.17)"/><path class="2a65dd24-60a1-4f99-a6df-a57e67fb36a5" d="M381.84,358.34c-8.3-.21-13.87-7-12.66-15.32.29-2,1.41-1,2.13-.75A71.43,71.43,0,0,0,391.73,345c.5,0,1,0,1.5,0,3.68-.24,4,.18,3,3.81C394.75,354.08,388.09,358.5,381.84,358.34Z" transform="translate(-314.71 -142.17)"/><path class="114e236a-b45e-43d6-bfcb-81359f1a84c5" d="M402.06,336.44c-2.49,1.88-5.58,2.24-8.32,3.49.4,1,1.72.86,2,2.08-2,.51-3.52-.68-5.06-1.37-.91-.41-.32-1.21.35-1.45A42.35,42.35,0,0,1,402.06,336.44Z" transform="translate(-314.71 -142.17)"/><path class="8fe8fe16-31b6-405d-9b9a-c2c99d3aca30" d="M375.8,338.54c-2.8-2-5.88-2.47-8-4.68A31.8,31.8,0,0,1,378,338.47c.73.46.29,1.08-.43,1.16-2.14.25-4.28.42-6.43.59-.29,0-.7,0-.76-.45s.34-.71.75-.76C372.51,338.86,373.91,338.73,375.8,338.54Z" transform="translate(-314.71 -142.17)"/><path class="8fe8fe16-31b6-405d-9b9a-c2c99d3aca30" d="M368.51,329.43a66.59,66.59,0,0,1,10.36,6.09l-.41.71-10.33-5.92Z" transform="translate(-314.71 -142.17)"/><path class="8fe8fe16-31b6-405d-9b9a-c2c99d3aca30" d="M390.4,335.9c3.74-1.7,7.53-3.05,11.64-3.13A44.37,44.37,0,0,1,390.4,335.9Z" transform="translate(-314.71 -142.17)"/></svg>