<svg id="e17eb75f-4382-439d-862c-d73caeb29e78" data-name="Capa 1" xmlns="http://www.w3.org/2000/svg" viewBox="0 0 213.81 309.67"><defs><style>.b356564a-d0b4-4433-9dfc-379e0030649c{fill:#b93022;}.da0c522f-0154-4433-ad46-3670dfac560c{fill:#b7594e;}.be731d80-bdc4-49ad-896e-26726782af3d{fill:#fffefe;}.\37 1906c74-9f01-4504-aa42-fed95a7e3eca{fill:#96b4c6;}.dc4a5c0c-1e5b-44b7-b286-19e74ea5c329{fill:#131411;}.\38 c134fad-d25e-46fe-92e8-c1205737459d{fill:#f7cca0;}.d4e279b2-897a-47de-934d-b9bdd9e2c084{fill:#872219;}.\38 9d7c38d-bce7-4a98-ba89-d281f926564c{fill:#fefdfd;}.\32 c916f70-86cf-4575-8106-556656b9a92f{fill:#e2db6f;}.bf653e14-6ae2-4162-b83d-c8964b6bfcf9{fill:#574739;}.\35 1ce15f1-2db6-4a00-bf47-6016e33a31d3{fill:#616161;}.f26279f4-dab7-4037-b4e7-1ad1b922cbfc{fill:#8e8e8e;}.\35 7e2d327-2d24-4b7f-bdaa-ab47b75a483e{fill:#509541;}.b1506665-7e50-48ae-987b-ed8dad903771{fill:#69a541;}.fa9bb759-ced0-4eb8-a518-47c46483e9e1{fill:#f3d48a;}.a88a0fc1-4dca-4d68-a7b1-718ce2a80705{fill:#faf9dd;}</style></defs><title>card-7</title><path class="b356564a-d0b4-4433-9dfc-379e0030649c" d="M316.36,146.09c1.53-2.82,4.2-3.62,7.1-3.9,1.49-.15,3-.1,4.49-.1H515.39c1.42,0,2.84,0,4.25.09,4.79.35,7.65,2.95,8.43,7.68a21.6,21.6,0,0,1,.24,3.48q0,143.21,0,286.41a27.58,27.58,0,0,1-.08,3c-.68,6.22-3.78,9-10.06,9H325c-3.52,0-6.57-.88-8.62-4-1.07-2.69-1.08-5.5-1.08-8.34q0-142.36,0-284.73C315.28,151.76,315.27,148.87,316.36,146.09Zm2.89,231.47c-.51.56-.35,1.25-.35,1.9q0,16,0,31.9a2.68,2.68,0,0,0,.35,1.91c-.87,2.38-.43,4.83-.32,7.25l0,2.61c-.87,2.07-.43,4.24-.29,6.33a2.09,2.09,0,0,0,2.59,2,9.47,9.47,0,0,1,5.63,1.13c-.12.12-.23.32-.36.33-6.67.7-7.94.32-7.68,7.78.16,4.42.65,5.32,4.61,6.92.65.78,1.55.47,2.34.47q95.89,0,191.78,0c.57,0,1.43.61,1.8-.42,3.9-1.55,4.63-2.63,4.67-6.93,0-.33,0-.67,0-1q0-143,0-285.92c0-.75,0-1.5,0-2.25-.2-3.07-1.71-4.76-4.72-5.2a24.38,24.38,0,0,0-3.49-.16H327.37a32.6,32.6,0,0,0-3.49.12c-3.32.36-4.72,1.82-5,5.14-.07.91,0,1.83,0,2.75q0,84.85,0,169.7,0,23.62,0,47.24C318.83,373.32,318.36,375.48,319.25,377.57Z" transform="translate(-314.5 -142.08)"/><path class="da0c522f-0154-4433-ad46-3670dfac560c" d="M316.36,146.09c-1.08,2.77-1.07,5.67-1.07,8.59q0,142.36,0,284.73c0,2.84,0,5.65,1.08,8.34-1.88-2.2-1.85-4.9-1.85-7.54q0-65.83,0-131.66,0-77.45,0-154.9C314.51,151,314.52,148.31,316.36,146.09Z" transform="translate(-314.5 -142.08)"/><path class="be731d80-bdc4-49ad-896e-26726782af3d" d="M318.91,371.19q0-23.62,0-47.24,0-84.85,0-169.7c0-.92,0-1.84,0-2.75.25-3.32,1.64-4.78,5-5.14a32.6,32.6,0,0,1,3.49-.12H515.82a24.38,24.38,0,0,1,3.49.16c3,.44,4.52,2.13,4.72,5.2,0,.75,0,1.5,0,2.25q0,143,0,285.92c0,.33,0,.67,0,1,0,4.3-.77,5.38-4.67,6.93-.83,0-1.66-.07-2.49-.07H421.17l-97.71,0c-4-1.59-4.45-2.5-4.61-6.92-.27-7.46,1-7.08,7.68-7.78.13,0,.24-.22.36-.33,1.06.05,1.33,1.5,2.67,1.3,2.16-.32,4.43-.75,6.09,1.44.36.47,1.11.48,1.77,0,1-.77,1.67-.54,2.07.62.26.76.37,1.57.66,2.87.24-.87.34-1.17.42-1.49.75-3,1.2-3.35,4.43-3.16.83,0,1.66.08,2.49.12.23.47-1.6,1.17.27,1.6a2.26,2.26,0,0,1,1.48,2.29c-.06.51,0,1.13.66,1,.82-.14.57-.86.41-1.38-.37-1.24-1.1-2.48.28-3.57,4.83,1.08,9.73.33,14.59.51a3.36,3.36,0,0,0,3.29-1.7c2.62-.72,5.41.17,8-.82l.36-.34c1,.23,1.33,1.28,2.09,2.25.53-1.81-.45-3-.65-4.34,2.54-.58,5.15.31,7.62-.54a2.32,2.32,0,0,1,2.56-1.57,46.94,46.94,0,0,0,5.39-.11,11.3,11.3,0,0,1,3.42.6c3.7,1.23,7.43,2.36,11.11,3.65,1.46.51,2.73.56,3.33-1s-.59-2.38-2-2.84l-1.17-.41a187,187,0,0,0-32.79-8.32c-1-.15-1.74-.13-1.38-1.57,1.49-5.87,1.43-11.86,1.13-17.84-.17-3.43-.49-6.85-.76-10.5a29.07,29.07,0,0,1,13.06,9.17c4.95,6.19,6.45,13.55,7,21.19.1,1.41.65,2.31,2,2.3s2-1.07,2-2.38c0-1.49-.2-3-.37-4.47-1.52-13.05-7.36-23.27-19.79-28.63-3.55-1.53-6.17-3-6.47-7.19-.12-1.62-1.29-2.12-2.87-2-3.89.35-7.82.41-11.67,1-2.09.31-4.2-.42-6.23.39-.54-.73-1,0-1.51.08l-1,.08-8.47-.15-1,.07c-.84-.5-1.66,0-2.48,0-3.56-.28-7.11-.66-10.67-.82a4.31,4.31,0,0,1-4.25-2.67A12.83,12.83,0,0,0,318.91,371.19Zm91.48-7.12.46-.39,1.58-.28,1-.22c.67.18,1.6-.43,2,.49.77,1.77,2.22,2.15,3.89,2,1-.1,1.58.33,1.47,1.17-.52,3.92,1.87,2.84,3.93,2.36.65-.15,1.3-.31,1.95-.44,3.5-.74,3.5-.74,2.82-4.21a5.18,5.18,0,0,0-.34-1.19c-.41-.88.1-1.2.79-1.45,8.73-3.2,16.56-7.68,22.25-16.16a148,148,0,0,1,1.24,21.94c-1.65.73-3.29,3.95-2.7,5.45.73,1.86,1.78-.64,2.62.14l0,1.83c-.35.28-.25.55,0,.82-.44,5.34-.88,10.68-1.33,16-.14,1.59-.06,3,1.92,3.4.71.63.54,1.49.64,2.3.17,1.42.5,2.79,1.85,3.62-.39,4.89-.85,9.77-1.16,14.67-.28,4.4-.41,8.81-.58,13.21,0,1.32.17,2.62,1.86,2.7s2.17-1.13,2.16-2.64c0-1,.13-2,.15-3,.19-9.07,1-18.1,1.88-27.13.16-1.58.56-2,2.26-1.62a78,78,0,0,0,28,.58c3.2-.52,3.18.64,3.52,2.89a159.43,159.43,0,0,0,7.45,29.15c.48,1.36,1,2.88,2.88,2.28,2.08-.65,1.52-2.22,1-3.68A181.59,181.59,0,0,1,498,398c-.28-1.63,0-2.65,1.65-3.29,2.69-1.05,4.64-2.65,4.76-5.95.1-2.9.65-5.78,1-8.67.86.64.12,1.83.87,2.51.06,1.16.13,2.33.17,3.49,0,1.38.45,2.58,2.06,2.57,1.82,0,2.06-1.34,2-2.81-.19-3.41-.32-6.82-.57-10.22-.94-12.45-2-24.89-6-36.81a7.35,7.35,0,0,1,.8-7c12.07-19.93,5.49-40-11.74-49.36-9.9-5.39-20.57-5.46-31.34-3.32-16.67,3.31-31.45,18.74-27.82,40.59a37.43,37.43,0,0,0,13,22.68c1.1,1,1.68,1.6.56,2.92a39.88,39.88,0,0,1-4.8,5.06,49.72,49.72,0,0,1-14.79,8.11c-.74.28-1.54.48-1.78-.58s.68-.74,1.15-.83c1.23-.22,1.62-.77,1.38-2.08-.46-2.51-2.84-3.91-5.86-3.27-4.22.88-8.38,2.08-12.71,2.41-1,0-1.33-.82-1.81-1.49-2.43-3.4-9.09-5.71-13.73-3.66s-8.46,6.69-8.45,11.31a13.13,13.13,0,0,0,10.74,12.8C404.08,374.35,409.88,368.44,410.39,364.07Zm24.78-15.52c.43-.08,1.3.31,1.47-.63.12-.66-.49-1-1-1.26a14.61,14.61,0,0,0-2.27-1c-.85-.25-2.07-.63-2.49.31-.5,1.12.79,1.43,1.55,1.82A4.88,4.88,0,0,0,435.17,348.54Z" transform="translate(-314.5 -142.08)"/><path class="71906c74-9f01-4504-aa42-fed95a7e3eca" d="M319,423.14q0-1.3,0-2.6c.57-.81,1.21-1.58,1.71-2.44a46.32,46.32,0,0,0,5.3-33.92A6.37,6.37,0,0,1,330.1,386c.31-1.89.31-1.89-.66-4.16l9.4.58c1.05,2.1,2.1,1.79,3.14,0l4.83,0a4.49,4.49,0,0,1,.19,3.78c-.19.46-1.16,1-.09,1.59a2.09,2.09,0,0,0,2.52-.33,1.56,1.56,0,0,0,0-2c-.94-1.32-.42-2.33,1.42-2.86.73,0,1.49.21,2-.51,1.39.13,2.81-.34,4.09.07.69.78-1.34,1.29-.13,1.82.83.37,2,.5,1.94-1.24,0-.91,1-1,1.71-1.07,2.13-.22,4.27-.29,6.39-.56,1.61-.21,2.27.25,2.7,1.94a91.85,91.85,0,0,1,2.23,28.23A29.32,29.32,0,0,1,368.53,423a4.28,4.28,0,0,1-3.58,2.59c-4.95.64-9.9,1.19-14.89,1.37C339.48,427.32,329.21,425.3,319,423.14Zm12.88-33,.12,0c1.29.46,1.92,1.66,2.83,2.63-.86-2.53,2.23-5.42-.84-7.63-.12-.09-.23-.19-.39-.33a2.88,2.88,0,0,1-1.69,2.24C331,387.49,331,389.69,331.83,390.17Zm25.92,1c1.46.53,3.11,1.08,4,0s-1.12-2-.7-3.87C359.61,388.91,359.23,390.49,357.76,391.2Z" transform="translate(-314.5 -142.08)"/><path class="dc4a5c0c-1e5b-44b7-b286-19e74ea5c329" d="M319,423.14c10.26,2.16,20.53,4.18,31.11,3.8,5-.18,9.95-.73,14.89-1.37a4.28,4.28,0,0,0,3.58-2.59,29.32,29.32,0,0,0,3.32-11.65,91.85,91.85,0,0,0-2.23-28.23c-.42-1.68-1.09-2.15-2.7-1.94-2.12.28-4.26.34-6.39.56-.71.07-1.75.16-1.71,1.07.07,1.74-1.12,1.6-1.94,1.24-1.21-.53.83-1,.13-1.82-1.28-.41-2.7.06-4.09-.07-.71-1-1.68-2-1.5-3.42,2-.81,4.13-.08,6.23-.39,3.85-.57,7.78-.64,11.67-1,1.58-.14,2.76.35,2.87,2,.3,4.15,2.92,5.66,6.47,7.19,12.43,5.36,18.27,15.58,19.79,28.63.17,1.49.33,3,.37,4.47,0,1.32-.59,2.37-2,2.38s-1.92-.89-2-2.3c-.54-7.64-2-15-7-21.19a29.07,29.07,0,0,0-13.06-9.17c.27,3.65.59,7.07.76,10.5.3,6,.37,12-1.13,17.84-.37,1.44.39,1.41,1.38,1.57a187,187,0,0,1,32.79,8.32l1.17.41c1.36.47,2.61,1.15,2,2.84s-1.87,1.52-3.33,1c-3.68-1.28-7.41-2.42-11.11-3.65a11.3,11.3,0,0,0-3.42-.6c-.4-.46-1-.32-1.47-.42l-3.7-1.09c-4.18-1.41-8.58-1.83-12.85-2.81-2.62-.6-4.31,0-4.84,2.8a5.22,5.22,0,0,1-4,2.82c-3.81.7-7.67.88-11.47,1.69q5.06.22,10.11.12a2.49,2.49,0,0,1,2.61,1.42l.24.93a3.36,3.36,0,0,1-3.29,1.7c-4.86-.18-9.76.56-14.59-.51l-3.1,0c-.83,0-1.66-.07-2.49-.12-3.23-.19-3.68.13-4.43,3.16-.08.31-.17.62-.42,1.49-.29-1.3-.4-2.11-.66-2.87-.39-1.16-1.08-1.39-2.07-.62-.66.52-1.41.51-1.77,0-1.67-2.19-3.94-1.76-6.09-1.44-1.34.2-1.61-1.25-2.67-1.3a9.46,9.46,0,0,0-5.63-1.13,2.09,2.09,0,0,1-2.59-2C318.52,427.38,318.09,425.21,319,423.14Z" transform="translate(-314.5 -142.08)"/><path class="dc4a5c0c-1e5b-44b7-b286-19e74ea5c329" d="M325.93,384.18a46.32,46.32,0,0,1-5.3,33.92c-.49.86-1.13,1.63-1.71,2.44-.12-2.43-.56-4.87.32-7.26.41-1,.86-2,1.22-3,3.95-11.06,4.81-22-1.22-32.71-.88-2.08-.41-4.24-.34-6.38a12.83,12.83,0,0,1,3.09,4.17,4.31,4.31,0,0,0,4.25,2.67c3.56.16,7.11.53,10.67.82a2.07,2.07,0,0,0,2.48,0l1-.07a18,18,0,0,0,8.47.15l1-.08a5.47,5.47,0,0,1,.89,3.41c-1.33,0-2.68-.38-4,.24l-4.83,0c-1.05-1.36-2.1-1.27-3.15,0l-9.4-.58-1.7-.18C324.76,381.4,324.76,381.4,325.93,384.18Z" transform="translate(-314.5 -142.08)"/><path class="8c134fad-d25e-46fe-92e8-c1205737459d" d="M319.25,377.57c6,10.7,5.17,21.65,1.22,32.71-.36,1-.81,2-1.22,3a2.67,2.67,0,0,1-.35-1.91q0-16,0-31.9C318.9,378.82,318.74,378.13,319.25,377.57Z" transform="translate(-314.5 -142.08)"/><path class="d4e279b2-897a-47de-934d-b9bdd9e2c084" d="M323.45,447.67l97.71,0h95.71c.83,0,1.66,0,2.49.07-.38,1-1.24.42-1.8.42q-95.89.06-191.78,0C325,448.14,324.11,448.45,323.45,447.67Z" transform="translate(-314.5 -142.08)"/><path class="dc4a5c0c-1e5b-44b7-b286-19e74ea5c329" d="M453.84,395.33c-2-.38-2.05-1.81-1.92-3.4.46-5.34.89-10.67,1.33-16,0-.27,0-.55,0-.82l0-1.82.08-5.59a148,148,0,0,0-1.24-21.94c-5.69,8.48-13.53,13-22.25,16.16-.69.25-1.2.57-.79,1.45a5.18,5.18,0,0,1,.34,1.19c.68,3.46.68,3.46-2.82,4.21-.65.14-1.3.29-1.95.44-2.06.48-4.44,1.56-3.93-2.36.11-.84-.49-1.27-1.47-1.17-1.68.17-3.13-.21-3.89-2-.4-.92-1.33-.31-2-.49a.75.75,0,0,0-1,.22l-1.58.28a1.87,1.87,0,0,0-2,.45l-.5.06a1.08,1.08,0,0,1-.52-1c3.9-.66,7.61-2.25,11.71-2.07,1.38.06,2.67-1,3-2.91l-14.24,2.59v-1.12c1.36-.33,2.71-.68,4.07-1,4.28-.93,8.57-1.83,12.85-2.77.84-.18,2.12-.26,1.33-1.63s-6.65-1.07-7.6.23a8.11,8.11,0,0,1-10.76,1.9c-.48-.3-1,0-1.43.09,0-.72.66-1,1-1.54.6-.45,1.54,0,2-.78,4.33-.33,8.49-1.53,12.71-2.41,3-.63,5.41.77,5.86,3.27.24,1.31-.16,1.86-1.38,2.08-.47.09-1.38-.16-1.15.83s1,.86,1.78.58a49.72,49.72,0,0,0,14.79-8.11,39.88,39.88,0,0,0,4.8-5.06c1.12-1.32.54-2-.56-2.92a37.43,37.43,0,0,1-13-22.68c-3.63-21.85,11.15-37.28,27.82-40.59C472.38,277,483,277.1,493,282.5c17.23,9.38,23.81,29.43,11.74,49.36a7.35,7.35,0,0,0-.8,7c4,11.92,5.1,24.37,6,36.81.26,3.4.38,6.81.57,10.22.08,1.47-.15,2.8-2,2.81-1.61,0-2-1.19-2.06-2.57,0-1.16-.11-2.33-.17-3.49a15.2,15.2,0,0,0-.87-6.61v4.1c-.35,2.89-.89,5.77-1,8.67-.12,3.3-2.08,4.89-4.76,5.95-1.63.64-1.92,1.66-1.65,3.29a181.59,181.59,0,0,0,7.75,30.62c.52,1.46,1.08,3-1,3.68-1.91.6-2.4-.92-2.88-2.28a159.43,159.43,0,0,1-7.45-29.15c-.34-2.25-.32-3.42-3.52-2.89a78,78,0,0,1-28-.58c-1.7-.34-2.1,0-2.26,1.62-.92,9-1.69,18.05-1.88,27.13,0,1-.16,2-.15,3,0,1.51-.35,2.73-2.16,2.64s-1.91-1.38-1.86-2.7c.16-4.4.3-8.81.58-13.21.31-4.89.77-9.78,1.16-14.67.62-.88.34-1.9.48-2.86C457.14,396,456.2,395,453.84,395.33ZM437.92,305.2A33.17,33.17,0,0,0,437,317c1.8-1.13,3.51-1.64,5.37-1l2,1.26a7.34,7.34,0,0,1,1.09,3.9l-.75,1.94c-1.35,2-3.33,2.52-5.93,2,2.9,6.68,6.42,12.45,12.54,16.24a4.39,4.39,0,0,0,2.09,1.21c6.62,3.88,13.76,4.61,21.21,3.59,15.14-2.06,25.94-9.5,31-24.47,6.65-19.77-6.56-34.73-20.22-38.57a46,46,0,0,0-24.43-.22c-10.61,2.79-18.16,9.36-22.24,19.69A4.29,4.29,0,0,0,437.92,305.2Zm24.46,44.63c-1.19-.36-2.42-.64-3.58-1.09-1.66-.64-2.24-.22-2,1.58.88,5.69.7,11.46.77,17.17a148.82,148.82,0,0,1-1.17,21.92c-.21,1.55,0,2.66,1.9,2.61a6.71,6.71,0,0,0,1.14.49A88.7,88.7,0,0,0,484,394.58a32.2,32.2,0,0,0,13-3.08,5.57,5.57,0,0,0,3.35-4.73,116.34,116.34,0,0,0-2.45-44.08c-.38-1.55-.77-1.71-2.1-.79C485.72,348.89,474.47,351.18,462.38,349.83Zm-38.91,10.66c-.69.47-1.32,1-.91,2l.84,2.06c.33.81.47,2,1.78,1.4,1.15-.51.81-1.48.42-2.34s-.79-1.64-1.21-2.44C424.22,360.81,424,360.41,423.47,360.49Zm-13.13-4.39c1.73.25,3.42.4,5.19-.79A7.71,7.71,0,0,0,410.34,356.09Zm17.83,9.51a.86.86,0,0,0,0,1.15A.87.87,0,0,0,428.17,365.6Zm-.42-1.29,0-.21-.27.06a.54.54,0,0,0,.08.19S427.7,364.32,427.75,364.3Z" transform="translate(-314.5 -142.08)"/><path class="89d7c38d-bce7-4a98-ba89-d281f926564c" d="M409.9,354.18c-.48.76-1.42.32-2,.78l-2.93.36a2.92,2.92,0,0,0-1.51-2.14,9,9,0,0,0-13.9,5.67c-1.41,6,4.16,11.21,8.7,11,4-.2,6.39-2.27,8.66-5l1.5-.65.5-.06,1.5-.06c-.51,4.37-6.31,10.28-13.75,9.07a13.13,13.13,0,0,1-10.74-12.8c0-4.62,4-9.33,8.45-11.31s11.3.26,13.73,3.66C408.57,353.37,408.87,354.2,409.9,354.18Z" transform="translate(-314.5 -142.08)"/><path class="8c134fad-d25e-46fe-92e8-c1205737459d" d="M385.87,429.25c-2.47.85-5.08,0-7.62.54.2,1.36,1.18,2.53.65,4.34-.76-1-1.07-2-2.09-2.25l0-.21c.23,0,.51-.17.68-.09s.29-.22,0-.25c-1.23-.14-2.48-.22-3.88-.34a5.35,5.35,0,0,1,4.74-1.89c2.49.09,5,0,7.48-.08Z" transform="translate(-314.5 -142.08)"/><path class="2c916f70-86cf-4575-8106-556656b9a92f" d="M435.17,348.54a4.88,4.88,0,0,1-2.77-.78c-.76-.39-2.05-.7-1.55-1.82.43-.95,1.64-.56,2.49-.31a14.61,14.61,0,0,1,2.27,1c.53.26,1.15.6,1,1.26C436.47,348.85,435.6,348.47,435.17,348.54Z" transform="translate(-314.5 -142.08)"/><path class="2c916f70-86cf-4575-8106-556656b9a92f" d="M453.36,367.68l-.08,5.59c-.84-.79-1.88,1.71-2.62-.15C450.08,371.63,451.71,368.41,453.36,367.68Z" transform="translate(-314.5 -142.08)"/><path class="2c916f70-86cf-4575-8106-556656b9a92f" d="M453.84,395.33c2.36-.3,3.31.68,3,3.07-.14,1,.14,2-.48,2.86-1.35-.83-1.68-2.2-1.85-3.62C454.38,396.82,454.55,396,453.84,395.33Z" transform="translate(-314.5 -142.08)"/><path class="d4e279b2-897a-47de-934d-b9bdd9e2c084" d="M347.47,434.29l3.1,0c-1.38,1.09-.66,2.33-.29,3.57.16.53.41,1.25-.41,1.38-.65.11-.71-.51-.66-1a2.26,2.26,0,0,0-1.48-2.29C345.87,435.46,347.71,434.76,347.47,434.29Z" transform="translate(-314.5 -142.08)"/><path class="da0c522f-0154-4433-ad46-3670dfac560c" d="M392.36,427.16c.5.1,1.07,0,1.47.42a47,47,0,0,1-5.4.11,2.32,2.32,0,0,0-2.56,1.57l0-.23c.19-1.35-.64-1.46-1.67-1.44-2.05,0-4.1,0-6.15,0v-.43Z" transform="translate(-314.5 -142.08)"/><path class="da0c522f-0154-4433-ad46-3670dfac560c" d="M368.45,433l-.24-.93c2.69.46,5.36-1.15,8.06-.09l.18.2C373.86,433.22,371.07,432.33,368.45,433Z" transform="translate(-314.5 -142.08)"/><path class="bf653e14-6ae2-4162-b83d-c8964b6bfcf9" d="M350.8,382.21a5.47,5.47,0,0,0-.89-3.41c.5-.09,1-.81,1.51-.08-.18,1.44.79,2.37,1.5,3.42-.54.72-1.3.55-2,.51A2.73,2.73,0,0,0,350.8,382.21Z" transform="translate(-314.5 -142.08)"/><path class="bf653e14-6ae2-4162-b83d-c8964b6bfcf9" d="M348.88,378.88a18,18,0,0,1-8.47-.15Z" transform="translate(-314.5 -142.08)"/><path class="71906c74-9f01-4504-aa42-fed95a7e3eca" d="M505.43,380.15v-4.1a15.2,15.2,0,0,1,.87,6.61C505.55,382,506.29,380.79,505.43,380.15Z" transform="translate(-314.5 -142.08)"/><path class="bf653e14-6ae2-4162-b83d-c8964b6bfcf9" d="M339.4,378.8a2.07,2.07,0,0,1-2.48,0C337.74,378.82,338.56,378.31,339.4,378.8Z" transform="translate(-314.5 -142.08)"/><path class="bf653e14-6ae2-4162-b83d-c8964b6bfcf9" d="M410.39,364.07l-1.5.06a1.87,1.87,0,0,1,2-.45Z" transform="translate(-314.5 -142.08)"/><path class="2c916f70-86cf-4575-8106-556656b9a92f" d="M453.25,375.1c0,.28,0,.55,0,.82C453,375.64,452.9,375.37,453.25,375.1Z" transform="translate(-314.5 -142.08)"/><path class="bf653e14-6ae2-4162-b83d-c8964b6bfcf9" d="M412.43,363.4a.75.75,0,0,1,1-.22Z" transform="translate(-314.5 -142.08)"/><path class="da0c522f-0154-4433-ad46-3670dfac560c" d="M376.84,431.68l0,.21-.36.34-.18-.2Z" transform="translate(-314.5 -142.08)"/><path class="51ce15f1-2db6-4a00-bf47-6016e33a31d3" d="M331.83,390.17c-.81-.49-.85-2.68,0-3.06a2.88,2.88,0,0,0,1.69-2.24c.17.14.27.25.39.33,3.07,2.22,0,5.11.84,7.63-.91-1-1.54-2.16-2.84-2.63,2.45-.07,2.45-.07,2.07-2.39C333.85,389.18,331.95,388.75,331.83,390.17Z" transform="translate(-314.5 -142.08)"/><path class="51ce15f1-2db6-4a00-bf47-6016e33a31d3" d="M350.8,382.21a2.73,2.73,0,0,1,.09.44c-1.85.53-2.36,1.53-1.42,2.86a1.56,1.56,0,0,1,0,2,2.09,2.09,0,0,1-2.52.33c-1.07-.54-.1-1.13.09-1.59a4.49,4.49,0,0,0-.19-3.78C348.11,381.83,349.47,382.24,350.8,382.21Z" transform="translate(-314.5 -142.08)"/><path class="f26279f4-dab7-4037-b4e7-1ad1b922cbfc" d="M325.93,384.18c-1.17-2.77-1.17-2.77,1.81-2.52l1.7.18c1,2.27,1,2.27.66,4.16A6.37,6.37,0,0,0,325.93,384.18Z" transform="translate(-314.5 -142.08)"/><path class="d4e279b2-897a-47de-934d-b9bdd9e2c084" d="M357.76,391.2c1.47-.71,1.85-2.29,3.33-3.84-.42,1.89,1.69,2.76.7,3.87S359.22,391.72,357.76,391.2Z" transform="translate(-314.5 -142.08)"/><path class="d4e279b2-897a-47de-934d-b9bdd9e2c084" d="M338.84,382.42c1-1.28,2.09-1.36,3.15,0C340.95,384.21,339.9,384.52,338.84,382.42Z" transform="translate(-314.5 -142.08)"/><path class="d4e279b2-897a-47de-934d-b9bdd9e2c084" d="M376.84,431.68l-.57.35c-2.7-1.06-5.36.54-8.06.09a2.49,2.49,0,0,0-2.61-1.42q-5.05.11-10.11-.12c3.8-.81,7.66-1,11.47-1.69a5.22,5.22,0,0,0,4-2.82h17.68l3.7,1.09H378v.43c2.05,0,4.1,0,6.15,0,1,0,1.86.09,1.67,1.44-2.49,0-5,.18-7.48.08a5.35,5.35,0,0,0-4.74,1.89c1.4.12,2.64.2,3.88.34.31,0,.31.4,0,.25S377.07,431.64,376.84,431.68Z" transform="translate(-314.5 -142.08)"/><path class="89d7c38d-bce7-4a98-ba89-d281f926564c" d="M388.66,426.07H371c.53-2.81,2.22-3.4,4.84-2.8C380.08,424.24,384.48,424.66,388.66,426.07Z" transform="translate(-314.5 -142.08)"/><path class="8c134fad-d25e-46fe-92e8-c1205737459d" d="M438.69,302.61c4.08-10.33,11.62-16.89,22.24-19.69a46,46,0,0,1,24.43.22c13.67,3.83,26.87,18.79,20.22,38.57-5,15-15.83,22.4-31,24.47-7.45,1-14.59.28-21.21-3.59a4.69,4.69,0,0,0-.06-1.24c-1.55-4.69-2.85-9.49-4.82-14-.9-2.07-1-4.64-3.07-6.18a7.34,7.34,0,0,0-1.09-3.9,6.14,6.14,0,0,0-.1-1.71c-1.41-4-2.9-8-4.32-12A1.33,1.33,0,0,0,438.69,302.61Zm24.22,27a3.38,3.38,0,0,0,2.4.15c-.66-.86-1.59-.75-2.38-.92-4.22-1.24-8.49.2-12.76-.33a4.15,4.15,0,0,0,3.52,1.21C456.76,329.68,459.83,329.63,462.9,329.59Zm1.62-14.91a4.46,4.46,0,0,0-4.83,4.74,4.69,4.69,0,0,0,4.31,4.84,5,5,0,0,0,5.24-4.85A4.79,4.79,0,0,0,464.52,314.67Z" transform="translate(-314.5 -142.08)"/><path class="57e2d327-2d24-4b7f-bdaa-ab47b75a483e" d="M462.38,349.83c12.09,1.35,23.34-.94,33.44-7.93,1.32-.91,1.71-.75,2.1.79a116.34,116.34,0,0,1,2.45,44.08A5.57,5.57,0,0,1,497,391.5a32.2,32.2,0,0,1-13,3.08,88.7,88.7,0,0,1-24.54-2.08,6.63,6.63,0,0,1-1.14-.49c.51-3.67,1.44-7.34,1.42-11,0-5.86,1-11.61,1.4-17.41C461.5,359,462.24,354.44,462.38,349.83Z" transform="translate(-314.5 -142.08)"/><path class="b1506665-7e50-48ae-987b-ed8dad903771" d="M462.38,349.83c-.14,4.62-.88,9.19-1.22,13.77-.44,5.8-1.43,11.55-1.4,17.41,0,3.67-.91,7.34-1.42,11-1.9,0-2.11-1.06-1.9-2.61a148.82,148.82,0,0,0,1.17-21.92c-.07-5.71.11-11.48-.77-17.17-.28-1.79.3-2.21,2-1.58C460,349.18,461.18,349.47,462.38,349.83Z" transform="translate(-314.5 -142.08)"/><path class="2c916f70-86cf-4575-8106-556656b9a92f" d="M451.31,341.38c-6.12-3.79-9.64-9.56-12.54-16.24,2.6.49,4.57,0,5.93-2a77.44,77.44,0,0,1,4.1,10.65C449.63,336.3,451.29,338.58,451.31,341.38Z" transform="translate(-314.5 -142.08)"/><path class="f26279f4-dab7-4037-b4e7-1ad1b922cbfc" d="M406.84,356.5c.48-.09.95-.39,1.43-.09a8.11,8.11,0,0,0,10.76-1.9c.95-1.3,6.84-1.56,7.6-.23s-.49,1.44-1.33,1.63c-4.28.94-8.57,1.84-12.85,2.77-1.36.3-2.72.65-4.07,1l-1.88,0L405,358.16C405.19,357.11,405.93,356.71,406.84,356.5Z" transform="translate(-314.5 -142.08)"/><path class="2c916f70-86cf-4575-8106-556656b9a92f" d="M442.38,316c-1.86-.64-3.57-.13-5.37,1a33.18,33.18,0,0,1,.91-11.81,1.05,1.05,0,0,1,1,.63Q440.66,310.91,442.38,316Z" transform="translate(-314.5 -142.08)"/><path class="fa9bb759-ced0-4eb8-a518-47c46483e9e1" d="M451.31,341.38c0-2.8-1.68-5.08-2.51-7.62a77.44,77.44,0,0,0-4.1-10.65l.75-1.94c2,1.54,2.17,4.11,3.07,6.18,2,4.51,3.27,9.31,4.82,14a4.69,4.69,0,0,1,.06,1.24A4.39,4.39,0,0,1,451.31,341.38Z" transform="translate(-314.5 -142.08)"/><path class="51ce15f1-2db6-4a00-bf47-6016e33a31d3" d="M408.38,360.77l14.24-2.59c-.36,1.86-1.64,3-3,2.91-4.1-.18-7.81,1.42-11.71,2.07-.94-.2-1.83.67-2.79.16.5-.63,1.26-1.1,1.27-2C407,361.12,407.82,361.38,408.38,360.77Z" transform="translate(-314.5 -142.08)"/><path class="fa9bb759-ced0-4eb8-a518-47c46483e9e1" d="M442.38,316q-1.73-5.09-3.47-10.18a1.05,1.05,0,0,0-1-.63,4.29,4.29,0,0,1,.76-2.58,1.33,1.33,0,0,1,1.25,1c1.42,4,2.91,8,4.32,12a6.14,6.14,0,0,1,.1,1.71Z" transform="translate(-314.5 -142.08)"/><path class="bf653e14-6ae2-4162-b83d-c8964b6bfcf9" d="M406.84,356.5c-.91.22-1.66.62-1.81,1.66-1.5,2.22-4.3,2.26-6.25,3.72l-.33-.38c-.54-2,.62-2.7,2.31-2.77,1.86-.08,3.36-.45,3.55-2.7,0-.25.42-.47.64-.71l2.93-.36C407.51,355.45,406.88,355.77,406.84,356.5Z" transform="translate(-314.5 -142.08)"/><path class="bf653e14-6ae2-4162-b83d-c8964b6bfcf9" d="M423.47,360.49c.56-.07.75.32.93.68.42.81.84,1.61,1.21,2.44s.72,1.83-.42,2.34c-1.31.58-1.45-.6-1.78-1.4l-.84-2.06C422.15,361.47,422.77,361,423.47,360.49Z" transform="translate(-314.5 -142.08)"/><path class="bf653e14-6ae2-4162-b83d-c8964b6bfcf9" d="M405.09,363.33c1,.51,1.84-.37,2.79-.16a1.08,1.08,0,0,0,.52,1l-1.5.65c-2.37.38-4.92,1.48-6.41-1.63.63-1.08,1.81-.94,2.15-.22C403.41,364.68,404.18,363.94,405.09,363.33Z" transform="translate(-314.5 -142.08)"/><path class="f26279f4-dab7-4037-b4e7-1ad1b922cbfc" d="M410.34,356.09a7.71,7.71,0,0,1,5.19-.79C413.76,356.49,412.06,356.34,410.34,356.09Z" transform="translate(-314.5 -142.08)"/><path class="bf653e14-6ae2-4162-b83d-c8964b6bfcf9" d="M408.38,360.77c-.56.6-1.35.34-2,.52-.45-.58-.2-1.1.14-1.62l1.88,0Q408.38,360.21,408.38,360.77Z" transform="translate(-314.5 -142.08)"/><path class="bf653e14-6ae2-4162-b83d-c8964b6bfcf9" d="M428.17,365.6a.87.87,0,0,1,0,1.15A.86.86,0,0,1,428.17,365.6Z" transform="translate(-314.5 -142.08)"/><path class="bf653e14-6ae2-4162-b83d-c8964b6bfcf9" d="M427.75,364.3c-.05,0-.14.05-.16,0a.54.54,0,0,1-.08-.19l.27-.06Z" transform="translate(-314.5 -142.08)"/><path class="a88a0fc1-4dca-4d68-a7b1-718ce2a80705" d="M400.49,363.21c1.49,3.1,4,2,6.41,1.63-2.27,2.72-4.62,4.79-8.66,5-4.54.23-10.11-4.95-8.7-11a9,9,0,0,1,13.9-5.67,2.92,2.92,0,0,1,1.51,2.14c-.22.24-.62.46-.64.71-.19,2.25-1.69,2.62-3.55,2.7-1.69.07-2.84.76-2.31,2.77-1.25,1.44-3.46.84-4.73,2.43,1.69-.54,3.49.17,5.13-.7Z" transform="translate(-314.5 -142.08)"/><path class="d4e279b2-897a-47de-934d-b9bdd9e2c084" d="M331.83,390.17c.11-1.42,2-1,2.19-2.35.38,2.32.38,2.32-2.07,2.39Z" transform="translate(-314.5 -142.08)"/><path class="dc4a5c0c-1e5b-44b7-b286-19e74ea5c329" d="M464.52,314.67a4.79,4.79,0,0,1,4.72,4.73,5,5,0,0,1-5.24,4.85,4.69,4.69,0,0,1-4.31-4.84A4.46,4.46,0,0,1,464.52,314.67Z" transform="translate(-314.5 -142.08)"/><path class="bf653e14-6ae2-4162-b83d-c8964b6bfcf9" d="M462.9,329.59c-3.07,0-6.15.1-9.22.12a4.15,4.15,0,0,1-3.52-1.21c4.27.53,8.54-.92,12.76.33Q462.91,329.2,462.9,329.59Z" transform="translate(-314.5 -142.08)"/><path class="51ce15f1-2db6-4a00-bf47-6016e33a31d3" d="M462.9,329.59q0-.39,0-.77c.8.18,1.72.06,2.39.92A3.38,3.38,0,0,1,462.9,329.59Z" transform="translate(-314.5 -142.08)"/><path class="2c916f70-86cf-4575-8106-556656b9a92f" d="M400.49,363.21l-1.62,0-.08-1.35c2-1.46,4.75-1.5,6.25-3.72l1.46,1.53c-.34.51-.59,1-.14,1.62,0,.93-.77,1.4-1.27,2-.91.61-1.68,1.35-2.45-.34C402.3,362.26,401.12,362.13,400.49,363.21Z" transform="translate(-314.5 -142.08)"/><path class="fa9bb759-ced0-4eb8-a518-47c46483e9e1" d="M398.78,361.87l.08,1.35c-1.64.87-3.44.15-5.14.7,1.26-1.58,3.48-1,4.73-2.43Z" transform="translate(-314.5 -142.08)"/></svg>