<svg id="4a7c881c-1aef-4d7a-b95e-6e79aaaba27a" data-name="Capa 1" xmlns="http://www.w3.org/2000/svg" viewBox="0 0 213.64 309.74"><defs><style>.\32 5d74edd-5ab2-4006-8f7e-f374210c70ab{fill:#171818;}.b7b2dce2-48c2-469e-bdb7-bf1fd8efe1a6{fill:#fefefe;}.\33 4b39a4c-288e-4113-ae91-bac212c7a52f{fill:#161514;}.eef6264a-f008-44a0-ae56-49b3ff7da6f2{fill:#161713;}.\30 93379df-108c-4e51-8be7-47483d9efeb0{fill:#1e1e1f;}.\30 f262a61-23aa-420b-8134-7d6c6a9a7d01{fill:#222323;}.\31 5dfea40-96f3-49f8-bf3c-e556e61fd452{fill:#413328;}.\38 340d4b5-10f0-4d3b-ade8-0310719f43a1{fill:#c3c3c3;}.\33 8883017-1ade-493f-82e2-a98bb066393b{fill:#f7cca0;}.\37 9c87417-f075-4542-a96a-e1e8e01c5b6b{fill:#95b4c7;}.e4064037-6141-4a47-a7d8-01cf4437bed9{fill:#f6cca0;}.\36 38b8b0f-0cd7-424c-8603-d72760d42a4c{fill:#509541;}.dcf74b52-86e4-4b0a-abef-3ad07cd25ea0{fill:#eaeae9;}.af025f29-a090-452d-b36b-4b216fa204ef{fill:#f8f8f8;}.\38 4ce1261-a3b0-4310-8353-998c2dab6ae0{fill:#18120c;}</style></defs><title>card-35</title><path class="25d74edd-5ab2-4006-8f7e-f374210c70ab" d="M319.95,342q0-71.5,0-143a33.76,33.76,0,0,1,.14-3.74,8.5,8.5,0,0,1,8-7.82c1.66-.15,3.33-.22,5-.22q93.62,0,187.25,0c1.33,0,2.66.08,4,.15,5.94.34,9.08,3.6,9.23,9.57,0,.58,0,1.17,0,1.75q0,143,0,286c0,.67,0,1.33,0,2-.12,6.89-3.53,10.26-10.39,10.26H330.93c-7.66,0-11-3.25-11-10.94q0-33.37,0-66.75Q319.95,380.62,319.95,342Zm4.16-.14q0,71.62,0,143.24c0,6.12,1.48,7.58,7.69,7.58H522c5.82,0,7.32-1.51,7.32-7.44q0-143.24,0-286.47c0-5.73-1.51-7.29-7.23-7.29q-95.37,0-190.73,0c-6,0-7.27,1.36-7.27,7.4Q324.1,270.36,324.11,341.85Z" transform="translate(-319.94 -187.19)"/><path class="b7b2dce2-48c2-469e-bdb7-bf1fd8efe1a6" d="M324.11,341.85q0-71.49,0-143c0-6,1.28-7.4,7.27-7.4q95.37,0,190.73,0c5.73,0,7.23,1.56,7.23,7.29q0,143.24,0,286.47c0,5.94-1.5,7.44-7.32,7.44H331.8c-6.21,0-7.69-1.46-7.69-7.58Q324.11,413.47,324.11,341.85Zm58.78-87.64a30.74,30.74,0,0,1-4.6-6.78,2.39,2.39,0,0,0-3-1.47c-1.41.27-.71,1.48-.74,2.25a42.78,42.78,0,0,0,.87,9.92c.19.94.23,1.74,1.65,1.44s1.09-1.21.92-2.06a28.87,28.87,0,0,1-.79-6.48c2.16,3.05,4,5.66,5.84,8.29a1.56,1.56,0,0,0,2,.82c1.12-.31,1.2-.92,1.15-1.81-.21-3.49-.42-7-.59-10.46,0-1-.23-1.53-1.43-1.45s-1.32.6-1.22,1.6c.19,1.9.27,3.81.4,5.71Zm.94,20.59c1.73,2.44,3.5,4.85,5.17,7.33a1.71,1.71,0,0,0,2.06.85c1.11-.24,1.19-1,1.14-1.86-.21-3.57-.4-7.14-.61-10.71,0-.78-.1-1.51-1.25-1.34s-1.5.55-1.4,1.78a27,27,0,0,1,.24,6.65,42.43,42.43,0,0,1-5.13-7.82c-.63-1.33-1.67-1.2-2.71-1.09-1.35.13-.78,1.26-.79,2a43.35,43.35,0,0,0,.92,10.66c.22,1,.4,1.55,1.57,1.23s1.31-.81,1-1.82a18.06,18.06,0,0,1-.75-5.39Zm17.39,144.67v-2.94l.86,0q.88,6.93,1.75,13.86c.18,1.41.58,2.88,2.35,2.47,1.55-.36,1.35-1.76,1.15-3.1a269.14,269.14,0,0,1-2.84-35.3,4,4,0,0,1,2-3.83c15.67-11.25,19.4-34.35,9.08-48.63-6.65-9.2-15.75-14.05-26.92-15.18-11.36-1.15-22.12.32-31.26,7.91A30.57,30.57,0,0,0,346,354.32c-1.39,9.62,1.33,18.25,6.57,26.22.64,1,1.24,1.74.74,3.14-5.53,15.57-6.33,31.87-7.25,48.15-.08,1.34.3,2.41,1.81,2.39,1.34,0,1.68-1,1.72-2.24.1-3,.34-6,.53-9h.89c.36,3.23.85,6.44,1,9.68.2,3.64,1.4,6.43,5.15,7.58,1.16.35,1.39,1.06,1.18,2.29a187.94,187.94,0,0,1-7.67,30.93c-.4,1.16-1,2.52.7,3.12s2.28-.77,2.71-2.09c1-3.09,2-6.15,2.93-9.27a150.39,150.39,0,0,0,4.58-21.18c.18-1.36.57-1.74,2.08-1.32A45.53,45.53,0,0,0,374.38,444a76.28,76.28,0,0,0,18.12-1.48c1.56-.32,2.12,0,2.2,1.7.16,3.66.66,7.29.9,10.95.4,6.23.72,12.46,1,18.7.06,1.33.39,2.41,1.9,2.37s1.73-1.08,1.63-2.31c0-.33,0-.67,0-1q-.39-14.11-1.92-28.14c-.25-2.29-.23-4,2.68-4.29,1.58-.14,1.91-1.3,1.78-2.74-.42-4.56-1.08-9.09-1.1-13.68C401.7,422.51,402,421,401.22,419.47Zm50.58-20.68c1.49,12.67.82,25.3-.46,37.9-.26,2.55.32,3.88,2.83,4.15,1.69.18,1.87,1,1.69,2.54-1.21,9.92-1.73,19.9-2.12,29.88,0,1.26-.11,2.7,1.65,2.83s1.79-1.24,1.85-2.56c.38-9.65,1-19.28,1.94-28.9.2-1.92.76-2.58,2.7-2.07a36.24,36.24,0,0,0,4.67.78,70.88,70.88,0,0,0,23.6-.57c1.62-.33,1.89-.08,2.12,1.43a171.56,171.56,0,0,0,7.56,30.18c.44,1.26.83,2.83,2.6,2.28s1.31-2,.8-3.32c-.12-.31-.19-.64-.3-1a170.14,170.14,0,0,1-7.22-28.73c-.29-1.79-.31-3.2,1.86-3.85,3-.88,4-3.18,4.08-6.1,0-1.32.34-2.64.49-4a106.83,106.83,0,0,0,.33-24c5.85,2.53,8.23,2,12.59-2.7.23-.24.44-.5.66-.75,1.69-1.79,2.67-4.68,6.05-3.82a1.58,1.58,0,0,0,1-.18,1.7,1.7,0,0,0,1-2,1.41,1.41,0,0,0-1.84-1.22,5.63,5.63,0,0,1-2.93-.15,2.51,2.51,0,0,0-3.11,1.3,27.18,27.18,0,0,1-3.74,4.66c-4.15,4.18-7,3.67-9.5-1.63-2-4.26-2.84-8.83-3.68-13.42a3.53,3.53,0,0,1,.82-3.17,38.38,38.38,0,0,0,6-10.59c8.4-22-5.43-40.33-23.47-44.43a47.14,47.14,0,0,0-26.59,1.29c-11.1,3.94-19.15,11.6-21.93,23.11-3.82,15.82,1.32,29,14.28,39,.65.5,1.13.92,1,1.8-.6,3.86-1,7.77-2.94,11.28-1.57,2.89-3.33,3.29-6.13,1.47a24.33,24.33,0,0,1-5.21-5c-1-1.2-1.81-2.75-3.08-3.54-1.6-1-2.84.82-4.25,1.37a1.64,1.64,0,0,1-.49.07c-1.4.09-2.64.54-2.24,2.22s1.84,1.4,3.1,1.24a2.79,2.79,0,0,0,1.18-.37c1.3-.88,2-.21,2.79.82a28.7,28.7,0,0,0,5.64,5.63c5.11,3.8,9.69,2.63,12.25-3.19C450.52,402.88,451.09,400.81,451.79,398.79Zm-8.22-137.4a15.08,15.08,0,0,0,5-.87c3.53-1.42,4-4.85,1-7.12-.68-.51-1-.64-.44-1.58,1.39-2.48.41-4.53-2.38-5.28-2.06-.56-4.1-.12-6.16.2-1.31.2-1.79.67-1.64,2.08.33,3,.47,6.12.66,9.18C439.82,261.4,439.81,261.4,443.57,261.39Zm-37.24,14c-1.82.23-3.63.43-5.45.69-1,.15-2.18.15-1.84,1.86s1.52.59,2.3.79c1.26.32,3.3-1.75,3.72.91s-2.18,1.68-3.47,2.27a1.86,1.86,0,0,1-.74,0,4.92,4.92,0,0,1-5.21-4.9c-.11-2.68,1.88-4.64,5-4.59,1.33,0,1.88-.49,2-1.59.15-1.53-1.24-1.11-1.94-1.18a7.22,7.22,0,0,0-7.64,6.35c-.43,4.44,2.41,8.1,6.57,8.46a21.14,21.14,0,0,0,7.12-1c1.12-.29,1.36-.92,1.28-2s-.86-2.58,0-3.33a2,2,0,0,0,.54-2.41C408.1,274.61,407.07,275.63,406.33,275.42Zm-9.87-29.6c-4.6,0-8.79,4.07-8.78,8.49a7,7,0,0,0,7,7.2c4.85,0,9-4,8.89-8.59A7,7,0,0,0,396.46,245.82Zm75.95,0c-4.62,0-8.78,4-8.81,8.43a6.94,6.94,0,0,0,6.91,7.26c4.84,0,9-4,9-8.53A7.07,7.07,0,0,0,472.41,245.82ZM438.29,260c-.79-3.89-2.23-7.2-3.06-10.65-.63-2.61-1.93-3.17-4.13-2.26-1.14.47-2.93-.28-3.23,1.94-.47,3.54-1.22,7-1.85,10.55-.13.72-.44,1.48.81,1.6,1.08.1,1.72,0,1.85-1.3.09-.9-.14-2.2,1.06-2.52a10.82,10.82,0,0,1,4.61-.62c1,.2.77,2,1.19,3.07a.84.84,0,0,1,0,.25c.08,1.17.89.94,1.64.88S438.41,260.49,438.29,260Zm2,8.46a14.54,14.54,0,0,0-7.57,2.51c-1.43,1-2.52,2.32-2,4.2s2.05,2.25,3.7,2.39c1.82.16,3.65.27,5.47.41.42,0,.9.11,1,.56s-.29.73-.6,1a8.86,8.86,0,0,1-4.34,1.75c-1.34.22-.93,1.11-.91,1.88,0,1.08.82.88,1.44.76a12.42,12.42,0,0,0,5.64-2.46c1.16-.95,2-2.09,1.6-3.66a3.24,3.24,0,0,0-3.16-2.38c-1.9-.21-3.81-.3-5.71-.46-.5,0-1.05-.16-1.21-.7s.34-.89.72-1.19a10.31,10.31,0,0,1,6.08-1.9c1.09-.06,2.25.17,2.17-1.54C442.52,267.7,441,268.88,440.3,268.49Zm-27.76-19.61c.29,3.3.46,6,.8,8.76.11.85-.41,2.33,1.57,2.07s1-1.5,1.06-2.4-.6-1.75.83-2.18c3.54-1.06,4.38-.57,4.77,3a4.45,4.45,0,0,1,0,.5c0,.86.41,1.19,1.26,1s1.5,0,1.39-1.2q-.56-6-.95-11.92c-.07-1.06-.6-1.14-1.45-1.14-1,0-1.31.46-1.21,1.37a30.55,30.55,0,0,0,.32,3.22c.32,1.5-.19,2-1.69,2.17-4.61.52-3.44.88-4-3.12a11.11,11.11,0,0,1-.09-1.74c0-1-.7-.91-1.37-.9s-1.35,0-1.26,1A11.32,11.32,0,0,1,412.54,248.87Zm8.63,26.58c.32,2.43-.72,5.61.92,7.14,1.48,1.38,4.44.26,6.72-.23.08,0,.16-.06.24-.07.95-.16,1.36-.53,1.17-1.67s-.81-1.19-1.73-1-2.13.29-3.2.45-1.25-.37-1.32-1.28.25-1.34,1.21-1.37,2.15-.27,3.23-.3,1.26-.44,1.22-1.39-.32-1.56-1.48-1.38c-.82.13-1.66.09-2.49.17-1.14.11-2.05.25-2.08-1.48,0-1.53.34-2.14,1.9-2,.82.08,1.66-.08,2.49,0,1.14,0,1.38-.5,1.33-1.53s-.54-1.19-1.43-1.14c-1.83.12-3.66.21-5.48.18-1.29,0-1.79.38-1.61,1.74C421,272,421,273.71,421.17,275.45Zm5.86,26.4c-.11,8.93,1.79,16.23,7.69,22.07.67.66,1.43,1.77,2.49.77s0-1.76-.7-2.43a22.52,22.52,0,0,1-5.91-10.52,39.9,39.9,0,0,1-.6-15.6c.11-.84.54-2-.84-2.22s-1.5.81-1.67,1.86A39.34,39.34,0,0,0,427,301.86Zm-16.92-29.23c.16,2.13.29,3.62.37,5.12.37,7.18.64,7.37,7.77,5.42.32-.09.66-.12,1-.22.78-.27,1.62-.41,1.07-1.68-.4-.93-.68-1.35-1.78-.93a34.28,34.28,0,0,1-3.4.77c-1.44.38-1.92-.16-1.95-1.6,0-2.58-.25-5.16-.41-7.73-.05-.87.16-1.83-1.35-1.8-1.69,0-1.3,1.09-1.3,2C410.11,272.43,410.11,272.84,410.11,272.63ZM453.39,254h.28c0,1.91,0,3.82,0,5.73,0,1.07.41,1.45,1.47,1.43a24,24,0,0,0,7.11-1.06c.69-.23,1.51-.26,1.12-1.44s-.83-1.5-2-1.11-2.08.55-3.12.82c-1.41.36-2.12,0-2.11-1.64,0-2.49-.25-5-.38-7.46-.05-1,.12-2-1.51-1.86s-1.17,1.05-1.14,1.88C453.17,250.83,453.3,252.41,453.39,254Zm-78.32,19.73H375c.22,2.81.47,5.63.65,8.44.06,1,.42,1.48,1.52,1.38.93-.08,1.31-.34,1.23-1.36q-.49-6-.85-11.93c-.07-1.16-.68-1.31-1.64-1.27s-1.2.62-1.09,1.49C374.91,271.56,375,272.64,375.07,273.71Zm73.42,9.63c1.09.18,1.22-.38,1.18-1.28,0-1.15-.51-1.58-1.66-1.53-1,0-1.3.32-1.16,1.32S447.29,283.58,448.49,283.34Z" transform="translate(-319.94 -187.19)"/><path class="34b39a4c-288e-4113-ae91-bac212c7a52f" d="M350.17,423c-.19,3-.43,6-.53,9,0,1.27-.38,2.22-1.72,2.24-1.51,0-1.89-1-1.81-2.39.92-16.28,1.72-32.58,7.25-48.15.5-1.4-.11-2.17-.74-3.14-5.25-8-8-16.6-6.57-26.22a30.57,30.57,0,0,1,11.29-19.62c9.14-7.59,19.9-9.05,31.26-7.91,11.17,1.13,20.27,6,26.92,15.18,10.32,14.28,6.59,37.38-9.08,48.63a4,4,0,0,0-2,3.83,269.14,269.14,0,0,0,2.84,35.3c.2,1.33.4,2.74-1.15,3.1-1.78.41-2.18-1.05-2.35-2.47q-.88-6.93-1.75-13.86a12.14,12.14,0,0,0-.85-5.85,24.21,24.21,0,0,0,0,5.88v2.94a11.92,11.92,0,0,0,.35,4.58c0,4.59.68,9.13,1.1,13.68.13,1.44-.19,2.6-1.78,2.74-2.91.25-2.93,2-2.68,4.29q1.55,14,1.92,28.14c0,.33,0,.67,0,1,.1,1.23-.25,2.27-1.63,2.31s-1.83-1-1.9-2.37c-.3-6.24-.62-12.47-1-18.7-.23-3.65-.74-7.29-.9-10.95-.07-1.74-.63-2-2.2-1.7A76.28,76.28,0,0,1,374.38,444a45.53,45.53,0,0,1-10.63-1.24c-1.5-.42-1.9,0-2.08,1.32a150.39,150.39,0,0,1-4.58,21.18c-.88,3.12-1.94,6.18-2.93,9.27-.42,1.32-.9,2.71-2.71,2.09s-1.1-2-.7-3.12a187.94,187.94,0,0,0,7.67-30.93c.2-1.23,0-1.93-1.18-2.29-3.76-1.15-5-3.93-5.15-7.58-.18-3.24-.67-6.45-1-9.68v-7.56A18.51,18.51,0,0,0,350.17,423Zm31.91-93.09c-10.45-.18-20,3.2-27,12-10.8,13.61-6.09,36,9.48,45.46a41.65,41.65,0,0,0,18.89,5.78c11,.82,20-2.66,27.06-11.36,9.34-11.58,10-30-.28-40.89C402.73,332.93,393.34,329.87,382.07,329.94Zm-23.66,57.38c-4.44,18.38-5.1,29.57-2.73,46.1.15,1,0,2.18,1.21,2.84,2.83,1.61,5.73,3.19,9,3.6a84.63,84.63,0,0,0,31.46-1.78c1.63-.41,1.92-1.17,1.75-2.6a185,185,0,0,1-.5-38.61c.17-2-.42-2-2-1.47-5.67,1.82-11.47,1.68-17.29.83A42.55,42.55,0,0,1,358.41,387.31Z" transform="translate(-319.94 -187.19)"/><path class="eef6264a-f008-44a0-ae56-49b3ff7da6f2" d="M451.79,398.79c-.7,2-1.28,4.09-2.13,6-2.56,5.83-7.14,7-12.25,3.19a28.7,28.7,0,0,1-5.64-5.63c-.79-1-1.49-1.7-2.79-.82a2.79,2.79,0,0,1-1.18.37c-1.26.17-2.72.38-3.1-1.24s.84-2.13,2.24-2.22a1.64,1.64,0,0,0,.49-.07c1.41-.56,2.65-2.36,4.25-1.37,1.27.79,2.07,2.34,3.08,3.54a24.33,24.33,0,0,0,5.21,5c2.81,1.82,4.57,1.42,6.13-1.47,1.9-3.51,2.34-7.42,2.94-11.28.14-.88-.35-1.3-1-1.8-13-10-18.1-23.17-14.28-39,2.78-11.51,10.83-19.16,21.93-23.11a47.14,47.14,0,0,1,26.59-1.29c18,4.1,31.87,22.4,23.47,44.43a38.38,38.38,0,0,1-6,10.59,3.53,3.53,0,0,0-.82,3.17c.84,4.59,1.69,9.16,3.68,13.42,2.47,5.3,5.35,5.81,9.5,1.63a27.18,27.18,0,0,0,3.74-4.66,2.51,2.51,0,0,1,3.11-1.3,5.63,5.63,0,0,0,2.93.15,1.41,1.41,0,0,1,1.84,1.22,1.7,1.7,0,0,1-1,2,1.58,1.58,0,0,1-1,.18c-3.38-.86-4.36,2-6.05,3.82-.23.24-.44.5-.66.75-4.37,4.69-6.75,5.22-12.59,2.7a106.83,106.83,0,0,1-.33,24c-.15,1.32-.46,2.64-.49,4-.09,2.92-1.11,5.22-4.08,6.1-2.17.65-2.15,2.06-1.86,3.85a170.14,170.14,0,0,0,7.22,28.73c.11.31.17.64.3,1,.51,1.31,1,2.76-.8,3.32s-2.16-1-2.6-2.28a171.56,171.56,0,0,1-7.56-30.18c-.23-1.51-.5-1.76-2.12-1.43a70.88,70.88,0,0,1-23.6.57,36.24,36.24,0,0,1-4.67-.78c-1.94-.52-2.5.14-2.7,2.07-1,9.61-1.56,19.25-1.94,28.9-.05,1.32,0,2.7-1.85,2.56s-1.7-1.57-1.65-2.83c.38-10,.91-20,2.12-29.88.19-1.53,0-2.36-1.69-2.54-2.51-.26-3.09-1.6-2.83-4.15C452.62,424.09,453.28,411.46,451.79,398.79ZM438.11,351c-.67-.41-.82.12-1,.56l0,.89c-.25,1.72-.52,3.45-.74,5.17-1.68,13,5.67,27,17.14,32.61,7.27,3.57,14.88,3.81,22.64,2.23,12.95-2.62,22.25-9.6,26.68-22.41,5.16-14.92-.14-29.1-13.86-36.28-8.73-4.57-18.08-4.69-27.49-2.79-10.56,2.13-18.18,8.18-22.87,17.88-.32.65-1.16,1.27-.49,2.18Zm57.42,36.68c-12.14,8.19-24.89,11.57-39.06,7.52-1.14-.32-1.2.2-1.11,1.18.3,3.31.58,6.64.7,10A252.56,252.56,0,0,1,455,435.24c-.1,1.32-.15,2.35,1.59,2.79a88.14,88.14,0,0,0,26.51,2.34,28.39,28.39,0,0,0,13.1-3.65,3.36,3.36,0,0,0,2-2.9c.26-3.4.7-6.78,1.08-10.17C500.59,411.43,498.29,399.61,495.53,387.65Z" transform="translate(-319.94 -187.19)"/><path class="093379df-108c-4e51-8be7-47483d9efeb0" d="M443.57,261.39c-3.76,0-3.75,0-4-3.4-.19-3.06-.34-6.13-.66-9.18-.15-1.41.33-1.87,1.64-2.08,2.05-.32,4.1-.75,6.16-.2,2.79.75,3.77,2.8,2.38,5.28-.53.94-.25,1.07.44,1.58,3,2.26,2.51,5.69-1,7.12A15.08,15.08,0,0,1,443.57,261.39Zm.4-2.72c3-.07,5-.81,4.76-1.9-.34-1.95-2.12-1.73-3.37-1.55s-3.24-.92-3.2,1.71C442.19,258.26,442.62,259,444,258.67Zm.46-9.74c-1,.43-3-.76-2.71,1.66.07.74-.44,2,1,2.08s4.59-1.86,4.33-2.75C446.63,248.62,445.39,249.14,444.43,248.93Z" transform="translate(-319.94 -187.19)"/><path class="093379df-108c-4e51-8be7-47483d9efeb0" d="M406.33,275.42c.74.21,1.77-.81,2.2.32a2,2,0,0,1-.54,2.41c-.82.75,0,2.2,0,3.33s-.17,1.72-1.28,2a21.14,21.14,0,0,1-7.12,1c-4.16-.36-7-4-6.57-8.46a7.22,7.22,0,0,1,7.64-6.35c.71.07,2.09-.35,1.94,1.18-.11,1.1-.66,1.61-2,1.59-3.13,0-5.12,1.91-5,4.59a4.92,4.92,0,0,0,5.21,4.9,1.86,1.86,0,0,0,.74,0c1.28-.59,3.9.51,3.47-2.27s-2.46-.59-3.72-.91c-.79-.2-1.94,1-2.3-.79s.8-1.71,1.84-1.86C402.7,275.85,404.52,275.65,406.33,275.42Z" transform="translate(-319.94 -187.19)"/><path class="093379df-108c-4e51-8be7-47483d9efeb0" d="M396.46,245.82a7,7,0,0,1,7.12,7.1c.08,4.58-4,8.56-8.89,8.59a7,7,0,0,1-7-7.2C387.67,249.89,391.86,245.84,396.46,245.82Zm-.09,2.66a6.24,6.24,0,0,0-6,5.84,4.22,4.22,0,0,0,4.24,4.55,6.25,6.25,0,0,0,6.25-5.84A4.32,4.32,0,0,0,396.37,248.48Z" transform="translate(-319.94 -187.19)"/><path class="093379df-108c-4e51-8be7-47483d9efeb0" d="M472.41,245.82a7.07,7.07,0,0,1,7.07,7.17c.05,4.56-4.12,8.53-9,8.53a6.94,6.94,0,0,1-6.91-7.26C463.63,249.79,467.79,245.81,472.41,245.82Zm4.32,7.15a4.21,4.21,0,0,0-4.52-4.48c-3.05.07-6,3-6,5.89a4.34,4.34,0,0,0,4.34,4.49A6.17,6.17,0,0,0,476.72,253Z" transform="translate(-319.94 -187.19)"/><path class="093379df-108c-4e51-8be7-47483d9efeb0" d="M383.31,275.23a18.06,18.06,0,0,0,.75,5.39c.28,1,0,1.54-1,1.82s-1.35-.27-1.57-1.23a43.35,43.35,0,0,1-.92-10.66c0-.7-.55-1.83.79-2,1-.1,2.08-.24,2.71,1.09a42.43,42.43,0,0,0,5.13,7.82,27,27,0,0,0-.24-6.65c-.1-1.23.28-1.62,1.4-1.78s1.21.56,1.25,1.34c.2,3.57.4,7.14.61,10.71.05.9,0,1.62-1.14,1.86a1.71,1.71,0,0,1-2.06-.85c-1.66-2.48-3.44-4.89-5.17-7.33l-.42-.57C383,274.53,383.2,274.89,383.31,275.23Z" transform="translate(-319.94 -187.19)"/><path class="25d74edd-5ab2-4006-8f7e-f374210c70ab" d="M383.38,253.76c-.13-1.9-.21-3.81-.4-5.71-.1-1,0-1.52,1.22-1.6s1.38.49,1.43,1.45c.17,3.49.38,7,.59,10.46.05.9,0,1.51-1.15,1.81a1.56,1.56,0,0,1-2-.82c-1.82-2.63-3.69-5.24-5.84-8.29a28.87,28.87,0,0,0,.79,6.48c.17.85.56,1.75-.92,2.06s-1.47-.5-1.65-1.44a42.78,42.78,0,0,1-.87-9.92c0-.77-.67-2,.74-2.25a2.39,2.39,0,0,1,3,1.47,30.74,30.74,0,0,0,4.6,6.78c.13.17.28.46.49.21S383.39,254,383.38,253.76Z" transform="translate(-319.94 -187.19)"/><path class="093379df-108c-4e51-8be7-47483d9efeb0" d="M438.29,260c.12.46-.21.87-1.07.94s-1.56.29-1.64-.88a.84.84,0,0,0,0-.25c-.42-1.06-.17-2.87-1.19-3.07a10.82,10.82,0,0,0-4.61.62c-1.21.32-1,1.62-1.06,2.52-.13,1.3-.77,1.4-1.85,1.3-1.25-.12-.94-.88-.81-1.6.62-3.52,1.38-7,1.85-10.55.3-2.22,2.09-1.47,3.23-1.94,2.2-.91,3.5-.35,4.13,2.26C436.06,252.83,437.5,256.14,438.29,260Zm-7.33-5.6c.67-.45,2.56.3,2.53-1.07,0-1.21,0-3.47-1.77-3.59-2.39-.16-1.36,2.35-2,3.61C429.39,254.13,429.76,254.66,431,254.43Z" transform="translate(-319.94 -187.19)"/><path class="0f262a61-23aa-420b-8134-7d6c6a9a7d01" d="M440.3,268.49c.71.39,2.22-.78,2.31,1.18.08,1.71-1.08,1.47-2.17,1.54a10.31,10.31,0,0,0-6.08,1.9c-.39.31-.89.62-.72,1.19s.71.65,1.21.7c1.9.16,3.81.25,5.71.46a3.24,3.24,0,0,1,3.16,2.38c.38,1.57-.44,2.71-1.6,3.66a12.42,12.42,0,0,1-5.64,2.46c-.61.12-1.41.32-1.44-.76,0-.77-.44-1.66.91-1.88a8.86,8.86,0,0,0,4.34-1.75c.31-.26.73-.54.6-1s-.6-.53-1-.56c-1.82-.14-3.65-.25-5.47-.41-1.65-.14-3.22-.58-3.7-2.39s.6-3.18,2-4.2A14.54,14.54,0,0,1,440.3,268.49Z" transform="translate(-319.94 -187.19)"/><path class="093379df-108c-4e51-8be7-47483d9efeb0" d="M412.54,248.87a11.32,11.32,0,0,0,0-1.42c-.09-1,.57-1,1.26-1s1.38-.14,1.37.9a11.11,11.11,0,0,0,.09,1.74c.57,4-.59,3.64,4,3.12,1.51-.17,2-.66,1.69-2.17a30.55,30.55,0,0,1-.32-3.22c-.1-.92.19-1.38,1.21-1.37.85,0,1.38.08,1.45,1.14q.39,6,.95,11.92c.11,1.22-.67,1.07-1.39,1.2s-1.26-.18-1.26-1a4.45,4.45,0,0,0,0-.5c-.39-3.6-1.24-4.09-4.77-3-1.43.43-.77,1.36-.83,2.18s.87,2.15-1.06,2.4-1.46-1.23-1.57-2.07C413,254.92,412.83,252.18,412.54,248.87Z" transform="translate(-319.94 -187.19)"/><path class="093379df-108c-4e51-8be7-47483d9efeb0" d="M421.17,275.45c-.12-1.74-.17-3.49-.4-5.22-.18-1.37.31-1.76,1.61-1.74,1.83,0,3.66-.06,5.48-.18.89-.06,1.39.08,1.43,1.14S429.1,271,428,271c-.83,0-1.67.13-2.49,0-1.56-.16-1.92.46-1.9,2,0,1.73.94,1.6,2.08,1.48.83-.08,1.67,0,2.49-.17,1.15-.18,1.42.36,1.48,1.38s-.22,1.36-1.22,1.39-2.15.27-3.23.3-1.29.39-1.21,1.37.32,1.42,1.32,1.28,2.14-.25,3.2-.45,1.52-.23,1.73,1-.22,1.5-1.17,1.67c-.08,0-.16.06-.24.07-2.28.49-5.24,1.61-6.72.23C420.45,281.06,421.49,277.89,421.17,275.45Z" transform="translate(-319.94 -187.19)"/><path class="093379df-108c-4e51-8be7-47483d9efeb0" d="M427,301.86a39.34,39.34,0,0,1,.46-6.07c.17-1.05.21-2.13,1.67-1.86s1,1.38.84,2.22a39.9,39.9,0,0,0,.6,15.6,22.52,22.52,0,0,0,5.91,10.52c.68.68,1.81,1.39.7,2.43s-1.81-.11-2.49-.77C428.82,318.09,426.92,310.79,427,301.86Z" transform="translate(-319.94 -187.19)"/><path class="0f262a61-23aa-420b-8134-7d6c6a9a7d01" d="M410.11,272.63c0,.21,0-.2,0-.62,0-.95-.38-2,1.3-2,1.51,0,1.29.93,1.35,1.8.16,2.58.36,5.15.41,7.73,0,1.44.51,2,1.95,1.6a34.28,34.28,0,0,0,3.4-.77c1.1-.41,1.38,0,1.78.93.55,1.27-.29,1.41-1.07,1.68-.31.11-.65.14-1,.22-7.14,1.94-7.4,1.75-7.77-5.42C410.41,276.25,410.27,274.76,410.11,272.63Z" transform="translate(-319.94 -187.19)"/><path class="093379df-108c-4e51-8be7-47483d9efeb0" d="M453.39,254c-.1-1.58-.22-3.15-.27-4.73,0-.83-.42-1.79,1.14-1.88s1.45.88,1.51,1.86c.14,2.49.39,5,.38,7.46,0,1.68.7,2,2.11,1.64,1-.27,2.11-.47,3.12-.82s1.62,0,2,1.11-.43,1.21-1.12,1.44a24,24,0,0,1-7.11,1.06c-1.07,0-1.5-.36-1.47-1.43,0-1.91,0-3.82,0-5.73Z" transform="translate(-319.94 -187.19)"/><path class="0f262a61-23aa-420b-8134-7d6c6a9a7d01" d="M375.07,273.71c-.09-1.08-.16-2.15-.29-3.22-.1-.87,0-1.44,1.09-1.49s1.57.1,1.64,1.27q.36,6,.85,11.93c.08,1-.29,1.28-1.23,1.36-1.1.09-1.46-.35-1.52-1.38-.17-2.82-.43-5.63-.65-8.44Z" transform="translate(-319.94 -187.19)"/><path class="15dfea40-96f3-49f8-bf3c-e556e61fd452" d="M448.49,283.34c-1.19.24-1.49-.44-1.64-1.5s.2-1.28,1.16-1.32c1.15,0,1.61.39,1.66,1.53C449.7,283,449.58,283.52,448.49,283.34Z" transform="translate(-319.94 -187.19)"/><path class="8340d4b5-10f0-4d3b-ade8-0310719f43a1" d="M350.17,423a18.51,18.51,0,0,1,.89-7.56V423Z" transform="translate(-319.94 -187.19)"/><path class="8340d4b5-10f0-4d3b-ade8-0310719f43a1" d="M401.21,416.53a24.21,24.21,0,0,1,0-5.88,12.14,12.14,0,0,1,.85,5.85Z" transform="translate(-319.94 -187.19)"/><path class="8340d4b5-10f0-4d3b-ade8-0310719f43a1" d="M401.56,424.06a11.92,11.92,0,0,1-.35-4.58C402,421,401.7,422.51,401.56,424.06Z" transform="translate(-319.94 -187.19)"/><path class="38883017-1ade-493f-82e2-a98bb066393b" d="M382.07,329.94c11.26-.07,20.66,3,28.2,11,10.26,10.92,9.62,29.3.28,40.89-7,8.7-16.11,12.18-27.06,11.36a41.65,41.65,0,0,1-18.89-5.78c-15.57-9.48-20.28-31.85-9.48-45.46C362.12,333.13,371.63,329.75,382.07,329.94Zm4.63,26.52a4.57,4.57,0,0,0-4.64,4.49,5.08,5.08,0,0,0,4.94,4.91c2.25,0,4.46-2.32,4.47-4.75A4.58,4.58,0,0,0,386.71,356.46Zm23.22,10.15a4.75,4.75,0,0,0,4.82-4.94,4.64,4.64,0,1,0-4.82,4.94Zm-23.47,4.28c4.5-.46,9.09.74,13.55-.63C395.48,370.39,390.91,369.1,386.45,370.88Z" transform="translate(-319.94 -187.19)"/><path class="79c87417-f075-4542-a96a-e1e8e01c5b6b" d="M358.41,387.31a42.55,42.55,0,0,0,20.85,8.91c5.82.85,11.62,1,17.29-.83,1.6-.51,2.2-.49,2,1.47a185,185,0,0,0,.5,38.61c.17,1.44-.12,2.19-1.75,2.6a84.63,84.63,0,0,1-31.46,1.78c-3.25-.41-6.14-2-9-3.6-1.16-.66-1.06-1.81-1.21-2.84C353.31,416.89,354,405.69,358.41,387.31Z" transform="translate(-319.94 -187.19)"/><path class="e4064037-6141-4a47-a7d8-01cf4437bed9" d="M438.08,351c-.66-.91.18-1.52.49-2.18,4.69-9.7,12.31-15.75,22.87-17.88,9.42-1.9,18.76-1.78,27.49,2.79,13.72,7.18,19,21.36,13.86,36.28-4.43,12.81-13.73,19.78-26.68,22.41-7.77,1.57-15.37,1.34-22.64-2.23-11.48-5.64-18.83-19.61-17.14-32.61.22-1.73.49-3.45.74-5.17.48,0,.86,1.19,1.47.08.47-.85,1.09-1.61,1.64-2.42,4.18-2.43,7.13-.46,9.72,3-.21-2.75-2.06-3.79-4-4.61-2.25-.95-4.37-.76-6.09,1.21Zm13.09,17.38c2,1.44,2.82,3.07,2.53,4.85-.41,2.49.92,2.23,2.52,2.1a57.23,57.23,0,0,1,11.2-.08c1.29.15,2.78.92,3.74-.26s.47-2.84,0-4.29a4.62,4.62,0,0,0-4.29-3.28A51.4,51.4,0,0,0,451.17,368.39Zm-7.07-1.78a4.66,4.66,0,0,0-.26-9.31,4.69,4.69,0,0,0-4.62,4.36A4.89,4.89,0,0,0,444.1,366.61Zm23.42-10.15a4.55,4.55,0,0,0-4.92,4.45c-.08,2.5,2,4.88,4.24,4.95a5.21,5.21,0,0,0,5.17-4.72A4.72,4.72,0,0,0,467.52,356.46Zm-5.89-4.07c6.33-5.17,7.4-5.17,11.85,0a6,6,0,0,0-5.95-5C464.36,347.68,461.53,350,461.63,352.39Z" transform="translate(-319.94 -187.19)"/><path class="638b8b0f-0cd7-424c-8603-d72760d42a4c" d="M495.53,387.65c2.76,12,5.06,23.79,3.7,36-.38,3.39-.82,6.78-1.08,10.17a3.36,3.36,0,0,1-2,2.9,28.39,28.39,0,0,1-13.1,3.65A88.14,88.14,0,0,1,456.6,438c-1.74-.44-1.7-1.46-1.59-2.79a252.56,252.56,0,0,0,1.07-28.94c-.12-3.32-.4-6.65-.7-10-.09-1,0-1.5,1.11-1.18C470.64,399.22,483.4,395.83,495.53,387.65Z" transform="translate(-319.94 -187.19)"/><path class="15dfea40-96f3-49f8-bf3c-e556e61fd452" d="M438.08,351l1.71-1.34.39.4c-.55.8-1.17,1.57-1.64,2.42-.61,1.1-1-.09-1.47-.08l0-.89c.78.61.95.11,1-.56Z" transform="translate(-319.94 -187.19)"/><path class="e4064037-6141-4a47-a7d8-01cf4437bed9" d="M438.11,351c-.07.67-.24,1.17-1,.56C437.29,351.09,437.44,350.55,438.11,351Z" transform="translate(-319.94 -187.19)"/><path class="dcf74b52-86e4-4b0a-abef-3ad07cd25ea0" d="M444,258.67c-1.35.32-1.78-.41-1.81-1.75,0-2.63,2.07-1.55,3.2-1.71s3-.39,3.37,1.55C448.92,257.87,447,258.61,444,258.67Z" transform="translate(-319.94 -187.19)"/><path class="dcf74b52-86e4-4b0a-abef-3ad07cd25ea0" d="M444.43,248.93c1,.21,2.2-.32,2.58,1,.26.89-2.85,2.88-4.33,2.75s-.89-1.33-1-2.08C441.48,248.17,443.47,249.37,444.43,248.93Z" transform="translate(-319.94 -187.19)"/><path class="af025f29-a090-452d-b36b-4b216fa204ef" d="M396.37,248.48a4.32,4.32,0,0,1,4.51,4.54,6.25,6.25,0,0,1-6.25,5.84,4.22,4.22,0,0,1-4.24-4.55A6.24,6.24,0,0,1,396.37,248.48Z" transform="translate(-319.94 -187.19)"/><path class="af025f29-a090-452d-b36b-4b216fa204ef" d="M476.72,253a6.17,6.17,0,0,1-6.17,5.9,4.34,4.34,0,0,1-4.34-4.49c0-2.92,2.94-5.82,6-5.89A4.21,4.21,0,0,1,476.72,253Z" transform="translate(-319.94 -187.19)"/><path class="b7b2dce2-48c2-469e-bdb7-bf1fd8efe1a6" d="M383.31,275.23c-.1-.35-.28-.7.1-1l.42.57Z" transform="translate(-319.94 -187.19)"/><path class="b7b2dce2-48c2-469e-bdb7-bf1fd8efe1a6" d="M383.38,253.76c0,.23.11.54,0,.67s-.36,0-.49-.21Z" transform="translate(-319.94 -187.19)"/><path class="dcf74b52-86e4-4b0a-abef-3ad07cd25ea0" d="M431,254.43c-1.2.23-1.57-.3-1.21-1.05.61-1.26-.42-3.76,2-3.61,1.74.11,1.73,2.38,1.77,3.59C433.52,254.73,431.64,254,431,254.43Z" transform="translate(-319.94 -187.19)"/><path class="84ce1261-a3b0-4310-8353-998c2dab6ae0" d="M386.71,356.46a4.58,4.58,0,0,1,4.77,4.64c0,2.44-2.21,4.79-4.47,4.75a5.08,5.08,0,0,1-4.94-4.91A4.57,4.57,0,0,1,386.71,356.46Z" transform="translate(-319.94 -187.19)"/><path class="84ce1261-a3b0-4310-8353-998c2dab6ae0" d="M409.92,366.61a4.66,4.66,0,1,1,4.82-4.94A4.75,4.75,0,0,1,409.92,366.61Z" transform="translate(-319.94 -187.19)"/><path class="15dfea40-96f3-49f8-bf3c-e556e61fd452" d="M386.45,370.88c4.45-1.79,9-.5,13.55-.63C395.55,371.63,391,370.43,386.45,370.88Z" transform="translate(-319.94 -187.19)"/><path class="84ce1261-a3b0-4310-8353-998c2dab6ae0" d="M451.17,368.39a51.4,51.4,0,0,1,15.7-1,4.62,4.62,0,0,1,4.29,3.28c.47,1.45,1,3,0,4.29s-2.45.41-3.74.26a57.23,57.23,0,0,0-11.2.08c-1.6.13-2.92.39-2.52-2.1C454,371.46,453.12,369.83,451.17,368.39Z" transform="translate(-319.94 -187.19)"/><path class="84ce1261-a3b0-4310-8353-998c2dab6ae0" d="M444.1,366.61a4.89,4.89,0,0,1-4.88-5,4.69,4.69,0,0,1,4.62-4.36,4.66,4.66,0,0,1,.26,9.31Z" transform="translate(-319.94 -187.19)"/><path class="84ce1261-a3b0-4310-8353-998c2dab6ae0" d="M467.52,356.46a4.72,4.72,0,0,1,4.49,4.68,5.21,5.21,0,0,1-5.17,4.72c-2.29-.07-4.32-2.44-4.24-4.95A4.55,4.55,0,0,1,467.52,356.46Z" transform="translate(-319.94 -187.19)"/><path class="15dfea40-96f3-49f8-bf3c-e556e61fd452" d="M461.63,352.39c-.1-2.35,2.72-4.71,5.9-4.93a6,6,0,0,1,5.95,5C469,347.22,468,347.22,461.63,352.39Z" transform="translate(-319.94 -187.19)"/><path class="15dfea40-96f3-49f8-bf3c-e556e61fd452" d="M439.79,349.68c1.72-2,3.84-2.15,6.09-1.21,2,.82,3.81,1.86,4,4.61-2.59-3.46-5.54-5.42-9.72-3Z" transform="translate(-319.94 -187.19)"/></svg>