<svg id="2ee69383-cbcc-40bf-aee1-f85cf1909db4" data-name="Capa 1" xmlns="http://www.w3.org/2000/svg" viewBox="0 0 213.6 309.59"><defs><style>.\34 72d988a-88ee-47db-bf05-e2be589272a2{fill:#090909;}.\30 ac52bcf-c928-4172-8ebc-e0ac57d3144a{fill:#fefefe;}.\36 9330325-276c-4b7f-8dc4-bb252490eb0a{fill:#161515;}.a1311fce-423f-47a8-9320-263c87e30aea{fill:#151612;}.a6e67c89-3001-4d92-aeca-76e3045448fd{fill:#878787;}.dbd40b47-d827-44c6-969d-92f06477aed7{fill:#c7c6c6;}.\37 4da84e5-82b0-443a-9213-4091bdafa851{fill:#f7cca0;}.\31 33801d4-dfba-4c8e-b0c4-b80495666cb2{fill:#95b4c7;}.\30 b199d1e-6546-48de-bfc6-eb33b3447b92{fill:#150f09;}.bcea1686-66ec-4a52-bef4-33337308e373{fill:#509541;}.\34 82e57c3-0b5b-4797-a3d4-660ba2d56cba{fill:#594739;}.d6165984-d554-4fde-a5be-724214a48472{fill:#161d21;}.\31 179e6d1-a8a1-43a6-8614-ff574d533e47{fill:#2b353c;}.ee4835c8-6788-464a-aa6e-2676b393a354{fill:#0b1d0b;}.\30 2c2936a-f0e2-4f42-b84f-5a7c41622743{fill:#1e381c;}</style></defs><title>card-6</title><path class="472d988a-88ee-47db-bf05-e2be589272a2" d="M314.66,297.1q0-71.49,0-143c0-1.08,0-2.17.08-3.25a8.78,8.78,0,0,1,8.54-8.47c1.49-.11,3-.09,4.5-.09H515.5c10.3,0,12.76,2.49,12.76,12.87q0,142.35,0,284.71a32.12,32.12,0,0,1-.09,3.5c-.61,5.54-3.89,8.51-9.48,8.51q-97.11,0-194.22,0c-6,0-9.45-3.35-9.77-9.32,0-.91,0-1.83,0-2.75Q314.66,368.46,314.66,297.1Zm4.14,0q0,71.62,0,143.24c0,5.74,1.7,7.44,7.42,7.44H516.71c5.71,0,7.4-1.69,7.4-7.47q0-13.25,0-26.5,0-130,0-260c0-5.63-1.66-7.33-7.23-7.43H327.39a31.43,31.43,0,0,0-3.49.12c-3.39.38-4.81,1.9-5.07,5.34-.06.83,0,1.67,0,2.5Q318.8,225.75,318.8,297.12Z" transform="translate(-314.66 -142.31)"/><path class="0ac52bcf-c928-4172-8ebc-e0ac57d3144a" d="M318.8,297.12q0-71.37,0-142.74c0-.83,0-1.67,0-2.5.26-3.45,1.68-5,5.07-5.34a31.43,31.43,0,0,1,3.49-.12H516.88c5.57.1,7.23,1.81,7.23,7.43q0,130,0,260,0,13.25,0,26.5c0,5.78-1.69,7.47-7.4,7.47H326.22c-5.72,0-7.42-1.7-7.42-7.44Q318.79,368.74,318.8,297.12Zm137.09,73.82a203.91,203.91,0,0,1-1.31,20.68c-.32,2.67.36,4,3,4.26,1.29.14,1.82.69,1.61,2.13-1,6.68-1.36,13.41-1.77,20.14-.22,3.57-.27,7.15-.39,10.73,0,1.21.36,2.29,1.7,2.32s1.76-1,1.78-2.23.13-2.16.15-3.24c.15-8.67.92-17.29,1.77-25.91.1-1-.44-2.87,2-2.38a76.72,76.72,0,0,0,30.76.08,162,162,0,0,0,5.59,24.78c.84,2.69,1.74,5.37,2.64,8a1.8,1.8,0,0,0,2,1.45,1.46,1.46,0,0,0,1.41-1.49,6.37,6.37,0,0,0-.4-1.92A185.14,185.14,0,0,1,498.93,399c-.3-1.79-.58-3.39,1.79-4.11,2.9-.89,4-3,4.16-6,.29-4.62,1-9.21,1.45-13.81,1,3.84.79,7.76,1.18,11.62.12,1.24.08,2.79,1.86,2.64s1.73-1.59,1.61-3c-.46-5.89-.7-11.8-1.25-17.68-.94-10.11-2.28-20.17-5.83-29.77a2.76,2.76,0,0,1,.43-2.94,37.16,37.16,0,0,0,4.77-9c5.07-13.17,2.12-27.34-8.05-36.09-13.23-11.38-28.55-11.9-43.89-6-12.72,4.86-20.31,14.84-21.19,28.88-.84,13.49,4.55,24.26,15.28,32.35a2.92,2.92,0,0,1,1.46,2.79c-.45,12-1,24-2.77,35.83-.2,1.34-.57,2.91,1.24,3.26s2-1.12,2.25-2.55c.84-5.77,1.42-11.56,1.85-17.37C456.15,368.78,455.44,370,455.88,370.94Zm-61,5.67c.1-1-.57-2.1.56-3.1a6.09,6.09,0,0,1,.77,3.15c.4,3,.74,5.95,1.12,8.92.16,1.22.53,2.42,2.07,2.29s1.63-1.36,1.45-2.61c-.12-.82-.17-1.66-.3-2.48A274.46,274.46,0,0,1,398,350.43a2.32,2.32,0,0,1,1.19-2.48c5.43-3,9.3-7.51,12.27-12.82,11.15-20,2.8-44.23-20.42-51-10.5-3-21.16-2.93-31.23,1.73-10.29,4.77-16.94,12.81-18.77,24.2-1.43,8.9.88,17.16,5.54,24.8.49.8,1.16,1.48.7,2.69-5.9,15.76-6.68,32.31-7.54,48.86-.07,1.33,0,2.72,1.67,2.79s1.84-1.26,1.89-2.63c.12-3.41.32-6.82.49-10.23l.83.09.07.83a.89.89,0,0,0,0,1.07,115,115,0,0,0,1.47,12.88,2.78,2.78,0,0,0,1.81,2.48c4,1.23,4.52,3.89,3.27,7.41a11.27,11.27,0,0,0-.3,1.72,176.49,176.49,0,0,1-6.85,26c-.45,1.3-.49,2.38.92,2.86s2-.43,2.4-1.57c.08-.23.19-.46.27-.7a180,180,0,0,0,7-27.49c.23-1.39,0-3.17.79-4.09,1-1.11,2.51.32,3.84.46,9,1,17.94,1,26.82-.87,1.36-.29,1.91,0,2,1.5.26,4.4.74,8.79,1,13.19.37,5.56.66,11.13.93,16.7.06,1.3.31,2.47,1.83,2.42s1.77-1.27,1.71-2.55c0-.33,0-.67,0-1-.38-9.73-1-19.44-2-29.13-.18-1.75.1-2.65,2-2.85,2.37-.26,2.85-1.71,2.54-3.91a69.17,69.17,0,0,1-.92-10.43A9.58,9.58,0,0,0,394.87,376.61Z" transform="translate(-314.66 -142.31)"/><path class="69330325-276c-4b7f-8dc4-bb252490eb0a" d="M395.23,381.41a69.17,69.17,0,0,0,.92,10.43c.32,2.2-.17,3.65-2.54,3.91-1.85.21-2.13,1.1-2,2.85,1,9.68,1.64,19.4,2,29.13,0,.33,0,.67,0,1,.06,1.28-.22,2.49-1.71,2.55s-1.77-1.12-1.83-2.42c-.27-5.57-.56-11.13-.93-16.7-.29-4.4-.77-8.79-1-13.19-.09-1.51-.64-1.79-2-1.5-8.89,1.89-17.84,1.83-26.82.87-1.33-.14-2.88-1.58-3.84-.46-.79.91-.56,2.69-.79,4.09a180,180,0,0,1-7,27.49c-.08.24-.19.46-.27.7-.4,1.14-1.11,2-2.4,1.57s-1.38-1.56-.92-2.86a176.49,176.49,0,0,0,6.85-26,11.27,11.27,0,0,1,.3-1.72c1.25-3.52.75-6.18-3.27-7.41a2.78,2.78,0,0,1-1.81-2.48,115,115,0,0,1-1.47-12.88l0-1.07-.07-.83a20.67,20.67,0,0,0-.21-5.84,13,13,0,0,0-.63,5.75c-.17,3.41-.38,6.82-.49,10.23,0,1.37-.24,2.7-1.89,2.63s-1.74-1.46-1.67-2.79c.86-16.54,1.64-33.1,7.54-48.86.45-1.21-.21-1.89-.7-2.69-4.65-7.65-7-15.9-5.54-24.8,1.82-11.38,8.47-19.43,18.77-24.2,10.07-4.66,20.73-4.78,31.23-1.73,23.22,6.72,31.56,31,20.42,51-3,5.31-6.83,9.85-12.27,12.82a2.32,2.32,0,0,0-1.19,2.48,274.46,274.46,0,0,0,2.56,32.34c.12.82.18,1.65.3,2.48.18,1.25.17,2.48-1.45,2.61s-1.91-1.07-2.07-2.29c-.39-3-.73-5.95-1.12-8.92a6.09,6.09,0,0,0-.77-3.15c-1.13,1-.46,2.12-.56,3.1A11.67,11.67,0,0,0,395.23,381.41Zm6.49-40.53c1.58.2,2.11-1.14,2.88-2,9.75-11.63,10.83-27.62,3-39.1-11.09-16.16-35.45-16.69-47.83-9.95-11.57,6.31-17.38,18-15.15,30.18a36.1,36.1,0,0,0,47,27.69c2.77-.93,5.68-1.82,7.64-4.29C400.09,342.56,400.59,341.41,401.72,340.88ZM352,342.08c-.24.83-.38,1.22-.47,1.62-.18.81-.32,1.63-.51,2.44-3.28,14.08-4.36,28.25-1.8,42.58.18,1,.23,2,1.24,2.57,2.68,1.54,5.44,3.09,8.49,3.48A83.84,83.84,0,0,0,390.9,393c1.4-.36,1.89-.83,1.71-2.34a180.68,180.68,0,0,1-.64-37.62c.15-1.65-.27-1.8-1.73-1.42-7.29,1.9-14.51,1.14-21.69-.73A41.42,41.42,0,0,1,352,342.08Zm43.58,27.2c-.38.73-.82,1.2-.86,1.71a3.84,3.84,0,0,0,.25,2.62.65.65,0,0,0,.6,0c.49-.75.14-1.59.16-2.39C395.75,370.72,395.66,370.23,395.58,369.29Z" transform="translate(-314.66 -142.31)"/><path class="a1311fce-423f-47a8-9320-263c87e30aea" d="M455.28,367.9c-.43,5.81-1,11.6-1.85,17.37-.21,1.43-.43,2.9-2.25,2.55s-1.44-1.92-1.24-3.26c1.78-11.88,2.32-23.85,2.77-35.83a2.92,2.92,0,0,0-1.46-2.79c-10.74-8.1-16.13-18.86-15.28-32.35.88-14,8.47-24,21.19-28.88,15.34-5.87,30.66-5.35,43.89,6,10.17,8.75,13.12,22.91,8.05,36.09a37.16,37.16,0,0,1-4.77,9,2.76,2.76,0,0,0-.43,2.94c3.56,9.6,4.89,19.66,5.83,29.77.55,5.88.8,11.79,1.25,17.68.11,1.45.19,2.88-1.61,3s-1.74-1.4-1.86-2.64c-.39-3.86-.17-7.78-1.18-11.62-.5,4.6-1.16,9.2-1.45,13.81-.19,3-1.27,5.16-4.16,6-2.37.72-2.09,2.32-1.79,4.11a185.14,185.14,0,0,0,7.49,29.43,6.37,6.37,0,0,1,.4,1.92,1.46,1.46,0,0,1-1.41,1.49,1.8,1.8,0,0,1-2-1.45c-.9-2.67-1.8-5.35-2.64-8a162,162,0,0,1-5.59-24.78,76.72,76.72,0,0,1-30.76-.08c-2.41-.49-1.87,1.36-2,2.38-.86,8.62-1.63,17.24-1.77,25.91,0,1.08-.13,2.16-.15,3.24s-.44,2.27-1.78,2.23-1.74-1.11-1.7-2.32c.12-3.58.17-7.16.39-10.73.41-6.73.79-13.46,1.77-20.14.21-1.44-.32-2-1.61-2.13-2.63-.29-3.3-1.59-3-4.26a203.91,203.91,0,0,0,1.31-20.68,21.77,21.77,0,0,0-.11-8.24A12.07,12.07,0,0,0,455.28,367.9Zm18.69-83a39,39,0,0,0-6.82.54c-14,1.68-26.66,13.32-27.78,28-.93,12.15,5.89,25.86,16.71,31.49,6.53,3.39,13.45,4.1,20.62,3,12.26-1.89,22.16-7.21,27.75-19,6.3-13.24,4.26-26.45-5.74-35.62C491.89,287,483.64,284.8,474,284.86Zm6.28,110.44c2.25,0,4.5.07,6.74,0a26.69,26.69,0,0,0,12.12-3.38,3.88,3.88,0,0,0,2.29-3.19c.59-4.29,1-8.59,1.29-12.9.73-10.74-1.28-21.19-3.45-31.63-.34-1.63-.79-1.55-2-.71-11.4,7.71-23.74,10.46-37.22,6.73-1.32-.37-1.52-.21-1.39,1.17.33,3.47.56,7,.66,10.46A225.43,225.43,0,0,1,458.19,390c-.19,1.93.31,2.77,2.29,3.21A73.8,73.8,0,0,0,480.25,395.29Z" transform="translate(-314.66 -142.31)"/><path class="a6e67c89-3001-4d92-aeca-76e3045448fd" d="M455.28,367.9a12.07,12.07,0,0,1,.5-5.2,21.77,21.77,0,0,1,.11,8.24C455.44,370,456.15,368.78,455.28,367.9Z" transform="translate(-314.66 -142.31)"/><path class="a6e67c89-3001-4d92-aeca-76e3045448fd" d="M343.78,376.39a13,13,0,0,1,.63-5.75,20.67,20.67,0,0,1,.21,5.84Z" transform="translate(-314.66 -142.31)"/><path class="dbd40b47-d827-44c6-969d-92f06477aed7" d="M395.23,381.41a11.67,11.67,0,0,1-.36-4.8A9.58,9.58,0,0,1,395.23,381.41Z" transform="translate(-314.66 -142.31)"/><path class="a6e67c89-3001-4d92-aeca-76e3045448fd" d="M344.69,377.31l0,1.07A.89.89,0,0,1,344.69,377.31Z" transform="translate(-314.66 -142.31)"/><path class="74da84e5-82b0-443a-9213-4091bdafa851" d="M399.24,343.37c-2,2.47-4.87,3.36-7.64,4.29a36.1,36.1,0,0,1-47-27.69c-2.23-12.2,3.58-23.88,15.15-30.18,12.37-6.74,36.74-6.21,47.83,9.95,7.88,11.48,6.8,27.47-3,39.1-.76.91-1.29,2.25-2.88,2,1-3.37-.23-6.06-3-6.58a4.74,4.74,0,0,0-5.82,4C392.47,341.54,395.17,343.72,399.24,343.37Zm-25-10.07a4.45,4.45,0,0,0-4.65,4.48,5,5,0,0,0,5,4.86,4.59,4.59,0,0,0,4.27-4.64A4.33,4.33,0,0,0,374.22,333.3Zm13.11,12.54c-4.6,0-5.43.16-6.68,1.54C382.51,345.37,385.5,348.89,387.33,345.84Z" transform="translate(-314.66 -142.31)"/><path class="133801d4-dfba-4c8e-b0c4-b80495666cb2" d="M352,342.08a41.42,41.42,0,0,0,16.55,8.86c7.18,1.87,14.4,2.63,21.69.73,1.46-.38,1.88-.23,1.73,1.42a180.68,180.68,0,0,0,.64,37.62c.18,1.51-.31,2-1.71,2.34A83.84,83.84,0,0,1,359,394.78c-3.06-.39-5.81-1.94-8.49-3.48-1-.58-1.06-1.57-1.24-2.57-2.56-14.33-1.49-28.5,1.8-42.58.19-.81.33-1.63.51-2.44C351.63,343.3,351.76,342.91,352,342.08Zm23.22,43.26c1.16.26,1.77-.7,2.54-1.22,1.93-1.3,3.74-2.8,6-3.61,1-.35,2.15-1.33,2.94-.46s.13,2.22-.35,3.28a54.94,54.94,0,0,1-4.46,7.2c-.44.68-1.45,1.25-.63,2.68,3.19-3.77,6.38-7.34,8.42-11.7a3.91,3.91,0,0,0-.89-4.42c-1.25-1.22-2.81-.95-4.21-.35a19,19,0,0,0-9.27,8.62l-.32.27c.08,0,.17.08.23.05C375.4,385.63,375.41,385.49,375.22,385.34ZM378,386.4c-2.62.38-3.7,1.29-4.14,3.31A11.6,11.6,0,0,0,378,386.4Z" transform="translate(-314.66 -142.31)"/><path class="0b199d1e-6546-48de-bfc6-eb33b3447b92" d="M399.24,343.37c-4.07.35-6.77-1.83-6.34-5.11a4.74,4.74,0,0,1,5.82-4c2.77.52,4,3.21,3,6.58C400.59,341.41,400.09,342.56,399.24,343.37Z" transform="translate(-314.66 -142.31)"/><path class="dbd40b47-d827-44c6-969d-92f06477aed7" d="M395.58,369.29c.08.94.17,1.43.16,1.92,0,.8.33,1.64-.16,2.39a.65.65,0,0,1-.6,0,3.84,3.84,0,0,1-.25-2.62C394.76,370.49,395.2,370,395.58,369.29Z" transform="translate(-314.66 -142.31)"/><path class="74da84e5-82b0-443a-9213-4091bdafa851" d="M474,284.86c9.67-.06,17.92,2.17,24.74,8.42,10,9.17,12,22.38,5.74,35.62-5.59,11.75-15.48,17.07-27.75,19-7.17,1.1-14.09.4-20.62-3-10.82-5.63-17.64-19.34-16.71-31.49,1.12-14.65,13.76-26.3,27.78-28A39,39,0,0,1,474,284.86Zm-12.55,52.8A4.57,4.57,0,0,0,456.6,333a4.65,4.65,0,0,0-4.47,4.74,4.88,4.88,0,0,0,4.91,4.65A4.53,4.53,0,0,0,461.42,337.66Zm18.89-5.38a4.52,4.52,0,0,0-4.88,4.54,4.77,4.77,0,0,0,4.46,4.78,4.94,4.94,0,0,0,4.89-4.69A4.41,4.41,0,0,0,480.31,332.27Zm-4.19,13.89c-2.27-1.66-4.48-1-6.43-1.54-.73-.21-.8.66-.41.89.66.38,1.3,1.47,2.11.88C472.82,345.36,474.22,346.23,476.12,346.16Z" transform="translate(-314.66 -142.31)"/><path class="bcea1686-66ec-4a52-bef4-33337308e373" d="M480.25,395.29a73.8,73.8,0,0,1-19.77-2.08c-2-.44-2.47-1.29-2.29-3.21a225.43,225.43,0,0,0,1.06-28.16c-.1-3.49-.32-7-.66-10.46-.13-1.38.07-1.54,1.39-1.17,13.47,3.73,25.81,1,37.22-6.73,1.25-.84,1.7-.93,2,.71,2.17,10.43,4.18,20.88,3.45,31.63-.29,4.31-.7,8.61-1.29,12.9a3.88,3.88,0,0,1-2.29,3.19A26.69,26.69,0,0,1,487,395.28C484.75,395.36,482.5,395.29,480.25,395.29Zm-9.79-1.81c.34-1.57-.73-2.49-1.43-3.53-1.56-2.35-3.3-4.6-4.17-7.34-.22-.7-.46-1.59.19-2.11s1.26,0,1.89.22a27.68,27.68,0,0,1,7.45,4.47c.35.27.62,1,1.17.47s.21-.95-.12-1.35c-2.33-3-4.78-5.78-8.49-7.08-1.56-.55-3.14-.85-4.37.58a4.14,4.14,0,0,0-.57,4.7A48.46,48.46,0,0,0,470.45,393.49Zm7.52-3.31c-.07-1.4-1-1.92-1.79-2.44s-1.8-1.83-2.45-1,.83,1.48,1.52,2A4.47,4.47,0,0,0,478,390.18Z" transform="translate(-314.66 -142.31)"/><path class="0b199d1e-6546-48de-bfc6-eb33b3447b92" d="M374.22,333.3a4.33,4.33,0,0,1,4.63,4.7,4.59,4.59,0,0,1-4.27,4.64,5,5,0,0,1-5-4.86A4.45,4.45,0,0,1,374.22,333.3Z" transform="translate(-314.66 -142.31)"/><path class="482e57c3-0b5b-4797-a3d4-660ba2d56cba" d="M387.33,345.84c-1.83,3.05-4.82-.48-6.68,1.54C381.9,346,382.73,345.83,387.33,345.84Z" transform="translate(-314.66 -142.31)"/><path class="d6165984-d554-4fde-a5be-724214a48472" d="M375.27,385.38a19,19,0,0,1,9.27-8.62c1.4-.6,3-.87,4.21.35a3.91,3.91,0,0,1,.89,4.42c-2,4.36-5.23,7.93-8.42,11.7-.82-1.44.19-2,.63-2.68a54.94,54.94,0,0,0,4.46-7.2c.48-1.07,1.15-2.4.35-3.28s-2,.11-2.94.46c-2.21.81-4,2.31-6,3.61-.77.52-1.38,1.48-2.54,1.22Z" transform="translate(-314.66 -142.31)"/><path class="1179e6d1-a8a1-43a6-8614-ff574d533e47" d="M378,386.4a11.6,11.6,0,0,1-4.14,3.31C374.33,387.7,375.4,386.79,378,386.4Z" transform="translate(-314.66 -142.31)"/><path class="d6165984-d554-4fde-a5be-724214a48472" d="M375.22,385.34c.19.15.18.28,0,.36-.06,0-.15,0-.23-.05l.32-.27Z" transform="translate(-314.66 -142.31)"/><path class="0b199d1e-6546-48de-bfc6-eb33b3447b92" d="M461.42,337.66a4.53,4.53,0,0,1-4.38,4.76,4.88,4.88,0,0,1-4.91-4.65A4.65,4.65,0,0,1,456.6,333,4.57,4.57,0,0,1,461.42,337.66Z" transform="translate(-314.66 -142.31)"/><path class="0b199d1e-6546-48de-bfc6-eb33b3447b92" d="M480.31,332.27a4.41,4.41,0,0,1,4.48,4.63,4.94,4.94,0,0,1-4.89,4.69,4.77,4.77,0,0,1-4.46-4.78A4.52,4.52,0,0,1,480.31,332.27Z" transform="translate(-314.66 -142.31)"/><path class="482e57c3-0b5b-4797-a3d4-660ba2d56cba" d="M476.12,346.16c-1.9.07-3.3-.8-4.73.23-.81.58-1.45-.51-2.11-.88-.39-.22-.31-1.1.41-.89C471.64,345.18,473.85,344.5,476.12,346.16Z" transform="translate(-314.66 -142.31)"/><path class="ee4835c8-6788-464a-aa6e-2676b393a354" d="M470.45,393.49a48.46,48.46,0,0,1-8.43-11,4.14,4.14,0,0,1,.57-4.7c1.22-1.43,2.81-1.13,4.37-.58,3.71,1.3,6.16,4.12,8.49,7.08.32.41.54,1,.12,1.35s-.82-.2-1.17-.47a27.68,27.68,0,0,0-7.45-4.47c-.63-.22-1.35-.65-1.89-.22s-.41,1.42-.19,2.11c.87,2.74,2.61,5,4.17,7.34C469.72,391,470.8,391.92,470.45,393.49Z" transform="translate(-314.66 -142.31)"/><path class="02c2936a-f0e2-4f42-b84f-5a7c41622743" d="M478,390.18a4.47,4.47,0,0,1-2.73-1.43c-.69-.54-2.25-1.07-1.52-2s1.7.49,2.45,1S477.9,388.78,478,390.18Z" transform="translate(-314.66 -142.31)"/></svg>