<svg id="98f5da35-56c2-46bd-a485-801419c14667" data-name="Capa 1" xmlns="http://www.w3.org/2000/svg" viewBox="0 0 213.61 309.6"><defs><style>.\31 a4bdce0-001b-4d6a-b667-dc746029dc1c{fill:#0f0f0e;}.\33 03c7f96-3aa8-4718-8b44-64e02fa9404e{fill:#fefefe;}.d59d3c5b-de42-4d7a-b429-7714ca2578d3{fill:#f7cca0;}.\30 be48727-f90b-494f-84b3-999ddb3f2d9e{fill:#96b5c7;}.d73cd5c9-3b92-42f0-9796-831823dcec54{fill:#509541;}.\35 ec7cbc0-bda1-40f5-9afe-7f2b7828c572{fill:#fdfdfd;}.\32 2d8dc87-fccf-40b7-b18b-048b5bfb815d{fill:#ecebec;}.\36 7c5126e-f487-46f7-bc22-57eccdd2342f{fill:#d9d9d9;}.a1a9bb0a-293b-42bf-aaf5-9442fcb00365{fill:#171819;}.d03c9b24-ca81-4a6a-adec-7a7a3aacac05{fill:#1d1d1e;}.\31 7372f4c-67a6-47c4-be7b-bd158a887f0a{fill:#212223;}.\33 06f317a-d634-48a6-b70b-c77252a6ee45{fill:#1a140d;}.\31 ef1b97b-39c9-4b85-b81b-c9e9f86f20c8{fill:#0b0805;}.\30 0fdd2dc-40e3-4b78-b908-2446dc16bf30{fill:#584636;}.\32 55c8064-afe9-4e8e-9f97-1532276ba344{fill:#f7f7f7;}</style></defs><title>card-33</title><path class="1a4bdce0-001b-4d6a-b667-dc746029dc1c" d="M320.13,342.06q0-71.49,0-143c0-1.08,0-2.17.08-3.25a8.78,8.78,0,0,1,8.52-8.49c1.49-.12,3-.09,4.5-.09H520.95c10.33,0,12.79,2.47,12.79,12.84q0,142.36,0,284.71a32.7,32.7,0,0,1-.09,3.5c-.6,5.54-3.88,8.54-9.46,8.54q-97.11,0-194.23,0c-6,0-9.47-3.33-9.8-9.3-.05-.91,0-1.83,0-2.75Q320.13,413.42,320.13,342.06ZM473.2,434.27a4.39,4.39,0,0,0-.34,2.54c-.45,3.47-.86,6.94-1.37,10.39-.24,1.65-.11,4-2.73,3.52s-1.63-2.76-1.41-4.3a327.73,327.73,0,0,0,3.18-42.31,2,2,0,0,0-1-2c-6.3-4-10.67-9.74-14-16.24-5.73-11-6.64-22.62-2-34,6.12-15.07,18-23.33,34-25.47,12.68-1.7,25-.48,35.83,7.17,2.06,1.45,4,3.15,6.24,5v-3q0-67.62,0-135.24c0-7.72-1.2-8.91-9-8.91H333.09c-1.08,0-2.17,0-3.25.09-3.92.32-5.42,1.92-5.56,5.9,0,.67,0,1.33,0,2q0,142.61,0,285.22c0,.75,0,1.5,0,2.25.15,3.8,2.17,5.86,5.95,5.9,5.67,0,11.33,0,17,0,1.35,0,1.82-.47,2.2-1.72a238.39,238.39,0,0,0,6.32-27.19c.47-2.66.11-4.28-2.64-5.31-1.68-.63-3.5-1.46-3.89-3.8-2.49-14.74-2.91-29.46-.07-44.21.26-1.33,1-2.73.28-4.51-6,8.23-11.58,16.24-15.14,25.49a4.39,4.39,0,0,0,0,4c1.08,2.14-.43,5.11-2.4,5.35-2.74.33-4.24-1.66-3.47-4.76a68.57,68.57,0,0,1,9.39-20.54c4.42-6.84,9.13-13.51,13.79-20.2a2.18,2.18,0,0,0-.15-3.19A43.47,43.47,0,0,1,345,381.56c-8-18.24-3.13-37.63,12.51-48.08,14.61-9.76,30.77-10.42,46.4-4.34,26.8,10.42,32.51,39,19.2,60.32a42.32,42.32,0,0,1-12.24,12.88h1.86a337.8,337.8,0,0,0,40.56-3.25c1.53-.2,3.06-.28,3.31,1.6s-1.19,2.49-2.87,2.63c-1.33.11-2.64.33-4,.5a356.51,356.51,0,0,1-40.84,2.8c-1.34,0-1.6.49-1.72,1.72-1.52,15.49-.93,30.94.69,46.37.45,4.28.54,4.37-3.59,5.49-1.46.4-1.79,1-1.64,2.4,1,9.44,1.91,18.89,2.08,28.39,0,1.74.89,1.77,2.19,1.77q33.37,0,66.74,0c1.81,0,2.16-.59,2.22-2.24.31-8.91.95-17.8,2-26.64.33-2.71-.31-3.78-2.82-4.09-2-.24-2.57-1.39-2.43-3.32.35-4.9,1.17-9.76,1.09-14.69a15,15,0,0,0,.35-5l.08-2.48V426c-.47,2.77-1.16,5.49-1,8.28Zm-17.91-63.76c0,10,8.1,23.2,17.2,28.61,9.52,5.65,19.69,6.23,30.17,3.93s19.58-6.88,25.64-16.24a7.25,7.25,0,0,0,1.29-4.18c-.06-10.08-.58-20.19.16-30.22.51-6.87-2.61-10.94-7.43-14.59-1.26-1-2.58-1.84-3.92-2.66-8.26-5.05-17.42-5.87-26.74-5.26-9.16.6-17.61,3.39-24.67,9.59a36.29,36.29,0,0,0-11,17.2c-.48,1.6-.14,2.24,1.67,2.15,2.49-.13,5,0,7.49,0a2.46,2.46,0,0,1,2.67,1.29h-9.07c-3.87,0-3.87,0-3.42,4,3.51-2.76,6.81-2.9,9-.36a5.63,5.63,0,0,1-.61,7.87C461.53,373.78,458.52,373.4,455.28,370.52Zm-41.54-6.7a18.84,18.84,0,0,1,5.81-2c6.65-1.66,6.88-2,4.12-8.31-5.21-11.92-14-19.59-26.85-22.36-11.35-2.46-22.53-2.24-33.07,3.21-9.37,4.84-15.7,12.49-17.91,22.79-3.34,15.58,5.59,34.8,20.26,41.77A56.12,56.12,0,0,0,385,404.11c21.52,2.07,36-12.11,39.91-29a2,2,0,0,0-1.09-2.53c1.68-.92,1.68-.92,1.61-2.81-5.83,2.8-8.37,1.64-9.92-4.76C415.18,363.8,414.09,365,413.74,363.82Zm-36.67,96a101.85,101.85,0,0,0,24.86-3.1c1.43-.35,2.22-.92,1.82-2.53a13.52,13.52,0,0,1-.19-2,221.84,221.84,0,0,1-.44-43.14c.26-2.65-.06-2.86-2.79-2.2-14.45,3.5-27.87.88-40.43-6.83-1.26-.77-2.95-2.57-3.61-2.24-1.28.64-1,2.74-1.31,4.23-3.74,16-4.94,32-2.33,48.34.44,2.72,1.37,4.36,3.9,5.66C363.29,459.46,370.49,459.57,377.08,459.81ZM524.8,397.67c-.43,0-.53,0-.59,0-.62.43-1.21.88-1.84,1.29-12.89,8.68-26.89,11.45-42.07,7.87-2.81-.66-2.86-.75-2.62,2.26a239.48,239.48,0,0,1-.61,43.61c-.28,2.77.28,3.63,3,4.25a99.82,99.82,0,0,0,26.21,2.73c6.67-.24,13.28-.94,19.2-4.52,1.1-.66,2-1.29,2.21-2.76,1.51-12.25,2.52-24.52.52-36.8C527.23,409.61,525.94,403.63,524.8,397.67ZM353.34,492.55a5.57,5.57,0,0,0,.88.17c14.91,0,29.83,0,44.74,0,1.52,0,1.77-.52,1.67-1.89-.39-5.48-.63-11-1-16.45-.26-3.65-.71-7.29-1-10.94-.12-1.3-.5-1.88-2-1.53a63.44,63.44,0,0,1-7.13,1.15A86.61,86.61,0,0,1,360.24,462,209.26,209.26,0,0,1,353.34,492.55Zm149.31.18H522.9a14.06,14.06,0,0,0,2-.07c1.54-.22,2.28-.8,1.72-2.64a174.1,174.1,0,0,1-5.52-24c-.58-3.69-.64-3.65-4.18-3.15a97.23,97.23,0,0,1-32.78-.85c-1.39-.28-1.84-.1-2,1.41-1,9.19-1.64,18.4-2.05,27.64-.07,1.64.58,1.72,1.84,1.72C488.82,492.72,495.74,492.74,502.65,492.74Zm26.93-35.15a18.4,18.4,0,0,1-2.91,1.53c-2,.61-2.32,1.83-2,3.76.87,4.82,1.68,9.66,2.89,14.41.54,2.11.78,4.32,2,6.69Z" transform="translate(-320.13 -187.24)"/><path class="303c7f96-3aa8-4718-8b44-64e02fa9404e" d="M473.73,441.8c.09,4.93-.73,9.79-1.09,14.69-.14,1.93.48,3.08,2.43,3.32,2.52.31,3.15,1.37,2.82,4.09-1.08,8.84-1.71,17.73-2,26.64-.06,1.65-.41,2.24-2.22,2.24q-33.37-.1-66.74,0c-1.3,0-2.16,0-2.19-1.77-.17-9.5-1.12-18.95-2.08-28.39-.15-1.44.18-2,1.64-2.4,4.14-1.13,4-1.21,3.59-5.49-1.62-15.43-2.21-30.89-.69-46.37.12-1.23.39-1.7,1.72-1.72a356.51,356.51,0,0,0,40.84-2.8c1.32-.17,2.64-.39,4-.5,1.68-.14,3.13-.68,2.87-2.63s-1.78-1.81-3.31-1.6a337.8,337.8,0,0,1-40.56,3.25h-1.86a42.32,42.32,0,0,0,12.24-12.88c13.31-21.35,7.61-49.9-19.2-60.32-15.63-6.07-31.79-5.42-46.4,4.34-15.64,10.45-20.55,29.84-12.51,48.08a43.47,43.47,0,0,0,6.48,10.61,2.18,2.18,0,0,1,.15,3.19c-4.66,6.69-9.37,13.35-13.79,20.2a68.57,68.57,0,0,0-9.39,20.54c-.77,3.09.72,5.09,3.47,4.76,2-.24,3.49-3.2,2.4-5.35a4.39,4.39,0,0,1,0-4c3.55-9.25,9.17-17.26,15.14-25.49.67,1.78,0,3.18-.28,4.51-2.84,14.75-2.42,29.47.07,44.21.39,2.34,2.21,3.17,3.89,3.8,2.75,1,3.12,2.64,2.64,5.31A238.39,238.39,0,0,1,349.43,491c-.38,1.24-.85,1.74-2.2,1.72-5.67-.08-11.33,0-17,0-3.78,0-5.8-2.1-5.95-5.9,0-.75,0-1.5,0-2.25q0-142.61,0-285.22c0-.67,0-1.33,0-2,.15-4,1.64-5.58,5.56-5.9,1.08-.09,2.16-.09,3.25-.09H520.57c7.82,0,9,1.18,9,8.91q0,67.62,0,135.24v3c-2.29-1.84-4.18-3.54-6.24-5-10.87-7.65-23.15-8.87-35.83-7.17-16,2.14-27.9,10.4-34,25.47-4.63,11.4-3.72,23,2,34,3.38,6.49,7.75,12.23,14,16.24a2,2,0,0,1,1,2,327.73,327.73,0,0,1-3.18,42.31c-.22,1.54-1.24,3.84,1.41,4.3s2.49-1.88,2.73-3.52c.51-3.46.92-6.93,1.37-10.39.69-.77.46-1.66.34-2.54h0l1,0-.08,2.48C473.32,438.42,473.69,440.13,473.73,441.8Zm-60.6-175.11a7.29,7.29,0,0,1,3.83-2.32,12.1,12.1,0,0,1,4.68-.53c1.87.14,1.21-1.39,1.48-2.25s.07-1.64-1.13-1.67c-4.39-.13-8.48.75-11.66,4-2.48,2.51-1.54,5.85,1.88,6.72a30.91,30.91,0,0,0,5.19.5,6.11,6.11,0,0,1,2.93.5c-1.38,1.81-3.31,2.21-5.13,2.46-2.35.32-1.29,1.85-1.3,3,0,1.52,1,1.06,1.94.92a14,14,0,0,0,4.69-1.57c3-1.64,4.3-3.61,3.86-5.78s-2.5-3.19-6-3.37C416.66,267.16,414.9,267.62,413.13,266.69Zm41,2.48a42,42,0,0,1-.38-4.85c.08-1.9-1.05-1.57-2.25-1.59-1.4,0-1.86.42-1.7,1.87.44,4,.71,8.11,1.09,12.16.18,2,1.56,2.78,3.34,2,1.36-.6-.08-2,.87-2.81,2.28.62,4.62,1.18,6.9,1.91,1.4.45,2.24.51,2.61-1.27.32-1.52.15-2.27-1.55-2.53s-3.19-.89-4.8-1.27c-1.24-.29-1.47-.71-.64-1.79,1.56-2,3-4.18,4.51-6.26.84-1.15,1.78-2-.12-3.32s-2.19-.13-2.95,1C457.6,264.45,456.08,266.51,454.14,269.18Zm-12.33,9.31a21.29,21.29,0,0,0,5.89-.89c1-.29,2-.53,1.2-2-.52-1-.29-2.57-2.31-1.85a15.41,15.41,0,0,1-4.62.89,4.59,4.59,0,0,1-4.75-3.29,4.47,4.47,0,0,1,6.87-5.2c1.85,1.41,2.29-.52,3.09-1.23,1.27-1.13-.32-1.54-.86-2a8,8,0,0,0-9.72-.14,8.48,8.48,0,0,0-3.12,9.52C434.7,276.38,437.52,278.46,441.82,278.49Zm-5.07-31.14,2.41,6.16c.34.86.54,1.74,1.9,1.16s1.06-1.17.63-2.11a47.27,47.27,0,0,1-3.4-10.93c-.21-1.13-.62-1.53-1.77-1.53s-1.24.66-1.43,1.55c-.46,2.19-.64,4.49-2,7-.7-2.37-1.34-4.23-1.79-6.14-.24-1-.77-1.28-1.73-1.36a1.37,1.37,0,0,0-1.62,1.1,48.53,48.53,0,0,0-2.74,10.34c-.09.71-.63,1.63.84,1.83s1.59-.51,1.78-1.65c.33-1.87.38-3.87,1.73-5.88.73,1.78,1.37,3.2,1.89,4.66a2.21,2.21,0,0,0,2.12,1.75c1.2,0,1.21-1,1.52-1.69C435.69,250.37,436.11,249,436.75,247.34Zm-55.17,24.3c-.75-2.56-1.33-4.43-1.84-6.32-.23-.86-.48-1.45-1.58-1.55s-1.58.52-1.9,1.44a52.29,52.29,0,0,0-2.62,9.84c-.15,1-.53,1.94,1.07,2.14s1.36-1,1.55-1.9c.42-2,.59-4.09,1.67-6,.72,1.83,1.42,3.51,2,5.23a2,2,0,0,0,2,1.47c1.09.07,1.15-.77,1.42-1.41.58-1.37,1.1-2.76,1.76-4.43.95,2.4,1.78,4.46,2.56,6.54.32.84.71,1.17,1.65.74s1.33-.77.84-1.83a47.28,47.28,0,0,1-3.54-11.37c-.17-.95-.55-1.41-1.63-1.4s-1.4.42-1.55,1.4A32.37,32.37,0,0,1,381.58,271.65Zm10.15-17.23c4.89,0,9-4,8.92-8.53a7.07,7.07,0,0,0-7.11-7.12c-4.61,0-8.76,4-8.77,8.46A6.87,6.87,0,0,0,391.73,254.42ZM443,252.31c-.34,1.25-.26,1.83.84,1.92s1.51-.07,1.77-1.16c.21-.91-.26-2.28.89-2.66a10.79,10.79,0,0,1,4.63-.76c1.18.16,1,1.89,1.24,3s.63,1.51,1.86,1.29c1.64-.31.94-1.26.72-2-.87-3-1.75-6.06-2.71-9.07-1.06-3.33-1.1-3.34-4.55-2.61-1.14.24-2.61-.08-2.9,1.72C444.17,245.51,443.52,249.11,443,252.31ZM459,247.85c-.18-2.2-.34-3.67-.42-5.14-.06-1-.37-1.5-1.51-1.42s-1.32.62-1.22,1.63c.34,3.48.62,7,.9,10.44.07.9.15,1.62,1.39,1.53,1-.07,1.63-.25,1.38-1.44-.33-1.54.67-1.15,1.46-1,1.85.46,3.72.88,5.53,1.48,1.08.36,1.54.32,1.95-.92s-.43-1.38-1.16-1.62c-2-.65-4.14-.84-6.18-1.88,1.84-2.54,3.52-4.91,5.26-7.23.61-.81,1-1.34-.11-2.16s-1.57-.11-2.12.65C462.62,243,461.05,245.09,459,247.85Zm-57-.56c0,5,1.07,6.06,6.06,6a20.93,20.93,0,0,0,3-.23c2.88-.45,3.69-1.37,3.62-4.34a54.57,54.57,0,0,0-1.27-8.63c-.22-1.16-.74-1.23-1.72-1.07s-1,.86-.89,1.64c.31,1.72.72,3.42.95,5.15.64,4.84.49,5-4.54,4.87-1.84,0-2.85-.61-2.53-2.66.38-2.47.67-4.94,1-7.42.08-.69.46-1.57-.75-1.72-1-.13-1.77,0-1.91,1.25C402.7,242.52,402.32,244.9,402,247.29Zm-6.08,14v.07a14.48,14.48,0,0,1-2,.08c-2.2-.2-2.93.63-2.51,2.87.35,1.87.2,3.82.38,5.72s-.5,4.64.78,5.42c2,1.21,4.66.22,7-.26,1.19-.24,1.35-.87,1.15-1.95s-1-.88-1.69-.77c-1.07.16-2.14.27-3.2.43s-1.25-.37-1.33-1.27.22-1.34,1.2-1.37,2.15-.27,3.23-.3,1.32-.39,1.25-1.37-.33-1.4-1.33-1.29a25.85,25.85,0,0,0-3,.24c-1.43.33-1.59-.31-1.7-1.53-.15-1.57.39-2.12,1.9-2,.83.05,1.66-.11,2.49-.08s1.35-.19,1.29-1.25-.34-1.52-1.46-1.38A21.62,21.62,0,0,1,395.92,261.25Zm73.74-17.83a16.68,16.68,0,0,0,.25,3.72c.56,1.93-1,4.73,1.3,5.7,1.86.79,4.24.1,6.38-.38,1.19-.27,1.43-.66,1.25-1.82-.22-1.43-1.13-.9-1.86-.83-.91.08-1.8.28-2.71.4s-1.61.1-1.64-1.17c0-1,.19-1.59,1.3-1.61.91,0,1.83-.14,2.74-.14,1.07,0,1.71-.23,1.6-1.55s-.72-1.28-1.67-1.14c-.74.11-1.5.07-2.24.18-1.32.19-2.12.12-2.16-1.67s.84-1.84,2.11-1.81c.83,0,1.66-.08,2.49-.07,1.06,0,1.18-.59,1.13-1.46s-.31-1.39-1.34-1.23a22.62,22.62,0,0,1-2.49.17C469.46,238.92,469.46,238.92,469.66,243.42Zm-42,47.91c.13-.8.06-1.6-.88-1.77s-1.46.35-1.62,1.38a61.8,61.8,0,0,1-1.25,6.08,43.51,43.51,0,0,1-10.84,19c-.64.67-1.44,1.39-.62,2.32s1.64.23,2.29-.44A46.77,46.77,0,0,0,427.68,291.33Zm-1-25.47h-.08q.38,5,.77,9.91c.09,1.13.16,2.12,1.84,1.82,1.32-.24,2.3-.24,2.09-2.12-.47-4.28-.73-8.59-1-12.89-.08-1.34,0-2.37-2-2.17-1.78.18-2.27.81-1.91,2.47A23.82,23.82,0,0,1,426.67,265.86Zm-43-26.23a10.87,10.87,0,0,0-1.11-1.19c-.66-.54-1,.15-1.46.47-1.17.86-2,2.74-3.37,2.57s-2.47-1.56-3.7-2.41c-.34-.24-.68-.47-1-.73-.84-.64-1.16.08-1.53.6s-.88,1.08,0,1.64a19.63,19.63,0,0,0,1.63,1.14c2.83,1.38,4.16,3.5,3.72,6.74a31.76,31.76,0,0,0,.2,4c0,1.09.39,1.43,1.47,1.39s1.29-.46,1.22-1.38a24.31,24.31,0,0,0-.13-2.74c-.71-3.61-.21-6.72,3.24-8.79A1.34,1.34,0,0,0,383.68,239.63Zm85.86,33.3c-.33.17-1.77-.77-1.54.9.18,1.36-.35,3.48,2.33,3,.76-.15,2.13.48,1.8-1.15C471.87,274.38,472.45,272.27,469.54,272.93Z" transform="translate(-320.13 -187.24)"/><path class="d59d3c5b-de42-4d7a-b429-7714ca2578d3" d="M455.28,370.52c3.24,2.89,6.25,3.26,8.38,1.2a5.63,5.63,0,0,0,.61-7.87c-2.17-2.53-5.46-2.4-9,.36-.45-4-.45-4,3.42-4h9.07a2.46,2.46,0,0,0-2.67-1.29c-2.5,0-5-.17-7.49,0-1.81.09-2.15-.54-1.67-2.15a36.29,36.29,0,0,1,11-17.2c7.06-6.19,15.51-9,24.67-9.59,9.32-.61,18.48.21,26.74,5.26,1.35.82,2.66,1.71,3.92,2.66,4.83,3.65,7.94,7.71,7.43,14.59-.74,10-.22,20.14-.16,30.22a7.25,7.25,0,0,1-1.29,4.18c-6.06,9.36-15.18,13.94-25.64,16.24s-20.65,1.72-30.17-3.93C463.39,393.72,455.29,380.48,455.28,370.52Zm37.66-4.26a5.38,5.38,0,0,0-5.36-5.39,5.51,5.51,0,0,0-.33,11A5.49,5.49,0,0,0,492.95,366.25Zm-6.26,11.61c-5-2.33-10.3-.23-15.4-1C476.29,379,481.58,377.08,486.68,377.86Zm8.95-18.74v-.72a110.24,110.24,0,0,0-15.06,0v.7Z" transform="translate(-320.13 -187.24)"/><path class="d59d3c5b-de42-4d7a-b429-7714ca2578d3" d="M413.74,363.82c.35,1.15,1.44,0,1.74,1.23,1.55,6.4,4.08,7.56,9.92,4.76.07,1.88.07,1.88-1.61,2.81a2,2,0,0,1,1.09,2.53c-3.93,16.86-18.39,31-39.91,29a56.12,56.12,0,0,1-18.88-5.17c-14.67-7-23.6-26.19-20.26-41.77,2.21-10.3,8.54-18,17.91-22.79,10.54-5.44,21.73-5.66,33.07-3.21,12.81,2.77,21.64,10.44,26.85,22.36,2.76,6.31,2.53,6.65-4.12,8.31A18.84,18.84,0,0,0,413.74,363.82Zm-5.11,8.83A24.37,24.37,0,0,0,393.82,377a17.5,17.5,0,0,0-7.58,11.57c-.5,2.72.06,3.44,2.73,3.29,8.81-.48,17.61-1,26.41-1.58.64,0,1.36.12,1.18-1-.61-3.91,0-7.8.27-11.7a3.84,3.84,0,0,0-2.81-4.19C412.19,372.71,410.25,372.9,408.63,372.64Zm-18-11.14c-1.72,3.06-1.68,5.7.17,7.71a6,6,0,0,0,6.37,1.72c2.35-.64,3.37-3,3.77-6.34.2-1.67-.48-2-1.6-2.26-3.28-.89-6.58-1.72-9.84-2.66a5.75,5.75,0,0,0-3.24-.14C387.65,360.83,389.32,360.66,390.66,361.5Zm-1.68,9-.35.53a5.32,5.32,0,0,0,4.74,2.12Zm-.67-.74-.39.31a2.73,2.73,0,0,0,.48.35s.19-.14.29-.22Z" transform="translate(-320.13 -187.24)"/><path class="0be48727-f90b-494f-84b3-999ddb3f2d9e" d="M377.08,459.81c-6.58-.25-13.79-.35-20.51-3.8-2.54-1.3-3.47-2.94-3.9-5.66C350.06,434.06,351.26,418,355,402c.35-1.49,0-3.59,1.31-4.23.66-.33,2.35,1.47,3.61,2.24,12.56,7.7,26,10.32,40.43,6.83,2.73-.66,3.05-.45,2.79,2.2a221.84,221.84,0,0,0,.44,43.14,13.52,13.52,0,0,0,.19,2c.41,1.61-.39,2.18-1.82,2.53A101.85,101.85,0,0,1,377.08,459.81Z" transform="translate(-320.13 -187.24)"/><path class="d73cd5c9-3b92-42f0-9796-831823dcec54" d="M524.8,397.67c1.14,6,2.43,11.95,3.41,18,2,12.29,1,24.55-.52,36.8-.18,1.47-1.11,2.1-2.21,2.76-5.92,3.57-12.53,4.28-19.2,4.52A99.82,99.82,0,0,1,480.07,457c-2.71-.63-3.26-1.48-3-4.25a239.48,239.48,0,0,0,.61-43.61c-.25-3-.2-2.92,2.62-2.26,15.17,3.58,29.18.81,42.07-7.87.62-.42,1.22-.87,1.84-1.29C524.27,397.67,524.38,397.7,524.8,397.67Z" transform="translate(-320.13 -187.24)"/><path class="5ec7cbc0-bda1-40f5-9afe-7f2b7828c572" d="M353.34,492.55A209.26,209.26,0,0,0,360.24,462a86.61,86.61,0,0,0,29.17,1.09,63.44,63.44,0,0,0,7.13-1.15c1.53-.36,1.91.22,2,1.53.33,3.65.78,7.29,1,10.94.4,5.48.64,11,1,16.45.1,1.37-.15,1.89-1.67,1.89-14.91-.05-29.83,0-44.74,0A5.57,5.57,0,0,1,353.34,492.55Z" transform="translate(-320.13 -187.24)"/><path class="5ec7cbc0-bda1-40f5-9afe-7f2b7828c572" d="M502.65,492.74c-6.91,0-13.83,0-20.74,0-1.26,0-1.91-.08-1.84-1.72.42-9.23,1-18.45,2.05-27.64.17-1.51.62-1.69,2-1.41a97.23,97.23,0,0,0,32.78.85c3.55-.5,3.61-.53,4.18,3.15a174.1,174.1,0,0,0,5.52,24c.56,1.83-.18,2.42-1.72,2.64a14.06,14.06,0,0,1-2,.07Z" transform="translate(-320.13 -187.24)"/><path class="22d8dc87-fccf-40b7-b18b-048b5bfb815d" d="M529.58,457.59V484c-1.22-2.37-1.46-4.58-2-6.69-1.21-4.75-2-9.59-2.89-14.41-.35-1.93-.05-3.15,2-3.76A18.4,18.4,0,0,0,529.58,457.59Z" transform="translate(-320.13 -187.24)"/><path class="67c5126e-f487-46f7-bc22-57eccdd2342f" d="M474.16,434.32l-1,0c-.19-2.79.49-5.51,1-8.28Z" transform="translate(-320.13 -187.24)"/><path class="67c5126e-f487-46f7-bc22-57eccdd2342f" d="M473.73,441.8c0-1.68-.41-3.38.35-5A15,15,0,0,1,473.73,441.8Z" transform="translate(-320.13 -187.24)"/><path class="67c5126e-f487-46f7-bc22-57eccdd2342f" d="M473.2,434.27c.12.88.35,1.77-.34,2.54A4.39,4.39,0,0,1,473.2,434.27Z" transform="translate(-320.13 -187.24)"/><path class="a1a9bb0a-293b-42bf-aaf5-9442fcb00365" d="M413.13,266.69c1.77.93,3.54.47,5.22.56,3.52.19,5.59,1.29,6,3.37s-.87,4.14-3.86,5.78a14,14,0,0,1-4.69,1.57c-.91.14-1.94.59-1.94-.92,0-1.12-1-2.65,1.3-3,1.82-.25,3.75-.65,5.13-2.46a6.11,6.11,0,0,0-2.93-.5,30.91,30.91,0,0,1-5.19-.5c-3.42-.87-4.36-4.21-1.88-6.72,3.18-3.22,7.27-4.11,11.66-4,1.2,0,1.41.77,1.13,1.67s.39,2.4-1.48,2.25a12.1,12.1,0,0,0-4.68.53A7.29,7.29,0,0,0,413.13,266.69Z" transform="translate(-320.13 -187.24)"/><path class="a1a9bb0a-293b-42bf-aaf5-9442fcb00365" d="M454.14,269.18c1.93-2.67,3.46-4.72,4.93-6.82.76-1.09,1.13-2.22,2.95-1s1,2.17.12,3.32c-1.51,2.08-2.95,4.22-4.51,6.26-.83,1.08-.6,1.5.64,1.79,1.61.38,3.17,1,4.8,1.27s1.87,1,1.55,2.53c-.37,1.78-1.21,1.73-2.61,1.27-2.28-.74-4.62-1.29-6.9-1.91-.95.79.49,2.21-.87,2.81-1.78.79-3.16,0-3.34-2-.38-4.05-.65-8.11-1.09-12.16-.16-1.46.31-1.89,1.7-1.87,1.19,0,2.33-.31,2.25,1.59A42,42,0,0,0,454.14,269.18Z" transform="translate(-320.13 -187.24)"/><path class="a1a9bb0a-293b-42bf-aaf5-9442fcb00365" d="M441.82,278.49c-4.29,0-7.12-2.11-8.33-6.13a8.48,8.48,0,0,1,3.12-9.52,8,8,0,0,1,9.72.14c.55.42,2.13.83.86,2-.8.71-1.24,2.64-3.09,1.23a4.47,4.47,0,0,0-6.87,5.2,4.59,4.59,0,0,0,4.75,3.29,15.41,15.41,0,0,0,4.62-.89c2-.72,1.8.87,2.31,1.85.75,1.43-.16,1.67-1.2,2A21.29,21.29,0,0,1,441.82,278.49Z" transform="translate(-320.13 -187.24)"/><path class="d03c9b24-ca81-4a6a-adec-7a7a3aacac05" d="M436.75,247.34c-.64,1.69-1.06,3-1.64,4.28-.31.68-.32,1.73-1.52,1.69a2.21,2.21,0,0,1-2.12-1.75c-.53-1.46-1.16-2.87-1.89-4.66-1.35,2-1.41,4-1.73,5.88-.2,1.14-.33,1.84-1.78,1.65s-.93-1.13-.84-1.83a48.53,48.53,0,0,1,2.74-10.34,1.37,1.37,0,0,1,1.62-1.1c1,.08,1.48.32,1.73,1.36.44,1.91,1.08,3.77,1.79,6.14,1.36-2.51,1.54-4.8,2-7,.19-.89.25-1.55,1.43-1.55s1.56.4,1.77,1.53a47.27,47.27,0,0,0,3.4,10.93c.43.94.6,1.59-.63,2.11s-1.56-.3-1.9-1.16Z" transform="translate(-320.13 -187.24)"/><path class="d03c9b24-ca81-4a6a-adec-7a7a3aacac05" d="M381.58,271.65a32.37,32.37,0,0,0,1.92-7.49c.15-1,.47-1.4,1.55-1.4s1.46.46,1.63,1.4a47.28,47.28,0,0,0,3.54,11.37c.49,1.07,0,1.42-.84,1.83s-1.33.11-1.65-.74c-.79-2.07-1.62-4.13-2.56-6.54-.66,1.67-1.19,3.06-1.76,4.43-.27.64-.32,1.49-1.42,1.41a2,2,0,0,1-2-1.47c-.61-1.71-1.31-3.39-2-5.23-1.09,2-1.25,4-1.67,6-.18.89.15,2.12-1.55,1.9s-1.22-1.14-1.07-2.14a52.29,52.29,0,0,1,2.62-9.84c.33-.92.68-1.55,1.9-1.44s1.34.69,1.58,1.55C380.25,267.21,380.83,269.09,381.58,271.65Z" transform="translate(-320.13 -187.24)"/><path class="d03c9b24-ca81-4a6a-adec-7a7a3aacac05" d="M391.73,254.42a6.87,6.87,0,0,1-7-7.19c0-4.45,4.16-8.45,8.77-8.46a7.07,7.07,0,0,1,7.11,7.12C400.74,250.47,396.62,254.41,391.73,254.42Zm6.19-8.27a4.35,4.35,0,0,0-4.3-4.77,6.48,6.48,0,0,0-6.2,5.72,4.27,4.27,0,0,0,4.09,4.69A6.18,6.18,0,0,0,397.91,246.15Z" transform="translate(-320.13 -187.24)"/><path class="d03c9b24-ca81-4a6a-adec-7a7a3aacac05" d="M443,252.31c.56-3.2,1.21-6.8,1.8-10.41.29-1.8,1.76-1.48,2.9-1.72,3.45-.73,3.49-.72,4.55,2.61,1,3,1.84,6,2.71,9.07.22.78.92,1.73-.72,2-1.24.23-1.59-.24-1.86-1.29s-.06-2.79-1.24-3a10.79,10.79,0,0,0-4.63.76c-1.16.38-.68,1.75-.89,2.66-.25,1.08-.8,1.24-1.77,1.16S442.62,253.56,443,252.31Zm3.78-6.27c-.19,1-.1,1.66.9,1.33s2.8.42,2.72-1.15c-.06-1.18,0-3.42-1.93-3.42C446.18,242.81,447.33,245.12,446.74,246Z" transform="translate(-320.13 -187.24)"/><path class="17372f4c-67a6-47c4-be7b-bd158a887f0a" d="M459,247.85c2-2.76,3.59-4.89,5.14-7,.55-.75.92-1.53,2.12-.65s.72,1.35.11,2.16c-1.74,2.32-3.42,4.69-5.26,7.23,2,1,4.19,1.23,6.18,1.88.73.24,1.6.27,1.16,1.62s-.86,1.28-1.95.92c-1.81-.6-3.68-1-5.53-1.48-.79-.2-1.79-.58-1.46,1,.25,1.19-.39,1.36-1.38,1.44-1.24.09-1.32-.63-1.39-1.53-.28-3.48-.56-7-.9-10.44-.1-1,.06-1.54,1.22-1.63s1.46.43,1.51,1.42C458.7,244.18,458.85,245.65,459,247.85Z" transform="translate(-320.13 -187.24)"/><path class="17372f4c-67a6-47c4-be7b-bd158a887f0a" d="M402,247.29c.33-2.39.7-4.77,1-7.17.14-1.3.91-1.38,1.91-1.25,1.21.16.83,1,.75,1.72-.3,2.48-.59,5-1,7.42-.31,2.05.7,2.64,2.53,2.66,5,.08,5.18,0,4.54-4.87-.23-1.73-.63-3.43-.95-5.15-.14-.77-.22-1.45.89-1.64s1.51-.09,1.72,1.07a54.57,54.57,0,0,1,1.27,8.63c.07,3-.74,3.88-3.62,4.34a20.93,20.93,0,0,1-3,.23C403.07,253.35,402,252.28,402,247.29Z" transform="translate(-320.13 -187.24)"/><path class="17372f4c-67a6-47c4-be7b-bd158a887f0a" d="M395.92,261.25a21.62,21.62,0,0,0,2.49,0c1.12-.13,1.41.33,1.46,1.38s-.38,1.28-1.29,1.25-1.67.13-2.49.08c-1.51-.09-2,.46-1.9,2,.11,1.22.27,1.86,1.7,1.53a25.85,25.85,0,0,1,3-.24c1-.11,1.27.38,1.33,1.29s-.29,1.34-1.25,1.37-2.15.27-3.23.3-1.29.39-1.2,1.37.32,1.42,1.33,1.27,2.14-.28,3.2-.43c.73-.11,1.46-.42,1.69.77s0,1.7-1.15,1.95c-2.37.48-5.06,1.47-7,.26-1.28-.78-.61-3.55-.78-5.42s0-3.86-.38-5.72c-.42-2.24.31-3.07,2.51-2.87a14.48,14.48,0,0,0,2-.08Z" transform="translate(-320.13 -187.24)"/><path class="d03c9b24-ca81-4a6a-adec-7a7a3aacac05" d="M469.66,243.42c-.2-4.5-.19-4.5,4.44-4.7a22.62,22.62,0,0,0,2.49-.17c1-.16,1.3.31,1.34,1.23s-.07,1.48-1.13,1.46c-.83,0-1.66.09-2.49.07-1.27,0-2.15,0-2.11,1.81s.84,1.86,2.16,1.67c.74-.11,1.5-.07,2.24-.18.94-.14,1.57-.1,1.67,1.14s-.53,1.55-1.6,1.55c-.91,0-1.83.12-2.74.14-1.11,0-1.33.59-1.3,1.61,0,1.27.75,1.29,1.64,1.17s1.8-.32,2.71-.4c.73-.07,1.64-.6,1.86.83.18,1.15-.06,1.55-1.25,1.82-2.14.48-4.52,1.17-6.38.38-2.29-1-.74-3.77-1.3-5.7A16.68,16.68,0,0,1,469.66,243.42Z" transform="translate(-320.13 -187.24)"/><path class="d03c9b24-ca81-4a6a-adec-7a7a3aacac05" d="M427.68,291.33a46.77,46.77,0,0,1-12.92,26.6c-.65.67-1.42,1.43-2.29.44s0-1.65.62-2.32a43.51,43.51,0,0,0,10.84-19,61.8,61.8,0,0,0,1.25-6.08c.17-1,.65-1.56,1.62-1.38S427.8,290.53,427.68,291.33Z" transform="translate(-320.13 -187.24)"/><path class="d03c9b24-ca81-4a6a-adec-7a7a3aacac05" d="M426.67,265.86a23.82,23.82,0,0,0-.27-3c-.36-1.66.13-2.29,1.91-2.47,2-.2,1.9.83,2,2.17.27,4.3.52,8.61,1,12.89.21,1.88-.77,1.88-2.09,2.12-1.69.3-1.75-.69-1.84-1.82q-.39-5-.77-9.91Z" transform="translate(-320.13 -187.24)"/><path class="17372f4c-67a6-47c4-be7b-bd158a887f0a" d="M383.68,239.63a1.34,1.34,0,0,1-.82,1.27c-3.45,2.07-4,5.18-3.24,8.79a24.31,24.31,0,0,1,.13,2.74c.07.92-.21,1.34-1.22,1.38s-1.48-.3-1.47-1.39a31.76,31.76,0,0,1-.2-4c.44-3.24-.89-5.36-3.72-6.74a19.63,19.63,0,0,1-1.63-1.14c-.89-.56-.39-1.11,0-1.64s.69-1.24,1.53-.6c.33.25.67.49,1,.73,1.23.86,2.39,2.25,3.7,2.41s2.2-1.72,3.37-2.57c.44-.32.8-1,1.46-.47A10.87,10.87,0,0,1,383.68,239.63Z" transform="translate(-320.13 -187.24)"/><path class="17372f4c-67a6-47c4-be7b-bd158a887f0a" d="M469.54,272.93c2.91-.66,2.34,1.45,2.59,2.7.33,1.63-1,1-1.8,1.15-2.68.53-2.14-1.6-2.33-3C467.77,272.16,469.21,273.1,469.54,272.93Z" transform="translate(-320.13 -187.24)"/><path class="1a4bdce0-001b-4d6a-b667-dc746029dc1c" d="M492.95,366.25a5.49,5.49,0,0,1-5.69,5.61,5.51,5.51,0,0,1,.33-11A5.38,5.38,0,0,1,492.95,366.25Z" transform="translate(-320.13 -187.24)"/><path class="17372f4c-67a6-47c4-be7b-bd158a887f0a" d="M486.68,377.86c-5.1-.78-10.39,1.11-15.4-1C476.39,377.63,481.69,375.53,486.68,377.86Z" transform="translate(-320.13 -187.24)"/><path class="306f317a-d634-48a6-b70b-c77252a6ee45" d="M495.63,359.12H480.56v-.7a110.24,110.24,0,0,1,15.06,0Z" transform="translate(-320.13 -187.24)"/><path class="1ef1b97b-39c9-4b85-b81b-c9e9f86f20c8" d="M408.63,372.64c1.62.26,3.56.06,5.4.76a3.84,3.84,0,0,1,2.81,4.19c-.29,3.9-.89,7.79-.27,11.7.18,1.14-.55,1-1.18,1-8.8.53-17.6,1.09-26.41,1.58-2.67.15-3.23-.57-2.73-3.29A17.5,17.5,0,0,1,393.82,377,24.37,24.37,0,0,1,408.63,372.64Z" transform="translate(-320.13 -187.24)"/><path class="306f317a-d634-48a6-b70b-c77252a6ee45" d="M390.66,361.5c-1.34-.85-3-.67-4.37-2a5.75,5.75,0,0,1,3.24.14c3.27.94,6.56,1.77,9.84,2.66,1.12.31,1.8.59,1.6,2.26-.4,3.35-1.42,5.69-3.77,6.34a6,6,0,0,1-6.37-1.72C389,367.2,388.94,364.56,390.66,361.5Z" transform="translate(-320.13 -187.24)"/><path class="00fdd2dc-40e3-4b78-b908-2446dc16bf30" d="M389,370.51l4.39,2.65a5.32,5.32,0,0,1-4.74-2.12Z" transform="translate(-320.13 -187.24)"/><path class="00fdd2dc-40e3-4b78-b908-2446dc16bf30" d="M388.31,369.77l.37.44c-.1.08-.24.25-.29.22a2.73,2.73,0,0,1-.48-.35Z" transform="translate(-320.13 -187.24)"/><path class="255c8064-afe9-4e8e-9f97-1532276ba344" d="M397.91,246.15a6.18,6.18,0,0,1-6.41,5.64,4.27,4.27,0,0,1-4.09-4.69,6.48,6.48,0,0,1,6.2-5.72A4.35,4.35,0,0,1,397.91,246.15Z" transform="translate(-320.13 -187.24)"/><path class="22d8dc87-fccf-40b7-b18b-048b5bfb815d" d="M446.74,246c.59-.92-.56-3.24,1.7-3.24,2,0,1.87,2.24,1.93,3.42.08,1.57-1.75.82-2.72,1.15S446.55,247.05,446.74,246Z" transform="translate(-320.13 -187.24)"/></svg>