<svg id="64cfb370-84e9-4cce-843d-76821ce6bee5" data-name="Capa 1" xmlns="http://www.w3.org/2000/svg" viewBox="0 0 213.61 309.59"><defs><style>.\39 690f5d0-24af-450d-88d1-d77f1038e3ee{fill:#080908;}.\34 1501fd0-b309-4ea4-b635-8234ce9ef55a{fill:#fdfdfd;}.\34 7713043-6518-4eee-a738-00296794c321{fill:#141512;}.\31 6a60544-449d-48d8-a4e6-e5d67c5fadda{fill:#1f1f20;}.c1e1538d-f9c1-4015-baf3-b648eebc8fdf{fill:#1d1d1e;}.\39 525d4de-66e9-4bad-bfca-7421b38391fd{fill:#212222;}.f8a2ac04-dc75-4e93-a0a8-d2c7beea85e6{fill:#bfbebe;}.b49614db-f813-4d6b-8296-732cbe6dd88f{fill:#f7cca0;}.\37 cc15c40-c6d2-4cf4-86ca-08c658ffd4bc{fill:#509541;}.e5d254c0-c33f-4687-ab70-44a6fe1d0070{fill:#96b4c7;}.\31 099f958-993b-4860-a5f7-f0662e2d8900{fill:#eeeded;}.ea6a1a81-da15-42da-aa26-7ba4b418deb6{fill:#787878;}.\32 025ebab-1468-4529-bd08-72b3430576d4{fill:#19130c;}.b5dcfb21-7f40-458e-b12e-877a89d7db4e{fill:#403227;}.\38 380d97e-04e9-4894-8acc-ab1e8b4e6904{fill:#c8a47d;}</style></defs><title>card-32</title><path class="9690f5d0-24af-450d-88d1-d77f1038e3ee" d="M320.35,341.31q0-71.24,0-142.48c0-1.08,0-2.17.08-3.25.36-5.16,3.64-8.39,8.83-8.68,1.41-.08,2.83-.07,4.25-.07H521c10.53,0,13,2.43,13,12.92q0,142.35,0,284.71a25.29,25.29,0,0,1-.12,3.49c-.81,5.79-3.9,8.47-9.76,8.47H330.35c-6.29,0-9.69-3.29-10-9.63,0-.83,0-1.67,0-2.5Q320.35,412.8,320.35,341.31Zm4.14.13q0,71.74,0,143.49c0,5.7,1.7,7.39,7.46,7.39H522.68c.58,0,1.17,0,1.75,0,3-.23,4.7-1.75,5.13-4.79a23.61,23.61,0,0,0,.19-3.23q0-142.86,0-285.73a23.22,23.22,0,0,0-.16-3,4.58,4.58,0,0,0-4.13-4.33,26.34,26.34,0,0,0-4-.3q-94.24,0-188.49,0a26,26,0,0,0-4,.22c-2.89.45-4.2,1.89-4.48,4.8-.09.91,0,1.83,0,2.75Q324.49,270.08,324.49,341.45Z" transform="translate(-320.35 -186.83)"/><path class="41501fd0-b309-4ea4-b635-8234ce9ef55a" d="M324.49,341.45q0-71.37,0-142.74c0-.92,0-1.84,0-2.75.29-2.91,1.6-4.35,4.48-4.8a26,26,0,0,1,4-.22q94.24,0,188.49,0a26.34,26.34,0,0,1,4,.3,4.58,4.58,0,0,1,4.13,4.33,23.22,23.22,0,0,1,.16,3q0,142.86,0,285.73a23.61,23.61,0,0,1-.19,3.23c-.42,3-2.08,4.56-5.13,4.79-.58,0-1.17,0-1.75,0H331.95c-5.76,0-7.46-1.68-7.46-7.39Q324.49,413.19,324.49,341.45Zm25.84,80c.4,4,1,7.94,1.15,11.92.16,3.29,1.5,5.53,4.63,6.58,1.8.6,2,1.71,1.73,3.44a197.4,197.4,0,0,1-7.89,31.4c-.43,1.24-.92,2.53.71,3.14s2.35-.6,2.82-2A188.34,188.34,0,0,0,361,447c.23-1.31,0-2.9.7-3.88,1-1.45,2.47.15,3.73.28,9.41,1,18.78,1,28.09-.86,1.3-.26,1.82,0,1.93,1.36.29,3.82.77,7.62,1,11.45.42,6.65.72,13.3,1,20,0,1,.11,1.86,1.24,2.15a1.88,1.88,0,0,0,2.05-.54c.62-.72.39-1.59.37-2.4-.28-10-.85-20-2.06-29.89-.29-2.36,0-3.82,2.66-4.11,1.62-.18,2.24-1.15,2.06-2.79-.43-3.89-1-7.78-1.1-11.68-.19-5,0-10,0-15,3.3,1.3,4.84.31,5-3.54a27.62,27.62,0,0,0-.06-3A88.24,88.24,0,0,0,405.66,392c-.19-.92-.28-1.61.75-2.31,9.62-6.6,15-15.81,16.37-27.35,2.31-18.8-10-33-24.36-37.61a51.23,51.23,0,0,0-22.7-1.82c-9.26,1.25-17.19,5.15-23.19,12.42-9.5,11.51-10.41,26.67-2,40.5,2,3.35,2.15,6,1,9.53-4.71,15.07-5.57,30.71-6.31,46.35-.06,1.21.27,2.23,1.67,2.32s2-.8,2.08-2.19c.16-3.49.38-7,.58-10.47ZM458.5,416.4l.87,0,0,1.42a7.1,7.1,0,0,0-.3,4.12A103.06,103.06,0,0,1,458,436.42c-.35,2.57.2,4.21,3,4.51,1.44.15,1.77.89,1.6,2.39q-.94,8.44-1.52,16.91c-.33,4.82-.43,9.65-.62,14.47-.05,1.3,0,2.65,1.72,2.77s1.95-1.13,1.94-2.5c0-1,.12-2,.14-3,.21-9,.93-18,1.82-26.91.19-1.88.34-2.85,2.89-2.35a87.87,87.87,0,0,0,25.61.86c1.8-.18,4-1.8,5.23-.5s.82,3.62,1.16,5.51A179,179,0,0,0,508.28,476c.68,1.93,2.19,2.66,3.26,1.63s.46-2.12.08-3.24A182,182,0,0,1,503.82,443c-.25-1.68.17-2.46,1.62-3,3.05-1.1,4.39-3.21,4.74-6.52.54-5.12.87-10.25,1.48-15.37.82,4.42.72,8.91,1.1,13.36.11,1.27.06,2.67,1.89,2.59s1.9-1.51,1.79-2.91c-.49-6.72-.83-13.46-1.5-20.17-1-9.94-2.39-19.83-5.95-29.25a2.46,2.46,0,0,1,.35-2.69,40.61,40.61,0,0,0,5.38-10.36c7.92-21.74-6.44-40.51-23.55-44.74a52.1,52.1,0,0,0-19.33-1.08c-13.89,1.79-24.4,8.5-30.36,21.39-6.93,15-1.1,35,12.72,44.74.88.62,1.9,1,1.87,2.59-.19,8.58-.52,17.14-1.49,25.67-.49,4.3-1,8.59-1.54,12.89-.16,1.31.15,2.43,1.63,2.59,1.32.15,1.9-.79,2.11-2,.07-.41.12-.82.17-1.24Q457.74,423,458.5,416.4Zm-.85-168.6-1.74-6.07c-.25-.89-.47-1.68-1.71-1.77s-1.48.62-1.83,1.54a50.54,50.54,0,0,0-2.64,9.84c-.15.88-.61,1.78.89,2s1.62-.73,1.75-1.72a26,26,0,0,1,1.6-6.31c.78,2,1.46,3.54,2,5.14a2.31,2.31,0,0,0,2.15,1.73c1.23.12,1.15-1,1.47-1.65.58-1.19,1-2.45,1.72-4.1,1,2.43,1.75,4.33,2.49,6.25.35.91.69,1.35,1.81.82s1.08-1,.67-1.93a49.88,49.88,0,0,1-3.47-11.14c-.19-1-.5-1.61-1.75-1.56s-1.37,1-1.51,1.84A26.84,26.84,0,0,1,457.65,247.79ZM349,275.89a13.13,13.13,0,0,0,5.36-.84c3.54-1.39,4.08-4.77,1.05-7.09-.79-.61-.81-.83-.37-1.67,1.23-2.42.49-4.07-2.06-5.06-2.3-.89-4.57-.22-6.85.11-1.18.17-1.49.66-1.37,1.81.32,3.13.56,6.28.74,9.42C345.65,275.9,345.61,275.91,349,275.89Zm95.63.43a30.52,30.52,0,0,0,5.49-1,1.76,1.76,0,0,0,1.53-2.08c0-1.36-.68-2.79.65-4.17.54-.56.37-2.38-1.58-2.08q-3.45.53-6.92.94c-.92.11-1.35.41-1.18,1.42s.48,1.52,1.62,1.25c.88-.21,1.83-.17,2.72-.35s1.73-.45,1.9,1c.14,1.23-.16,1.94-1.4,2.07a13.31,13.31,0,0,1-4,.3,5,5,0,0,1-4.19-5.34,4.37,4.37,0,0,1,4.66-3.92c1.49.07,2.44-.41,2.36-1.72-.09-1.5-1.63-1.1-2.57-1.09a7.32,7.32,0,0,0-7.15,7.21C436.64,273.1,439.83,276.27,444.58,276.33Zm36.59-22.81a25.29,25.29,0,0,0,4.48-.82c1.54-.32,1.93-1.07,1.86-2.58-.05-1.15-1-2.5.59-3.62a1.39,1.39,0,0,0-1.46-2.17c-2.39.33-4.78.7-7.17,1-.92.1-1,.56-1,1.33s.31,1.45,1.34,1.29,2.14-.31,3.21-.44c.73-.09,1.58-.33,1.55.9,0,.83.54,1.92-.94,2.1a29.45,29.45,0,0,1-3.45.44,4.83,4.83,0,0,1-5.08-5,4.58,4.58,0,0,1,5.06-4.38c1.39.06,1.92-.48,2-1.55.07-1.36-1.16-1.09-1.95-1.14a7.22,7.22,0,0,0-7.71,7.08C472.48,250.62,475.68,253.64,481.17,253.51ZM411.35,270.4c.9-.56,1.32-.81,1.73-1.08,1.76-1.16,3.12-2.54,2.66-4.9s-2.08-3.27-4.15-3.77-4.47-.25-6.72-.21c-1.09,0-1.12.67-1,1.52.37,3.9.73,7.79,1,11.7.07.91.29,1.37,1.32,1.26.87-.09,1.45-.27,1.32-1.31a8.62,8.62,0,0,1,.06-1.35c2.39.6,4.66,1.09,6.88,1.76,1.07.32,1.68.34,2-.92s-.32-1.46-1.23-1.67C414.08,271.16,413,270.84,411.35,270.4ZM398,243.63l.55-.17c1.81,2.57,3.65,5.11,5.42,7.71a1.61,1.61,0,0,0,2,.84c1.15-.27,1.16-.92,1.15-1.81-.06-3.5-.2-7-.58-10.48-.11-1-.25-1.51-1.45-1.43s-1.26.72-1.18,1.65c.19,2.09.32,4.18.51,6.86a38.1,38.1,0,0,1-5.52-8.05c-.67-1.36-1.81-1-2.8-.89-1.15.13-.64,1.18-.66,1.81a44.11,44.11,0,0,0,.92,10.43c.19.88.22,1.56,1.5,1.36s1.28-1,1.1-2C398.61,247.56,398.31,245.6,398,243.63Zm27.61,17.57a15.07,15.07,0,0,1-2.27.43c-2.4.05-3.46,1.15-3.67,3.62-.24,2.88-1,5.73-1.46,8.59-.13.73-.72,1.65.67,1.94s1.76-.24,2-1.44c.17-.83-.25-2.07.89-2.39a11.43,11.43,0,0,1,4.63-.7c1.11.18,1,1.91,1.19,3s.84,1.36,1.94,1.19c1.49-.23.86-1.11.7-1.84-.8-3.83-2.25-7.47-3.42-11.19C426.57,261.71,426.36,260.92,425.59,261.2Zm-39.25-.84a14.16,14.16,0,0,0-7.38,2.19c-1.53,1-2.87,2.21-2.44,4.23s2.33,2.41,4.08,2.6c1.57.17,3.16.11,4.73.23.45,0,1.08.05,1.26.6.24.71-.4,1-.86,1.33a7.79,7.79,0,0,1-3.7,1.37c-1.39.13-1.23,1-1.14,2,.12,1.31.94.8,1.63.7a11.47,11.47,0,0,0,4.61-1.78c1.53-1,2.86-2.2,2.4-4.24s-2.37-2.39-4.1-2.6c-1.56-.19-3.15-.1-4.73-.16-.5,0-1.06-.12-1.22-.66s.32-.9.71-1.2a10.28,10.28,0,0,1,6.08-1.9c1.11-.06,2.2.12,2.19-1.54C388.42,259.64,387,260.72,386.34,260.36Zm25.29-13.71c-.22-2-.43-3.41-.51-4.8-.06-1-.13-1.68-1.51-1.59-1.55.1-1.19,1.05-1.12,1.89.29,3.39.63,6.78.92,10.17.07.84-.06,1.67,1.28,1.54,1-.1,1.55-.44,1.36-1.52-.25-1.46.63-1.16,1.46-.94,1.92.51,3.85,1,5.76,1.55,1,.3,1.53,0,1.76-1s-.12-1.35-1-1.55c-1.29-.27-2.56-.67-3.85-1-2.65-.7-2.66-.7-1-3q1.91-2.61,3.84-5.21c.51-.69,1-1.25-.07-2s-1.5-.46-2.13.44C415.23,241.81,413.59,244,411.63,246.65Zm50,16.53c.29,3.42.26,3.23-2.82,3.77-2.08.37-2.63-.37-2.6-2.19,0-.75-.14-1.49-.13-2.24,0-1-.08-1.74-1.46-1.67s-1.22.81-1.16,1.68q.38,5.1.77,10.2c.07.95.15,1.77,1.55,1.61s1.18-1,1.16-2-.74-1.86,0-2.31a7.31,7.31,0,0,1,4.61-.7c1.1.15.64,1.66.84,2.57a3.47,3.47,0,0,1,0,.75c0,1,0,1.78,1.45,1.65s1.25-1,1.17-1.93c-.25-3.15-.36-6.32-.82-9.44-.15-1,1-3.35-1.6-3C460.28,260.32,462.17,262.3,461.6,263.18Zm35.9-22.68c.17,3.2.17,3.2-1.62,3.52-3.73.66-3.73.66-3.88-3.18a9.18,9.18,0,0,1,0-1c.08-1.11-.23-1.66-1.53-1.58s-1.22.75-1.14,1.65c.27,3.31.52,6.62.73,9.94.07,1.14.26,1.85,1.73,1.69,1.62-.18.9-1.16,1-2s-.84-2,.63-2.55c3.24-1.23,4.52-.53,5,2.76a1.55,1.55,0,0,1,0,.25c0,1.07.23,1.66,1.56,1.52s1.14-.91,1.07-1.72c-.27-3.15-.42-6.31-.9-9.42-.16-1,1.18-3.31-1.48-3C496.15,237.63,498.15,239.67,497.5,240.51Zm-121.12.38c.28,3.36.51,6.17.74,9,.09,1.09.28,1.86,1.76,1.66s.89-1.23.94-2-.85-2,.38-2.4a8.37,8.37,0,0,1,4.39-.48c1.06.29.58,2,.8,3.14a1.35,1.35,0,0,1,0,.25c0,.87,0,1.6,1.31,1.53s1.42-.71,1.32-1.77c-.35-3.72-.69-7.44-.92-11.17-.07-1.14-.5-1.35-1.52-1.33s-1.2.6-1.13,1.44a29.47,29.47,0,0,0,.25,3.23c.26,1.32,0,1.86-1.5,2.06-4.69.62-3.77.9-4.18-3.43,0-.5,0-1-.07-1.49-.05-1.06-.84-.79-1.46-.8s-1.19,0-1.14.88S376.39,240.68,376.39,240.89Zm-13.6,19.48a9.92,9.92,0,0,1-1.76,0c-1.83-.23-2.27.59-2.08,2.28.26,2.23.35,4.48.46,6.73.28,5.87.46,6,6.33,5,.57-.1,1.12-.33,1.7-.39.88-.1,1.15-.55,1-1.35s-.25-1.53-1.38-1.28a18.81,18.81,0,0,1-3,.45c-.8,0-1.86.56-2-1s.49-1.75,1.67-1.76c.92,0,1.83-.12,2.74-.13s1.38-.29,1.24-1.34-.21-1.63-1.46-1.36c-.81.18-1.68,0-2.48.22-1.64.37-1.88-.44-2-1.84-.19-1.8.9-1.61,2-1.64.92,0,1.83-.09,2.75-.09,1.15,0,1-.8,1-1.57s-.34-1.21-1.21-1.12S364.44,260.26,362.79,260.37Zm60.71,27.14c.05-1-.21-1.54-1-1.59-1.06-.07-1.34.66-1.58,1.55a44.53,44.53,0,0,1-8.22,16.35,48.35,48.35,0,0,1-7.05,7c-.72.59-1.16,1.3-.45,2.11s1.35.33,2-.12c.2-.14.39-.31.58-.47a46.65,46.65,0,0,0,15.5-23.84C423.33,288.13,423.44,287.73,423.5,287.51Zm11-35.1v.08c1.24-.14,2.47-.32,3.71-.42,1-.08.9-.74.84-1.42s-.06-1.5-1-1.23c-2.46.69-2.22-1.11-2.38-2.5s-.12-3-.36-4.47.16-2.21,1.76-2.06c.91.09,1.36-.23,1.21-1.3s-.34-1.51-1.51-1.36c-2.06.27-4.14.41-6.21.56-.68.05-1.14.23-1,1,.09.61-.09,1.7.77,1.55,2.84-.5,2.25,1.59,2.46,3a36.9,36.9,0,0,1,.3,3.73c0,1,.69,2.14-1.15,2.4-1,.14-.46,1.26-.43,1.94,0,.9.72.67,1.29.6S433.94,252.47,434.52,252.41Zm-83.79-14.54v-.06c-1.4.16-2.81.33-4.21.46-.79.07-1.51.07-1.34,1.23.13.91.28,1.66,1.47,1.43,1-.19,1.72.08,1.59,1.22-.3,2.58,1.55,5.19-.1,7.74-.09.14-.51,0-.71.14-.76.44-.4,1.17-.39,1.8s.43.85,1,.8l6-.58c.79-.08.94-.58.78-1.23s0-1.62-1-1.38c-2.53.61-2.38-1.07-2.48-2.65-.08-1.33-.18-2.66-.35-4-.2-1.5-.13-2.67,1.89-2.43.86.1,1.18-.36,1.07-1.21s-.07-1.56-1.2-1.44C352.06,237.79,351.39,237.82,350.73,237.87Zm153.49,3.62c1.71-.51,2.18.27,2.2,1.87,0,2.49.27,5,.39,7.47,0,.88.05,1.58,1.33,1.53s1.4-.8,1.33-1.8c-.16-2.16-.16-4.33-.46-6.47s.1-3.69,2.77-3.51c1.27.09,1.42-.65,1.29-1.75-.17-1.47-1.16-.88-1.85-.81-2.4.24-4.79.54-7.18.86-.8.11-1.92-.24-1.8,1.35S503.12,241.79,504.22,241.49ZM399.89,260.7c-2.62.3-5.1.54-7.57.87-.9.12-2.05,0-1.87,1.6s1.32,1.23,2.18,1c1.46-.36,1.88.1,1.91,1.55,0,2.49.29,5,.44,7.47.05.89-.15,1.83,1.34,1.78s1.4-.73,1.32-1.76c-.16-2.16-.09-4.34-.4-6.47s-.16-3.77,2.7-3.44c.87.1,1.65-.13,1.46-1.4C401.24,260.88,400.83,260.41,399.89,260.7ZM371.06,249c-.17-2-.22-3.37-.43-4.77-.31-2.11-.18-3.76,2.64-3.61.93.05,1.76-.14,1.5-1.58s-1.14-1.1-2-1q-3.46.41-6.93.84c-.93.12-2-.15-1.94,1.52s1.19,1.24,2.08,1.06c1.53-.3,2,.19,2,1.77,0,2.66.31,5.31.44,8,0,.81.27,1.24,1.17,1.16s1.53,0,1.46-1.16C371,250.27,371.06,249.35,371.06,249ZM475.77,260.7c-2.63.3-5.11.55-7.58.87-.92.12-2,0-1.81,1.63s1.34,1.16,2.16,1c1.46-.34,1.9.11,1.92,1.57,0,2.4.25,4.81.45,7.21.07.86-.44,2.07,1.31,2,1.94,0,1.28-1.35,1.26-2.27-.05-2-.15-4-.4-6-.27-2.19-.11-3.81,2.77-3.44.91.12,1.58-.21,1.39-1.45S476.65,260.42,475.77,260.7ZM389.93,242h-.07c.24,3.05.5,6.1.7,9.15.07,1.06.48,1.44,1.56,1.31.85-.11,1.34-.22,1.24-1.3-.36-4-.65-7.91-.9-11.87-.07-1.11-.68-1.1-1.5-1.08s-1.39.27-1.2,1.31A22.53,22.53,0,0,1,389.93,242ZM435,272.94c-.29-3.63-.62-7.18-.84-10.74-.07-1.1-.48-1.37-1.52-1.35s-1.22.55-1.16,1.41c.32,4,.67,7.93.92,11.9.1,1.54,1.08,1.24,1.91,1C435.67,274.81,434.75,273.64,435,272.94Zm32.48-32.39c.32,3.79.64,7.18.88,10.58.07,1,.25,1.49,1.44,1.41s1.32-.61,1.23-1.58c-.34-3.89-.66-7.78-.93-11.67-.06-.9-.44-1.11-1.26-1s-1.54,0-1.38,1.19A5.9,5.9,0,0,1,467.46,240.55Zm16.09,33.31c.12-1.12-.37-1.6-1.57-1.51-.77.06-1.2.12-1.12,1.1s.35,1.69,1.6,1.57C483.24,274.94,483.8,274.86,483.56,273.85Z" transform="translate(-320.35 -186.83)"/><path class="47713043-6518-4eee-a738-00296794c321" d="M459.35,417.86l0-1.42q0-3.65,0-7.3c-.4,2.42-1.16,4.78-.87,7.26q-.77,6.57-1.53,13.15c0,.41-.1.83-.17,1.24-.21,1.19-.79,2.13-2.11,2-1.48-.16-1.78-1.28-1.63-2.59.52-4.3,1.05-8.59,1.54-12.89,1-8.53,1.29-17.1,1.49-25.67,0-1.6-1-2-1.87-2.59-13.82-9.75-19.64-29.76-12.72-44.74,6-12.88,16.47-19.6,30.36-21.39A52.1,52.1,0,0,1,491.19,324c17.12,4.23,31.47,23,23.55,44.74a40.61,40.61,0,0,1-5.38,10.36,2.46,2.46,0,0,0-.35,2.69c3.56,9.42,5,19.31,5.95,29.25.66,6.71,1,13.45,1.5,20.17.1,1.4.13,2.82-1.79,2.91s-1.78-1.31-1.89-2.59c-.38-4.45-.28-8.93-1.1-13.36-.61,5.12-.95,10.25-1.48,15.37-.35,3.31-1.69,5.42-4.74,6.52-1.45.52-1.87,1.31-1.62,3a182,182,0,0,0,7.79,31.42c.37,1.11,1,2.23-.08,3.24S509,478,508.28,476A179,179,0,0,1,501,448.59c-.34-1.88-.07-4.3-1.16-5.51s-3.42.32-5.23.5a87.87,87.87,0,0,1-25.61-.86c-2.56-.5-2.71.47-2.89,2.35-.89,9-1.6,17.91-1.82,26.91,0,1-.14,2-.14,3,0,1.37-.16,2.63-1.94,2.5s-1.77-1.47-1.72-2.77c.19-4.83.29-9.66.62-14.47q.58-8.47,1.52-16.91c.17-1.49-.16-2.23-1.6-2.39-2.83-.3-3.38-1.94-3-4.51A103.06,103.06,0,0,0,459.06,422,8.59,8.59,0,0,0,459.35,417.86Zm-16.93-59.49c0,19.42,14.17,33.78,33.39,33.23,17-.48,30.35-8.34,35.86-25,6.47-19.54-6.39-35-20.6-38.88a51.51,51.51,0,0,0-21.77-.81C455.42,329.09,441.64,341.81,442.43,358.36Zm42.27,82c1.67,0,3.33.06,5,0,5.29-.21,10.41-1.08,15-4a3.36,3.36,0,0,0,1.76-2.51,116.15,116.15,0,0,0-2.29-46.53c-.45-1.82-.93-1.39-2-.65-11.78,8-24.54,10.69-38.44,7-1.29-.35-1.56-.21-1.41,1.19,1.41,13.56.73,27.1-.49,40.62-.14,1.58.33,2,1.66,2.34A81.91,81.91,0,0,0,484.7,440.38Z" transform="translate(-320.35 -186.83)"/><path class="47713043-6518-4eee-a738-00296794c321" d="M349.53,421.41c-.2,3.49-.42,7-.58,10.47-.06,1.39-.61,2.28-2.08,2.19s-1.72-1.12-1.67-2.32c.74-15.64,1.59-31.29,6.31-46.35,1.12-3.58,1-6.18-1-9.53-8.36-13.84-7.46-29,2-40.5,6-7.27,13.93-11.17,23.19-12.42a51.23,51.23,0,0,1,22.7,1.82c14.37,4.58,26.67,18.81,24.36,37.61-1.42,11.53-6.75,20.75-16.37,27.35-1,.71-.94,1.39-.75,2.31a88.24,88.24,0,0,1,1.95,12.56,27.62,27.62,0,0,1,.06,3c-.19,3.85-1.74,4.84-5,3.54,0,4.92-.14,9.94,0,15,.15,3.9.67,7.79,1.1,11.68.18,1.64-.44,2.6-2.06,2.79-2.62.29-2.95,1.76-2.66,4.11,1.21,9.92,1.78,19.9,2.06,29.89,0,.81.25,1.68-.37,2.4a1.88,1.88,0,0,1-2.05.54c-1.12-.29-1.19-1.18-1.24-2.15-.32-6.65-.63-13.31-1-20-.24-3.82-.71-7.63-1-11.45-.1-1.36-.63-1.62-1.93-1.36-9.31,1.88-18.68,1.82-28.09.86-1.27-.13-2.71-1.73-3.73-.28-.69,1-.48,2.57-.7,3.88A188.34,188.34,0,0,1,353.48,476c-.47,1.37-1.12,2.6-2.82,2s-1.14-1.9-.71-3.14a197.4,197.4,0,0,0,7.89-31.4c.3-1.73.07-2.84-1.73-3.44-3.12-1-4.46-3.28-4.63-6.58-.2-4-.75-7.95-1.15-11.92l0-3.45a7.62,7.62,0,0,0-.21-4.09l-.52,4.05Zm41.08-30c-.66-1.38-1.18-2.49-1.73-3.6a1.69,1.69,0,0,1,.74-2.53,1.73,1.73,0,0,1,2.54.79,20.6,20.6,0,0,1,1.54,3.13c.53,1.54,1.33,1.7,2.81,1.23a31,31,0,0,0,15.68-11c11.8-15.46,10.07-39.55-10.73-49.58a41.18,41.18,0,0,0-34.41-.81c-10.79,4.45-17.85,12.86-18.41,24.88C347.54,377.24,365.64,393.26,390.61,391.43Zm8,24.42c0-2.33,0-5.32,0-8.32a4.28,4.28,0,0,0-.44-2.39q-2.61-4.4-5.07-8.88a1.76,1.76,0,0,0-1.93-1.12c-11.66.69-22.5-1.66-32-8.79-1.2-.9-1.49-.48-1.71.74q-.58,3.32-1.31,6.6a105.18,105.18,0,0,0-1.08,39.44c.17,1.09,0,2.33,1.32,3,2.84,1.59,5.74,3.21,9,3.61A88.93,88.93,0,0,0,397.88,438c1.72-.42,2.31-1,2.09-2.81C399.21,429,398.88,422.75,398.65,415.84Zm.74-22.37c-3.25.55-3.26.55-1.86,3.14.38.71.82,1.4,1.42,2.41A20.25,20.25,0,0,0,399.38,393.48Zm3.24,6.66c-.42,4.85-.55,5.48,1.27,6.41C404.15,403,403.83,401.44,402.62,400.14Z" transform="translate(-320.35 -186.83)"/><path class="16a60544-449d-48d8-a4e6-e5d67c5fadda" d="M457.65,247.79a26.84,26.84,0,0,0,1.89-7c.14-.88.15-1.78,1.51-1.84s1.56.57,1.75,1.56a49.88,49.88,0,0,0,3.47,11.14c.41.91.4,1.43-.67,1.93s-1.46.09-1.81-.82c-.73-1.92-1.51-3.82-2.49-6.25-.68,1.65-1.13,2.91-1.72,4.1-.32.66-.25,1.77-1.47,1.65a2.31,2.31,0,0,1-2.15-1.73c-.54-1.6-1.22-3.16-2-5.14a26,26,0,0,0-1.6,6.31c-.14,1-.22,2-1.75,1.72s-1-1.16-.89-2a50.54,50.54,0,0,1,2.64-9.84c.35-.92.58-1.62,1.83-1.54s1.45.88,1.71,1.77Z" transform="translate(-320.35 -186.83)"/><path class="c1e1538d-f9c1-4015-baf3-b648eebc8fdf" d="M349,275.9c-3.35,0-3.3,0-3.5-3.33-.19-3.14-.43-6.29-.74-9.42-.12-1.15.19-1.64,1.37-1.81,2.29-.33,4.55-1,6.85-.11,2.55,1,3.3,2.64,2.06,5.06-.43.85-.42,1.07.38,1.67,3,2.32,2.49,5.7-1.05,7.09A13.19,13.19,0,0,1,349,275.9Zm1.39-2.75c1-.52,3.75.59,4.07-1.94.22-1.78-2-1.54-3.1-1.35s-3.26-1.18-3.29,1.51C348,272.49,348,273.67,350.35,273.15Zm-.21-9.74c-1.08.32-3-.42-2.59,1.89.12.73-.51,2.21,1.07,1.9s3.79-.78,4.14-2.66C353,263.33,351.18,263.57,350.14,263.41Z" transform="translate(-320.35 -186.83)"/><path class="9525d4de-66e9-4bad-bfca-7421b38391fd" d="M444.58,276.33c-4.75-.06-7.94-3.23-8-7.58a7.32,7.32,0,0,1,7.15-7.21c.94,0,2.48-.41,2.57,1.09.08,1.31-.88,1.79-2.36,1.72a4.37,4.37,0,0,0-4.66,3.92,5,5,0,0,0,4.19,5.34,13.31,13.31,0,0,0,4-.3c1.24-.13,1.54-.83,1.4-2.07-.17-1.46-.94-1.22-1.9-1s-1.83.14-2.72.35c-1.14.27-1.46-.27-1.62-1.25s.26-1.31,1.18-1.42q3.47-.4,6.92-.94c1.95-.3,2.11,1.52,1.58,2.08-1.33,1.38-.67,2.8-.65,4.17a1.76,1.76,0,0,1-1.53,2.08A30.52,30.52,0,0,1,444.58,276.33Z" transform="translate(-320.35 -186.83)"/><path class="16a60544-449d-48d8-a4e6-e5d67c5fadda" d="M481.17,253.51c-5.49.13-8.69-2.9-8.69-7.56a7.22,7.22,0,0,1,7.71-7.08c.79.05,2-.22,1.95,1.14-.06,1.07-.58,1.62-2,1.55a4.58,4.58,0,0,0-5.06,4.38,4.83,4.83,0,0,0,5.08,5,29.45,29.45,0,0,0,3.45-.44c1.49-.18.93-1.27.94-2.1,0-1.23-.82-1-1.55-.9q-1.61.19-3.21.44c-1,.16-1.28-.41-1.34-1.29s.08-1.23,1-1.33c2.4-.27,4.78-.63,7.17-1a1.39,1.39,0,0,1,1.46,2.17c-1.55,1.12-.64,2.47-.59,3.62.07,1.52-.32,2.27-1.86,2.58A25.29,25.29,0,0,1,481.17,253.51Z" transform="translate(-320.35 -186.83)"/><path class="c1e1538d-f9c1-4015-baf3-b648eebc8fdf" d="M411.35,270.4c1.63.43,2.73.75,3.85,1,.91.21,1.52.5,1.23,1.67s-.92,1.24-2,.92c-2.22-.66-4.49-1.16-6.88-1.76a8.62,8.62,0,0,0-.06,1.35c.13,1-.45,1.22-1.32,1.31-1,.11-1.25-.35-1.32-1.26-.3-3.9-.66-7.8-1-11.7-.08-.85-.06-1.5,1-1.52,2.24,0,4.49-.32,6.72.21s3.71,1.47,4.15,3.77-.9,3.74-2.66,4.9C412.67,269.59,412.25,269.84,411.35,270.4ZM407.11,269a14.93,14.93,0,0,0,5-2.18c1.17-.78,1.49-1.93.33-2.89a5.53,5.53,0,0,0-5.23-.84c-1.52.48-.36,2.13-.4,3.26A20.52,20.52,0,0,0,407.11,269Z" transform="translate(-320.35 -186.83)"/><path class="c1e1538d-f9c1-4015-baf3-b648eebc8fdf" d="M398,243.63c.33,2,.63,3.93,1,5.88.18,1,.29,1.73-1.1,2s-1.31-.48-1.5-1.36a44.11,44.11,0,0,1-.92-10.43c0-.64-.49-1.69.66-1.81,1-.11,2.12-.47,2.8.89a38.1,38.1,0,0,0,5.52,8.05c-.2-2.68-.32-4.77-.51-6.86-.08-.93-.05-1.56,1.18-1.65s1.35.46,1.45,1.43c.38,3.48.52,7,.58,10.48,0,.89,0,1.54-1.15,1.81a1.61,1.61,0,0,1-2-.84c-1.77-2.6-3.61-5.14-5.42-7.71Z" transform="translate(-320.35 -186.83)"/><path class="c1e1538d-f9c1-4015-baf3-b648eebc8fdf" d="M425.59,261.2c.77-.29,1,.51,1.21,1.23,1.17,3.72,2.61,7.36,3.42,11.19.15.73.79,1.61-.7,1.84-1.1.17-1.7,0-1.94-1.19s-.08-2.82-1.19-3a11.43,11.43,0,0,0-4.63.7c-1.14.32-.72,1.56-.89,2.39-.25,1.2-.74,1.71-2,1.44s-.79-1.21-.67-1.94c.49-2.87,1.22-5.71,1.46-8.59.21-2.47,1.27-3.57,3.67-3.62A15.07,15.07,0,0,0,425.59,261.2ZM422,267.62c-.25,1.08-.07,1.66.9,1.34s2.85.41,2.74-1.11c-.08-1.15.06-3.45-1.94-3.45C421.42,264.4,422.56,266.71,422,267.62Z" transform="translate(-320.35 -186.83)"/><path class="16a60544-449d-48d8-a4e6-e5d67c5fadda" d="M386.34,260.36c.67.35,2.08-.72,2.1,1.13,0,1.67-1.07,1.49-2.19,1.54a10.28,10.28,0,0,0-6.08,1.9c-.38.3-.88.63-.71,1.2s.72.64,1.22.66c1.58.06,3.17,0,4.73.16,1.73.21,3.62.48,4.1,2.6s-.88,3.25-2.4,4.24a11.47,11.47,0,0,1-4.61,1.78c-.69.1-1.51.62-1.63-.7-.09-1-.25-1.83,1.14-2a7.79,7.79,0,0,0,3.7-1.37c.46-.32,1.1-.62.86-1.33-.18-.55-.81-.57-1.26-.6-1.57-.12-3.16-.05-4.73-.23-1.75-.19-3.63-.48-4.08-2.6s.91-3.28,2.44-4.23A14.16,14.16,0,0,1,386.34,260.36Z" transform="translate(-320.35 -186.83)"/><path class="16a60544-449d-48d8-a4e6-e5d67c5fadda" d="M411.63,246.65c2-2.67,3.6-4.84,5.16-7.07.63-.9,1.09-1.21,2.13-.44s.58,1.33.07,2q-1.92,2.6-3.84,5.21c-1.67,2.28-1.66,2.29,1,3,1.28.34,2.55.73,3.85,1,.92.19,1.24.58,1,1.55s-.74,1.33-1.76,1c-1.91-.56-3.84-1-5.76-1.55-.82-.22-1.71-.52-1.46.94.19,1.09-.32,1.42-1.36,1.52-1.34.13-1.21-.7-1.28-1.54-.29-3.39-.63-6.78-.92-10.17-.07-.84-.43-1.79,1.12-1.89,1.38-.09,1.45.57,1.51,1.59C411.2,243.25,411.41,244.63,411.63,246.65Z" transform="translate(-320.35 -186.83)"/><path class="9525d4de-66e9-4bad-bfca-7421b38391fd" d="M461.6,263.18c.57-.89-1.32-2.86,1-3.19,2.62-.37,1.45,2,1.6,3,.46,3.12.58,6.29.82,9.44.07.92.28,1.8-1.17,1.93s-1.45-.67-1.45-1.65a3.47,3.47,0,0,0,0-.75c-.2-.91.26-2.42-.84-2.57a7.31,7.31,0,0,0-4.61.7c-.77.45,0,1.52,0,2.31s.27,1.79-1.16,2-1.48-.66-1.55-1.61q-.39-5.1-.77-10.2c-.06-.86-.14-1.6,1.16-1.68s1.47.64,1.46,1.67c0,.75.14,1.49.13,2.24,0,1.82.52,2.56,2.6,2.19C461.86,266.42,461.89,266.6,461.6,263.18Z" transform="translate(-320.35 -186.83)"/><path class="c1e1538d-f9c1-4015-baf3-b648eebc8fdf" d="M497.5,240.51c.65-.84-1.35-2.88,1.09-3.13,2.66-.28,1.32,2,1.48,3,.48,3.11.63,6.28.9,9.42.07.81.27,1.59-1.07,1.72s-1.59-.45-1.56-1.52a1.55,1.55,0,0,0,0-.25c-.45-3.29-1.73-4-5-2.76-1.47.56-.55,1.68-.63,2.55s.66,1.79-1,2c-1.47.16-1.66-.54-1.73-1.69-.21-3.32-.46-6.63-.73-9.94-.07-.9-.14-1.57,1.14-1.65s1.61.47,1.53,1.58a9.18,9.18,0,0,0,0,1c.15,3.84.15,3.84,3.88,3.18C497.67,243.71,497.67,243.71,497.5,240.51Z" transform="translate(-320.35 -186.83)"/><path class="c1e1538d-f9c1-4015-baf3-b648eebc8fdf" d="M376.39,240.89c0-.21,0-1,0-1.7s.55-.88,1.14-.88,1.41-.27,1.46.8c0,.5,0,1,.07,1.49.41,4.33-.51,4.05,4.18,3.43,1.47-.2,1.75-.74,1.5-2.06a29.47,29.47,0,0,1-.25-3.23c-.07-.84,0-1.41,1.13-1.44s1.45.18,1.52,1.33c.23,3.73.57,7.45.92,11.17.1,1.06,0,1.69-1.32,1.77s-1.29-.66-1.31-1.53a1.35,1.35,0,0,0,0-.25c-.22-1.1.26-2.85-.8-3.14a8.37,8.37,0,0,0-4.39.48c-1.23.39-.33,1.57-.38,2.4s.68,1.79-.94,2-1.68-.58-1.76-1.66C376.9,247.06,376.66,244.25,376.39,240.89Z" transform="translate(-320.35 -186.83)"/><path class="c1e1538d-f9c1-4015-baf3-b648eebc8fdf" d="M362.79,260.37c1.65-.11,2.57-.14,3.48-.24s1.21.27,1.21,1.12.12,1.55-1,1.57c-.92,0-1.83.07-2.75.09-1.09,0-2.18-.16-2,1.64.15,1.4.39,2.21,2,1.84.8-.18,1.68,0,2.48-.22,1.24-.27,1.34.43,1.46,1.36s-.33,1.33-1.24,1.34-1.83.12-2.74.13c-1.18,0-1.84.35-1.67,1.76s1.24,1,2,1a18.81,18.81,0,0,0,3-.45c1.13-.24,1.21.56,1.38,1.28s-.08,1.26-1,1.35c-.57.06-1.13.29-1.7.39-5.87,1-6,.89-6.33-5-.11-2.25-.2-4.5-.46-6.73-.2-1.69.24-2.51,2.08-2.28A9.92,9.92,0,0,0,362.79,260.37Z" transform="translate(-320.35 -186.83)"/><path class="16a60544-449d-48d8-a4e6-e5d67c5fadda" d="M423.5,287.51c-.06.22-.16.62-.28,1a46.65,46.65,0,0,1-15.5,23.84c-.19.16-.38.33-.58.47-.64.45-1.36.86-2,.12s-.26-1.53.45-2.11a48.35,48.35,0,0,0,7.05-7,44.53,44.53,0,0,0,8.22-16.35c.24-.89.53-1.62,1.58-1.55C423.29,286,423.55,286.56,423.5,287.51Z" transform="translate(-320.35 -186.83)"/><path class="9525d4de-66e9-4bad-bfca-7421b38391fd" d="M434.52,252.41c-.58.06-1.16.1-1.74.17s-1.26.31-1.29-.6c0-.68-.55-1.8.43-1.94,1.83-.26,1.19-1.44,1.15-2.4a36.9,36.9,0,0,0-.3-3.73c-.21-1.45.38-3.54-2.46-3-.87.15-.68-.94-.77-1.55-.12-.79.34-1,1-1,2.07-.16,4.15-.29,6.21-.56,1.18-.15,1.37.39,1.51,1.36s-.3,1.38-1.21,1.3c-1.6-.15-2,.54-1.76,2.06s.2,3,.36,4.47-.08,3.19,2.38,2.5c1-.28,1,.55,1,1.23s.17,1.34-.84,1.42c-1.24.1-2.48.28-3.71.42Z" transform="translate(-320.35 -186.83)"/><path class="9525d4de-66e9-4bad-bfca-7421b38391fd" d="M350.73,237.87c.66,0,1.33-.07,2-.14,1.14-.12,1.11.68,1.2,1.44s-.21,1.31-1.07,1.21c-2-.24-2.09.93-1.89,2.43.18,1.32.27,2.65.35,4,.1,1.58,0,3.26,2.48,2.65,1-.24.83.79,1,1.38s0,1.16-.78,1.23l-6,.58c-.58.06-1-.17-1-.8s-.37-1.36.39-1.8c.2-.12.62,0,.71-.14,1.65-2.54-.2-5.15.1-7.74.13-1.15-.61-1.41-1.59-1.22-1.19.23-1.34-.52-1.47-1.43-.17-1.16.55-1.16,1.34-1.23,1.41-.13,2.81-.3,4.21-.46Z" transform="translate(-320.35 -186.83)"/><path class="16a60544-449d-48d8-a4e6-e5d67c5fadda" d="M504.22,241.49c-1.1.3-1.86.26-2-1.25s1-1.24,1.8-1.35c2.39-.32,4.78-.62,7.18-.86.7-.07,1.68-.66,1.85.81.13,1.1,0,1.84-1.29,1.75-2.67-.18-3.09,1.24-2.77,3.51s.3,4.31.46,6.47c.07,1,.05,1.75-1.33,1.8s-1.29-.65-1.33-1.53c-.12-2.49-.36-5-.39-7.47C506.4,241.76,505.93,241,504.22,241.49Z" transform="translate(-320.35 -186.83)"/><path class="16a60544-449d-48d8-a4e6-e5d67c5fadda" d="M399.89,260.7c.94-.29,1.35.18,1.51,1.23.19,1.27-.59,1.5-1.46,1.4-2.86-.33-3,1.17-2.7,3.44s.24,4.32.4,6.47c.08,1,.07,1.72-1.32,1.76s-1.29-.89-1.34-1.78c-.15-2.49-.39-5-.44-7.47,0-1.45-.45-1.91-1.91-1.55-.86.21-2,.71-2.18-1s1-1.48,1.87-1.6C394.79,261.24,397.28,261,399.89,260.7Z" transform="translate(-320.35 -186.83)"/><path class="9525d4de-66e9-4bad-bfca-7421b38391fd" d="M371.06,249c0,.37,0,1.29,0,2.2.07,1.14-.68,1.09-1.46,1.16s-1.13-.35-1.17-1.16c-.13-2.66-.43-5.31-.44-8,0-1.59-.5-2.08-2-1.77-.89.18-2,.7-2.08-1.06s1-1.4,1.94-1.52q3.46-.44,6.93-.84c.87-.1,1.75-.47,2,1s-.56,1.63-1.5,1.58c-2.82-.15-2.95,1.5-2.64,3.61C370.83,245.61,370.89,247,371.06,249Z" transform="translate(-320.35 -186.83)"/><path class="16a60544-449d-48d8-a4e6-e5d67c5fadda" d="M475.77,260.7c.88-.28,1.32.08,1.49,1.18s-.48,1.56-1.39,1.45c-2.88-.37-3,1.25-2.77,3.44.24,2,.34,4,.4,6,0,.92.68,2.24-1.26,2.27-1.75,0-1.24-1.18-1.31-2-.2-2.4-.41-4.8-.45-7.21,0-1.46-.47-1.91-1.92-1.57-.82.19-2,.8-2.16-1s.9-1.51,1.81-1.63C470.66,261.25,473.14,261,475.77,260.7Z" transform="translate(-320.35 -186.83)"/><path class="9525d4de-66e9-4bad-bfca-7421b38391fd" d="M389.93,242a22.53,22.53,0,0,0-.18-2.47c-.19-1,.29-1.29,1.2-1.31s1.43,0,1.5,1.08c.25,4,.54,7.92.9,11.87.1,1.08-.39,1.19-1.24,1.3-1.08.13-1.49-.24-1.56-1.31-.2-3.05-.46-6.1-.7-9.15Z" transform="translate(-320.35 -186.83)"/><path class="9525d4de-66e9-4bad-bfca-7421b38391fd" d="M435,272.94c-.23.7.69,1.87-.69,2.24-.84.22-1.82.53-1.91-1-.25-4-.6-7.94-.92-11.9-.07-.86.09-1.39,1.16-1.41s1.45.25,1.52,1.35C434.36,265.76,434.69,269.31,435,272.94Z" transform="translate(-320.35 -186.83)"/><path class="c1e1538d-f9c1-4015-baf3-b648eebc8fdf" d="M467.46,240.55a5.9,5.9,0,0,0,0-1.1c-.16-1.15.6-1.12,1.38-1.19s1.19.12,1.26,1c.27,3.89.59,7.78.93,11.67.09,1-.05,1.5-1.23,1.58s-1.37-.43-1.44-1.41C468.1,247.73,467.79,244.34,467.46,240.55Z" transform="translate(-320.35 -186.83)"/><path class="47713043-6518-4eee-a738-00296794c321" d="M483.56,273.85c.24,1-.31,1.08-1.09,1.16-1.24.12-1.51-.48-1.6-1.57s.35-1,1.12-1.1C483.19,272.25,483.68,272.74,483.56,273.85Z" transform="translate(-320.35 -186.83)"/><path class="f8a2ac04-dc75-4e93-a0a8-d2c7beea85e6" d="M458.5,416.4c-.29-2.48.48-4.85.87-7.26v7.3Z" transform="translate(-320.35 -186.83)"/><path class="f8a2ac04-dc75-4e93-a0a8-d2c7beea85e6" d="M350.31,418l0,3.45-.8,0,.05-3.45Z" transform="translate(-320.35 -186.83)"/><path class="f8a2ac04-dc75-4e93-a0a8-d2c7beea85e6" d="M459.35,417.86a8.59,8.59,0,0,1-.3,4.12A7.1,7.1,0,0,1,459.35,417.86Z" transform="translate(-320.35 -186.83)"/><path class="b49614db-f813-4d6b-8296-732cbe6dd88f" d="M442.43,358.36c-.79-16.55,13-29.27,26.88-31.45a51.51,51.51,0,0,1,21.77.81c14.22,3.86,27.07,19.34,20.6,38.88-5.51,16.66-18.91,24.51-35.86,25C456.59,392.14,442.41,377.79,442.43,358.36Zm31.73,4.92a5.21,5.21,0,0,0,5.21-5,5,5,0,0,0-4.72-4.85,4.74,4.74,0,0,0-5,4.76A5,5,0,0,0,474.15,363.28Zm-19.07-4.13a4.54,4.54,0,0,0-4.87-4.77,4.77,4.77,0,0,0-4.74,4.73,5.07,5.07,0,0,0,5.12,5A4.8,4.8,0,0,0,455.08,359.15Zm5.11,8.48c4.47,1.88,9.13.17,13.67.79C469.42,366.47,464.75,368,460.19,367.63Z" transform="translate(-320.35 -186.83)"/><path class="7cc15c40-c6d2-4cf4-86ca-08c658ffd4bc" d="M484.7,440.38a81.91,81.91,0,0,1-21.24-2.52c-1.33-.32-1.8-.76-1.66-2.34,1.22-13.52,1.9-27.07.49-40.62-.15-1.4.12-1.54,1.41-1.19,13.9,3.71,26.66,1,38.44-7,1.1-.75,1.59-1.17,2,.65a116.15,116.15,0,0,1,2.29,46.53,3.36,3.36,0,0,1-1.76,2.51c-4.6,2.88-9.72,3.75-15,4C488,440.43,486.37,440.38,484.7,440.38Z" transform="translate(-320.35 -186.83)"/><path class="b49614db-f813-4d6b-8296-732cbe6dd88f" d="M390.61,391.43c-25,1.84-43.07-14.18-42-37.46.56-12,7.63-20.43,18.41-24.88a41.18,41.18,0,0,1,34.41.81c20.81,10,22.53,34.12,10.73,49.58a31,31,0,0,1-15.68,11c-1.48.47-2.29.31-2.81-1.23a20.6,20.6,0,0,0-1.54-3.13,1.73,1.73,0,0,0-2.54-.79,1.69,1.69,0,0,0-.74,2.53C389.43,388.93,390,390,390.61,391.43Zm9-21a57.4,57.4,0,0,0-15.73-.6,4.66,4.66,0,0,0-2.08.76,3.33,3.33,0,0,0-1.46,3.92c.52,1.43,2,.88,3.09.73a64.07,64.07,0,0,1,11.45-.06c1.29.06,2.65.55,2.3-1.75C397,372.25,397.91,371.29,399.6,370.43Zm-24.17-14.54c2.37.79,2.51,1.82,1.42,3.89s-.08,4.11,1.81,5.41,3.68,1.54,5.54.06,2.71-4.25,1.51-6c-1.05-1.55-.79-2.33.69-3.33C382.68,356.62,379.16,356.17,375.43,355.89Zm30.28.94c-3,0-5,1.75-5.1,4.57a4.93,4.93,0,0,0,4.4,5.09,5,5,0,0,0,5.28-4.81A4.73,4.73,0,0,0,405.71,356.83Zm6-3.84c-3.14-2.56-9.16-2.31-11.36.3C404.09,352.44,407.68,352.81,411.73,353Zm-20.06,23.29c-1.12-.24-2.27-.78-3.74.15A3.8,3.8,0,0,0,391.67,376.28Z" transform="translate(-320.35 -186.83)"/><path class="e5d254c0-c33f-4687-ab70-44a6fe1d0070" d="M398.65,415.84c.23,6.91.57,13.14,1.32,19.34.22,1.82-.36,2.39-2.09,2.81a88.93,88.93,0,0,1-32.46,1.77c-3.24-.4-6.13-2-9-3.61-1.27-.71-1.15-2-1.32-3a105.18,105.18,0,0,1,1.08-39.44q.74-3.28,1.31-6.6c.21-1.22.51-1.64,1.71-.74,9.51,7.13,20.35,9.48,32,8.79a1.76,1.76,0,0,1,1.93,1.12q2.46,4.48,5.07,8.88a4.28,4.28,0,0,1,.44,2.39C398.64,410.52,398.65,413.52,398.65,415.84Z" transform="translate(-320.35 -186.83)"/><path class="e5d254c0-c33f-4687-ab70-44a6fe1d0070" d="M399.38,393.48a20.25,20.25,0,0,1-.44,5.54c-.6-1-1-1.69-1.42-2.41C396.13,394,396.13,394,399.38,393.48Z" transform="translate(-320.35 -186.83)"/><path class="1099f958-993b-4860-a5f7-f0662e2d8900" d="M402.62,400.14c1.21,1.3,1.52,2.91,1.27,6.41C402.08,405.61,402.2,405,402.62,400.14Z" transform="translate(-320.35 -186.83)"/><path class="ea6a1a81-da15-42da-aa26-7ba4b418deb6" d="M350.31,418l-.73,0,.52-4.05A7.62,7.62,0,0,1,350.31,418Z" transform="translate(-320.35 -186.83)"/><path class="1099f958-993b-4860-a5f7-f0662e2d8900" d="M350.35,273.15c-2.35.52-2.33-.66-2.32-1.78,0-2.7,2.15-1.33,3.29-1.51s3.33-.43,3.1,1.35C354.1,273.74,351.34,272.63,350.35,273.15Z" transform="translate(-320.35 -186.83)"/><path class="1099f958-993b-4860-a5f7-f0662e2d8900" d="M350.14,263.41c1,.16,2.83-.08,2.61,1.12-.35,1.88-2.46,2.33-4.14,2.66s-1-1.17-1.07-1.9C347.18,263,349.06,263.73,350.14,263.41Z" transform="translate(-320.35 -186.83)"/><path class="1099f958-993b-4860-a5f7-f0662e2d8900" d="M407.11,269a20.52,20.52,0,0,1-.26-2.65c0-1.12-1.12-2.78.4-3.26a5.53,5.53,0,0,1,5.23.84c1.16,1,.84,2.11-.33,2.89A14.93,14.93,0,0,1,407.11,269Z" transform="translate(-320.35 -186.83)"/><path class="1099f958-993b-4860-a5f7-f0662e2d8900" d="M422,267.62c.56-.91-.57-3.22,1.69-3.23,2,0,1.86,2.3,1.94,3.45.11,1.52-1.76.79-2.74,1.11S421.74,268.7,422,267.62Z" transform="translate(-320.35 -186.83)"/><path class="2025ebab-1468-4529-bd08-72b3430576d4" d="M474.15,363.28a5,5,0,0,1-4.49-5.06,4.74,4.74,0,0,1,5-4.76,5,5,0,0,1,4.72,4.85A5.21,5.21,0,0,1,474.15,363.28Z" transform="translate(-320.35 -186.83)"/><path class="2025ebab-1468-4529-bd08-72b3430576d4" d="M455.08,359.15a4.8,4.8,0,0,1-4.49,5,5.07,5.07,0,0,1-5.12-5,4.77,4.77,0,0,1,4.74-4.73A4.54,4.54,0,0,1,455.08,359.15Z" transform="translate(-320.35 -186.83)"/><path class="b5dcfb21-7f40-458e-b12e-877a89d7db4e" d="M460.19,367.63c4.55.34,9.22-1.16,13.67.79C469.32,367.8,464.67,369.51,460.19,367.63Z" transform="translate(-320.35 -186.83)"/><path class="47713043-6518-4eee-a738-00296794c321" d="M399.6,370.43c-1.69.86-2.62,1.82-2.44,3,.35,2.3-1,1.81-2.3,1.75a64.07,64.07,0,0,0-11.45.06c-1.1.15-2.56.7-3.09-.73a3.33,3.33,0,0,1,1.46-3.92,4.66,4.66,0,0,1,2.08-.76A57.4,57.4,0,0,1,399.6,370.43Z" transform="translate(-320.35 -186.83)"/><path class="2025ebab-1468-4529-bd08-72b3430576d4" d="M375.43,355.89c3.73.28,7.25.73,11,0-1.47,1-1.74,1.78-.69,3.33,1.2,1.78.25,4.62-1.51,6s-3.78,1.14-5.54-.06-2.89-3.36-1.81-5.41S377.8,356.68,375.43,355.89Z" transform="translate(-320.35 -186.83)"/><path class="2025ebab-1468-4529-bd08-72b3430576d4" d="M405.71,356.83a4.73,4.73,0,0,1,4.58,4.85,5,5,0,0,1-5.28,4.81,4.93,4.93,0,0,1-4.4-5.09C400.72,358.58,402.72,356.78,405.71,356.83Z" transform="translate(-320.35 -186.83)"/><path class="b5dcfb21-7f40-458e-b12e-877a89d7db4e" d="M411.73,353c-4-.18-7.64-.54-11.36.3C402.57,350.68,408.59,350.42,411.73,353Z" transform="translate(-320.35 -186.83)"/><path class="8380d97e-04e9-4894-8acc-ab1e8b4e6904" d="M391.67,376.28a3.8,3.8,0,0,1-3.74.15C389.4,375.5,390.55,376,391.67,376.28Z" transform="translate(-320.35 -186.83)"/></svg>