<svg id="1482c8a3-2e2d-4d5b-a2b2-b0b1f841d31c" data-name="Capa 1" xmlns="http://www.w3.org/2000/svg" viewBox="0 0 213.72 309.76"><defs><style>.b49c51df-a21c-443e-9dfa-77e5d28d272f{fill:#1f1e1d;}.b47f9ece-b911-4b38-a478-5bf264ec4d8e{fill:#fefefe;}.\38 331d3c2-8d01-4169-a168-34c364fefca2{fill:#f9f3b4;}.b329ae89-fc19-4118-96d6-f4d27ea8069e{fill:#f6cba0;}.\30 23f31e5-7d23-4e78-9e89-c7ea3a1f771f{fill:#ba69a6;}.\34 2481c77-38b0-4e6b-81a9-9b3eb95231f5{fill:#be692c;}.\36 8db994d-8b0f-4add-9567-d886bae568a7{fill:#cac84a;}.\38 cae827f-04b9-4606-b38c-41da00984da3{fill:#3d3e3e;}.a9d9db74-e566-43d5-a714-87153ac79f38{fill:#e0dfa0;}.\34 73f722f-811b-4a1b-843f-94ddce938d7c{fill:#1a1a18;}.\31 acb8d96-bcf3-4278-8cc4-92902410c3ca{fill:#c7793e;}.e0786534-7784-4541-b918-d9691da8568a{fill:#8f4b7c;}.\35 9690363-6016-473e-b98f-bb04db5fd61d{fill:#95b4c6;}.fe7363b8-403b-4c86-97f7-633386396039{fill:#da8094;}.fcfb2ad6-8116-4805-b406-b2acc4aba306{fill:#509541;}.\39 347218b-75d2-4c85-8102-ecfce627da23{fill:#f3f2f3;}</style></defs><title>card-4</title><path class="b49c51df-a21c-443e-9dfa-77e5d28d272f" d="M314.14,297q0-71.37,0-142.75a28.31,28.31,0,0,1,.24-4.23,8.32,8.32,0,0,1,7.55-7.45,39.91,39.91,0,0,1,5.23-.32q93.87,0,187.75,0c10.25,0,12.94,2.66,12.94,12.8q0,142.5,0,285a24.77,24.77,0,0,1-.29,4c-.84,5.16-3.74,7.72-8.93,8-.58,0-1.17,0-1.75,0H325.37c-7.91,0-11.23-3.29-11.23-11.24Q314.13,368.86,314.14,297Zm9.54,19.28a1.51,1.51,0,0,0,.27.37q0,.2,0,.41a4.42,4.42,0,0,1-2.59,3.09c-2.05.35-2.52,1.67-2.38,3.56.24,3.4.34,6.81.52,10.22a4.69,4.69,0,0,0,.66,2.38c3.8,5.84,8.52,10.63,15.05,13.39,7.89,3.33,15.79,2.3,23.7,0a4.91,4.91,0,0,0,3.6-3.29c3.06-7.87,4.14-16.08,4.52-24.42.23-5.07.18-5.35-4.82-4.78-2,.23-4.2-1.54-5.94.6l-1.07.61a.85.85,0,0,0,1.05,0l1.16-.29c0,.75-.53.94-1.17.93-.9,0-1.38.39-1.36,1.32-.68-.51-1.31-1.27-1.43.46-.2,2.82-1.57,4.17-4.05,4.3-2.23.12-4.09-1.47-4.69-4-.13-.53.16-1.25-.5-1.57-1.49-.71-.77-1.29.05-1.91a22.6,22.6,0,0,0,4.69-4.41,33.41,33.41,0,0,1-15.68-19.66c-6.71,3.31-13.23,14-13.47,21.85-.07.12-.23.29-.2.36.17.33.36.13.52,0,4.68-3.29,4.72-3.29,8.49.7l-1.35.14c-2.7-2.52-5-2.26-6.55.91C321.9,317.41,322.56,316.27,323.67,316.27ZM357.26,357a6.64,6.64,0,0,0,1.77-3.62l-2.59.57c-6.49,1.49-13,2-19.5.1-1.49-.43-3.16-2-4.26-1.32s-1.12,2.8-1.62,4.29a1.71,1.71,0,0,0,0,.49l-.41,2.21a14.82,14.82,0,0,1-2.81,3.79c-1.45,1.48-1.27,2.9.06,4.38a6.85,6.85,0,0,0,4.86,2.18,20.64,20.64,0,0,0,8.5-1.06c-.84,1.94-2.51,2.45-4.06,3.18s-3.78-.44-4.51,1.13-.2,3.43-.24,5.18a5.32,5.32,0,0,1,0,1c-.51,2.39.55,3.24,2.88,3.64,12.67,2.16,25.18,1.26,37.64-1.51,1.23-.27,1.37-1,1.4-1.93.32-8.43-.67-16.77-1.69-25.11-.18-1.44-.67-1.54-1.91-1a90.56,90.56,0,0,1-11.23,4.79C358.71,358,357.39,358.45,357.26,357Zm165.09-26.92,1.09.38,0-1.35c0-2.16,0-4.33.13-6.49.08-1.51-.52-1.62-1.78-1.26-6.17,1.76-12.61,2.74-17.91,6.85a13.9,13.9,0,0,1-5.67,2.51c-1.74.36-2.14,1.35-2.11,3,.32,13.46,10.81,23.7,26,24.37,1,0,1.5-.24,1.5-1.37,0-6.6,0-13.2,0-19.83-3.23.39-5.17-.76-5.38-3.06S519.46,330.27,522.35,330.07Zm1-25v-1c.31-1.69-1-1.39-1.9-1.5a59.52,59.52,0,0,0-12,0c-14.78,1.21-22.51,9.84-21.46,24.38a91.85,91.85,0,0,0,1.73,10.32c.77,4.08,1.22,8.09-1.32,11.79-1.78,2.59-1.76,2.65,1.08,4.23.51.28,1,.55,1.55.8,4.46,2.12,4.49,2,7.83-1.32,1.36-1.35,1.11-2.09.06-3.44a26.29,26.29,0,0,1-5.57-16.48c0-1.12.17-1.87,1.34-2.29a47.7,47.7,0,0,0,14.16-8.27c.49-.41,1.25-1.15,1.72-.58,1.18,1.46,2.3.37,3.34.07,3-.88,5.55-2.81,8.05-4.44.91.7-.47,1.67.4,1.83s1-.86,1-1.62Q523.39,311.34,523.37,305.1ZM361.21,293.7c6.23,7.6,8.65,16.57,9.16,26.14.52,9.75-2.15,18.93-5.6,27.92-.6,1.57-1.25,3.11-2.13,5.3a55.88,55.88,0,0,0,16.89-10.55c4.77-4.33,9.19-9,11.89-15.19v6.39a8.53,8.53,0,0,0,2-6.09,8.26,8.26,0,0,0,.37-3.21c-.11-4.83-.37-9.64-.89-14.45-1.53-14-8.85-23.78-21.94-28.62a40.08,40.08,0,0,0-26-1c-.81.25-1.69.62-2.39.15-1.64-1.12-1.6-1.19-2.69-1.08-.91.09-1.82.17-2.73.27-6,.69-11.81,1.9-17,5.31a3.55,3.55,0,0,0-1.86,3.43c.12,5.58,0,11.16.07,16.75,0,.56-.27,1.25.42,1.78,2.25-6.21,6.43-10.77,11.56-14.51,1.71-1.25,3.63-2.42,6-1.41-1.42.94-1.7,2-.59,3.45a34.08,34.08,0,0,1,2.17,3.91c6.3,11.3,16.55,15.28,28.94,15.69-.48-1.43-.2-2.82-.92-4-1.06-6.82-5.12-12.32-8.38-18.43C359.28,291.9,360,293.13,361.21,293.7Zm36.31,28.44-.17,7.39c-.81,3.71-2,7.21-4.92,9.88-.84.77-1.63,2-2.9,1.64s-.12-1.91-1-2.94c-1.69,5.44-6.11,8.23-10.3,11.16-1.3.91-1.23,1.65-.76,2.86,3.57,9.33,5.13,19.08,5.82,29,.09,1.28-.06,2.42-1.62,2.57s-1.78-1-1.9-2.27c-.46-4.8-.72-9.64-1.86-14.35a5,5,0,0,0-1.38-3.88l.87,8.87a188,188,0,0,1-.92,20.2c-.14,1.42-.56,2.46-1.91,2.87-2.89.86-3.63,2.67-2.79,5.46a21.6,21.6,0,0,1,.68,3.93c.41,3.72,2.48,6,6,7.22,2,.67,3.89,1.44,5.86,2.09,1.18.39,2,1,1.57,2.35-.37,1.17-1.33,1.28-2.44,1.08-9.11-1.61-13.19-5.55-14.92-14.49-.28-1.46-.45-2.95-.68-4.42-1.44.23-2.88.54-4.33.67a92.53,92.53,0,0,1-27.08-1.24c-1.27-.26-1.81.06-2,1.37a64.37,64.37,0,0,0-1,6.92c-.46,9.62.69,19.12,2.08,28.6.2,1.33.64,2.86-1.35,3.09s-2-1.41-2.18-2.7c-.49-3.38-1-6.75-1.35-10.14-.88-8.71-1.63-17.43.21-26.11.28-1.31.48-2.28-1.31-2.63-1.3-.25-1-1.49-1-2.49.24-2.9.6-5.8.69-8.71.12-3.91,0-7.82,0-11.76-.94.14-.8.76-.93,1.19q-1.45,4.64-2.88,9.28c-.41,1.32-1.1,2.42-2.66,1.85s-1.1-1.83-.75-3c1-3.18,1.87-6.38,2.91-9.53a3.52,3.52,0,0,0-.6-3.65,5.44,5.44,0,0,1,0-7.3c.51-.65,1-1.32,1.5-2,2.09-2.87,2-3-1.35-4.21l-.18,1.85-5.83-4.1a8.2,8.2,0,0,0-.13.93q0,43.62,0,87.24c0,4.1,2,5.91,6.3,5.91H517.43c4.26,0,6.09-1.74,6.1-6.07,0-15.83,0-31.66.05-47.49,0-1.54-.35-1.9-2-1.78-5.41.4-10.84.39-16.11-1.06-1.57-.43-2.09-.17-2.57,1.31a19.66,19.66,0,0,1-9.55,11.67c-.75.41-1.58.78-2.11-.3s.23-1.38.92-1.72c4.49-2.19,6.9-6.07,8.64-10.53.52-1.33.58-2.36-1.06-2.89-1.25-.4-1.39-1.45-1.5-2.6a100.89,100.89,0,0,1,.19-21.2c.22-1.82.53-3.62.77-5.44.07-.48.19-1-.47-1.24s-.88.35-1.06.77c-.49,1.14-1,2.3-1.35,3.48a71.61,71.61,0,0,0-3,18.66c0,.91-.08,2-1.4,1.91s-1.06-1.09-1-1.91c.52-7.4,1.24-14.78,4-21.75.6-1.51.55-2.07-1.15-2.54a17.73,17.73,0,0,1-8.59-4.83c-.49-.53-1.56-1.17-.4-2,4.57-3.21,4.25-7.67,3.3-12.35-1-5.06-2.09-10.11-1.71-15.33.6-8.2,3.86-14.73,11.51-18.53,7.22-3.59,14.94-3.67,22.7-2.93,2.41.23,3-.24,3-2.74q-.12-72.24-.06-144.48c0-.75,0-1.5,0-2.25-.25-3-1.9-4.69-4.92-4.94-1.16-.1-2.33-.09-3.5-.09H449.6q-61.74,0-123.48,0c-6.52,0-7.72,1.2-7.72,7.44q0,62.62,0,125.23v2.67a2.6,2.6,0,0,0,.69-.12,32.22,32.22,0,0,1,27-4.19,4.11,4.11,0,0,0,2.43,0c8.68-2.78,17.09-1.76,25.25,2,10.34,4.72,18.38,11.69,21.51,23.1C397,309,397.37,315.55,397.51,322.14Zm111.4,46c3.63,1.58,6.89,2.51,10.36,2.32,3.74-.21,4.24-.76,4.24-4.39,0-1.17-.08-2.34,0-3.5.13-1.46-.27-2-1.89-2a29.82,29.82,0,0,1-5.67-.75,31.61,31.61,0,0,1-13.31-6.31c-2,10.73-3.13,21.17-2.15,31.77a2.53,2.53,0,0,0,1.68,2.19c4.84,2.5,10.06,2.65,15.32,2.64,6,0,6,0,6-5.84,0-4.44,0-8.87,0-13.43C517.37,373.11,511.14,372,508.92,368.17ZM352.78,396.12a61.34,61.34,0,0,0,11.19-.49,22,22,0,0,0,8.77-3.35c1.62-1.13.32-3.47.79-5.2,0-.08,0-.16.08-.24.78-2.23-.29-2.44-2.11-2a94.43,94.43,0,0,1-36,1.33c-3-.45-3-.42-3.08,2.62a8.08,8.08,0,0,1-.29,2c-.55,1.87,0,2.95,2,3.4A71.4,71.4,0,0,0,352.78,396.12Zm-31.22-52.59c-.12,5.62.86,7.09,5.67,9.1C328.53,347.64,323.43,347,321.56,343.52Zm32.24-26.64c-2.77-2.54-3.59-2.64-5-1A17.78,17.78,0,0,1,353.8,316.88Z" transform="translate(-314.14 -142.22)"/><path class="b47f9ece-b911-4b38-a478-5bf264ec4d8e" d="M377.89,367.07c1.15,4.71,1.4,9.55,1.86,14.35.12,1.27.25,2.43,1.9,2.27s1.71-1.29,1.62-2.57c-.69-9.92-2.25-19.66-5.82-29-.46-1.21-.54-1.94.76-2.86,4.19-2.93,8.61-5.72,10.3-11.16.88,1-.33,2.57,1,2.94s2.07-.87,2.9-1.64c2.88-2.67,4.11-6.17,4.92-9.88l.58,0a24.27,24.27,0,0,0,3.64,9.73,2.53,2.53,0,0,1,.27,2.53c-3.38,9.29-3.65,19-4.31,28.74-.07,1,.18,1.93,1.34,2,1,.07,1.47-.63,1.55-1.59,0-.42,0-.85.68-.82.64.32.46,1,.51,1.51.22,2.3.55,4.46,3.18,5.35,1,.35.52,1.24.41,1.92a118.15,118.15,0,0,1-4.28,17.4c-.34,1-.93,2.21.61,2.67s1.72-.86,2.07-1.89a109.38,109.38,0,0,0,4.23-16.9c.25-1.44.7-1.66,2.06-1.48a52.64,52.64,0,0,0,17.53-.51c.92,6.06,1,12.13,1.39,18.18.07,1-.22,2.42,1.46,2.32s1.29-1.45,1.27-2.49c-.1-5.24-.42-10.47-.94-15.69-.13-1.32-1.16-3.27,1.48-3.65.53-.08.51-.78.48-1.29-.05-1-.1-2-.15-3,.3-.48-.11-1.21.56-1.55,2.1,1,2.65.7,2.59-1.33,0-.91-.2-1.81-.31-2.72a137.66,137.66,0,0,1-1.32-18.37c0-.72-.18-1.48.64-2,2.85-1.81,4.86-4.43,6.76-7.53,1.7,2.53,3.22,5,5.56,6.57a3.32,3.32,0,0,1,1.53,3.31c-.32,6.8-.75,13.59-1.67,20.34-.15,1.06-.27,2.11,1.08,2.3s1.73-.76,1.63-1.9a5.49,5.49,0,0,1,.58-2.62c.59.55.12,1.36.46,2a22.83,22.83,0,0,0-.3,2.64c0,1.79-1.44,4.17.88,5.27,1.31.63,1.51,1.19,1.39,2.37-.55,5.55-1,11.11-1,16.69,0,1.07-.46,2.62,1.4,2.58,1.54,0,1.36-1.37,1.4-2.45.19-5.32.42-10.64,1-15.94.18-1.74.78-1.91,2.3-1.64a48.2,48.2,0,0,0,15.42.08c1.64-.25,1.86.25,2.09,1.7A92.85,92.85,0,0,0,479.24,397c.39,1.1.65,2.54,2.25,2s.77-1.75.43-2.76a106,106,0,0,1-4.28-17.15c-.11-.7-.62-1.69.23-2,2.45-1,2.89-3.13,3.1-5.43,2.85,1.39,3.66,1.2,3.58-.86-.37-9.4-1-18.79-3.82-27.85a4.19,4.19,0,0,1,.43-3.84c4.48-7.6,5.32-15.38.1-23-8.32-12.1-29.29-12.29-38.58-.45-.45.58-.71,1.33-1.46,1.65-6.86-9.56-15.76-11.18-25.46-9.89-8.81,1.18-14.57,6.37-17.4,14.79l-.85,0c-.15-6.59-.52-13.17-2.27-19.54-3.13-11.41-11.17-18.38-21.51-23.1-8.15-3.72-16.57-4.74-25.25-2a4.11,4.11,0,0,1-2.43,0,32.22,32.22,0,0,0-27,4.19,2.6,2.6,0,0,1-.69.12v-2.67q0-62.62,0-125.23c0-6.24,1.21-7.44,7.72-7.44q61.74,0,123.48,0h65.49c1.17,0,2.34,0,3.5.09,3,.25,4.67,1.93,4.92,4.94.06.75,0,1.5,0,2.25q0,72.24.06,144.48c0,2.5-.6,3-3,2.74-7.76-.74-15.48-.67-22.7,2.93-7.64,3.8-10.91,10.34-11.51,18.53-.38,5.22.69,10.27,1.71,15.33.95,4.68,1.27,9.14-3.3,12.35-1.16.82-.09,1.46.4,2a17.73,17.73,0,0,0,8.59,4.83c1.71.47,1.76,1,1.15,2.54-2.77,7-3.49,14.35-4,21.75-.06.82-.22,1.83,1,1.91s1.36-1,1.4-1.91a71.61,71.61,0,0,1,3-18.66c.38-1.18.86-2.34,1.35-3.48.18-.43.39-1,1.06-.77s.53.76.47,1.24c-.25,1.81-.56,3.62-.77,5.44a100.89,100.89,0,0,0-.19,21.2c.1,1.14.25,2.2,1.5,2.6,1.63.52,1.58,1.55,1.06,2.89-1.73,4.46-4.15,8.34-8.64,10.53-.69.34-1.39.77-.92,1.72s1.36.71,2.11.3a19.66,19.66,0,0,0,9.55-11.67c.48-1.48,1-1.75,2.57-1.31,5.27,1.45,10.7,1.46,16.11,1.06,1.6-.12,2,.23,2,1.78-.05,15.83,0,31.66-.05,47.49,0,4.33-1.84,6.07-6.1,6.07H324.7c-4.31,0-6.3-1.81-6.3-5.91q0-43.62,0-87.24a8.2,8.2,0,0,1,.13-.93l5.83,4.1c.07-.73.12-1.29.18-1.85,3.39,1.22,3.44,1.35,1.35,4.21-.49.67-1,1.34-1.5,2a5.44,5.44,0,0,0,0,7.3A3.52,3.52,0,0,1,325,373c-1,3.15-2,6.35-2.91,9.53-.35,1.15-.73,2.43.75,3s2.26-.53,2.66-1.85q1.44-4.64,2.88-9.28c.13-.43,0-1.05.93-1.19,0,3.94.09,7.85,0,11.76-.09,2.91-.45,5.81-.69,8.71-.08,1-.34,2.24,1,2.49,1.8.34,1.59,1.31,1.31,2.63-1.84,8.68-1.09,17.4-.21,26.11.34,3.39.86,6.77,1.35,10.14.19,1.29.26,2.92,2.18,2.7s1.54-1.75,1.35-3.09c-1.4-9.48-2.54-19-2.08-28.6a64.37,64.37,0,0,1,1-6.92c.21-1.31.75-1.63,2-1.37A92.53,92.53,0,0,0,363.47,399c1.45-.13,2.88-.45,4.33-.67.22,1.48.39,3,.68,4.42,1.73,8.95,5.8,12.88,14.92,14.49,1.11.2,2.07.09,2.44-1.08.42-1.33-.39-2-1.57-2.35-2-.66-3.9-1.42-5.86-2.09-3.47-1.19-5.55-3.49-6-7.22a21.6,21.6,0,0,0-.68-3.93c-.85-2.78-.1-4.6,2.79-5.46,1.35-.4,1.77-1.44,1.91-2.87a188,188,0,0,0,.92-20.2C377.92,370.44,376.87,368.65,377.89,367.07ZM456,203.9a13.22,13.22,0,0,0,5.14-.76c3.52-1.29,4.19-4.86,1.26-7.15-.82-.64-.94-.9-.45-1.86,1.22-2.43.21-4.26-2.44-5.1-2.18-.69-4.27,0-6.41.17-1.43.11-1.71.84-1.56,2.16.33,3.05.52,6.12.79,9.19C452.59,203.92,452.59,203.92,456,203.9Zm-28.53.19c4.76,0,8.92-4,8.92-8.58a7,7,0,0,0-7.25-7.18,8.67,8.67,0,0,0-8.7,8.66A6.9,6.9,0,0,0,427.44,204.1ZM416,241.33c0-.7.28-1.48-.66-1.71a1.4,1.4,0,0,0-1.86,1.14c-2.41,8.53-8.37,14.39-14.94,19.77a93.44,93.44,0,0,1-11.94,8.14c-.68.4-1.64.85-1,1.91s1.41.7,2.19.26c1-.58,2-1.17,3-1.8,8.1-5.18,15.79-10.82,21.24-19A27.88,27.88,0,0,0,416,241.33Zm72.19-20.23,1.74-1.08c1.91-1.19,3.1-2.74,2.61-5.15s-2.27-3.3-4.29-3.58a58.56,58.56,0,0,0-6.72-.17c-1.14,0-1.1.7-1,1.51.36,3.89.72,7.78,1,11.68.08,1,.44,1.49,1.55,1.38.91-.09,1.46-.34,1.22-1.34-.33-1.41.47-1.32,1.39-1.08,1.92.51,3.87.95,5.76,1.58,1.08.36,1.44.07,1.76-.94s0-1.52-1-1.74C491,221.87,489.8,221.52,488.19,221.1Zm-39.95-10c-5.08,0-8.92,3.56-8.94,8.37,0,4.33,2.71,7.25,6.79,7.27a8.79,8.79,0,0,0,9-8.41A6.84,6.84,0,0,0,448.25,211.08Zm-39.51-22.36c-2.44,0-2.4,0-2.12,2.79s.58,5.79.76,8.69c.21,3.37.16,3.36,3.58,3.32a10.39,10.39,0,0,0,4.56-1.06c3.29-1.62,4.54-4.88,2.88-8.13C416.51,190.63,413.47,188.59,408.74,188.72ZM356.4,211.54c-2.34-.79-2.77.53-2.44,2.82.36,2.54.47,5.12.76,7.67.48,4.26,1.36,4.86,5.7,4a9.93,9.93,0,0,0,1.66-.5c4.44-1.74,5.73-6,2.9-9.86C363,212.89,360.34,211.19,356.4,211.54Zm23.7,13.07c-.48-3.09-2-6.37-2.84-9.82-.67-2.69-1.91-3.14-4.48-2.57-2.11.46-3.07,1.29-3.33,3.41-.36,2.88-1,5.72-1.45,8.59-.11.79-.93,2,.81,2.34s1.72-.75,1.89-1.83.22-2.08,1.87-2.35c3.64-.59,3.61-.75,4.87,2.91a4.86,4.86,0,0,0,.12.48c.41.87,1.13.4,1.74.39S380.4,225.83,380.1,224.62Zm14.16-36.3a13.27,13.27,0,0,0-8,2.74c-1.24.94-2.19,2.12-1.73,3.83a3.32,3.32,0,0,0,3.19,2.36c1.81.21,3.64.25,5.46.38.56,0,1.33-.13,1.52.55s-.55,1.11-1.07,1.47A8.45,8.45,0,0,1,390,201c-1.31.17-1.09.91-1.06,1.74,0,1.16.8,1.05,1.58.94a11.71,11.71,0,0,0,5.43-2.32c1.24-1,2.23-2.16,1.8-3.8s-2-2.4-3.62-2.55-3.48-.17-5.22-.3c-.46,0-1.09,0-1.28-.54s.38-1.07.82-1.38a9.11,9.11,0,0,1,6.37-1.65c1.61.17,1.85-.72,1.74-1.91C396.34,187.47,394.89,188.78,394.26,188.31Zm49.29,14.52c.66,0,1.33,0,2,0,4-.22,5.21-1.57,4.77-5.49-.3-2.63-.93-5.22-1.3-7.85-.19-1.4-1.09-.9-1.84-.91-1.06,0-.93.71-.81,1.38.28,1.47.66,2.92.85,4.39.91,6.86.85,5.55-4.85,5.76-1.87.07-2.36-.8-2.15-2.42.32-2.47.68-4.93,1-7.41.08-.7.77-1.71-.73-1.85-1.14-.11-1.9.11-2,1.5-.17,2.23-.55,4.45-.7,6.68C437.41,201.78,438.44,202.84,443.55,202.83Zm-14.48,9.36c.4-1.16-.34-1.06-1-1.12a13,13,0,0,0-8.53,2.22c-1.45,1-2.89,2.17-2.31,4.27s2.4,2.36,4.15,2.54c1.32.14,2.66,0,4,.13.7,0,1.75-.12,1.95.69.23,1-.81,1.36-1.54,1.68a12.61,12.61,0,0,1-3.06,1c-1.29.21-1.38.93-1.21,1.95.22,1.34,1.08.88,1.9.74a11.81,11.81,0,0,0,4.79-2c1.45-1,2.64-2.28,2.11-4.15s-2.21-2.38-3.95-2.51c-1.49-.11-3,0-4.49-.1-.64,0-1.47,0-1.61-.82s.55-1.14,1.12-1.49a10.14,10.14,0,0,1,6-1.45C428.58,213.84,429.21,213.45,429.06,212.19Zm-51.13-12.95h0c-.22-3-.39-6-.7-9-.1-.95.49-2.52-1.62-2.29s-.88,1.72-1.07,2.63a5,5,0,0,0,.19,2c.3,1.41,0,2-1.67,2.14-3.8.38-3.78.5-4.05-3.41a9.37,9.37,0,0,1,0-1c0-1-.14-1.58-1.38-1.43-1,.12-1.43.38-1.32,1.51.33,3.39.56,6.8.8,10.2.08,1.14.35,1.81,1.8,1.65,1.66-.19.84-1.26.94-2s-.81-2,.44-2.39a8.3,8.3,0,0,1,4.38-.47c.95.28.62,2.07.77,3.21,0,.33,0,.67.07,1,.22,1,1,.61,1.61.62s1.14-.15,1-1C378,200.58,378,199.91,377.93,199.24ZM481,188.09v.06c-1.08.06-2.16.19-3.24.17s-1.41.48-1.33,1.52c.29,3.82.53,7.64.76,11.46.05.88.31,1.33,1.32,1.36a25.61,25.61,0,0,0,6.43-.64c1.15-.27,1.09-1,.95-1.91-.17-1.09-.86-1-1.67-.84-1.06.2-2.13.32-3.2.46-.92.11-1.36-.26-1.4-1.24s.34-1.32,1.28-1.36c1.16-.05,2.31-.27,3.48-.34.88-.06,1.14-.46,1-1.29-.12-.67-.16-1.39-1.09-1.36s-1.66.09-2.49.16c-1.07.08-2.23.77-2.43-1.28s.76-2.18,2.22-2.19c.75,0,1.5-.11,2.25-.07,1,.06,1.29-.37,1.23-1.33s-.25-1.41-1.29-1.33S481.91,188.09,481,188.09Zm-11.53,29.69h.21c0,.66.1,1.32.14,2,.35,6,1,6.52,7,5.1.86-.21,2.36.18,2-1.72s-1.45-1.13-2.43-1c-.82.1-1.64.26-2.46.35-1.07.13-1.43-.38-1.5-1.44s.54-1.24,1.35-1.29c1.08-.07,2.16-.14,3.23-.19s1.36-.43,1.12-1.43c-.17-.73-.13-1.53-1.3-1.31-.81.15-1.67,0-2.48.23-1.68.38-2-.41-2.23-1.91-.26-1.94,1-1.45,2-1.54.58-.05,1.17,0,1.74-.07,1-.1,2.26.36,2.1-1.52s-1.42-1.24-2.36-1.18c-2,.12-5.06-.38-5.87.71C468.69,212.92,469.46,215.63,469.46,217.78Zm-71.25-6.85V211a17.1,17.1,0,0,1-2.24,0c-1.87-.25-2.46.41-2.17,2.32.34,2.29.36,4.63.51,7,.34,5.36.82,5.73,6.27,4.76.49-.09,1-.3,1.45-.36,1-.13,1.46-.48,1.16-1.64s-.61-1.36-1.69-1.06a21,21,0,0,1-3.19.48c-.92.11-1.34-.3-1.38-1.27s.25-1.42,1.2-1.46,1.82-.12,2.74-.16,1.81,0,1.71-1.44-.73-1.46-1.8-1.27c-.65.12-1.34,0-2,.17-1.67.37-2.1-.4-2.27-1.94-.21-1.88,1-1.44,2-1.52s1.83-.1,2.74-.11,1.19-.41,1.11-1.25-.07-1.56-1.17-1.5Zm63.68,10.25a41.32,41.32,0,0,1-3-8.34c-.22-.89-.35-1.72-1.76-1.37s-1.25,1-1,2a60.81,60.81,0,0,0,4.27,11.11c.42.83.82,1.3,1.88,1.18a1.69,1.69,0,0,0,1.67-1.47,75.6,75.6,0,0,1,3.92-10.73c.35-.8.94-1.53-.44-2.16s-1.71.35-2.07,1.23C464.23,215.3,463.15,218,461.89,221.17Zm-73.69,2.55c-.09-1.82-.09-3.91-.33-6-.27-2.27-.31-4.12,2.85-3.77,1.16.13,1.28-.7,1.17-1.65s-.65-1.16-1.55-1c-2.55.34-5.11.61-7.67.9-1,.12-2,.18-1.74,1.71s1.14,1.23,2,1c1.51-.39,2.06,0,2.07,1.64,0,2.49.31,5,.43,7.46.05,1,.15,1.74,1.51,1.69S388.5,225.06,388.21,223.72ZM356,193.14c1.65-.52,1.86.48,1.88,2,0,2.49.31,5,.42,7.46,0,1,.32,1.5,1.47,1.41s1.32-.61,1.24-1.6c-.19-2.32-.12-4.66-.46-7s.23-3.21,2.51-3.24c.77,0,1.92.29,1.68-1.36s-1.11-1.36-2.13-1.23c-2.3.3-4.61.58-6.91.89-.88.12-2-.29-2,1.44S354.94,193.14,356,193.14Zm109.86.9h-.06c.17,2.74.38,5.47.48,8.22,0,1,.34,1.47,1.43,1.47a22.54,22.54,0,0,0,7.11-1c.83-.27,1.59-.41,1.13-1.65-.39-1-.77-1.46-1.95-1a30.55,30.55,0,0,1-3.37.86c-1.24.34-1.78.07-1.8-1.38,0-2.66-.27-5.31-.41-8,0-.9.16-1.83-1.36-1.77s-1.41,1-1.33,2C465.85,192.54,465.86,193.29,465.9,194ZM415.46,221.2h0c-.19-2.73-.44-5.45-.54-8.19,0-1.26-.62-1.5-1.71-1.47s-1.15.58-1.08,1.45c.31,3.88.57,7.77.85,11.66.07.94.36,1.56,1.53,1.4s1.43-.6,1.27-1.64S415.57,222.27,415.46,221.2Zm-32.35-19.35c-.24-3.74-.53-7.72-.75-11.7-.06-1.18-.73-1.32-1.66-1.28-.73,0-1.31.09-1.22,1.08.35,4.14.66,8.28,1,12.42.09,1.19.91.92,1.64.86S383.47,203.06,383.11,201.84Zm114.54,21.27c-.24.07-1.2-.39-1,.75.12.92.08,2.08,1.64,1.87.71-.09,1.3,0,1.23-1S499.31,222.81,497.65,223.11Z" transform="translate(-314.14 -142.22)"/><path class="8331d3c2-8d01-4169-a168-34c364fefca2" d="M336.36,291c-2.34-1-4.25.17-6,1.41-5.13,3.74-9.31,8.29-11.56,14.51-.7-.53-.42-1.22-.42-1.78,0-5.58,0-11.17-.07-16.75A3.55,3.55,0,0,1,320.2,285c5.16-3.41,11-4.62,17-5.31.91-.1,1.82-.18,2.73-.27,1.1-.11,1,0,2.69,1.08.69.47,1.58.1,2.39-.15a40.08,40.08,0,0,1,26,1C384.06,286.17,391.38,296,392.9,310c.52,4.81.79,9.62.89,14.45a8.26,8.26,0,0,1-.37,3.21c-1.67-1.6-.51-4-1.52-6.1C386.65,332.46,379.44,341.23,369,347c-.56.31-1.11,1.38-1.86.62-.59-.6,0-1.4.29-2.08a80.62,80.62,0,0,0,5.45-22.36c.93-10.23-2.31-19.3-8.24-27.51-.79-1.1-1.66-2.41-3.43-2-1.16-.57-1.92-1.8-3.63-2.1,3.26,6.1,7.32,11.61,8.38,18.43-.23,1.38-.9,1.65-2.29,1.31-2-.5-3.83-1.46-5.76-2.08-7.11-2.28-12.67-6.69-17.29-12.31C339.09,295.08,336.74,293.7,336.36,291Zm24.93,17c-2.58-3.52-5.1-7.09-7.94-10.39A16.17,16.17,0,0,0,361.29,308Z" transform="translate(-314.14 -142.22)"/><path class="b329ae89-fc19-4118-96d6-f4d27ea8069e" d="M319.8,315.5c.24-7.89,6.76-18.54,13.47-21.85A33.41,33.41,0,0,0,349,313.31a22.6,22.6,0,0,1-4.69,4.41c-.82.63-1.54,1.21-.05,1.91.66.31.37,1,.5,1.57.6,2.5,2.46,4.09,4.69,4,2.48-.13,3.85-1.48,4.05-4.3.12-1.72.75-1,1.43-.46,1.87.77,3.44.06,5.09-.94-.8-.76-1.48-1.42-2.56-1.31l-1.16.29c0-.21,0-.42,0-.64,1.74-2.14,4-.38,5.94-.6,5-.57,5-.29,4.82,4.78-.37,8.35-1.46,16.55-4.52,24.42a4.91,4.91,0,0,1-3.6,3.29c-7.91,2.3-15.81,3.32-23.7,0-6.53-2.75-11.26-7.55-15.05-13.39a4.69,4.69,0,0,1-.66-2.38c-.18-3.41-.28-6.82-.52-10.22-.14-1.89.33-3.22,2.38-3.56a24.84,24.84,0,0,0,.34,2.7,4.74,4.74,0,0,0,4,3.61c2,.41,3.24-.82,4.41-2.22,1.39-1.67.31-3.77,1-5.62.22-.58-1.53-1.51-2.53-2.09-3.76-4-3.81-4-8.49-.7Zm27.57,15.45a12.38,12.38,0,0,0-8.64-2.25c-.93.06-1.58.85-2.77.63-3.37-.64-3.9.06-3.24,3.53l.86,4.13c-.24,2.58,2,1.9,3.1,2a27.72,27.72,0,0,0,10.71-1.59c3.46.54,3.56.45,2.41-2.77A6.54,6.54,0,0,0,347.36,330.95Z" transform="translate(-314.14 -142.22)"/><path class="023f31e5-7d23-4e78-9e89-c7ea3a1f771f" d="M359.52,358.41a90.63,90.63,0,0,0,11.23-4.79c1.24-.59,1.73-.49,1.91,1,1,8.34,2,16.68,1.69,25.11,0,1-.17,1.66-1.4,1.93-12.46,2.77-25,3.68-37.64,1.51-2.32-.4-3.39-1.25-2.88-3.64a5.32,5.32,0,0,0,0-1c0-1.75-.43-3.72.24-5.18s3-.43,4.51-1.13,3.22-1.25,4.06-3.18a20.64,20.64,0,0,1-8.5,1.06,6.85,6.85,0,0,1-4.86-2.18c-1.33-1.48-1.51-2.9-.06-4.38a14.82,14.82,0,0,0,2.81-3.79,14.43,14.43,0,0,1,9.58,1.79,2.41,2.41,0,0,0,2.33.33c4.45-1.8,9.16-2,13.87-2.23A3.68,3.68,0,0,0,359.52,358.41ZM343,368.8c2.82,4.16,7.16,3.86,11.31,3.57,5.3-.37,7.57-1.72,8.35-4.46C356.17,370.65,349.71,372,343,368.8Z" transform="translate(-314.14 -142.22)"/><path class="42481c77-38b0-4e6b-81a9-9b3eb95231f5" d="M523.37,305.1q0,6.24,0,12.49c0,.77,0,1.8-1,1.62s.51-1.13-.4-1.83c-2.51,1.63-5,3.56-8.05,4.44-1,.3-2.15,1.39-3.34-.07-.47-.58-1.23.17-1.72.58a47.7,47.7,0,0,1-14.16,8.27c-1.18.43-1.35,1.18-1.34,2.29A26.29,26.29,0,0,0,499,349.37c1,1.35,1.29,2.08-.06,3.44-3.34,3.32-3.37,3.43-7.83,1.32-.53-.25-1-.52-1.55-.8-2.84-1.59-2.86-1.64-1.08-4.23,2.54-3.7,2.09-7.71,1.32-11.79A91.85,91.85,0,0,1,488.06,327c-1.05-14.54,6.69-23.17,21.46-24.38a59.52,59.52,0,0,1,12,0c.93.11,2.21-.19,1.9,1.5-4.08,0-8.16-.12-12.24,0a23.52,23.52,0,0,0-15.07,5.59,7,7,0,0,0-2.79,5.12c4-3.06,7.89-6.21,12.72-7.73,2-.62,3.83-2.26,5.68-2.17C515.58,305.14,519.48,304.95,523.37,305.1Z" transform="translate(-314.14 -142.22)"/><path class="b329ae89-fc19-4118-96d6-f4d27ea8069e" d="M522.35,330.07c-2.89.19-4.41,1.55-4.21,3.75s2.15,3.45,5.38,3.06c0,6.62,0,13.22,0,19.83,0,1.13-.46,1.42-1.5,1.37-15.16-.68-25.66-10.92-26-24.37,0-1.64.37-2.63,2.11-3a13.9,13.9,0,0,0,5.67-2.51c5.31-4.11,11.74-5.09,17.91-6.85,1.26-.36,1.86-.25,1.78,1.26-.12,2.16-.1,4.32-.13,6.49-2-.78-3.68-2.51-6.49-1.94C518.92,328.43,521.26,328.07,522.35,330.07Z" transform="translate(-314.14 -142.22)"/><path class="68db994d-8b0f-4add-9567-d886bae568a7" d="M508.92,368.17c2.22,3.88,8.46,4.94,14.6,2.68,0,4.55,0,9,0,13.43,0,5.83,0,5.83-6,5.84-5.26,0-10.49-.15-15.32-2.64a2.53,2.53,0,0,1-1.68-2.19c-1-10.6.14-21,2.15-31.77A31.61,31.61,0,0,0,516,359.82a29.82,29.82,0,0,0,5.67.75c1.62,0,2,.57,1.89,2-.1,1.16,0,2.33,0,3.5,0,3.63-.5,4.18-4.24,4.39C515.8,370.68,512.54,369.74,508.92,368.17Z" transform="translate(-314.14 -142.22)"/><path class="8cae827f-04b9-4606-b38c-41da00984da3" d="M352.78,396.12a71.4,71.4,0,0,1-18.71-2c-2-.45-2.53-1.53-2-3.4a8.08,8.08,0,0,0,.29-2c.12-3,.11-3.08,3.08-2.62a94.43,94.43,0,0,0,36-1.33c1.81-.42,2.89-.21,2.11,2,0,.08-.06.16-.08.24-.48,1.73.83,4.07-.79,5.2a22,22,0,0,1-8.77,3.35A61.34,61.34,0,0,1,352.78,396.12Z" transform="translate(-314.14 -142.22)"/><path class="a9d9db74-e566-43d5-a714-87153ac79f38" d="M361.21,293.7c1.76-.39,2.63.92,3.43,2,5.92,8.21,9.17,17.28,8.24,27.51a80.62,80.62,0,0,1-5.45,22.36c-.27.69-.88,1.48-.29,2.08.75.76,1.3-.31,1.86-.62,10.45-5.81,17.66-14.58,22.91-25.53,1,2.14-.15,4.5,1.52,6.1a8.53,8.53,0,0,1-2,6.09v-6.39c-2.7,6.22-7.12,10.86-11.89,15.19a55.88,55.88,0,0,1-16.89,10.55c.88-2.18,1.53-3.73,2.13-5.3,3.45-9,6.11-18.17,5.6-27.92C369.86,310.27,367.44,301.3,361.21,293.7Z" transform="translate(-314.14 -142.22)"/><path class="a9d9db74-e566-43d5-a714-87153ac79f38" d="M336.36,291c.38,2.71,2.73,4.09,4.26,6,4.62,5.62,10.18,10,17.29,12.31,1.93.62,3.75,1.58,5.76,2.08,1.39.34,2.06.07,2.29-1.31.72,1.19.43,2.58.92,4-12.39-.41-22.64-4.39-28.94-15.69a34.08,34.08,0,0,0-2.17-3.91C334.66,292.95,334.95,291.93,336.36,291Z" transform="translate(-314.14 -142.22)"/><path class="b329ae89-fc19-4118-96d6-f4d27ea8069e" d="M331,357.5a1.71,1.71,0,0,1,0-.49c.49-1.49.58-3.62,1.62-4.29s2.78.9,4.26,1.32c6.52,1.87,13,1.39,19.5-.1l2.59-.57a6.64,6.64,0,0,1-1.77,3.62c-5,.36-10,.82-14.65,3.16a1.71,1.71,0,0,1-1.83-.11C337.78,358.29,334.41,357.87,331,357.5Z" transform="translate(-314.14 -142.22)"/><path class="473f722f-811b-4a1b-843f-94ddce938d7c" d="M328.61,316.52c1,.58,2.75,1.51,2.53,2.09-.71,1.85.37,3.95-1,5.62-1.17,1.4-2.43,2.63-4.41,2.22a4.74,4.74,0,0,1-4-3.61,24.84,24.84,0,0,1-.34-2.7,4.42,4.42,0,0,0,2.59-3.09c1.12,0,2.29.39,3.33-.38Z" transform="translate(-314.14 -142.22)"/><path class="1acb8d96-bcf3-4278-8cc4-92902410c3ca" d="M523.37,305.1c-3.9-.15-7.79,0-11.7-.15-1.85-.09-3.71,1.55-5.68,2.17-4.83,1.52-8.72,4.67-12.72,7.73a7,7,0,0,1,2.79-5.12,23.52,23.52,0,0,1,15.07-5.59c4.08-.13,8.16,0,12.24,0Q523.37,304.61,523.37,305.1Z" transform="translate(-314.14 -142.22)"/><path class="e0786534-7784-4541-b918-d9691da8568a" d="M331,357.5c3.37.37,6.73.79,9.74,2.55a1.71,1.71,0,0,0,1.83.11c4.6-2.34,9.61-2.8,14.65-3.16.13,1.46,1.45,1,2.26,1.42a3.68,3.68,0,0,1-3.1,1.18c-4.72.2-9.43.43-13.87,2.23a2.41,2.41,0,0,1-2.33-.33,14.43,14.43,0,0,0-9.58-1.79Z" transform="translate(-314.14 -142.22)"/><path class="8331d3c2-8d01-4169-a168-34c364fefca2" d="M321.56,343.52c1.87,3.47,7,4.11,5.67,9.1C322.42,350.62,321.43,349.14,321.56,343.52Z" transform="translate(-314.14 -142.22)"/><path class="b329ae89-fc19-4118-96d6-f4d27ea8069e" d="M327.27,316.66c-1,.78-2.21.37-3.33.38q0-.2,0-.41l.85-.31c-.35-.38-.73-.23-1.12-.06-1.11,0-1.77,1.14-3,1.3C322.31,314.41,324.56,314.14,327.27,316.66Z" transform="translate(-314.14 -142.22)"/><path class="8cae827f-04b9-4606-b38c-41da00984da3" d="M357.41,318.15c1.08-.11,1.77.54,2.56,1.31-1.65,1-3.22,1.71-5.09.94,0-.93.46-1.33,1.36-1.32C356.88,319.1,357.37,318.9,357.41,318.15Z" transform="translate(-314.14 -142.22)"/><path class="8cae827f-04b9-4606-b38c-41da00984da3" d="M522.35,330.07c-1.09-2-3.43-1.65-5.43-2.92,2.81-.57,4.52,1.16,6.49,1.94l0,1.35Z" transform="translate(-314.14 -142.22)"/><path class="1acb8d96-bcf3-4278-8cc4-92902410c3ca" d="M353.8,316.88a17.78,17.78,0,0,0-5-1C350.21,314.24,351,314.34,353.8,316.88Z" transform="translate(-314.14 -142.22)"/><path class="59690363-6016-473e-b98f-bb04db5fd61d" d="M377.89,367.07c-1,1.58,0,3.37-.5,5l-.87-8.88A5,5,0,0,1,377.89,367.07Z" transform="translate(-314.14 -142.22)"/><path class="59690363-6016-473e-b98f-bb04db5fd61d" d="M397.92,329.55l-.58,0,.17-7.39.85,0A40.91,40.91,0,0,0,397.92,329.55Z" transform="translate(-314.14 -142.22)"/><path class="1acb8d96-bcf3-4278-8cc4-92902410c3ca" d="M356.27,317.8c0,.21,0,.42,0,.64a.85.85,0,0,1-1.06,0Z" transform="translate(-314.14 -142.22)"/><path class="b329ae89-fc19-4118-96d6-f4d27ea8069e" d="M320.13,315.83c-.17.16-.35.37-.52,0,0-.07.13-.24.2-.36Z" transform="translate(-314.14 -142.22)"/><path class="473f722f-811b-4a1b-843f-94ddce938d7c" d="M397.92,329.55a40.91,40.91,0,0,1,.44-7.38c2.83-8.43,8.6-13.62,17.4-14.79,9.7-1.3,18.59.33,25.46,9.89.75-.32,1-1.07,1.46-1.65,9.29-11.84,30.26-11.65,38.58.45,5.23,7.6,4.39,15.38-.1,23a4.19,4.19,0,0,0-.43,3.84c2.81,9.06,3.45,18.44,3.82,27.85.08,2.05-.72,2.24-3.58.86-.2,2.3-.65,4.42-3.1,5.43-.85.35-.35,1.35-.23,2a106,106,0,0,0,4.28,17.15c.35,1,1,2.23-.43,2.76s-1.86-.86-2.25-2A92.85,92.85,0,0,1,475,380.38c-.22-1.45-.45-1.94-2.09-1.7a48.2,48.2,0,0,1-15.42-.08c-1.52-.26-2.13-.09-2.3,1.64-.54,5.3-.78,10.62-1,15.94,0,1.08.14,2.41-1.4,2.45-1.86,0-1.4-1.51-1.4-2.58,0-5.58.46-11.14,1-16.69.12-1.19-.08-1.75-1.39-2.37-2.32-1.1-.86-3.48-.88-5.27a22.82,22.82,0,0,1,.3-2.64c.67-2.54.42-5.12.3-7.71a13.52,13.52,0,0,0-.76,5.73,5.49,5.49,0,0,0-.58,2.62c.1,1.14-.3,2.09-1.63,1.9s-1.23-1.24-1.08-2.3c.92-6.75,1.35-13.54,1.67-20.34a3.32,3.32,0,0,0-1.53-3.31c-2.34-1.62-3.86-4-5.56-6.57-1.91,3.1-3.92,5.72-6.76,7.53-.82.52-.63,1.28-.64,2A137.66,137.66,0,0,0,435.2,367c.12.91.28,1.81.31,2.72.06,2-.49,2.29-2.59,1.33l-.7-5.26a15.4,15.4,0,0,0,.14,6.81c.05,1,.1,2,.15,3,0,.51,0,1.21-.48,1.29-2.64.38-1.61,2.33-1.48,3.65.52,5.22.84,10.45.94,15.69,0,1,.36,2.39-1.27,2.49s-1.39-1.28-1.46-2.32c-.4-6-.47-12.12-1.39-18.18a52.64,52.64,0,0,1-17.53.51c-1.36-.18-1.81,0-2.06,1.48a109.38,109.38,0,0,1-4.23,16.9c-.35,1-.58,2.33-2.07,1.89s-.95-1.64-.61-2.67a118.15,118.15,0,0,0,4.28-17.4c.12-.68.64-1.57-.41-1.92-2.63-.89-3-3-3.18-5.35,0-.5.13-1.19-.51-1.51-.64,0-.65.4-.68.82-.08,1-.56,1.66-1.55,1.59-1.16-.09-1.41-1-1.34-2,.66-9.7.93-19.46,4.31-28.74a2.53,2.53,0,0,0-.27-2.53A24.27,24.27,0,0,1,397.92,329.55Zm22.26-20.39a22.5,22.5,0,0,0-5.06.48,17.78,17.78,0,0,0-14,23.85c3.25,9.21,11.15,14.25,22,14.39,13.54.17,22.84-14.91,17.22-27.3C436.57,312.31,429.38,309.14,420.18,309.16Zm42.11,0c-7.81-.09-14.35,2.43-18.83,9.18a2.78,2.78,0,0,0-.51,2.72,21.74,21.74,0,0,1,.07,14,3.7,3.7,0,0,0,.5,3.45c7.29,11.79,25.72,12.63,34.41,1.54,5.92-7.55,6.31-17,.93-23.72C474.6,311,468.85,309.13,462.29,309.17Zm3.23,67.94c3.84.16,7.53-.09,11-1.81a4,4,0,0,0,2.35-3.47,71.74,71.74,0,0,0-1.42-25.24c-.39-1.67-.63-2.16-2.28-1a25.73,25.73,0,0,1-20.44,4c-2.4-.51-2.49.31-2.27,2.09.89,7.31.38,14.61-.25,21.89-.12,1.4.22,1.91,1.54,2.23A38.24,38.24,0,0,0,465.52,377.11Zm-59.9-32.85c-2.19,8.86-3.24,17.43-2.21,26.25.36,3.09,1.53,4.81,4.47,5.6,6.77,1.84,13.49,1.23,20.24-.14,2-.4,2.5-1.3,2.24-3.25a109.57,109.57,0,0,1-.31-21.68c.1-1.49.09-2.21-1.75-1.63a16.78,16.78,0,0,1-4.42.63A27.37,27.37,0,0,1,405.62,344.26Z" transform="translate(-314.14 -142.22)"/><path class="b49c51df-a21c-443e-9dfa-77e5d28d272f" d="M456,203.91c-3.38,0-3.38,0-3.67-3.36-.26-3.06-.45-6.13-.79-9.19-.14-1.31.13-2,1.56-2.16,2.13-.16,4.23-.85,6.41-.17,2.66.84,3.66,2.67,2.44,5.1-.48,1-.37,1.21.45,1.86,2.93,2.29,2.26,5.86-1.26,7.15A13.28,13.28,0,0,1,456,203.91Zm2.07-6.19v0a12.34,12.34,0,0,0-1.24,0c-1.08.11-2.08.09-1.92,1.81.14,1.54.81,1.78,2.05,1.64a12.13,12.13,0,0,0,2.21-.26c1-.31,2.4-.44,2.22-1.88s-1.54-1.22-2.58-1.34A6.92,6.92,0,0,0,458,197.72Zm-1-6.17c-1.35.1-3.07-.46-2.64,1.81.12.65-.57,1.81.93,1.82s4.65-1.92,4.36-2.77C459.24,191,457.88,191.8,457.06,191.54Z" transform="translate(-314.14 -142.22)"/><path class="b49c51df-a21c-443e-9dfa-77e5d28d272f" d="M427.44,204.1a6.9,6.9,0,0,1-7-7.1,8.67,8.67,0,0,1,8.7-8.66,7,7,0,0,1,7.25,7.18C436.36,200.06,432.2,204.06,427.44,204.1Zm6.07-8.46c0-2.77-1.51-4.51-4.08-4.59-3.26-.1-6.3,2.59-6.38,5.65a4.25,4.25,0,0,0,4.16,4.59A6,6,0,0,0,433.51,195.64Z" transform="translate(-314.14 -142.22)"/><path class="b49c51df-a21c-443e-9dfa-77e5d28d272f" d="M416,241.33a27.88,27.88,0,0,1-4,8.74c-5.44,8.15-13.13,13.79-21.24,19-1,.63-2,1.22-3,1.8-.78.44-1.64.66-2.19-.26s.32-1.51,1-1.91a93.44,93.44,0,0,0,11.94-8.14c6.57-5.38,12.52-11.25,14.94-19.77a1.4,1.4,0,0,1,1.86-1.14C416.28,239.85,416,240.63,416,241.33Z" transform="translate(-314.14 -142.22)"/><path class="b49c51df-a21c-443e-9dfa-77e5d28d272f" d="M488.19,221.1c1.61.43,2.8.77,4,1,1,.23,1.39.64,1,1.74s-.68,1.3-1.76.94c-1.88-.63-3.83-1.07-5.76-1.58-.92-.24-1.72-.33-1.39,1.08.24,1-.31,1.25-1.22,1.34-1.11.11-1.47-.37-1.55-1.38-.32-3.89-.68-7.79-1-11.68-.07-.8-.11-1.53,1-1.51a58.56,58.56,0,0,1,6.72.17c2,.28,3.82,1.24,4.29,3.58s-.7,4-2.61,5.15Zm-4.2-1.44a17.93,17.93,0,0,0,5-2.28c1-.71,1.49-1.72.44-2.69a5.56,5.56,0,0,0-5.42-.88c-1.34.38-.41,2.14-.42,3.27A16.91,16.91,0,0,0,484,219.66Z" transform="translate(-314.14 -142.22)"/><path class="473f722f-811b-4a1b-843f-94ddce938d7c" d="M448.25,211.08a6.84,6.84,0,0,1,6.89,7.23,8.79,8.79,0,0,1-9,8.41c-4.08,0-6.8-2.94-6.79-7.27C439.32,214.64,443.17,211,448.25,211.08Zm-1.89,13a6.15,6.15,0,0,0,6-6,4.18,4.18,0,0,0-4.43-4.35,6.17,6.17,0,0,0-6,6A4.23,4.23,0,0,0,446.36,224.05Z" transform="translate(-314.14 -142.22)"/><path class="b49c51df-a21c-443e-9dfa-77e5d28d272f" d="M408.74,188.72c4.73-.13,7.77,1.91,9.65,5.61,1.66,3.25.41,6.51-2.88,8.13a10.39,10.39,0,0,1-4.56,1.06c-3.42,0-3.37,0-3.58-3.32-.18-2.9-.46-5.8-.76-8.69S406.3,188.71,408.74,188.72Zm.87,4.68c.12,1.76.23,3.74.39,5.72.06.7-.11,1.64,1,1.64,1.86,0,3.73-.18,4.86-1.89s.49-3.32-.67-4.78a6.88,6.88,0,0,0-3.91-2.45C410,191.34,409.12,191.54,409.61,193.4Z" transform="translate(-314.14 -142.22)"/><path class="473f722f-811b-4a1b-843f-94ddce938d7c" d="M356.4,211.54c3.94-.35,6.57,1.35,8.59,4.11,2.83,3.86,1.54,8.12-2.9,9.86a9.93,9.93,0,0,1-1.66.5c-4.35.87-5.22.27-5.7-4-.29-2.55-.4-5.13-.76-7.67C353.63,212.07,354.06,210.75,356.4,211.54Zm.6,5.23q.21,2.74.43,5.47c0,.58,0,1.26.83,1.27,1.88,0,3.75-.24,4.94-1.84,1.07-1.44.68-3-.26-4.41a6.86,6.86,0,0,0-3-2.52C357.25,213.55,356.83,213.86,357,216.77Z" transform="translate(-314.14 -142.22)"/><path class="b49c51df-a21c-443e-9dfa-77e5d28d272f" d="M380.1,224.62c.3,1.22-.09,1.53-.8,1.55s-1.34.48-1.74-.39a4.86,4.86,0,0,1-.12-.48c-1.26-3.66-1.23-3.5-4.87-2.91-1.65.27-1.69,1.22-1.87,2.35s-.24,2.15-1.89,1.83-.92-1.55-.81-2.34c.41-2.87,1.09-5.71,1.45-8.59.26-2.12,1.22-2.94,3.33-3.41,2.58-.57,3.81-.12,4.48,2.57C378.13,218.24,379.62,221.52,380.1,224.62Zm-7-5c.48-.67,2.42.53,2.27-1.24-.1-1.17-.1-3.26-1.78-3.3-2.38-.06-1.35,2.34-1.87,3.61C371.27,219.81,372.19,219.62,373.1,219.64Z" transform="translate(-314.14 -142.22)"/><path class="b49c51df-a21c-443e-9dfa-77e5d28d272f" d="M394.26,188.31c.63.46,2.08-.84,2.25.92.12,1.18-.13,2.08-1.74,1.91a9.11,9.11,0,0,0-6.37,1.65c-.44.31-1,.69-.82,1.38s.82.51,1.28.54c1.74.13,3.49.14,5.22.3s3.16.8,3.62,2.55-.56,2.85-1.8,3.8a11.71,11.71,0,0,1-5.43,2.32c-.78.12-1.53.23-1.58-.94,0-.83-.25-1.57,1.06-1.74a8.45,8.45,0,0,0,3.71-1.35c.52-.36,1.3-.69,1.07-1.47s-1-.51-1.52-.55c-1.82-.13-3.65-.17-5.46-.38a3.32,3.32,0,0,1-3.19-2.36c-.46-1.7.49-2.88,1.73-3.83A13.27,13.27,0,0,1,394.26,188.31Z" transform="translate(-314.14 -142.22)"/><path class="b49c51df-a21c-443e-9dfa-77e5d28d272f" d="M443.55,202.83c-5.11,0-6.14-1.06-5.79-6.21.15-2.23.53-4.45.7-6.68.1-1.38.86-1.6,2-1.5,1.5.14.81,1.15.73,1.85-.29,2.47-.65,4.94-1,7.41-.21,1.62.28,2.49,2.15,2.42,5.7-.21,5.76,1.1,4.85-5.76-.2-1.48-.58-2.93-.85-4.39-.13-.67-.25-1.38.81-1.38.76,0,1.65-.49,1.84.91.36,2.62,1,5.22,1.3,7.85.44,3.92-.82,5.27-4.77,5.49C444.88,202.86,444.21,202.83,443.55,202.83Z" transform="translate(-314.14 -142.22)"/><path class="473f722f-811b-4a1b-843f-94ddce938d7c" d="M429.06,212.19c.15,1.25-.48,1.65-1.75,1.58a10.14,10.14,0,0,0-6,1.45c-.57.35-1.26.75-1.12,1.49s1,.8,1.61.82c1.5.06,3,0,4.49.1,1.74.13,3.42.66,3.95,2.51s-.66,3.15-2.11,4.15a11.81,11.81,0,0,1-4.79,2c-.82.14-1.67.6-1.9-.74-.17-1-.08-1.74,1.21-1.95a12.61,12.61,0,0,0,3.06-1c.72-.32,1.77-.7,1.54-1.68-.19-.81-1.24-.64-1.95-.69-1.33-.09-2.67,0-4-.13-1.76-.18-3.58-.46-4.15-2.54s.86-3.31,2.31-4.27a13,13,0,0,1,8.53-2.22C428.72,211.13,429.46,211,429.06,212.19Z" transform="translate(-314.14 -142.22)"/><path class="473f722f-811b-4a1b-843f-94ddce938d7c" d="M377.93,199.24c0,.66.06,1.33.16,2,.12.84-.36,1-1,1s-1.39.38-1.61-.62c-.07-.32,0-.67-.07-1-.14-1.14.18-2.93-.77-3.21a8.3,8.3,0,0,0-4.38.47c-1.25.37-.33,1.57-.44,2.39s.72,1.82-.94,2c-1.45.16-1.71-.51-1.8-1.65-.25-3.4-.47-6.81-.8-10.2-.11-1.13.3-1.39,1.32-1.51,1.25-.15,1.42.47,1.38,1.43a9.37,9.37,0,0,0,0,1c.27,3.91.26,3.79,4.05,3.41,1.62-.16,2-.73,1.67-2.14a5,5,0,0,1-.19-2c.19-.91-1.11-2.39,1.07-2.63s1.52,1.34,1.62,2.29c.31,3,.48,6,.7,9Z" transform="translate(-314.14 -142.22)"/><path class="b49c51df-a21c-443e-9dfa-77e5d28d272f" d="M481,188.09c.92,0,1.84.06,2.75,0s1.23.45,1.29,1.33-.22,1.39-1.23,1.33c-.74,0-1.5.06-2.25.07-1.46,0-2.41.22-2.22,2.19s1.36,1.36,2.43,1.28c.83-.06,1.66-.13,2.49-.16s1,.69,1.09,1.36c.15.82-.11,1.23-1,1.29-1.16.08-2.31.29-3.48.34-.94,0-1.33.37-1.28,1.36s.49,1.35,1.4,1.24c1.07-.13,2.14-.26,3.2-.46.81-.15,1.5-.25,1.67.84.14.88.21,1.64-.95,1.91a25.61,25.61,0,0,1-6.43.64c-1,0-1.27-.48-1.32-1.36-.23-3.82-.47-7.64-.76-11.46-.08-1,.19-1.55,1.33-1.52s2.16-.11,3.24-.17Z" transform="translate(-314.14 -142.22)"/><path class="b49c51df-a21c-443e-9dfa-77e5d28d272f" d="M469.46,217.78c0-2.14-.78-4.86.25-6.24.81-1.09,3.83-.6,5.87-.71.95-.06,2.2-.7,2.36,1.18s-1.13,1.42-2.1,1.52c-.58.06-1.16,0-1.74.07-1,.09-2.22-.4-2,1.54.21,1.51.54,2.29,2.23,1.91.8-.18,1.66-.07,2.48-.23,1.17-.22,1.12.58,1.3,1.31.24,1-.18,1.39-1.12,1.43s-2.16.12-3.23.19c-.81.05-1.41.2-1.35,1.29s.43,1.56,1.5,1.44c.82-.1,1.64-.26,2.46-.35,1-.12,2.11-.77,2.43,1s-1.15,1.52-2,1.72c-6,1.43-6.66.91-7-5.1,0-.66-.09-1.33-.14-2Z" transform="translate(-314.14 -142.22)"/><path class="473f722f-811b-4a1b-843f-94ddce938d7c" d="M398.22,210.92l3-.19c1.1-.06,1.1.73,1.17,1.5s-.27,1.24-1.11,1.25-1.83,0-2.74.11-2.2-.37-2,1.52c.17,1.54.6,2.31,2.27,1.94.64-.14,1.33,0,2-.17,1.07-.19,1.71-.07,1.8,1.27s-.77,1.4-1.71,1.44-1.82.11-2.74.16-1.24.53-1.2,1.46.46,1.38,1.38,1.27a21,21,0,0,0,3.19-.48c1.08-.3,1.43,0,1.69,1.06s-.14,1.51-1.16,1.64c-.49.06-1,.27-1.45.36-5.45,1-5.93.6-6.27-4.76-.15-2.32-.17-4.66-.51-7-.29-1.92.3-2.57,2.17-2.32a17.1,17.1,0,0,0,2.24,0Z" transform="translate(-314.14 -142.22)"/><path class="b49c51df-a21c-443e-9dfa-77e5d28d272f" d="M461.89,221.17c1.26-3.13,2.34-5.87,3.47-8.59.36-.88.55-1.93,2.07-1.23s.79,1.36.44,2.16a75.6,75.6,0,0,0-3.92,10.73,1.69,1.69,0,0,1-1.67,1.47c-1.05.12-1.46-.35-1.88-1.18a60.81,60.81,0,0,1-4.27-11.11c-.29-1-.39-1.64,1-2s1.54.49,1.76,1.37A41.32,41.32,0,0,0,461.89,221.17Z" transform="translate(-314.14 -142.22)"/><path class="b49c51df-a21c-443e-9dfa-77e5d28d272f" d="M388.21,223.72c.29,1.34.06,1.94-1.26,2s-1.46-.68-1.51-1.69c-.13-2.49-.42-5-.43-7.46,0-1.64-.56-2-2.07-1.64-.86.23-1.79.46-2-1s.71-1.59,1.74-1.71c2.56-.29,5.12-.56,7.67-.9.9-.12,1.43,0,1.55,1s0,1.78-1.17,1.65c-3.16-.35-3.12,1.5-2.85,3.77C388.12,219.81,388.11,221.9,388.21,223.72Z" transform="translate(-314.14 -142.22)"/><path class="b49c51df-a21c-443e-9dfa-77e5d28d272f" d="M356,193.14c-1.1,0-2.16.52-2.25-1.2s1.07-1.32,2-1.44c2.3-.31,4.61-.59,6.91-.89,1-.13,1.91-.29,2.13,1.23s-.91,1.35-1.68,1.36c-2.28,0-2.83,1.09-2.51,3.24s.27,4.64.46,7c.08,1-.09,1.52-1.24,1.6s-1.43-.4-1.47-1.41c-.11-2.49-.38-5-.42-7.46C357.89,193.62,357.69,192.62,356,193.14Z" transform="translate(-314.14 -142.22)"/><path class="b49c51df-a21c-443e-9dfa-77e5d28d272f" d="M465.9,194c0-.75-.05-1.5-.11-2.24-.08-1-.25-1.94,1.33-2s1.31.87,1.36,1.77c.14,2.66.39,5.31.41,8,0,1.45.56,1.72,1.8,1.38a30.55,30.55,0,0,0,3.37-.86c1.17-.47,1.56,0,1.95,1,.47,1.24-.29,1.38-1.13,1.65a22.54,22.54,0,0,1-7.11,1c-1.1,0-1.4-.43-1.43-1.47-.1-2.74-.31-5.48-.48-8.22Z" transform="translate(-314.14 -142.22)"/><path class="b49c51df-a21c-443e-9dfa-77e5d28d272f" d="M415.46,221.2c.11,1.07.17,2.15.34,3.21s-.22,1.5-1.27,1.64-1.46-.46-1.53-1.4c-.28-3.89-.54-7.77-.85-11.66-.07-.87,0-1.43,1.08-1.45s1.66.21,1.71,1.47c.1,2.73.35,5.46.54,8.19Z" transform="translate(-314.14 -142.22)"/><path class="b49c51df-a21c-443e-9dfa-77e5d28d272f" d="M383.11,201.84c.36,1.22-.28,1.33-1,1.38s-1.55.33-1.64-.86c-.32-4.14-.63-8.28-1-12.42-.08-1,.5-1.05,1.22-1.08.93,0,1.6.11,1.66,1.28C382.59,194.12,382.87,198.1,383.11,201.84Z" transform="translate(-314.14 -142.22)"/><path class="b49c51df-a21c-443e-9dfa-77e5d28d272f" d="M497.65,223.11c1.65-.3,1.75.57,1.82,1.57s-.52,1-1.23,1c-1.56.21-1.51-.95-1.64-1.87C496.45,222.73,497.42,223.18,497.65,223.11Z" transform="translate(-314.14 -142.22)"/><path class="59690363-6016-473e-b98f-bb04db5fd61d" d="M450,367.12a13.52,13.52,0,0,1,.76-5.73c.12,2.58.38,5.16-.3,7.71C450.12,368.47,450.59,367.67,450,367.12Z" transform="translate(-314.14 -142.22)"/><path class="59690363-6016-473e-b98f-bb04db5fd61d" d="M432.36,372.61a15.4,15.4,0,0,1-.14-6.81l.7,5.26C432.26,371.4,432.66,372.13,432.36,372.61Z" transform="translate(-314.14 -142.22)"/><path class="8cae827f-04b9-4606-b38c-41da00984da3" d="M361.29,308a16.17,16.17,0,0,1-7.94-10.39C356.19,300.88,358.72,304.45,361.29,308Z" transform="translate(-314.14 -142.22)"/><path class="473f722f-811b-4a1b-843f-94ddce938d7c" d="M333.58,337l-.86-4.13c.36-.6-.55-2,.87-1.86,4.6.42,9.18-1.11,13.77-.05a6.54,6.54,0,0,1,2.44,3.66c1.14,3.23,1,3.31-2.41,2.77-2.14-.5-4.27-.15-6.42,0C338.5,337.49,336,338,333.58,337Z" transform="translate(-314.14 -142.22)"/><path class="fe7363b8-403b-4c86-97f7-633386396039" d="M347.36,330.95c-4.59-1.06-9.17.47-13.77.05-1.42-.13-.51,1.26-.87,1.86-.66-3.47-.13-4.17,3.24-3.53,1.19.23,1.84-.57,2.77-.63A12.38,12.38,0,0,1,347.36,330.95Z" transform="translate(-314.14 -142.22)"/><path class="fe7363b8-403b-4c86-97f7-633386396039" d="M333.58,337c2.42,1,4.92.5,7.38.37,2.15-.12,4.28-.47,6.42,0A27.77,27.77,0,0,1,336.68,339C335.56,338.89,333.34,339.57,333.58,337Z" transform="translate(-314.14 -142.22)"/><path class="b49c51df-a21c-443e-9dfa-77e5d28d272f" d="M343,368.8c6.72,3.16,13.17,1.85,19.65-.89-.78,2.74-3,4.09-8.35,4.46C350.16,372.66,345.82,373,343,368.8Z" transform="translate(-314.14 -142.22)"/><path class="b49c51df-a21c-443e-9dfa-77e5d28d272f" d="M323.67,316.27c.38-.16.76-.32,1.12.06l-.85.31A1.51,1.51,0,0,1,323.67,316.27Z" transform="translate(-314.14 -142.22)"/><path class="b329ae89-fc19-4118-96d6-f4d27ea8069e" d="M420.18,309.16c9.2,0,16.39,3.16,20.13,11.41,5.61,12.4-3.68,27.48-17.22,27.3-10.83-.14-18.74-5.17-22-14.39a17.78,17.78,0,0,1,14-23.85A22.5,22.5,0,0,1,420.18,309.16Zm7.69,18.55c-.19-1.63-.91-2.86-2.74-2.9a2.86,2.86,0,0,0-.49,5.69C426.43,330.6,427.56,329.57,427.87,327.7Zm-14.36-.82c-.2-1.9-1.15-2.83-3-2.82a2.49,2.49,0,0,0-2.72,2.85c0,1.79,1.15,2.71,2.91,2.73C412.65,329.68,413.26,328.39,413.5,326.89Zm7.78,6.57c-2.56-1.1-5.25-.4-7.88-.39C416,334,418.65,333.4,421.29,333.46Zm2.28-12.37c3.19,2,3.44,2.1,5.35,1.17C426.91,322.24,425.74,320.79,423.57,321.09Zm-16.14,1.28c2,.84,3.93-.13,4.68-2.41A19.76,19.76,0,0,1,407.43,322.37Z" transform="translate(-314.14 -142.22)"/><path class="b329ae89-fc19-4118-96d6-f4d27ea8069e" d="M462.29,309.17c6.56,0,12.31,1.85,16.56,7.14,5.38,6.7,5,16.17-.93,23.72-8.69,11.09-27.12,10.25-34.41-1.54A3.7,3.7,0,0,1,443,335a21.74,21.74,0,0,0-.07-14,2.78,2.78,0,0,1,.51-2.72C447.94,311.6,454.47,309.08,462.29,309.17Zm15.39,18.55c-.13-1.69-.88-2.88-2.71-2.91s-2.91.81-3,2.61a2.63,2.63,0,0,0,2.52,3.07A2.83,2.83,0,0,0,477.68,327.72Zm-14.19.8c-.07-2-.93-2.92-2.79-3a2.47,2.47,0,0,0-2.83,2.72,2.62,2.62,0,0,0,2.78,2.86C462.54,331.25,463.26,330,463.49,328.51Zm-.73-6.48c-1.69-1.22-2.89-1.08-4.54,0Zm1.76,2a1.88,1.88,0,0,0-1.91-1.9C463.17,323,463.45,323.74,464.52,324.06Z" transform="translate(-314.14 -142.22)"/><path class="fcfb2ad6-8116-4805-b406-b2acc4aba306" d="M465.52,377.11a38.24,38.24,0,0,1-11.76-1.38c-1.31-.33-1.66-.83-1.54-2.23.63-7.29,1.14-14.59.25-21.89-.22-1.79-.12-2.61,2.27-2.09a25.73,25.73,0,0,0,20.44-4c1.65-1.12,1.9-.62,2.28,1a71.74,71.74,0,0,1,1.42,25.24,4,4,0,0,1-2.35,3.47C473,377,469.37,377.27,465.52,377.11Z" transform="translate(-314.14 -142.22)"/><path class="59690363-6016-473e-b98f-bb04db5fd61d" d="M405.62,344.26A27.37,27.37,0,0,0,423.88,350a16.78,16.78,0,0,0,4.42-.63c1.84-.58,1.85.15,1.75,1.63a109.57,109.57,0,0,0,.31,21.68c.26,2-.28,2.85-2.24,3.25-6.75,1.36-13.47,2-20.24.14-2.94-.8-4.11-2.51-4.47-5.6C402.39,361.69,403.43,353.12,405.62,344.26Z" transform="translate(-314.14 -142.22)"/><path class="9347218b-75d2-4c85-8102-ecfce627da23" d="M458,197.72a6.92,6.92,0,0,1,.75,0c1,.11,2.41-.06,2.58,1.34s-1.24,1.57-2.22,1.88a12.13,12.13,0,0,1-2.21.26c-1.24.14-1.91-.1-2.05-1.64-.16-1.72.84-1.7,1.92-1.81a12.34,12.34,0,0,1,1.24,0Z" transform="translate(-314.14 -142.22)"/><path class="9347218b-75d2-4c85-8102-ecfce627da23" d="M457.06,191.54c.82.26,2.18-.57,2.66.86.29.85-2.92,2.78-4.36,2.77s-.81-1.17-.93-1.82C454,191.08,455.71,191.64,457.06,191.54Z" transform="translate(-314.14 -142.22)"/><path class="b47f9ece-b911-4b38-a478-5bf264ec4d8e" d="M433.51,195.64a6,6,0,0,1-6.3,5.65,4.25,4.25,0,0,1-4.16-4.59c.09-3.06,3.12-5.75,6.38-5.65C432,191.13,433.56,192.87,433.51,195.64Z" transform="translate(-314.14 -142.22)"/><path class="9347218b-75d2-4c85-8102-ecfce627da23" d="M484,219.66a16.91,16.91,0,0,1-.38-2.57c0-1.14-.92-2.89.42-3.27a5.56,5.56,0,0,1,5.42.88c1.05,1,.57,2-.44,2.69A17.93,17.93,0,0,1,484,219.66Z" transform="translate(-314.14 -142.22)"/><path class="b47f9ece-b911-4b38-a478-5bf264ec4d8e" d="M446.36,224.05a4.23,4.23,0,0,1-4.43-4.35,6.17,6.17,0,0,1,6-6,4.18,4.18,0,0,1,4.43,4.35A6.15,6.15,0,0,1,446.36,224.05Z" transform="translate(-314.14 -142.22)"/><path class="9347218b-75d2-4c85-8102-ecfce627da23" d="M409.61,193.4c-.49-1.86.38-2.05,1.67-1.75a6.88,6.88,0,0,1,3.91,2.45c1.16,1.45,1.79,3.07.67,4.78s-3,1.9-4.86,1.89c-1.13,0-1-.94-1-1.64C409.84,197.14,409.73,195.16,409.61,193.4Z" transform="translate(-314.14 -142.22)"/><path class="9347218b-75d2-4c85-8102-ecfce627da23" d="M357,216.77c-.17-2.91.25-3.22,2.92-2a6.86,6.86,0,0,1,3,2.52c.94,1.43,1.32,3,.26,4.41-1.19,1.6-3.05,1.88-4.94,1.84-.83,0-.78-.69-.83-1.27Q357.22,219.5,357,216.77Z" transform="translate(-314.14 -142.22)"/><path class="9347218b-75d2-4c85-8102-ecfce627da23" d="M373.1,219.64c-.91,0-1.84.18-1.38-.93.52-1.28-.51-3.67,1.87-3.61,1.68,0,1.68,2.13,1.78,3.3C375.52,220.17,373.59,219,373.1,219.64Z" transform="translate(-314.14 -142.22)"/><path class="b49c51df-a21c-443e-9dfa-77e5d28d272f" d="M427.87,327.7c-.3,1.86-1.44,2.9-3.23,2.79a2.86,2.86,0,0,1,.49-5.69C427,324.84,427.67,326.07,427.87,327.7Z" transform="translate(-314.14 -142.22)"/><path class="473f722f-811b-4a1b-843f-94ddce938d7c" d="M413.5,326.89c-.24,1.51-.85,2.8-2.77,2.77-1.76,0-2.88-.94-2.91-2.73a2.49,2.49,0,0,1,2.72-2.85C412.36,324.06,413.31,325,413.5,326.89Z" transform="translate(-314.14 -142.22)"/><path class="8cae827f-04b9-4606-b38c-41da00984da3" d="M421.29,333.46c-2.63-.06-5.31.57-7.88-.39C416,333.05,418.73,332.36,421.29,333.46Z" transform="translate(-314.14 -142.22)"/><path class="8cae827f-04b9-4606-b38c-41da00984da3" d="M423.57,321.09c2.17-.3,3.34,1.15,5.35,1.17C427,323.18,426.76,323.12,423.57,321.09Z" transform="translate(-314.14 -142.22)"/><path class="8cae827f-04b9-4606-b38c-41da00984da3" d="M407.43,322.37a19.76,19.76,0,0,0,4.68-2.41C411.36,322.24,409.41,323.21,407.43,322.37Z" transform="translate(-314.14 -142.22)"/><path class="473f722f-811b-4a1b-843f-94ddce938d7c" d="M477.68,327.72a2.83,2.83,0,0,1-3.18,2.77,2.63,2.63,0,0,1-2.52-3.07c.09-1.79,1.29-2.63,3-2.61S477.55,326,477.68,327.72Z" transform="translate(-314.14 -142.22)"/><path class="473f722f-811b-4a1b-843f-94ddce938d7c" d="M463.49,328.51c-.23,1.5-.95,2.74-2.83,2.62a2.62,2.62,0,0,1-2.78-2.86,2.47,2.47,0,0,1,2.83-2.72C462.56,325.6,463.42,326.56,463.49,328.51Z" transform="translate(-314.14 -142.22)"/><path class="8cae827f-04b9-4606-b38c-41da00984da3" d="M462.76,322h-4.54C459.87,321,461.07,320.81,462.76,322Z" transform="translate(-314.14 -142.22)"/><path class="8cae827f-04b9-4606-b38c-41da00984da3" d="M464.52,324.06c-1.07-.31-1.35-1.07-1.91-1.9A1.88,1.88,0,0,1,464.52,324.06Z" transform="translate(-314.14 -142.22)"/></svg>