<svg id="99987cba-3a82-4162-9240-3d3940be67f0" data-name="Capa 1" xmlns="http://www.w3.org/2000/svg" viewBox="0 0 213.81 309.67"><defs><style>.\37 80f7729-e347-4550-9297-f57cac2fc82f{fill:#b93022;}.ea097152-9120-41dd-a909-107324b92d14{fill:#b7594e;}.\39 d42db76-37ab-4ba3-9672-f77c13e41bca{fill:#fefefe;}.\39 6062ad0-3091-4cd5-a98e-bb99d013726c{fill:#9f251c;}.\34 ecf2e96-9f5c-4d2a-a991-9af6c10a6a5a{fill:#171716;}.fa9cbcd7-6667-4e3f-8535-24d74f55adef{fill:#1f1c18;}.\30 d7e27bf-cbf0-4695-98be-5c517242989f{fill:#e8e8e8;}.d989e14f-b8ce-4201-afcc-580bd0029cf4{fill:#383938;}.\34 5c04fe6-4b30-410d-a26d-a807c1396917{fill:#95b4c7;}.\30 667b9b5-7815-4453-8d34-22be6362e71a{fill:#dadada;}.aa155bcc-7cf4-43c1-88f7-268860fc388c{fill:#8a704b;}.\37 42296a2-eadd-44c8-9176-9031a49b92da{fill:#f6cca0;}.\36 99851fd-d429-4d41-98fc-11ca27550847{fill:#fefdfd;}.a413ecd5-3748-4932-a1b8-d4b2750e64c5{fill:#b3986a;}.\33 b242ba5-ad3c-4db7-bd31-d475417f9a34{fill:#473826;}.b37b8e9b-4b42-4d67-9fd1-0183e3e34ed0{fill:#92754c;}</style></defs><title>card-34</title><path class="780f7729-e347-4550-9297-f57cac2fc82f" d="M322.52,191c1.53-2.82,4.2-3.62,7.1-3.9,1.49-.15,3-.1,4.49-.1H521.56c1.42,0,2.84,0,4.25.09,4.79.35,7.65,2.95,8.43,7.68a21.61,21.61,0,0,1,.24,3.48q0,143.21,0,286.41a27.59,27.59,0,0,1-.08,3c-.68,6.22-3.78,9-10.06,9H331.15c-3.52,0-6.57-.88-8.62-4-1.08-2.69-1.08-5.5-1.08-8.34q0-142.36,0-284.73C321.45,196.65,321.44,193.76,322.52,191Zm203,301.59c3.94-1.57,4.64-2.62,4.64-7.2q0-143.71,0-287.41c0-4.93-1.64-6.63-6.5-6.82-.75,0-1.5,0-2.25,0H352c-6.91,0-13.83-.06-20.74.06-4.73.08-6.22,1.71-6.22,6.47q0,144.08,0,288.16c0,4.24.66,5.16,4.54,6.72.63.81,1.53.51,2.32.51q95.94,0,191.88,0C524.34,493,525.24,493.68,525.57,492.58Z" transform="translate(-320.67 -186.97)"/><path class="ea097152-9120-41dd-a909-107324b92d14" d="M322.52,191c-1.08,2.77-1.07,5.67-1.07,8.59q0,142.36,0,284.73c0,2.84,0,5.65,1.08,8.34-1.88-2.2-1.85-4.9-1.85-7.55q0-65.83,0-131.66,0-77.45,0-154.9C320.67,195.88,320.68,193.2,322.52,191Z" transform="translate(-320.67 -186.97)"/><path class="9d42db76-37ab-4ba3-9672-f77c13e41bca" d="M329.58,492.55c-3.88-1.56-4.54-2.48-4.54-6.72q0-144.08,0-288.16c0-4.76,1.49-6.39,6.22-6.47,6.91-.12,13.83-.06,20.74-.06H521.45c.75,0,1.5,0,2.25,0,4.86.19,6.5,1.89,6.5,6.82q0,143.71,0,287.41c0,4.58-.7,5.63-4.64,7.2-.83,0-1.66-.07-2.5-.07h-96Zm63.47-16.46h0l.51.51h0a1,1,0,0,0,1,.51h0l.52.51h0a1.08,1.08,0,0,0,1,.51h0a1.08,1.08,0,0,0,1,.51h0c.37.57,1,.49,1.52.51h0a1.11,1.11,0,0,0,1,.52c1.81,1.57,4.18,1.18,6.27,1.77.54.15.65-.35.76-.75,1.13.13,2.24.83,3.78.1-2.72-.55-4.77-2.13-7.31-2.17h0a1,1,0,0,0-1-.5h0l-.5-.51c-.92-1-2.38-1.43-3-2.78a1,1,0,0,1,.43-.2c1.15,0,1.51-.87,1.84-1.72,1.11-2.9-1.64-8.43-4.25-10.35l-.64-.43c.31-1.06-.27-2-.56-2.89-1.85-5.87-4-11.62-6.37-17.3-.27-.65-1.18-1.52.37-1.87s1.89-1.54,1.72-3.05a187,187,0,0,1-1-33.64c.07-.94-.15-1.95.58-3,.51,1.32.91,2.49,1.41,3.61,2.48,5.54,6.81,8,12.83,7.22a28.06,28.06,0,0,0,7.8-2.5c1.08-.47,1.72-1.12,1.33-2.28-.5-1.47-1.74-1.16-2.71-.74a29.43,29.43,0,0,1-5.87,2c-4.74,1-8.14-.7-10.18-5.07a31.93,31.93,0,0,1-2-7.18,2.16,2.16,0,0,1,1.13-2.63,30.8,30.8,0,0,0,8-8.14c8.79-12.31,9.12-32-3.73-43.74-12.58-11.54-37.29-12.34-49.82-2.06-8,6.54-12.25,14.75-11.8,25.19a34.48,34.48,0,0,0,6.78,19.24c1.4,1.9.85,2.41-.81,3.36a28.13,28.13,0,0,0-8.85,7.2c-2.66,3.54-2.26,7,1.08,9.92A16.15,16.15,0,0,0,340.9,407c1.45.47,1.68,1.19,1.52,2.56-.77,6.82.05,13.61.33,20.43.25,6.14,2.8,9.75,8.62,11.26a2.07,2.07,0,0,1,1.64,1.92c1.32,8.79-.68,16.5-7.15,22.85a37.8,37.8,0,0,1-8.9,6.37c-1,.55-2,1.17-1.39,2.46s1.82,1.13,3,.53a44,44,0,0,0,9.07-6.15A26.63,26.63,0,0,0,356.91,447c-.21-4.09-.29-4.11,3.81-3.95a90.88,90.88,0,0,0,22.61-1.5c1-.21,1.8-.54,2.36.88a153.57,153.57,0,0,1,5.9,16.12c-3.62.07-3.93,3.14-5,5.53-1.09,3,.48,5.22,2,7.5h0a1.64,1.64,0,0,0,1,1h0l.5.5h0a1.13,1.13,0,0,0,.5,1.06l.94.94a1.14,1.14,0,0,0,1.06.51h0Zm119,9a7,7,0,0,0,2.08-2c4-.1,4.53-.53,5.92-4.52a2.69,2.69,0,0,0,0-.5h0c1.75-1.51,1.22-3.2,0-4.55-1-1.07-2.39-1.67-3.57,0a1.76,1.76,0,0,0-2,1c-1.53,0-3.24-1.67-4.51.51h-.51a1.08,1.08,0,0,0-.49,1c-4.5,0-4.51,0-5.89,4.36-.32,1-.54,2.08-1.58,2.66-.55,0-1.13-.11-1.51.45l-13.5-.07-8.09-2.19c-.4-.11-1.12-.23-1.07.1.29,2.17-1,.58-1.58.71s-.94-.26-1.37.38c7.69,3.37,15.71,3.89,23.91,3.61,2.73-.09,5.48-1.08,8.23-.05,1.86-.09,3.88.65,5.47-1Zm-60.92-52.55c-2.67-1.16-4.71.69-7.59,1.22a5.52,5.52,0,0,0,3.48.42c1.54-.15,2.52-1.75,4.17-1.66-1.93,5-4.17,9.89-5.5,15.12-1.48,5.82-2.11,12.3-1.19,15.32a69.84,69.84,0,0,1,15.16-40.72,9.31,9.31,0,0,0-2.46,1.91C454.8,426.65,453.28,429.81,451.14,432.53Zm36.18-2.69L482.78,426a62.11,62.11,0,0,0-7.42-5.86c-.89-.56-1.93-.94-2.67.09s.14,1.63.82,2.28c2.34,2.24,4.6,4.56,7,6.76,2.74,2.53,5.46,5.14,8.95,6.66,1.29.57,2.86,1,4-.23s.65-2.6,0-3.77a47,47,0,0,0-13.87-15.41c-.73-.52-1.74-1.06-2.42-.09-.57.81.12,1.54.78,2.12,1,.88,2,1.76,2.95,2.68,2.64,2.52,5.37,5,7.21,8.17Zm-23,8c-1.07-.79-2.12-1.59-3.2-2.35a1.62,1.62,0,0,0-1.88-.16c-.7.45-.41,1.11-.32,1.78.15,1.11,1.13,2.09.53,3.35-1.48-1.46-2.93-2.9-4.4-4.33-.63-.61-1.49-1.14-2.22-.55s-.28,1.53.23,2.22c1.47,2,2.89,4.07,4.47,6a20.09,20.09,0,0,0,5.27,4.91,2.77,2.77,0,0,0,3.06.23c.9-.65.76-1.73.28-2.72-.07-.15.13-.42.21-.67,1.18.2,1.82,1.2,2.79,1.65,1.54.71,3.14,1.52,4.61.08s.6-3-.23-4.33a64.71,64.71,0,0,0-11-13.2c-.77-.72-1.74-1.7-2.76-.64-.85.88-.11,1.84.55,2.64l4.61,5.57Zm30-15c.21.13.43.24.63.39,1,.68,2,1.51,3.07.45s0-2-.43-2.9c-.95-2-2-4-2.93-6l.52-.3c.6.56,1.23,1.09,1.81,1.67,2.37,2.33,4.72,4.68,7.12,7,.88.85,2,2,3.21.88s0-2.25-.83-3.1c-3-3.3-6.13-6.55-9.21-9.81a20,20,0,0,0-4.35-3.69c-.91-.53-1.93-1.24-3-.57s-.83,1.88-.85,3,1.25,2.37.41,3c-1.06.79-1.84-.93-2.89-1.29s-1.77-.66-2.58,0-.6,1.69-.17,2.49c3,5.47,6.06,10.88,10.15,15.63a3.55,3.55,0,0,0,3.22,1.49c1.2-.13,1.51-.46.78-1.51-1.47-2.1-2.91-4.23-4.36-6.34ZM440,434.52c3-5.19,6-10.31,10.43-14.47-5.19,3.25-8.25,8.22-10.94,13.51A31.87,31.87,0,0,0,436,440.1c-4,9-4.33,18.68-4.4,28.34,0,.83.53,2.11-1,1.95-1.34-.14-.57-1.33-.54-2,.12-2.82.36-5.63.59-9.06a8.77,8.77,0,0,0-1.75,5.73c-.09,1.8.82,4.15-.31,5.24s-3.42.86-5.21,1.19c-3.07.56-3.06.55-3.16-2.52,0-.88-.17-1.76-.25-2.63l-.29,0-.81,4.15c-1.27-.1-.29-1.36-1.25-1.56a8.09,8.09,0,0,0-.51,2.13c.05,1.54-.72,1.9-2.09,2.11-2.66.41-4.3,4.45-2.92,6.85.25.43.63.43,1,.57a49.73,49.73,0,0,0,15.85,2.93c8.15.31,16.32,0,24.48.07,9.23.06,18.25-1,26.9-4.42,1-.38,2.32-.51,2.21-2-.13-1.67.79-1.6,2-1.59a51.78,51.78,0,0,0,20.79-4.52c1.24-.53,2-1.24,1.74-2.61s.53-1.62,1.62-1.88c3.31-.77,6.71-1.14,9.94-2.31,1.57-.57,1.62-1.7,1.45-3s-1.28-1.25-2.28-1.27a69.53,69.53,0,0,0-15.32,1.79c-4,.82-7.88,2.13-12,1.89-1.23-.07-2.5.29-2.43-1.75,0-1-1-1.48-2-1.48a14.36,14.36,0,0,0-3.72.15c-1.69.47-1.73-.3-1.71-1.58.06-3,0-6,0-9,0-.59.34-1.61-.65-1.57-2.37.09-4.87-.89-6.94,1.5-3.75,4.34-7.78,8.44-11.66,12.67a5.21,5.21,0,0,1-2.85,1.69c-4.48,1.08-9.2.75-13.57,2.63-2.85,1.23-5.6,2.79-8.89,2.94-3.56.16-3.49.33-3.47-3.12C432.59,455.47,435.53,444.82,440,434.52Zm39.72,8.21c1.74.07,2.36-1.11,1.17-2.83-1.36-2-3.08-3.69-4.57-5.58-.45-.56-1.79-1-1-1.88s1.4.37,1.92.81c1.86,1.53,3.6,3.21,5.42,4.78.74.64,1.69,1.53,2.58.49s.27-2-.66-2.76c-3.24-2.67-5.75-6.13-9.24-8.56-2-1.42-3.88-3.12-5.84-4.66-.56-.44-1.28-1.1-2-.35s-.18,1.52.46,2.14c1.56,1.5,3.12,3,4.63,4.53.33.34,1.23.63.58,1.34s-1-.19-1.34-.49a36.24,36.24,0,0,0-5.76-4.74c-.79-.45-1.82-.93-2.46,0s.05,1.64.81,2.32c2.42,2.15,4.89,4.27,7.13,6.6s5,4.11,6,7.47A2,2,0,0,0,479.76,442.73ZM498.12,400a1.91,1.91,0,0,0-2.18,1.89,6.52,6.52,0,0,0,.8,4.34,50.75,50.75,0,0,0,13.51,14.84c.89.64,2,1.19,2.88.12s0-2-.79-2.75c-1.79-1.48-3.66-2.87-5.48-4.32a1.53,1.53,0,0,1-.52-2.28C508.87,407,503.88,399.85,498.12,400Zm20.38,9.94a4.68,4.68,0,0,0-1.35-2.68c-3.92-4.25-6.6-9.33-9.54-14.24a14.55,14.55,0,0,0-1.74-2.42c-.81-.88-1.79-2.29-3-1-1,1.06-2,2.54-.79,4.19a185.65,185.65,0,0,0,11.51,14.72,10.77,10.77,0,0,0,2.6,2.3C517,411.34,518.32,411.65,518.51,409.94Zm-50.12-1.18c-7.27.72-12.17,5.57-17.13,10.31C456.9,415.56,462.37,411.75,468.38,408.76Zm52.2,3.15c-1.17-.14-2-.11-2,1.12,0,1.69.51,3.15,2.36,3.56,1.1.24,2-.2,2.09-1.48A2.86,2.86,0,0,0,520.58,411.91ZM392.37,432.35c.56-4.57-.52-8.94-1.05-13.35A35.32,35.32,0,0,0,392.37,432.35ZM408.49,379a30.42,30.42,0,0,1-5.14,6.61c-.5.49-1.36,1.21-.55,1.8s1.37-.25,1.78-1.06.79-1.71,1.43-2C408.32,383.48,408.43,381.65,408.49,379Zm37.27,62.29c-2.79-.22-4.94.85-7.41,1.45C441.73,444.25,443.37,444,445.75,441.27Zm-2.79,10c-2.56.27-4.83.71-7.24.07C437.62,453.18,440.62,453.2,443,451.27Zm-27.71-42.42c.68.1,1-.43,1.39-.82a1.85,1.85,0,0,0,.35-2.25,1,1,0,0,0-.77-.5c-1,.21-.54,1.16-.72,1.77S414.67,408.16,415.25,408.85Zm49.07,7.32c-2.27-.4-3.69.49-5.61,1.18C460.92,418,462.4,417.31,464.32,416.17Z" transform="translate(-320.67 -186.97)"/><path class="96062ad0-3091-4cd5-a98e-bb99d013726c" d="M329.58,492.55l97.49,0h96c.83,0,1.66,0,2.5.07-.33,1.1-1.23.46-1.79.46q-95.94.06-191.88,0C331.11,493.06,330.21,493.36,329.58,492.55Z" transform="translate(-320.67 -186.97)"/><path class="4ecf2e96-9f5c-4d2a-a991-9af6c10a6a5a" d="M391.58,458.57a153.57,153.57,0,0,0-5.9-16.12c-.56-1.42-1.38-1.09-2.36-.88a90.88,90.88,0,0,1-22.61,1.5c-4.09-.16-4-.14-3.81,3.95a26.63,26.63,0,0,1-9.29,22.21,44,44,0,0,1-9.07,6.15c-1.15.6-2.31.86-3-.53s.34-1.91,1.39-2.46a37.8,37.8,0,0,0,8.9-6.37c6.47-6.34,8.47-14.06,7.15-22.85a2.07,2.07,0,0,0-1.64-1.92c-5.81-1.51-8.36-5.12-8.62-11.26-.28-6.82-1.1-13.61-.33-20.43.15-1.37-.08-2.08-1.52-2.56a16.15,16.15,0,0,1-5.61-3.19c-3.34-2.92-3.74-6.38-1.08-9.92a28.13,28.13,0,0,1,8.85-7.2c1.67-1,2.21-1.46.81-3.36a34.48,34.48,0,0,1-6.78-19.24c-.45-10.44,3.82-18.64,11.8-25.19,12.53-10.28,37.24-9.48,49.82,2.06,12.85,11.78,12.52,31.43,3.73,43.74a30.8,30.8,0,0,1-8,8.14,2.16,2.16,0,0,0-1.13,2.63,31.93,31.93,0,0,0,2,7.18c2,4.36,5.45,6,10.18,5.07a29.43,29.43,0,0,0,5.87-2c1-.42,2.22-.73,2.71.74.39,1.16-.25,1.8-1.33,2.28a28.06,28.06,0,0,1-7.8,2.5c-6,.73-10.35-1.68-12.83-7.22-.5-1.12-.9-2.29-1.41-3.61-.73,1-.52,2-.58,3a187,187,0,0,0,1,33.64c.17,1.52,0,2.68-1.72,3.05s-.65,1.22-.37,1.87c2.38,5.67,4.52,11.43,6.37,17.3.29.93.87,1.83.56,2.89a2.75,2.75,0,0,0-2.42.58C393,461.26,393.27,459.43,391.58,458.57Zm8.77-77.69c-1.22.84-1.77-.75-2.89-.77-2.35-.06-3.5-1.87-3.76-4a4.05,4.05,0,0,1,3-4.58c3.46-1.16,5.94,1.18,5.78,5.92a11.91,11.91,0,0,0,1-1.71c4.24-12.37,2.23-24.85-8.82-33.73-8.45-6.79-18.31-7.79-28.58-6.65a29.32,29.32,0,0,0-20.67,11.71c-10.88,14.07-2.68,35.27,9.34,42.39a39.24,39.24,0,0,0,25.38,5.44c8.95-1.12,16-5.65,20.43-13.81.22-.06.4-.16.23-.4C400.81,380.68,400.52,380.82,400.35,380.88ZM349,389.36c-1,5.16-1.89,9.95-2.82,14.73-.24,1.22.58,1.36,1.43,1.54,3.57.78,7.13,1.62,10.72,2.33,1.24.25,2.48.43,2.24,2s-1.62,1.54-2.93,1.32a101.59,101.59,0,0,1-10.25-2.15c-1-.28-1.79-.44-1.92,1.18a105.82,105.82,0,0,0,1.17,23.89,2.33,2.33,0,0,0,1.16,1.81,22.61,22.61,0,0,0,8.27,3.39,77.48,77.48,0,0,0,30.21-1.8c1.39-.36,1.61-1,1.46-2.3a181.8,181.8,0,0,1-.53-36.65c.16-1.8-.35-2-1.87-1.49-5.78,1.91-11.65,1.59-17.53.62A39,39,0,0,1,349,389.36Zm-3.28-.37c-3.34,2-6.15,3.71-8.3,6.29s-2,4.63.88,6.62a11.86,11.86,0,0,0,4.57,2.11Z" transform="translate(-320.67 -186.97)"/><path class="fa9cbcd7-6667-4e3f-8535-24d74f55adef" d="M440,434.52c-4.51,10.29-7.45,20.95-7.53,32.28,0,3.45-.09,3.29,3.47,3.12,3.29-.15,6-1.72,8.89-2.94,4.36-1.88,9.08-1.55,13.57-2.63a5.21,5.21,0,0,0,2.85-1.69c3.88-4.23,7.91-8.33,11.66-12.67,2.07-2.39,4.56-1.4,6.94-1.5,1,0,.65,1,.65,1.57,0,3,.06,6,0,9,0,1.28,0,2,1.71,1.58a14.36,14.36,0,0,1,3.72-.15c1,0,2,.52,2,1.48-.07,2,1.2,1.68,2.43,1.75,4.15.25,8.05-1.07,12-1.89A69.53,69.53,0,0,1,517.76,460c1,0,2.1-.15,2.28,1.27s.12,2.43-1.45,3c-3.23,1.17-6.63,1.54-9.94,2.31-1.09.26-1.89.48-1.62,1.88s-.5,2.09-1.74,2.61a51.78,51.78,0,0,1-20.79,4.52c-1.19,0-2.1-.07-2,1.59.11,1.44-1.23,1.57-2.21,2-8.65,3.37-17.68,4.47-26.9,4.42-8.16,0-16.33.24-24.48-.07a49.73,49.73,0,0,1-15.85-2.93c-.38-.14-.76-.14-1-.57-1.38-2.4.26-6.44,2.92-6.85,1.37-.21,2.14-.56,2.09-2.11a8.09,8.09,0,0,1,.51-2.13c1,.2,0,1.46,1.25,1.56l.81-4.15.29,0c.09.88.23,1.75.25,2.63.1,3.07.08,3.08,3.16,2.52,1.79-.33,4.11-.13,5.21-1.19s.21-3.44.31-5.24a8.77,8.77,0,0,1,1.75-5.73c-.24,3.42-.47,6.24-.59,9.06,0,.67-.8,1.86.54,2,1.54.16,1-1.12,1-1.95.07-9.66.36-19.3,4.4-28.34a31.87,31.87,0,0,1,3.56-6.54C440,433.74,440,434.14,440,434.52Zm28.36,23.41a1.7,1.7,0,0,0-1.43,1.56,4.45,4.45,0,0,0-2.29,2.71,3.32,3.32,0,0,0,2.55-2.4,2.13,2.13,0,0,0,1.55-1.5c.5-.3.92-.66.75-1.33a.39.39,0,0,0-.35-.15A1.25,1.25,0,0,0,468.4,457.94Zm-19,9.47a4.12,4.12,0,0,0-2.83,1.18,3.11,3.11,0,0,0-.95.27c-4.95,3.41-11,2.15-16.41,3.61-2.85.76-6.19.52-9.18,1.61l-1,0c-1.65-.25-1.33,1.07-1.55,2l-.45,0c-.49-.54-.34-2-1.7-1.27-1,.58-.46,1.12.2,1.58l-1.12.36c-1.44.13-1,1.36-.71,1.83a1.54,1.54,0,0,0,2.47.53,2.31,2.31,0,0,0,.4,0,1.18,1.18,0,0,0,1.44.45l.55,0c1.8.64,3.49,2.53,5.53.49.19,1.4,1.44,1.27,2.3,1.38,2.27.29,4.57.44,6.86.52,1.14,0,2.53.51,3.15-1.14.11-.28.57-.45,1,0a3.59,3.59,0,0,0,5.19.21c1.94,1.34,1.33-1.6,2.52-1.51-.37,2.86-.37,2.86,2.53,2.05a7.68,7.68,0,0,1,1-.14c1.88.52,3.76,1,5.49-.4l.55,0,1-.05c1.74,1,3.48.64,5.74.1-1.6-.92-2.18-2.4-3.78-2.5.78-1,1.55-.43,2.4-.07s1.15,1.3,2.15,1.07l.08,1.08c2.66.83,5.08-.16,7.52-1a6.16,6.16,0,0,0,3.93-1.13l.2,0h.2a4.2,4.2,0,0,0,3-1.06c1.33.31,2.36-.53,3.43-1s.83-1.69.44-2.41-1.14-.07-1.62.29c-1,.76-2,1.34-2.67-.32l3.3-1.26c-.84-1.13-2.36-.29-2.82-1.59l4-.47a1.09,1.09,0,0,0,1.06,1.33c-.08.89-.26,1.8,1.12,1.87,1.07.06,1.94,0,1.82-1.42,1.29.32,2.25,2,3.88.94,1.48.24,2.63-1.07,4.11-.88,1.79.38,2.73-.76,3.6-2,.23.22.52.68.69.64,2.44-.56,4.88-1.14,7.28-1.84a1.43,1.43,0,0,0,.82-1.67c-.14-.74-.85-.66-1.42-.68l-2.24-.07,1.2-.83c.21-1.11.92-1.08,1.84-.94a10,10,0,0,0,3.76-.54,2.94,2.94,0,0,0,2.43-.12c1.28.19,2.44-.4,3.65-.63.64-.12.88-.71.86-1.35,0-.21.05-.52-.31-.5-2.89.16-6-1.5-8.54,1.25-.25.28-.46.49-.8.27-1.85-1.19-3.59-.23-5.46.15.62.8,1.63,1.15,1.62,2.23-3.15.91-6.47,1.23-9.49,2.6h0c-.94-.24-2,.39-2.87-.43a36.43,36.43,0,0,0,6.4-1.94,2.6,2.6,0,0,0-2.1-.94,36.93,36.93,0,0,0-15,1.28c-6.32,2-12.72,3.72-19,5.73a7.82,7.82,0,0,1-4.17-.05c-1.27-.28-1.46-1-.8-2,.82-1.24,1.69-2.44,2.54-3.65.13-.07.54,0,.13-.33l-.11.34c-3.23.66-6.17,2.33-9.49,2.63l-1-.2a1.07,1.07,0,0,1,0-.44,3.4,3.4,0,0,0,2.57-.86c.21-.14.77-.05.54-.48S449.65,467.15,449.41,467.4Zm36.27-5c-1.89-1-3.51-.44-5.37.63,1,.73,1.61.28,2.22.16,0,.87.24,1.51,1.26,1,.86-.43,2.24.51,2.64-1C486.54,462.84,486.07,462.57,485.68,462.42Zm-6.6-12c-1.31,1.43-2.13,2.36-3,3.26q-6.65,7.09-13.32,14.16c-.41.43-1,.75-.61,1.39s1.12,0,1.48-.22a8.75,8.75,0,0,1,3.69-1.39c3.07-.28,5.93-1.42,8.92-2,2-.38,2.41-1.29,2.38-3.17C478.58,458.63,478.3,454.81,479.08,450.4Zm-6.82,3.23,2.91-2.44A3.39,3.39,0,0,0,472.27,453.63ZM499,463.94l-.74.56c.12.16.22.42.38.47.31.09.66,0,.65-.41C499.31,464.35,499.13,464.16,499,463.94Z" transform="translate(-320.67 -186.97)"/><path class="4ecf2e96-9f5c-4d2a-a991-9af6c10a6a5a" d="M494.63,414.78c1,2,2,4,2.93,6,.43.91,1.46,1.89.43,2.9s-2.11.24-3.07-.45c-.2-.14-.42-.26-.63-.39l-.57-.39c-.29-.25-.7-.61-1-.25s.33.56.55.83a.61.61,0,0,0,.27.29c1.45,2.12,2.89,4.24,4.36,6.34.73,1,.43,1.39-.78,1.51a3.55,3.55,0,0,1-3.22-1.49c-4.1-4.75-7.17-10.16-10.15-15.63-.44-.81-.73-1.77.17-2.49s1.68-.31,2.58,0,1.83,2.08,2.89,1.29c.84-.63-.43-1.94-.41-3s-.23-2.28.85-3,2.09,0,3,.57a20,20,0,0,1,4.35,3.69c3.08,3.26,6.17,6.51,9.21,9.81.79.85,2.2,1.84.83,3.1s-2.32,0-3.21-.88c-2.4-2.3-4.74-4.66-7.12-7-.59-.57-1.21-1.11-1.81-1.67-.14-.22-.2-.63-.59-.41S494.48,414.55,494.63,414.78Z" transform="translate(-320.67 -186.97)"/><path class="4ecf2e96-9f5c-4d2a-a991-9af6c10a6a5a" d="M464.93,437.28l-4.61-5.57c-.66-.79-1.4-1.76-.55-2.64,1-1.06,2-.08,2.76.64a64.71,64.71,0,0,1,11,13.2c.83,1.33,1.68,2.91.23,4.33s-3.07.63-4.61-.08c-1-.45-1.61-1.45-2.79-1.65-.08.25-.29.53-.21.67.48,1,.63,2.07-.28,2.72a2.77,2.77,0,0,1-3.06-.23,20.09,20.09,0,0,1-5.27-4.91c-1.58-1.92-3-4-4.47-6-.5-.69-1-1.57-.23-2.22s1.59-.06,2.22.55c1.47,1.43,2.93,2.88,4.4,4.33.6-1.26-.38-2.24-.53-3.35-.09-.68-.38-1.34.32-1.78a1.62,1.62,0,0,1,1.88.16c1.08.76,2.14,1.57,3.2,2.35.28.38.59,1,1.09.59S465.29,437.58,464.93,437.28Z" transform="translate(-320.67 -186.97)"/><path class="0d7e27bf-cbf0-4695-98be-5c517242989f" d="M500.07,483.54c.38-.57,1-.45,1.51-.45,1.69.33,2.07,0,2.48-2.11.61-3.2,1.46-3.8,4.69-3.27.85.14.85.12.31-1.65a1.08,1.08,0,0,1,.49-1c.17.32.34.4.51,0h0c1.09.16,2.16-.16,3.25.65s1.17-.38,1.26-1.15a1.76,1.76,0,0,1,2-1c3.42.08,3.53.21,3.55,4.52h0c-.37.15-.36.32,0,.5-1.4,4-2,4.42-5.92,4.52-2.58-1.32-2,.67-2.08,2h0c-1.83.28-3.72.24-5.47,1-2.74-1-5.5,0-8.23.05-8.2.28-16.23-.24-23.91-3.61.43-.65,1-.28,1.37-.38s1.86,1.46,1.58-.71c0-.34.68-.21,1.07-.1l8.09,2.19C491.06,485.37,495.56,484.76,500.07,483.54Zm14.38-3.36c-.4.84.06,1.39.39,2.07C515.54,481.33,515.73,480.64,514.45,480.18Z" transform="translate(-320.67 -186.97)"/><path class="4ecf2e96-9f5c-4d2a-a991-9af6c10a6a5a" d="M488,429.35c-1.84-3.22-4.58-5.65-7.21-8.17-1-.92-2-1.8-2.95-2.68-.65-.58-1.35-1.31-.78-2.12.68-1,1.69-.43,2.42.09a47,47,0,0,1,13.87,15.41c.66,1.17,1,2.67,0,3.77s-2.66.79-4,.23c-3.48-1.52-6.2-4.13-8.95-6.66-2.38-2.2-4.64-4.52-7-6.76-.68-.65-1.54-1.29-.82-2.28s1.77-.65,2.67-.09a62.11,62.11,0,0,1,7.42,5.86l4.54,3.88.56.42c.2.19.34.61.7.32s0-.52-.15-.76Z" transform="translate(-320.67 -186.97)"/><path class="fa9cbcd7-6667-4e3f-8535-24d74f55adef" d="M479.77,442.73a2,2,0,0,1-2.17-1.34c-.94-3.36-3.77-5.17-6-7.47s-4.71-4.45-7.13-6.6c-.75-.67-1.41-1.42-.81-2.32s1.68-.48,2.46,0a36.24,36.24,0,0,1,5.76,4.74c.34.3.66,1.23,1.34.49s-.25-1-.58-1.34c-1.51-1.54-3.08-3-4.63-4.53-.65-.62-1.18-1.35-.46-2.14s1.4-.09,2,.35c2,1.53,3.8,3.24,5.84,4.66,3.49,2.43,6,5.89,9.24,8.56.93.77,1.52,1.78.66,2.76s-1.84.15-2.58-.49c-1.82-1.58-3.56-3.25-5.42-4.78-.52-.43-1-1.82-1.92-.81s.57,1.32,1,1.88c1.49,1.89,3.22,3.61,4.57,5.58C482.12,441.62,481.5,442.81,479.77,442.73Z" transform="translate(-320.67 -186.97)"/><path class="0d7e27bf-cbf0-4695-98be-5c517242989f" d="M391.58,458.57c1.69.86,1.39,2.7,2,4.09.18,3.8,1.84,7.25,2.58,10.92.25,1.26,1.55,1,2.45,1.2.6,1.35,2.05,1.78,3,2.78-.44.77.28.39.5.51h0a1,1,0,0,0,1,.5h0c.7,1.5,2.4,1.3,3.53,2.07-.11.4-.23.9-.76.75-2.09-.59-4.46-.2-6.27-1.77a1,1,0,0,0-1-.52h0c-.36-.6-1-.5-1.52-.51h0a1,1,0,0,0-1-.51h0a1,1,0,0,0-1-.51h0l-.52-.51h0a1,1,0,0,0-1-.51h0l-.51-.51h0l-.51-.5h0a1,1,0,0,0-1.06-.51l-.94-.94c0-.44,0-.85-.5-1.06h0l-.5-.5h0a.89.89,0,0,0-1-1h0c-.15-2.63-1.62-4.92-2-7.5C387.65,461.71,388,458.64,391.58,458.57Z" transform="translate(-320.67 -186.97)"/><path class="fa9cbcd7-6667-4e3f-8535-24d74f55adef" d="M498.13,400c5.76-.16,10.75,6.94,8.22,11.84a1.53,1.53,0,0,0,.52,2.28c1.82,1.45,3.69,2.84,5.48,4.32.84.7,1.74,1.61.79,2.75s-2,.53-2.88-.12a50.75,50.75,0,0,1-13.51-14.84,6.52,6.52,0,0,1-.8-4.34A1.91,1.91,0,0,1,498.13,400Zm6.86,8.55a5.78,5.78,0,0,0-5.07-5.62c-1.26-.05-1.72.29-1.13,1.55a28.87,28.87,0,0,0,3.07,5.09c.49.65.95,1.5,2,1.17S504.85,409.36,505,408.56Z" transform="translate(-320.67 -186.97)"/><path class="4ecf2e96-9f5c-4d2a-a991-9af6c10a6a5a" d="M518.51,409.94c-.19,1.71-1.46,1.39-2.35.91a10.77,10.77,0,0,1-2.6-2.3,185.65,185.65,0,0,1-11.51-14.72c-1.22-1.64-.21-3.13.79-4.19,1.25-1.33,2.23.09,3,1a14.55,14.55,0,0,1,1.74,2.42c2.94,4.91,5.61,10,9.54,14.24A4.68,4.68,0,0,1,518.51,409.94Z" transform="translate(-320.67 -186.97)"/><path class="d989e14f-b8ce-4201-afcc-580bd0029cf4" d="M451.15,432.52c2.14-2.71,3.65-5.88,6.06-8.39a9.31,9.31,0,0,1,2.46-1.91,69.84,69.84,0,0,0-15.16,40.72c-.92-3-.29-9.5,1.19-15.32,1.33-5.23,3.57-10.11,5.5-15.12Z" transform="translate(-320.67 -186.97)"/><path class="45c04fe6-4b30-410d-a26d-a807c1396917" d="M398.6,474.77c-.91-.23-2.2.06-2.45-1.2-.74-3.67-2.4-7.12-2.58-10.92a2.75,2.75,0,0,1,2.42-.58l.64.43a24.72,24.72,0,0,0,.72,4.2c.89,2.56,1.81,5.09,1.69,7.86A1,1,0,0,0,398.6,474.77Z" transform="translate(-320.67 -186.97)"/><path class="d989e14f-b8ce-4201-afcc-580bd0029cf4" d="M468.38,408.76c-6,3-11.49,6.8-17.13,10.31C456.22,414.33,461.11,409.48,468.38,408.76Z" transform="translate(-320.67 -186.97)"/><path class="0667b9b5-7815-4453-8d34-22be6362e71a" d="M399,474.57c.12-2.77-.79-5.3-1.69-7.86a24.72,24.72,0,0,1-.72-4.2c2.61,1.92,5.35,7.45,4.25,10.35C400.55,473.7,400.19,474.57,399,474.57Z" transform="translate(-320.67 -186.97)"/><path class="d989e14f-b8ce-4201-afcc-580bd0029cf4" d="M440,434.52c-.05-.38-.07-.78-.51-1,2.69-5.28,5.75-10.26,10.94-13.51C446.06,424.21,443,429.33,440,434.52Z" transform="translate(-320.67 -186.97)"/><path class="fa9cbcd7-6667-4e3f-8535-24d74f55adef" d="M520.58,411.91A2.86,2.86,0,0,1,523,415.1c-.05,1.29-1,1.73-2.09,1.48-1.85-.41-2.35-1.87-2.36-3.56C518.59,411.8,519.41,411.77,520.58,411.91Z" transform="translate(-320.67 -186.97)"/><path class="d989e14f-b8ce-4201-afcc-580bd0029cf4" d="M392.37,432.35A35.32,35.32,0,0,1,391.32,419C391.85,423.41,392.94,427.78,392.37,432.35Z" transform="translate(-320.67 -186.97)"/><path class="d989e14f-b8ce-4201-afcc-580bd0029cf4" d="M408.49,379c-.06,2.67-.16,4.5-2.48,5.4-.64.25-1.07,1.23-1.43,2s-.91,1.69-1.78,1.06.05-1.31.55-1.8A30.42,30.42,0,0,0,408.49,379Z" transform="translate(-320.67 -186.97)"/><path class="0667b9b5-7815-4453-8d34-22be6362e71a" d="M509.06,476.06c.54,1.77.54,1.79-.31,1.65-3.23-.53-4.08.06-4.69,3.27-.4,2.11-.78,2.44-2.48,2.11,1-.58,1.26-1.65,1.58-2.66C504.55,476.06,504.55,476.06,509.06,476.06Z" transform="translate(-320.67 -186.97)"/><path class="d989e14f-b8ce-4201-afcc-580bd0029cf4" d="M445.75,441.27c-2.39,2.68-4,3-7.41,1.45C440.82,442.12,443,441.05,445.75,441.27Z" transform="translate(-320.67 -186.97)"/><path class="d989e14f-b8ce-4201-afcc-580bd0029cf4" d="M451.2,432.51c-1.65-.09-2.63,1.51-4.17,1.66a5.52,5.52,0,0,1-3.48-.42c2.89-.53,4.93-2.39,7.6-1.23Z" transform="translate(-320.67 -186.97)"/><path class="0667b9b5-7815-4453-8d34-22be6362e71a" d="M500.07,483.54c-4.5,1.22-9,1.83-13.5-.07Z" transform="translate(-320.67 -186.97)"/><path class="aa155bcc-7cf4-43c1-88f7-268860fc388c" d="M443,451.27c-2.35,1.93-5.34,1.91-7.24.07C438.13,452,440.4,451.54,443,451.27Z" transform="translate(-320.67 -186.97)"/><path class="0667b9b5-7815-4453-8d34-22be6362e71a" d="M520.08,478.09c0-4.31-.13-4.45-3.55-4.52,1.17-1.7,2.61-1.09,3.57,0C521.3,474.89,521.83,476.58,520.08,478.09Z" transform="translate(-320.67 -186.97)"/><path class="0667b9b5-7815-4453-8d34-22be6362e71a" d="M406.6,480.63c-1.13-.77-2.83-.57-3.53-2.07,2.54,0,4.59,1.62,7.31,2.17C408.84,481.45,407.73,480.76,406.6,480.63Z" transform="translate(-320.67 -186.97)"/><path class="0667b9b5-7815-4453-8d34-22be6362e71a" d="M386.58,464.09c.36,2.58,1.83,4.86,2,7.5C387.06,469.31,385.49,467.05,386.58,464.09Z" transform="translate(-320.67 -186.97)"/><path class="d989e14f-b8ce-4201-afcc-580bd0029cf4" d="M415.25,408.85c-.59-.69.08-1.23.25-1.79s-.31-1.57.72-1.77a1,1,0,0,1,.77.5,1.85,1.85,0,0,1-.35,2.25C416.25,408.41,415.93,408.95,415.25,408.85Z" transform="translate(-320.67 -186.97)"/><path class="d989e14f-b8ce-4201-afcc-580bd0029cf4" d="M464.32,416.17c-1.92,1.14-3.4,1.85-5.61,1.18C460.63,416.66,462.05,415.77,464.32,416.17Z" transform="translate(-320.67 -186.97)"/><path class="0667b9b5-7815-4453-8d34-22be6362e71a" d="M514.56,474.55c-.09.78,0,2.06-1.26,1.15s-2.17-.49-3.25-.65C511.32,472.87,513,474.52,514.56,474.55Z" transform="translate(-320.67 -186.97)"/><path class="0667b9b5-7815-4453-8d34-22be6362e71a" d="M506.6,486c1.75-.73,3.64-.68,5.47-1C510.47,486.7,508.46,486,506.6,486Z" transform="translate(-320.67 -186.97)"/><path class="0667b9b5-7815-4453-8d34-22be6362e71a" d="M512.06,485.08c.07-1.31-.5-3.3,2.08-2A7,7,0,0,1,512.06,485.08Z" transform="translate(-320.67 -186.97)"/><path class="0667b9b5-7815-4453-8d34-22be6362e71a" d="M397,478.58c.56,0,1.16-.09,1.52.51C398,479.07,397.42,479.16,397,478.58Z" transform="translate(-320.67 -186.97)"/><path class="0667b9b5-7815-4453-8d34-22be6362e71a" d="M388.55,471.58a.89.89,0,0,1,1,1A1.64,1.64,0,0,1,388.55,471.58Z" transform="translate(-320.67 -186.97)"/><path class="0667b9b5-7815-4453-8d34-22be6362e71a" d="M391.49,475.09a1,1,0,0,1,1.06.51A1.14,1.14,0,0,1,391.49,475.09Z" transform="translate(-320.67 -186.97)"/><path class="0667b9b5-7815-4453-8d34-22be6362e71a" d="M398.55,479.08a1,1,0,0,1,1,.52A1.11,1.11,0,0,1,398.55,479.08Z" transform="translate(-320.67 -186.97)"/><path class="0667b9b5-7815-4453-8d34-22be6362e71a" d="M403.07,478.56a1,1,0,0,1-1-.5A1,1,0,0,1,403.07,478.56Z" transform="translate(-320.67 -186.97)"/><path class="0667b9b5-7815-4453-8d34-22be6362e71a" d="M396,478.08a1,1,0,0,1,1,.51A1.08,1.08,0,0,1,396,478.08Z" transform="translate(-320.67 -186.97)"/><path class="0667b9b5-7815-4453-8d34-22be6362e71a" d="M390,473.08c.46.21.52.62.5,1.06A1.13,1.13,0,0,1,390,473.08Z" transform="translate(-320.67 -186.97)"/><path class="0667b9b5-7815-4453-8d34-22be6362e71a" d="M402.08,478.06c-.22-.12-.94.26-.5-.51Z" transform="translate(-320.67 -186.97)"/><path class="0667b9b5-7815-4453-8d34-22be6362e71a" d="M395,477.58a1,1,0,0,1,1,.51A1.08,1.08,0,0,1,395,477.58Z" transform="translate(-320.67 -186.97)"/><path class="0667b9b5-7815-4453-8d34-22be6362e71a" d="M393.55,476.59a1,1,0,0,1,1,.51A1,1,0,0,1,393.55,476.59Z" transform="translate(-320.67 -186.97)"/><path class="0667b9b5-7815-4453-8d34-22be6362e71a" d="M520.07,478.58c-.34-.18-.35-.34,0-.5A2.68,2.68,0,0,1,520.07,478.58Z" transform="translate(-320.67 -186.97)"/><path class="0667b9b5-7815-4453-8d34-22be6362e71a" d="M394.55,477.08l.52.51Z" transform="translate(-320.67 -186.97)"/><path class="0667b9b5-7815-4453-8d34-22be6362e71a" d="M393,476.08l.51.51Z" transform="translate(-320.67 -186.97)"/><path class="0667b9b5-7815-4453-8d34-22be6362e71a" d="M392.55,475.59l.51.5Z" transform="translate(-320.67 -186.97)"/><path class="0667b9b5-7815-4453-8d34-22be6362e71a" d="M510,475.06c-.17.4-.34.32-.51,0Z" transform="translate(-320.67 -186.97)"/><path class="0667b9b5-7815-4453-8d34-22be6362e71a" d="M389.55,472.58l.5.5Z" transform="translate(-320.67 -186.97)"/><path class="742296a2-eadd-44c8-9176-9031a49b92da" d="M400.6,381.11c-4.4,8.17-11.48,12.69-20.43,13.81a39.24,39.24,0,0,1-25.38-5.44c-12-7.12-20.22-28.32-9.34-42.39a29.32,29.32,0,0,1,20.67-11.71c10.28-1.15,20.14-.14,28.58,6.65,11,8.88,13.06,21.36,8.82,33.73a11.91,11.91,0,0,1-1,1.71c.16-4.73-2.32-7.08-5.78-5.92a4.05,4.05,0,0,0-3,4.58c.26,2.09,1.41,3.91,3.76,4,1.12,0,1.67,1.62,2.89.77Zm-9.6.76a43.5,43.5,0,0,0-13.4-1.16c-3.85.21-5.54,1.77-5.86,5.4-.19,2.06.57,2.86,2.6,2.43a26.67,26.67,0,0,1,6.21-.43c2.33.05,4.65.26,7,.33.65,0,1.6.29,1.27-1.08C388.28,385.23,389.17,383.51,391,381.88Zm-15.29-11.37c-2.27,0-4.76,2.34-4.64,4.28a4.92,4.92,0,0,0,5.22,4.65,4.78,4.78,0,0,0,4.12-4.56A4.39,4.39,0,0,0,375.72,370.51ZM378,359.34a3.35,3.35,0,0,0-3.62-.18c-2.58,1.25-4.1,3.55-5.4,6-.37.7-.62,1.53.36,1.87,1.13.4,1.09-.61,1.29-1.3,1-3.3,2.83-5.63,6.62-5.7C377.57,360,377.91,359.94,378,359.34Zm23.61,5.1c-.52-3.37-2.62-4.65-5.71-3.93C398,361.44,400.25,361.76,401.6,364.44Z" transform="translate(-320.67 -186.97)"/><path class="45c04fe6-4b30-410d-a26d-a807c1396917" d="M349,389.36a39,39,0,0,0,18.81,8.44c5.88,1,11.75,1.29,17.53-.62,1.52-.5,2-.31,1.87,1.49a181.8,181.8,0,0,0,.53,36.65c.15,1.31-.08,1.93-1.46,2.3a77.48,77.48,0,0,1-30.21,1.8,22.61,22.61,0,0,1-8.27-3.39,2.33,2.33,0,0,1-1.16-1.81,105.82,105.82,0,0,1-1.17-23.89c.14-1.62.9-1.46,1.92-1.18a101.59,101.59,0,0,0,10.25,2.15c1.31.22,2.67.39,2.93-1.32s-1-1.76-2.24-2c-3.59-.71-7.15-1.55-10.72-2.33-.86-.19-1.67-.33-1.43-1.54C347.13,399.31,348,394.52,349,389.36Z" transform="translate(-320.67 -186.97)"/><path class="699851fd-d429-4d41-98fc-11ca27550847" d="M345.74,389l-2.85,15a11.86,11.86,0,0,1-4.57-2.11c-2.86-2-3.11-3.95-.88-6.62S342.4,391,345.74,389Z" transform="translate(-320.67 -186.97)"/><path class="742296a2-eadd-44c8-9176-9031a49b92da" d="M400.35,380.88c.17-.06.46-.2.49-.16.16.24,0,.34-.23.4Z" transform="translate(-320.67 -186.97)"/><path class="a413ecd5-3748-4932-a1b8-d4b2750e64c5" d="M457.56,466.57c-.85,1.22-1.72,2.42-2.54,3.65-.66,1-.48,1.7.8,2a7.82,7.82,0,0,0,4.17.05c6.31-2,12.71-3.74,19-5.73a36.93,36.93,0,0,1,15-1.28,2.6,2.6,0,0,1,2.1.94,36.42,36.42,0,0,1-6.4,1.94c-.8.16-.54.86-.68,1.35a21.37,21.37,0,0,0-5.12.94l-1.82.21-1,.15-4,.47c.46,1.3,2,.46,2.82,1.59l-3.3,1.26c-5,.73-9.88,1.85-14.91,2.07-1.74.22-3.36,1.06-5.15,1a51.3,51.3,0,0,0-8,.1l-1,.09-.64.17-21.85.09a6.27,6.27,0,0,0-1.92-.38c-2.44.3-3.52-.65-3.12-3.13,3-1.1,6.33-.85,9.18-1.61,5.43-1.45,11.47-.2,16.41-3.61a3.11,3.11,0,0,1,.95-.27h.54a1.07,1.07,0,0,0,0,.44c.22.61.57.55,1,.2,3.33-.29,6.27-2,9.49-2.63Z" transform="translate(-320.67 -186.97)"/><path class="a413ecd5-3748-4932-a1b8-d4b2750e64c5" d="M479.08,450.4c-.78,4.41-.5,8.23-.44,12,0,1.88-.38,2.8-2.38,3.17-3,.56-5.85,1.71-8.92,2a8.75,8.75,0,0,0-3.69,1.39c-.36.21-1,1-1.48.22s.2-1,.61-1.39q6.69-7.05,13.32-14.16C477,452.75,477.78,451.83,479.08,450.4Z" transform="translate(-320.67 -186.97)"/><path class="aa155bcc-7cf4-43c1-88f7-268860fc388c" d="M442.55,481.07a3.59,3.59,0,0,1-5.19-.21c-.4-.48-.86-.3-1,0-.63,1.64-2,1.18-3.15,1.14-2.29-.08-4.59-.23-6.86-.52-.86-.11-2.11,0-2.3-1.38l0,0c.78.1,1-.35,1-1v0c.84-.45,1.51-1.12,2.64-1.08,3.22.12,6.45,0,9.68.07.71,0,1.57-.2,1.64.95-.43,0-.81.11-.9.61,0,.06.08.2.12.2.47,0,.69-.34.85-.73,1.75-1.94,2,.61,3,1l0,0c-.07.47,0,.87.52,1Z" transform="translate(-320.67 -186.97)"/><path class="3b242ba5-ad3c-4db7-bd31-d475417f9a34" d="M461.65,476.16c5-.22,9.95-1.34,14.91-2.07.71,1.66,1.66,1.08,2.67.32.48-.36,1.16-1.13,1.62-.29s.61,1.93-.44,2.41-2.1,1.33-3.43,1a2.35,2.35,0,0,0-1.93-1.46c0-.4.51-1.06-.43-.94s-1.73.38-2.64.59c.51.81,1,1.56,2.08,1.33L474,478.6h-.2l-.2,0c-1.3-.5-2.48-2-4-.51-.36-.63,1-1.68-.06-1.83-1.36-.18-3.09-.43-4,1.33l-2,.51C463.91,476.46,461.42,477.66,461.65,476.16Z" transform="translate(-320.67 -186.97)"/><path class="3b242ba5-ad3c-4db7-bd31-d475417f9a34" d="M483.9,470.43a21.4,21.4,0,0,1,5.12-.94c1.18-.33,2.51-.08,3.55-.92h0c3.21.26,6.09-1.41,9.23-1.59l2.24.07c.57,0,1.28-.07,1.42.68a1.43,1.43,0,0,1-.82,1.67c-2.4.7-4.84,1.28-7.28,1.84-.17,0-.46-.41-.69-.64.38-.63.45-1.78,1.66-1.1.39.22.72.48,1-.07a1.22,1.22,0,0,0,.1-.92c-.26-.48-.69-.15-1.07-.08L484.54,471Z" transform="translate(-320.67 -186.97)"/><path class="aa155bcc-7cf4-43c1-88f7-268860fc388c" d="M484.54,471l13.76-2.61c.38-.07.82-.4,1.07.08a1.22,1.22,0,0,1-.1.92c-.25.55-.58.29-1,.07-1.21-.68-1.28.47-1.66,1.1-.87,1.25-1.81,2.4-3.6,2-.9-2.39-1.6-2.72-2.95-1-1,1.25-1.32-.23-2-.12l-.34-.13.12.36c0,.79.78,1.14,1,1.79-1.63,1.07-2.59-.62-3.88-.94l0,0a.48.48,0,0,0-.52-.52l0,0,0-.5v-.53Z" transform="translate(-320.67 -186.97)"/><path class="3b242ba5-ad3c-4db7-bd31-d475417f9a34" d="M502,466c0-1.07-1-1.43-1.62-2.23,1.87-.39,3.61-1.34,5.46-.15.34.22.55,0,.8-.27,2.5-2.75,5.66-1.09,8.54-1.25.36,0,.3.29.31.5,0,.64-.22,1.23-.86,1.35-1.21.23-2.37.82-3.65.63-.36-1.2-1.14-1.83-2.37-1.36-.93.35-.62,1-.06,1.48a10,10,0,0,1-3.76.54c-.92-.14-1.63-.17-1.84.94Z" transform="translate(-320.67 -186.97)"/><path class="b37b8e9b-4b42-4d67-9fd1-0183e3e34ed0" d="M461.65,476.16c-.24,1.5,2.26.3,1.91,1.92h0c-.48.18-.7.48-.5,1h0c-.52-.19-.79.09-1,.52-1,.23-1.41-.76-2.15-1.07s-1.63-.95-2.4.07c-.46,1-1.68,1.29-2,2.4l-1,.05c-.34-1.11-.47-2.38-2-2.48h0c.76-2,2.93-.13,3.93-1.45C458.3,477.21,459.92,476.37,461.65,476.16Z" transform="translate(-320.67 -186.97)"/><path class="b37b8e9b-4b42-4d67-9fd1-0183e3e34ed0" d="M448.56,481.47a7.68,7.68,0,0,0-1,.14c-2.91.8-2.91.81-2.53-2.05l0,0c.38,0,.5-.2.52-.52l0,0c.69-1.12,1.86-1.05,3-1.18.8.37,1.88-.34,2.52.66C450.23,479.56,449.8,480.86,448.56,481.47Z" transform="translate(-320.67 -186.97)"/><path class="3b242ba5-ad3c-4db7-bd31-d475417f9a34" d="M420,474.07c-.4,2.48.67,3.42,3.12,3.13a6.27,6.27,0,0,1,1.92.38l-.05.57c-1.41-.32-2.56-.13-2.76,2.32-1.28-3.58-2.5-2-3.7-.89l-.55,0,.81-1.84-2.18-.2c-.21-.24-.43-.46-.74-.13l.56.36.11,1.36a2.31,2.31,0,0,1-.4,0l-1.76-2.36,1.12-.36c.52,0,1.09.26,1.5-.3l.45,0c.36.78,1.06,1.17,1.76.79s.06-1,0-1.55-.12-.8-.18-1.2Z" transform="translate(-320.67 -186.97)"/><path class="b37b8e9b-4b42-4d67-9fd1-0183e3e34ed0" d="M463.56,478.08l2-.51h0a1.55,1.55,0,0,0,2,1h0c.11,1.45,1.25.8,2,1l.13.15c-2.45.81-4.87,1.8-7.53,1a1.91,1.91,0,0,0,.91-1.6h0a.7.7,0,0,0,.5-1Z" transform="translate(-320.67 -186.97)"/><path class="b37b8e9b-4b42-4d67-9fd1-0183e3e34ed0" d="M418.55,479.57c1.2-1.14,2.42-2.69,3.7.89.2-2.45,1.35-2.64,2.76-2.32l0,.93v0c-.83-.15-1,.4-1,1l0,0C422,482.1,420.35,480.21,418.55,479.57Z" transform="translate(-320.67 -186.97)"/><path class="aa155bcc-7cf4-43c1-88f7-268860fc388c" d="M448.56,481.47c1.24-.61,1.67-1.91,2.47-2.9.52.8,1,.1,1.54,0h0a4.37,4.37,0,0,0,1.48,2.51C452.31,482.51,450.43,482,448.56,481.47Z" transform="translate(-320.67 -186.97)"/><path class="aa155bcc-7cf4-43c1-88f7-268860fc388c" d="M455.56,481c.27-1.11,1.49-1.45,2-2.4,1.6.1,2.18,1.58,3.78,2.5C459,481.63,457.3,482,455.56,481Z" transform="translate(-320.67 -186.97)"/><path class="3b242ba5-ad3c-4db7-bd31-d475417f9a34" d="M488.14,471.48c.64-.11,1,1.37,2,.12,1.35-1.7,2-1.38,2.95,1-1.47-.18-2.62,1.12-4.11.88-.24-.65-1-1-1-1.79Z" transform="translate(-320.67 -186.97)"/><path class="b37b8e9b-4b42-4d67-9fd1-0183e3e34ed0" d="M445.07,479.56c-1.2-.09-.58,2.85-2.52,1.51l0,0c0-.44,0-.86-.52-1l0,0c.3-.64-1-1.61,0-1.83s2.72-1,3.48.84l0,0c-.36,0-.51.19-.52.52Z" transform="translate(-320.67 -186.97)"/><path class="b37b8e9b-4b42-4d67-9fd1-0183e3e34ed0" d="M502,466l1,.18-1.21.83c-3.14.18-6,1.85-9.23,1.59C495.57,467.2,498.88,466.88,502,466Z" transform="translate(-320.67 -186.97)"/><path class="b37b8e9b-4b42-4d67-9fd1-0183e3e34ed0" d="M469.57,478.07c1.55-1.5,2.73,0,4,.51a6.17,6.17,0,0,1-3.93,1.13l-.13-.15q0-.74,0-1.47Z" transform="translate(-320.67 -186.97)"/><path class="3b242ba5-ad3c-4db7-bd31-d475417f9a34" d="M485.68,462.42c.39.15.85.42.75.82-.39,1.49-1.78.55-2.64,1-1,.51-1.26-.14-1.26-1l2.06-.57c.21.27.36.17.48-.08Z" transform="translate(-320.67 -186.97)"/><path class="aa155bcc-7cf4-43c1-88f7-268860fc388c" d="M485.05,472.56c.11,1.4-.75,1.48-1.82,1.42-1.38-.07-1.2-1-1.12-1.87h0l2.49,0,0,0c0,.33.16.53.52.52Z" transform="translate(-320.67 -186.97)"/><path class="aa155bcc-7cf4-43c1-88f7-268860fc388c" d="M474,478.6l.06-1.53,0,0c.34,0,.48-.21.52-.52l0,0a.5.5,0,0,0,.51-.51h0a2.35,2.35,0,0,1,1.93,1.46A4.2,4.2,0,0,1,474,478.6Z" transform="translate(-320.67 -186.97)"/><path class="a413ecd5-3748-4932-a1b8-d4b2750e64c5" d="M485.68,462.42l-.61.14a.82.82,0,0,0-.48.08l-2.06.57c-.61.11-1.2.56-2.22-.16C482.17,462,483.79,461.45,485.68,462.42Z" transform="translate(-320.67 -186.97)"/><path class="a413ecd5-3748-4932-a1b8-d4b2750e64c5" d="M419,474.1c.06.4.11.8.18,1.2s.63,1.22,0,1.55-1.4,0-1.76-.79C417.68,475.17,417.36,473.85,419,474.1Z" transform="translate(-320.67 -186.97)"/><path class="a413ecd5-3748-4932-a1b8-d4b2750e64c5" d="M472.27,453.63a3.39,3.39,0,0,1,2.91-2.44Z" transform="translate(-320.67 -186.97)"/><path class="aa155bcc-7cf4-43c1-88f7-268860fc388c" d="M414.4,476.74l1.76,2.36a1.54,1.54,0,0,1-2.47-.53C413.4,478.1,413,476.87,414.4,476.74Z" transform="translate(-320.67 -186.97)"/><path class="aa155bcc-7cf4-43c1-88f7-268860fc388c" d="M508.59,464.67c-.57-.52-.88-1.13.06-1.48,1.24-.47,2,.16,2.37,1.36A2.94,2.94,0,0,1,508.59,464.67Z" transform="translate(-320.67 -186.97)"/><path class="a413ecd5-3748-4932-a1b8-d4b2750e64c5" d="M417,476.08c-.41.56-1,.32-1.5.3-.66-.45-1.24-1-.2-1.58C416.68,474.06,416.53,475.55,417,476.08Z" transform="translate(-320.67 -186.97)"/><path class="b37b8e9b-4b42-4d67-9fd1-0183e3e34ed0" d="M416.63,477.49l2.18.2-.81,1.84a1.18,1.18,0,0,1-1.45-.45l-.11-1.36Z" transform="translate(-320.67 -186.97)"/><path class="b37b8e9b-4b42-4d67-9fd1-0183e3e34ed0" d="M467.24,459.81a3.33,3.33,0,0,1-2.55,2.4,4.45,4.45,0,0,1,2.29-2.71A2.86,2.86,0,0,1,467.24,459.81Z" transform="translate(-320.67 -186.97)"/><path class="3b242ba5-ad3c-4db7-bd31-d475417f9a34" d="M454,481.07a4.37,4.37,0,0,1-1.48-2.51c1.56.1,1.7,1.38,2,2.48Z" transform="translate(-320.67 -186.97)"/><path class="b37b8e9b-4b42-4d67-9fd1-0183e3e34ed0" d="M492.57,468.56c-1,.84-2.37.59-3.55.92.14-.49-.12-1.19.68-1.35C490.56,468.95,491.63,468.32,492.57,468.56Z" transform="translate(-320.67 -186.97)"/><path class="aa155bcc-7cf4-43c1-88f7-268860fc388c" d="M447.12,468.58h-.54a4.12,4.12,0,0,1,2.83-1.18l.28.32A3.41,3.41,0,0,1,447.12,468.58Z" transform="translate(-320.67 -186.97)"/><path class="b37b8e9b-4b42-4d67-9fd1-0183e3e34ed0" d="M467,459.49a1.7,1.7,0,0,1,1.43-1.56l.39.36a2.14,2.14,0,0,1-1.55,1.51A2.83,2.83,0,0,0,467,459.49Z" transform="translate(-320.67 -186.97)"/><path class="3b242ba5-ad3c-4db7-bd31-d475417f9a34" d="M499,463.94c.11.22.28.41.29.61,0,.43-.34.51-.65.41-.16,0-.26-.31-.38-.47Z" transform="translate(-320.67 -186.97)"/><path class="3b242ba5-ad3c-4db7-bd31-d475417f9a34" d="M481.05,470.78l1-.15v1.48h0A1.09,1.09,0,0,1,481.05,470.78Z" transform="translate(-320.67 -186.97)"/><path class="3b242ba5-ad3c-4db7-bd31-d475417f9a34" d="M463.06,479.08a1.91,1.91,0,0,1-.91,1.6l-.08-1.08C462.26,479.17,462.54,478.89,463.06,479.08Z" transform="translate(-320.67 -186.97)"/><path class="b37b8e9b-4b42-4d67-9fd1-0183e3e34ed0" d="M468.4,457.94a1.25,1.25,0,0,1,.78-1.11.39.39,0,0,1,.35.15c.17.67-.25,1-.75,1.33Z" transform="translate(-320.67 -186.97)"/><path class="aa155bcc-7cf4-43c1-88f7-268860fc388c" d="M448.08,469.21c-.41.35-.76.41-1-.2Z" transform="translate(-320.67 -186.97)"/><path class="aa155bcc-7cf4-43c1-88f7-268860fc388c" d="M449.41,467.4c.25-.25.67-.45.82-.16s-.33.34-.54.48Z" transform="translate(-320.67 -186.97)"/><path class="a413ecd5-3748-4932-a1b8-d4b2750e64c5" d="M457.58,466.59l.11-.34c.41.29,0,.25-.13.33Z" transform="translate(-320.67 -186.97)"/><path class="9d42db76-37ab-4ba3-9672-f77c13e41bca" d="M493.32,423c-.22-.27-.86-.4-.55-.83s.67,0,1,.25Z" transform="translate(-320.67 -186.97)"/><path class="9d42db76-37ab-4ba3-9672-f77c13e41bca" d="M493.59,423.27a.61.61,0,0,1-.27-.29l.41-.58.57.39Z" transform="translate(-320.67 -186.97)"/><path class="9d42db76-37ab-4ba3-9672-f77c13e41bca" d="M494.63,414.78c-.16-.23-.44-.49-.07-.71s.45.18.59.41Z" transform="translate(-320.67 -186.97)"/><path class="9d42db76-37ab-4ba3-9672-f77c13e41bca" d="M464.93,437.28c.36.3,1,.66.47,1.12s-.81-.21-1.09-.59Z" transform="translate(-320.67 -186.97)"/><path class="0667b9b5-7815-4453-8d34-22be6362e71a" d="M514.45,480.18c1.28.47,1.09,1.16.39,2.07C514.51,481.56,514.05,481,514.45,480.18Z" transform="translate(-320.67 -186.97)"/><path class="9d42db76-37ab-4ba3-9672-f77c13e41bca" d="M487.88,430.26l-.56-.42.72-.49.38.47Z" transform="translate(-320.67 -186.97)"/><path class="9d42db76-37ab-4ba3-9672-f77c13e41bca" d="M488.43,429.83c.16.24.5.48.15.76s-.5-.13-.7-.32Z" transform="translate(-320.67 -186.97)"/><path class="0d7e27bf-cbf0-4695-98be-5c517242989f" d="M505,408.56c-.13.8-.09,1.84-1.16,2.18s-1.47-.52-2-1.17a28.87,28.87,0,0,1-3.07-5.09c-.59-1.26-.13-1.6,1.13-1.55A5.78,5.78,0,0,1,505,408.56Z" transform="translate(-320.67 -186.97)"/><path class="4ecf2e96-9f5c-4d2a-a991-9af6c10a6a5a" d="M391,381.88c-1.84,1.63-2.73,3.35-2.2,5.5.33,1.37-.62,1.1-1.27,1.08-2.33-.08-4.65-.28-7-.33a26.67,26.67,0,0,0-6.21.43c-2,.43-2.79-.37-2.6-2.43.33-3.63,2-5.2,5.86-5.4A43.5,43.5,0,0,1,391,381.88Z" transform="translate(-320.67 -186.97)"/><path class="4ecf2e96-9f5c-4d2a-a991-9af6c10a6a5a" d="M375.72,370.51a4.39,4.39,0,0,1,4.7,4.37,4.78,4.78,0,0,1-4.12,4.56,4.92,4.92,0,0,1-5.22-4.65C371,372.84,373.45,370.54,375.72,370.51Z" transform="translate(-320.67 -186.97)"/><path class="3b242ba5-ad3c-4db7-bd31-d475417f9a34" d="M378,359.34c-.09.6-.43.68-.75.69-3.79.07-5.62,2.4-6.62,5.7-.21.69-.16,1.7-1.29,1.3-1-.35-.74-1.17-.36-1.87,1.3-2.45,2.82-4.75,5.4-6A3.35,3.35,0,0,1,378,359.34Z" transform="translate(-320.67 -186.97)"/><path class="3b242ba5-ad3c-4db7-bd31-d475417f9a34" d="M401.6,364.44c-1.35-2.68-3.63-3-5.71-3.93C399,359.79,401.08,361.07,401.6,364.44Z" transform="translate(-320.67 -186.97)"/><path class="fa9cbcd7-6667-4e3f-8535-24d74f55adef" d="M445.56,479.09c-.76-1.84-2.36-1.08-3.48-.84s.3,1.19,0,1.83c-1-.38-1.25-2.93-3-1L439,479c-.06-1.15-.93-.94-1.64-.95-3.23,0-6.46.05-9.68-.07-1.14,0-1.81.63-2.64,1.08l0-.93.05-.57,21.85-.09.63-.17,1-.09,0,.69C447.42,478,446.25,478,445.56,479.09Z" transform="translate(-320.67 -186.97)"/><path class="3b242ba5-ad3c-4db7-bd31-d475417f9a34" d="M448.51,477.91l0-.69a51.31,51.31,0,0,1,8-.1c-1,1.33-3.18-.53-3.93,1.45-.51.1-1,.81-1.54,0C450.39,477.57,449.31,478.28,448.51,477.91Z" transform="translate(-320.67 -186.97)"/><path class="fa9cbcd7-6667-4e3f-8535-24d74f55adef" d="M482.08,472.12v-1.48l1.82-.21.64.62h0l-1.11.12v.3l1.11.12,0,.5Z" transform="translate(-320.67 -186.97)"/><path class="3b242ba5-ad3c-4db7-bd31-d475417f9a34" d="M447.55,477.31l-.63.17Z" transform="translate(-320.67 -186.97)"/><path class="fa9cbcd7-6667-4e3f-8535-24d74f55adef" d="M424,480.08c.06-.62.18-1.17,1-1C425.06,479.73,424.83,480.18,424,480.08Z" transform="translate(-320.67 -186.97)"/><path class="fa9cbcd7-6667-4e3f-8535-24d74f55adef" d="M439.08,479.1c-.16.39-.38.71-.85.73,0,0-.13-.14-.12-.2.09-.5.47-.6.9-.61Z" transform="translate(-320.67 -186.97)"/><path class="fa9cbcd7-6667-4e3f-8535-24d74f55adef" d="M442.06,480.06c.52.17.54.59.52,1C442,480.92,442,480.52,442.06,480.06Z" transform="translate(-320.67 -186.97)"/><path class="b37b8e9b-4b42-4d67-9fd1-0183e3e34ed0" d="M465.56,477.57c.86-1.76,2.59-1.51,4-1.33,1.08.15-.3,1.19.06,1.83v0a2.93,2.93,0,0,1-2,.49h0a1.58,1.58,0,0,0-2-1Z" transform="translate(-320.67 -186.97)"/><path class="aa155bcc-7cf4-43c1-88f7-268860fc388c" d="M474.07,477.07c-1.1.23-1.57-.52-2.08-1.33.91-.21,1.76-.48,2.64-.59s.46.54.43.94h0a.51.51,0,0,0-.51.51l0,0-.52.52Z" transform="translate(-320.67 -186.97)"/><path class="3b242ba5-ad3c-4db7-bd31-d475417f9a34" d="M484.53,471.59l-1.11-.12v-.3l1.11-.12Q484.53,471.32,484.53,471.59Z" transform="translate(-320.67 -186.97)"/><path class="3b242ba5-ad3c-4db7-bd31-d475417f9a34" d="M487.92,471.71l-.12-.36.34.13Z" transform="translate(-320.67 -186.97)"/><path class="fa9cbcd7-6667-4e3f-8535-24d74f55adef" d="M485.07,472.58c-.36,0-.51-.19-.52-.52A.48.48,0,0,1,485.07,472.58Z" transform="translate(-320.67 -186.97)"/><path class="3b242ba5-ad3c-4db7-bd31-d475417f9a34" d="M463.57,478.07a.7.7,0,0,1-.5,1C462.87,478.55,463.09,478.25,463.57,478.07Z" transform="translate(-320.67 -186.97)"/><path class="fa9cbcd7-6667-4e3f-8535-24d74f55adef" d="M445.05,479.58c0-.33.16-.54.52-.52C445.55,479.39,445.43,479.61,445.05,479.58Z" transform="translate(-320.67 -186.97)"/><path class="b37b8e9b-4b42-4d67-9fd1-0183e3e34ed0" d="M416.44,477.71l-.56-.36c.32-.32.53-.11.74.13Z" transform="translate(-320.67 -186.97)"/><path class="3b242ba5-ad3c-4db7-bd31-d475417f9a34" d="M467.57,478.58a2.93,2.93,0,0,0,2-.49q0,.74,0,1.47C468.81,479.38,467.67,480,467.57,478.58Z" transform="translate(-320.67 -186.97)"/><path class="3b242ba5-ad3c-4db7-bd31-d475417f9a34" d="M465.57,477.58a1.58,1.58,0,0,1,2,1A1.55,1.55,0,0,1,465.57,477.58Z" transform="translate(-320.67 -186.97)"/><path class="fa9cbcd7-6667-4e3f-8535-24d74f55adef" d="M484.59,462.64a.82.82,0,0,1,.48-.08C484.95,462.81,484.8,462.92,484.59,462.64Z" transform="translate(-320.67 -186.97)"/><path class="3b242ba5-ad3c-4db7-bd31-d475417f9a34" d="M474.05,477.08l.52-.52C474.53,476.87,474.39,477.08,474.05,477.08Z" transform="translate(-320.67 -186.97)"/><path class="3b242ba5-ad3c-4db7-bd31-d475417f9a34" d="M474.55,476.58a.51.51,0,0,1,.51-.51A.5.5,0,0,1,474.55,476.58Z" transform="translate(-320.67 -186.97)"/></svg>