<svg id="604d8a95-a3d1-4be4-a581-5ce8192274cc" data-name="Capa 1" xmlns="http://www.w3.org/2000/svg" viewBox="0 0 97.1 140.75"><defs><style>.e7e3786c-e58b-4942-943c-b456bccf34eb{fill:#070707;}.\30 d0b8a63-7b3c-40e7-8c93-d4c7eabf0086{fill:#fcfcfc;}.c4278158-0e44-407e-aa16-c83a02253d64{fill:#f5ca9e;}.aef3382b-a4c6-44c0-aec6-2fd92c668d2b{fill:#94b3c6;}.\33 32c21be-2e07-4345-a5b3-2c9a6d674b9d{fill:#fafafa;}.dfd2fd91-ed60-44cc-b058-2622ea843290{fill:#111;}.\33 44f2a14-01d2-4c29-9436-3e5f338e3d6b{fill:#161617;}.cb9f43c1-7b68-4568-a998-5647e3223ae4{fill:#141314;}.\31 b36bfcf-ec63-4f7d-8746-994ad6a7895f{fill:#121212;}.e1289a9d-5afc-40a9-9155-d493295711b2{fill:#151415;}.fb2f2839-d683-4748-8cc4-bddcb35c1111{fill:#2a211a;}.\39 292d1c6-779c-4c58-803c-6907ab3fc485{fill:#060504;}.\35 80d4f37-2ef3-4a4b-994b-28e3cd061e37{fill:#705c4a;}.dd7b7565-8052-48b3-b69e-9a4da0d28686{fill:#f4f4f4;}.cdd22340-be65-4371-8d8f-5e4b34d8ed8c{fill:#ededec;}</style></defs><title>card-4</title><path class="e7e3786c-e58b-4942-943c-b456bccf34eb" d="M417.76,741.42q0-32.65,0-65.3a7.32,7.32,0,0,1,.12-1.67,4,4,0,0,1,4-3.33c.56,0,1.12,0,1.68,0h85.75l1.34,0a4,4,0,0,1,4.25,4.12c0,.22,0,.45,0,.67q0,65.43,0,130.85a9.45,9.45,0,0,1-.15,1.83,3.82,3.82,0,0,1-3.8,3.25c-.33,0-.67,0-1,0H422.64c-3.31,0-4.88-1.55-4.88-4.87Q417.76,774.2,417.76,741.42Zm58.87,25.7c0,.28,0,.43,0,.59.31,2.61.56,5.22.77,7.84.49,6.07,1.21,12.11,2,18.15a1.36,1.36,0,0,1-.9,1.6,8.23,8.23,0,0,1-.77.33c-.63.18-.76.51-.64,1.17.75,4.09,1.62,8.16,2.17,12.28.09.7.33.9,1,.9q14.92,0,29.85,0h.5a2.26,2.26,0,0,0,2.19-1.85,6.21,6.21,0,0,0,.13-1.5q0-65.23,0-130.45a6.3,6.3,0,0,0-.06-1.08,2.24,2.24,0,0,0-2.2-2c-.53-.05-1.06,0-1.59,0H423.21c-3,0-3.58.57-3.58,3.56q0,65.06,0,130.12c0,.25,0,.5,0,.75a2.44,2.44,0,0,0,2.63,2.54c7.94,0,15.87,0,23.81,0,.57,0,.79-.17.84-.73q.36-4.09.78-8.17c.05-.48-.07-.7-.55-.83-1.13-.3-2.2-.81-3.32-1.16a2.33,2.33,0,0,1-1.76-2.33c-.18-2.14-.45-4.28-.7-6.41-.82-6.85-1.33-13.73-1.81-20.61-.14-2-.26-3.93-.39-5.91-.1,0-.18,0-.19.08-.1.2-.2.4-.29.6a45.94,45.94,0,0,0-3.1,11.61,90.57,90.57,0,0,0-.66,17.47c0,.94-.44,1.53-1.24,1.57s-1.36-.44-1.41-1.4c-.08-1.62-.14-3.24-.15-4.86A83.91,83.91,0,0,1,433.17,774a40.54,40.54,0,0,1,5-14.3c.31-.52.29-.77-.16-1.16a29.78,29.78,0,0,1-7.83-10.63,24,24,0,0,1,9-30.37,30.44,30.44,0,0,1,14.25-4.75,35,35,0,0,1,11,.46,25.6,25.6,0,0,1,13.42,7.63A21.69,21.69,0,0,1,482.6,728,28.33,28.33,0,0,1,484,743.86,26.64,26.64,0,0,1,476,758.42c-.28.25-.45.4-.08.78,2.29,2.4,4.51,4.89,6.6,7.47a8.09,8.09,0,0,1,1.93,3c.33,1.33-.41,2.09-1.73,1.76a5.05,5.05,0,0,1-1.82-1C479.47,769.36,478.1,768.28,476.63,767.12Zm-20-52a32.6,32.6,0,0,0-8.51,1.17c-7.12,2-12.6,6-15.77,12.83a19.37,19.37,0,0,0-1.94,8.08,24.56,24.56,0,0,0,4.41,13.93,23.35,23.35,0,0,0,10.67,9.09A32.17,32.17,0,0,0,462.61,762a21.24,21.24,0,0,0,5.45-1.58c.18-.08.57-.07.38-.48a3.87,3.87,0,0,0-2.77-1.51l-4.42.36c-1,.08-1.65-.36-1.72-1.15s.43-1.41,1.41-1.51a46.78,46.78,0,0,1,6.11-.21,2.21,2.21,0,0,1,1.77.76,25.07,25.07,0,0,0,1.86,1.69c.36.34.65.42,1.07.09.8-.65,1.7-1.19,2.45-1.9a24.35,24.35,0,0,0,7.8-16.81,23.68,23.68,0,0,0-2.22-11.9,22.46,22.46,0,0,0-10.07-10.09A25.09,25.09,0,0,0,456.63,715.11Zm-15,46.11c0,.3,0,.53,0,.75.26,4,.53,8,.79,12,.47,7.41,1.31,14.79,2.18,22.17a.85.85,0,0,0,.6.79,19.42,19.42,0,0,0,9.88,1.65c1-.12,2-.17,3-.27a62.37,62.37,0,0,0,18.17-4.7c.49-.21.56-.47.5-1-.49-4.1-1-8.2-1.41-12.31-.49-5-.86-10.07-1.5-15.08a1.4,1.4,0,0,0-.5-1c-.71-.58-1.42-1.18-2.08-1.82a.82.82,0,0,0-1.09-.16,24.63,24.63,0,0,1-7,2.29,34.25,34.25,0,0,1-17.88-1.64C444.06,762.4,442.89,761.81,441.59,761.22ZM463.11,810c4.24,0,8.49,0,12.73,0,.69,0,1,0,.82-.89-.62-3.83-1.41-7.62-2.06-11.44-.09-.51-.23-.65-.76-.45a57.31,57.31,0,0,1-10.4,2.85,55.53,55.53,0,0,1-12.32,1c-.63,0-.8.1-.83.73-.13,2.45-.38,4.9-.73,7.33-.1.7.05.85.73.85C454.57,810,458.84,810,463.11,810Z" transform="translate(-417.76 -671.1)"/><path class="0d0b8a63-7b3c-40e7-8c93-d4c7eabf0086" d="M476.63,767.12c1.47,1.16,2.84,2.24,4.22,3.31a5.05,5.05,0,0,0,1.82,1c1.31.33,2.06-.42,1.73-1.76a8.09,8.09,0,0,0-1.93-3c-2.09-2.58-4.3-5.06-6.6-7.47-.37-.39-.2-.53.08-.78A26.64,26.64,0,0,0,484,743.86,28.33,28.33,0,0,0,482.6,728a21.69,21.69,0,0,0-4.75-7.14,25.6,25.6,0,0,0-13.42-7.63,35,35,0,0,0-11-.46,30.44,30.44,0,0,0-14.25,4.75,24,24,0,0,0-9,30.37A29.78,29.78,0,0,0,438,758.49c.45.39.48.64.16,1.16a40.54,40.54,0,0,0-5,14.3,83.91,83.91,0,0,0-1.06,14.94c0,1.62.07,3.24.15,4.86,0,1,.56,1.43,1.41,1.4s1.28-.63,1.24-1.57a90.57,90.57,0,0,1,.66-17.47,45.94,45.94,0,0,1,3.1-11.61c.09-.21.18-.41.29-.6,0,0,.09,0,.19-.08.13,2,.26,3.95.39,5.91.48,6.88,1,13.76,1.81,20.61.26,2.13.53,4.27.7,6.41a2.33,2.33,0,0,0,1.76,2.33c1.11.36,2.18.86,3.32,1.16.48.13.6.34.55.83q-.42,4.08-.78,8.17c0,.56-.27.74-.84.73-7.94,0-15.87,0-23.81,0a2.44,2.44,0,0,1-2.63-2.54c0-.25,0-.5,0-.75q0-65.06,0-130.12c0-3,.57-3.56,3.58-3.56h85.93c.53,0,1.06,0,1.59,0a2.24,2.24,0,0,1,2.2,2,6.3,6.3,0,0,1,.06,1.08q0,65.23,0,130.45a6.21,6.21,0,0,1-.13,1.5,2.26,2.26,0,0,1-2.19,1.85h-.5q-14.92,0-29.85,0c-.71,0-1-.2-1-.9-.55-4.12-1.42-8.19-2.17-12.28-.12-.66,0-1,.64-1.17a8.23,8.23,0,0,0,.77-.33,1.36,1.36,0,0,0,.9-1.6c-.79-6-1.51-12.08-2-18.15-.21-2.62-.46-5.23-.77-7.84C476.62,767.56,476.63,767.4,476.63,767.12Zm7.1-67.69c.34.88.62,1.54.86,2.23.13.38.38.42.71.41s.58,0,.73-.38a37.62,37.62,0,0,0,1.59-5.45c.07-.35,0-.51-.36-.58s-.74-.09-.85.53a17.92,17.92,0,0,1-1.11,3.91c-.72-1.53-1.35-2.92-2.08-4.27-.25-.46-.44-.5-.88-.25-.62.35-.29.72-.06,1,.91,1.16.48,2.21-.18,3.37-.56-1.44-1.16-2.75-1.8-4-.18-.36-.36-.45-.7-.2s-.62.25-.37.74a30.46,30.46,0,0,1,2.11,5c.14.42.42.43.76.47a.59.59,0,0,0,.69-.44C483.05,700.87,483.36,700.25,483.73,699.44Zm8.75-7.13a14.37,14.37,0,0,0,2.49-.45c.51-.13.63-.39.62-.89s-.3-1.29.27-1.94c.37-.43-.13-1-.75-.9l-3,.41c-.37,0-.72,0-.64.61s.21.69.73.59,1.05-.12,1.58-.2c.31,0,.44,0,.49.37.1.6.06,1.05-.69,1.1-.47,0-.94.16-1.41.14a2.23,2.23,0,0,1-2.22-2.42,2.06,2.06,0,0,1,2.36-1.84c.69.07.77-.36.85-.75s-.4-.44-.69-.47a3.26,3.26,0,0,0-3.68,2.94A3.31,3.31,0,0,0,492.48,692.3Zm-14.6-.11a4,4,0,0,0,4.07-3.83,3.26,3.26,0,0,0-3.18-3.32,4.09,4.09,0,0,0-4,3.92A3.05,3.05,0,0,0,477.88,692.2Zm-21.2-2.54.82-.55a2.06,2.06,0,0,0,1.13-2.23,2.17,2.17,0,0,0-1.81-1.65,9.94,9.94,0,0,0-3.17-.1c-.41,0-.5.21-.46.59.18,1.78.33,3.56.49,5.34,0,.36,0,.72.6.65s.68-.16.57-.66.18-.56.61-.44c.91.26,1.84.46,2.75.73.46.14.58,0,.68-.44s.13-.64-.35-.74S457.44,689.86,456.68,689.66ZM428.3,702.53a4,4,0,0,0,4-3.87,3.21,3.21,0,0,0-3.21-3.26,4.06,4.06,0,0,0-4,3.85A3.13,3.13,0,0,0,428.3,702.53Zm4.23-15.06c1,1.39,1.86,2.6,2.69,3.84.26.4.52.38.91.28s.47-.29.46-.65c0-1.67-.11-3.34-.3-5,0-.42-.13-.65-.65-.57s-.56.27-.51.72a18.75,18.75,0,0,1,.2,3.18c-.2-.23-.3-.33-.37-.43a18.82,18.82,0,0,1-2.13-3.29c-.28-.63-.79-.4-1.22-.39s-.34.49-.34.78a23.3,23.3,0,0,0,.45,4.91c.08.36.1.71.68.54s.63-.29.5-.8A9.83,9.83,0,0,1,432.52,687.46Zm37.37,14.37a32.82,32.82,0,0,0-1.19-4.09c-.71-2.12-.72-2.11-2.87-1.58a.71.71,0,0,0-.64.64q-.42,2.52-.9,5c-.08.4,0,.53.43.59s.75-.07.83-.62-.11-1,.45-1.14a4.75,4.75,0,0,1,2.12-.28c.45.1.37,1,.55,1.49,0,.08,0,.17.06.24.15.42.46.17.71.16S470,702.21,469.9,701.83Zm23.25.48c.48,0,.81-.09.66-.78-.3-1.31-.71-2.58-1.14-3.85-.67-2-.67-2-2.75-1.55a.88.88,0,0,0-.81.86c-.25,1.57-.5,3.14-.82,4.7-.13.62.11.69.61.73.72.05.56-.53.6-.86a1,1,0,0,1,1-1c1.67-.23,1.67-.27,2.15,1.39C492.74,702.16,492.77,702.42,493.15,702.31Zm-7.59-10.64.65,0c1.77-.13,2.28-.69,2.09-2.46-.12-1.16-.41-2.31-.55-3.47-.07-.56-.32-.57-.78-.52-.61.06-.46.44-.4.78.17,1,.39,2.09.53,3.14s.08,1.24-1.07,1.32c-.39,0-.78.05-1.17.05-1,0-1.18-.15-1.09-1.19.11-1.2.29-2.38.43-3.58,0-.28.09-.59-.36-.58s-.75-.16-.82.43c-.12,1.11-.32,2.22-.38,3.33C482.52,691.2,483,691.7,485.56,691.67Zm10.85-5.32c.13,1.53.27,3.06.39,4.59,0,.47.28.51.67.48s.63-.14.55-.6-.07-.67-.11-1,.06-.42.35-.45a5,5,0,0,1,2-.15c.46.17.15,1,.27,1.53a.68.68,0,0,1,0,.17c0,.54.32.53.73.5s.53-.26.49-.66c-.16-1.78-.3-3.56-.45-5.34,0-.26,0-.53-.39-.49s-.63-.13-.74.2a2.38,2.38,0,0,0,0,.91c.15,1.88.15,1.86-1.72,2.1-.49.06-.72,0-.72-.56s-.12-1.11-.12-1.67-.19-.59-.65-.58C496.07,685.34,496.51,686,496.41,686.35ZM450.07,685v.1c-.45,0-.89,0-1.34,0s-.68.15-.64.67c.14,1.78.23,3.56.33,5.34,0,.35.14.48.49.5a11.55,11.55,0,0,0,3.07-.32c.59-.14.37-.49.34-.83s-.26-.46-.63-.39-1,.16-1.57.24-.64,0-.64-.51,0-.72.51-.72,1-.11,1.5-.11.59-.22.56-.68-.2-.62-.67-.55-1,.1-1.5.14c-.19,0-.36.05-.46-.21-.33-.87,0-1.36.86-1.4.33,0,.67,0,1,0s.69-.05.66-.6-.21-.68-.71-.63A10.39,10.39,0,0,1,450.07,685Zm12,12.45c.19.6-.1.82-.78.9-1.7.19-1.7.22-1.84-1.47a3.89,3.89,0,0,1,0-.58c0-.45-.09-.66-.61-.62s-.62.19-.58.66c.16,1.61.3,3.22.41,4.84,0,.47.17.59.65.57.71,0,.52-.45.49-.86-.05-.58-.31-1.18.72-1.27,1.68-.14,1.69-.21,1.86,1.53,0,.42.08.67.62.61s.6-.21.56-.68c-.15-1.7-.27-3.39-.39-5.09,0-.46,0-.78-.69-.74s-.55.39-.52.79S462,696.89,462,697.43Zm-24.42-8.89c0,.63.1,1.55.13,2.47,0,.42.18.57.61.59a11.74,11.74,0,0,0,2.9-.31c.51-.12.51-.36.43-.78s-.22-.57-.66-.45-1,.15-1.48.24-.67-.11-.71-.62.22-.6.63-.62.83-.09,1.25-.1.78-.08.72-.7-.37-.58-.79-.53-.84,0-1.25.12-.63-.11-.69-.6c-.1-.75.09-1.09.89-1,.38,0,.78-.05,1.17,0s.55-.21.53-.62-.05-.64-.55-.6c-.92.07-1.84.1-2.76.11-.51,0-.59.23-.55.67C437.49,686.58,437.53,687.41,437.61,688.54Zm34.9-2.2h0a5.94,5.94,0,0,0,.05.75c.12.59-.07.83-.7.9-1.78.22-1.78.25-1.91-1.56a3.82,3.82,0,0,1,0-.58c0-.48-.22-.54-.62-.52s-.62.1-.57.58c.15,1.67.27,3.34.39,5,0,.37.15.53.57.51s.64-.21.62-.72-.38-1.07.15-1.28a3.51,3.51,0,0,1,2-.25c.5.13.19.94.32,1.44a1.4,1.4,0,0,1,0,.33c0,.5.32.48.68.46s.57-.18.53-.62c-.17-1.78-.32-3.56-.44-5.34,0-.47-.21-.54-.62-.53s-.63.13-.56.59C472.48,685.78,472.48,686.06,472.5,686.34Zm13.34,18.85c0-.46-.09-.64-.4-.69a.58.58,0,0,0-.68.35,2.89,2.89,0,0,0-.11.4,19.63,19.63,0,0,1-5,8.86c-.57.58-1.19,1.09-1.79,1.64-.31.28-.76.56-.38,1s.75.17,1.08-.13l.13-.1a21.17,21.17,0,0,0,7.09-11C485.8,705.4,485.83,705.26,485.85,705.18Zm-41.17-15.49a18.23,18.23,0,0,1-1.42-3.9c-.11-.44-.22-.67-.78-.51s-.47.42-.37.8a23.64,23.64,0,0,0,1.93,5.07c.16.3.22.68.75.61a.86.86,0,0,0,.84-.73,30.6,30.6,0,0,1,1.8-4.85c.22-.48.19-.71-.31-1s-.61.12-.74.43C445.81,687,445.26,688.3,444.67,689.69ZM497,702.2c.49.13.65-.12.6-.63s0-.9-.08-1.33a3.27,3.27,0,0,1,1.5-3.85c.39-.23.49-.51.1-.92s-.61-.32-.93,0-.56.48-.77.76c-.45.59-.87.51-1.38.06s-1-.67-1.41-1-.55-.1-.77.19-.35.55.07.81.95.69,1.45,1a1.64,1.64,0,0,1,.9,1.63c0,.94.09,1.89.11,2.84C496.37,702.14,496.54,702.29,497,702.2Zm-63.92-2.83h0c.05.81.12,1.62.15,2.42,0,.49.13.75.74.69s.57-.41.47-.8c-.22-.82.06-1.2.92-1.14.14,0,.28,0,.42,0,.42,0,.54-.17.53-.62,0-1-.7-.6-1.12-.52-.75.14-1-.05-1-.84s.14-1.05.9-1c.39,0,.78-.06,1.17,0s.52-.25.51-.63-.09-.61-.57-.57c-.92.08-1.84.13-2.76.15-.45,0-.58.18-.53.61C432.95,697.81,433,698.59,433.06,699.37Zm31.34-12.58c.4-.13.48.13.5.54.06,1.25.17,2.51.24,3.76,0,.44.06.72.65.68s.53-.4.5-.8c-.06-.95-.11-1.89-.18-2.84-.1-1.48-.1-1.48,1.34-1.7l.25,0c.43-.06.32-.38.29-.65s0-.6-.44-.54l-4.16.5c-.44,0-.37.34-.32.61s0,.67.49.58C463.82,686.84,464.07,686.82,464.4,686.78Zm42.37-1.59c-1.3.16-2.54.37-3.79.44-.83.05-.74.5-.58,1s.63.2.92.16c.59-.09.84,0,.84.68,0,1.23.16,2.45.22,3.68,0,.46.15.62.64.59s.56-.28.53-.71c-.08-.92-.12-1.84-.18-2.76-.11-1.59-.12-1.59,1.42-1.88h.08c.48,0,.41-.34.38-.66S507.19,685.09,506.77,685.2ZM456.9,695.55c-1.33.16-2.6.33-3.88.45-.45,0-.53.23-.5.65s.34.65.78.51c.85-.26,1.09.07,1.09.92,0,1.14.16,2.28.2,3.43,0,.52.26.56.69.55s.56-.2.53-.62c-.08-1-.13-2-.19-3-.09-1.46-.09-1.48,1.39-1.68.49-.07.51-.29.46-.67S457.33,695.4,456.9,695.55Zm-10.3,4.8h0l-.13-1.92c-.1-1.49-.11-1.52,1.33-1.68.51-.06.56-.27.52-.7s-.19-.56-.63-.5c-1.27.18-2.54.32-3.82.46-.4,0-.49.21-.48.59s.19.66.71.59c1.1-.14,1.1-.11,1.16,1s.16,2.17.18,3.26c0,.53.21.64.71.62s.56-.3.51-.71S446.62,700.68,446.6,700.35Zm28.51-4.13c0-.46-.09-.76-.71-.66-1.24.19-2.49.32-3.74.45-.36,0-.47.16-.46.52s.12.75.72.66c1.09-.16,1.09-.12,1.15,1s.14,2.17.19,3.26c0,.44.11.65.62.62s.6-.22.56-.67c-.09-1.28-.14-2.56-.24-3.84,0-.5.08-.74.6-.74.31,0,.61-.07.92-.08S475.18,696.55,475.11,696.21Zm-34.22.5c.15,1.81.28,3.39.39,5,0,.46.25.53.66.49s.63-.09.59-.57c-.16-1.83-.32-3.66-.44-5.49,0-.53-.34-.46-.68-.46s-.58.12-.53.54A2.84,2.84,0,0,1,440.89,696.71Zm-14.11-5.5c-.14-1.78-.3-3.56-.41-5.34,0-.51-.24-.57-.68-.55s-.55.21-.51.63q.23,2.66.41,5.33c0,.44.11.66.63.6S426.92,691.68,426.79,691.21Zm73.65,5.35h0c.09.89.18,1.77.26,2.66,0,.48.37.38.67.36s.6,0,.55-.51q-.19-1.66-.32-3.33c0-.4-.19-.53-.58-.48s-.7,0-.61.54A7.42,7.42,0,0,1,500.44,696.56Zm1,5.52c.24-.06.67.15.58-.4s0-1-.7-.83c-.26,0-.67-.14-.6.4S500.72,702.22,501.46,702.08Z" transform="translate(-417.76 -671.1)"/><path class="c4278158-0e44-407e-aa16-c83a02253d64" d="M456.63,715.11a25.09,25.09,0,0,1,13.06,2.68,22.46,22.46,0,0,1,10.07,10.09,23.68,23.68,0,0,1,2.22,11.9,24.35,24.35,0,0,1-7.8,16.81c-.75.71-1.64,1.25-2.45,1.9-.41.33-.71.25-1.07-.09a25.07,25.07,0,0,1-1.86-1.69,2.21,2.21,0,0,0-1.77-.76,46.78,46.78,0,0,0-6.11.21c-1,.1-1.49.68-1.41,1.51s.71,1.23,1.72,1.15l4.42-.36a3.87,3.87,0,0,1,2.77,1.51c.19.4-.19.4-.38.48a21.24,21.24,0,0,1-5.45,1.58,32.17,32.17,0,0,1-17.11-1.81,23.35,23.35,0,0,1-10.67-9.09,24.56,24.56,0,0,1-4.41-13.93,19.37,19.37,0,0,1,1.94-8.08c3.17-6.83,8.65-10.82,15.77-12.83A32.6,32.6,0,0,1,456.63,715.11Zm20,16.25a2.73,2.73,0,0,0-1.11-1.11,8,8,0,0,0-1.79-1.12c-2.52-1-5.44,1.67-5.95,3.38-.08.26-.13.63.16.75s.35-.27.46-.46c.8-1.4,1.69-2.7,3.39-3.13a2.31,2.31,0,0,0,1.15-.05,6.28,6.28,0,0,1,2.53,1.1l.86.93c.11.22.17.66.5.44S476.79,731.59,476.6,731.37Zm-19.47,13.87a1.86,1.86,0,0,0-.76.63c-.09,0-.13,0-.09.13a7.19,7.19,0,0,0,.6,4.71c.32.36.59.18.88,0,2.65-1.44,5.37-2.58,8.59-2.06A6.75,6.75,0,0,1,466,744c1.47-.23,1.48-.24,1.45-1.13-.42.59-1,.46-1.52.68h-.34a1,1,0,0,0-1,.09l-.63.07a.83.83,0,0,0-.88.11l-.46,0a.62.62,0,0,0-.71.11l-.46.08a.49.49,0,0,0-.62.09l-.6.09A5,5,0,0,0,457.13,745.23Zm-1.31-2.09a3.23,3.23,0,0,0,3.23-3.32,3.4,3.4,0,0,0-3.28-3.61,3.47,3.47,0,1,0,.05,6.93Zm20.62-5.2a3.44,3.44,0,1,0-6.87-.08,3.44,3.44,0,1,0,6.87.08ZM455,731c-2.32,0-4.6,2-4.86,3.82,0,.2-.13.51.17.56s.28-.27.35-.47a4.34,4.34,0,0,1,4.2-3.22c1.61,0,2.65,1,3.7,2,.16.15.27.56.55.33s.14-.53,0-.78a2.53,2.53,0,0,0-.45-.6A6.06,6.06,0,0,0,455,731Zm9.25,19a3.34,3.34,0,0,0-2.26.19.32.32,0,0,0-.22.4c0,.13.16.13.27.11A6.42,6.42,0,0,0,464.25,750Z" transform="translate(-417.76 -671.1)"/><path class="aef3382b-a4c6-44c0-aec6-2fd92c668d2b" d="M441.59,761.22c1.3.59,2.47,1.18,3.69,1.65a34.25,34.25,0,0,0,17.88,1.64,24.63,24.63,0,0,0,7-2.29.82.82,0,0,1,1.09.16c.66.64,1.37,1.23,2.08,1.82a1.4,1.4,0,0,1,.5,1c.64,5,1,10.05,1.5,15.08.4,4.11.91,8.21,1.41,12.31.06.49,0,.75-.5,1a62.37,62.37,0,0,1-18.17,4.7c-1,.1-2,.15-3,.27a19.42,19.42,0,0,1-9.88-1.65.85.85,0,0,1-.6-.79c-.87-7.38-1.7-14.75-2.18-22.17-.25-4-.53-8-.79-12C441.57,761.75,441.59,761.53,441.59,761.22Z" transform="translate(-417.76 -671.1)"/><path class="332c21be-2e07-4345-a5b3-2c9a6d674b9d" d="M463.11,810c-4.27,0-8.54,0-12.82,0-.68,0-.83-.15-.73-.85.35-2.43.61-4.88.73-7.33,0-.63.2-.75.83-.73a55.53,55.53,0,0,0,12.32-1,57.31,57.31,0,0,0,10.4-2.85c.53-.2.67-.06.76.45.65,3.82,1.44,7.62,2.06,11.44.14.86-.13.9-.82.89C471.6,810,467.36,810,463.11,810Z" transform="translate(-417.76 -671.1)"/><path class="dfd2fd91-ed60-44cc-b058-2622ea843290" d="M483.73,699.44c-.38.82-.68,1.44-.95,2.07a.59.59,0,0,1-.69.44c-.35,0-.63,0-.76-.47a30.46,30.46,0,0,0-2.11-5c-.26-.49.11-.55.37-.74s.53-.16.7.2c.64,1.29,1.24,2.6,1.8,4,.66-1.16,1.09-2.21.18-3.37-.24-.3-.56-.67.06-1,.44-.25.63-.21.88.25.74,1.35,1.36,2.74,2.08,4.27a17.92,17.92,0,0,0,1.11-3.91c.11-.62.38-.61.85-.53s.43.23.36.58A37.62,37.62,0,0,1,486,701.7c-.15.4-.41.37-.73.38s-.58,0-.71-.41C484.36,701,484.07,700.31,483.73,699.44Z" transform="translate(-417.76 -671.1)"/><path class="344f2a14-01d2-4c29-9436-3e5f338e3d6b" d="M492.48,692.3a3.31,3.31,0,0,1-3.67-3.72,3.26,3.26,0,0,1,3.68-2.94c.28,0,.79,0,.69.47s-.16.83-.85.75a2.06,2.06,0,0,0-2.36,1.84,2.23,2.23,0,0,0,2.22,2.42c.47,0,.94-.11,1.41-.14.76,0,.79-.5.69-1.1-.05-.33-.18-.41-.49-.37-.52.08-1.06.1-1.58.2s-.66-.09-.73-.59.27-.56.64-.61l3-.41c.62-.08,1.12.47.75.9-.57.65-.28,1.3-.27,1.94s-.11.77-.62.89A14.37,14.37,0,0,1,492.48,692.3Z" transform="translate(-417.76 -671.1)"/><path class="cb9f43c1-7b68-4568-a998-5647e3223ae4" d="M477.88,692.2a3.05,3.05,0,0,1-3.11-3.23,4.09,4.09,0,0,1,4-3.92,3.26,3.26,0,0,1,3.18,3.32A4,4,0,0,1,477.88,692.2Zm0-1.19a2.82,2.82,0,0,0,2.84-2.63,2,2,0,0,0-2-2.11,2.87,2.87,0,0,0-2.78,2.7A1.9,1.9,0,0,0,477.91,691Z" transform="translate(-417.76 -671.1)"/><path class="1b36bfcf-ec63-4f7d-8746-994ad6a7895f" d="M456.68,689.66c.76.2,1.31.38,1.87.5s.45.36.35.74-.22.58-.68.44c-.91-.27-1.84-.47-2.75-.73-.43-.12-.74-.15-.61.44s-.12.6-.57.66-.57-.28-.6-.65c-.16-1.78-.31-3.56-.49-5.34,0-.39.05-.57.46-.59a9.94,9.94,0,0,1,3.17.1,2.17,2.17,0,0,1,1.81,1.65,2.06,2.06,0,0,1-1.13,2.23Zm-1.06-3.41c-1.2,0-1.2,0-1.12,1,0,.14,0,.28,0,.42.14,1.48.16,1.51,1.48.87.61-.3,1.59-.47,1.41-1.39S456.25,686.34,455.63,686.25Z" transform="translate(-417.76 -671.1)"/><path class="1b36bfcf-ec63-4f7d-8746-994ad6a7895f" d="M428.3,702.53a3.13,3.13,0,0,1-3.15-3.28,4.06,4.06,0,0,1,4-3.85,3.21,3.21,0,0,1,3.21,3.26A4,4,0,0,1,428.3,702.53Zm0-1.22a2.7,2.7,0,0,0,2.83-2.66,1.88,1.88,0,0,0-1.94-2,2.8,2.8,0,0,0-2.84,2.69A1.85,1.85,0,0,0,428.27,701.31Z" transform="translate(-417.76 -671.1)"/><path class="dfd2fd91-ed60-44cc-b058-2622ea843290" d="M432.52,687.46a9.83,9.83,0,0,0,.37,3.09c.13.51,0,.66-.5.8s-.6-.18-.68-.54a23.3,23.3,0,0,1-.45-4.91c0-.29-.2-.76.34-.78s.94-.24,1.22.39a18.82,18.82,0,0,0,2.13,3.29c.08.11.17.2.37.43a18.75,18.75,0,0,0-.2-3.18c0-.45,0-.64.51-.72s.6.15.65.57c.2,1.66.27,3.33.3,5,0,.36-.08.56-.46.65s-.65.12-.91-.28C434.39,690.06,433.5,688.86,432.52,687.46Z" transform="translate(-417.76 -671.1)"/><path class="1b36bfcf-ec63-4f7d-8746-994ad6a7895f" d="M469.9,701.83c.08.38-.2.42-.45.43s-.56.26-.71-.16c0-.08,0-.16-.06-.24-.18-.52-.1-1.39-.55-1.49a4.75,4.75,0,0,0-2.12.28c-.56.15-.39.74-.45,1.14s-.31.68-.83.62-.51-.18-.43-.59q.48-2.51.9-5a.71.71,0,0,1,.64-.64c2.16-.53,2.16-.54,2.87,1.58A32.82,32.82,0,0,1,469.9,701.83Zm-3.46-2.48c.37-.27,1.31.19,1.29-.6,0-.51,0-1.43-.85-1.57-.54-.09-.91.76-.92,1.87C466,699.41,466.13,699.4,466.44,699.35Z" transform="translate(-417.76 -671.1)"/><path class="dfd2fd91-ed60-44cc-b058-2622ea843290" d="M493.15,702.31c-.38.1-.41-.15-.48-.41-.48-1.66-.48-1.62-2.15-1.39a1,1,0,0,0-1,1c0,.33.13.91-.6.86-.5,0-.74-.11-.61-.73.32-1.56.57-3.13.82-4.7a.88.88,0,0,1,.81-.86c2.08-.42,2.07-.44,2.75,1.55.43,1.27.83,2.54,1.14,3.85C494,702.22,493.62,702.29,493.15,702.31Zm-2.74-3c.38-.25,1.15.17,1.32-.54.13-.54-.58-1.67-.89-1.65-.56,0-.87.74-.89,1.89C489.94,699.42,490.11,699.39,490.41,699.36Z" transform="translate(-417.76 -671.1)"/><path class="e1289a9d-5afc-40a9-9155-d493295711b2" d="M485.56,691.67c-2.52,0-3-.47-2.91-2.79.06-1.11.26-2.22.38-3.33.06-.58.48-.41.82-.43s.39.3.36.58c-.14,1.19-.32,2.38-.43,3.58-.09,1,.06,1.18,1.09,1.19.39,0,.78,0,1.17-.05,1.15-.08,1.22-.14,1.07-1.32s-.36-2.09-.53-3.14c-.06-.34-.21-.72.4-.78.46,0,.71,0,.78.52.14,1.16.43,2.31.55,3.47.19,1.77-.32,2.34-2.09,2.46Z" transform="translate(-417.76 -671.1)"/><path class="cb9f43c1-7b68-4568-a998-5647e3223ae4" d="M496.41,686.35c.1-.38-.34-1,.54-1,.46,0,.65.09.65.58s.12,1.11.12,1.67.22.62.72.56c1.87-.24,1.87-.22,1.72-2.1a2.38,2.38,0,0,1,0-.91c.11-.33.48-.17.74-.2s.37.23.39.49c.14,1.78.28,3.56.45,5.34,0,.4,0,.63-.49.66s-.74,0-.73-.5a.68.68,0,0,0,0-.17c-.12-.53.19-1.36-.27-1.53a5,5,0,0,0-2,.15c-.29,0-.38.18-.35.45s0,.67.11,1-.14.57-.55.6-.64,0-.67-.48C496.68,689.4,496.54,687.88,496.41,686.35Z" transform="translate(-417.76 -671.1)"/><path class="344f2a14-01d2-4c29-9436-3e5f338e3d6b" d="M450.07,685a10.39,10.39,0,0,0,1.17,0c.5-.06.69.1.71.63s-.26.59-.66.6-.67,0-1,0c-.9,0-1.19.54-.86,1.4.1.26.27.23.46.21.5,0,1-.06,1.5-.14s.63.07.67.55-.06.68-.56.68-1,.11-1.5.11-.51.33-.51.72.25.57.64.51,1.05-.12,1.57-.24.6,0,.63.39.24.69-.34.83a11.55,11.55,0,0,1-3.07.32c-.36,0-.48-.15-.49-.5-.09-1.78-.19-3.56-.33-5.34,0-.53.14-.7.64-.67s.89,0,1.34,0Z" transform="translate(-417.76 -671.1)"/><path class="1b36bfcf-ec63-4f7d-8746-994ad6a7895f" d="M462,697.43c0-.54-.09-1-.12-1.43s-.11-.74.52-.79.66.28.69.74c.11,1.7.23,3.4.39,5.09,0,.47-.08.63-.56.68s-.57-.19-.62-.61c-.17-1.74-.18-1.67-1.86-1.53-1,.09-.77.7-.72,1.27,0,.41.23.83-.49.86-.48,0-.62-.1-.65-.57-.11-1.61-.25-3.23-.41-4.84,0-.48.1-.63.58-.66s.64.18.61.62a3.89,3.89,0,0,0,0,.58c.14,1.69.14,1.66,1.84,1.47C461.92,698.25,462.22,698,462,697.43Z" transform="translate(-417.76 -671.1)"/><path class="344f2a14-01d2-4c29-9436-3e5f338e3d6b" d="M437.61,688.54c-.08-1.12-.12-2-.2-2.79,0-.44,0-.67.55-.67.92,0,1.84,0,2.76-.11.49,0,.53.22.55.6s-.06.63-.53.62-.78.08-1.17,0c-.81-.08-1,.26-.89,1,.06.49.16.71.69.6s.83-.07,1.25-.12.74-.08.79.53-.25.69-.72.7-.83.08-1.25.1-.68.08-.63.62.2.71.71.62,1-.11,1.48-.24.58,0,.66.45.08.66-.43.78a11.74,11.74,0,0,1-2.9.31c-.43,0-.59-.16-.61-.59C437.7,690.08,437.64,689.17,437.61,688.54Z" transform="translate(-417.76 -671.1)"/><path class="1b36bfcf-ec63-4f7d-8746-994ad6a7895f" d="M472.5,686.34c0-.28,0-.56-.06-.83-.07-.46.14-.58.56-.59s.59.07.62.53c.12,1.78.27,3.56.44,5.34,0,.44-.1.6-.53.62s-.68,0-.68-.46a1.4,1.4,0,0,0,0-.33c-.12-.5.19-1.31-.32-1.44a3.51,3.51,0,0,0-2,.25c-.53.21-.16.85-.15,1.28s-.1.7-.62.72-.54-.15-.57-.51c-.12-1.67-.25-3.34-.39-5,0-.47.18-.56.57-.58s.66,0,.62.52a3.82,3.82,0,0,0,0,.58c.14,1.81.13,1.77,1.91,1.56.64-.08.82-.32.7-.9a5.94,5.94,0,0,1-.05-.75Z" transform="translate(-417.76 -671.1)"/><path class="1b36bfcf-ec63-4f7d-8746-994ad6a7895f" d="M485.85,705.18c0,.08,0,.22-.08.35a21.17,21.17,0,0,1-7.09,11l-.13.1c-.33.29-.73.56-1.08.13s.08-.75.38-1c.6-.54,1.22-1.06,1.79-1.64a19.63,19.63,0,0,0,5-8.86,2.89,2.89,0,0,1,.11-.4.58.58,0,0,1,.68-.35C485.75,704.54,485.86,704.72,485.85,705.18Z" transform="translate(-417.76 -671.1)"/><path class="1b36bfcf-ec63-4f7d-8746-994ad6a7895f" d="M444.67,689.69c.58-1.4,1.13-2.73,1.69-4.05.13-.31.17-.72.74-.43s.53.49.31,1a30.6,30.6,0,0,0-1.8,4.85.86.86,0,0,1-.84.73c-.53.07-.59-.31-.75-.61a23.64,23.64,0,0,1-1.93-5.07c-.1-.38-.17-.65.37-.8s.67.07.78.51A18.23,18.23,0,0,0,444.67,689.69Z" transform="translate(-417.76 -671.1)"/><path class="e1289a9d-5afc-40a9-9155-d493295711b2" d="M497,702.2c-.44.09-.61-.06-.62-.47,0-.95-.14-1.9-.11-2.84a1.64,1.64,0,0,0-.9-1.63c-.5-.29-1-.68-1.45-1s-.3-.5-.07-.81.38-.52.77-.19,1,.66,1.41,1,.93.53,1.38-.06c.22-.28.53-.49.77-.76s.54-.44.93,0,.28.69-.1.92a3.27,3.27,0,0,0-1.5,3.85c.09.43,0,.89.08,1.33S497.47,702.33,497,702.2Z" transform="translate(-417.76 -671.1)"/><path class="344f2a14-01d2-4c29-9436-3e5f338e3d6b" d="M433.06,699.37c-.06-.78-.11-1.56-.19-2.34,0-.43.09-.6.53-.61.92,0,1.84-.07,2.76-.15.47,0,.56.17.57.57s0,.65-.51.63-.78.07-1.17,0c-.76-.06-1,.19-.9,1s.29,1,1,.84c.42-.08,1.09-.47,1.12.52,0,.45-.1.62-.53.62-.14,0-.28.05-.42,0-.86-.06-1.14.32-.92,1.14.1.39.16.74-.47.8s-.72-.19-.74-.69c0-.81-.1-1.62-.15-2.42Z" transform="translate(-417.76 -671.1)"/><path class="e1289a9d-5afc-40a9-9155-d493295711b2" d="M464.4,686.78c-.33,0-.58.06-.82.1-.51.09-.44-.3-.49-.58s-.12-.56.32-.61l4.16-.5c.44-.05.41.28.44.54s.14.58-.29.65l-.25,0c-1.44.22-1.44.22-1.34,1.7.06.95.11,1.89.18,2.84,0,.4.13.75-.5.8s-.63-.24-.65-.68c-.07-1.25-.17-2.51-.24-3.76C464.88,686.91,464.8,686.66,464.4,686.78Z" transform="translate(-417.76 -671.1)"/><path class="e1289a9d-5afc-40a9-9155-d493295711b2" d="M506.77,685.2c.42-.1.45.22.48.54s.1.64-.38.66h-.08c-1.53.29-1.53.29-1.42,1.88.07.92.1,1.84.18,2.76,0,.43,0,.68-.53.71s-.62-.13-.64-.59c-.05-1.23-.21-2.45-.22-3.68,0-.69-.26-.77-.84-.68-.29,0-.74.4-.92-.16s-.26-1,.58-1C504.23,685.56,505.47,685.36,506.77,685.2Z" transform="translate(-417.76 -671.1)"/><path class="344f2a14-01d2-4c29-9436-3e5f338e3d6b" d="M456.9,695.55c.44-.15.51.15.57.53s0,.6-.46.67c-1.48.2-1.47.23-1.39,1.68.06,1,.11,2,.19,3,0,.42-.08.6-.53.62s-.67,0-.69-.55c0-1.14-.21-2.29-.2-3.43,0-.85-.24-1.18-1.09-.92-.45.14-.74.05-.78-.51s0-.6.5-.65C454.3,695.87,455.57,695.7,456.9,695.55Z" transform="translate(-417.76 -671.1)"/><path class="e1289a9d-5afc-40a9-9155-d493295711b2" d="M446.6,700.35c0,.33,0,.67.07,1s0,.69-.51.71-.7-.09-.71-.62c0-1.09-.12-2.17-.18-3.26s-.06-1.14-1.16-1c-.52.07-.7-.07-.71-.59s.08-.55.48-.59c1.28-.13,2.55-.28,3.82-.46.44-.06.59.05.63.5s0,.65-.52.7c-1.44.16-1.44.19-1.33,1.68l.13,1.92Z" transform="translate(-417.76 -671.1)"/><path class="cb9f43c1-7b68-4568-a998-5647e3223ae4" d="M475.11,696.21c.06.34-.06.5-.39.51s-.61.08-.92.08c-.52,0-.64.25-.6.74.11,1.28.15,2.56.24,3.84,0,.44-.06.64-.56.67s-.61-.18-.62-.62c0-1.09-.13-2.17-.19-3.26s-.06-1.16-1.15-1c-.61.09-.71-.15-.72-.66s.1-.49.46-.52c1.25-.13,2.5-.25,3.74-.45C475,695.46,475.13,695.75,475.11,696.21Z" transform="translate(-417.76 -671.1)"/><path class="e1289a9d-5afc-40a9-9155-d493295711b2" d="M440.89,696.71a2.84,2.84,0,0,0,0-.52c-.05-.42.15-.53.53-.54s.65-.07.68.46c.12,1.83.27,3.66.44,5.49,0,.49-.21.54-.59.57s-.62,0-.66-.49C441.17,700.1,441,698.52,440.89,696.71Z" transform="translate(-417.76 -671.1)"/><path class="dfd2fd91-ed60-44cc-b058-2622ea843290" d="M426.79,691.21c.13.47-.09.61-.55.66s-.6-.16-.63-.6q-.18-2.67-.41-5.33c0-.42.06-.61.51-.63s.65,0,.68.55C426.49,687.65,426.65,689.42,426.79,691.21Z" transform="translate(-417.76 -671.1)"/><path class="e1289a9d-5afc-40a9-9155-d493295711b2" d="M500.44,696.56a7.42,7.42,0,0,0,0-.75c-.09-.53.27-.49.61-.54s.55.08.58.48q.13,1.67.32,3.33c.05.47-.23.49-.55.51s-.63.12-.67-.36c-.08-.89-.17-1.77-.26-2.66Z" transform="translate(-417.76 -671.1)"/><path class="fb2f2839-d683-4748-8cc4-bddcb35c1111" d="M501.46,702.08c-.74.14-.65-.4-.71-.83s.34-.36.6-.4c.72-.13.63.43.7.83S501.7,702,501.46,702.08Z" transform="translate(-417.76 -671.1)"/><path class="9292d1c6-779c-4c58-803c-6907ab3fc485" d="M463.93,743.71l.63-.07a.86.86,0,0,0,1-.09h.34l.06.45a6.75,6.75,0,0,0,.4,4.66c-3.22-.52-5.94.62-8.59,2.06-.29.16-.57.35-.88,0a7.19,7.19,0,0,1-.6-4.71l.09-.13a1.86,1.86,0,0,1,.76-.63l3.06-1,.6-.09a.44.44,0,0,0,.62-.09l.46-.08a.49.49,0,0,0,.71-.11l.46,0A.7.7,0,0,0,463.93,743.71Z" transform="translate(-417.76 -671.1)"/><path class="9292d1c6-779c-4c58-803c-6907ab3fc485" d="M455.82,743.14a3.47,3.47,0,1,1-.05-6.93,3.4,3.4,0,0,1,3.28,3.61A3.23,3.23,0,0,1,455.82,743.14Z" transform="translate(-417.76 -671.1)"/><path class="9292d1c6-779c-4c58-803c-6907ab3fc485" d="M476.44,737.95a3.44,3.44,0,1,1-6.87-.08,3.44,3.44,0,1,1,6.87.08Z" transform="translate(-417.76 -671.1)"/><path class="fb2f2839-d683-4748-8cc4-bddcb35c1111" d="M455,731a6.06,6.06,0,0,1,3.65,1.68,2.53,2.53,0,0,1,.45.6c.15.25.23.61,0,.78s-.4-.18-.55-.33c-1.05-1-2.09-2-3.7-2a4.34,4.34,0,0,0-4.2,3.22c-.07.2,0,.52-.35.47s-.2-.36-.17-.56C450.41,733.06,452.68,731.07,455,731Z" transform="translate(-417.76 -671.1)"/><path class="344f2a14-01d2-4c29-9436-3e5f338e3d6b" d="M471.76,729.68c-1.7.43-2.58,1.73-3.39,3.13-.11.19-.15.58-.46.46s-.24-.48-.16-.75c.5-1.7,3.42-4.4,5.95-3.38a8,8,0,0,1,1.79,1.12l-.05.47a6.28,6.28,0,0,0-2.53-1.1A1.12,1.12,0,0,0,471.76,729.68Z" transform="translate(-417.76 -671.1)"/><path class="580d4f37-2ef3-4a4b-994b-28e3cd061e37" d="M464.25,750a6.42,6.42,0,0,1-2.2.7c-.11,0-.24,0-.27-.11a.32.32,0,0,1,.22-.4A3.34,3.34,0,0,1,464.25,750Z" transform="translate(-417.76 -671.1)"/><path class="580d4f37-2ef3-4a4b-994b-28e3cd061e37" d="M466,744l-.06-.45c.49-.22,1.1-.1,1.52-.68C467.43,743.76,467.43,743.76,466,744Z" transform="translate(-417.76 -671.1)"/><path class="580d4f37-2ef3-4a4b-994b-28e3cd061e37" d="M460.19,744.24l-3.06,1A5,5,0,0,1,460.19,744.24Z" transform="translate(-417.76 -671.1)"/><path class="fb2f2839-d683-4748-8cc4-bddcb35c1111" d="M475.44,730.73l.05-.47a2.73,2.73,0,0,1,1.11,1.11.27.27,0,0,0-.3.29Z" transform="translate(-417.76 -671.1)"/><path class="344f2a14-01d2-4c29-9436-3e5f338e3d6b" d="M476.3,731.66a.27.27,0,0,1,.3-.29c.19.22.51.52.19.73S476.41,731.88,476.3,731.66Z" transform="translate(-417.76 -671.1)"/><path class="fb2f2839-d683-4748-8cc4-bddcb35c1111" d="M471.76,729.68a1.12,1.12,0,0,1,1.15-.05A2.31,2.31,0,0,1,471.76,729.68Z" transform="translate(-417.76 -671.1)"/><path class="580d4f37-2ef3-4a4b-994b-28e3cd061e37" d="M465.55,743.56a.86.86,0,0,1-1,.09A1,1,0,0,1,465.55,743.56Z" transform="translate(-417.76 -671.1)"/><path class="580d4f37-2ef3-4a4b-994b-28e3cd061e37" d="M463.93,743.71a.7.7,0,0,1-.88.11A.83.83,0,0,1,463.93,743.71Z" transform="translate(-417.76 -671.1)"/><path class="580d4f37-2ef3-4a4b-994b-28e3cd061e37" d="M462.58,743.87a.49.49,0,0,1-.71.11A.62.62,0,0,1,462.58,743.87Z" transform="translate(-417.76 -671.1)"/><path class="580d4f37-2ef3-4a4b-994b-28e3cd061e37" d="M461.41,744.06a.44.44,0,0,1-.62.09A.49.49,0,0,1,461.41,744.06Z" transform="translate(-417.76 -671.1)"/><path class="580d4f37-2ef3-4a4b-994b-28e3cd061e37" d="M456.37,745.86l-.09.13C456.24,745.9,456.28,745.86,456.37,745.86Z" transform="translate(-417.76 -671.1)"/><path class="dd7b7565-8052-48b3-b69e-9a4da0d28686" d="M477.91,691a1.9,1.9,0,0,1-2-2,2.87,2.87,0,0,1,2.78-2.7,2,2,0,0,1,2,2.11A2.82,2.82,0,0,1,477.91,691Z" transform="translate(-417.76 -671.1)"/><path class="cdd22340-be65-4371-8d8f-5e4b34d8ed8c" d="M455.63,686.25c.62.1,1.61-.06,1.8.91s-.8,1.1-1.41,1.39c-1.32.64-1.34.61-1.48-.87,0-.14,0-.28,0-.42C454.43,686.23,454.43,686.23,455.63,686.25Z" transform="translate(-417.76 -671.1)"/><path class="dd7b7565-8052-48b3-b69e-9a4da0d28686" d="M428.27,701.31a1.85,1.85,0,0,1-2-2,2.8,2.8,0,0,1,2.84-2.69,1.88,1.88,0,0,1,1.94,2A2.7,2.7,0,0,1,428.27,701.31Z" transform="translate(-417.76 -671.1)"/><path class="cdd22340-be65-4371-8d8f-5e4b34d8ed8c" d="M466.44,699.35c-.31,0-.48.06-.48-.3,0-1.1.37-2,.92-1.87.86.14.83,1.06.85,1.57C467.75,699.54,466.81,699.08,466.44,699.35Z" transform="translate(-417.76 -671.1)"/><path class="cdd22340-be65-4371-8d8f-5e4b34d8ed8c" d="M490.41,699.36c-.29,0-.47.07-.46-.3,0-1.15.33-1.85.89-1.89.31,0,1,1.11.89,1.65C491.56,699.53,490.79,699.11,490.41,699.36Z" transform="translate(-417.76 -671.1)"/></svg>