<svg id="0d084b6f-ad67-4d6a-a519-83d8f4934e2a" data-name="Capa 1" xmlns="http://www.w3.org/2000/svg" viewBox="0 0 213.62 309.74"><defs><style>.\33 f9a2c48-52c9-4e2b-9980-ba8625fb6101{fill:#181819;}.\31 d07cd09-a883-4f58-8e59-e8670d68305f{fill:#fdfdfd;}.\36 6cda313-fec5-4ae7-9296-4db788d0f517{fill:#171716;}.\31 8186913-eeec-464e-88a8-73218e1e2089{fill:#141612;}.c33b29c9-3d49-4775-b0c2-35324548e852{fill:#1c1c1d;}.\31 b6d3c84-e6ab-4e99-9a9d-6b6ff0fe4b87{fill:#1f1f20;}.\39 e45c3a0-0f8c-488c-a794-87e63ece8b46{fill:#232323;}.\30 0c3eef9-02b2-4d95-9e79-ad645d5f46e7{fill:#95b4c7;}.aead079c-ad7b-4575-a550-b51f26d5e6f4{fill:#f6cba0;}.e0ae1b5c-6432-4acb-a5f6-57d09f607500{fill:#f7cca0;}.\38 ac04ff0-a788-4aab-9f66-cd7aca0e2c58{fill:#509541;}.\33 ad7b2b0-ad48-4ca4-93ed-8b771b2a8eb5{fill:#8e7864;}.\31 8eb85bd-0330-465d-83d9-ddc4bf1d0c99{fill:#f1f1f1;}.\32 f57126b-05ff-46e7-9cdd-26a528cab50b{fill:#0d0905;}.\32 0ae5fe2-82ca-4ddf-8ae1-bd0f3db891b0{fill:#423529;}</style></defs><title>card-18</title><path class="3f9a2c48-52c9-4e2b-9980-ba8625fb6101" d="M329.19,355.3q0-71.61,0-143.22a16.74,16.74,0,0,1,.39-4.71c1.14-4,3.74-6.22,7.83-6.57,1.66-.14,3.32-.22,5-.22H529.86c1,0,2,.06,3,.13,7.19.5,10,3.44,10,10.58q0,144,0,287.93c0,7.9-3.2,11.1-11,11.1h-191c-8.49,0-11.63-3.11-11.63-11.55Q329.19,427,329.19,355.3Zm4.16.16q0,71.49,0,143c0,6.13,1.5,7.62,7.68,7.62H531.27c.67,0,1.33,0,2,0,3-.16,4.6-1.49,5.12-4.44a21.66,21.66,0,0,0,.26-3.72q0-142.11,0-284.22c0-7.78-1-8.83-8.75-8.83h-188c-1.08,0-2.17,0-3.25.05-3.28.17-4.85,1.6-5.25,4.84a24.88,24.88,0,0,0-.07,3Q333.35,284.09,333.35,355.46Z" transform="translate(-329.19 -200.58)"/><path class="1d07cd09-a883-4f58-8e59-e8670d68305f" d="M333.35,355.46q0-71.37,0-142.73a24.88,24.88,0,0,1,.07-3c.39-3.24,2-4.67,5.25-4.84,1.08-.06,2.17-.05,3.25-.05h188c7.71,0,8.75,1,8.75,8.83q0,142.11,0,284.22a21.66,21.66,0,0,1-.26,3.72c-.52,3-2.1,4.28-5.12,4.44-.66,0-1.33,0-2,0H341c-6.18,0-7.68-1.49-7.68-7.62Q333.35,427,333.35,355.46Zm185,82.39c.85-1,0-2.47.87-3.5q.35,5.36.7,10.72c.09,1.3.23,2.72,2,2.54s1.58-1.56,1.49-2.89c-.41-5.81-.65-11.64-1.18-17.44-.94-10.28-2.28-20.51-6-30.25a2.49,2.49,0,0,1,.45-2.68,38.6,38.6,0,0,0,4.32-7.84c5.77-13.86,2.94-28.54-7.85-37.6-13.42-11.27-29-12-44.17-5.48-26.13,11.15-26.68,42.82-7.67,59,3.15,2.68,4.4,5.13,3.84,8.91,0,.16,0,.33,0,.5a312.44,312.44,0,0,1-2.83,31.57c-.19,1.28-.29,2.73,1.42,2.93s2-1.06,2.11-2.45c.26-2.65.55-5.3,1-7.92s.18-5.42,1.26-8a149,149,0,0,1-1.11,22.1c-.31,2.73.42,4,3,4.28,1.48.19,1.78.83,1.59,2.35-1.28,10-1.76,20.06-2.15,30.13-.05,1.33.08,2.73,1.74,2.79s1.73-1.37,1.78-2.68q.51-14.23,1.85-28.4c.2-2.13.55-2.89,3.08-2.42,9.47,1.76,19,2.13,28.51,0,1.61-.36,1.36.5,1.5,1.37a172,172,0,0,0,7.44,29.7c.48,1.36.6,3.65,2.88,2.83s.89-2.72.43-4a179,179,0,0,1-7.25-28.73c-.33-2-.15-3.32,2-4,2.7-.85,3.75-2.9,3.92-5.68C517.54,444.29,518,441.08,518.39,437.85ZM410.65,413l.44,0c.06.32.13.64.19,1,2,10.7,7.76,18.57,17.62,23.31,1.08.52,2.24,1,3-.5.67-1.31-.09-2-1.2-2.5-11.51-5.67-16.15-15.44-16.64-27.74a2.08,2.08,0,0,1,1.13-2.2,33.78,33.78,0,0,0,11-11.07c5.82-9,7.55-19,4.64-29.15-3.68-12.86-12.79-20.81-25.73-23.95-11.4-2.77-22.68-2.58-33,3.84-8.26,5.11-13.67,12.46-15.09,22.15-1.39,9.51,1.07,18.31,6.29,26.35.48.74,1.51,1.37.18,2.41-7.63,6-12.37,14-16.35,22.64a115.19,115.19,0,0,0-5.88,16.4c-.37,1.27-.45,2.41,1,2.85s2-.66,2.37-1.89c.08-.32.16-.64.26-1a110,110,0,0,1,8-20.12c2.9-5.35,6.23-10.37,10.93-14.54a4.15,4.15,0,0,1-.24,2.55,114.58,114.58,0,0,0-3.91,42.72c.35,3.35,1.75,5.22,4.48,6.46,1.54.7,1.93,1.65,1.81,3.3a175.89,175.89,0,0,1-5.94,32.83c-.32,1.18-.82,2.65.93,3.11s2.13-.83,2.44-2.14c1-4.28,2.1-8.55,3-12.85A149.5,149.5,0,0,0,369.46,454a83.84,83.84,0,0,0,30.42,1.23c1.38-.18,1.82-.08,2,1.4,1.55,10.19,3.21,20.37,4.83,30.55.24,1.51,0,3.74,2.21,3.47,2.57-.31,1.47-2.61,1.25-4.07-1.54-10.11-3.18-20.21-4.81-30.3-.21-1.3-.22-2.32,1.51-2.41,2.43-.13,3.11-1.45,2.92-3.84a185.12,185.12,0,0,1,0-29.19C410,418.18,410.38,415.58,410.65,413Zm-44.89-134.1a14.22,14.22,0,0,0,5.73-.84c3.58-1.41,4.13-4.72,1.12-7.09-.7-.55-.92-.73-.43-1.66,1.3-2.44.45-4.27-2.22-5.16-2-.67-4.07-.17-6.13.08-1.86.22-2.07,1-1.88,2.62a65.93,65.93,0,0,1,.71,8.91C362.61,278.43,363.55,279.4,365.77,278.88Zm39.54,18.3c.17-.63.74-.68,1.14-.94,1.87-1.2,3.24-2.73,2.79-5.12s-2.33-3.44-4.64-3.85a23.05,23.05,0,0,0-5.47-.17c-1.42.08-2.06.45-1.86,2.08.45,3.72.7,7.46,1,11.19.07.77,0,1.55,1.21,1.39.88-.12,1.68-.22,1.43-1.46s.47-1.15,1.32-.92c1.84.5,3.69,1,5.55,1.43.81.18,1.76.69,2.09-.84.29-1.34-.37-1.49-1.36-1.76A8.56,8.56,0,0,1,405.31,297.18Zm59.92.13c.18-.71.73-.8,1.13-1.05,2-1.23,3.36-2.83,2.8-5.31s-2.47-3.32-4.76-3.71a23.68,23.68,0,0,0-5.46-.13c-1.35.08-1.86.52-1.71,1.95.41,3.71.67,7.44,1,11.16.06.64-.31,1.66,1,1.55.92-.08,1.92-.08,1.64-1.51-.24-1.22.45-1.12,1.3-.88,1.75.49,3.51,1,5.29,1.36.84.18,1.92.94,2.36-.73s-.61-1.58-1.58-1.82S466.24,297.6,465.23,297.31Zm10.38-9.87c-4.43,0-4.47,0-4.15,3.07.26,2.48.44,5,.68,7.46.46,4.73.87,5,5.58,4.08a11,11,0,0,0,2.15-.6c3.81-1.63,5.09-5.18,3.08-8.82C481.07,289.22,478.09,287.51,475.61,287.44Zm-45.95-9.07a10,10,0,0,0,4.18-.5c4.53-1.55,6-5.86,3.24-9.78a10,10,0,0,0-9.5-4.33c-1.46.1-1.8.55-1.63,2,.38,3.22.7,6.46.81,9.69C426.85,277.62,427.27,279.08,429.66,278.37ZM443.38,301c-.14.75-.32,1.5.87,1.57.91.06,1.52.07,1.79-1.1.21-.89-.27-2.26.89-2.64a11.1,11.1,0,0,1,4.62-.75c1.26.16,1,1.88,1.25,2.94s.66,1.56,1.86,1.34,1.06-1,.8-1.83c-.85-2.86-1.63-5.74-2.54-8.58-1.52-4.72-1.54-4.68-6.29-3.22a1.61,1.61,0,0,0-1.36,1.47C444.68,293.8,444,297.39,443.38,301Zm-14.72-60.27a13.21,13.21,0,0,0-8.27,2.71,3.56,3.56,0,0,0-1.59,3.9c.4,1.5,1.71,1.87,3,2.19a31.89,31.89,0,0,0,5.46.36c.57,0,1.32-.07,1.52.58s-.46,1.21-1.05,1.48a14.29,14.29,0,0,1-3.47,1.3c-1.26.2-1.47.69-1.26,1.81.25,1.34,1.19,1,1.92.8a12,12,0,0,0,5-2.19c1.23-1,2.26-2.11,1.85-3.79s-2-2.35-3.62-2.52-3.15-.14-4.72-.28c-.62-.05-1.53.1-1.74-.65s.7-1.22,1.29-1.6a9.46,9.46,0,0,1,5.45-1.44c1.14,0,2.13.11,2.19-1.51C430.67,239.94,429.19,241.1,428.65,240.72Zm29.62,33.51c1.08-.45,1.38.14,1.54,1s.43,1.44.51,2.18c.14,1.24.92,1.1,1.81,1,1.19-.09,1-.73.83-1.55a73.4,73.4,0,0,0-2.73-9.31c-1.14-3.56-1.15-3.38-4.88-2.88-2,.27-2.61,1.14-2.87,2.93-.43,3-1.1,6-1.59,9.08-.13.78-.69,1.82.88,2.08s1.76-.66,1.75-1.7c0-2,1.21-2.46,2.82-2.61C457,274.43,457.66,274.32,458.27,274.23Zm-62.62-22.82c1.87.08,1.29,2,1.66,3.09s.65,1.59,1.87,1.32,1-1,.8-1.85a82.63,82.63,0,0,0-2.7-9.06c-1.2-3.69-1.23-3.7-5.06-2.79-1,.25-2.27,0-2.5,1.8-.46,3.54-1.24,7-1.84,10.55-.1.58-.48,1.44.64,1.49.73,0,2,.56,1.9-.8C390.26,251.4,393.18,252,395.65,251.41Zm23.63,39.85h0c.13,1.32.27,2.64.38,4s.16,2.65.29,4c.1.94-.08,2,1.58,1.86s1.12-1.16,1.13-2.09-.86-2,.71-2.47c3.53-1.14,4.45-.62,4.88,2.91a2.9,2.9,0,0,1,0,.5c-.05,1.05.51,1.19,1.42,1.13s1.29-.39,1.2-1.37q-.54-6-1-11.92c-.06-.87-.38-1.15-1.23-1.08s-1.5.11-1.39,1.22,0,2.34.25,3.48c.26,1.38-.11,1.87-1.56,2.05-3.94.51-3.93.59-4.12-3.44a9.66,9.66,0,0,1,0-1c.06-1-.32-1.52-1.46-1.39-.95.1-1.33.44-1.19,1.42C419.26,289.76,419.24,290.51,419.27,291.26Zm-23.61-27.9a13.68,13.68,0,0,0-7.19,2.13c-1.6,1-3.09,2.29-2.52,4.43s2.46,2.3,4.22,2.47c1.57.16,3.16.1,4.74.22.43,0,1.08.08,1.2.66s-.42.86-.81,1.15a7.21,7.21,0,0,1-3.67,1.45c-1.48.12-1.54,1-1.35,2.06.26,1.49,1.28.59,2,.53a9.1,9.1,0,0,0,4.15-1.6c1.57-1,3.09-2.22,2.52-4.41s-2.43-2.32-4.18-2.52c-1.24-.14-2.5,0-3.75-.09-.79,0-1.9.15-2.09-.83s.91-1.26,1.6-1.68a10.94,10.94,0,0,1,5-1.32c1.11-.09,2.46.33,2.31-1.61S396.3,263.74,395.67,263.36Zm71-15.77h.26c0,1.91,0,3.83,0,5.74,0,.91.15,1.58,1.36,1.61a25.32,25.32,0,0,0,6.44-.66c.88-.21,1.26-.62,1-1.59s-.61-1.43-1.72-1.1a14.09,14.09,0,0,1-2.71.4c-.88.09-1.84.41-1.94-1.11-.09-1.34.56-1.5,1.62-1.53s2-.24,3-.28,1.13-.62,1.06-1.5-.44-1.33-1.4-1.18c-.74.12-1.5.12-2.23.24-1.21.2-2.17.42-2.31-1.45-.13-1.65.41-2,1.87-2,.91,0,1.83-.2,2.74-.18,1.08,0,1.18-.56,1.15-1.42s-.24-1.28-1.14-1.22c-2.4.18-5.2-.32-7.07.77-1.2.7-.12,3.71,0,5.69C466.58,247.09,466.61,247.34,466.63,247.59ZM362.87,294c.31,8.13.82,8.58,7.7,6.83.16,0,.33-.06.49-.09,1.05-.2.92-.91.83-1.71-.12-1-.61-1.17-1.52-.95a29.3,29.3,0,0,1-3,.46c-.84.12-1.64.3-1.72-1-.07-1.15.2-1.69,1.45-1.68,1.07,0,2.15-.23,3.22-.3s.9-.91.93-1.62c0-.87-.35-1.19-1.2-1.11s-1.84,0-2.73.19c-1.25.22-2,.17-2.07-1.47s.38-2.13,1.89-2c.83,0,1.66-.09,2.49-.09s1.41-.11,1.34-1.23-.37-1.48-1.47-1.4c-1.82.14-3.65.21-5.48.23-1.24,0-1.78.39-1.57,1.78C362.76,290.55,362.76,292.31,362.87,294Zm101.56-43.44c-.24-3.3-.51-6-.62-8.78,0-1.16-.37-1.61-1.59-1.55s-1.11.92-1.07,1.73a21.07,21.07,0,0,0,.16,2.74c.27,1.55-.2,2.13-1.86,2.32-3.5.4-3.48.52-3.71-2.85a13.59,13.59,0,0,1-.1-1.49c.05-1.21-.47-1.55-1.66-1.47-1.36.08-1.11.91-1,1.72q.41,4.85.83,9.7c.08.93-.26,2,1.46,1.89s1.27-1.22,1.12-2.08c-.35-1.92.4-2.34,2.27-2.73,2.78-.58,3.54.32,3.32,2.83,0,.24.08.5.08.74,0,1.18.69,1.26,1.66,1.2s1.16-.65,1-1.49S464.48,251,464.43,250.61Zm-81.71-6.7c.94,2.48-.38,3.12-2.7,3.36-1.82.18-2.88.05-2.67-2.12.08-.82-.12-1.66-.1-2.49,0-1-.31-1.48-1.45-1.42s-1.36.46-1.25,1.54c.33,3.31.54,6.63.77,9.95.07,1,0,1.94,1.59,1.82,1.83-.14,1.15-1.28,1-2.11-.3-1.72.12-2.33,2.05-2.66,2.63-.45,3.86,0,3.6,2.82,0,.24.09.49.09.74,0,1,.37,1.26,1.37,1.21s1.38-.51,1.28-1.55c-.36-3.81-.69-7.62-.94-11.43-.07-1-.39-1.29-1.34-1.27s-1.41.24-1.31,1.27C382.77,242.29,382.72,243,382.72,243.91Zm8,42.92v.07a23.34,23.34,0,0,1-2.49.11c-1.82-.1-2.5.5-2.16,2.46a57.09,57.09,0,0,1,.36,6c.43,6.6,1,7,7.57,5.46l.25,0c1-.1,1.36-.58,1.2-1.67s-.68-1.28-1.68-1-2,.28-3,.45-1.56,0-1.59-1.2c0-1.05.25-1.52,1.35-1.53s2.15-.23,3.23-.29,1.06-.73,1.05-1.54c0-1-.44-1.31-1.37-1.21s-1.66.08-2.49.17c-1.07.12-2.09.52-2.17-1.31-.07-1.63.39-2.28,2-2.19.91.05,1.83-.11,2.74-.09s1-.6.94-1.32,0-1.36-1-1.3S391.61,286.83,390.69,286.83Zm42,7.36c.57,7.91,1,8.31,7.79,6.7l.25,0c1-.11,1.38-.53,1.18-1.66s-.61-1.33-1.65-1a28.55,28.55,0,0,1-3,.45c-1,.16-1.59.05-1.62-1.18,0-1,.23-1.53,1.35-1.54s2.15-.23,3.23-.29,1-.75,1-1.55c0-1-.47-1.29-1.38-1.2s-1.67.07-2.49.17c-1.11.14-2.07.43-2.17-1.35s.44-2.24,2-2.16c.91,0,1.83-.1,2.74-.09s1.09-.5,1-1.29,0-1.38-1-1.32-2.33.06-3.49.11c-4,.17-4,.18-3.79,4C432.77,292,432.73,293.11,432.73,294.19Zm-56.24-23.83a8.36,8.36,0,0,0,.18,1.73c.57,1.77-1.1,4.38,1.09,5.29,1.79.74,4.1.28,6.13-.32a3.74,3.74,0,0,1,.73-.15c1-.09,1.18-.61.94-1.54s-.44-1.35-1.48-1.08a21.29,21.29,0,0,1-3,.46c-.91.1-1.81.31-1.86-1.19,0-1.26.48-1.6,1.58-1.61s2-.13,3-.14,1.06-.73,1-1.53-.34-1.37-1.35-1.19c-.82.15-1.66.11-2.48.24-1.38.23-2.08,0-2.2-1.7-.13-1.88.89-1.78,2.1-1.77.83,0,1.66-.08,2.49-.09s1.3-.4,1.27-1.38-.47-1.35-1.54-1.35C375.81,263.1,375.81,263.07,376.49,270.36ZM507,263.26c-4.91.24-4.91.24-4.72,4.71a16,16,0,0,0,.22,3.73c.56,1.93-1,4.73,1.31,5.69,1.86.78,4.27.24,6.37-.41a.93.93,0,0,1,.25,0c1.33,0,1-.89,1-1.76-.08-1.23-.82-1-1.57-.85a21.86,21.86,0,0,1-2.46.38c-.89,0-2,.63-2.16-1.1-.12-1.51.7-1.63,1.79-1.66.91,0,1.83-.11,2.74-.13,1.08,0,1.13-.67,1.1-1.51s-.41-1.35-1.4-1.2c-.82.13-1.66.11-2.48.23-1.34.2-2.1.08-2.17-1.68s.83-1.82,2.09-1.79c.83,0,1.66-.08,2.49-.08,1,0,1.21-.56,1.16-1.46s-.29-1.41-1.33-1.26S507.37,263.23,507,263.26Zm-63,.08a6.83,6.83,0,0,1-1.41,0c-2.18-.32-2.67.65-2.39,2.66.31,2.22.34,4.47.5,6.71.37,5.4.58,5.57,6.07,4.65.57-.1,1.12-.31,1.69-.39.84-.13,1.42-.31,1.12-1.41-.24-.89-.38-1.59-1.58-1.23a8.85,8.85,0,0,1-2.45.39c-.83,0-2,.81-2.26-1s.68-1.78,1.89-1.8c.91,0,1.83-.09,2.74-.13,1.14-.05,1-.86,1-1.62s-.32-1.23-1.22-1.1-1.83.1-2.73.26c-1.52.28-2-.26-2.09-1.81s.76-1.7,1.94-1.68c.91,0,1.83-.08,2.74-.09s1.22-.57,1.16-1.47-.39-1.37-1.38-1.24S445.47,263.23,444,263.34ZM378.55,297.2a36.39,36.39,0,0,1-3.08-8.34c-.28-1-.43-1.72-1.75-1.38s-1.09,1.2-.84,2.09a56.31,56.31,0,0,0,4,10.68c.4.76.58,1.7,1.88,1.62s1.64-.86,1.92-1.87a70.11,70.11,0,0,1,3.74-10.26c.43-1,.91-1.75-.51-2.37s-1.51.38-1.84,1.18C380.93,291.36,379.79,294.16,378.55,297.2Zm116.14-23.89a33.06,33.06,0,0,1-3.18-8.54c-.31-1.17-.87-1.12-1.79-.94-1.11.21-1,.85-.81,1.64a58.9,58.9,0,0,0,4.32,11.35,1.74,1.74,0,0,0,1.92,1.14c1.08-.08,1.38-.71,1.61-1.56a64.42,64.42,0,0,1,4-10.69c.49-1,.41-1.56-.71-2.07s-1.43.24-1.75,1C497.11,267.44,496,270.25,494.69,273.31Zm-14.91,1.87c-1,.32-1.48,0-1.52-1.15a53.44,53.44,0,0,0-.48-5.47c-.21-1.53-.08-2.66,1.87-2.55,1.11.06,1.13-.64,1.07-1.47s-.32-1.25-1.2-1.18c-2.24.19-4.48.36-6.72.55-.79.06-1,.58-.81,1.23s-.08,1.65.91,1.42c2.54-.59,2.15,1.21,2.29,2.61.16,1.57.29,3.15.44,4.72.07.75.23,1.58-.85,1.72-1.5.2-1,1.31-.89,2.1.14,1,1,.6,1.61.57,1.49-.1,3-.27,4.47-.41.91-.09,1.87,0,1.63-1.49C481.4,275.16,480.92,274.77,479.78,275.18ZM372.9,243c.09-1-.35-1.42-1.47-1.26-2.55.36-5.11.6-7.66.93-.83.11-1.85-.08-1.7,1.45s1.13,1.43,2.07,1.18c1.6-.42,2,.23,2.06,1.71.06,2.49.25,5,.43,7.46.06.84-.21,1.88,1.34,1.79s1.37-1.07,1.31-2.07c-.15-2.32-.19-4.65-.48-7-.25-2,.28-3,2.44-2.84C372.08,244.44,373.24,244.56,372.9,243Zm42.34,90.36c.46,0,.84-.19,1.94-1,5.43-4.2,8.42-9.92,10.18-16.4.26-.94.84-2.07-.63-2.44s-1.58.92-1.83,1.85a31.67,31.67,0,0,1-4.17,9.53,22,22,0,0,1-5.9,6c-.61.42-1.25.94-.83,1.83A1.16,1.16,0,0,0,415.25,333.34Zm-4.46-68.44c0-1.11-.48-1.39-1.56-1.24-2.55.36-5.12.58-7.67.91-.83.11-1.88,0-1.7,1.48s1.15,1.44,2.12,1.14c1.71-.53,1.94.32,2,1.73.07,2.49.31,5,.41,7.47,0,1.11.35,1.66,1.6,1.59s1.19-.82,1.14-1.7c-.15-2.32-.11-4.67-.44-7-.3-2.08,0-3.19,2.43-3C410,266.41,411.06,266.36,410.78,264.9Zm36.82-12a52.35,52.35,0,0,0-.35-5.86c-.38-2.38.27-3.6,2.81-3.47,1.05.05,1.39-.41,1.32-1.52-.09-1.3-.83-1.2-1.7-1.09-2.47.3-4.95.58-7.41.92-.8.11-1.95-.27-1.83,1.32s.93,1.55,2,1.26c1.76-.47,2.08.49,2.13,2,.07,2.41.24,4.81.41,7.22.06.88,0,1.84,1.44,1.72S447.83,254.47,447.6,252.89Zm-44.75-8.41c1.82-.59,2.11.41,2.14,1.89.06,2.33.22,4.65.41,7,.07.89-.27,2.08,1.43,2,1.86-.1,1.3-1.31,1.25-2.31a52.32,52.32,0,0,0-.37-6c-.38-2.33.13-3.65,2.75-3.5,1,.06,1.47-.33,1.37-1.48s-.79-1.25-1.7-1.14c-2.47.31-4.95.59-7.42.93-.79.11-2-.28-1.86,1.29S401.74,244.77,402.86,244.48Zm21,30.47c-.26-3.22-.53-6.44-.76-9.66-.07-.94-.26-1.51-1.44-1.46s-1.34.62-1.26,1.58c.32,3.88.64,7.76.91,11.65.06.93.35,1.35,1.36,1.22.84-.11,1.45-.29,1.31-1.34C423.83,276.28,423.84,275.61,423.81,274.95Zm65.52,18h.07c-.18-1.73-.41-3.45-.52-5.18-.07-1.16-.8-1-1.56-1s-1.18.37-1.1,1.22c.23,2.47.45,4.94.64,7.42.09,1.15.86,1,1.6,1s1.26-.28,1.11-1.19C489.46,294.46,489.41,293.71,489.33,293Zm-2.7-26.45c-.1-1-.25-2.35-.34-3.66-.07-1-.66-1-1.38-.86s-1.38.09-1.28,1.09c.14,1.39.22,2.78.38,4.17.13,1.12.94.85,1.68.78S486.89,267.63,486.63,266.53Zm-69.75-23.26c-.07-.79-.12-1.54-.21-2.28-.11-.92-.14-1.8-1.56-1.66s-1.33.93-1.18,1.9c.11.74.23,1.48.31,2.23.11,1-.23,2.2,1.61,2S416.7,244,416.87,243.26Zm73,57.4c.12-1.17-.48-1.57-1.61-1.49-.72.05-1.31.06-1.12,1.08s.12,1.8,1.5,1.65C489.45,301.82,490.1,301.78,489.84,300.66Z" transform="translate(-329.19 -200.58)"/><path class="66cda313-fec5-4ae7-9296-4db788d0f517" d="M410.65,413c-.27,2.61-.61,5.21-.81,7.82a185.12,185.12,0,0,0,0,29.19c.19,2.38-.49,3.7-2.92,3.84-1.73.09-1.72,1.11-1.51,2.41,1.63,10.1,3.27,20.19,4.81,30.3.22,1.46,1.32,3.76-1.25,4.07-2.23.27-2-2-2.21-3.47-1.62-10.18-3.28-20.36-4.83-30.55-.22-1.48-.66-1.58-2-1.4A83.84,83.84,0,0,1,369.46,454a149.5,149.5,0,0,1-3.11,21.34c-1,4.3-2,8.57-3,12.85-.31,1.32-.82,2.57-2.44,2.14s-1.24-1.93-.93-3.11a175.89,175.89,0,0,0,5.94-32.83c.12-1.64-.27-2.6-1.81-3.3-2.73-1.23-4.13-3.1-4.48-6.46a114.58,114.58,0,0,1,3.91-42.72,4.15,4.15,0,0,0,.24-2.55c-4.71,4.17-8,9.19-10.93,14.54a110,110,0,0,0-8,20.12c-.1.32-.18.64-.26,1-.32,1.22-.86,2.34-2.37,1.89s-1.38-1.58-1-2.85a115.19,115.19,0,0,1,5.88-16.4c4-8.6,8.72-16.68,16.35-22.64,1.34-1,.31-1.67-.18-2.41-5.22-8-7.68-16.84-6.29-26.35,1.42-9.7,6.83-17,15.09-22.15,10.36-6.42,21.65-6.6,33-3.84,12.94,3.14,22,11.08,25.73,23.95,2.91,10.16,1.18,20.12-4.64,29.15a33.78,33.78,0,0,1-11,11.07,2.08,2.08,0,0,0-1.13,2.2c.49,12.3,5.13,22.07,16.64,27.74,1.11.55,1.87,1.18,1.2,2.5-.75,1.48-1.92,1-3,.5-9.87-4.75-15.62-12.62-17.62-23.31-.06-.32-.13-.64-.19-1Zm-17.88-70.79a46.12,46.12,0,0,0-8.45.71,29.15,29.15,0,0,0-23.69,34.19c4.54,23.31,26.18,30.49,41.53,28.29,24.28-3.48,33.6-33.58,20.5-50C415,345.69,404.61,342.31,392.77,342.18Zm-24.91,56.43c-.94,3.83-1.87,7.6-2.78,11.37a95.59,95.59,0,0,0-2,34.92c.11.89.09,1.79,1,2.38,2.71,1.65,5.45,3.4,8.56,4a84.93,84.93,0,0,0,31,0c2.24-.42,2.71-1.37,2.57-3.47a173.56,173.56,0,0,1,.42-29.66c.36-3.36.65-6.73,1-10.14C390.49,410.53,386.16,409.52,367.86,398.61Z" transform="translate(-329.19 -200.58)"/><path class="18186913-eeec-464e-88a8-73218e1e2089" d="M518.39,437.85c-.36,3.23-.85,6.44-1,9.68-.17,2.78-1.22,4.83-3.92,5.68-2.18.69-2.36,2.05-2,4a179,179,0,0,0,7.25,28.73c.46,1.33,1.88,3.22-.43,4s-2.4-1.47-2.88-2.83a172,172,0,0,1-7.44-29.7c-.14-.87.1-1.73-1.5-1.37-9.48,2.15-19,1.78-28.51,0-2.53-.47-2.88.29-3.08,2.42q-1.35,14.18-1.85,28.4c0,1.31,0,2.75-1.78,2.68s-1.79-1.46-1.74-2.79c.39-10.07.87-20.13,2.15-30.13.19-1.51-.11-2.15-1.59-2.35-2.54-.33-3.26-1.55-3-4.28a149,149,0,0,0,1.11-22.1c-1.08,2.56-.8,5.33-1.26,8s-.75,5.27-1,7.92c-.14,1.4-.48,2.64-2.11,2.45s-1.61-1.65-1.42-2.93a312.44,312.44,0,0,0,2.83-31.57c0-.17,0-.33,0-.5.56-3.77-.69-6.22-3.84-8.91-19-16.17-18.46-47.84,7.67-59,15.2-6.49,30.75-5.79,44.17,5.48,10.79,9.06,13.62,23.74,7.85,37.6a38.6,38.6,0,0,1-4.32,7.84,2.49,2.49,0,0,0-.45,2.68c3.67,9.74,5,20,6,30.25.53,5.8.77,11.63,1.18,17.44.09,1.32.22,2.71-1.49,2.89s-1.9-1.24-2-2.54q-.36-5.36-.7-10.72l-.05-2.89c.25-1.23-.68-2.19-.75-3.36.18,1.15-.38,2.32.14,3.44Zm-31.5-94.51a47.63,47.63,0,0,0-7.62.54c-13.8,1.78-26,13.38-27.38,27.33s7.69,29.71,20.76,33.83a35.07,35.07,0,0,0,15.76,1.32c11.35-1.62,21-6,27.13-16.41,7.34-12.54,6.62-26.29-2.3-36.17C506.31,346.1,497.36,343.18,486.89,343.34Zm24.38,57.61c-14.21,9.08-23.71,10.93-38.84,7.65-1.52-.33-1.4.24-1.3,1.38.3,3.39.54,6.8.65,10.2a248.52,248.52,0,0,1-1.12,28.91c-.12,1.47.21,2,1.64,2.38,9,2.37,18.06,2.79,27.23,2.31a26.9,26.9,0,0,0,12.11-3.45,3.87,3.87,0,0,0,2.25-3.24c.44-3.72.78-7.44,1.13-11.16C516.15,424.07,513.84,412.61,511.27,400.95Z" transform="translate(-329.19 -200.58)"/><path class="c33b29c9-3d49-4775-b0c2-35324548e852" d="M365.77,278.88c-2.21.52-3.16-.45-3.11-3.14a65.93,65.93,0,0,0-.71-8.91c-.19-1.58,0-2.4,1.88-2.62,2.06-.24,4.09-.75,6.13-.08,2.68.88,3.52,2.72,2.22,5.16-.49.93-.27,1.11.43,1.66,3,2.37,2.46,5.68-1.12,7.09A14.22,14.22,0,0,1,365.77,278.88Zm2.53-6.13a7.49,7.49,0,0,1-1.24.07c-1.55-.16-1.91.47-1.81,2,.11,1.73,1.1,1.54,2.19,1.43a14.31,14.31,0,0,0,1.71-.29c1.1-.25,2.65-.25,2.58-1.75-.09-1.77-1.78-1.28-2.93-1.46A2.76,2.76,0,0,0,368.3,272.74Zm-3.45-4.15c.6.23-.87,1.66.82,1.65,1.44,0,4.71-2,4.42-2.78-.47-1.28-1.75-1.05-2.78-1C366.08,266.51,364.36,266.1,364.85,268.59Z" transform="translate(-329.19 -200.58)"/><path class="1b6d3c84-e6ab-4e99-9a9d-6b6ff0fe4b87" d="M405.31,297.18a8.56,8.56,0,0,0,3.21,1c1,.27,1.65.42,1.36,1.76-.33,1.53-1.28,1-2.09.84-1.86-.42-3.71-.93-5.55-1.43-.84-.23-1.56-.3-1.32.92s-.55,1.34-1.43,1.46c-1.17.17-1.14-.62-1.21-1.39-.32-3.73-.58-7.47-1-11.19-.2-1.63.44-2,1.86-2.08a23.05,23.05,0,0,1,5.47.17c2.31.42,4.17,1.36,4.64,3.85s-.92,3.92-2.79,5.12C406,296.5,405.47,296.55,405.31,297.18Zm-3.07-7.61c-.72.39-2.5-.65-2.05,1.38.35,1.58-.78,3.66,1,4.66,1,.58,5.65-2.66,5.46-3.64C406.2,289.5,404,290,402.23,289.57Z" transform="translate(-329.19 -200.58)"/><path class="1b6d3c84-e6ab-4e99-9a9d-6b6ff0fe4b87" d="M465.23,297.31c1,.29,2,.61,3,.86s2,.26,1.58,1.82-1.52.91-2.36.73c-1.78-.37-3.54-.87-5.29-1.36-.85-.24-1.53-.34-1.3.88.28,1.43-.72,1.43-1.64,1.51-1.29.12-.92-.91-1-1.55-.36-3.72-.62-7.45-1-11.16-.16-1.43.36-1.87,1.71-1.95a23.68,23.68,0,0,1,5.46.13c2.29.39,4.21,1.25,4.76,3.71s-.84,4.08-2.8,5.31C466,296.51,465.41,296.6,465.23,297.31Zm-5-5c0,.93.07,1.68.13,2.42,0,.46,0,1.16.74.93a10.61,10.61,0,0,0,5.29-3.06c.44-.52.22-1.11-.1-1.62-.61-1-4.25-1.86-5.58-1.3C459.15,290.37,460.58,291.61,460.24,292.33Z" transform="translate(-329.19 -200.58)"/><path class="1b6d3c84-e6ab-4e99-9a9d-6b6ff0fe4b87" d="M475.61,287.44c2.48.07,5.46,1.78,7.34,5.19,2,3.64.73,7.19-3.08,8.82a11,11,0,0,1-2.15.6c-4.71,1-5.13.65-5.58-4.08-.24-2.48-.42-5-.68-7.46C471.14,287.48,471.18,287.41,475.61,287.44Zm-1.19,5.31c.14,1.9.27,3.65.42,5.39.05.62-.14,1.51.86,1.48,1.84-.06,3.76-.16,4.93-1.88s.5-3.37-.58-4.85a6.76,6.76,0,0,0-2.51-2c-.92-.45-2-1-2.84-.5S474.56,292.05,474.41,292.75Z" transform="translate(-329.19 -200.58)"/><path class="c33b29c9-3d49-4775-b0c2-35324548e852" d="M429.66,278.37c-2.39.71-2.81-.75-2.89-3-.12-3.24-.43-6.47-.81-9.69-.17-1.41.17-1.86,1.63-2a10,10,0,0,1,9.5,4.33c2.75,3.92,1.29,8.23-3.24,9.78A10,10,0,0,1,429.66,278.37Zm-.72-10.58c.16,2.18.32,4.5.49,6.82,0,.6.14,1.22.95,1.18,1.86-.07,3.76-.25,4.88-2s.45-3.35-.71-4.8a7.62,7.62,0,0,0-4.19-2.53C429.44,266.27,428.62,266.31,428.94,267.79Z" transform="translate(-329.19 -200.58)"/><path class="c33b29c9-3d49-4775-b0c2-35324548e852" d="M443.38,301c.64-3.6,1.3-7.19,1.89-10.8a1.61,1.61,0,0,1,1.36-1.47c4.75-1.46,4.78-1.51,6.29,3.22.91,2.84,1.69,5.72,2.54,8.58.25.85.5,1.59-.8,1.83s-1.6-.24-1.86-1.34,0-2.78-1.25-2.94a11.1,11.1,0,0,0-4.62.75c-1.16.37-.67,1.74-.89,2.64-.28,1.16-.88,1.15-1.79,1.1C443.05,302.49,443.24,301.74,443.38,301Zm8-5.66c-1.23-1.5-.2-4.46-2.73-4.19-2,.21-1.86,3.13-1.41,4.13C447.94,296.84,449.73,295.14,451.39,295.33Z" transform="translate(-329.19 -200.58)"/><path class="c33b29c9-3d49-4775-b0c2-35324548e852" d="M428.65,240.72c.53.39,2-.78,2,1.15-.05,1.62-1.05,1.54-2.19,1.51a9.46,9.46,0,0,0-5.45,1.44c-.59.38-1.54.69-1.29,1.6s1.11.6,1.74.65c1.57.14,3.16.12,4.72.28s3.18.72,3.62,2.52-.62,2.82-1.85,3.79a12,12,0,0,1-5,2.19c-.73.16-1.67.54-1.92-.8-.21-1.12,0-1.61,1.26-1.81a14.29,14.29,0,0,0,3.47-1.3c.59-.27,1.29-.7,1.05-1.48s-1-.54-1.52-.58a31.89,31.89,0,0,1-5.46-.36c-1.33-.33-2.64-.69-3-2.19a3.56,3.56,0,0,1,1.59-3.9A13.21,13.21,0,0,1,428.65,240.72Z" transform="translate(-329.19 -200.58)"/><path class="1b6d3c84-e6ab-4e99-9a9d-6b6ff0fe4b87" d="M458.27,274.23c-.61.09-1.26.2-1.92.27-1.61.15-2.85.61-2.82,2.61,0,1-.23,2-1.75,1.7s-1-1.3-.88-2.08c.49-3,1.16-6,1.59-9.08.25-1.8.89-2.66,2.87-2.93,3.73-.51,3.74-.69,4.88,2.88a73.4,73.4,0,0,1,2.73,9.31c.15.82.36,1.45-.83,1.55-.89.07-1.66.21-1.81-1-.09-.74-.37-1.45-.51-2.18S459.34,273.78,458.27,274.23ZM456,271.89c.43-.69,2.45.69,2.29-1.19-.1-1.17,0-3.28-1.76-3.34-2.46-.1-1.36,2.34-1.91,3.62C454.17,272,454.91,272.05,456,271.89Z" transform="translate(-329.19 -200.58)"/><path class="c33b29c9-3d49-4775-b0c2-35324548e852" d="M395.65,251.41c-2.47.58-5.39,0-5.24,3.76.06,1.36-1.17.83-1.9.8-1.12-.05-.74-.92-.64-1.49.61-3.52,1.38-7,1.84-10.55.23-1.76,1.47-1.55,2.5-1.8,3.83-.92,3.86-.9,5.06,2.79A82.63,82.63,0,0,1,400,254c.18.89.45,1.57-.8,1.85s-1.54-.29-1.87-1.32S397.51,251.48,395.65,251.41Zm.13-2.79c-1.25-1.17,0-4.21-2.64-3.88-1.8.22-1.19,2.61-1.49,4C391.49,249.51,391.76,249.56,395.77,248.61Z" transform="translate(-329.19 -200.58)"/><path class="c33b29c9-3d49-4775-b0c2-35324548e852" d="M419.27,291.26c0-.75,0-1.5-.12-2.24-.14-1,.25-1.31,1.19-1.42,1.14-.12,1.52.34,1.46,1.39a9.66,9.66,0,0,0,0,1c.18,4,.17,3.94,4.12,3.44,1.45-.19,1.82-.67,1.56-2.05-.22-1.13-.13-2.32-.25-3.48s.58-1.15,1.39-1.22,1.17.2,1.23,1.08q.42,6,1,11.92c.09,1-.26,1.3-1.2,1.37s-1.47-.08-1.42-1.13a2.9,2.9,0,0,0,0-.5c-.43-3.53-1.35-4.05-4.88-2.91-1.57.51-.7,1.61-.71,2.47s.6,1.94-1.13,2.09-1.48-.92-1.58-1.86c-.14-1.32-.18-2.65-.29-4s-.25-2.65-.38-4Z" transform="translate(-329.19 -200.58)"/><path class="c33b29c9-3d49-4775-b0c2-35324548e852" d="M395.67,263.36c.63.38,2-.75,2.16,1s-1.2,1.52-2.31,1.61a10.94,10.94,0,0,0-5,1.32c-.68.42-1.77.75-1.6,1.68s1.29.79,2.09.83c1.25.05,2.51,0,3.75.09,1.75.2,3.63.44,4.18,2.52s-.95,3.38-2.52,4.41a9.1,9.1,0,0,1-4.15,1.6c-.68.06-1.69,1-2-.53-.19-1.08-.13-1.94,1.35-2.06a7.21,7.21,0,0,0,3.67-1.45c.39-.29.92-.58.81-1.15s-.77-.62-1.2-.66c-1.58-.12-3.17-.06-4.74-.22-1.76-.17-3.68-.45-4.22-2.47s.92-3.42,2.52-4.43A13.68,13.68,0,0,1,395.67,263.36Z" transform="translate(-329.19 -200.58)"/><path class="9e45c3a0-0f8c-488c-a794-87e63ece8b46" d="M466.63,247.59c0-.25-.05-.5-.06-.75-.09-2-1.17-5,0-5.69,1.87-1.09,4.67-.59,7.07-.77.9-.07,1.11.42,1.14,1.22s-.07,1.44-1.15,1.42c-.91,0-1.83.21-2.74.18-1.45-.05-2,.34-1.87,2,.14,1.88,1.1,1.65,2.31,1.45.74-.12,1.5-.12,2.23-.24,1-.15,1.32.21,1.4,1.18s0,1.45-1.06,1.5-2,.26-3,.28-1.71.19-1.62,1.53c.1,1.52,1.06,1.2,1.94,1.11a14.09,14.09,0,0,0,2.71-.4c1.11-.34,1.49.11,1.72,1.1s-.15,1.38-1,1.59a25.32,25.32,0,0,1-6.44.66c-1.21,0-1.35-.7-1.36-1.61,0-1.91,0-3.83,0-5.74Z" transform="translate(-329.19 -200.58)"/><path class="1b6d3c84-e6ab-4e99-9a9d-6b6ff0fe4b87" d="M362.87,294c-.11-1.74-.11-3.5-.37-5.22-.21-1.39.33-1.76,1.57-1.78,1.83,0,3.66-.09,5.48-.23,1.11-.09,1.41.35,1.47,1.4s-.49,1.23-1.34,1.23-1.66.14-2.49.09c-1.51-.08-2,.48-1.89,2s.82,1.7,2.07,1.47c.89-.16,1.82-.11,2.73-.19s1.23.25,1.2,1.11c0,.72.26,1.55-.93,1.62s-2.15.31-3.22.3c-1.25,0-1.53.52-1.45,1.68.09,1.33.88,1.14,1.72,1a29.3,29.3,0,0,0,3-.46c.91-.23,1.41-.1,1.52.95.09.8.23,1.51-.83,1.71-.16,0-.33,0-.49.09C363.69,302.63,363.18,302.18,362.87,294Z" transform="translate(-329.19 -200.58)"/><path class="c33b29c9-3d49-4775-b0c2-35324548e852" d="M464.43,250.61c0,.43.14,1.42.27,2.41s.06,1.43-1,1.49-1.66,0-1.66-1.2c0-.25-.1-.5-.08-.74.22-2.51-.54-3.41-3.32-2.83-1.87.39-2.62.81-2.27,2.73.16.86.66,2-1.12,2.08s-1.38-1-1.46-1.89q-.42-4.85-.83-9.7c-.07-.81-.31-1.64,1-1.72,1.19-.07,1.71.26,1.66,1.47a13.59,13.59,0,0,0,.1,1.49c.23,3.37.21,3.25,3.71,2.85,1.66-.19,2.13-.77,1.86-2.32a21.07,21.07,0,0,1-.16-2.74c0-.81-.29-1.67,1.07-1.73s1.55.39,1.59,1.55C463.92,244.57,464.18,247.3,464.43,250.61Z" transform="translate(-329.19 -200.58)"/><path class="c33b29c9-3d49-4775-b0c2-35324548e852" d="M382.72,243.91c0-.87.06-1.62,0-2.36-.1-1,.4-1.25,1.31-1.27s1.27.3,1.34,1.27c.26,3.82.58,7.63.94,11.43.1,1-.15,1.49-1.28,1.55s-1.39-.25-1.37-1.21c0-.25-.11-.5-.09-.74.26-2.84-1-3.27-3.6-2.82-1.93.33-2.35.94-2.05,2.66.15.84.82,2-1,2.11-1.59.12-1.52-.79-1.59-1.82-.23-3.32-.44-6.64-.77-9.95-.11-1.08.13-1.48,1.25-1.54s1.47.38,1.45,1.42c0,.83.18,1.67.1,2.49-.21,2.17.85,2.3,2.67,2.12C382.33,247,383.66,246.4,382.72,243.91Z" transform="translate(-329.19 -200.58)"/><path class="1b6d3c84-e6ab-4e99-9a9d-6b6ff0fe4b87" d="M390.69,286.83c.91,0,1.83,0,2.74,0s1,.62,1,1.3.07,1.33-.94,1.32-1.83.14-2.74.09c-1.62-.09-2.08.56-2,2.19.08,1.83,1.09,1.43,2.17,1.31.83-.09,1.66-.08,2.49-.17s1.37.21,1.37,1.21c0,.81,0,1.48-1.05,1.54s-2.15.28-3.23.29-1.38.48-1.35,1.53c0,1.2.6,1.37,1.59,1.2s2-.21,3-.45,1.51-.17,1.68,1-.17,1.57-1.2,1.67l-.25,0c-6.53,1.57-7.13,1.14-7.57-5.46a57.09,57.09,0,0,0-.36-6c-.34-2,.34-2.56,2.16-2.46a23.34,23.34,0,0,0,2.49-.11Z" transform="translate(-329.19 -200.58)"/><path class="1b6d3c84-e6ab-4e99-9a9d-6b6ff0fe4b87" d="M432.73,294.19c0-1.08,0-2.16,0-3.24-.17-3.84-.18-3.84,3.79-4,1.16-.05,2.33-.05,3.49-.11s.95.66,1,1.32,0,1.3-1,1.29-1.83.14-2.74.09c-1.58-.08-2.12.49-2,2.16s1.06,1.49,2.17,1.35c.82-.11,1.66-.09,2.49-.17s1.39.18,1.38,1.2c0,.8,0,1.49-1,1.55s-2.15.27-3.23.29-1.38.5-1.35,1.54c0,1.23.66,1.34,1.62,1.18a28.55,28.55,0,0,0,3-.45c1-.29,1.45-.1,1.65,1s-.16,1.54-1.18,1.66l-.25,0C433.77,302.5,433.31,302.1,432.73,294.19Z" transform="translate(-329.19 -200.58)"/><path class="c33b29c9-3d49-4775-b0c2-35324548e852" d="M376.49,270.36c-.68-7.29-.68-7.26,6.7-7.29,1.07,0,1.5.25,1.54,1.35s-.32,1.37-1.27,1.38-1.66.09-2.49.09c-1.21,0-2.23-.1-2.1,1.77.12,1.68.82,1.93,2.2,1.7.82-.14,1.67-.09,2.48-.24,1-.18,1.34.24,1.35,1.19s.08,1.52-1,1.53-2,.13-3,.14-1.62.34-1.58,1.61c0,1.5,1,1.29,1.86,1.19a21.29,21.29,0,0,0,3-.46c1-.27,1.26.24,1.48,1.08s.09,1.45-.94,1.54a3.74,3.74,0,0,0-.73.15c-2,.59-4.34,1.06-6.13.32-2.19-.91-.53-3.52-1.09-5.29A8.59,8.59,0,0,1,376.49,270.36Z" transform="translate(-329.19 -200.58)"/><path class="c33b29c9-3d49-4775-b0c2-35324548e852" d="M507,263.26c.39,0,1.31-.06,2.21-.19s1.28.36,1.33,1.26-.13,1.46-1.16,1.46c-.83,0-1.66.1-2.49.08-1.26,0-2.16,0-2.09,1.79s.83,1.88,2.17,1.68c.82-.12,1.66-.1,2.48-.23,1-.16,1.36.24,1.4,1.2s0,1.5-1.1,1.51c-.91,0-1.83.1-2.74.13-1.09,0-1.92.15-1.79,1.66.14,1.74,1.28,1.15,2.16,1.1a21.86,21.86,0,0,0,2.46-.38c.74-.13,1.49-.39,1.57.85.06.86.35,1.72-1,1.76a.93.93,0,0,0-.25,0c-2.1.65-4.51,1.19-6.37.41-2.32-1-.75-3.77-1.31-5.69a16,16,0,0,1-.22-3.73C502.06,263.5,502.06,263.5,507,263.26Z" transform="translate(-329.19 -200.58)"/><path class="c33b29c9-3d49-4775-b0c2-35324548e852" d="M444,263.34c1.49-.12,2.41-.15,3.31-.27s1.32.31,1.38,1.24-.14,1.45-1.16,1.47-1.83.11-2.74.09c-1.17,0-2,0-1.94,1.68s.57,2.09,2.09,1.81c.89-.17,1.82-.13,2.73-.26s1.2.29,1.22,1.1.18,1.56-1,1.62c-.91,0-1.83.12-2.74.13-1.21,0-2.1.17-1.89,1.8s1.43,1,2.26,1a8.85,8.85,0,0,0,2.45-.39c1.2-.36,1.34.34,1.58,1.23.3,1.1-.29,1.29-1.12,1.41-.57.09-1.12.3-1.69.39-5.49.92-5.7.75-6.07-4.65-.15-2.24-.18-4.49-.5-6.71-.28-2,.21-3,2.39-2.66A6.83,6.83,0,0,0,444,263.34Z" transform="translate(-329.19 -200.58)"/><path class="1b6d3c84-e6ab-4e99-9a9d-6b6ff0fe4b87" d="M378.55,297.2c1.24-3,2.38-5.84,3.54-8.64.33-.81.47-1.79,1.84-1.18s.95,1.41.51,2.37A70.11,70.11,0,0,0,380.69,300c-.28,1-.62,1.78-1.92,1.87s-1.48-.85-1.88-1.62a56.31,56.31,0,0,1-4-10.68c-.25-.89-.52-1.74.84-2.09s1.47.4,1.75,1.38A36.39,36.39,0,0,0,378.55,297.2Z" transform="translate(-329.19 -200.58)"/><path class="9e45c3a0-0f8c-488c-a794-87e63ece8b46" d="M494.69,273.31c1.27-3.06,2.42-5.87,3.59-8.67.32-.76.51-1.57,1.75-1s1.2,1,.71,2.07a64.42,64.42,0,0,0-4,10.69c-.23.85-.54,1.48-1.61,1.56a1.74,1.74,0,0,1-1.92-1.14,58.9,58.9,0,0,1-4.32-11.35c-.22-.79-.3-1.44.81-1.64.92-.17,1.48-.22,1.79.94A33.06,33.06,0,0,0,494.69,273.31Z" transform="translate(-329.19 -200.58)"/><path class="9e45c3a0-0f8c-488c-a794-87e63ece8b46" d="M479.78,275.18c1.14-.41,1.62,0,1.82,1.2.24,1.51-.72,1.4-1.63,1.49-1.49.14-3,.32-4.47.41-.59,0-1.47.46-1.61-.57-.11-.8-.61-1.9.89-2.1,1.08-.15.92-1,.85-1.72-.14-1.57-.28-3.15-.44-4.72-.14-1.4.26-3.19-2.29-2.61-1,.23-.78-.84-.91-1.42s0-1.17.81-1.23c2.24-.18,4.48-.35,6.72-.55.89-.08,1.15.38,1.2,1.18s0,1.54-1.07,1.47c-1.95-.11-2.08,1-1.87,2.55a53.44,53.44,0,0,1,.48,5.47C478.29,275.19,478.74,275.49,479.78,275.18Z" transform="translate(-329.19 -200.58)"/><path class="1b6d3c84-e6ab-4e99-9a9d-6b6ff0fe4b87" d="M372.9,243c.34,1.58-.82,1.46-1.67,1.4-2.15-.14-2.69.85-2.44,2.84.29,2.3.33,4.64.48,7,.06,1,.28,2-1.31,2.07s-1.28-.95-1.34-1.79c-.18-2.49-.37-5-.43-7.46,0-1.48-.46-2.13-2.06-1.71-.94.25-1.92.43-2.07-1.18s.87-1.35,1.7-1.45c2.55-.33,5.11-.57,7.66-.93C372.55,241.56,373,241.94,372.9,243Z" transform="translate(-329.19 -200.58)"/><path class="1b6d3c84-e6ab-4e99-9a9d-6b6ff0fe4b87" d="M415.25,333.34a1.15,1.15,0,0,1-1.24-.66c-.42-.88.22-1.41.83-1.83a22,22,0,0,0,5.9-6,31.67,31.67,0,0,0,4.17-9.53c.25-.93.43-2.19,1.83-1.85s.89,1.5.63,2.44c-1.77,6.48-4.75,12.2-10.18,16.4C416.08,333.15,415.71,333.33,415.25,333.34Z" transform="translate(-329.19 -200.58)"/><path class="9e45c3a0-0f8c-488c-a794-87e63ece8b46" d="M410.78,264.9c.28,1.47-.8,1.52-1.69,1.44-2.38-.22-2.73.89-2.43,3,.33,2.29.29,4.64.44,7,.06.88.14,1.62-1.14,1.7s-1.56-.48-1.6-1.59c-.1-2.49-.34-5-.41-7.47,0-1.41-.28-2.26-2-1.73-1,.3-1.94.45-2.12-1.14s.88-1.37,1.7-1.48c2.55-.33,5.12-.55,7.67-.91C410.31,263.5,410.82,263.79,410.78,264.9Z" transform="translate(-329.19 -200.58)"/><path class="9e45c3a0-0f8c-488c-a794-87e63ece8b46" d="M447.6,252.89c.22,1.58.22,2.34-1.17,2.45s-1.38-.84-1.44-1.72c-.17-2.4-.33-4.81-.41-7.22,0-1.47-.37-2.42-2.13-2-1.1.29-1.91.22-2-1.26s1-1.21,1.83-1.32c2.47-.34,4.94-.62,7.41-.92.86-.11,1.61-.21,1.7,1.09.08,1.1-.26,1.57-1.32,1.52-2.54-.13-3.19,1.08-2.81,3.47A52.35,52.35,0,0,1,447.6,252.89Z" transform="translate(-329.19 -200.58)"/><path class="9e45c3a0-0f8c-488c-a794-87e63ece8b46" d="M402.86,244.48c-1.12.28-1.9.15-2-1.32s1.06-1.18,1.86-1.29c2.47-.34,4.95-.61,7.42-.93.91-.12,1.59-.11,1.7,1.14s-.38,1.54-1.37,1.48c-2.63-.15-3.13,1.17-2.75,3.5a52.32,52.32,0,0,1,.37,6c0,1,.6,2.21-1.25,2.31-1.7.09-1.36-1.1-1.43-2-.18-2.32-.35-4.64-.41-7C405,244.89,404.68,243.89,402.86,244.48Z" transform="translate(-329.19 -200.58)"/><path class="9e45c3a0-0f8c-488c-a794-87e63ece8b46" d="M423.81,274.95c0,.66,0,1.33.11,2,.14,1-.46,1.22-1.31,1.34-1,.14-1.29-.28-1.36-1.22-.27-3.88-.59-7.76-.91-11.65-.08-1,.07-1.53,1.26-1.58s1.37.52,1.44,1.46C423.28,268.51,423.55,271.73,423.81,274.95Z" transform="translate(-329.19 -200.58)"/><path class="1b6d3c84-e6ab-4e99-9a9d-6b6ff0fe4b87" d="M489.33,293c.08.74.13,1.48.25,2.22.15.91-.31,1.18-1.11,1.19s-1.52.19-1.6-1c-.18-2.47-.4-4.95-.64-7.42-.08-.85.24-1.21,1.1-1.22s1.48-.17,1.56,1c.11,1.73.34,3.45.52,5.18Z" transform="translate(-329.19 -200.58)"/><path class="9e45c3a0-0f8c-488c-a794-87e63ece8b46" d="M486.63,266.53c.26,1.11-.11,1.46-.94,1.53s-1.55.34-1.68-.78c-.16-1.39-.25-2.78-.38-4.17-.1-1,.66-1,1.28-1.09s1.31-.11,1.38.86C486.38,264.18,486.53,265.48,486.63,266.53Z" transform="translate(-329.19 -200.58)"/><path class="9e45c3a0-0f8c-488c-a794-87e63ece8b46" d="M416.87,243.26c-.17.77.79,2-1,2.18s-1.5-1-1.61-2c-.08-.74-.2-1.49-.31-2.23-.15-1-.23-1.76,1.18-1.9s1.45.74,1.56,1.66C416.75,241.72,416.8,242.47,416.87,243.26Z" transform="translate(-329.19 -200.58)"/><path class="9e45c3a0-0f8c-488c-a794-87e63ece8b46" d="M489.84,300.66c.26,1.12-.39,1.15-1.23,1.24-1.38.15-1.33-.75-1.5-1.65s.4-1,1.12-1.08C489.35,299.09,490,299.49,489.84,300.66Z" transform="translate(-329.19 -200.58)"/><path class="00c3eef9-02b2-4d95-9e79-ad645d5f46e7" d="M518.39,437.85l.2-6.31.61-.08.05,2.89C518.41,435.38,519.25,436.82,518.39,437.85Z" transform="translate(-329.19 -200.58)"/><path class="aead079c-ad7b-4575-a550-b51f26d5e6f4" d="M392.77,342.18c11.84.13,22.18,3.51,29.89,13.18,13.1,16.43,3.78,46.53-20.5,50-15.35,2.2-37-5-41.53-28.29a29.15,29.15,0,0,1,23.69-34.19A46.12,46.12,0,0,1,392.77,342.18Zm24.09,17.65c-.09-.39-.27-.67-.73-.63l.39,1a10.06,10.06,0,0,0,9.62,5.33A41,41,0,0,1,416.86,359.83Zm-19.52,32.8c8.91-.05,14.59-5.06,18.79-12.31.9-1.56.93-2.49-1.42-2.43-3.57.09-7.16-.15-10.74-.26-7.58-.25-15.11-1.1-22.66-1.75-1.35-.12-2.21,0-1.85,1.83C381.37,387.61,387.26,392.57,397.34,392.63Zm22-24.33a4.39,4.39,0,0,0-4.65,4.45,4.59,4.59,0,0,0,4.23,4.91,4.73,4.73,0,0,0,5-4.78A4.48,4.48,0,0,0,419.33,368.3Zm-23.34-2a4.52,4.52,0,0,0-4.64,4.48,5,5,0,0,0,4.89,4.92c2.23,0,4.44-2.32,4.49-4.77A4.56,4.56,0,0,0,396,366.32Zm-6.55-3.62a8.38,8.38,0,0,0,10-4.53C396.32,360.47,393.05,361.57,389.45,362.7Z" transform="translate(-329.19 -200.58)"/><path class="00c3eef9-02b2-4d95-9e79-ad645d5f46e7" d="M367.86,398.61c18.3,10.9,22.63,11.92,39.85,9.34-.33,3.4-.62,6.77-1,10.14a173.56,173.56,0,0,0-.42,29.66c.14,2.1-.32,3.05-2.57,3.47a84.93,84.93,0,0,1-31,0c-3.11-.57-5.85-2.31-8.56-4-1-.58-.93-1.49-1-2.38a95.59,95.59,0,0,1,2-34.92C366,406.21,366.92,402.44,367.86,398.61Z" transform="translate(-329.19 -200.58)"/><path class="e0ae1b5c-6432-4acb-a5f6-57d09f607500" d="M486.89,343.34c10.47-.16,19.42,2.77,26.35,10.44,8.92,9.88,9.65,23.63,2.3,36.17-6.11,10.43-15.78,14.79-27.13,16.41A35.07,35.07,0,0,1,472.65,405c-13.07-4.12-22.09-19.88-20.76-33.83s13.57-25.55,27.38-27.33A47.63,47.63,0,0,1,486.89,343.34Zm-11.15,40.83h7.41a1.81,1.81,0,0,0-1.89-.74c-4-1.16-8,.22-12.06-.4-1.14-.18-.35.58.08.87a2.37,2.37,0,0,0,2.06.32Zm-11.94-9a4.6,4.6,0,0,0-4.72-4.71A4.78,4.78,0,0,0,454.4,375a5.06,5.06,0,0,0,5,4.89A4.68,4.68,0,0,0,463.81,375.18ZM482.18,379a4.93,4.93,0,0,0,5-4.81,4.8,4.8,0,0,0-4.51-4.49,4.66,4.66,0,0,0-.52,9.31Z" transform="translate(-329.19 -200.58)"/><path class="8ac04ff0-a788-4aab-9f66-cd7aca0e2c58" d="M511.27,400.95c2.57,11.66,4.89,23.12,3.76,35-.35,3.72-.69,7.44-1.13,11.16a3.87,3.87,0,0,1-2.25,3.24,26.9,26.9,0,0,1-12.11,3.45c-9.18.47-18.28.06-27.23-2.31-1.43-.38-1.76-.91-1.64-2.38a248.52,248.52,0,0,0,1.12-28.91c-.11-3.41-.35-6.81-.65-10.2-.1-1.14-.22-1.71,1.3-1.38C487.55,411.88,497.06,410,511.27,400.95Z" transform="translate(-329.19 -200.58)"/><path class="3ad7b2b0-ad48-4ca4-93ed-8b771b2a8eb5" d="M519.21,431.46l-.61.08c-.52-1.12,0-2.29-.14-3.44C518.53,429.27,519.46,430.23,519.21,431.46Z" transform="translate(-329.19 -200.58)"/><path class="18eb85bd-0330-465d-83d9-ddc4bf1d0c99" d="M368.3,272.74a3,3,0,0,1,.5,0c1.15.18,2.84-.31,2.93,1.46.07,1.5-1.48,1.5-2.58,1.75a14.31,14.31,0,0,1-1.71.29c-1.09.11-2.08.31-2.19-1.43-.1-1.53.27-2.16,1.81-2A7.28,7.28,0,0,0,368.3,272.74Z" transform="translate(-329.19 -200.58)"/><path class="18eb85bd-0330-465d-83d9-ddc4bf1d0c99" d="M364.85,268.59c-.49-2.5,1.23-2.09,2.46-2.14,1,0,2.31-.27,2.78,1,.29.8-3,2.76-4.42,2.78C364,270.25,365.45,268.82,364.85,268.59Z" transform="translate(-329.19 -200.58)"/><path class="18eb85bd-0330-465d-83d9-ddc4bf1d0c99" d="M402.23,289.57c1.78.39,4-.07,4.43,2.4.18,1-4.41,4.22-5.46,3.64-1.79-1-.67-3.08-1-4.66C399.73,288.92,401.52,290,402.23,289.57Z" transform="translate(-329.19 -200.58)"/><path class="18eb85bd-0330-465d-83d9-ddc4bf1d0c99" d="M460.24,292.33c.34-.72-1.09-2,.48-2.63,1.33-.56,5,.32,5.58,1.3.32.51.54,1.1.1,1.62a10.61,10.61,0,0,1-5.29,3.06c-.76.23-.7-.47-.74-.93C460.31,294,460.29,293.26,460.24,292.33Z" transform="translate(-329.19 -200.58)"/><path class="18eb85bd-0330-465d-83d9-ddc4bf1d0c99" d="M474.41,292.75c.15-.7-.62-1.87.27-2.37s1.93,0,2.84.5a6.76,6.76,0,0,1,2.51,2c1.08,1.48,1.74,3.14.58,4.85s-3.09,1.82-4.93,1.88c-1,0-.81-.86-.86-1.48C474.68,296.4,474.56,294.66,474.41,292.75Z" transform="translate(-329.19 -200.58)"/><path class="18eb85bd-0330-465d-83d9-ddc4bf1d0c99" d="M428.94,267.79c-.32-1.48.5-1.52,1.41-1.29a7.62,7.62,0,0,1,4.19,2.53c1.17,1.45,1.84,3.09.71,4.8s-3,1.89-4.88,2c-.81,0-.9-.59-.95-1.18C429.26,272.29,429.09,270,428.94,267.79Z" transform="translate(-329.19 -200.58)"/><path class="18eb85bd-0330-465d-83d9-ddc4bf1d0c99" d="M451.39,295.33c-1.66-.19-3.45,1.51-4.14-.06-.44-1-.55-3.92,1.41-4.13C451.19,290.88,450.16,293.83,451.39,295.33Z" transform="translate(-329.19 -200.58)"/><path class="18eb85bd-0330-465d-83d9-ddc4bf1d0c99" d="M456,271.89c-1.08.16-1.82.1-1.38-.92.55-1.27-.55-3.71,1.91-3.62,1.72.07,1.65,2.17,1.76,3.34C458.44,272.59,456.42,271.2,456,271.89Z" transform="translate(-329.19 -200.58)"/><path class="18eb85bd-0330-465d-83d9-ddc4bf1d0c99" d="M395.77,248.61c-4,1-4.29.9-4.13.17.3-1.44-.3-3.82,1.49-4C395.78,244.4,394.53,247.44,395.77,248.61Z" transform="translate(-329.19 -200.58)"/><path class="2f57126b-05ff-46e7-9cdd-26a528cab50b" d="M397.34,392.63c-10.08-.06-16-5-17.88-14.93-.36-1.86.5-1.94,1.85-1.83,7.55.65,15.08,1.51,22.66,1.75,3.58.12,7.16.35,10.74.26,2.35-.06,2.33.87,1.42,2.43C411.93,387.58,406.25,392.58,397.34,392.63Z" transform="translate(-329.19 -200.58)"/><path class="18186913-eeec-464e-88a8-73218e1e2089" d="M419.33,368.3a4.48,4.48,0,0,1,4.55,4.59,4.73,4.73,0,0,1-5,4.78,4.59,4.59,0,0,1-4.23-4.91A4.39,4.39,0,0,1,419.33,368.3Z" transform="translate(-329.19 -200.58)"/><path class="18186913-eeec-464e-88a8-73218e1e2089" d="M396,366.32a4.56,4.56,0,0,1,4.74,4.63c0,2.45-2.26,4.8-4.49,4.77a5,5,0,0,1-4.89-4.92A4.52,4.52,0,0,1,396,366.32Z" transform="translate(-329.19 -200.58)"/><path class="20ae5fe2-82ca-4ddf-8ae1-bd0f3db891b0" d="M416.86,359.83a41,41,0,0,0,9.28,5.67,10.06,10.06,0,0,1-9.62-5.33A4,4,0,0,0,416.86,359.83Z" transform="translate(-329.19 -200.58)"/><path class="20ae5fe2-82ca-4ddf-8ae1-bd0f3db891b0" d="M389.45,362.7c3.6-1.13,6.87-2.22,10-4.53A8.38,8.38,0,0,1,389.45,362.7Z" transform="translate(-329.19 -200.58)"/><path class="20ae5fe2-82ca-4ddf-8ae1-bd0f3db891b0" d="M416.52,360.17l-.39-1c.46,0,.64.24.73.63A4,4,0,0,1,416.52,360.17Z" transform="translate(-329.19 -200.58)"/><path class="18186913-eeec-464e-88a8-73218e1e2089" d="M463.81,375.18a4.68,4.68,0,0,1-4.44,4.71,5.06,5.06,0,0,1-5-4.89,4.78,4.78,0,0,1,4.69-4.54A4.6,4.6,0,0,1,463.81,375.18Z" transform="translate(-329.19 -200.58)"/><path class="2f57126b-05ff-46e7-9cdd-26a528cab50b" d="M482.18,379a4.66,4.66,0,0,1,.52-9.31,4.8,4.8,0,0,1,4.51,4.49A4.93,4.93,0,0,1,482.18,379Z" transform="translate(-329.19 -200.58)"/><path class="20ae5fe2-82ca-4ddf-8ae1-bd0f3db891b0" d="M469.29,383.9c-.44-.29-1.22-1-.08-.87,4,.62,8.08-.76,12.06.4-1.72,1.14-3.77-.16-5.52.74l-4.39,0A2.87,2.87,0,0,0,469.29,383.9Z" transform="translate(-329.19 -200.58)"/><path class="3ad7b2b0-ad48-4ca4-93ed-8b771b2a8eb5" d="M475.75,384.17c1.75-.89,3.8.41,5.52-.74a1.81,1.81,0,0,1,1.89.74Z" transform="translate(-329.19 -200.58)"/><path class="3ad7b2b0-ad48-4ca4-93ed-8b771b2a8eb5" d="M469.29,383.9a2.87,2.87,0,0,1,2.06.32A2.37,2.37,0,0,1,469.29,383.9Z" transform="translate(-329.19 -200.58)"/></svg>