<svg id="49a22ce1-57ba-43ce-9236-e10639422366" data-name="Capa 1" xmlns="http://www.w3.org/2000/svg" viewBox="0 0 213.64 309.74"><defs><style>.d82f7a03-1be6-4bc9-aa93-e785c4a106ae{fill:#181816;}.afe5c344-1092-40ea-9570-97d2e24c5c5b{fill:#fefefe;}.\36 6782fb5-2168-41b0-9a17-f8835194aefc{fill:#f7cca0;}.ed502960-9a76-4a93-bdbd-b745ad96a32e{fill:#f6cb9f;}.\33 86f4b9f-c9a6-4f54-92d4-a9e1bd3523f8{fill:#509341;}.\36 c47aecc-a12c-4fa9-904b-04a2f0185bb1{fill:#f8f8f8;}.\33 fe6e215-56e6-4ae6-9690-ab9a92160577{fill:#f0c79d;}.\35 40fbe53-6840-4ab1-bc14-1beb3e5d1be0{fill:#223d1f;}.\37 7b589fd-2efe-4ba9-b291-6b7d0fd90017{fill:#141414;}.\31 dbb8a25-0d6c-4843-ad3c-002a756e0a0e{fill:#9c9c9b;}.e11f4302-fdf1-4636-86a2-04d464e3ce0a{fill:#16100a;}.\37 6e633c6-cc4a-444d-b384-e8f09135c3c5{fill:#95b4c7;}.\33 da59cc3-67c8-4641-9fe2-31d7901f8340{fill:#828181;}</style></defs><title>card-8</title><path class="d82f7a03-1be6-4bc9-aa93-e785c4a106ae" d="M314.29,297.54q0-71.5,0-143c0-1.17,0-2.34.12-3.49a8.49,8.49,0,0,1,8-8.07c1.57-.14,3.16-.22,4.74-.22H514.94c1.33,0,2.66.08,4,.16,5.43.32,8.54,3.38,9,8.82.06.83,0,1.67,0,2.5q0,143,0,286c0,.67,0,1.33,0,2-.12,6.89-3.53,10.26-10.39,10.26H325.27c-7.66,0-11-3.25-11-10.94q0-36.75,0-73.5Q314.29,332.79,314.29,297.54Zm147.1,83,.61.61c-.13.51-.22,1.07.41,1.25,2,.56,4,1.51,6,1.43,1.32-.05,1.79-2.17,2.59-3.4.11-.17.39-.22.83-.46.42,2.06-1.23,3.21-1.76,4.79a6.08,6.08,0,0,1,1.48.44c2,1.23,3.14.6,4.38-1.28a41.15,41.15,0,0,1,8.57-9.35c3.36-2.72,3.28-2.7.11-5.84-2-1.94-3.63-3.3-6.53-1.19-2,1.47-2.82.79-3.24-1.74,0-.16,0-.33-.06-.49-2.6.33-3.59-1.79-5.27-3.05a2.82,2.82,0,0,0-4.24,2.2,11.21,11.21,0,0,1-1.64,3.35,174.23,174.23,0,0,1-21.45,29.08c-1.63,1.79-1.08,2.34.59,3.39,7.52,4.73,15.69,8,24,11.08,2,.74,2.51.51,2.12-1.61-1.16-6.28.18-12.23,2.48-18,.38-1,1.53-2.12-.34-2.84-1.44-.56-2.75-1.42-4,.59a72.66,72.66,0,0,1-9,10.7c-.57.6-1.05,1.54-2.44,1.26l11.09-14.08c-2.8-.74-5.1-1.71-7.64-1.86-1.45-.09-2.63-.84-2.57-2.44s1.47-1.61,2.62-1.41A2.27,2.27,0,0,0,461.39,380.52Zm37.94-14.2c.63.3,1.17,0,1.72-.07a40.45,40.45,0,0,1,19.73,1.14c2.89.94,2.9.92,2.9-2.09q0-104.75,0-209.49c0-7.78-1-8.79-8.75-8.79h-188c-1.08,0-2.17,0-3.25.05-3.31.18-5,1.82-5.23,5.13-.06.83,0,1.67,0,2.5q0,143,0,286c0,6,1.52,7.54,7.48,7.54H514.67c8.16,0,9-.92,9.06-9,0-2.37-.5-2.32-2.41-1.36-11.07,5.54-22.15,5.89-33.14-.32a36.9,36.9,0,0,1-16.58-18.66,4.58,4.58,0,0,0-3.06-2.87c-3.3-1.13-6.58-2.34-9.8-3.69-1.7-.71-2.16-.27-2.19,1.43A44.35,44.35,0,0,1,453.18,429c-.47,1.22-1,2.49-2.66,1.8s-1.19-1.89-.69-3.17a51.75,51.75,0,0,0,3.11-13.05c.36-3.16-.17-5.5-3.7-6.3a10.33,10.33,0,0,1-2.2-1.15A123.81,123.81,0,0,1,430,396c-.57,5.33-1.11,10.36-2.61,15.2-2.56,8.25-6.86,15.13-15,18.94-1.24.58-2.5,1-3.2-.56s.51-2,1.61-2.54a22.89,22.89,0,0,0,10.37-10.1c3.71-6.82,4.72-14.3,5.3-21.89a3.39,3.39,0,0,0-1.54-3.36,3.71,3.71,0,0,1-2-3c-.13-4.83-.43-9.66.53-14.44,1.46-7.34,4.65-13.55,11.86-16.82a3.43,3.43,0,0,0,2.36-3,10.7,10.7,0,0,1,3.47-6.22c3.34-3.31,7.34-3.42,11.12-.6,4.34,3.23,8.75,6.36,13.14,9.52,1,.69,2.06,1.56,3.19,1,2.66-1.44,5.55-1.21,8.37-1.6,3.12-.43,6.19-1.28,9.31-1.71,3.79-.53,7.6-1,11.44-.28,4.19.8,5.72,3.61,4,7.51C501,363.46,500.14,364.86,499.34,366.32Zm-14.7,64.41c.5-1,.89-1.79,1.32-2.59a229.63,229.63,0,0,0,9.59-20.94c.17-.43.51-.35.83-.31.91.13,1.81.27,2.71.45.38.08.88.14.85.7s-.54.65-.92.57c-2-.44-2.51,1-3.16,2.37-3,6.48-5.85,13-9.41,19.26-.66,1.15-.42,1.65.6,2.37,11.27,8,24.4,7.29,35.22.75a2.54,2.54,0,0,0,1.41-2.4q0-28.6,0-57.21a2,2,0,0,0-1.52-2.21,36.33,36.33,0,0,0-20.61-1.64c-9.38,2.08-16.32,7.83-22.13,15.25-1.57,2-1.61,2.88.7,4.38,7.17,4.63,7.8,10.87,2,17.13a42.24,42.24,0,0,1-7.3,6c-.62.43-1.53.65-1.1,1.87C476,420.86,479.19,426.44,484.63,430.73Zm-33.84-67.55c-1.28.77-2.07,1.25-3.29.35a36.62,36.62,0,0,0-5.57-3.29,3.44,3.44,0,0,0-3.21-.07,17.59,17.59,0,0,0-10.23,10.93c-1.25,3.58-1.45,7.31-1.81,11-.42,4.25.59,7.63,4.52,9.84a30.75,30.75,0,0,1,3.16,2.43c4,3,3.81,2.81,7.12-.74a132.42,132.42,0,0,0,21.8-30.86c.46-.92,1.35-1.71-.13-2.67C458.26,357,453.61,353.46,449,350c-1.51-1.14-4-.28-5.83,1.87-1.59,1.85-2.35,5.09-1.44,6.18a1.06,1.06,0,0,0,.39.31C445.08,359.51,447.12,362.37,450.79,363.18Zm42.42-5.65c-3.1,0-5.87.65-8.66.83-2.24.15-2.09,1.8-2.59,3-.62,1.5,1.08.94,1.62,1.46a19.41,19.41,0,0,0,2.9,2.32c1.84,1.2,2.79,4.55,5,3.87,1.91-.58,3.32-3.1,4.73-4.92,1.22-1.57,3.36-3.28,2.22-5.36C497.42,356.85,494.87,357.67,493.21,357.53Zm-20.6,52.16a27.67,27.67,0,0,0,6.82-5.5c4.51-5,3.56-9.53-2.48-12.6-1-.51-1.46-.34-1.87.62C472.72,397.71,471.53,403.38,472.61,409.69Z" transform="translate(-314.29 -142.74)"/><path class="afe5c344-1092-40ea-9570-97d2e24c5c5b" d="M499.34,366.32c.8-1.45,1.7-2.85,2.37-4.35,1.74-3.91.22-6.72-4-7.51-3.83-.73-7.65-.25-11.44.28-3.12.43-6.19,1.28-9.31,1.71-2.82.39-5.71.16-8.37,1.6-1.13.61-2.23-.26-3.19-1-4.38-3.17-8.8-6.3-13.14-9.52-3.78-2.81-7.79-2.7-11.12.6a10.7,10.7,0,0,0-3.47,6.22,3.43,3.43,0,0,1-2.36,3c-7.21,3.27-10.39,9.47-11.86,16.82-1,4.78-.66,9.61-.53,14.44a3.71,3.71,0,0,0,2,3,3.39,3.39,0,0,1,1.54,3.36c-.58,7.59-1.59,15.06-5.3,21.89A22.89,22.89,0,0,1,410.82,427c-1.11.53-2.3,1.07-1.61,2.54s2,1.14,3.2.56c8.17-3.81,12.47-10.69,15-18.94,1.5-4.85,2-9.87,2.61-15.2a123.81,123.81,0,0,0,17,11.16,10.33,10.33,0,0,0,2.2,1.15c3.53.8,4.06,3.14,3.7,6.3a51.75,51.75,0,0,1-3.11,13.05c-.5,1.28-.86,2.51.69,3.17s2.18-.58,2.66-1.8a44.35,44.35,0,0,0,3.37-15.26c0-1.7.49-2.15,2.19-1.43,3.21,1.35,6.49,2.56,9.8,3.69a4.58,4.58,0,0,1,3.06,2.87,36.9,36.9,0,0,0,16.58,18.66c11,6.21,22.07,5.87,33.14.32,1.91-1,2.43-1,2.41,1.36-.06,8.09-.9,9-9.06,9H325.93c-6,0-7.48-1.53-7.48-7.54q0-143,0-286c0-.83,0-1.67,0-2.5.24-3.31,1.91-5,5.23-5.13,1.08-.06,2.17-.05,3.25-.05h188c7.75,0,8.75,1,8.75,8.79q0,104.75,0,209.49c0,3,0,3-2.9,2.09a40.45,40.45,0,0,0-19.73-1.14C500.5,366.34,500,366.62,499.34,366.32ZM396.14,370l-.08-1.34.83,0c-.26,4.49.73,8.86,1.31,13.26.25,1.9.48,3.8.78,5.69a1.7,1.7,0,0,0,1.93,1.54c1.17,0,1.58-.82,1.55-1.85a22.55,22.55,0,0,0-.26-2.48,284.61,284.61,0,0,1-2.78-35.33,2.53,2.53,0,0,1,1.41-2.57,32.94,32.94,0,0,0,9.8-9.47c12.53-17.63,9.06-43.78-13.85-54.36-8.32-3.84-17.21-4.22-26.18-3.21a35.61,35.61,0,0,0-19.82,8.6C339.17,298.5,336.21,314,343,329.18c1.18,2.63,3.59,5,3.78,7.67s-1.69,5.65-2.44,8.54c-3.13,12.06-4.23,24.41-4.92,36.8-.12,2.08-.22,4.16-.27,6.24,0,1.11.4,2,1.66,2.08s1.76-.74,1.82-1.91c.09-1.83.18-3.66.3-5.49.15-2.47.33-4.93.49-7.4.8,3.7,1.07,7.41,1.54,11.1s.09,7.95,5,9.28c2.17.59,2.18,2,1.87,3.81A196.26,196.26,0,0,1,343.95,431c-.39,1.12-.93,2.37.58,3,1.7.68,2.38-.55,2.85-1.92a183.19,183.19,0,0,0,7.53-29.43c.2-1.23,0-2.8.7-3.6.83-1,2.19.29,3.34.44.25,0,.5,0,.75,0a87.93,87.93,0,0,0,27.59-.93c1.43-.29,2.13-.23,2.31,1.63,1,10.12,1.7,20.24,2,30.4,0,1.33-.07,3,1.86,2.9s1.69-1.68,1.65-3c-.28-10.16-.91-20.3-2-30.39-.22-1.94,0-3.19,2.22-3.45s2.63-1.33,2.42-3.47c-.56-5.7-1.48-11.37-1.31-17.13C396.47,374.06,396.75,372,396.14,370Z" transform="translate(-314.29 -142.74)"/><path class="66782fb5-2168-41b0-9a17-f8835194aefc" d="M484.63,430.73c-5.45-4.28-8.67-9.87-10.9-16.16-.43-1.22.48-1.45,1.1-1.87a42.24,42.24,0,0,0,7.3-6c5.78-6.26,5.14-12.5-2-17.13-2.32-1.5-2.27-2.38-.7-4.38,5.81-7.42,12.74-13.17,22.13-15.25a36.33,36.33,0,0,1,20.61,1.64,2,2,0,0,1,1.52,2.21q0,28.6,0,57.21a2.54,2.54,0,0,1-1.41,2.4c-10.82,6.54-23.95,7.23-35.22-.75-1-.72-1.26-1.21-.6-2.37,3.56-6.21,6.4-12.77,9.41-19.26.65-1.4,1.15-2.81,3.16-2.37.37.08.88,0,.92-.57s-.47-.63-.85-.7c-.9-.18-1.8-.31-2.71-.45-.31,0-.65-.12-.83.31A229.63,229.63,0,0,1,486,428.14C485.53,428.93,485.13,429.74,484.63,430.73Zm10.74,3.92a4.78,4.78,0,1,0-.13-9.55,5.06,5.06,0,0,0-4.85,4.73A4.91,4.91,0,0,0,495.38,434.65Z" transform="translate(-314.29 -142.74)"/><path class="ed502960-9a76-4a93-bdbd-b745ad96a32e" d="M450.79,363.18c-3.67-.81-5.71-3.67-8.71-4.87a1.06,1.06,0,0,1-.39-.31c-.91-1.09-.15-4.34,1.44-6.18,1.85-2.14,4.31-3,5.83-1.87,4.65,3.5,9.29,7,14.19,10.18,1.48,1,.59,1.75.13,2.67a132.42,132.42,0,0,1-21.8,30.86c-3.32,3.55-3.16,3.7-7.12.74a30.75,30.75,0,0,0-3.16-2.43c-3.93-2.21-4.94-5.59-4.52-9.84.37-3.73.56-7.46,1.81-11a17.59,17.59,0,0,1,10.23-10.93,3.44,3.44,0,0,1,3.21.07,36.62,36.62,0,0,1,5.57,3.29C448.72,364.43,449.51,363.95,450.79,363.18Z" transform="translate(-314.29 -142.74)"/><path class="386f4b9f-c9a6-4f54-92d4-a9e1bd3523f8" d="M461.39,380.52a2.27,2.27,0,0,1-2.31,1.07c-1.15-.2-2.56-.29-2.62,1.41s1.12,2.35,2.57,2.44c2.53.16,4.83,1.12,7.64,1.86l-11.09,14.08c1.39.28,1.87-.66,2.44-1.26a72.66,72.66,0,0,0,9-10.7c1.28-2,2.59-1.15,4-.59,1.87.72.72,1.88.34,2.84-2.3,5.82-3.64,11.77-2.48,18,.39,2.12-.14,2.34-2.12,1.61-8.28-3.07-16.45-6.35-24-11.08-1.67-1.05-2.22-1.6-.59-3.39a174.23,174.23,0,0,0,21.45-29.08,11.21,11.21,0,0,0,1.64-3.35,2.82,2.82,0,0,1,4.24-2.2c1.68,1.26,2.67,3.38,5.27,3.05,0,.16,0,.33.06.49.41,2.54,1.22,3.21,3.24,1.74,2.9-2.11,4.57-.76,6.53,1.19,3.17,3.13,3.25,3.12-.11,5.84a41.15,41.15,0,0,0-8.57,9.35c-1.24,1.88-2.41,2.51-4.38,1.28a6.08,6.08,0,0,0-1.48-.44c.53-1.58,2.18-2.73,1.76-4.79-.44.24-.72.29-.83.46-.8,1.23-1.27,3.35-2.59,3.4-2,.08-4-.87-6-1.43-.63-.18-.54-.74-.41-1.25a14.71,14.71,0,0,0,2.92-4.73l-.58-.35Z" transform="translate(-314.29 -142.74)"/><path class="6c47aecc-a12c-4fa9-904b-04a2f0185bb1" d="M493.21,357.53c1.66.14,4.21-.68,5.25,1.21,1.14,2.08-1,3.79-2.22,5.36-1.41,1.83-2.82,4.34-4.73,4.92-2.23.68-3.18-2.66-5-3.87a19.41,19.41,0,0,1-2.9-2.32c-.53-.52-2.23,0-1.62-1.46.5-1.21.35-2.86,2.59-3C487.34,358.18,490.11,357.48,493.21,357.53Z" transform="translate(-314.29 -142.74)"/><path class="3fe6e215-56e6-4ae6-9690-ab9a92160577" d="M472.61,409.69c-1.07-6.31.11-12,2.47-17.48.41-1,.87-1.13,1.87-.62,6,3.08,7,7.62,2.48,12.6A27.67,27.67,0,0,1,472.61,409.69Z" transform="translate(-314.29 -142.74)"/><path class="540fbe53-6840-4ab1-bc14-1beb3e5d1be0" d="M461.39,380.52l3-4.47.58.35a14.71,14.71,0,0,1-2.92,4.73Z" transform="translate(-314.29 -142.74)"/><path class="77b589fd-2efe-4ba9-b291-6b7d0fd90017" d="M396.36,376.12c-.16,5.75.76,11.43,1.31,17.13.21,2.13-.36,3.23-2.42,3.47s-2.44,1.5-2.22,3.45c1.13,10.1,1.76,20.24,2,30.39,0,1.32.32,3-1.65,3s-1.82-1.57-1.86-2.9c-.28-10.16-1-20.29-2-30.4-.18-1.85-.88-1.92-2.31-1.63a87.93,87.93,0,0,1-27.59.93c-.25,0-.5,0-.75,0-1.15-.15-2.51-1.39-3.34-.44-.7.8-.5,2.37-.7,3.6a183.19,183.19,0,0,1-7.53,29.43c-.47,1.37-1.15,2.6-2.85,1.92-1.51-.6-1-1.85-.58-3a196.26,196.26,0,0,0,7.85-31.15c.31-1.79.3-3.22-1.87-3.81-4.87-1.33-4.49-5.58-5-9.28s-.73-7.4-1.54-11.1c-.17,2.47-.34,4.93-.49,7.4-.11,1.83-.21,3.66-.3,5.49-.06,1.17-.6,2-1.82,1.91s-1.68-1-1.66-2.08c.05-2.08.16-4.16.27-6.24.7-12.39,1.79-24.74,4.92-36.8.75-2.89,2.65-5.77,2.44-8.54s-2.61-5-3.78-7.67c-6.81-15.22-3.85-30.68,7.76-40.77a35.61,35.61,0,0,1,19.82-8.6c9-1,17.86-.62,26.18,3.21,22.92,10.57,26.39,36.72,13.85,54.36a32.94,32.94,0,0,1-9.8,9.47,2.53,2.53,0,0,0-1.41,2.57,284.61,284.61,0,0,0,2.78,35.33,22.55,22.55,0,0,1,.26,2.48c0,1-.37,1.8-1.55,1.85a1.7,1.7,0,0,1-1.93-1.54c-.3-1.89-.53-3.79-.78-5.69-.59-4.41-1.57-8.77-1.31-13.26a15.35,15.35,0,0,0-.49-5v-1.93H396v1.94l0,5.05.08,1.34A15.5,15.5,0,0,0,396.36,376.12ZM377.45,283a43.08,43.08,0,0,0-7.66.56c-17.49,2.33-31.82,19.54-25.1,40.2,7,21.64,29.52,27.37,44.91,23.93,23.62-5.28,32.16-36.69,16.85-53.22C398.72,286.12,389.06,282.91,377.45,283Zm-25.79,58.54c-.58,2.8-1,5.08-1.54,7.34A105.72,105.72,0,0,0,349,389.8c.15.9.15,1.82,1.1,2.37,2.9,1.66,5.89,3.32,9.2,3.73A91.5,91.5,0,0,0,391,394.31c2.7-.61,3.12-1.73,2.84-4.2a180.56,180.56,0,0,1-.56-37.86c.12-1.26.13-1.81-1.48-1.34-7.31,2.11-14.66,1.58-22-.1A41.18,41.18,0,0,1,351.66,341.55Z" transform="translate(-314.29 -142.74)"/><path class="1dbb8a25-0d6c-4843-ad3c-002a756e0a0e" d="M396.4,363.56a15.35,15.35,0,0,1,.49,5l-.83,0,0-5.05Z" transform="translate(-314.29 -142.74)"/><path class="1dbb8a25-0d6c-4843-ad3c-002a756e0a0e" d="M396.36,376.12a15.5,15.5,0,0,1-.22-6.15C396.75,372,396.47,374.06,396.36,376.12Z" transform="translate(-314.29 -142.74)"/><path class="e11f4302-fdf1-4636-86a2-04d464e3ce0a" d="M495.38,434.65a4.91,4.91,0,0,1-5-4.82,5.06,5.06,0,0,1,4.85-4.73,4.78,4.78,0,1,1,.13,9.55Z" transform="translate(-314.29 -142.74)"/><path class="66782fb5-2168-41b0-9a17-f8835194aefc" d="M377.45,283c11.61-.1,21.27,3.12,29,11.46,15.31,16.54,6.77,47.94-16.85,53.22-15.38,3.44-37.87-2.29-44.91-23.93-6.72-20.66,7.61-37.87,25.1-40.2A43.08,43.08,0,0,1,377.45,283Zm7.6,41.52a4.5,4.5,0,0,0-4.91-4.71,4.78,4.78,0,0,0-4.69,4.78,5.07,5.07,0,0,0,5.17,4.94A4.8,4.8,0,0,0,385.05,324.53Zm14.27.62a4.62,4.62,0,0,0,4.43,4.95,5,5,0,0,0,5.16-4.93,4.77,4.77,0,0,0-4.74-4.74C401.17,320.42,399.34,322.2,399.32,325.15Zm-15.09,10.42c1.3-.14,3.06.46,3.24-1.15.13-1.21-1.5-1.3-2.52-1.23-1.25.09-3.2,0-3.29,1.42C381.55,336.39,383.5,335,384.23,335.57Z" transform="translate(-314.29 -142.74)"/><path class="76e633c6-cc4a-444d-b384-e8f09135c3c5" d="M351.66,341.55a41.18,41.18,0,0,0,18.18,9.26c7.3,1.68,14.65,2.21,22,.1,1.61-.47,1.6.08,1.48,1.34a180.56,180.56,0,0,0,.56,37.86c.29,2.47-.14,3.59-2.84,4.2a91.5,91.5,0,0,1-31.74,1.59c-3.3-.41-6.3-2.07-9.2-3.73-1-.55-1-1.47-1.1-2.37a105.72,105.72,0,0,1,1.15-40.91C350.64,346.63,351.08,344.35,351.66,341.55Z" transform="translate(-314.29 -142.74)"/><path class="3da59cc3-67c8-4641-9fe2-31d7901f8340" d="M396.4,363.56H396v-1.94h.37Z" transform="translate(-314.29 -142.74)"/><path class="e11f4302-fdf1-4636-86a2-04d464e3ce0a" d="M385.05,324.53a4.8,4.8,0,0,1-4.43,5,5.07,5.07,0,0,1-5.17-4.94,4.78,4.78,0,0,1,4.69-4.78A4.5,4.5,0,0,1,385.05,324.53Z" transform="translate(-314.29 -142.74)"/><path class="e11f4302-fdf1-4636-86a2-04d464e3ce0a" d="M399.32,325.15c0-3,1.84-4.73,4.85-4.72a4.77,4.77,0,0,1,4.74,4.74,5,5,0,0,1-5.16,4.93A4.62,4.62,0,0,1,399.32,325.15Z" transform="translate(-314.29 -142.74)"/><path class="d82f7a03-1be6-4bc9-aa93-e785c4a106ae" d="M384.23,335.57c-.73-.58-2.68.82-2.58-1,.09-1.46,2-1.33,3.29-1.42,1-.07,2.66,0,2.52,1.23C387.29,336,385.53,335.43,384.23,335.57Z" transform="translate(-314.29 -142.74)"/></svg>