<svg id="10469b8c-9f78-48c7-9d3e-5bc6be483b5f" data-name="Capa 1" xmlns="http://www.w3.org/2000/svg" viewBox="0 0 213.61 309.59"><defs><style>.eea2c3a9-d3fc-49ce-bdac-0734d1e192b9{fill:#080908;}.\30 49cca9d-7d70-4298-ba0d-dccaf5933489{fill:#fdfdfd;}.\34 6102854-9dfd-4d8b-ab49-f0869a38fb26{fill:#18110b;}.\30 42af950-e88e-462b-92ff-8be22295aa3e{fill:#151613;}.e774fab5-bc75-4029-9054-690ea0ae0027{fill:#1d1d1e;}.d4690d24-9a8e-41d7-a8c4-5a5aa12cacde{fill:#212121;}.\32 c190a37-b263-49f0-af0d-e7c8053069c7{fill:#1f1f20;}.\38 0d4c72c-0a7e-4d11-a19e-4f535530deb6{fill:#252526;}.\30 79e178a-1f98-4883-83dd-1feb50320465{fill:#95b4c7;}.\32 4df0ff9-242b-45a1-9a69-349735a5c72e{fill:#f7cca0;}.\35 78546b8-ab4d-4ab5-bb5b-6cfa2daccf2b{fill:#eee;}.\35 509085f-601d-40aa-944c-f5f60bb0bdd6{fill:#509541;}.c60b7848-61b0-4fe6-8947-becf622b3e32{fill:#f5f5f5;}.\35 19d8c37-57c8-44aa-9d25-c2dae44dc895{fill:#e8e7e7;}.\38 5cd1252-a2ce-4d85-b185-ba7b223909ed{fill:#483b2e;}</style></defs><title>card-5</title><path class="eea2c3a9-d3fc-49ce-bdac-0734d1e192b9" d="M313.94,297.27q0-71.24,0-142.48c0-1.08,0-2.17.08-3.25.36-5.16,3.63-8.39,8.82-8.69,1.41-.08,2.83-.07,4.25-.07H514.56q1.37,0,2.75,0c7.08.2,10.23,3.45,10.23,10.62q0,144,0,288c0,7.77-3.2,11-10.88,11H325.19c-8.16,0-11.25-3.11-11.25-11.37Q313.93,369.13,313.94,297.27Zm4.14.13q0,71.74,0,143.49c0,5.7,1.7,7.38,7.47,7.38H516c.67,0,1.34,0,2,0,3-.23,4.7-1.75,5.12-4.79a23.62,23.62,0,0,0,.19-3.23q0-142.86,0-285.73a23.16,23.16,0,0,0-.16-3A4.59,4.59,0,0,0,519,147.2a26.38,26.38,0,0,0-4-.3q-94.24,0-188.49,0a26,26,0,0,0-4,.22c-2.89.45-4.19,1.89-4.48,4.8-.09.91,0,1.83,0,2.75Q318.07,226,318.07,297.4Z" transform="translate(-313.94 -142.78)"/><path class="049cca9d-7d70-4298-ba0d-dccaf5933489" d="M318.07,297.4q0-71.37,0-142.74c0-.92,0-1.84,0-2.75.29-2.91,1.59-4.35,4.48-4.8a26,26,0,0,1,4-.22q94.24,0,188.49,0a26.38,26.38,0,0,1,4,.3,4.59,4.59,0,0,1,4.14,4.32,23.16,23.16,0,0,1,.16,3q0,142.86,0,285.73a23.62,23.62,0,0,1-.19,3.23c-.42,3-2.08,4.56-5.12,4.79-.66,0-1.33,0-2,0H325.54c-5.76,0-7.47-1.68-7.47-7.38Q318.07,369.14,318.07,297.4Zm83.82,47.91H402v-.14l.38-.34a34,34,0,0,0,10.69-18.36l.21-.58.28-1.94a1.08,1.08,0,0,0,.29-1.07,40.89,40.89,0,0,0,0-10.54,1.45,1.45,0,0,0-.32-1.6l-.26-1.92-.28-1a29.41,29.41,0,0,0-8.29-14l0-.16-.16,0a32.52,32.52,0,0,0-15.93-9.32l-.57-.23-1.43-.27-1.09-.31-1.5-.16-1-.29-2.43-.24a3.57,3.57,0,0,0-2.06-.25,27.53,27.53,0,0,0-7.09,0l-2,.24a4.34,4.34,0,0,0-2.53.34l-.51.15-2,.28-.6.2-1.39.25-.58.26a5.39,5.39,0,0,0-3,.88q-.26-.11-.36.17c-9.67,4.07-16.47,10.82-19.55,21l-.16.15,0,.2a8.07,8.07,0,0,0-.94,4.46l-.22,1.09a17.19,17.19,0,0,0,0,5.58,2.14,2.14,0,0,0,.27,1.57l.27,2.44.21.61.23,1.37.33,1a34.47,34.47,0,0,0,5.77,12.76,2.47,2.47,0,0,1,.21,2.9,47.61,47.61,0,0,0-3.47,7.91.23.23,0,0,0-.14.35,9.67,9.67,0,0,0-1.38,3.58l-.21.45a5.35,5.35,0,0,0-.79,2.55l-.15.42a7.15,7.15,0,0,0-.88,3.5l-.19.53a3.19,3.19,0,0,0-.3,2,2,2,0,0,0-.27,1.52,7.69,7.69,0,0,0,.11,4.12l.18.92.23,1,.26.49c.65,2.66,3,3.71,4.92,5.11l.05,1a34.18,34.18,0,0,0,.23,6.93,2.12,2.12,0,0,0,.27,1.57l.27,3.44.23,1,.24,2.44.25,1.08c-.39,4.11,3,4.59,5.61,5.88l.45.35,0,2.63-.28,1-.22,2-.27,1-.26,1.92-.21.58-.29,1.93-.23.57-.24,1.52-.31,1-.22,1.42-.24.58-.26,1.42-.21.57-.28,1.45-.27.57-.19,1.05-.32.94-.2,1-.21.49-1.28,4.53-.17.45a5.61,5.61,0,0,0-.81,2.61q-.25.12-.11.35c-.26.59-.58,1.17-.78,1.78-.37,1.1-.82,2.34.69,2.92s2.26-.49,2.66-1.75c.72-2.26,1.36-4.54,2-6.81l.19-.47a7,7,0,0,0,.82-3l.21-.49a7.81,7.81,0,0,0,.76-3.08l.33-.94.18-1,.3-1,.25-1.41.24-.6.23-1.48.31-1,.21-1.43.21-.55.26-1.55.22-.93a3.32,3.32,0,0,0,.31-2l.29-1,.21-1.94.26-1c.7-2.38,2.21.06,3.21-.54a2.49,2.49,0,0,0,2,.33,6.91,6.91,0,0,0,2.91.21,2.94,2.94,0,0,0,2.09.28,57.27,57.27,0,0,0,11.6-.09l1.55-.19a6.27,6.27,0,0,0,2.93-.28l1.49-.24,2-.22,1-.27a2.89,2.89,0,0,0,2-.36.63.63,0,0,0,.43.11v.17l.17,0,.28,1.11.19,2.92a3.21,3.21,0,0,0,.33,2l.22,4a4.82,4.82,0,0,0,.28,2.52l.23,4.49a5.42,5.42,0,0,0,.27,2.52,36.86,36.86,0,0,0,.32,7,13.77,13.77,0,0,0,.2,4.44c-.11,1.12-.41,2.36.91,3a1.42,1.42,0,0,0,2.15-.83l.24-.61,0-1.57a6.38,6.38,0,0,0-.23-3.05,47.31,47.31,0,0,0-.25-7.94,3.5,3.5,0,0,0-.25-2.05l-.23-4.94a3.36,3.36,0,0,0-.27-2.06,16.34,16.34,0,0,0-.25-4.44,3.42,3.42,0,0,0-.27-2l-.19-3a2.23,2.23,0,0,0-.29-1.61c.31-2.11,2.47-1.17,3.49-2.11l.49-.25a.42.42,0,0,0,.5-.45c.26-.09.43-.24.34-.55a3.94,3.94,0,0,0-.14-2.57l-.19-1a11.56,11.56,0,0,0-.34-4,2,2,0,0,0-.16-1.52l-.22-3.93a4.81,4.81,0,0,0-.29-2.53c.1-5.75-.29-11.51.32-17.31,1.37,2.4,2.46,4.92,4.38,6.89l.3.32.11.13.38.42c4.55,5.34,10.46,8.5,17,10.59l.14.15.19,0c1.15.6,2.28,1.29,3.65.67l.19,0,0-.19.28-.41a1,1,0,0,0,0-1.7.4.4,0,0,0-.49-.43l-.52-.29-1-.22-.52-.23a45.17,45.17,0,0,1-14.78-8.27.27.27,0,0,0-.29-.28l0-.15-.15,0a.28.28,0,0,0-.28-.29,34.56,34.56,0,0,1-5.45-8.86l.05-.18-.15-.14-.74-3.1-.24-1-.24-3.52v-1.91a4.06,4.06,0,0,1,2.59-4.18,13.33,13.33,0,0,0,2.66-2.13A.25.25,0,0,0,401.89,345.31Zm51.22,33A160.33,160.33,0,0,1,452,394.73c-.24,2.22.31,3.55,2.66,3.83,1.66.2,2.24.92,2,2.8-1.19,10.09-1.68,20.24-2.08,30.39-.05,1.34,0,2.66,1.77,2.7s1.7-1.15,1.75-2.44c.38-10,.94-20,1.93-29.9.18-1.82.8-2,2.31-1.71a77.93,77.93,0,0,0,31-.07c.55,3.1,1.06,6.21,1.67,9.31a178,178,0,0,0,6.41,23.29c.45,1.3,1,2.48,2.59,1.93s1.17-1.93.74-3.15c-.33-.94-.63-1.89-.94-2.84a172,172,0,0,1-6.65-27.6c-.17-1.08-1-2.55.87-3.14,3.75-1.2,5.36-3.86,5.33-7.69,0-.74.15-1.49.22-2.24q.49-5.6,1-11.21c1.15,4.19,1,8.44,1.36,12.64.11,1.28.56,2.16,1.91,2.06,1.17-.09,1.67-1,1.62-2.12,0-.67,0-1.33-.1-2-.44-5.89-.73-11.8-1.35-17.68-1-9.93-2.29-19.84-5.83-29.27a2.81,2.81,0,0,1,.45-3,40.94,40.94,0,0,0,5.64-11.62c6.67-20.56-7.23-38.23-23.94-42.28a53.93,53.93,0,0,0-22-.47c-13.89,2.37-26.62,14.26-28.55,27.5-2.16,14.86,2.43,27.1,14.22,36.42a5.12,5.12,0,0,1,2.24,4.71,308.64,308.64,0,0,1-2.71,35.34c-.16,1.23-.5,2.72,1.25,3s2.12-1.2,2.26-2.58q.83-7.69,1.64-15.39C453.57,374.24,452.61,376.32,453.11,378.29ZM332.33,185.1c.85,2.13,1.58,3.89,2.25,5.66a1.81,1.81,0,0,0,1.71,1.16c1,.15,1.23-.55,1.57-1.22.74-1.4.87-3.09,1.9-4.41.82,2.14,1.59,4.16,2.38,6.17.32.82.68,1.47,1.8.88.86-.45,1.24-.76.74-1.84a48.16,48.16,0,0,1-3.54-11.39c-.2-1.08-.66-1.31-1.65-1.34s-1.36.42-1.51,1.43a26.53,26.53,0,0,1-2,7.34c-.78-2.66-1.4-4.63-1.91-6.62a1.21,1.21,0,0,0-1.38-1.09c-.71,0-1.41-.21-1.79.82A56.8,56.8,0,0,0,328,191.46c-.16,1,.08,1.5,1.16,1.7,1.27.23,1.32-.5,1.46-1.39A29.91,29.91,0,0,1,332.33,185.1Zm34.13,47.42c.91,2.29,1.77,4.32,2.53,6.39.36,1,.82,1.32,1.83.83s1.13-.88.68-1.86A46.44,46.44,0,0,1,368,226.72a1.55,1.55,0,0,0-1.81-1.52c-1.24,0-1.28.78-1.43,1.59a24.38,24.38,0,0,1-1.94,7c-.67-2.23-1.25-4-1.74-5.84-.25-.93-.4-1.68-1.66-1.75s-1.57.54-1.9,1.47a50.08,50.08,0,0,0-2.6,9.87c-.12.84-.69,1.73.9,2s1.57-.69,1.73-1.72a18.65,18.65,0,0,1,1.67-6.16c.74,1.9,1.42,3.56,2,5.24a2,2,0,0,0,2,1.5c1.07,0,1.15-.79,1.42-1.44C365.28,235.58,365.8,234.2,366.46,232.52Zm76.15,7.3a31.1,31.1,0,0,0,5.15-1c1.38-.31,1.93-.95,1.68-2.43-.22-1.3-.59-2.58.56-3.91.55-.63.52-2.39-1.54-2s-4.45.64-6.68.89c-1,.12-1.39.54-1.29,1.62s.67,1.28,1.66,1.07,2.15-.22,3.22-.42c.9-.17,1.11.19,1.23,1,.39,2.9-2,2.19-3.35,2.44a4.93,4.93,0,0,1-6.14-4.6c-.21-2.74,1.75-4.65,5.16-4.66,1.45,0,1.76-.81,1.85-1.77.12-1.19-1-.87-1.66-1a7.17,7.17,0,0,0-8,6.47C434.18,236.37,437.37,239.81,442.61,239.82ZM376.3,216c.62-.09,1.79-.18,2.92-.43,3.52-.78,3.5-.8,3.45-4.43a2.17,2.17,0,0,1,.55-2,1.37,1.37,0,0,0-1.21-2.37c-2.4.24-4.78.65-7.17.94-.86.1-1.14.46-1,1.31s.2,1.5,1.31,1.31,2.14-.33,3.21-.43c.68-.06,1.61-.45,1.62.82,0,.93.45,2.08-1.14,2.22-1.15.1-2.3.41-3.45.4a4.73,4.73,0,0,1-4.89-5.11,4.4,4.4,0,0,1,4.88-4.23c1.53.11,2.11-.57,2.11-1.66,0-1.27-1.29-1-2.11-1.05a7.18,7.18,0,0,0-7.52,7C367.83,213,371,216.12,376.3,216ZM483.6,184.75a7.08,7.08,0,0,0-6.88-7.36c-4.59-.11-9,4.12-8.91,8.6a6.89,6.89,0,0,0,6.75,7.17C479.41,193.24,483.58,189.37,483.6,184.75Zm-54.33,25.44L431.2,209c1.72-1.13,2.81-2.59,2.42-4.79s-2-3.2-3.94-3.68a25.09,25.09,0,0,0-7-.22c-1.1,0-1.17.62-1.09,1.48q.55,5.85,1.06,11.69c.07.83.26,1.5,1.34,1.27.72-.16,1.61-.12,1.37-1.28-.38-1.8.83-1.18,1.61-1q2.91.67,5.79,1.48c1,.29,1.24-.22,1.5-1.05s0-1.35-.91-1.56C432.11,211,430.86,210.62,429.28,210.19Zm78.29-22.68c.83-.54,1.22-.81,1.63-1.06,1.81-1.11,3.18-2.51,2.77-4.83s-2.1-3.4-4.32-3.88a23.06,23.06,0,0,0-6-.25c-1.38.06-1.84.6-1.69,2,.41,3.8.7,7.61,1,11.42.05.6,0,1.25.92,1,.58-.14,1.43.32,1.7-.58.18-.6-.31-1.31.28-2,2.29.59,4.61,1.17,6.91,1.81.84.23,1.44.25,1.69-.78s.25-1.57-.93-1.8S509.25,188,507.57,187.51ZM394.24,234c.84-.54,1.24-.82,1.66-1.06,1.95-1.14,3.2-2.66,2.73-5.09s-2.17-3.17-4.23-3.66a25.16,25.16,0,0,0-6.46-.21c-1.1,0-1.38.55-1.27,1.6.39,3.81.71,7.62,1,11.43.08.94.3,1.58,1.49,1.44.89-.11,1.45-.31,1.25-1.34-.27-1.42.51-1.25,1.44-1,1.84.51,3.72.88,5.53,1.48,1.13.37,1.59.18,2-1s-.46-1.39-1.23-1.61C397,234.62,395.9,234.37,394.24,234Zm10.91,1.77c2.53.64,4.86,1.19,7.16,1.84,1,.27,1.54.31,1.8-.88s-.14-1.53-1.11-1.75c-1.17-.27-2.32-.59-3.91-1,.93-.6,1.48-.93,2-1.3,1.57-1.11,2.77-2.44,2.42-4.55s-1.9-3.34-4-3.89a23.51,23.51,0,0,0-6.69-.28c-.87,0-1.41.31-1.31,1.34q.56,6.07,1.06,12.16c.06.74.4,1.07,1.11.95.52-.09,1.29.25,1.46-.54A10.89,10.89,0,0,0,405.15,235.72Zm-69.44-6.41c2.11,3,4,5.53,5.72,8.14a1.57,1.57,0,0,0,2.08.73,1.37,1.37,0,0,0,1.1-1.62c-.24-3.56-.42-7.13-.65-10.69-.06-.85-.16-1.65-1.46-1.41s-1.37.75-1.2,1.88a19.41,19.41,0,0,1,.18,6.31,40.11,40.11,0,0,1-5.16-7.7c-.66-1.37-1.75-1.09-2.76-1s-.72,1.15-.72,1.81a49.75,49.75,0,0,0,.9,10.4c.16.77.09,2,1.63,1.48,1.19-.36,1.26-.92,1-2A17.48,17.48,0,0,1,335.7,229.31Zm162.72-20.26a39.82,39.82,0,0,1-5.27-7.81c-.68-1.36-1.81-1-2.8-.92s-.71,1.15-.71,1.82a58,58,0,0,0,1,10.67c.19,1.06.68,1.32,1.73,1.08s1.1-.63.91-1.56c-.4-2-1-3.95-.56-6.51,2,2.84,3.75,5.32,5.48,7.81.51.73.94,1.19,2,.87s1.34-.77,1.27-1.75c-.25-3.49-.5-7-.69-10.46-.06-1.09-.29-1.65-1.6-1.51s-1.11,1-1,1.77A28.66,28.66,0,0,1,498.42,209.05Zm-171.34-4.83c.14,1.78.35,4.1.52,6.41.36,5,.93,5.42,5.85,4.35a10.88,10.88,0,0,0,2.14-.63,5.9,5.9,0,0,0,2.79-8.88,9.55,9.55,0,0,0-8.17-4.89C326.89,200.45,326.89,200.43,327.08,204.22Zm179.35,11a8.9,8.9,0,0,0,3.76-.46c4.88-1.38,6.45-6.14,3.36-10.18a10,10,0,0,0-9.41-4c-1.32.11-1.66.57-1.52,1.84.37,3.3.77,6.61.86,9.93C503.54,214.58,504.12,215.75,506.43,215.23Zm-17.64-.79a76.74,76.74,0,0,0-3-10.35c-1.14-3.33-1.14-3.41-4.51-2.54-1,.27-2.57-.22-2.85,1.71-.52,3.61-1.24,7.2-1.9,10.79-.16.86-.13,1.42,1,1.49s1.57,0,1.67-1.18c.08-.93-.07-2.24,1-2.59a10.33,10.33,0,0,1,4.61-.74c1.18.19.77,2,1.24,3,.1.22.07.5.15.73.34.92,1.08.52,1.7.48S488.91,214.86,488.79,214.44Zm-61-23.56c2.2.6,4.51,1.19,6.79,1.86,1,.29,1.44.08,1.79-1,.4-1.24-.24-1.4-1.13-1.63-1.61-.4-3.18-1-4.8-1.28s-1.29-.83-.58-1.78c1.5-2,2.91-4,4.4-6,.56-.76,1.19-1.31,0-2.18s-1.53-.27-2.12.56c-1.57,2.19-3.19,4.35-4.94,6.72-.72-1.87-.51-3.47-.67-5-.1-1-.49-1.32-1.44-1.14-.78.15-1.4.22-1.28,1.35.37,3.63.63,7.28.94,10.91.07.79.21,1.48,1.32,1.32.88-.13,1.69-.17,1.45-1.42A1.13,1.13,0,0,1,427.78,190.88ZM429,224.79c-4,0-5,.87-5.74,4.72-.48,2.61-.91,5.24-1.35,7.86-.14.82-.83,1.78.83,2,1.42.16,1.68-.58,1.83-1.69.11-.78-.14-1.9.84-2.17a11.59,11.59,0,0,1,4.63-.68c1.13.18,1,1.9,1.24,3s.62,1.47,1.84,1.21,1-1.11.8-1.85c-1.14-3.81-2.33-7.61-3.51-11.41C430.19,225,429.79,224.56,429,224.79Zm-76-11.07c-.61-3.2-2.08-6.58-3-10.11-.6-2.37-1.7-3.15-4-2.21-1.31.54-3.22,0-3.5,2.34-.39,3.29-1.1,6.55-1.63,9.82-.12.76-.9,1.79.79,2,1.4.17,1.72-.44,1.84-1.63.08-.85-.06-1.8,1.07-2.29,3.1-1.34,4.75-.69,5.69,2.39.07.24.1.49.17.73.28,1,1,.56,1.65.53S353.22,214.83,353,213.72Zm31.78,23.94c-.68-3.55-2.15-7-3.12-10.61-.56-2.07-1.47-2.73-3.46-2a7.12,7.12,0,0,1-1.71.32c-1.34.14-1.92.77-2.11,2.21-.45,3.29-1.2,6.53-1.75,9.81-.11.68-.73,1.7.73,1.91,1.22.18,1.74-.22,2-1.49.14-.8-.26-2.07.9-2.36a11.68,11.68,0,0,1,4.64-.6c1.15.2.9,1.93,1.22,3a6.64,6.64,0,0,0,.2.72c.4.94,1.11.38,1.71.35S385.12,238.56,384.83,237.66Zm-31.44-59.43a18.4,18.4,0,0,1-2.58.55c-2.12.11-3.2,1-3.4,3.28-.25,3-1,5.89-1.48,8.84-.12.75-1,1.79.74,2,1.33.13,1.78-.41,1.91-1.61.08-.79-.14-1.92.8-2.19a11.51,11.51,0,0,1,4.64-.67c1.17.18,1,1.89,1.27,2.95s.49,1.62,1.81,1.26,1.09-1,.84-1.86c-1.16-3.81-2.34-7.61-3.52-11.42C354.19,178.64,353.86,178.1,353.38,178.23Zm65,0a18.82,18.82,0,0,1-2.6.56c-2.11.11-3.2,1-3.39,3.28-.25,3-1,5.89-1.49,8.84-.13.77-.95,1.79.77,2,1.36.15,1.74-.47,1.88-1.64.09-.78-.12-1.91.83-2.18a11.47,11.47,0,0,1,4.63-.66c1.14.18,1,1.9,1.25,3s.54,1.57,1.83,1.24,1.06-1.08.82-1.87c-1.15-3.81-2.34-7.61-3.51-11.41C419.19,178.62,418.85,178.11,418.4,178.23Zm-64,30.25c0,5.26,1.06,6.37,6.31,6.17.83,0,1.66-.12,2.49-.2,2.85-.3,3.85-1.29,3.79-4.18a51.68,51.68,0,0,0-1.3-8.88c-.21-1.06-.7-1.1-1.54-1-1,.07-1.26.6-1.08,1.5.31,1.55.65,3.1.9,4.65.89,5.47.73,5.59-4.76,5.46-1.69,0-2.5-.56-2.25-2.34.34-2.47.65-4.95.92-7.43.08-.71.75-1.7-.7-1.92-1.22-.18-1.85.22-2,1.51C355,204,354.66,206.25,354.38,208.48Zm33.69,3.42c-.11-2.31-.11-2.31,2.1-2.55,3.1-.33,3.1-.33,3.43,3,0,.33,0,.67.1,1,.17,1,.91.74,1.55.7s1.21-.18,1.12-1.17c-.36-3.89-.66-7.78-.91-11.68-.07-1.07-.47-1.4-1.53-1.38-1.26,0-1.3.69-1.2,1.62s.15,2.16.3,3.22-.14,1.68-1.48,1.9c-3.81.61-3.8.7-4.2-3.07,0-.33-.09-.66-.11-1,0-.92.07-1.77-1.4-1.72s-1.33.86-1.25,1.8c.29,3.23.56,6.45.87,9.68.08.89-.31,2.06,1.46,1.85S388.05,212.79,388.07,211.89Zm62.66-11.69a13.29,13.29,0,0,0-8.19,2.88,3.49,3.49,0,0,0-1.49,3.48c.3,1.53,1.49,2.15,2.86,2.38,1.22.21,2.47.28,3.71.37.83.06,1.66,0,2.49.09.48,0,1.08.16,1.12.72,0,.31-.35.73-.65,1a7.84,7.84,0,0,1-4.1,1.66c-1.26.15-1.18.79-1.1,1.7.11,1.16.82,1,1.6.92a11.86,11.86,0,0,0,4.82-1.91c1.52-1,2.83-2.29,2.24-4.3s-2.3-2.24-4-2.39-3.32-.16-5-.29a1.41,1.41,0,0,1-1-.52c-.28-.54.21-.88.61-1.19a9.83,9.83,0,0,1,6.06-1.94c1.08,0,2.24.23,2.25-1.45C453,199.35,451.38,200.63,450.74,200.2Zm23.83,10.32c-.23-2.75-.51-5.89-.73-9-.08-1.1-.19-1.89-1.68-1.72s-1,1.27-1,2a11.85,11.85,0,0,0,.25,2.47c.26,1.35,0,2-1.61,2.26-3.79.53-3.77.65-4.11-3a11.47,11.47,0,0,1-.07-1.24c0-.89,0-1.56-1.27-1.54s-1.44.66-1.35,1.72c.3,3.31.54,6.62.84,9.92.08.85-.12,1.82,1.43,1.69s1.21-1.12,1.23-2.08-.81-2,.71-2.5c3.35-1.17,4.49-.52,4.8,3,.09,1,0,1.75,1.49,1.62s1.22-1,1.13-1.89C474.62,211.75,474.61,211.33,474.57,210.52Zm16.66-18.58c1.16-.08,2.33-.1,3.48-.27a3.1,3.1,0,0,0,2.9-3.19c.2-3.37-.68-6.6-1.23-9.87-.22-1.32-1.16-.86-1.93-.82-1.11.06-.78.8-.66,1.44.3,1.63.63,3.26.89,4.9.83,5.09.72,5.11-4.36,5.2-2.26,0-3-.83-2.69-3s.69-4.44.91-6.67c.07-.74.79-1.88-.81-2.12-1.37-.21-1.69.42-1.8,1.63-.18,2.07-.64,4.11-.79,6.18C484.76,190.8,485.87,191.94,491.23,191.94ZM414.76,200v0a14.68,14.68,0,0,1-2.24.12c-1.85-.17-2.51.42-2.18,2.39s0,4,.43,6-1,4.74,1.28,5.73c1.86.81,4.26.17,6.37-.42l.25,0c1.22-.11,1.09-.89,1-1.8-.12-1.13-.65-1.08-1.52-.88-1,.25-2.14.32-3.21.49-.89.14-1.41-.07-1.45-1.11s0-1.63,1.24-1.64,2.32-.22,3.48-.31c1-.08.92-.73.88-1.43s-.18-1.34-1.12-1.23-1.65.24-2.48.28c-1,.05-2.32.73-2.41-1.35-.07-1.66.4-2.24,2-2.1a18.89,18.89,0,0,0,2.24-.14c.91,0,1.59-.13,1.5-1.39s-.54-1.43-1.57-1.3C416.43,200,415.59,200,414.76,200Zm1.73,53.13c0-.67,0-1.33,0-2,0-.85-.38-1.45-1.33-1.45s-1.15.75-1.14,1.55c0,.42,0,.83,0,1.25-.16,9.72-3.59,18-10.76,24.65-.43.4-.87.77-1.26,1.2a1.16,1.16,0,0,0-.22,1.58,1.26,1.26,0,0,0,1.79.24,9.7,9.7,0,0,0,1.53-1.28C412.51,271.92,416.16,263.26,416.49,253.14Zm39.43-29.44v.15a15.23,15.23,0,0,1-2,0c-2-.26-2.63.54-2.35,2.5s.34,4,.44,6c.31,6.67.66,6.94,7.25,5.36a4.23,4.23,0,0,1,.48-.14c.94-.11,1.53-.38,1.3-1.57s-.79-1.29-1.76-1.11-2.13.32-3.2.46c-.9.12-1.37-.19-1.42-1.2s.14-1.43,1.14-1.48c1.16-.06,2.32-.21,3.48-.28.81,0,1.28-.32,1.09-1.22-.14-.68,0-1.6-1.18-1.45-.91.11-1.84,0-2.73.19-1.52.29-2-.21-2.07-1.76s.76-1.73,1.94-1.71c.83,0,1.67-.1,2.49-.05,1.18.06,1.31-.57,1.31-1.55s-.62-1.15-1.45-1.1S456.83,223.7,455.92,223.7Zm-18.3-39.49c.3,8.46.72,8.85,7.57,7a2.88,2.88,0,0,1,.47-.15c1.24-.11,1.08-.89,1-1.78-.15-1.17-.89-1-1.64-.85-1.07.16-2.13.29-3.2.46s-1.29-.28-1.37-1.22.09-1.39,1.13-1.42,2.31-.27,3.47-.31c.92,0,1.08-.49,1.05-1.28s-.17-1.47-1.24-1.36c-.91.09-1.84,0-2.73.17-1.24.19-2,.13-2-1.5s.44-2.11,1.93-2c.83.05,1.66-.09,2.49-.06s1.36-.24,1.26-1.28c-.08-.84-.14-1.43-1.23-1.36-2,.13-4,.19-6,.22-1.08,0-1.44.46-1.32,1.54C437.4,180.72,437.48,182.47,437.62,184.21Zm-54.3,8.16c1.29-.14,2.94-.36,4.59-.48.83-.06,1.22-.33,1.08-1.21s-.17-1.66-1.24-1.4c-2.21.53-2.18-.84-2.23-2.35s-.23-2.81-.41-4.21-.21-2.67,1.84-2.51c1,.08,1.18-.6,1.12-1.49s-.32-1.37-1.35-1.26c-2,.22-4,.37-5.95.51-1,.07-1.51.35-1.4,1.52s.48,1.51,1.54,1.27,1.49.21,1.55,1.28c.13,2.07.38,4.13.52,6.19,0,.59.34,1.51-.7,1.52-1.24,0-1.24.69-1.16,1.62C381.25,192.68,382.16,192.39,383.32,192.37Zm-18.36.05c1.34-.07,1.34-.07,1.3-1.83-.11-4.19-1.39-8.71,3.56-11.34,1-.56.2-1.19-.24-1.75-.63-.79-1.1-.59-1.81,0-3.48,2.82-3.5,2.79-7.09.3-.14-.09-.29-.17-.41-.27-.73-.59-1.33-1.16-2.18,0s-.33,1.7.59,2.09c4.33,1.88,5.42,5.35,4.9,9.68-.08.65.06,1.33,0,2C363.59,192.37,364.23,192.51,365,192.42Zm96.41,0c1.15.2,1.36-.4,1.32-1.44-.18-4.37-1.39-9.05,3.66-11.85,1-.53,0-1.09-.33-1.57-.71-1-1.29-.52-2,.09-3.26,2.78-3.28,2.76-6.72.33l-.61-.44c-.74-.56-1.35-1.15-2.22,0s-.25,1.72.62,2.09c4.28,1.83,5.26,5.3,4.9,9.5-.06.66.07,1.33,0,2C460,192.1,460.36,192.57,461.37,192.4Zm9.25,29.9a11.15,11.15,0,0,0-6.18,1.68c-.48.31-1.67.52-.89,1.56.55.73,1,1.75,2.31.74a7.12,7.12,0,0,1,4.7-1.32c.73,0,1.69,0,2,.72s-.63,1.25-1.22,1.63a11.78,11.78,0,0,1-3.05,1.63c-2.34.62-1.95,2.2-1.61,3.84.13.62.36,1.2,1.13.91.55-.21,1.7,0,1.5-.86-.41-1.68.93-1.69,1.74-2.18a14.1,14.1,0,0,0,3.39-2.49c2-2.21,1.39-4.4-1.38-5.42A6.35,6.35,0,0,0,470.62,222.31Zm-71-18.34c1.86-.15,1.92-.16,2.06,1.52.2,2.32.24,4.66.45,7,.09,1-.47,2.53,1.59,2.36s1.11-1.49,1.09-2.41a54.32,54.32,0,0,0-.33-5.73c-.27-2.12-.23-3.79,2.64-3.57,1.08.08,1.62-.43,1.45-1.69s-1-1-1.82-.94c-2.4.28-4.79.54-7.18.86-.88.12-2.13-.24-1.94,1.48C397.83,204.4,398.73,204.22,399.66,204Zm8.39-26.29c-3,.39-5.42.65-7.79,1-.86.15-2.36-.55-2.22,1.42s1.45,1.28,2.36,1.13c1.35-.21,1.7.22,1.72,1.53,0,2.58.3,5.15.44,7.73,0,.89,0,1.6,1.32,1.55s1.41-.7,1.32-1.76c-.17-2.16,0-4.36-.41-6.47-.44-2.47.3-3.56,2.82-3.46.78,0,1.53-.07,1.39-1.22C408.87,178.21,408.59,177.54,408.05,177.67Zm-80.64,51.91h0c.23,2.65.48,5.3.67,7.95.06.87.21,1.38,1.28,1.3s1.49-.38,1.39-1.5q-.5-5.84-.87-11.69c-.07-1.12-.61-1.34-1.61-1.29s-1.18.66-1.11,1.49C327.23,227.09,327.31,228.33,327.41,229.58ZM416,227.69c.28,3.28.58,6.42.82,9.56.08,1,.24,1.7,1.57,1.57s1.2-.88,1.13-1.73c-.25-3.14-.36-6.31-.83-9.42-.17-1.13,1-3.5-1.58-3.24C414.84,224.67,416.67,226.74,416,227.69Zm23.16-24.78c-.1-1.29-.18-1.95-.2-2.6,0-1.11-.44-1.62-1.67-1.47s-1.22.79-1.09,1.72c.17,1.14.29,2.29.36,3.44s.9.89,1.61.9,1.3-.18,1.1-1.14A4.3,4.3,0,0,1,439.2,202.91Zm30.89,34.82c0-.76,0-1.6-1.27-1.43-.66.09-1.67-.2-1.5,1,.1.68-.22,1.85,1.16,1.65C469.18,238.87,470.3,239.26,470.09,237.73Z" transform="translate(-313.94 -142.78)"/><path class="46102854-9dfd-4d8b-ab49-f0869a38fb26" d="M401.61,345.58a13.33,13.33,0,0,1-2.66,2.13,4.06,4.06,0,0,0-2.59,4.18,1.66,1.66,0,0,0,0,1.91l.24,3.52.24,1,.74,3.1a.86.86,0,0,0,.09.32,34.56,34.56,0,0,0,5.45,8.86.67.67,0,0,0,.28.29l.15,0,0,.15a.66.66,0,0,0,.29.28,45.17,45.17,0,0,0,14.78,8.27l.52.23,1,.22.52.29a.4.4,0,0,1,.49.43v1.7l-.28.41a.42.42,0,0,0-.23.23c-1.37.62-2.5-.06-3.65-.67a.84.84,0,0,0-.33-.1c-6.57-2.09-12.48-5.25-17-10.59l-.38-.42-.11-.13a.64.64,0,0,0-.3-.32c-1.92-2-3-4.49-4.38-6.89-.61,5.8-.22,11.56-.32,17.31,0,.85-.26,1.74.29,2.53l.22,3.93.16,1.52a11.56,11.56,0,0,1,.34,4l.19,1a3.94,3.94,0,0,1,.14,2.57l-.34.55a.42.42,0,0,1-.5.45l-.49.25c-1,.94-3.18,0-3.49,2.11a1.94,1.94,0,0,0,.29,1.61l.19,3c0,.68-.19,1.39.27,2a16.34,16.34,0,0,1,.25,4.44c0,.7-.21,1.43.27,2.06l.23,4.94c0,.7-.21,1.42.25,2.05a47.31,47.31,0,0,1,.25,7.94c0,1-.27,2.07.23,3.05l0,1.57-.24.61a1.42,1.42,0,0,1-2.15.83c-1.32-.59-1-1.83-.91-3-.07-1.48.24-3-.2-4.44a36.86,36.86,0,0,1-.32-7c0-.84.24-1.72-.27-2.52l-.23-4.49c0-.84.25-1.73-.28-2.52l-.22-4c0-.7.21-1.43-.33-2l-.19-2.92-.28-1.11-.17,0v-.17l-.43-.11a2.89,2.89,0,0,1-2,.36l-1,.27-2,.22-1.49.24a6.27,6.27,0,0,1-2.93.28l-1.55.19a57.27,57.27,0,0,1-11.6.09c-.64-.51-1.38-.28-2.09-.28a6.91,6.91,0,0,1-2.91-.21c-.59-.52-1.3-.29-2-.33-1,.6-2.51-1.84-3.21.54l-.26,1-.21,1.94-.29,1a3.32,3.32,0,0,1-.31,2l-.22.93-.26,1.55-.21.55-.21,1.43-.31,1-.23,1.48-.24.6-.25,1.41-.3,1-.18,1-.33.94a7.81,7.81,0,0,1-.76,3.08l-.21.49a7,7,0,0,1-.82,3l-.19.47c-.68,2.27-1.32,4.55-2,6.81-.4,1.26-1.08,2.36-2.66,1.75s-1.06-1.82-.69-2.92c.2-.61.52-1.19.78-1.78a.79.79,0,0,0,.11-.35,5.61,5.61,0,0,1,.81-2.61.64.64,0,0,0,.17-.45l1.28-4.53.21-.49.2-1,.32-.94.19-1.05.27-.57.28-1.45.21-.57.26-1.42.24-.58.22-1.42.31-1,.24-1.52.23-.57.29-1.93.21-.58.26-1.92.27-1,.22-2,.28-1,0-2.63-.45-.35c-2.58-1.28-6-1.76-5.61-5.88l-.25-1.08-.24-2.44-.23-1-.27-3.44a2,2,0,0,0-.27-1.57,34.18,34.18,0,0,1-.23-6.93l-.05-1c-2-1.4-4.27-2.45-4.92-5.11l-.26-.49-.23-1-.18-.92a7.69,7.69,0,0,1-.11-4.12,2,2,0,0,0,.27-1.52,3.19,3.19,0,0,1,.3-2l.19-.53a7.15,7.15,0,0,1,.88-3.5.67.67,0,0,0,.15-.42,5.35,5.35,0,0,1,.79-2.55l.21-.45a9.67,9.67,0,0,1,1.38-3.58.72.72,0,0,0,.14-.35,47.61,47.61,0,0,1,3.47-7.91,2.47,2.47,0,0,0-.21-2.9,34.47,34.47,0,0,1-5.77-12.76l-.33-1-.23-1.37-.21-.61-.27-2.44a2,2,0,0,0-.27-1.57,17.19,17.19,0,0,1,0-5.58l.22-1.09a8.07,8.07,0,0,1,.94-4.46.76.76,0,0,0,.12-.36c3.08-10.2,9.88-16.95,19.55-21a.68.68,0,0,0,.36-.17,5.39,5.39,0,0,1,3-.88l.58-.26,1.39-.25.6-.2,2-.28.51-.15a4.34,4.34,0,0,1,2.53-.34,3.36,3.36,0,0,0,2-.24,27.53,27.53,0,0,1,7.09,0c.64.46,1.36.25,2.06.25l2.43.24,1,.29,1.5.16,1.09.31,1.43.27.57.23a32.52,32.52,0,0,1,15.93,9.32.4.4,0,0,0,.18.18,29.41,29.41,0,0,1,8.29,14l.28,1,.26,1.92c0,.56-.14,1.14.32,1.6a40.89,40.89,0,0,1,0,10.54l-.29,1.07-.28,1.94-.21.58a34,34,0,0,1-10.69,18.36l-.38.34v.14h-.14A.66.66,0,0,0,401.61,345.58Zm-56,3.26h0c1.08-.84.87-2,.87-3.45-.83,1.3-1.45,2.24-1.36,3.45-2.19,5.31-4.4,10.62-4.42,16.49,0,1.86.19,3.76,2.18,5.08l.92-9.09.22-.8c.09-3.65,1.08-7.15,1.76-10.7C346.13,349.41,346.06,349.09,345.58,348.84Zm22.86,15.95.63-.35a1.88,1.88,0,0,1,2,.08.54.54,0,0,0,.29.29,1.54,1.54,0,0,1,0,2.05.51.51,0,0,0-.25.25,55,55,0,0,1-12,5.22.76.76,0,0,0-.43.19,1.57,1.57,0,0,1-1.3.39l-.76.32c-1.56.51-3,1.27-4.75,1.18l-.74.29a6.83,6.83,0,0,1-2,.35c-2.43-.28-2.75.94-2.69,3,.11,4.42.95,8.77,1.16,13.17,0,.55-.13,1.13.35,1.56,2.51,2.62,6,3.37,9.15,4.68l1.13.28a16.81,16.81,0,0,1,5.34.5c.48.75,1,.71,1.51,0h8.49c.35.53.69.5,1,0a16.34,16.34,0,0,1,4.79-.52l1.16-.24,5.7-.81.83-.28a9.23,9.23,0,0,1,3.28-.68l.72-.3c1.21-.37.71-1.27.66-2.06-.22-3.49-.84-6.94-.69-10.45l-.06-.49-.15-1.18a1,1,0,0,0-.07-1.41,152.85,152.85,0,0,1,0-17.56,1.55,1.55,0,0,0,.1-1.91l.14-1.18,0-.54v-6.83a36.25,36.25,0,0,1-18.44,1.45c-.14-.25-.29-.3-.48-.05a8.26,8.26,0,0,1-3-.52,1.17,1.17,0,0,0-1.13-.33,34.83,34.83,0,0,1-15.6-7c-1.72-1.34-2.12-.73-2.36,1l-.29.81a4.17,4.17,0,0,1-.33,2.22l-.21.62-.77,4.37-.22.69-.16,1.29a1.22,1.22,0,0,0-.34,1.23c-.35,3.72-.62,7.46-1.1,11.16-.28,2.14.3,3.16,2.57,2.8.37.36.68.3.95-.12l4.77-1.15.73-.32,1.16-.22.85-.35ZM341.16,318.7c.14.64.29,1.28.43,1.92,2.32,11.21,7.69,20.2,18.36,25.39,3.61,1.76,7.48,2.61,11.28,3.76a1,1,0,0,0,.4.05l3.21.31c11.34,1.13,21-2.06,28.36-11.07a36.35,36.35,0,0,0,7.33-15.87,1.11,1.11,0,0,0,.06-.34c-.18-1.37.42-2.82-.29-4.42-1.46,3.05-3.34,4.3-5.68,4a4.89,4.89,0,0,1-3.82-4.37,4.37,4.37,0,0,1,2.61-4.67,4.8,4.8,0,0,1,4.1-.12c1.34.59,2,1.85,2.83,3.18.72-4.72.41-5-3.37-6.2-1.57-.5-3.4-.5-4.72-1.67,2.09-1.07,3.8.49,5.7.72s2.07-.43,1.45-2a33.51,33.51,0,0,0-13.87-16.48c-4.8-3-10.16-3.9-15.55-4.86l-.57-.08h-8.19l-1,.09-5.13.86a1,1,0,0,0-.36.08c-12.78,3.71-20.91,11.79-23.52,25l-.1.92v5.38A.92.92,0,0,0,341.16,318.7Z" transform="translate(-313.94 -142.78)"/><path class="042af950-e88e-462b-92ff-8be22295aa3e" d="M452.66,372.3q-.82,7.7-1.64,15.39c-.15,1.38-.41,2.88-2.26,2.58s-1.41-1.77-1.25-3a308.64,308.64,0,0,0,2.71-35.34,5.12,5.12,0,0,0-2.24-4.71c-11.79-9.32-16.38-21.56-14.22-36.42,1.93-13.24,14.67-25.12,28.55-27.5a53.93,53.93,0,0,1,22,.47c16.71,4,30.61,21.72,23.94,42.28a40.94,40.94,0,0,1-5.64,11.62,2.81,2.81,0,0,0-.45,3C505.76,350.06,507,360,508,369.9c.62,5.88.91,11.79,1.35,17.68,0,.66.07,1.33.1,2,0,1.15-.45,2-1.62,2.12-1.35.11-1.8-.77-1.91-2.06-.37-4.2-.21-8.46-1.36-12.64q-.48,5.61-1,11.21c-.07.75-.22,1.49-.22,2.24,0,3.83-1.59,6.49-5.33,7.69-1.86.6-1,2.06-.87,3.14a172,172,0,0,0,6.65,27.6c.31.95.61,1.9.94,2.84.43,1.22.9,2.57-.74,3.15s-2.14-.63-2.59-1.93a178,178,0,0,1-6.41-23.29c-.61-3.09-1.12-6.21-1.67-9.31a77.93,77.93,0,0,1-31,.07c-1.51-.28-2.13-.11-2.31,1.71-1,9.95-1.56,19.92-1.93,29.9,0,1.29-.16,2.47-1.75,2.44s-1.83-1.36-1.77-2.7c.4-10.15.89-20.3,2.08-30.39.22-1.88-.36-2.61-2-2.8-2.35-.28-2.9-1.61-2.66-3.83a160.31,160.31,0,0,0,1.11-16.44,46.59,46.59,0,0,0,.24-10.51A12,12,0,0,0,452.66,372.3ZM449,310.83v1.08c-3.31,0-6.62.08-9.92,0-1.5-.05-2,.4-2.12,1.9-1.25,11.52,2.58,21.24,10.94,29,7.61,7,17,8.72,27,7.08,11.43-1.87,21-6.6,26.9-17.21,9.7-17.41,4.06-36.39-14-43.89-11.51-4.77-23.5-4.13-34.77,1.71a30.47,30.47,0,0,0-15,17.65c-.94,2.69-.81,2.76,1.94,2.76Zm52,63.92c.05-10.72-1.82-19.76-3.66-28.81-.32-1.58-.86-1.35-1.94-.59-11.41,8-23.86,10.49-37.42,7-1.18-.31-2-.71-1.81,1.22,1.57,13.13.85,26.24-.45,39.34-.18,1.87.44,2.5,2.1,2.87a90.22,90.22,0,0,0,22.24,2.47c6.08-.17,12.16-.49,17.57-3.86a3.49,3.49,0,0,0,1.94-2.65C500.45,385.61,500.76,379.47,501,374.75Z" transform="translate(-313.94 -142.78)"/><path class="e774fab5-bc75-4029-9054-690ea0ae0027" d="M332.33,185.1a29.91,29.91,0,0,0-1.67,6.67c-.14.9-.19,1.62-1.46,1.39-1.08-.2-1.32-.69-1.16-1.7A56.8,56.8,0,0,1,331,180.66c.38-1,1.08-.8,1.79-.82a1.21,1.21,0,0,1,1.38,1.09c.51,2,1.13,4,1.91,6.62a26.53,26.53,0,0,0,2-7.34c.16-1,.42-1.46,1.51-1.43s1.45.26,1.65,1.34a48.16,48.16,0,0,0,3.54,11.39c.5,1.08.12,1.38-.74,1.84-1.12.59-1.48-.06-1.8-.88-.78-2-1.55-4-2.38-6.17-1,1.32-1.16,3-1.9,4.41-.35.66-.53,1.37-1.57,1.22a1.81,1.81,0,0,1-1.71-1.16C333.91,189,333.19,187.23,332.33,185.1Z" transform="translate(-313.94 -142.78)"/><path class="e774fab5-bc75-4029-9054-690ea0ae0027" d="M366.46,232.52c-.66,1.68-1.18,3.06-1.74,4.42-.27.66-.35,1.49-1.42,1.44a2,2,0,0,1-2-1.5c-.61-1.68-1.29-3.34-2-5.24a18.65,18.65,0,0,0-1.67,6.16c-.16,1-.16,1.93-1.73,1.72s-1-1.11-.9-2a50.08,50.08,0,0,1,2.6-9.87c.34-.94.68-1.55,1.9-1.47s1.42.82,1.66,1.75c.48,1.82,1.07,3.61,1.74,5.84a24.38,24.38,0,0,0,1.94-7c.15-.81.2-1.59,1.43-1.59a1.55,1.55,0,0,1,1.81,1.52,46.44,46.44,0,0,0,3.48,11.15c.45,1,.22,1.43-.68,1.86s-1.47.15-1.83-.83C368.23,236.84,367.38,234.8,366.46,232.52Z" transform="translate(-313.94 -142.78)"/><path class="d4690d24-9a8e-41d7-a8c4-5a5aa12cacde" d="M442.61,239.82c-5.24,0-8.43-3.45-8.13-8.23a7.17,7.17,0,0,1,8-6.47c.62.09,1.77-.23,1.66,1-.1,1-.4,1.76-1.85,1.77-3.42,0-5.37,1.91-5.16,4.66a4.93,4.93,0,0,0,6.14,4.6c1.33-.25,3.74.46,3.35-2.44-.11-.83-.33-1.19-1.23-1-1.06.2-2.16.2-3.22.42s-1.55.15-1.66-1.07.24-1.5,1.29-1.62c2.23-.25,4.47-.49,6.68-.89s2.09,1.38,1.54,2c-1.15,1.33-.77,2.61-.56,3.91.25,1.48-.3,2.12-1.68,2.43A31.1,31.1,0,0,1,442.61,239.82Z" transform="translate(-313.94 -142.78)"/><path class="e774fab5-bc75-4029-9054-690ea0ae0027" d="M376.3,216c-5.3.11-8.46-3-8.42-7.67a7.18,7.18,0,0,1,7.52-7c.82,0,2.11-.22,2.11,1.05,0,1.09-.58,1.77-2.11,1.66a4.4,4.4,0,0,0-4.88,4.23,4.73,4.73,0,0,0,4.89,5.11c1.15,0,2.3-.29,3.45-.4,1.59-.14,1.15-1.29,1.14-2.22,0-1.28-.95-.89-1.62-.82-1.08.1-2.15.24-3.21.43s-1.17-.53-1.31-1.31.12-1.21,1-1.31c2.39-.29,4.77-.7,7.17-.94a1.37,1.37,0,0,1,1.21,2.37,2.17,2.17,0,0,0-.55,2c.05,3.63.07,3.66-3.45,4.43C378.09,215.84,376.92,215.92,376.3,216Z" transform="translate(-313.94 -142.78)"/><path class="e774fab5-bc75-4029-9054-690ea0ae0027" d="M483.6,184.75c0,4.61-4.19,8.49-9,8.41a6.89,6.89,0,0,1-6.75-7.17c0-4.49,4.33-8.71,8.91-8.6A7.08,7.08,0,0,1,483.6,184.75Zm-8.79,5.67c3.36,0,6.25-2.77,6.18-5.87a4.43,4.43,0,0,0-4.4-4.47,6.26,6.26,0,0,0-6.11,6C470.51,188.78,472.15,190.44,474.81,190.42Z" transform="translate(-313.94 -142.78)"/><path class="e774fab5-bc75-4029-9054-690ea0ae0027" d="M429.28,210.19c1.59.43,2.83.83,4.1,1.1,1,.21,1.22.58.91,1.56s-.47,1.34-1.5,1.05q-2.88-.82-5.79-1.48c-.78-.18-2-.8-1.61,1,.24,1.16-.65,1.12-1.37,1.28-1.08.24-1.27-.43-1.34-1.27q-.52-5.85-1.06-11.69c-.08-.85,0-1.44,1.09-1.48a25.09,25.09,0,0,1,7,.22c2,.48,3.55,1.46,3.94,3.68s-.69,3.66-2.42,4.79Zm-4.68-5.28c.25,4.39.35,4.44,4.25,2.4a1.67,1.67,0,0,0,.23-.1c1-.71,2.58-1.24,1.79-2.77-1.12-2.19-3.4-1.62-5.33-1.63S424.89,204.26,424.6,204.91Z" transform="translate(-313.94 -142.78)"/><path class="e774fab5-bc75-4029-9054-690ea0ae0027" d="M507.57,187.51c1.68.46,2.85.86,4,1.09s1.16.88.93,1.8-.85,1-1.69.78c-2.31-.64-4.63-1.22-6.91-1.81-.59.67-.09,1.38-.28,2-.27.9-1.12.44-1.7.58-.89.22-.87-.43-.92-1-.33-3.81-.62-7.62-1-11.42-.15-1.4.31-1.94,1.69-2a23.06,23.06,0,0,1,6,.25c2.22.48,3.9,1.52,4.32,3.88s-1,3.72-2.77,4.83C508.79,186.7,508.39,187,507.57,187.51ZM503.24,186a12.89,12.89,0,0,0,5.05-2.12,1.87,1.87,0,0,0,1.07-1.81c-.17-1.41-2.77-2.36-5.32-2.13-2.13.19-1.08,1.59-1.07,2.55C503,183.67,503.13,184.8,503.24,186Z" transform="translate(-313.94 -142.78)"/><path class="e774fab5-bc75-4029-9054-690ea0ae0027" d="M394.24,234c1.67.42,2.79.67,3.89,1,.77.22,1.63.31,1.23,1.61s-.82,1.36-2,1c-1.81-.59-3.69-1-5.53-1.48-.93-.26-1.71-.43-1.44,1,.2,1-.36,1.23-1.25,1.34-1.19.14-1.41-.5-1.49-1.44-.33-3.81-.65-7.62-1-11.43-.11-1,.17-1.58,1.27-1.6a25.16,25.16,0,0,1,6.46.21c2.06.49,3.78,1.35,4.23,3.66s-.78,3.95-2.73,5.09C395.48,233.13,395.08,233.41,394.24,234Zm-4.65-5.61c.18,3.61.33,4.06,1.28,4,1.94-.16,5.46-2.53,5.17-3.63-.69-2.61-3-2-4.9-2.27S389.5,227.47,389.59,228.34Z" transform="translate(-313.94 -142.78)"/><path class="e774fab5-bc75-4029-9054-690ea0ae0027" d="M405.15,235.72a10.89,10.89,0,0,1,0,2.11c-.17.79-.94.45-1.46.54-.71.12-1-.2-1.11-.95q-.5-6.08-1.06-12.16c-.1-1,.44-1.32,1.31-1.34a23.51,23.51,0,0,1,6.69.28c2.1.55,3.63,1.63,4,3.89s-.85,3.44-2.42,4.55c-.52.37-1.06.69-2,1.3,1.58.4,2.74.72,3.91,1,1,.22,1.34.68,1.11,1.75s-.83,1.15-1.8.88C410,236.91,407.68,236.37,405.15,235.72Zm-.68-6.83c.38,4.08.39,4.09,3.88,2.31a10.07,10.07,0,0,0,1.88-1.2,1.45,1.45,0,0,0,.57-1.75c-.47-1.25-3.5-2.25-5.58-1.81S404.84,228.2,404.46,228.89Z" transform="translate(-313.94 -142.78)"/><path class="2c190a37-b263-49f0-af0d-e7c8053069c7" d="M335.7,229.31a17.48,17.48,0,0,0,.67,6.36c.25,1.08.19,1.64-1,2-1.54.47-1.47-.71-1.63-1.48a49.75,49.75,0,0,1-.9-10.4c0-.66-.4-1.69.72-1.81s2.1-.39,2.76,1a40.11,40.11,0,0,0,5.16,7.7,19.41,19.41,0,0,0-.18-6.31c-.17-1.13,0-1.66,1.2-1.88s1.4.57,1.46,1.41c.23,3.56.41,7.13.65,10.69a1.37,1.37,0,0,1-1.1,1.62,1.57,1.57,0,0,1-2.08-.73C339.67,234.85,337.82,232.31,335.7,229.31Z" transform="translate(-313.94 -142.78)"/><path class="2c190a37-b263-49f0-af0d-e7c8053069c7" d="M498.42,209.05a28.66,28.66,0,0,0-.31-6.49c-.06-.81-.31-1.63,1-1.77s1.54.42,1.6,1.51c.19,3.49.44,7,.69,10.46.07,1-.24,1.44-1.27,1.75s-1.51-.14-2-.87c-1.73-2.49-3.48-5-5.48-7.81-.45,2.56.16,4.53.56,6.51.19.93.09,1.34-.91,1.56s-1.54,0-1.73-1.08a58,58,0,0,1-1-10.67c0-.66-.4-1.7.71-1.82s2.12-.44,2.8.92A39.82,39.82,0,0,0,498.42,209.05Z" transform="translate(-313.94 -142.78)"/><path class="2c190a37-b263-49f0-af0d-e7c8053069c7" d="M327.08,204.22c-.19-3.79-.18-3.77,3.12-3.65a9.55,9.55,0,0,1,8.17,4.89,5.9,5.9,0,0,1-2.79,8.88,10.88,10.88,0,0,1-2.14.63c-4.92,1.07-5.49.63-5.85-4.35C327.43,208.31,327.22,206,327.08,204.22Zm3,2.75H330c.14,1.4.33,2.8.39,4.21.05,1.16.44,1.65,1.67,1.4,1.8-.36,3.8-.49,4.42-2.62s-.44-3.86-2.15-5.16c-1.2-.92-2.67-2-4.06-1.3-1.09.53,0,2.11-.23,3.21A1.18,1.18,0,0,0,330.07,207Z" transform="translate(-313.94 -142.78)"/><path class="e774fab5-bc75-4029-9054-690ea0ae0027" d="M506.43,215.23c-2.31.51-2.89-.65-2.95-2.85-.09-3.32-.49-6.63-.86-9.93-.14-1.27.2-1.73,1.52-1.84a10,10,0,0,1,9.41,4c3.09,4,1.52,8.81-3.36,10.18A8.9,8.9,0,0,1,506.43,215.23Zm-.75-9.16c.06.5.17,1.4.25,2.3s.11,1.82.19,2.72c.05.63-.12,1.53.84,1.5,1.82-.05,3.75-.19,4.92-1.84s.6-3.16-.43-4.6a7,7,0,0,0-3.11-2.38C505.83,202.74,505.49,203,505.68,206.07Z" transform="translate(-313.94 -142.78)"/><path class="e774fab5-bc75-4029-9054-690ea0ae0027" d="M488.79,214.44c.12.42-.22.79-.94.83s-1.36.43-1.7-.48c-.09-.23-.05-.51-.15-.73-.47-1-.07-2.84-1.24-3a10.33,10.33,0,0,0-4.61.74c-1.07.35-.92,1.66-1,2.59-.1,1.2-.71,1.25-1.67,1.18s-1.14-.63-1-1.49c.66-3.59,1.38-7.18,1.9-10.79.28-1.93,1.81-1.44,2.85-1.71,3.38-.87,3.38-.8,4.51,2.54A76.74,76.74,0,0,1,488.79,214.44Zm-4.31-6.15c-1.26-1.43-.14-4.22-2.54-4.1-2.24.11-2,3.11-1.59,4C481,209.77,482.79,208.17,484.48,208.3Z" transform="translate(-313.94 -142.78)"/><path class="d4690d24-9a8e-41d7-a8c4-5a5aa12cacde" d="M427.78,190.88a1.13,1.13,0,0,0-.29,1.28c.24,1.25-.57,1.29-1.45,1.42-1.11.16-1.25-.53-1.32-1.32-.31-3.64-.57-7.28-.94-10.91-.12-1.12.5-1.2,1.28-1.35,1-.18,1.35.17,1.44,1.14.16,1.55,0,3.15.67,5,1.75-2.37,3.37-4.52,4.94-6.72.59-.82,1-1.36,2.12-.56s.57,1.42,0,2.18c-1.49,2-2.9,4-4.4,6-.72.95-.91,1.5.58,1.78s3.19.88,4.8,1.28c.89.22,1.53.39,1.13,1.63-.34,1-.8,1.26-1.79,1C432.29,192.08,430,191.48,427.78,190.88Z" transform="translate(-313.94 -142.78)"/><path class="e774fab5-bc75-4029-9054-690ea0ae0027" d="M429,224.79c.79-.23,1.19.21,1.42.93,1.17,3.8,2.37,7.6,3.51,11.41.22.74.57,1.56-.8,1.85s-1.59-.12-1.84-1.21-.11-2.79-1.24-3a11.59,11.59,0,0,0-4.63.68c-1,.27-.73,1.39-.84,2.17-.16,1.1-.42,1.85-1.83,1.69-1.65-.19-1-1.14-.83-2,.45-2.62.87-5.24,1.35-7.86C424,225.66,425,224.82,429,224.79Zm-2,7.6c.57-.55,2.61.59,2.3-1.22-.2-1.14.11-3.53-2.07-3.28s-1.26,2.49-1.65,3.85C425.26,232.86,426.11,232.67,427,232.4Z" transform="translate(-313.94 -142.78)"/><path class="e774fab5-bc75-4029-9054-690ea0ae0027" d="M353,213.72c.18,1.11-.12,1.53-.84,1.56s-1.36.45-1.65-.53c-.07-.24-.09-.49-.17-.73-.94-3.08-2.6-3.73-5.69-2.39-1.13.49-1,1.45-1.07,2.29-.11,1.19-.43,1.81-1.84,1.63-1.69-.21-.91-1.24-.79-2,.53-3.28,1.24-6.53,1.63-9.82.28-2.36,2.19-1.79,3.5-2.34,2.26-.94,3.36-.15,4,2.21C351,207.14,352.43,210.52,353,213.72Zm-7.19-5c.66-.45,2.56.31,2.54-1s-.12-3.49-1.78-3.6c-2.28-.15-1.49,2.27-2,3.59C344.37,208.41,344.56,209.06,345.86,208.76Z" transform="translate(-313.94 -142.78)"/><path class="e774fab5-bc75-4029-9054-690ea0ae0027" d="M384.83,237.66c.29.9-.07,1.22-.8,1.26s-1.32.6-1.71-.35a6.64,6.64,0,0,1-.2-.72c-.31-1.07-.07-2.79-1.22-3a11.68,11.68,0,0,0-4.64.6c-1.16.29-.76,1.57-.9,2.36-.22,1.27-.74,1.67-2,1.49-1.45-.21-.84-1.23-.73-1.91.55-3.28,1.3-6.52,1.75-9.81.2-1.44.77-2.06,2.11-2.21a7.12,7.12,0,0,0,1.71-.32c2-.74,2.9-.08,3.46,2C382.68,230.65,384.15,234.11,384.83,237.66Zm-7.3-5.18c.47-.86,2.68.71,2.54-1.24-.08-1.17,0-3.47-2-3.34-2.23.15-1.18,2.48-1.73,3.78C376.05,232.44,376.44,232.77,377.53,232.48Z" transform="translate(-313.94 -142.78)"/><path class="e774fab5-bc75-4029-9054-690ea0ae0027" d="M353.38,178.23c.48-.13.81.4,1,1.1,1.18,3.8,2.36,7.61,3.52,11.42.25.81.42,1.52-.84,1.86s-1.53-.26-1.81-1.26-.09-2.77-1.27-2.95a11.51,11.51,0,0,0-4.64.67c-.94.27-.72,1.4-.8,2.19-.13,1.2-.58,1.75-1.91,1.61-1.75-.18-.87-1.22-.74-2,.49-3,1.23-5.88,1.48-8.84.2-2.32,1.28-3.17,3.4-3.28A18.4,18.4,0,0,0,353.38,178.23Zm-2.62,7.86c.4-1,2.71.65,2.54-1.25-.11-1.15,0-3.52-2-3.38s-1.29,2.45-1.75,3.8C349.32,186,349.62,186.41,350.77,186.09Z" transform="translate(-313.94 -142.78)"/><path class="e774fab5-bc75-4029-9054-690ea0ae0027" d="M418.4,178.23c.45-.12.8.39,1,1.09,1.18,3.8,2.36,7.6,3.51,11.41.24.79.46,1.53-.82,1.87s-1.55-.21-1.83-1.24-.11-2.78-1.25-3a11.47,11.47,0,0,0-4.63.66c-.95.26-.74,1.39-.83,2.18-.13,1.17-.52,1.79-1.88,1.64-1.72-.18-.9-1.2-.77-2,.5-2.95,1.24-5.87,1.49-8.84.2-2.33,1.28-3.16,3.39-3.28A18.82,18.82,0,0,0,418.4,178.23Zm-3.84,6.64c0,.65-.29,1.62.65,1.29s3.05.27,3.13-1.11c.06-1.17-.12-3.46-1.8-3.59C414.08,181.26,415.27,183.82,414.55,184.87Z" transform="translate(-313.94 -142.78)"/><path class="d4690d24-9a8e-41d7-a8c4-5a5aa12cacde" d="M354.38,208.48c.28-2.23.59-4.45.82-6.69.13-1.29.76-1.69,2-1.51,1.45.22.78,1.21.7,1.92-.27,2.48-.58,5-.92,7.43-.24,1.78.57,2.3,2.25,2.34,5.49.13,5.65,0,4.76-5.46-.25-1.56-.59-3.11-.9-4.65-.18-.9.05-1.42,1.08-1.5.84-.06,1.33,0,1.54,1a51.68,51.68,0,0,1,1.3,8.88c.06,2.89-.95,3.88-3.79,4.18-.83.09-1.66.17-2.49.2C355.44,214.84,354.33,213.74,354.38,208.48Z" transform="translate(-313.94 -142.78)"/><path class="d4690d24-9a8e-41d7-a8c4-5a5aa12cacde" d="M388.07,211.89c0,.9.55,2-1.14,2.15s-1.38-1-1.46-1.85c-.31-3.22-.58-6.45-.87-9.68-.08-.94-.22-1.75,1.25-1.8s1.36.79,1.4,1.72c0,.33.07.66.11,1,.4,3.78.39,3.68,4.2,3.07,1.34-.21,1.65-.7,1.48-1.9s-.19-2.15-.3-3.22-.05-1.6,1.2-1.62c1.06,0,1.46.31,1.53,1.38.25,3.9.55,7.79.91,11.68.09,1-.39,1.12-1.12,1.17s-1.38.3-1.55-.7c-.06-.33-.06-.66-.1-1-.33-3.29-.33-3.29-3.43-3C388,209.59,388,209.59,388.07,211.89Z" transform="translate(-313.94 -142.78)"/><path class="e774fab5-bc75-4029-9054-690ea0ae0027" d="M450.74,200.2c.64.43,2.24-.85,2.23,1.2,0,1.69-1.17,1.44-2.25,1.45a9.83,9.83,0,0,0-6.06,1.94c-.4.31-.89.65-.61,1.19a1.41,1.41,0,0,0,1,.52c1.66.13,3.32.14,5,.29s3.44.51,4,2.39-.72,3.27-2.24,4.3A11.86,11.86,0,0,1,447,215.4c-.77.12-1.49.23-1.6-.92-.08-.92-.16-1.56,1.1-1.7a7.84,7.84,0,0,0,4.1-1.66c.3-.24.67-.66.65-1,0-.56-.64-.68-1.12-.72-.83-.07-1.66,0-2.49-.09-1.24-.09-2.49-.16-3.71-.37-1.38-.23-2.56-.84-2.86-2.38a3.49,3.49,0,0,1,1.49-3.48A13.29,13.29,0,0,1,450.74,200.2Z" transform="translate(-313.94 -142.78)"/><path class="2c190a37-b263-49f0-af0d-e7c8053069c7" d="M474.57,210.52c0,.81,0,1.23.09,1.64.08.91.35,1.75-1.13,1.89s-1.4-.65-1.49-1.62c-.31-3.47-1.45-4.12-4.8-3-1.53.53-.69,1.63-.71,2.5s.43,1.93-1.23,2.08-1.35-.84-1.43-1.69c-.3-3.31-.54-6.62-.84-9.92-.1-1.05,0-1.69,1.35-1.72s1.29.65,1.27,1.54a11.47,11.47,0,0,0,.07,1.24c.33,3.68.32,3.56,4.11,3,1.64-.23,1.87-.9,1.61-2.26a11.85,11.85,0,0,1-.25-2.47c0-.77-.64-1.85,1-2s1.61.62,1.68,1.72C474.07,204.63,474.35,207.77,474.57,210.52Z" transform="translate(-313.94 -142.78)"/><path class="e774fab5-bc75-4029-9054-690ea0ae0027" d="M491.23,191.94c-5.36,0-6.47-1.14-6.09-6.53.14-2.07.61-4.11.79-6.18.11-1.22.43-1.84,1.8-1.63,1.6.24.88,1.38.81,2.12-.22,2.23-.57,4.45-.91,6.67s.43,3,2.69,3c5.09-.09,5.19-.11,4.36-5.2-.27-1.64-.59-3.27-.89-4.9-.12-.64-.45-1.38.66-1.44.77,0,1.7-.5,1.93.82.56,3.27,1.43,6.5,1.23,9.87a3.1,3.1,0,0,1-2.9,3.19C493.56,191.84,492.39,191.86,491.23,191.94Z" transform="translate(-313.94 -142.78)"/><path class="d4690d24-9a8e-41d7-a8c4-5a5aa12cacde" d="M414.76,200c.83,0,1.67,0,2.49-.13,1-.12,1.48.18,1.57,1.3s-.59,1.35-1.5,1.39a18.89,18.89,0,0,1-2.24.14c-1.61-.13-2.08.45-2,2.1.09,2.08,1.36,1.4,2.41,1.35.83,0,1.65-.19,2.48-.28s1.09.49,1.12,1.23.1,1.36-.88,1.43c-1.16.09-2.32.3-3.48.31s-1.27.7-1.24,1.64.55,1.26,1.45,1.11c1.07-.17,2.16-.25,3.21-.49.87-.21,1.4-.25,1.52.88.1.91.23,1.68-1,1.8l-.25,0c-2.11.59-4.52,1.23-6.37.42-2.29-1-.85-3.78-1.28-5.73s-.09-4-.43-6,.33-2.57,2.18-2.39a14.68,14.68,0,0,0,2.24-.12Z" transform="translate(-313.94 -142.78)"/><path class="d4690d24-9a8e-41d7-a8c4-5a5aa12cacde" d="M416.49,253.14c-.32,10.12-4,18.78-11.41,25.75a9.7,9.7,0,0,1-1.53,1.28,1.26,1.26,0,0,1-1.79-.24,1.16,1.16,0,0,1,.22-1.58c.39-.43.83-.81,1.26-1.2,7.17-6.65,10.61-14.94,10.76-24.65,0-.42,0-.83,0-1.25,0-.8.09-1.55,1.14-1.55s1.3.6,1.33,1.45C416.51,251.81,416.49,252.48,416.49,253.14Z" transform="translate(-313.94 -142.78)"/><path class="d4690d24-9a8e-41d7-a8c4-5a5aa12cacde" d="M455.92,223.7c.91,0,1.83,0,2.74,0s1.45,0,1.45,1.1-.12,1.61-1.31,1.55c-.83,0-1.66.06-2.49.05-1.18,0-2,0-1.94,1.71s.56,2.06,2.07,1.76c.89-.17,1.83-.08,2.73-.19,1.22-.15,1,.77,1.18,1.45.19.9-.27,1.18-1.09,1.22-1.16.06-2.32.21-3.48.28-1,.05-1.18.58-1.14,1.48s.52,1.32,1.42,1.2c1.07-.14,2.14-.27,3.2-.46s1.54,0,1.76,1.11-.36,1.46-1.3,1.57a4.23,4.23,0,0,0-.48.14c-6.59,1.58-6.94,1.31-7.25-5.36-.09-2-.16-4-.44-6s.36-2.77,2.35-2.5a15.23,15.23,0,0,0,2,0Z" transform="translate(-313.94 -142.78)"/><path class="d4690d24-9a8e-41d7-a8c4-5a5aa12cacde" d="M437.62,184.21c-.13-1.74-.22-3.48-.42-5.22-.13-1.08.23-1.52,1.32-1.54,2,0,4-.09,6-.22,1.1-.07,1.15.52,1.23,1.36.1,1-.33,1.31-1.26,1.28s-1.67.11-2.49.06c-1.5-.1-2,.43-1.93,2s.8,1.7,2,1.5c.9-.14,1.83-.08,2.73-.17,1.08-.11,1.21.51,1.24,1.36s-.14,1.24-1.05,1.28c-1.16,0-2.31.28-3.47.31s-1.2.51-1.13,1.42.4,1.37,1.37,1.22,2.13-.3,3.2-.46c.75-.11,1.49-.32,1.64.85.11.89.28,1.67-1,1.78a2.88,2.88,0,0,0-.47.15C438.34,193.06,437.92,192.67,437.62,184.21Z" transform="translate(-313.94 -142.78)"/><path class="2c190a37-b263-49f0-af0d-e7c8053069c7" d="M383.32,192.37c-1.16,0-2.07.31-2.19-1-.08-.93-.08-1.6,1.16-1.62,1,0,.74-.94.7-1.52-.14-2.07-.4-4.13-.52-6.19-.07-1.07-.48-1.52-1.55-1.28s-1.44-.19-1.54-1.27.43-1.44,1.4-1.52c2-.15,4-.3,5.95-.51,1-.11,1.29.36,1.35,1.26s-.12,1.56-1.12,1.49c-2-.16-2,1.07-1.84,2.51s.36,2.8.41,4.21,0,2.87,2.23,2.35c1.07-.26,1.12.65,1.24,1.4s-.24,1.15-1.08,1.21C386.26,192,384.61,192.23,383.32,192.37Z" transform="translate(-313.94 -142.78)"/><path class="2c190a37-b263-49f0-af0d-e7c8053069c7" d="M365,192.42c-.73.09-1.38-.05-1.35-1.13,0-.66-.12-1.34,0-2,.52-4.33-.57-7.79-4.9-9.68-.91-.4-1.4-1-.59-2.09s1.45-.61,2.18,0c.13.1.28.18.41.27,3.59,2.5,3.61,2.52,7.09-.3.71-.58,1.19-.78,1.81,0,.44.56,1.29,1.19.24,1.75-5,2.63-3.68,7.16-3.56,11.34C366.31,192.36,366.3,192.36,365,192.42Z" transform="translate(-313.94 -142.78)"/><path class="2c190a37-b263-49f0-af0d-e7c8053069c7" d="M461.37,192.4c-1,.17-1.37-.3-1.33-1.25,0-.66-.1-1.34,0-2,.36-4.2-.62-7.67-4.9-9.5-.88-.37-1.48-.93-.62-2.09s1.47-.59,2.22,0l.61.44c3.44,2.43,3.46,2.45,6.72-.33.71-.6,1.29-1.11,2-.09.33.48,1.29,1,.33,1.57-5.05,2.8-3.85,7.48-3.66,11.85C462.74,192,462.53,192.6,461.37,192.4Z" transform="translate(-313.94 -142.78)"/><path class="d4690d24-9a8e-41d7-a8c4-5a5aa12cacde" d="M470.62,222.31a6.35,6.35,0,0,1,2.4.44c2.76,1,3.34,3.21,1.38,5.42a14.1,14.1,0,0,1-3.39,2.49c-.81.49-2.15.5-1.74,2.18.2.83-.95.65-1.5.86-.77.29-1-.3-1.13-.91-.34-1.64-.73-3.22,1.61-3.84a11.78,11.78,0,0,0,3.05-1.63c.59-.37,1.56-.74,1.22-1.63s-1.24-.71-2-.72a7.12,7.12,0,0,0-4.7,1.32c-1.28,1-1.76,0-2.31-.74-.78-1,.41-1.25.89-1.56A11.15,11.15,0,0,1,470.62,222.31Z" transform="translate(-313.94 -142.78)"/><path class="80d4c72c-0a7e-4d11-a19e-4f535530deb6" d="M399.66,204c-.93.26-1.83.44-2-1.13-.19-1.72,1.07-1.36,1.94-1.48,2.39-.32,4.79-.58,7.18-.86.8-.09,1.63-.43,1.82.94s-.37,1.77-1.45,1.69c-2.87-.22-2.9,1.44-2.64,3.57a54.32,54.32,0,0,1,.33,5.73c0,.92.84,2.25-1.09,2.41s-1.49-1.36-1.59-2.36c-.21-2.32-.26-4.65-.45-7C401.58,203.81,401.52,203.81,399.66,204Z" transform="translate(-313.94 -142.78)"/><path class="d4690d24-9a8e-41d7-a8c4-5a5aa12cacde" d="M408.05,177.67c.54-.13.82.54.93,1.5.14,1.15-.6,1.25-1.39,1.22-2.51-.1-3.26,1-2.82,3.46.38,2.11.24,4.32.41,6.47.09,1.06,0,1.71-1.32,1.76s-1.28-.66-1.32-1.55c-.14-2.58-.39-5.15-.44-7.73,0-1.31-.37-1.74-1.72-1.53-.91.14-2.23.77-2.36-1.13s1.36-1.27,2.22-1.42C402.64,178.32,405,178.06,408.05,177.67Z" transform="translate(-313.94 -142.78)"/><path class="80d4c72c-0a7e-4d11-a19e-4f535530deb6" d="M327.41,229.58c-.1-1.24-.18-2.49-.29-3.73-.07-.84,0-1.44,1.11-1.49s1.54.17,1.61,1.29q.37,5.85.87,11.69c.1,1.12-.36,1.42-1.39,1.5s-1.22-.43-1.28-1.3c-.19-2.65-.44-5.3-.67-7.95Z" transform="translate(-313.94 -142.78)"/><path class="80d4c72c-0a7e-4d11-a19e-4f535530deb6" d="M416,227.69c.63-.95-1.21-3,1.11-3.25,2.63-.26,1.41,2.11,1.58,3.24.47,3.11.58,6.27.83,9.42.07.85.15,1.61-1.13,1.73s-1.49-.54-1.57-1.57C416.63,234.11,416.33,231,416,227.69Z" transform="translate(-313.94 -142.78)"/><path class="80d4c72c-0a7e-4d11-a19e-4f535530deb6" d="M439.2,202.91a4.3,4.3,0,0,0,.1.84c.2,1-.34,1.14-1.1,1.14s-1.54.32-1.61-.9-.18-2.3-.36-3.44c-.14-.93-.12-1.57,1.09-1.72s1.64.37,1.67,1.47C439,201,439.1,201.62,439.2,202.91Z" transform="translate(-313.94 -142.78)"/><path class="80d4c72c-0a7e-4d11-a19e-4f535530deb6" d="M470.09,237.73c.21,1.53-.91,1.14-1.61,1.23-1.38.19-1.06-1-1.16-1.65-.17-1.2.84-.91,1.5-1C470.07,236.13,470.11,237,470.09,237.73Z" transform="translate(-313.94 -142.78)"/><path class="079e178a-1f98-4883-83dd-1feb50320465" d="M452.66,372.3a12,12,0,0,1,.69-4.52,46.59,46.59,0,0,1-.24,10.51C452.61,376.32,453.57,374.24,452.66,372.3Z" transform="translate(-313.94 -142.78)"/><path class="042af950-e88e-462b-92ff-8be22295aa3e" d="M389.38,426.91c.44,1.46.13,3,.2,4.44A13.77,13.77,0,0,1,389.38,426.91Z" transform="translate(-313.94 -142.78)"/><path class="042af950-e88e-462b-92ff-8be22295aa3e" d="M392.84,431.29c-.51-1-.2-2-.23-3.05A6.38,6.38,0,0,1,392.84,431.29Z" transform="translate(-313.94 -142.78)"/><path class="042af950-e88e-462b-92ff-8be22295aa3e" d="M388.28,410.37c.53.79.24,1.67.28,2.52A4.82,4.82,0,0,1,388.28,410.37Z" transform="translate(-313.94 -142.78)"/><path class="042af950-e88e-462b-92ff-8be22295aa3e" d="M394.39,383.81c-.55-.79-.25-1.68-.29-2.53A4.81,4.81,0,0,1,394.39,383.81Z" transform="translate(-313.94 -142.78)"/><path class="042af950-e88e-462b-92ff-8be22295aa3e" d="M388.79,417.37c.52.79.24,1.67.27,2.52A5.42,5.42,0,0,1,388.79,417.37Z" transform="translate(-313.94 -142.78)"/><path class="042af950-e88e-462b-92ff-8be22295aa3e" d="M357.08,400.84c.67,0,1.38-.19,2,.33A2.49,2.49,0,0,1,357.08,400.84Z" transform="translate(-313.94 -142.78)"/><path class="042af950-e88e-462b-92ff-8be22295aa3e" d="M392.36,420.3c-.46-.64-.26-1.36-.25-2.05A3.5,3.5,0,0,1,392.36,420.3Z" transform="translate(-313.94 -142.78)"/><path class="042af950-e88e-462b-92ff-8be22295aa3e" d="M380.68,282.8c-.7,0-1.42.21-2.06-.25A3.57,3.57,0,0,1,380.68,282.8Z" transform="translate(-313.94 -142.78)"/><path class="042af950-e88e-462b-92ff-8be22295aa3e" d="M396.35,353.79a1.66,1.66,0,0,1,0-1.91Z" transform="translate(-313.94 -142.78)"/><path class="042af950-e88e-462b-92ff-8be22295aa3e" d="M362,401.38c.71,0,1.45-.23,2.09.28A2.94,2.94,0,0,1,362,401.38Z" transform="translate(-313.94 -142.78)"/><path class="042af950-e88e-462b-92ff-8be22295aa3e" d="M391.88,413.31c-.48-.64-.27-1.36-.27-2.06A3.36,3.36,0,0,1,391.88,413.31Z" transform="translate(-313.94 -142.78)"/><path class="042af950-e88e-462b-92ff-8be22295aa3e" d="M387.73,404.35c.54.61.31,1.35.33,2A3.21,3.21,0,0,1,387.73,404.35Z" transform="translate(-313.94 -142.78)"/><path class="042af950-e88e-462b-92ff-8be22295aa3e" d="M391.36,406.8c-.45-.62-.25-1.33-.27-2A3.42,3.42,0,0,1,391.36,406.8Z" transform="translate(-313.94 -142.78)"/><path class="042af950-e88e-462b-92ff-8be22295aa3e" d="M371.53,282.58a3.36,3.36,0,0,1-2,.24Z" transform="translate(-313.94 -142.78)"/><path class="042af950-e88e-462b-92ff-8be22295aa3e" d="M394.77,389.26l-.16-1.52A2,2,0,0,1,394.77,389.26Z" transform="translate(-313.94 -142.78)"/><path class="042af950-e88e-462b-92ff-8be22295aa3e" d="M343.28,382.86a2,2,0,0,1,.27,1.57A2.12,2.12,0,0,1,343.28,382.86Z" transform="translate(-313.94 -142.78)"/><path class="042af950-e88e-462b-92ff-8be22295aa3e" d="M421.12,382.45v-1.7A1,1,0,0,1,421.12,382.45Z" transform="translate(-313.94 -142.78)"/><path class="042af950-e88e-462b-92ff-8be22295aa3e" d="M337.55,361.77a2,2,0,0,1-.27,1.52A2,2,0,0,1,337.55,361.77Z" transform="translate(-313.94 -142.78)"/><path class="042af950-e88e-462b-92ff-8be22295aa3e" d="M390.91,401.81a1.94,1.94,0,0,1-.29-1.61A2.23,2.23,0,0,1,390.91,401.81Z" transform="translate(-313.94 -142.78)"/><path class="042af950-e88e-462b-92ff-8be22295aa3e" d="M413.94,312.32c-.46-.46-.35-1-.32-1.6A1.45,1.45,0,0,1,413.94,312.32Z" transform="translate(-313.94 -142.78)"/><path class="042af950-e88e-462b-92ff-8be22295aa3e" d="M380.12,401.09l1.49-.24Z" transform="translate(-313.94 -142.78)"/><path class="042af950-e88e-462b-92ff-8be22295aa3e" d="M337.77,317.86a2,2,0,0,1,.27,1.57A2.14,2.14,0,0,1,337.77,317.86Z" transform="translate(-313.94 -142.78)"/><path class="042af950-e88e-462b-92ff-8be22295aa3e" d="M375.64,401.56l1.55-.19Z" transform="translate(-313.94 -142.78)"/><path class="042af950-e88e-462b-92ff-8be22295aa3e" d="M352.58,408.33l.22-.93Z" transform="translate(-313.94 -142.78)"/><path class="042af950-e88e-462b-92ff-8be22295aa3e" d="M343,375l.05,1Z" transform="translate(-313.94 -142.78)"/><path class="042af950-e88e-462b-92ff-8be22295aa3e" d="M353.1,405.4l.29-1Z" transform="translate(-313.94 -142.78)"/><path class="042af950-e88e-462b-92ff-8be22295aa3e" d="M348.57,411.82l-.31,1Z" transform="translate(-313.94 -142.78)"/><path class="042af950-e88e-462b-92ff-8be22295aa3e" d="M351.6,412.89l.31-1Z" transform="translate(-313.94 -142.78)"/><path class="042af950-e88e-462b-92ff-8be22295aa3e" d="M350.06,404.28l-.27,1Z" transform="translate(-313.94 -142.78)"/><path class="042af950-e88e-462b-92ff-8be22295aa3e" d="M343.82,387.88l.23,1Z" transform="translate(-313.94 -142.78)"/><path class="042af950-e88e-462b-92ff-8be22295aa3e" d="M350.58,417.33l.3-1Z" transform="translate(-313.94 -142.78)"/><path class="042af950-e88e-462b-92ff-8be22295aa3e" d="M344.28,391.37l.25,1.08Z" transform="translate(-313.94 -142.78)"/><path class="042af950-e88e-462b-92ff-8be22295aa3e" d="M395.3,394.28l-.19-1Z" transform="translate(-313.94 -142.78)"/><path class="042af950-e88e-462b-92ff-8be22295aa3e" d="M353.61,402.42l.26-1Z" transform="translate(-313.94 -142.78)"/><path class="042af950-e88e-462b-92ff-8be22295aa3e" d="M350.56,401.3l-.28,1Z" transform="translate(-313.94 -142.78)"/><path class="042af950-e88e-462b-92ff-8be22295aa3e" d="M350.07,419.31l.33-.94Z" transform="translate(-313.94 -142.78)"/><path class="042af950-e88e-462b-92ff-8be22295aa3e" d="M346.58,419.86l-.32.94Z" transform="translate(-313.94 -142.78)"/><path class="042af950-e88e-462b-92ff-8be22295aa3e" d="M383.61,400.63l1-.27Z" transform="translate(-313.94 -142.78)"/><path class="042af950-e88e-462b-92ff-8be22295aa3e" d="M387.26,400.32l.28,1.11Z" transform="translate(-313.94 -142.78)"/><path class="042af950-e88e-462b-92ff-8be22295aa3e" d="M384.1,283.32l-1-.29Z" transform="translate(-313.94 -142.78)"/><path class="042af950-e88e-462b-92ff-8be22295aa3e" d="M386.69,283.79l-1.09-.31Z" transform="translate(-313.94 -142.78)"/><path class="042af950-e88e-462b-92ff-8be22295aa3e" d="M413.36,308.8l-.28-1Z" transform="translate(-313.94 -142.78)"/><path class="042af950-e88e-462b-92ff-8be22295aa3e" d="M338,311.2l-.22,1.09Z" transform="translate(-313.94 -142.78)"/><path class="042af950-e88e-462b-92ff-8be22295aa3e" d="M413.62,323.94l.29-1.07A1.08,1.08,0,0,1,413.62,323.94Z" transform="translate(-313.94 -142.78)"/><path class="042af950-e88e-462b-92ff-8be22295aa3e" d="M338.75,323.86l.33,1Z" transform="translate(-313.94 -142.78)"/><path class="042af950-e88e-462b-92ff-8be22295aa3e" d="M396.82,358.29l-.24-1Z" transform="translate(-313.94 -142.78)"/><path class="042af950-e88e-462b-92ff-8be22295aa3e" d="M337.39,367.41l.18.92Z" transform="translate(-313.94 -142.78)"/><path class="042af950-e88e-462b-92ff-8be22295aa3e" d="M403.84,371.31a.66.66,0,0,1-.29-.28A.27.27,0,0,1,403.84,371.31Z" transform="translate(-313.94 -142.78)"/><path class="042af950-e88e-462b-92ff-8be22295aa3e" d="M338.31,321.87l.21.61Z" transform="translate(-313.94 -142.78)"/><path class="042af950-e88e-462b-92ff-8be22295aa3e" d="M398.81,370.86a.64.64,0,0,1,.3.32Z" transform="translate(-313.94 -142.78)"/><path class="042af950-e88e-462b-92ff-8be22295aa3e" d="M403.39,370.86a.67.67,0,0,1-.28-.29A.28.28,0,0,1,403.39,370.86Z" transform="translate(-313.94 -142.78)"/><path class="042af950-e88e-462b-92ff-8be22295aa3e" d="M349.53,407.22l-.21.58Z" transform="translate(-313.94 -142.78)"/><path class="042af950-e88e-462b-92ff-8be22295aa3e" d="M339.09,306.38a.76.76,0,0,1-.12.36l0-.2Z" transform="translate(-313.94 -142.78)"/><path class="042af950-e88e-462b-92ff-8be22295aa3e" d="M349,409.72l-.23.57Z" transform="translate(-313.94 -142.78)"/><path class="042af950-e88e-462b-92ff-8be22295aa3e" d="M352.11,410.43l.21-.55Z" transform="translate(-313.94 -142.78)"/><path class="042af950-e88e-462b-92ff-8be22295aa3e" d="M404.79,293.8a.4.4,0,0,1-.18-.18l.16,0Z" transform="translate(-313.94 -142.78)"/><path class="042af950-e88e-462b-92ff-8be22295aa3e" d="M348,414.22l-.24.58Z" transform="translate(-313.94 -142.78)"/><path class="042af950-e88e-462b-92ff-8be22295aa3e" d="M351.13,415l.24-.6Z" transform="translate(-313.94 -142.78)"/><path class="042af950-e88e-462b-92ff-8be22295aa3e" d="M347.54,416.22l-.21.57Z" transform="translate(-313.94 -142.78)"/><path class="042af950-e88e-462b-92ff-8be22295aa3e" d="M359,285.18a.68.68,0,0,1-.36.17Q358.75,285.07,359,285.18Z" transform="translate(-313.94 -142.78)"/><path class="042af950-e88e-462b-92ff-8be22295aa3e" d="M388.68,284.3l-.57-.23Z" transform="translate(-313.94 -142.78)"/><path class="042af950-e88e-462b-92ff-8be22295aa3e" d="M347,418.24l-.27.57Z" transform="translate(-313.94 -142.78)"/><path class="042af950-e88e-462b-92ff-8be22295aa3e" d="M362.55,284l-.58.26Z" transform="translate(-313.94 -142.78)"/><path class="042af950-e88e-462b-92ff-8be22295aa3e" d="M337.81,369.37l.26.49Z" transform="translate(-313.94 -142.78)"/><path class="042af950-e88e-462b-92ff-8be22295aa3e" d="M364.54,283.58l-.6.2Z" transform="translate(-313.94 -142.78)"/><path class="042af950-e88e-462b-92ff-8be22295aa3e" d="M346.06,421.8l-.21.49Z" transform="translate(-313.94 -142.78)"/><path class="042af950-e88e-462b-92ff-8be22295aa3e" d="M349.09,422.88l.21-.49Z" transform="translate(-313.94 -142.78)"/><path class="042af950-e88e-462b-92ff-8be22295aa3e" d="M348.09,426.36l.19-.47Z" transform="translate(-313.94 -142.78)"/><path class="042af950-e88e-462b-92ff-8be22295aa3e" d="M344.57,426.82a.64.64,0,0,1-.17.45Z" transform="translate(-313.94 -142.78)"/><path class="042af950-e88e-462b-92ff-8be22295aa3e" d="M367,283.16l-.51.15Z" transform="translate(-313.94 -142.78)"/><path class="042af950-e88e-462b-92ff-8be22295aa3e" d="M343.59,429.88a.79.79,0,0,1-.11.35Q343.34,430,343.59,429.88Z" transform="translate(-313.94 -142.78)"/><path class="042af950-e88e-462b-92ff-8be22295aa3e" d="M392.63,433.48l.24-.61Z" transform="translate(-313.94 -142.78)"/><path class="042af950-e88e-462b-92ff-8be22295aa3e" d="M419.14,379.81l-.52-.23Z" transform="translate(-313.94 -142.78)"/><path class="042af950-e88e-462b-92ff-8be22295aa3e" d="M420.62,380.32l-.52-.29Z" transform="translate(-313.94 -142.78)"/><path class="042af950-e88e-462b-92ff-8be22295aa3e" d="M397.66,361.71a.86.86,0,0,1-.09-.32l.15.14Z" transform="translate(-313.94 -142.78)"/><path class="042af950-e88e-462b-92ff-8be22295aa3e" d="M416.63,382.32a.84.84,0,0,1,.33.1l-.19,0Z" transform="translate(-313.94 -142.78)"/><path class="042af950-e88e-462b-92ff-8be22295aa3e" d="M338,359.26l-.19.53Z" transform="translate(-313.94 -142.78)"/><path class="042af950-e88e-462b-92ff-8be22295aa3e" d="M420.61,383.09a.42.42,0,0,1,.23-.23l0,.19Z" transform="translate(-313.94 -142.78)"/><path class="042af950-e88e-462b-92ff-8be22295aa3e" d="M339.08,355.34a.67.67,0,0,1-.15.42Z" transform="translate(-313.94 -142.78)"/><path class="042af950-e88e-462b-92ff-8be22295aa3e" d="M413.12,326.46l.21-.58Z" transform="translate(-313.94 -142.78)"/><path class="042af950-e88e-462b-92ff-8be22295aa3e" d="M402,345.15l.38-.34Z" transform="translate(-313.94 -142.78)"/><path class="042af950-e88e-462b-92ff-8be22295aa3e" d="M401.61,345.58a.66.66,0,0,1,.28-.27A.25.25,0,0,1,401.61,345.58Z" transform="translate(-313.94 -142.78)"/><path class="042af950-e88e-462b-92ff-8be22295aa3e" d="M341.59,348.4a.72.72,0,0,1-.14.35A.23.23,0,0,1,341.59,348.4Z" transform="translate(-313.94 -142.78)"/><path class="042af950-e88e-462b-92ff-8be22295aa3e" d="M399.22,371.31l.38.42Z" transform="translate(-313.94 -142.78)"/><path class="042af950-e88e-462b-92ff-8be22295aa3e" d="M386.66,400l.43.11A.63.63,0,0,1,386.66,400Z" transform="translate(-313.94 -142.78)"/><path class="042af950-e88e-462b-92ff-8be22295aa3e" d="M350.15,398.32l.45.35Z" transform="translate(-313.94 -142.78)"/><path class="042af950-e88e-462b-92ff-8be22295aa3e" d="M394.11,398.09l.49-.25Z" transform="translate(-313.94 -142.78)"/><path class="042af950-e88e-462b-92ff-8be22295aa3e" d="M340.07,352.33l-.21.45Z" transform="translate(-313.94 -142.78)"/><path class="042af950-e88e-462b-92ff-8be22295aa3e" d="M395.1,397.4l.34-.55C395.53,397.16,395.36,397.31,395.1,397.4Z" transform="translate(-313.94 -142.78)"/><path class="24df0ff9-242b-45a1-9a69-349735a5c72e" d="M341.2,312c2.61-13.26,10.73-21.34,23.52-25l.2.07.16-.15,5.12-.86a.9.9,0,0,0,1-.09h8.19l.57.08c5.39,1,10.75,1.9,15.55,4.86a33.51,33.51,0,0,1,13.87,16.48c.62,1.54.56,2.2-1.45,2s-3.62-1.79-5.7-.72c1.33,1.18,3.15,1.18,4.72,1.67,3.78,1.2,4.08,1.49,3.37,6.2-.87-1.33-1.5-2.59-2.83-3.18a4.8,4.8,0,0,0-4.1.12,4.37,4.37,0,0,0-2.61,4.67,4.89,4.89,0,0,0,3.82,4.38c2.34.31,4.22-.94,5.68-4,.71,1.61.11,3.06.29,4.42l-.14.16.08.18a36.35,36.35,0,0,1-7.33,15.87c-7.37,9-17,12.2-28.36,11.07l-3.21-.31a.24.24,0,0,0-.4-.05c-3.79-1.14-7.67-2-11.28-3.76-10.68-5.2-16-14.18-18.36-25.39-.13-.64-.28-1.28-.43-1.92,0,0,.1-.11.09-.14a1.87,1.87,0,0,0-.14-.3v-5.38Zm55.86,12.92c-5.71,0-11.35.25-16.89-.92-.81-.17-.94.24-1.16.86-.87,2.41.4,4.24,3.42,4.33,4,.12,8,0,11.94-.1.51,0,1.27.22,1.2-.77C395.47,326.93,396.5,326.06,397.06,324.88Zm-15.44-12.68a4.47,4.47,0,0,0-4.62,4.52,5,5,0,0,0,4.88,5c2.36.06,4.62-2.38,4.6-5A4.55,4.55,0,0,0,381.62,312.19Zm-8.9-1.76c2.76.41,11.13-1.9,12.93-3.55A58.76,58.76,0,0,0,372.72,310.43Zm18.21,20.09c-1.58-.22-2.93-.44-4.28.71.93,0,1.66,0,2.38,0A2.31,2.31,0,0,0,390.93,330.52Z" transform="translate(-313.94 -142.78)"/><path class="079e178a-1f98-4883-83dd-1feb50320465" d="M354.84,370.26l-4.77,1.15-.95.12c-2.27.36-2.84-.66-2.57-2.8.48-3.71.74-7.44,1.1-11.17a1.36,1.36,0,0,0,.34-1.23l.16-1.29.22-.69.77-4.37.21-.62a4.17,4.17,0,0,0,.33-2.22l.29-.81c.24-1.68.64-2.29,2.36-1a34.83,34.83,0,0,0,15.6,7l1.13.33a8.26,8.26,0,0,0,3,.52l.48.05A36.25,36.25,0,0,0,391,351.84c0,2.4,0,4.61,0,6.83,0,.05-.13.11-.13.16a2.17,2.17,0,0,0,.08.38l-.14,1.18-.1,1.91a152.85,152.85,0,0,0,0,17.56l.07,1.41.15,1.18c0,.05-.12.12-.11.16a2.16,2.16,0,0,0,.17.34c-.15,3.51.47,7,.69,10.45.05.79.54,1.69-.66,2.06l-.72.3a9.23,9.23,0,0,0-3.28.68l-.83.28-5.7.81a1.15,1.15,0,0,0-1.16.24,16.34,16.34,0,0,0-4.79.52.91.91,0,0,0-1,0h-8.49l-1.51,0a16.81,16.81,0,0,0-5.34-.5l-1.13-.28c-3.18-1.31-6.64-2.06-9.15-4.68a2.06,2.06,0,0,0-.35-1.56c-.21-4.4-1.05-8.75-1.16-13.17-.05-2.09.27-3.31,2.69-3a6.83,6.83,0,0,0,2-.35l.74-.29c1.7.09,3.2-.67,4.75-1.18l.76-.32a1.57,1.57,0,0,0,1.3-.38l.43-.19a55,55,0,0,0,12-5.22l.2-.05.05-.2a1.54,1.54,0,0,0,0-2.05l-.29-.29a1.88,1.88,0,0,0-2-.08l-.63.35-10.86,4.59-.85.35-1.16.22Z" transform="translate(-313.94 -142.78)"/><path class="578546b8-ab4d-4ab5-bb5b-6cfa2daccf2b" d="M345.75,349.82c-.69,3.55-1.67,7.05-1.76,10.7l-.22.8-.92,9.09c-2-1.32-2.19-3.22-2.18-5.08,0-5.87,2.23-11.19,4.42-16.49h.5Z" transform="translate(-313.94 -142.78)"/><path class="042af950-e88e-462b-92ff-8be22295aa3e" d="M345.58,348.84h-.5c-.09-1.21.53-2.15,1.36-3.45C346.45,346.87,346.66,348,345.58,348.84Z" transform="translate(-313.94 -142.78)"/><path class="042af950-e88e-462b-92ff-8be22295aa3e" d="M363.58,398.28l1.51,0C364.56,399,364.06,399,363.58,398.28Z" transform="translate(-313.94 -142.78)"/><path class="042af950-e88e-462b-92ff-8be22295aa3e" d="M373.57,398.32a.91.91,0,0,1,1,0C374.27,398.82,373.93,398.85,373.57,398.32Z" transform="translate(-313.94 -142.78)"/><path class="042af950-e88e-462b-92ff-8be22295aa3e" d="M390.72,362.31l.1-1.91A1.55,1.55,0,0,1,390.72,362.31Z" transform="translate(-313.94 -142.78)"/><path class="042af950-e88e-462b-92ff-8be22295aa3e" d="M347.61,391.25a2.06,2.06,0,0,1,.35,1.56C347.47,392.38,347.59,391.81,347.61,391.25Z" transform="translate(-313.94 -142.78)"/><path class="042af950-e88e-462b-92ff-8be22295aa3e" d="M390.82,381.28l-.07-1.41A1,1,0,0,1,390.82,381.28Z" transform="translate(-313.94 -142.78)"/><path class="042af950-e88e-462b-92ff-8be22295aa3e" d="M349.12,371.54l.95-.12C349.8,371.84,349.49,371.89,349.12,371.54Z" transform="translate(-313.94 -142.78)"/><path class="042af950-e88e-462b-92ff-8be22295aa3e" d="M357.11,397.5l1.13.28Z" transform="translate(-313.94 -142.78)"/><path class="042af950-e88e-462b-92ff-8be22295aa3e" d="M379.38,397.77a1.15,1.15,0,0,1,1.16-.24Z" transform="translate(-313.94 -142.78)"/><path class="042af950-e88e-462b-92ff-8be22295aa3e" d="M371.21,285.88a.9.9,0,0,1-1,.09Z" transform="translate(-313.94 -142.78)"/><path class="042af950-e88e-462b-92ff-8be22295aa3e" d="M341.2,312l-.1.92Z" transform="translate(-313.94 -142.78)"/><path class="042af950-e88e-462b-92ff-8be22295aa3e" d="M345.75,349.82l-.17-1C346.06,349.09,346.13,349.41,345.75,349.82Z" transform="translate(-313.94 -142.78)"/><path class="042af950-e88e-462b-92ff-8be22295aa3e" d="M369.06,352.71l-1.13-.33A1.17,1.17,0,0,1,369.06,352.71Z" transform="translate(-313.94 -142.78)"/><path class="042af950-e88e-462b-92ff-8be22295aa3e" d="M348,356.35a1.36,1.36,0,0,1-.34,1.23A1.22,1.22,0,0,1,348,356.35Z" transform="translate(-313.94 -142.78)"/><path class="042af950-e88e-462b-92ff-8be22295aa3e" d="M410.52,323.18l-.08-.18.14-.16A1.11,1.11,0,0,1,410.52,323.18Z" transform="translate(-313.94 -142.78)"/><path class="042af950-e88e-462b-92ff-8be22295aa3e" d="M341.11,318.25a1.87,1.87,0,0,1,.14.3s-.06.09-.09.14A.92.92,0,0,1,341.11,318.25Z" transform="translate(-313.94 -142.78)"/><path class="042af950-e88e-462b-92ff-8be22295aa3e" d="M354.84,370.26l.73-.32Z" transform="translate(-313.94 -142.78)"/><path class="042af950-e88e-462b-92ff-8be22295aa3e" d="M365.07,286.83l-.16.15-.2-.07A1,1,0,0,1,365.07,286.83Z" transform="translate(-313.94 -142.78)"/><path class="042af950-e88e-462b-92ff-8be22295aa3e" d="M380,286l-.57-.08Z" transform="translate(-313.94 -142.78)"/><path class="042af950-e88e-462b-92ff-8be22295aa3e" d="M356.73,369.72l.85-.35Z" transform="translate(-313.94 -142.78)"/><path class="042af950-e88e-462b-92ff-8be22295aa3e" d="M371.1,364.52l.29.29A.54.54,0,0,1,371.1,364.52Z" transform="translate(-313.94 -142.78)"/><path class="042af950-e88e-462b-92ff-8be22295aa3e" d="M368.44,364.78l.63-.35Z" transform="translate(-313.94 -142.78)"/><path class="042af950-e88e-462b-92ff-8be22295aa3e" d="M343.76,361.31l.22-.8Z" transform="translate(-313.94 -142.78)"/><path class="042af950-e88e-462b-92ff-8be22295aa3e" d="M391,382.95a2.16,2.16,0,0,1-.17-.34s.07-.1.11-.16Z" transform="translate(-313.94 -142.78)"/><path class="042af950-e88e-462b-92ff-8be22295aa3e" d="M391,359.21a2.17,2.17,0,0,1-.08-.38c0-.05.08-.11.13-.16Z" transform="translate(-313.94 -142.78)"/><path class="042af950-e88e-462b-92ff-8be22295aa3e" d="M351.84,374.41l-.74.29Z" transform="translate(-313.94 -142.78)"/><path class="042af950-e88e-462b-92ff-8be22295aa3e" d="M357.35,372.91l-.76.32Z" transform="translate(-313.94 -142.78)"/><path class="042af950-e88e-462b-92ff-8be22295aa3e" d="M348.37,354.37l-.22.69Z" transform="translate(-313.94 -142.78)"/><path class="042af950-e88e-462b-92ff-8be22295aa3e" d="M390.34,395.76l.72-.3Z" transform="translate(-313.94 -142.78)"/><path class="042af950-e88e-462b-92ff-8be22295aa3e" d="M371.35,366.86l-.05.2-.2.05A.51.51,0,0,1,371.35,366.86Z" transform="translate(-313.94 -142.78)"/><path class="042af950-e88e-462b-92ff-8be22295aa3e" d="M350,346.35l-.29.81Z" transform="translate(-313.94 -142.78)"/><path class="042af950-e88e-462b-92ff-8be22295aa3e" d="M349.34,349.38l-.21.62Z" transform="translate(-313.94 -142.78)"/><path class="042af950-e88e-462b-92ff-8be22295aa3e" d="M371.22,349.77a.24.24,0,0,1,.4.05A1,1,0,0,1,371.22,349.77Z" transform="translate(-313.94 -142.78)"/><path class="042af950-e88e-462b-92ff-8be22295aa3e" d="M359.08,372.34l-.43.19A.76.76,0,0,1,359.08,372.34Z" transform="translate(-313.94 -142.78)"/><path class="042af950-e88e-462b-92ff-8be22295aa3e" d="M372.57,353.29l-.48-.05C372.28,353,372.44,353,372.57,353.29Z" transform="translate(-313.94 -142.78)"/><path class="042af950-e88e-462b-92ff-8be22295aa3e" d="M386.23,396.72l.83-.28Z" transform="translate(-313.94 -142.78)"/><path class="24df0ff9-242b-45a1-9a69-349735a5c72e" d="M449,310.83h-9c-2.76,0-2.88-.08-1.94-2.76a30.47,30.47,0,0,1,15-17.65c11.26-5.84,23.26-6.48,34.77-1.71,18.09,7.5,23.74,26.48,14,43.89-5.91,10.61-15.47,15.34-26.9,17.21-10,1.64-19.39,0-27-7.08-8.36-7.72-12.18-17.44-10.94-29,.16-1.5.62-2,2.12-1.9,3.3.11,6.61,0,9.92,0Zm-6.41,2.64a4.66,4.66,0,0,0-4.68,4.55,4.92,4.92,0,0,0,4.83,5,4.65,4.65,0,0,0,4.59-4.86A4.57,4.57,0,0,0,442.55,313.47Zm24-.79a4.56,4.56,0,0,0-4.91,4.53c0,2.64,2.14,5.05,4.53,5a5.06,5.06,0,0,0,5-5A4.53,4.53,0,0,0,466.53,312.68Zm6.8-1.39,0-.72a75.4,75.4,0,0,0-13.2.09v.63Zm-20.93,15.23c4.43,1.38,9,.53,13.45.7C461.44,325.61,456.89,326.73,452.41,326.52Z" transform="translate(-313.94 -142.78)"/><path class="5509085f-601d-40aa-944c-f5f60bb0bdd6" d="M501,374.75c-.24,4.72-.55,10.86-1.41,17a3.49,3.49,0,0,1-1.94,2.65c-5.41,3.37-11.49,3.69-17.57,3.86a90.22,90.22,0,0,1-22.24-2.47c-1.66-.37-2.29-1-2.1-2.87,1.29-13.09,2-26.21.45-39.34-.23-1.93.63-1.53,1.81-1.22,13.55,3.52,26,1,37.42-7,1.08-.76,1.62-1,1.94.59C499.18,355,501.05,364,501,374.75Z" transform="translate(-313.94 -142.78)"/><path class="c60b7848-61b0-4fe6-8947-becf622b3e32" d="M474.81,190.42c-2.66,0-4.3-1.63-4.33-4.36a6.26,6.26,0,0,1,6.11-6,4.43,4.43,0,0,1,4.4,4.47C481.06,187.64,478.17,190.39,474.81,190.42Z" transform="translate(-313.94 -142.78)"/><path class="c60b7848-61b0-4fe6-8947-becf622b3e32" d="M424.6,204.91c.29-.65-.91-2.11.94-2.1s4.21-.56,5.33,1.63c.78,1.53-.84,2.06-1.79,2.77a1.67,1.67,0,0,1-.23.1C425,209.35,424.85,209.3,424.6,204.91Z" transform="translate(-313.94 -142.78)"/><path class="578546b8-ab4d-4ab5-bb5b-6cfa2daccf2b" d="M503.24,186c-.1-1.24-.26-2.37-.27-3.51,0-1-1.05-2.36,1.07-2.55,2.55-.23,5.15.72,5.32,2.13a1.87,1.87,0,0,1-1.07,1.81A12.89,12.89,0,0,1,503.24,186Z" transform="translate(-313.94 -142.78)"/><path class="578546b8-ab4d-4ab5-bb5b-6cfa2daccf2b" d="M389.59,228.34c-.09-.87-.37-2.15,1.55-1.92s4.21-.34,4.9,2.27c.29,1.1-3.24,3.47-5.17,3.63C389.92,232.4,389.77,231.95,389.59,228.34Z" transform="translate(-313.94 -142.78)"/><path class="578546b8-ab4d-4ab5-bb5b-6cfa2daccf2b" d="M404.46,228.89c.37-.69-1.18-2.05.75-2.46s5.11.56,5.58,1.81a1.45,1.45,0,0,1-.57,1.75,10.07,10.07,0,0,1-1.88,1.2C404.85,233,404.85,233,404.46,228.89Z" transform="translate(-313.94 -142.78)"/><path class="c60b7848-61b0-4fe6-8947-becf622b3e32" d="M330.07,207a1.18,1.18,0,0,1,0-.25c.19-1.1-.86-2.69.23-3.21,1.4-.68,2.86.38,4.06,1.3,1.7,1.3,2.79,3,2.15,5.16s-2.62,2.25-4.42,2.62c-1.23.25-1.62-.25-1.67-1.4-.06-1.41-.26-2.81-.39-4.21Z" transform="translate(-313.94 -142.78)"/><path class="c60b7848-61b0-4fe6-8947-becf622b3e32" d="M505.68,206.07c-.2-3.09.15-3.33,2.67-2.29a7,7,0,0,1,3.11,2.38c1,1.44,1.54,3,.43,4.6s-3.1,1.79-4.92,1.84c-1,0-.79-.88-.84-1.5-.08-.91-.11-1.82-.19-2.72S505.74,206.57,505.68,206.07Z" transform="translate(-313.94 -142.78)"/><path class="578546b8-ab4d-4ab5-bb5b-6cfa2daccf2b" d="M484.48,208.3c-1.69-.12-3.47,1.47-4.13-.12-.36-.87-.64-3.86,1.59-4C484.34,204.08,483.22,206.87,484.48,208.3Z" transform="translate(-313.94 -142.78)"/><path class="519d8c37-57c8-44aa-9d25-c2dae44dc895" d="M427,232.4c-.89.27-1.74.47-1.42-.65.39-1.36-.53-3.6,1.65-3.85s1.87,2.14,2.07,3.28C429.61,233,427.57,231.85,427,232.4Z" transform="translate(-313.94 -142.78)"/><path class="519d8c37-57c8-44aa-9d25-c2dae44dc895" d="M345.86,208.76c-1.3.3-1.49-.35-1.23-1.06.49-1.32-.29-3.73,2-3.59,1.66.11,1.76,2.38,1.78,3.6S346.52,208.31,345.86,208.76Z" transform="translate(-313.94 -142.78)"/><path class="519d8c37-57c8-44aa-9d25-c2dae44dc895" d="M377.53,232.48c-1.09.28-1.48,0-1.16-.8.55-1.3-.5-3.64,1.73-3.78,2-.13,1.89,2.17,2,3.34C380.21,233.19,378,231.63,377.53,232.48Z" transform="translate(-313.94 -142.78)"/><path class="519d8c37-57c8-44aa-9d25-c2dae44dc895" d="M350.77,186.09c-1.15.31-1.44-.14-1.21-.83.46-1.35-.42-3.65,1.75-3.8s1.89,2.23,2,3.38C353.48,186.74,351.17,185.11,350.77,186.09Z" transform="translate(-313.94 -142.78)"/><path class="519d8c37-57c8-44aa-9d25-c2dae44dc895" d="M414.55,184.87c.72-1.05-.47-3.61,2-3.41,1.68.13,1.86,2.43,1.8,3.59-.08,1.39-2,.74-3.13,1.11S414.59,185.53,414.55,184.87Z" transform="translate(-313.94 -142.78)"/><path class="042af950-e88e-462b-92ff-8be22295aa3e" d="M397.06,324.88c-.56,1.19-1.59,2.06-1.49,3.41.07,1-.69.76-1.2.77-4,.06-8,.22-11.94.1-3-.09-4.29-1.92-3.42-4.33.22-.62.34-1,1.16-.86C385.71,325.12,391.35,324.85,397.06,324.88Z" transform="translate(-313.94 -142.78)"/><path class="46102854-9dfd-4d8b-ab49-f0869a38fb26" d="M381.62,312.19a4.55,4.55,0,0,1,4.86,4.56c0,2.6-2.24,5-4.6,5a5,5,0,0,1-4.88-5A4.47,4.47,0,0,1,381.62,312.19Z" transform="translate(-313.94 -142.78)"/><path class="85cd1252-a2ce-4d85-b185-ba7b223909ed" d="M372.72,310.43a58.76,58.76,0,0,1,12.93-3.55C383.85,308.54,375.48,310.85,372.72,310.43Z" transform="translate(-313.94 -142.78)"/><path class="85cd1252-a2ce-4d85-b185-ba7b223909ed" d="M390.93,330.52a2.31,2.31,0,0,1-1.9.69c-.72.05-1.44,0-2.38,0C388,330.08,389.34,330.3,390.93,330.52Z" transform="translate(-313.94 -142.78)"/><path class="46102854-9dfd-4d8b-ab49-f0869a38fb26" d="M442.55,313.47a4.57,4.57,0,0,1,4.74,4.7A4.65,4.65,0,0,1,442.7,323a4.92,4.92,0,0,1-4.83-5A4.66,4.66,0,0,1,442.55,313.47Z" transform="translate(-313.94 -142.78)"/><path class="46102854-9dfd-4d8b-ab49-f0869a38fb26" d="M466.53,312.68a4.53,4.53,0,0,1,4.57,4.61,5.06,5.06,0,0,1-5,5c-2.39,0-4.57-2.39-4.53-5A4.56,4.56,0,0,1,466.53,312.68Z" transform="translate(-313.94 -142.78)"/><path class="80d4c72c-0a7e-4d11-a19e-4f535530deb6" d="M473.34,311.29H460.19v-.63a75.4,75.4,0,0,1,13.2-.09Z" transform="translate(-313.94 -142.78)"/><path class="d4690d24-9a8e-41d7-a8c4-5a5aa12cacde" d="M452.41,326.52c4.49.21,9-.91,13.45.7C461.37,327,456.84,327.9,452.41,326.52Z" transform="translate(-313.94 -142.78)"/></svg>