<svg id="4816e34c-01d2-4658-b629-84317b35feac" data-name="Capa 1" xmlns="http://www.w3.org/2000/svg" viewBox="0 0 213.62 309.59"><defs><style>.bf03253a-301c-4949-81f7-40986874793b{fill:#080908;}.db83bfc3-ebe2-47c7-9472-38720e2536fd{fill:#fdfdfd;}.b2eb4ad4-d5cf-4b3b-8d79-aea1a72faf8c{fill:#161714;}.\36 5402a9e-5bd3-4bde-a525-6b52ecb420fd{fill:#202020;}.\32 eb4f9af-dcba-481b-af39-3545611ed926{fill:#1d1d1e;}.da1ba2f2-0007-4492-8ec3-90318f36079f{fill:#222323;}.\34 7328a7f-2b2e-40e7-9dce-8182182cb851{fill:#f7cca0;}.\32 1f2104f-0b57-458e-8846-aa03a0136c9c{fill:#509441;}.c4053ee6-3f70-4631-9679-8a5ee1237e94{fill:#95b4c7;}.a67d1d9a-0863-4992-804c-7d39db5fe34a{fill:#92afc1;}.\36 3809fd4-57a9-4ec9-92cf-7418fc99c26c{fill:#f0f0f0;}.b893d7b0-af5b-4196-a28c-0a9e1bad4efd{fill:#f8f8f8;}.\35 1f7c14d-bcb5-4ee8-963c-78a968d1f3d3{fill:#eae9e9;}.ef462f19-c072-4a7e-9b43-cfddf9a17793{fill:#19130c;}.e82f323d-dbca-46c8-8fc1-c847e6d9b49c{fill:#172b16;}</style></defs><title>card-14</title><path class="bf03253a-301c-4949-81f7-40986874793b" d="M329.31,355.07q0-71.36,0-142.73c0-1.08,0-2.17.08-3.25.37-5,3.6-8.25,8.66-8.59,1.41-.1,2.83-.08,4.25-.08H530c10.45,0,12.89,2.47,12.89,13q0,142.35,0,284.71c0,.92,0,1.84,0,2.75-.52,6.12-3.78,9.13-9.93,9.13H339.47c-6.47,0-9.87-3.27-10.15-9.71,0-.83,0-1.67,0-2.5Q329.31,426.43,329.31,355.07Zm4.14-.1q0,72.12,0,144.24c0,4.73,2,6.7,6.65,6.7h192c4.56,0,6.39-1.72,6.62-6.21,0-.75,0-1.5,0-2.25q0-142.49,0-285c0-.67,0-1.33,0-2-.19-3.84-1.82-5.53-5.7-5.86-.91-.08-1.83-.08-2.75-.08H342a26.74,26.74,0,0,0-4,.2c-3,.45-4.31,1.94-4.55,5-.07.91,0,1.83,0,2.75Q333.44,283.73,333.44,355Z" transform="translate(-329.3 -200.42)"/><path class="db83bfc3-ebe2-47c7-9472-38720e2536fd" d="M333.44,355q0-71.24,0-142.49c0-.92,0-1.84,0-2.75.24-3.06,1.56-4.55,4.55-5a26.74,26.74,0,0,1,4-.2H530.25c.92,0,1.84,0,2.75.08,3.88.33,5.51,2,5.7,5.86,0,.67,0,1.33,0,2q0,142.49,0,285c0,.75,0,1.5,0,2.25-.23,4.5-2.06,6.21-6.62,6.21h-192c-4.7,0-6.65-2-6.65-6.7Q333.44,427.09,333.44,355ZM438.2,401.28c-.15,3.84.8,7.74.05,11.39a121.62,121.62,0,0,0-2,30.79c.22,4.28,1.42,7.33,5.42,8.73,3.22,1.12,3.43,3.22,3.25,6.14-.66,10.55,1.43,20.69,5,30.55.45,1.24,1.14,2.12,2.56,1.63s1.16-1.65.85-2.73c-.16-.56-.42-1.08-.61-1.63a73.84,73.84,0,0,1-4.37-28.67c.1-1.85.58-2.14,2.33-1.77a75.58,75.58,0,0,0,21.1,1.4c1.6-.12,2,.47,2.11,1.9a59.71,59.71,0,0,0,4.14,16.13,47.81,47.81,0,0,0,8.29,13.56c.73.83,1.47,1.34,2.59.79a1.53,1.53,0,0,0,.91-1.63c-.1-.88-.84-1.41-1.36-2-6.5-8-9.68-17.32-11.09-27.39-.19-1.38.12-1.9,1.6-2,2-.17,3.91-.77,5.88-1s2.77-1.21,2.68-3.33c-.2-5-.1-10-.21-15,0-1.51.29-2.44,1.9-3a9.53,9.53,0,0,0,5.3-4.32c2.3-3.85,1.59-7.67,0-11.48-.77-1.83-2.77-4.09-2.24-5.27.66-1.47,3.38-2,5.17-3,14.43-8,21.34-22,17.46-37.22-4.45-17.48-17-27.33-33.83-30.82-21.11-4.38-37,8.91-41.23,27.67a36.84,36.84,0,0,0,.3,17.62c-1.55,0-2.85.07-4.14,0-1.85-.13-3.7-.13-4.16,2.11-.4,1.93-.66,4.08,1.87,5,.81.29.49.66.28,1.09a23,23,0,0,1-9.25,10.17c-.89-2.57-1.64-4.94-2.53-7.25a1.42,1.42,0,0,1,.37-1.74c5.75-6.22,8.13-13.75,8.63-22.06.77-12.95-6.58-30.23-23.59-35.64-13.83-4.39-26.27-.79-37.81,7-9.41,6.38-15.07,15.23-15.82,26.72-.85,12.9,5.2,22.53,15.19,30a8.45,8.45,0,0,1,3.33,4.67c4.48,15.2,6.16,30.81,6.84,46.55.09,2.1.73,3.28,2.81,3.66.73.13,1.4.59,2.13.68,1.48.18,1.58,1,1.42,2.25a81.11,81.11,0,0,1-8.17,26.56c-.66,1.32-2.64,3.08-.46,4.29,2.48,1.38,3-1.36,3.71-2.82a77.37,77.37,0,0,0,8.26-26.77c.2-1.9.83-2.39,2.74-2.24,4.26.32,8.45-.53,12.62-1.32a105.06,105.06,0,0,0,16.21-4.64,2.69,2.69,0,0,1,.26.6c1,11.69.68,23.29-2.77,34.63-.35,1.15-.47,2.24.88,2.67s2.18-.32,2.48-1.69c.12-.57.35-1.11.51-1.67,3-10.3,3.46-20.83,2.58-31.43-.26-3.11-.41-5.72,3.4-6.65,1.61-.39,2.06-1.58,1.8-3.28-1.81-11.69-2.29-23.52-3.92-35.23-.13-1-.17-1.57,1.12-1.53,2.53.06,4.34-1.47,6.1-3S436.36,403.2,438.2,401.28Zm36.06-134.73c.94,2.33,1.69,4.23,2.47,6.12.3.73.41,1.64,1.71,1,1.12-.52,1.24-1,.77-2.09a50.2,50.2,0,0,1-3.35-10.68c-.18-.91-.19-2-1.72-1.93s-1.47,1-1.64,2a24.94,24.94,0,0,1-1.86,6.8c-.65-2.2-1.22-3.93-1.67-5.7-.29-1.12-.56-2-2-2.06s-1.37,1-1.68,1.76a50.74,50.74,0,0,0-2.63,9.86c-.15.86-.39,1.61.93,1.8s1.59-.4,1.75-1.46a22,22,0,0,1,1.66-6.48c.84,2.1,1.57,3.83,2.22,5.58.36,1,1.2,1.1,2,1.2s1-.73,1.25-1.3C473,269.68,473.54,268.33,474.26,266.55ZM351.49,242.21c.92,2.39,1.7,4.45,2.5,6.5.31.8.57,1.47,1.76.87,1-.49,1.18-.89.75-1.87A49.45,49.45,0,0,1,353,236.05c-.19-1.14-.83-1.21-1.75-1.23s-1.22.38-1.38,1.29a31.93,31.93,0,0,1-1.77,7.19c-1.24-2-1.51-4.05-2-6a1.6,1.6,0,0,0-1.65-1.44c-1.07-.09-1.46.42-1.77,1.3a55.16,55.16,0,0,0-2.67,10.1c-.15,1-.5,2,1.13,2.17s1.28-.82,1.45-1.7a24.06,24.06,0,0,1,1.68-6.38c.78,2,1.53,3.7,2.16,5.49.34,1,1,1.18,1.88,1.32,1.13.18,1.18-.71,1.45-1.34C350.28,245.4,350.82,244,351.49,242.21ZM398,250.81c4.86-.06,9-4.06,8.9-8.61a7.18,7.18,0,0,0-7.13-7.17c-4.53,0-8.76,4.18-8.76,8.56A7,7,0,0,0,398,250.81Zm119.67-8.39A7,7,0,0,0,510.8,235c-4.5-.12-8.82,3.92-8.91,8.32-.09,4.21,2.74,7.35,6.7,7.45A8.8,8.8,0,0,0,517.62,242.42Zm-97.84,54.74c4.9.06,9-3.76,9.08-8.38a7.11,7.11,0,0,0-6.95-7.3c-4.55-.06-8.82,3.92-8.94,8.33A6.91,6.91,0,0,0,419.78,297.16ZM361,257.79a8.78,8.78,0,0,0-8.67,8.48c0,4.21,2.9,7.23,6.9,7.2a8.75,8.75,0,0,0,8.82-8.59A6.9,6.9,0,0,0,361,257.79Zm45.29,33.78c.93-.57,1.36-.82,1.77-1.09,1.74-1.15,3.13-2.51,2.68-4.87s-2.18-3.36-4.35-3.85a26.49,26.49,0,0,0-6.45-.19c-1.24,0-1.22.77-1.13,1.69.37,3.8.7,7.6,1,11.4.07.77,0,1.5,1.19,1.38.92-.09,1.67-.14,1.45-1.38-.25-1.42.58-1.2,1.47-1,1.91.53,3.86,1,5.76,1.55.93.29,1.37.07,1.65-.84s.06-1.57-1-1.81S408,292,406.27,291.57Zm41.15,1.82c2.51.64,4.85,1.14,7.12,1.84,1.09.34,1.45,0,1.77-1,.39-1.17-.26-1.47-1.14-1.69l-3.88-1c.8-.54,1.18-.82,1.59-1.07,1.78-1.12,3.15-2.46,2.78-4.82s-2.08-3.41-4.25-3.92a23.75,23.75,0,0,0-6.69-.19c-.81,0-1.14.42-1,1.29q.6,5.94,1.1,11.89c.08.89.29,1.38,1.33,1.25.83-.1,1.49-.19,1.33-1.27A10.82,10.82,0,0,1,447.42,293.39ZM417,243.61a25.92,25.92,0,0,1-5.52-7.45c-.67-1.36-1.79-1-2.79-.91s-.72,1.14-.72,1.81a51.87,51.87,0,0,0,.92,10.15c.15.81,0,2,1.49,1.72s1.32-1.22,1.09-2.33a14,14,0,0,1-.44-5.85c2,2.87,3.88,5.39,5.6,8,.62.93,1.29.83,2.13.64s1.11-.82,1.05-1.67q-.39-5.34-.73-10.68c-.06-1-.26-1.51-1.49-1.31s-1.26.75-1.16,1.7C416.69,239.49,416.86,241.55,417,243.61Zm-62.3,46.26a24.35,24.35,0,0,1-5.51-7.35c-.61-1.25-1.6-1-2.54-.94-1.24,0-.83,1-.84,1.69a41.15,41.15,0,0,0,.87,10.42c.17.71-.18,2,1.47,1.65,1.36-.32,1.4-1,1.11-2.19a22.86,22.86,0,0,1-.77-6.36c2.15,3,4,5.56,5.77,8.15.53.78,1,1.23,2,.94a1.5,1.5,0,0,0,1.23-1.8c-.24-3.57-.42-7.14-.62-10.71,0-.82-.2-1.49-1.32-1.27-.91.18-1.5.36-1.33,1.57C354.54,285.72,354.59,287.8,354.74,289.87ZM424.86,273a33.46,33.46,0,0,0,3.67-.64c4.78-1.37,6.35-6,3.41-10a9.9,9.9,0,0,0-9.32-4.16c-1.4.1-1.85.54-1.69,1.95.38,3.3.8,6.61.86,9.93C421.82,272.4,422.52,273.39,424.86,273Zm-38-38a14.57,14.57,0,0,0-8.06,2.51c-1.35,1-2.4,2.18-2,4s2,2.3,3.62,2.46c1.82.18,3.65.27,5.47.41.4,0,1,.07,1,.56a1.49,1.49,0,0,1-.54,1,8.81,8.81,0,0,1-4.35,1.73c-1.12.18-1,.85-1,1.62,0,1.09.69,1.2,1.52,1a12.62,12.62,0,0,0,5.66-2.47c1.13-.93,2.06-2.08,1.64-3.65a3.31,3.31,0,0,0-3.18-2.39c-1.9-.19-3.81-.29-5.72-.43-.51,0-1.11-.07-1.26-.6s.36-.88.74-1.19a9.62,9.62,0,0,1,6.34-1.83c1.17,0,1.83-.15,1.88-1.55C388.67,234.66,387.51,235.26,386.83,235.08Zm53.37,1.34c.3-1.29-.54-1.31-1.3-1.31a14.11,14.11,0,0,0-8.87,2.74,3.58,3.58,0,0,0-1.61,3.89c.41,1.63,1.8,2.09,3.24,2.25,1.9.22,3.81.28,5.71.44.39,0,.88,0,1,.5s-.23.91-.64,1.21a8.59,8.59,0,0,1-3.9,1.54c-1.22.18-1.46.75-1.23,1.87.27,1.34,1.18.94,1.92.77a12.09,12.09,0,0,0,5.35-2.51c1.05-.92,1.84-2,1.49-3.47a3.24,3.24,0,0,0-3.13-2.43c-1.73-.19-3.48-.26-5.21-.41-.64-.05-1.56.13-1.76-.61s.68-1.22,1.28-1.62a9.77,9.77,0,0,1,6-1.42C439.79,237.91,440.21,237.41,440.2,236.42Zm-73.76,46c-4.05,0-5,.8-5.74,4.69-.51,2.69-1,5.4-1.44,8.1-.14.8-.63,1.64.83,1.75,1.1.08,1.84-.14,1.82-1.37-.07-3.57,2.8-2.79,4.77-3.14,2.2-.39,1.48,1.7,2,2.71s.27,1.9,1.87,1.48,1-1.31.77-2.08c-1.08-3.66-2.23-7.3-3.36-10.94C367.68,282.9,367.48,282.1,366.44,282.42Zm111.07-47.34a14.81,14.81,0,0,0-7.85,2.43c-1.38,1-2.62,2.26-2.09,4.16s2.08,2.23,3.73,2.36,3.49.24,5.23.38c.48,0,1.12,0,1.23.62s-.45.86-.84,1.14a8.58,8.58,0,0,1-3.92,1.52c-1.39.2-1.24,1.09-1.1,2,.19,1.24,1.12.76,1.75.62a12,12,0,0,0,5.39-2.45c1.15-1,1.94-2.12,1.51-3.69a3.16,3.16,0,0,0-3-2.27c-2-.22-4-.31-6-.47-.4,0-.88,0-1.07-.48s.19-.9.58-1.22a9.44,9.44,0,0,1,6.32-1.9c1.27,0,2.12-.16,2-1.7S478.16,235.31,477.51,235.09ZM464,295.6c-.14.74-.1,1.33.89,1.35.83,0,1.57.19,1.79-1.07.16-.92-.16-2.34.84-2.7,1.53-.56,3.27-1.14,4.85-.68,1,.28.92,1.81,1.11,2.83s.51,1.55,1.79,1.32c1.6-.29,1-1.21.8-2-.84-2.95-1.7-5.89-2.62-8.82-1.12-3.58-1.15-3.59-4.83-2.86-1,.19-2.34-.09-2.62,1.37C465.26,288.07,464.63,291.84,464,295.6Zm-21.26-46.7c-.27.93-.33,1.57.71,1.59.8,0,1.68.29,1.92-1,.18-.95-.15-2.38.81-2.73A11.62,11.62,0,0,1,451,246c.93.08.72,1.67,1.07,2.57s.05,2.09,1.76,1.68,1.14-1.31.87-2.24c-.85-2.86-1.69-5.72-2.61-8.56-1.2-3.69-1.23-3.69-5-3-1.2.23-2.39.33-2.62,2C444,242.1,443.28,245.6,442.7,248.89Zm82.53.6c.5,0,1,0,1.5,0,4.26-.15,5.29-1.27,4.87-5.57-.24-2.39-.78-4.75-1.07-7.14-.14-1.16-.53-1.53-1.74-1.42-1.44.12-1,1-.89,1.73.26,1.47.65,2.93.82,4.41.64,5.86,1.06,5.23-4.86,5.44-1.75.06-2.44-.77-2.22-2.45.33-2.56.66-5.11,1-7.66.11-.77.37-1.48-.84-1.59s-1.75,0-1.85,1.33c-.18,2.15-.54,4.29-.74,6.44C518.73,248.34,519.89,249.57,525.23,249.5Zm-149.47,20c-3.9.14-4.15-.14-3.58-4q.45-3.08.85-6.16c.08-.64.31-1.41-.78-1.41-.79,0-1.7-.29-1.84,1-.31,3-1,5.91-.88,8.9.16,3.18,1.09,4.14,4.25,4.35a39.38,39.38,0,0,0,5-.17c2.21-.13,3.21-1.37,3.29-3.56.12-3.2-.71-6.25-1.17-9.37-.17-1.15-.84-1.22-1.79-1.1-1.12.14-1,.75-.84,1.59q.6,2.8,1,5.63C379.91,269.32,379.83,269.4,375.77,269.54Zm78.21-.93c-.27-3.31-.59-6.62-.78-9.93-.07-1.18-.65-1.27-1.6-1.27-1.12,0-1.17.63-1.09,1.46.11,1.07.11,2.17.31,3.22.25,1.34-.16,1.83-1.57,2.06-3.85.61-3.84.7-4.16-3.24,0-.33-.06-.66-.06-1,0-.85.07-1.59-1.25-1.56s-1.45.65-1.36,1.7c.28,3.23.49,6.46.8,9.68.08.84-.29,2.08,1.46,1.94,1.91-.15,1.12-1.39,1.19-2.32s-.67-1.78.73-2.26c3.4-1.17,4.54-.52,4.83,2.92,0,.25,0,.5,0,.75,0,1,.66,1,1.37.87s1.41,0,1.28-1C454,269.94,454,269.28,454,268.61Zm-45.42.17c-.27-3.69-.53-6.67-.68-9.66-.06-1.2-.32-1.84-1.72-1.71-1.62.15-1,1.22-1,2a13.22,13.22,0,0,0,.2,2.49c.32,1.61-.35,2.1-1.9,2.31-3.37.46-3.36.55-3.72-2.91,0-.41-.12-.83-.14-1.24-.06-.91.06-1.78-1.41-1.71s-1.32.9-1.24,1.82c.27,3.15.51,6.3.85,9.44.09.82-.49,2.12,1.32,2.06s1.43-1.28,1.27-2.25c-.27-1.66.19-2.38,2-2.49,3.26-.21,3.25-.32,3.55,2.86,0,.25.06.5.06.75,0,1,.57,1.22,1.49,1.1s1.46-.24,1.21-1.34A9.41,9.41,0,0,1,408.55,268.79Zm5.59,3.18c1.73.3,3.23-.34,4.79-.54,1.21-.15,1.12-.93,1-1.83-.16-1.1-.77-1-1.62-.83s-2,.29-3,.46-1.59,0-1.69-1.17.26-1.52,1.34-1.55,2.32-.23,3.48-.31c1-.07.93-.72.85-1.42s-.18-1.36-1.14-1.25-1.65.22-2.48.28c-1.08.08-2.26.65-2.36-1.39-.09-1.75.5-2.16,2-2.07.82,0,1.66-.16,2.49-.16,1,0,1.17-.57,1.17-1.45s-.47-1.29-1.38-1.22c-1.91.14-3.82.31-5.73.31-1.25,0-1.54.46-1.45,1.64.27,3.23.53,6.48.59,9.72C411.12,271.44,411.72,272.72,414.15,272Zm19.77,9.5c-.83,0-1.66.1-2.5.11-1.14,0-1.62.46-1.5,1.68q.59,5.84,1,11.7c.08,1.1.72,1.11,1.54,1.07s1.38-.22,1.12-1.15c-.67-2.43.63-3.18,2.73-3.49a9.65,9.65,0,0,0,2.79-1c1.56-.78,2.88-1.91,2.71-3.83a4.77,4.77,0,0,0-3-4.25A12.06,12.06,0,0,0,433.92,281.47Zm-44.81,0c-1,.06-2,.1-3,.19-.61.05-1.15.22-1.07,1q.58,6.2,1.13,12.39c.1,1.13.87.95,1.63.94s1.29-.47,1-1.25c-.89-2.62.84-3,2.72-3.39a11.81,11.81,0,0,0,2.77-1.07c1.55-.78,2.81-1.87,2.65-3.82a4.72,4.72,0,0,0-3-4.23A12,12,0,0,0,389.11,281.45ZM372.3,283.7c.38,4,.76,7.58,1,11.14.08,1,.4,1.27,1.36,1.2s1.52-.29,1.26-1.29c-.6-2.29.53-3.09,2.6-3.34a8.76,8.76,0,0,0,2.57-.92c1.74-.82,3.19-1.91,3-4.12a4.83,4.83,0,0,0-3.78-4.42,19.53,19.53,0,0,0-5.44-.45C373,281.47,371.67,281.82,372.3,283.7Zm121.81-2.36v.16a21.54,21.54,0,0,1-2.25,0c-1.83-.19-2.54.35-2.2,2.37a61,61,0,0,1,.38,6.23c.42,6.33,1.11,6.8,7.42,5.18a2.44,2.44,0,0,1,.48-.14c1.21,0,1.18-.75,1.08-1.71-.12-1.17-.8-1-1.57-.93l-3.21.47c-.9.13-1.39-.15-1.43-1.17,0-.87,0-1.47,1.08-1.52s2.16-.22,3.24-.25c.9,0,1.37-.29,1.33-1.31s-.46-1.49-1.53-1.35c-.82.11-1.67,0-2.49.16-1.25.18-1.95,0-2-1.56s.55-2,2-1.92c.83.06,1.67-.08,2.5,0,1,0,1.3-.38,1.25-1.35s-.22-1.41-1.28-1.3A26.25,26.25,0,0,1,494.11,281.33Zm-54.83,26.08a1.15,1.15,0,0,0-1.12-1.3c-1.2,0-1.42,1-1.65,1.85a43.18,43.18,0,0,1-12.76,21c-.85.79-1.81,1.47-2.63,2.29-.45.44-1,1-.41,1.74a1.31,1.31,0,0,0,2,.17c.34-.23.68-.48,1-.75a46.39,46.39,0,0,0,13.12-17.34A39.26,39.26,0,0,0,439.29,307.41Zm-48-33.84a14.74,14.74,0,0,0,4.11-.63c.86-.21,1.49-.51,1.09-1.68s-.79-1.19-1.81-.9a18.68,18.68,0,0,1-3.92.6,4.4,4.4,0,0,1-4.73-2.89,4.08,4.08,0,0,1,1-5,4.52,4.52,0,0,1,5.52-.64c.47.24.86.84,1.53.3,1.07-.86,1.63-1.54,0-2.53a7.31,7.31,0,0,0-8.37.49,6.89,6.89,0,0,0-2.22,8.06C384.6,272.12,387,273.64,391.27,273.57Zm98.32-39.2c-.85.28-1.11.95-1.43,1.49-.46.77.37,1.09.78,1.26,4.55,1.94,5.57,5.61,5.07,10.08a7.52,7.52,0,0,0,.09,1.74c.22,1.82,1.59,1.19,2.44.89.62-.22.3-1.21.24-1.84-.39-4.2-1.2-8.51,3.51-11.11.88-.48.43-1-.08-1.55s-1-1.19-1.77-.33a15.15,15.15,0,0,0-1.27,1.19c-1.45,2-2.93,1.84-4.63.27A26.52,26.52,0,0,0,489.59,234.37Zm-33.78-.11a13.19,13.19,0,0,0-1.22,1.57c-.43.76.31,1.11.76,1.29,4.74,2,5.56,5.85,5.1,10.38a14,14,0,0,0,0,1.5c0,.7.31,1,1,1.08,1.29.1,1.75-.32,1.63-1.69-.35-4.33-1.29-8.88,3.64-11.59.73-.4.33-1-.15-1.38s-.71-1.31-1.57-.63c-.33.26-.61.56-.92.84-2.81,2.54-2.8,2.53-6,.28C457.44,235.37,456.69,234.87,455.81,234.26ZM363.28,250c1.78.22,1.22-1.08,1.24-2,.08-3.88-1.5-8.22,3.16-10.78.84-.46,1.27-1.11.29-2.12s-1.51-.38-2.2.23c-3.06,2.7-3.06,2.69-6.31.38a10.53,10.53,0,0,1-1-.73c-.84-.76-1.44-.77-2.17.26s-.15,1.58.62,1.9c4.49,1.91,5.34,5.59,5,9.91,0,.58.07,1.16,0,1.74C361.85,249.9,362.37,250.19,363.28,250Zm154.79,41.37c-1.27-3.34.45-5.77,3.17-7.78.81-.59,1.1-1.12.27-2s-1.22-.73-2-.05c-3.35,2.79-3.38,2.76-7.06.21l-.4-.29c-.75-.54-1.34-1.1-2.17.12s-.17,1.7.68,2.06c4.4,1.87,5.24,5.48,4.88,9.72,0,.58.08,1.17,0,1.74-.11,1.14.42,1.38,1.46,1.35s1.26-.45,1.21-1.38C518,294,518.08,292.82,518.08,291.41Zm-167.53-32c.11-1.17-.44-1.49-1.64-1.31-2.46.37-4.94.61-7.42.9-1,.12-2,0-1.77,1.65s1.09,1.18,2,1c1.69-.42,2.15.32,2.17,1.91,0,2.41.24,4.81.4,7.22.06.86-.15,1.82,1.36,1.77,1.67-.06,1.34-1.11,1.29-2.06-.12-2.16-.19-4.32-.45-6.46s.07-3.34,2.54-3.21C349.67,260.78,350.85,260.86,350.55,259.39ZM485.5,281.92c-2.1.25-4.33.48-6.55.81-.92.14-2.3-.23-2,1.64s1.45,1.14,2.25,1c1.55-.35,1.79.29,1.82,1.63.06,2.57.34,5.14.44,7.71,0,1,.27,1.48,1.42,1.45s1.33-.58,1.25-1.57c-.19-2.4-.15-4.83-.49-7.21-.29-2,.19-3,2.35-2.87.92,0,2.11.23,1.9-1.47S486.54,281.93,485.5,281.92ZM500.86,290c.44,2-1,5.36,1,6.61s5-.07,7.49-.69c.16,0,.31-.12.47-.17.77-.23,1.42-.45.92-1.53-.38-.83-.61-1.48-1.78-1a22.55,22.55,0,0,1-3.13.77c-1.52.36-2.25-.05-2.27-1.8,0-2.66-.31-5.31-.42-8,0-1-.49-1.24-1.41-1.19s-1.33.45-1.25,1.39C500.61,286.12,500.71,287.87,500.86,290Zm-157.41,2.39h0c-.22-3.06-.46-6.12-.66-9.19-.06-1-.53-1.25-1.45-1.2s-1.37.33-1.29,1.34q.48,6,.89,11.92c.06,1,.47,1.28,1.42,1.2s1.43-.29,1.28-1.33S343.51,293.29,343.44,292.38Zm118.06,2c-.32-4-.63-7.39-.86-10.78-.07-1.06-.28-1.67-1.58-1.57s-1.17.9-1.11,1.73c.3,3.89.63,7.77.91,11.66.06.87.42,1.14,1.25,1.08s1.5-.16,1.39-1.24A4.35,4.35,0,0,1,461.51,294.34Zm-2.18-23.28c-.28-3.72-.61-7.62-.84-11.52-.06-1-.49-1.26-1.39-1.17-.66.07-1.35-.05-1.27,1q.48,6.09.88,12.19c.07,1.06.65,1.11,1.52,1S459.62,272.22,459.33,271.06Zm68.13,16.79h0c-.17-1.81-.37-3.61-.5-5.42-.06-.9-.31-1.36-1.35-1.22s-1.46.38-1.31,1.52c.29,2.29.47,4.6.62,6.9.07,1,.58,1.17,1.47,1.07s1.38-.38,1.18-1.38A11.62,11.62,0,0,1,527.46,287.86Zm-1.13,5.66c-.37.12-1.36-.4-1.24.72.1.89,0,2.13,1.56,1.93.65-.08,1.4.09,1.3-1S527.91,293.27,526.34,293.51Z" transform="translate(-329.3 -200.42)"/><path class="b2eb4ad4-d5cf-4b3b-8d79-aea1a72faf8c" d="M438.2,401.28c-1.84,1.91-3.2,4-5.08,5.69s-3.57,3.08-6.1,3c-1.29,0-1.25.56-1.12,1.53,1.62,11.71,2.1,23.55,3.92,35.23.26,1.7-.19,2.89-1.8,3.28-3.81.92-3.66,3.54-3.4,6.65.89,10.6.38,21.13-2.58,31.43-.16.56-.39,1.1-.51,1.67-.3,1.37-1.08,2.14-2.48,1.69s-1.23-1.53-.88-2.67c3.45-11.34,3.74-22.93,2.77-34.63a2.69,2.69,0,0,0-.26-.6,105.06,105.06,0,0,1-16.21,4.64c-4.17.79-8.36,1.64-12.62,1.32-1.91-.15-2.54.34-2.74,2.24a77.37,77.37,0,0,1-8.26,26.77c-.74,1.46-1.23,4.2-3.71,2.82-2.18-1.21-.19-3,.46-4.29a81.11,81.11,0,0,0,8.17-26.56c.16-1.27.06-2.07-1.42-2.25-.73-.09-1.4-.54-2.13-.68-2.07-.38-2.71-1.56-2.81-3.66-.69-15.74-2.37-31.35-6.84-46.55a8.45,8.45,0,0,0-3.33-4.67c-10-7.48-16-17.1-15.19-30,.76-11.49,6.41-20.33,15.82-26.72,11.53-7.82,24-11.43,37.81-7,17,5.4,24.36,22.69,23.59,35.64-.5,8.32-2.87,15.84-8.63,22.06a1.42,1.42,0,0,0-.37,1.74c.89,2.31,1.65,4.68,2.53,7.25A23,23,0,0,0,434,395.46c.21-.43.53-.8-.28-1.09-2.53-.9-2.27-3.05-1.87-5,.46-2.23,2.32-2.24,4.16-2.11,1.29.09,2.59,0,4.14,0a36.84,36.84,0,0,1-.3-17.62c4.23-18.76,20.11-32.05,41.23-27.67,16.83,3.49,29.38,13.34,33.83,30.82,3.87,15.22-3,29.24-17.46,37.22-1.79,1-4.51,1.51-5.17,3-.53,1.17,1.48,3.44,2.24,5.27,1.6,3.81,2.32,7.64,0,11.48a9.53,9.53,0,0,1-5.3,4.32c-1.61.52-1.93,1.45-1.9,3,.11,5,0,10,.21,15,.08,2.11-.65,3.06-2.68,3.33s-3.91.87-5.88,1c-1.48.13-1.79.65-1.6,2,1.4,10.06,4.58,19.39,11.09,27.39.52.64,1.26,1.17,1.36,2a1.53,1.53,0,0,1-.91,1.63c-1.11.55-1.86,0-2.59-.79a47.81,47.81,0,0,1-8.29-13.56A59.71,59.71,0,0,1,473.91,459c-.16-1.43-.52-2-2.11-1.9a75.58,75.58,0,0,1-21.1-1.4c-1.74-.36-2.22-.08-2.33,1.77a73.84,73.84,0,0,0,4.37,28.67c.19.55.45,1.08.61,1.63.31,1.09.52,2.26-.85,2.73s-2.1-.39-2.56-1.63c-3.61-9.87-5.71-20-5-30.55.18-2.92,0-5-3.25-6.14-4-1.4-5.2-4.45-5.42-8.73a121.62,121.62,0,0,1,2-30.79C439,409,438.05,405.13,438.2,401.28Zm27.43-48.5a9.82,9.82,0,0,1-9.39-.55c-.93-.54-1.52-.87-2.56,0-14.43,12.82-16.54,39.18,3.46,51.75,13.11,8.24,26.42,10.51,40.31,1.9,11.87-7.36,16.75-19.46,14.26-32.43-2.67-13.91-22.61-30.77-40.12-28.67a35.46,35.46,0,0,0-16,5.7A22.73,22.73,0,0,0,465.63,352.78Zm-52.69,10.8c2.56-2.79,5-5.72,7.75-8.31,1.23-1.15.94-1.75.18-2.77-6.07-8-14.41-11.77-24.2-11.83a40.89,40.89,0,0,0-30.93,13.48c-7.93,8.5-10.65,18.87-6.59,30.08,4.81,13.3,20.31,25.59,39.48,21.41,17.25-3.76,27.65-14.05,29-30,.61-7-1.38-13.36-4.51-19.47-.21-.41-.39-1.09-1-.88a2.16,2.16,0,0,0-1,1.09c-.35.73.51.65.78,1s.88.78,1.21,1.24c1.56,2.2.94,4.42-1.57,5.23-1.84.59-3.81,2-5.65.81C415,363.95,414.35,363.39,412.94,363.58Zm27.11,35c.31,3.64.65,7.28.92,10.92.16,2.23.58,4.54.22,6.71a109,109,0,0,0-1.28,28.1,5.34,5.34,0,0,0,2.78,4.56c4.52,2.86,9.55,3.74,14.7,4.28a85.21,85.21,0,0,0,24.62-.73c1.25-.23,2-.64,2-2.25-.17-4.08-.17-8.16-.11-12.24,0-1.58-.5-2.14-2-1.82a29.46,29.46,0,0,1-5.72.41c-1.43,0-2.92-.08-2.92-1.87s1.45-1.71,2.76-1.76c1.91-.08,3.82-.31,5.73-.39,1.61-.06,2.27-.68,2.37-2.42.27-4.48.77-8.95,1.27-13.41.17-1.47.08-1.88-1.71-1.79-15.68.79-28.49-5.07-38.57-17-1-1.24-2.1-2.4-4.12-1.61,3.72,7,4.52,14.51,3.84,22.93C443,411.83,443.53,404.67,440,398.54Zm-64,8.3c1.22,5.27,2.5,10.08,3.43,15A241,241,0,0,1,382.78,452c.06,1-.32,2.15,1.24,2.6,3,.89,6.15,1.91,9.28,1.67a86.4,86.4,0,0,0,31.6-8.44,2,2,0,0,0,1.29-2.5c-.72-5.44-1.26-10.9-1.83-16.36-.54-5.21-1-10.43-1.57-15.64-.12-1.12,0-2.47-2.14-1.76C408.25,415.77,396,415,383.92,410,381.39,409,378.85,408,376,406.84Zm20.1,2.86c5.67,1.89,19.4.79,24.33-1.76.8-.41,1.16-.88.89-1.75-.64-2-1-4.14-2.15-6.11C412.49,405.59,404.66,408.13,396.13,409.7Zm91.4,21.1c5.83-1.79,6.66-7.94,1.39-15.41-.43,4.61-.84,8.94-1.24,13.27C487.62,429.33,487.59,430,487.53,430.8Z" transform="translate(-329.3 -200.42)"/><path class="65402a9e-5bd3-4bde-a525-6b52ecb420fd" d="M474.26,266.55c-.72,1.77-1.24,3.13-1.82,4.47-.25.58-.35,1.42-1.25,1.3s-1.64-.21-2-1.2c-.65-1.76-1.38-3.49-2.22-5.58a22,22,0,0,0-1.66,6.48c-.16,1.06-.49,1.64-1.75,1.46s-1.08-.94-.93-1.8a50.74,50.74,0,0,1,2.63-9.86c.31-.79.3-1.82,1.68-1.76s1.72.95,2,2.06c.45,1.76,1,3.5,1.67,5.7a24.94,24.94,0,0,0,1.86-6.8c.17-1,.13-2,1.64-2s1.54,1,1.72,1.93a50.2,50.2,0,0,0,3.35,10.68c.48,1.08.36,1.57-.77,2.09-1.3.6-1.4-.31-1.71-1C475.95,270.78,475.19,268.88,474.26,266.55Z" transform="translate(-329.3 -200.42)"/><path class="2eb4f9af-dcba-481b-af39-3545611ed926" d="M351.49,242.21c-.68,1.74-1.21,3.19-1.81,4.61-.27.63-.32,1.52-1.45,1.34-.88-.14-1.54-.36-1.88-1.32-.63-1.79-1.38-3.54-2.16-5.49a24.06,24.06,0,0,0-1.68,6.38c-.17.88,0,1.86-1.45,1.7s-1.28-1.2-1.13-2.17a55.16,55.16,0,0,1,2.67-10.1c.31-.87.7-1.39,1.77-1.3A1.6,1.6,0,0,1,346,237.3c.52,1.94.79,4,2,6a31.93,31.93,0,0,0,1.77-7.19c.15-.91.41-1.31,1.38-1.29s1.56.08,1.75,1.23a49.45,49.45,0,0,0,3.53,11.65c.43,1,.22,1.38-.75,1.87-1.18.6-1.45-.07-1.76-.87C353.19,246.66,352.41,244.61,351.49,242.21Z" transform="translate(-329.3 -200.42)"/><path class="da1ba2f2-0007-4492-8ec3-90318f36079f" d="M398,250.81a7,7,0,0,1-7-7.23c0-4.38,4.23-8.52,8.76-8.56a7.18,7.18,0,0,1,7.13,7.17C407,246.75,402.82,250.74,398,250.81Zm6.16-8.51a4.33,4.33,0,0,0-4.47-4.58,6.44,6.44,0,0,0-6,5.86,4.14,4.14,0,0,0,4.25,4.47A6,6,0,0,0,404.11,242.3Z" transform="translate(-329.3 -200.42)"/><path class="2eb4f9af-dcba-481b-af39-3545611ed926" d="M517.62,242.42a8.8,8.8,0,0,1-9,8.38c-4-.1-6.79-3.24-6.7-7.45.09-4.41,4.41-8.44,8.91-8.32A7,7,0,0,1,517.62,242.42ZM515,242.2a4.31,4.31,0,0,0-4.33-4.49c-3.13,0-6.2,3-6.16,6a4.08,4.08,0,0,0,4.36,4.36A6,6,0,0,0,515,242.2Z" transform="translate(-329.3 -200.42)"/><path class="65402a9e-5bd3-4bde-a525-6b52ecb420fd" d="M419.78,297.16a6.91,6.91,0,0,1-6.81-7.35c.11-4.41,4.38-8.39,8.94-8.33a7.11,7.11,0,0,1,6.95,7.3C428.82,293.39,424.68,297.21,419.78,297.16Zm.31-2.67a6,6,0,0,0,6-6,4.36,4.36,0,0,0-4.42-4.41c-3.12,0-6.17,3.09-6.07,6.08A4.17,4.17,0,0,0,420.09,294.49Z" transform="translate(-329.3 -200.42)"/><path class="2eb4f9af-dcba-481b-af39-3545611ed926" d="M361,257.79a6.9,6.9,0,0,1,7,7.1,8.75,8.75,0,0,1-8.82,8.59c-4,0-6.9-3-6.9-7.2A8.78,8.78,0,0,1,361,257.79Zm-6.05,8.63a4.18,4.18,0,0,0,4.35,4.42c3.31-.06,6.21-2.89,6.14-6a4.29,4.29,0,0,0-4.64-4.41A6.2,6.2,0,0,0,354.93,266.42Z" transform="translate(-329.3 -200.42)"/><path class="2eb4f9af-dcba-481b-af39-3545611ed926" d="M406.27,291.57c1.72.44,2.89.77,4.08,1s1.3.81,1,1.81-.71,1.13-1.65.84c-1.9-.58-3.84-1-5.76-1.55-.9-.25-1.72-.47-1.47,1,.22,1.24-.53,1.29-1.45,1.38-1.17.12-1.12-.61-1.19-1.38-.33-3.8-.66-7.6-1-11.4-.09-.92-.11-1.66,1.13-1.69a26.49,26.49,0,0,1,6.45.19c2.17.49,3.89,1.44,4.35,3.85s-.94,3.72-2.68,4.87C407.63,290.75,407.21,291,406.27,291.57ZM403.82,284c-1,.26-2.67-.5-2.21,1.41.37,1.52-.67,3.76,1.2,4.44,1.49.55,5.44-2.36,5.26-3.44C407.66,283.89,405.44,284.41,403.82,284Z" transform="translate(-329.3 -200.42)"/><path class="2eb4f9af-dcba-481b-af39-3545611ed926" d="M447.42,293.39a10.82,10.82,0,0,0,0,1.38c.16,1.08-.5,1.17-1.33,1.27-1,.13-1.25-.36-1.33-1.25q-.5-6-1.1-11.89c-.09-.88.24-1.25,1-1.29a23.75,23.75,0,0,1,6.69.19c2.17.51,3.87,1.48,4.25,3.92s-1,3.7-2.78,4.82c-.4.25-.79.53-1.59,1.07l3.88,1c.88.22,1.54.52,1.14,1.69-.32,1-.68,1.29-1.77,1C452.27,294.53,449.94,294,447.42,293.39Zm1.39-9.38c-.91.31-2.6-.59-2.26,1.36.27,1.55-.65,3.71,1.16,4.52,1.3.58,5.42-2.35,5.29-3.4C452.67,283.9,450.43,284.44,448.82,284Z" transform="translate(-329.3 -200.42)"/><path class="da1ba2f2-0007-4492-8ec3-90318f36079f" d="M417,243.61c-.19-2.06-.35-4.13-.57-6.19-.1-.95,0-1.51,1.16-1.7s1.43.34,1.49,1.31q.33,5.34.73,10.68c.06.85-.13,1.46-1.05,1.67s-1.51.3-2.13-.64c-1.72-2.61-3.58-5.13-5.6-8a14,14,0,0,0,.44,5.85c.23,1.11.55,2.08-1.09,2.33s-1.34-.91-1.49-1.72a51.87,51.87,0,0,1-.92-10.15c0-.67-.39-1.68.72-1.81s2.12-.45,2.79.91A25.92,25.92,0,0,0,417,243.61Z" transform="translate(-329.3 -200.42)"/><path class="2eb4f9af-dcba-481b-af39-3545611ed926" d="M354.74,289.87c-.15-2.07-.2-4.15-.49-6.2-.17-1.21.43-1.39,1.33-1.57,1.11-.22,1.27.45,1.32,1.27.2,3.57.38,7.14.62,10.71a1.5,1.5,0,0,1-1.23,1.8c-1,.3-1.48-.16-2-.94-1.76-2.59-3.61-5.12-5.77-8.15a22.86,22.86,0,0,0,.77,6.36c.29,1.15.25,1.87-1.11,2.19-1.65.39-1.29-.94-1.47-1.65a41.15,41.15,0,0,1-.87-10.42c0-.64-.4-1.66.84-1.69.94,0,1.93-.31,2.54.94A24.35,24.35,0,0,0,354.74,289.87Z" transform="translate(-329.3 -200.42)"/><path class="2eb4f9af-dcba-481b-af39-3545611ed926" d="M424.86,273c-2.34.35-3-.64-3.07-2.93-.06-3.31-.49-6.63-.86-9.93-.16-1.4.29-1.85,1.69-1.95a9.9,9.9,0,0,1,9.32,4.16c2.94,4,1.38,8.64-3.41,10A33.46,33.46,0,0,1,424.86,273Zm-.86-8.81c.11,1.15.27,3,.44,4.79,0,.47,0,1.16.61,1.18a6.35,6.35,0,0,0,4.66-1.32c1.24-1.1,1.18-2.51.67-3.9a6.33,6.33,0,0,0-3.23-3.32C424.53,260.27,423.85,260.69,424,264.23Z" transform="translate(-329.3 -200.42)"/><path class="da1ba2f2-0007-4492-8ec3-90318f36079f" d="M386.83,235.08c.69.18,1.85-.42,1.79,1.23,0,1.4-.71,1.57-1.88,1.55a9.62,9.62,0,0,0-6.34,1.83c-.39.3-.9.64-.74,1.19s.76.57,1.26.6c1.91.14,3.82.24,5.72.43a3.31,3.31,0,0,1,3.18,2.39c.42,1.57-.51,2.72-1.64,3.65a12.62,12.62,0,0,1-5.66,2.47c-.83.17-1.49.05-1.52-1,0-.77-.16-1.44,1-1.62a8.81,8.81,0,0,0,4.35-1.73,1.49,1.49,0,0,0,.54-1c0-.49-.57-.53-1-.56-1.82-.15-3.65-.23-5.47-.41-1.63-.16-3.2-.58-3.62-2.46s.65-3,2-4A14.57,14.57,0,0,1,386.83,235.08Z" transform="translate(-329.3 -200.42)"/><path class="da1ba2f2-0007-4492-8ec3-90318f36079f" d="M440.2,236.42c0,1-.41,1.49-1.64,1.44a9.77,9.77,0,0,0-6,1.42c-.6.4-1.52.76-1.28,1.62s1.11.55,1.76.61c1.74.15,3.48.22,5.21.41a3.24,3.24,0,0,1,3.13,2.43c.35,1.45-.44,2.55-1.49,3.47a12.09,12.09,0,0,1-5.35,2.51c-.74.17-1.65.57-1.92-.77-.23-1.12,0-1.69,1.23-1.87a8.59,8.59,0,0,0,3.9-1.54c.4-.3.83-.62.64-1.21s-.65-.47-1-.5c-1.9-.16-3.82-.23-5.71-.44-1.44-.16-2.83-.62-3.24-2.25a3.58,3.58,0,0,1,1.61-3.89,14.11,14.11,0,0,1,8.87-2.74C439.66,235.11,440.5,235.13,440.2,236.42Z" transform="translate(-329.3 -200.42)"/><path class="2eb4f9af-dcba-481b-af39-3545611ed926" d="M366.44,282.42c1-.33,1.24.48,1.46,1.2,1.14,3.64,2.28,7.28,3.36,10.94.23.77.77,1.67-.77,2.08s-1.46-.61-1.87-1.48.24-3.11-2-2.71c-2,.35-4.84-.43-4.77,3.14,0,1.23-.72,1.45-1.82,1.37-1.45-.11-1-1-.83-1.75.49-2.7.93-5.4,1.44-8.1C361.44,283.23,362.39,282.47,366.44,282.42Zm-3.37,7.86c4.25-.7,4.45-1,2.9-4.07a1.15,1.15,0,0,0-1.33-.77c-.62.07-1.15.24-1.18,1C363.4,287.65,362.72,288.81,363.07,290.29Z" transform="translate(-329.3 -200.42)"/><path class="da1ba2f2-0007-4492-8ec3-90318f36079f" d="M477.51,235.09c.65.23,1.86-.49,2,1.07s-.77,1.72-2,1.7a9.44,9.44,0,0,0-6.32,1.9c-.39.32-.82.63-.58,1.22s.67.44,1.07.48c2,.16,4,.25,6,.47a3.16,3.16,0,0,1,3,2.27c.43,1.57-.37,2.72-1.51,3.69a12,12,0,0,1-5.39,2.45c-.63.13-1.56.61-1.75-.62-.14-.92-.3-1.81,1.1-2a8.58,8.58,0,0,0,3.92-1.52c.39-.28.95-.59.84-1.14s-.75-.58-1.23-.62c-1.74-.14-3.49-.24-5.23-.38s-3.24-.57-3.73-2.36.71-3.14,2.09-4.16A14.81,14.81,0,0,1,477.51,235.09Z" transform="translate(-329.3 -200.42)"/><path class="2eb4f9af-dcba-481b-af39-3545611ed926" d="M464,295.6c.67-3.76,1.3-7.53,2-11.28.27-1.46,1.63-1.18,2.62-1.37,3.68-.73,3.71-.71,4.83,2.86.92,2.93,1.78,5.87,2.62,8.82.23.8.81,1.71-.8,2-1.29.24-1.6-.25-1.79-1.32s-.11-2.55-1.11-2.83c-1.58-.45-3.32.13-4.85.68-1,.36-.68,1.78-.84,2.7-.22,1.26-1,1.08-1.79,1.07C463.86,296.93,463.82,296.33,464,295.6Zm3.85-6.7c0,.63-.44,1.6.5,1.29,1.09-.37,3.09.58,3.15-1.28,0-1.13,0-3.25-1.7-3.38C467.26,285.34,468.42,287.8,467.81,288.89Z" transform="translate(-329.3 -200.42)"/><path class="2eb4f9af-dcba-481b-af39-3545611ed926" d="M442.7,248.89c.57-3.29,1.27-6.8,1.76-10.33.24-1.72,1.42-1.81,2.62-2,3.77-.73,3.8-.74,5,3,.92,2.84,1.76,5.7,2.61,8.56.28.93.74,1.85-.87,2.24s-1.45-.88-1.76-1.68-.14-2.49-1.07-2.57a11.62,11.62,0,0,0-4.86.76c-1,.36-.62,1.78-.81,2.73-.24,1.24-1.12,1-1.92,1C442.37,250.46,442.44,249.83,442.7,248.89Zm3.72-6.51c.15.64-.45,1.81.75,1.39s3,.38,3-1.17c0-1.16,0-3.41-1.87-3.52C446,239,447.21,241.4,446.42,242.38Z" transform="translate(-329.3 -200.42)"/><path class="65402a9e-5bd3-4bde-a525-6b52ecb420fd" d="M525.23,249.5c-5.34.08-6.5-1.16-6-6.49.2-2.15.56-4.29.74-6.44.11-1.29.79-1.43,1.85-1.33s1,.82.84,1.59c-.36,2.55-.69,5.11-1,7.66-.22,1.68.47,2.51,2.22,2.45,5.93-.21,5.5.42,4.86-5.44-.16-1.48-.56-2.94-.82-4.41-.13-.77-.55-1.6.89-1.73,1.21-.1,1.6.27,1.74,1.42.29,2.39.83,4.75,1.07,7.14.43,4.3-.61,5.42-4.87,5.57C526.23,249.51,525.73,249.5,525.23,249.5Z" transform="translate(-329.3 -200.42)"/><path class="65402a9e-5bd3-4bde-a525-6b52ecb420fd" d="M375.77,269.54c4.06-.15,4.14-.22,3.52-4.32q-.43-2.83-1-5.63c-.18-.84-.28-1.45.84-1.59.94-.12,1.62,0,1.79,1.1.46,3.11,1.29,6.17,1.17,9.37-.08,2.19-1.08,3.43-3.29,3.56a39.38,39.38,0,0,1-5,.17c-3.15-.21-4.08-1.16-4.25-4.35-.15-3,.57-5.94.88-8.9.14-1.31,1.05-1,1.84-1,1.09,0,.86.77.78,1.41q-.41,3.08-.85,6.16C371.61,269.4,371.86,269.69,375.77,269.54Z" transform="translate(-329.3 -200.42)"/><path class="2eb4f9af-dcba-481b-af39-3545611ed926" d="M454,268.61c0,.66.07,1.33.15,2,.13,1.06-.64.94-1.28,1s-1.37.15-1.37-.87c0-.25,0-.5,0-.75-.29-3.44-1.43-4.09-4.83-2.92-1.4.48-.67,1.45-.73,2.26s.72,2.17-1.19,2.32c-1.76.14-1.38-1.1-1.46-1.94-.32-3.22-.52-6.45-.8-9.68-.09-1.05,0-1.68,1.36-1.7s1.25.71,1.25,1.56c0,.33,0,.66.06,1,.32,3.94.31,3.85,4.16,3.24,1.41-.22,1.82-.72,1.57-2.06-.19-1.06-.2-2.15-.31-3.22-.08-.83,0-1.45,1.09-1.46.95,0,1.53.08,1.6,1.27C453.39,262,453.71,265.3,454,268.61Z" transform="translate(-329.3 -200.42)"/><path class="65402a9e-5bd3-4bde-a525-6b52ecb420fd" d="M408.55,268.79a9.41,9.41,0,0,0,.18,1.53c.24,1.09-.36,1.23-1.21,1.34s-1.47-.08-1.49-1.1c0-.25,0-.5-.06-.75-.3-3.19-.29-3.07-3.55-2.86-1.81.12-2.26.84-2,2.49.16,1,.57,2.18-1.27,2.25s-1.23-1.24-1.32-2.06c-.34-3.14-.58-6.29-.85-9.44-.08-.92-.24-1.76,1.24-1.82s1.35.81,1.41,1.71c0,.41.1.83.14,1.24.36,3.46.35,3.36,3.72,2.91,1.55-.21,2.22-.7,1.9-2.31a13.22,13.22,0,0,1-.2-2.49c0-.79-.67-1.87,1-2,1.4-.13,1.66.51,1.72,1.71C408,262.11,408.28,265.1,408.55,268.79Z" transform="translate(-329.3 -200.42)"/><path class="da1ba2f2-0007-4492-8ec3-90318f36079f" d="M414.15,272c-2.42.75-3-.53-3.07-2.79-.06-3.24-.32-6.48-.59-9.72-.1-1.17.2-1.64,1.45-1.64,1.91,0,3.82-.18,5.73-.31.91-.06,1.38.19,1.38,1.22s-.14,1.44-1.17,1.45c-.83,0-1.66.21-2.49.16-1.53-.09-2.13.32-2,2.07.11,2,1.29,1.47,2.36,1.39.83-.06,1.65-.18,2.48-.28s1.06.54,1.14,1.25.15,1.35-.85,1.42c-1.16.08-2.32.28-3.48.31s-1.44.47-1.34,1.55.73,1.34,1.69,1.17,2-.23,3-.46,1.46-.27,1.62.83c.13.9.22,1.68-1,1.83C417.38,271.63,415.87,272.27,414.15,272Z" transform="translate(-329.3 -200.42)"/><path class="65402a9e-5bd3-4bde-a525-6b52ecb420fd" d="M433.92,281.47a12.06,12.06,0,0,1,4.89.8,4.77,4.77,0,0,1,3,4.25c.17,1.92-1.15,3-2.71,3.83a9.65,9.65,0,0,1-2.79,1c-2.09.32-3.4,1.07-2.73,3.49.26.93-.34,1.12-1.12,1.15s-1.45,0-1.54-1.07q-.45-5.85-1-11.7c-.12-1.22.35-1.68,1.5-1.68C432.25,281.57,433.09,281.51,433.92,281.47Zm-1,4.49c.17,3.36.17,3.36,1.12,3.36,2.26,0,5.42-1.82,5.07-3-.7-2.39-2.86-2.05-4.7-2.25S432.83,285.2,432.89,286Z" transform="translate(-329.3 -200.42)"/><path class="65402a9e-5bd3-4bde-a525-6b52ecb420fd" d="M389.11,281.45a12,12,0,0,1,4.88.81,4.72,4.72,0,0,1,3,4.23c.16,1.95-1.09,3-2.65,3.82a11.81,11.81,0,0,1-2.77,1.07c-1.88.4-3.61.76-2.72,3.39.26.78-.14,1.24-1,1.25s-1.53.19-1.63-.94q-.55-6.2-1.13-12.39c-.08-.82.46-1,1.07-1C387.12,281.55,388.12,281.51,389.11,281.45ZM388,286c.19,3.17.35,3.56,1.4,3.2,1.82-.62,4.85-.3,4.77-2.89-.07-2.31-2.76-2.06-4.62-2.25S387.9,285.11,388,286Z" transform="translate(-329.3 -200.42)"/><path class="2eb4f9af-dcba-481b-af39-3545611ed926" d="M372.3,283.7c-.63-1.88.69-2.22,2.58-2.2a19.53,19.53,0,0,1,5.44.45,4.83,4.83,0,0,1,3.78,4.42c.21,2.21-1.24,3.31-3,4.12a8.76,8.76,0,0,1-2.57.92c-2.07.25-3.2,1-2.6,3.34.26,1-.36,1.23-1.26,1.29s-1.29-.24-1.36-1.2C373.06,291.28,372.68,287.73,372.3,283.7Zm3.28,5.92c1.8-.61,3.31-1,4.75-1.64s1.59-1.77.52-2.75a5.18,5.18,0,0,0-5.16-1c-1.46.48-.19,2-.3,3.08A12.72,12.72,0,0,0,375.58,289.62Z" transform="translate(-329.3 -200.42)"/><path class="2eb4f9af-dcba-481b-af39-3545611ed926" d="M494.11,281.33a26.25,26.25,0,0,0,2.75,0c1.07-.11,1.23.41,1.28,1.3s-.26,1.38-1.25,1.35c-.83,0-1.67.11-2.5,0-1.44-.11-2.06.26-2,1.92s.77,1.74,2,1.56c.82-.12,1.67-.05,2.49-.16,1.07-.14,1.5.25,1.53,1.35S498,290,497.12,290c-1.08,0-2.16.19-3.24.25s-1.12.65-1.08,1.52c0,1,.54,1.3,1.43,1.17l3.21-.47c.77-.11,1.45-.24,1.57.93.1,1,.13,1.66-1.08,1.71a2.44,2.44,0,0,0-.48.14c-6.31,1.63-7,1.15-7.42-5.18a61,61,0,0,0-.38-6.23c-.34-2,.37-2.56,2.2-2.37a21.54,21.54,0,0,0,2.25,0Z" transform="translate(-329.3 -200.42)"/><path class="65402a9e-5bd3-4bde-a525-6b52ecb420fd" d="M439.29,307.41a39.26,39.26,0,0,1-2.47,7.65,46.39,46.39,0,0,1-13.12,17.34c-.32.27-.66.51-1,.75a1.31,1.31,0,0,1-2-.17c-.57-.72,0-1.29.41-1.74.83-.81,1.79-1.49,2.63-2.29a43.18,43.18,0,0,0,12.76-21c.23-.89.44-1.89,1.65-1.85A1.15,1.15,0,0,1,439.29,307.41Z" transform="translate(-329.3 -200.42)"/><path class="65402a9e-5bd3-4bde-a525-6b52ecb420fd" d="M391.27,273.57c-4.3.07-6.67-1.45-7.84-4.81a6.89,6.89,0,0,1,2.22-8.06,7.31,7.31,0,0,1,8.37-.49c1.63,1,1.07,1.67,0,2.53-.67.54-1.06-.06-1.53-.3a4.52,4.52,0,0,0-5.52.64,4.08,4.08,0,0,0-1,5,4.4,4.4,0,0,0,4.73,2.89,18.68,18.68,0,0,0,3.92-.6c1-.29,1.46-.14,1.81.9s-.23,1.47-1.09,1.68A14.74,14.74,0,0,1,391.27,273.57Z" transform="translate(-329.3 -200.42)"/><path class="65402a9e-5bd3-4bde-a525-6b52ecb420fd" d="M489.59,234.37a26.52,26.52,0,0,1,2.95,2.09c1.7,1.56,3.17,1.73,4.63-.27a15.15,15.15,0,0,1,1.27-1.19c.8-.86,1.24-.23,1.77.33s1,1.06.08,1.55c-4.71,2.6-3.91,6.91-3.51,11.11.06.64.39,1.62-.24,1.84-.85.31-2.21.94-2.44-.89a7.52,7.52,0,0,1-.09-1.74c.51-4.47-.51-8.13-5.07-10.08-.41-.17-1.24-.49-.78-1.26C488.49,235.32,488.74,234.65,489.59,234.37Z" transform="translate(-329.3 -200.42)"/><path class="2eb4f9af-dcba-481b-af39-3545611ed926" d="M455.81,234.26c.88.6,1.63,1.11,2.37,1.63,3.18,2.26,3.18,2.26,6-.28.31-.28.6-.58.92-.84.86-.68,1.12.27,1.57.63s.89,1,.15,1.38c-4.93,2.71-4,7.26-3.64,11.59.11,1.38-.35,1.79-1.63,1.69-.74-.06-1-.37-1-1.08a14,14,0,0,1,0-1.5c.46-4.53-.36-8.39-5.1-10.38-.45-.19-1.19-.53-.76-1.29A13.19,13.19,0,0,1,455.81,234.26Z" transform="translate(-329.3 -200.42)"/><path class="65402a9e-5bd3-4bde-a525-6b52ecb420fd" d="M363.28,250c-.92.14-1.44-.15-1.37-1.17,0-.58-.08-1.16,0-1.74.35-4.32-.5-8-5-9.91-.76-.33-1.39-.83-.62-1.9s1.33-1,2.17-.26a10.53,10.53,0,0,0,1,.73c3.25,2.31,3.25,2.31,6.31-.38.7-.61,1.19-1.28,2.2-.23s.55,1.66-.29,2.12c-4.66,2.57-3.08,6.9-3.16,10.78C364.5,249,365.07,250.27,363.28,250Z" transform="translate(-329.3 -200.42)"/><path class="2eb4f9af-dcba-481b-af39-3545611ed926" d="M518.08,291.41c0,1.41,0,2.57,0,3.73.05.92-.19,1.35-1.21,1.38s-1.57-.22-1.46-1.35c.05-.57-.07-1.17,0-1.74.36-4.24-.48-7.85-4.88-9.72-.85-.36-1.5-.85-.68-2.06s1.42-.67,2.17-.12l.4.29c3.68,2.55,3.71,2.58,7.06-.21.82-.68,1.3-.71,2,.05s.54,1.38-.27,2C518.53,285.64,516.81,288.07,518.08,291.41Z" transform="translate(-329.3 -200.42)"/><path class="da1ba2f2-0007-4492-8ec3-90318f36079f" d="M350.55,259.39c.3,1.47-.88,1.39-1.55,1.36-2.47-.13-2.79,1.18-2.54,3.21s.33,4.31.45,6.46c.05.95.38,2-1.29,2.06-1.51.05-1.3-.91-1.36-1.77-.16-2.4-.37-4.81-.4-7.22,0-1.59-.49-2.33-2.17-1.91-.87.22-1.74.56-2-1s.78-1.53,1.77-1.65c2.47-.29,5-.53,7.42-.9C350.11,257.9,350.66,258.22,350.55,259.39Z" transform="translate(-329.3 -200.42)"/><path class="65402a9e-5bd3-4bde-a525-6b52ecb420fd" d="M485.5,281.92c1,0,2.16-.55,2.36,1.09s-1,1.51-1.9,1.47c-2.16-.1-2.64.84-2.35,2.87.34,2.38.3,4.81.49,7.21.08,1,0,1.53-1.25,1.57s-1.38-.43-1.42-1.45c-.1-2.57-.38-5.14-.44-7.71,0-1.34-.27-2-1.82-1.63-.8.18-2,.78-2.25-1s1.11-1.5,2-1.64C481.16,282.4,483.4,282.18,485.5,281.92Z" transform="translate(-329.3 -200.42)"/><path class="da1ba2f2-0007-4492-8ec3-90318f36079f" d="M500.86,290c-.15-2.13-.25-3.87-.39-5.61-.08-.94.28-1.34,1.25-1.39s1.37.19,1.41,1.19c.11,2.66.4,5.31.42,8,0,1.74.75,2.16,2.27,1.8a22.55,22.55,0,0,0,3.13-.77c1.17-.46,1.4.2,1.78,1,.5,1.08-.16,1.3-.92,1.53-.16,0-.31.13-.47.17-2.51.62-5.55,1.9-7.49.69S501.3,292,500.86,290Z" transform="translate(-329.3 -200.42)"/><path class="da1ba2f2-0007-4492-8ec3-90318f36079f" d="M343.44,292.38c.07.91.09,1.83.21,2.73s-.4,1.26-1.28,1.33-1.35-.23-1.42-1.2q-.4-6-.89-11.92c-.08-1,.37-1.29,1.29-1.34s1.39.23,1.45,1.2c.2,3.06.44,6.13.66,9.19Z" transform="translate(-329.3 -200.42)"/><path class="da1ba2f2-0007-4492-8ec3-90318f36079f" d="M461.51,294.34a4.35,4.35,0,0,0,0,.87c.11,1.08-.57,1.18-1.39,1.24s-1.19-.21-1.25-1.08c-.27-3.89-.61-7.77-.91-11.66-.06-.83-.2-1.63,1.11-1.73s1.5.51,1.58,1.57C460.88,286.95,461.18,290.33,461.51,294.34Z" transform="translate(-329.3 -200.42)"/><path class="65402a9e-5bd3-4bde-a525-6b52ecb420fd" d="M459.33,271.06c.29,1.15-.15,1.48-1.1,1.56s-1.45,0-1.52-1q-.41-6.1-.88-12.19c-.08-1.07.61-.94,1.27-1,.9-.1,1.33.13,1.39,1.17C458.72,263.45,459,267.34,459.33,271.06Z" transform="translate(-329.3 -200.42)"/><path class="65402a9e-5bd3-4bde-a525-6b52ecb420fd" d="M527.46,287.86a11.62,11.62,0,0,0,.11,1.48c.2,1-.26,1.28-1.18,1.38s-1.4,0-1.47-1.07c-.15-2.31-.33-4.61-.62-6.9-.15-1.15.34-1.39,1.31-1.52s1.29.32,1.35,1.22c.13,1.81.33,3.61.5,5.42Z" transform="translate(-329.3 -200.42)"/><path class="da1ba2f2-0007-4492-8ec3-90318f36079f" d="M526.34,293.51c1.57-.25,1.53.76,1.62,1.68s-.65.88-1.3,1c-1.59.21-1.46-1-1.56-1.93C525,293.12,526,293.63,526.34,293.51Z" transform="translate(-329.3 -200.42)"/><path class="47328a7f-2b2e-40e7-9dce-8182182cb851" d="M465.63,352.78a22.73,22.73,0,0,1-10-2.24,35.46,35.46,0,0,1,16-5.7c17.51-2.1,37.44,14.76,40.12,28.67,2.49,13-2.39,25.07-14.26,32.43-13.89,8.61-27.21,6.35-40.31-1.9-20-12.58-17.89-38.93-3.46-51.75,1-.92,1.63-.59,2.56,0A9.82,9.82,0,0,0,465.63,352.78ZM448.73,370c.17,1,.85,1.9.33,2.77-1.11,1.83.1,2.32,1.49,2.53,4.53.66,7.89,3.23,10.92,6.42a30,30,0,0,0,3.5,3.17c1,.75,2,2.54,3.2,1.66,1.38-1,.54-2.9,0-4.38a9.61,9.61,0,0,0-2.28-3.23,35.92,35.92,0,0,0-10.43-7.51A11.78,11.78,0,0,0,448.73,370ZM459,360.5a4.54,4.54,0,0,0-4.56-4.86,5.29,5.29,0,0,0-5.44,4.63c-.11,2,2.95,5.11,5,5.09A5,5,0,0,0,459,360.5ZM470.52,377a4.75,4.75,0,0,0,0-9.49c-2.8,0-4.71,2-4.69,4.93S467.55,377,470.52,377Zm11.1-7.84A35.73,35.73,0,0,1,477,361a.58.58,0,0,0-.76-.43c-.4.13-.33.5-.36.81C475.73,363.68,478.78,368.09,481.62,369.16Z" transform="translate(-329.3 -200.42)"/><path class="47328a7f-2b2e-40e7-9dce-8182182cb851" d="M412.94,363.58c1.42-.19,2.05.37,3,1,1.83,1.22,3.81-.22,5.65-.81,2.51-.81,3.13-3,1.57-5.23-.33-.47-.84-.8-1.21-1.24s-1.14-.25-.78-1a2.16,2.16,0,0,1,1-1.09c.59-.21.77.48,1,.88,3.14,6.11,5.12,12.44,4.51,19.47-1.38,16-11.79,26.28-29,30-19.17,4.18-34.67-8.11-39.48-21.41-4.06-11.21-1.34-21.59,6.59-30.08a40.89,40.89,0,0,1,30.93-13.48c9.78.06,18.13,3.78,24.2,11.83.77,1,1.05,1.62-.18,2.77C417.93,357.85,415.5,360.79,412.94,363.58Zm8.72,4.48a79.73,79.73,0,0,0-21.8,8.89c-5.06,3-6.05,6.77-3.62,12.33,1.34,3.06,3.06,3.66,5.54,1.6a47.58,47.58,0,0,1,11.17-6.44c3.1-1.4,6.21-2.75,9.29-4.17.54-.25,1.78-.35.78-1.46C420.2,375.66,419.53,372.2,421.66,368.06Zm-31.91,0c2.18.46,2.18.46,2.72,2.89.73,3.25,2.87,4.14,5.61,2.26,1.16-.79,2.16-1.82,3.34-2.57.63-.4.76-.82.49-1.34-.67-1.26-.38-2.25.85-3.17C398.27,366.47,393.95,366.71,389.75,368.06Zm26.15,18.59c-1.87,0-3.36.92-5.31,2.39C413.11,388.95,414.26,387.23,415.9,386.65Z" transform="translate(-329.3 -200.42)"/><path class="21f2104f-0b57-458e-8846-aa03a0136c9c" d="M440,398.54c3.49,6.13,2.92,13.29,4.72,20.59.67-8.43-.12-15.92-3.84-22.93,2-.79,3.07.37,4.12,1.61,10.08,12,22.89,17.82,38.57,17,1.79-.09,1.88.32,1.71,1.79-.51,4.46-1,8.93-1.27,13.41-.11,1.74-.76,2.36-2.37,2.42-1.91.08-3.82.31-5.73.39-1.31.05-2.77.09-2.76,1.76s1.49,1.89,2.92,1.87a29.46,29.46,0,0,0,5.72-.41c1.53-.33,2.06.24,2,1.82-.06,4.08-.06,8.17.11,12.24.07,1.61-.72,2-2,2.25a85.21,85.21,0,0,1-24.62.73c-5.15-.55-10.19-1.43-14.7-4.28a5.34,5.34,0,0,1-2.78-4.56,109,109,0,0,1,1.28-28.1c.36-2.16-.06-4.47-.22-6.71C440.7,405.82,440.35,402.18,440,398.54Zm3.25-.24c3.68,7,4.54,15.22,9.24,21.81C450,412.6,448,404.9,443.29,398.3Z" transform="translate(-329.3 -200.42)"/><path class="c4053ee6-3f70-4631-9679-8a5ee1237e94" d="M376,406.84c2.82,1.14,5.36,2.14,7.89,3.19,12.06,5,24.33,5.74,36.76,1.57,2.11-.71,2,.64,2.14,1.76.57,5.21,1,10.43,1.57,15.64.57,5.46,1.11,10.92,1.83,16.36a2,2,0,0,1-1.29,2.5,86.4,86.4,0,0,1-31.6,8.44c-3.13.24-6.23-.78-9.28-1.67-1.56-.46-1.19-1.64-1.24-2.6a241,241,0,0,0-3.32-30.23C378.53,416.92,377.25,412.11,376,406.84Z" transform="translate(-329.3 -200.42)"/><path class="a67d1d9a-0863-4992-804c-7d39db5fe34a" d="M396.13,409.7c8.53-1.57,16.36-4.12,23.07-9.62,1.15,2,1.51,4.09,2.15,6.11.28.87-.08,1.33-.89,1.75C415.53,410.49,401.8,411.59,396.13,409.7Z" transform="translate(-329.3 -200.42)"/><path class="63809fd4-57a9-4ec9-92cf-7418fc99c26c" d="M487.53,430.8c.06-.82.09-1.48.15-2.13.4-4.33.81-8.66,1.24-13.27C494.19,422.87,493.37,429,487.53,430.8Z" transform="translate(-329.3 -200.42)"/><path class="b893d7b0-af5b-4196-a28c-0a9e1bad4efd" d="M404.11,242.3a6,6,0,0,1-6.23,5.75,4.14,4.14,0,0,1-4.25-4.47,6.44,6.44,0,0,1,6-5.86A4.33,4.33,0,0,1,404.11,242.3Z" transform="translate(-329.3 -200.42)"/><path class="b893d7b0-af5b-4196-a28c-0a9e1bad4efd" d="M515,242.2a6,6,0,0,1-6.13,5.86,4.08,4.08,0,0,1-4.36-4.36c0-3,3-6,6.16-6A4.31,4.31,0,0,1,515,242.2Z" transform="translate(-329.3 -200.42)"/><path class="b893d7b0-af5b-4196-a28c-0a9e1bad4efd" d="M420.09,294.49a4.17,4.17,0,0,1-4.45-4.3c-.1-3,2.95-6,6.07-6.08a4.36,4.36,0,0,1,4.42,4.41A6,6,0,0,1,420.09,294.49Z" transform="translate(-329.3 -200.42)"/><path class="b893d7b0-af5b-4196-a28c-0a9e1bad4efd" d="M354.93,266.42a6.2,6.2,0,0,1,5.84-6,4.29,4.29,0,0,1,4.64,4.41c.08,3.08-2.83,5.91-6.14,6A4.18,4.18,0,0,1,354.93,266.42Z" transform="translate(-329.3 -200.42)"/><path class="63809fd4-57a9-4ec9-92cf-7418fc99c26c" d="M403.82,284c1.62.4,3.84-.12,4.25,2.41.18,1.08-3.77,4-5.26,3.44-1.86-.68-.83-2.93-1.2-4.44C401.15,283.51,402.86,284.28,403.82,284Z" transform="translate(-329.3 -200.42)"/><path class="63809fd4-57a9-4ec9-92cf-7418fc99c26c" d="M448.82,284c1.61.43,3.86-.11,4.19,2.47.13,1.06-4,4-5.29,3.4-1.81-.81-.9-3-1.16-4.52C446.22,283.41,447.9,284.32,448.82,284Z" transform="translate(-329.3 -200.42)"/><path class="b893d7b0-af5b-4196-a28c-0a9e1bad4efd" d="M424,264.23c-.15-3.54.53-4,3.16-2.58a6.33,6.33,0,0,1,3.23,3.32c.51,1.39.57,2.8-.67,3.9a6.35,6.35,0,0,1-4.66,1.32c-.66,0-.56-.71-.61-1.18C424.27,267.2,424.11,265.38,424,264.23Z" transform="translate(-329.3 -200.42)"/><path class="51f7c14d-bcb5-4ee8-963c-78a968d1f3d3" d="M363.07,290.29c-.35-1.48.33-2.63.38-3.85,0-.75.56-.91,1.18-1a1.15,1.15,0,0,1,1.33.77C367.52,289.26,367.32,289.59,363.07,290.29Z" transform="translate(-329.3 -200.42)"/><path class="51f7c14d-bcb5-4ee8-963c-78a968d1f3d3" d="M467.81,288.89c.61-1.09-.55-3.56,1.95-3.37,1.65.12,1.73,2.24,1.7,3.38-.06,1.86-2.06.91-3.15,1.28C467.37,290.5,467.76,289.53,467.81,288.89Z" transform="translate(-329.3 -200.42)"/><path class="51f7c14d-bcb5-4ee8-963c-78a968d1f3d3" d="M446.42,242.38c.79-1-.42-3.43,1.9-3.3,1.84.11,1.87,2.36,1.87,3.52,0,1.54-2,.81-3,1.17S446.57,243,446.42,242.38Z" transform="translate(-329.3 -200.42)"/><path class="63809fd4-57a9-4ec9-92cf-7418fc99c26c" d="M432.89,286c-.07-.76-.47-2.09,1.49-1.88s4-.14,4.7,2.25c.34,1.16-2.82,3-5.07,3C433.06,289.33,433.06,289.33,432.89,286Z" transform="translate(-329.3 -200.42)"/><path class="51f7c14d-bcb5-4ee8-963c-78a968d1f3d3" d="M388,286c-.11-.9-.37-2.15,1.55-1.95s4.56-.06,4.62,2.25c.07,2.59-3,2.28-4.77,2.89C388.36,289.57,388.2,289.18,388,286Z" transform="translate(-329.3 -200.42)"/><path class="63809fd4-57a9-4ec9-92cf-7418fc99c26c" d="M375.58,289.62a12.72,12.72,0,0,1-.2-2.28c.12-1.06-1.15-2.6.3-3.08a5.18,5.18,0,0,1,5.16,1c1.06,1,.93,2.15-.52,2.75S377.37,289,375.58,289.62Z" transform="translate(-329.3 -200.42)"/><path class="ef462f19-c072-4a7e-9b43-cfddf9a17793" d="M448.73,370a11.78,11.78,0,0,1,6.7,1.43A35.92,35.92,0,0,1,465.86,379a9.61,9.61,0,0,1,2.28,3.23c.56,1.48,1.4,3.34,0,4.38-1.17.88-2.22-.91-3.2-1.66a30,30,0,0,1-3.5-3.17c-3-3.19-6.4-5.75-10.92-6.42-1.39-.2-2.59-.69-1.49-2.53C449.58,371.93,448.9,371.06,448.73,370Z" transform="translate(-329.3 -200.42)"/><path class="ef462f19-c072-4a7e-9b43-cfddf9a17793" d="M459,360.5a5,5,0,0,1-5,4.87c-2,0-5.1-3.08-5-5.09a5.29,5.29,0,0,1,5.44-4.63A4.54,4.54,0,0,1,459,360.5Z" transform="translate(-329.3 -200.42)"/><path class="ef462f19-c072-4a7e-9b43-cfddf9a17793" d="M470.52,377c-3,0-4.68-1.66-4.69-4.56s1.9-5,4.69-4.93a4.75,4.75,0,0,1,0,9.49Z" transform="translate(-329.3 -200.42)"/><path class="da1ba2f2-0007-4492-8ec3-90318f36079f" d="M481.62,369.16c-2.84-1.07-5.89-5.48-5.7-7.82,0-.31,0-.69.36-.81a.58.58,0,0,1,.76.43A35.73,35.73,0,0,0,481.62,369.16Z" transform="translate(-329.3 -200.42)"/><path class="bf03253a-301c-4949-81f7-40986874793b" d="M421.66,368.06c-2.12,4.14-1.45,7.6,1.36,10.74,1,1.11-.25,1.22-.78,1.46-3.08,1.42-6.2,2.78-9.29,4.17a47.58,47.58,0,0,0-11.17,6.44c-2.48,2.06-4.2,1.46-5.54-1.6-2.43-5.56-1.43-9.29,3.62-12.33A79.73,79.73,0,0,1,421.66,368.06Z" transform="translate(-329.3 -200.42)"/><path class="b2eb4ad4-d5cf-4b3b-8d79-aea1a72faf8c" d="M389.75,368.06c4.2-1.36,8.52-1.6,13-1.93-1.23.92-1.52,1.91-.85,3.17.28.52.15.94-.49,1.34-1.18.75-2.19,1.77-3.34,2.57-2.73,1.88-4.87,1-5.61-2.26C391.93,368.52,391.93,368.52,389.75,368.06Z" transform="translate(-329.3 -200.42)"/><path class="da1ba2f2-0007-4492-8ec3-90318f36079f" d="M415.9,386.65c-1.63.58-2.79,2.3-5.31,2.39C412.53,387.57,414,386.66,415.9,386.65Z" transform="translate(-329.3 -200.42)"/><path class="e82f323d-dbca-46c8-8fc1-c847e6d9b49c" d="M443.29,398.3c4.74,6.59,6.75,14.3,9.24,21.81C447.83,413.53,447,405.3,443.29,398.3Z" transform="translate(-329.3 -200.42)"/></svg>