<svg id="61cd202b-66a3-486a-bc66-b3e99f3b322f" data-name="Capa 1" xmlns="http://www.w3.org/2000/svg" viewBox="0 0 213.6 309.61"><defs><style>.c7d3276a-a01e-4162-923b-93cc4bd5f841{fill:#0b0b0b;}.\37 722e0a0-1e64-4f85-b0b7-394d3e82b6e6{fill:#fefdfd;}.\39 8c112e7-b399-4dc7-85b8-d7629510e4a2{fill:#171716;}.\31 656ce54-bce2-4848-ab4c-fcf411802aa3{fill:#141612;}.\35 0954f38-1bda-457e-9d5f-054e6ae91340{fill:#1f1f20;}.\38 417ce21-0f6c-447d-9cc5-290db4319c70{fill:#1d1c1d;}.\32 9f9ea68-be11-4e72-812b-ce53ad4c2ac3{fill:#242425;}.c537fc51-143a-48a5-a4c7-13c42bd9daaa{fill:#cdcccc;}.\31 7f76b45-2aa4-40b1-afa1-4539e96d5b70{fill:#f7cca0;}.\32 2a40dcb-2f46-4449-8c63-4a8fe6187900{fill:#96b4c7;}.\30 fc1d2ae-039f-471e-9143-1906189ad863{fill:#554538;}.cd7d2ec0-631e-4e1b-b5d9-49c800cc31cc{fill:#509541;}.\38 5b3364f-dd42-404f-80b7-5fb73d9a5590{fill:#a2a2a2;}.\35 dd48317-68ef-4c96-a5da-51594f1ca87b{fill:#f8f7f7;}.bd58e94a-1306-4e77-b241-3ba46d895409{fill:#f0efef;}</style></defs><title>card-28</title><path class="c7d3276a-a01e-4162-923b-93cc4bd5f841" d="M329.54,355.16q0-71.62,0-143.23a16.48,16.48,0,0,1,.42-4.7c1.18-4,3.9-6.34,8.08-6.59,1.5-.09,3-.11,4.49-.11H530.27c1,0,2,0,3,.08,6.77.27,9.87,3.42,9.87,10.13q0,144.36,0,288.71c0,7.4-3.31,10.68-10.67,10.68h-192c-7.6,0-10.94-3.33-10.95-11Q329.53,427.15,329.54,355.16Zm209.46.08q0-71.62,0-143.23c0-5.66-1.63-7.34-7.25-7.34H341c-5.91,0-7.34,1.48-7.34,7.41q0,143.23,0,286.47c0,5.75,1.65,7.38,7.46,7.38H531.62a22.8,22.8,0,0,0,2.5-.05c2.52-.28,4.18-1.59,4.59-4.16A23.44,23.44,0,0,0,539,498Q539,426.6,539,355.24Z" transform="translate(-329.54 -200.52)"/><path class="7722e0a0-1e64-4f85-b0b7-394d3e82b6e6" d="M539,355.24q0,71.37,0,142.73a23.44,23.44,0,0,1-.28,3.72c-.42,2.57-2.08,3.88-4.59,4.16a22.8,22.8,0,0,1-2.5.05H341.14c-5.81,0-7.46-1.63-7.46-7.38q0-143.23,0-286.47c0-5.93,1.43-7.41,7.34-7.41H531.75c5.62,0,7.25,1.69,7.25,7.34Q539,283.62,539,355.24Zm-70,84.9c-.7,1-.46,2-.34,3-.17,2.32-.2,4.67-.55,7s.31,3.87,2.9,4.12c1.43.14,1.88.9,1.65,2.37-.38,2.55-.57,5.13-.8,7.7-.68,7.63-1,15.28-1.23,22.94,0,1.28.24,2.43,1.83,2.38,1.41,0,1.72-1.07,1.69-2.27,0-.5,0-1,0-1.5.25-9.58.86-19.13,1.92-28.65.15-1.3.38-1.69,1.79-1.36a51.69,51.69,0,0,0,6.64,1c7.56.76,15.12.91,22.6-.68,1.26-.27,1.73-.15,1.94,1.2.6,3.77,1.27,7.54,2.07,11.28a167,167,0,0,0,5.69,19.88c.44,1.27,1.21,2.11,2.59,1.54s1.26-1.61.76-2.74c-.17-.38-.3-.78-.43-1.17A171.9,171.9,0,0,1,512.45,457c-.3-2,0-3.11,1.91-3.78a5.61,5.61,0,0,0,4.1-5.58,12,12,0,0,1,.9-5.1,5.65,5.65,0,0,1,.58,2.87c.07,1.31.37,2.44,2,2.24s1.64-1.35,1.53-2.64c-.3-3.65-.51-7.31-.83-11-1-11.69-2-23.39-5-34.79a6.46,6.46,0,0,1,.94-5.92c12.54-18.56,6.68-41.09-13.18-50.22-8.49-3.9-17.56-3.94-26.69-2.46-16.11,2.61-27.44,15.85-28.91,28.21q-2.58,21.8,14.66,35.29a3.82,3.82,0,0,1,1.79,3.42c0,12.51-1.09,24.95-2.36,37.37-.14,1.34-.3,2.75,1.29,3,1.83.31,2-1.23,2.21-2.62.25-2.23.52-4.46.79-6.69l.87,0ZM357.22,370.37l-.6,0c-2.47-6.33-5-12.65-7.4-19-1-2.56-1.79-5.18-2.68-7.78a1.8,1.8,0,0,0-2.28-1.4c-1.3.31-1.32,1.34-1.11,2.38a14.05,14.05,0,0,0,.53,1.66,320.5,320.5,0,0,0,21.1,48.94,5.81,5.81,0,0,1,.56,4.71,114,114,0,0,0-3.74,46.45c.22,1.65.15,3.44,2,4.22,1.6.66,1.67,1.8,1.33,3.23-.65,2.75-1.15,5.53-1.88,8.26-2.25,8.38-5.5,16.24-12.21,22.17-.93.83-1.34,1.81-.49,2.82s1.91.71,2.85-.07A36.51,36.51,0,0,0,363,473.29a71.78,71.78,0,0,0,5.11-17.67c.31-1.93.91-2.34,2.65-1.43a17.49,17.49,0,0,0,5.77,1.5,82.25,82.25,0,0,0,24.63-.13c2-.31,2.17.39,2.38,1.91q1.92,14.35,4,28.68c.22,1.52-.24,4,2.33,3.5s1.29-2.72,1.1-4.17c-1.22-9.49-2.49-19-3.93-28.43-.31-2,.09-3,2.11-3.11,2.42-.17,2.83-1.5,2.64-3.74a196.12,196.12,0,0,1,.8-42.13,2.75,2.75,0,0,1,1.64-2.43c8.05-4.23,13.19-11,16.46-19.3a17.19,17.19,0,0,1,1.84-3.5,269.91,269.91,0,0,0,17.1-29.28c.61-1.18,1.15-2.47-.38-3.22s-2.17.44-2.8,1.64c-2.39,4.57-4.8,9.12-7.32,13.62-1.84,3.3-3.86,6.49-5.88,9.88-.25-.4-.33-.47-.34-.54,0-.32,0-.65,0-1,0-15.09-7.61-25.44-20.93-31.45-8.92-4-18.53-4.38-28.16-2.42a32.64,32.64,0,0,0-22.55,16.25A29,29,0,0,0,357.22,370.37Zm15.06-109.08c.85,2.11,1.57,3.77,2.18,5.48a2,2,0,0,0,1.9,1.33c1.06.14,1.15-.76,1.43-1.41.36-.83.64-1.7,1-2.54.15-.35.19-.87.7-.92.69-.06.72.59.89,1,.6,1.45,1.16,2.93,1.7,4.4.35,1,.8,1.23,1.86.76s1-1.07.6-1.92a49.67,49.67,0,0,1-3.46-11.14c-.17-.9-.44-1.49-1.56-1.51s-1.47.63-1.66,1.64c-.42,2.2-.63,4.49-2,7-.69-2.36-1.33-4.23-1.77-6.14-.24-1-.77-1.29-1.71-1.41a1.37,1.37,0,0,0-1.65,1.09,53.69,53.69,0,0,0-2.8,10.56c-.14.94-.2,1.59,1.06,1.68,1.08.08,1.47-.29,1.59-1.34A22.62,22.62,0,0,1,372.28,261.28Zm-10.14,30.63c4.9-.09,9-4.08,8.85-8.63a7.15,7.15,0,0,0-7.18-7.1c-4.55.07-8.72,4.2-8.69,8.6A6.88,6.88,0,0,0,362.14,291.92Zm121.94-22.7c4.89,0,9-3.85,9-8.46a7,7,0,0,0-7-7.19c-4.61,0-8.81,3.93-8.88,8.37A7,7,0,0,0,484.07,269.22Zm-31.41,14.63a7.09,7.09,0,0,0-6.8-7.67c-4.51-.14-8.82,3.85-8.94,8.28-.12,4.23,2.67,7.35,6.66,7.45C448.33,292,452.49,288.34,452.66,283.85Zm-41.51,2.6c.16-.85.74-.92,1.14-1.16,1.91-1.17,3.29-2.65,2.78-5.07s-2.28-3.29-4.47-3.74a23.28,23.28,0,0,0-6.21-.15c-1.07.06-1.4.55-1.29,1.61q.58,5.84,1,11.68c.08,1.05.6,1.19,1.48,1.12s1.48-.13,1.2-1.27c-.32-1.3.32-1.35,1.37-1,1.91.57,3.86,1,5.77,1.54,1,.28,1.47.17,1.78-1s-.27-1.45-1.13-1.67Zm.58-27.47c2.14,3,4,5.61,5.75,8.22a1.54,1.54,0,0,0,2.08.66,1.31,1.31,0,0,0,1.08-1.62c-.23-3.57-.43-7.15-.63-10.72-.06-1-.42-1.49-1.56-1.36s-1.28.71-1.15,1.69a24.68,24.68,0,0,1,.25,6.64,46.82,46.82,0,0,1-5.17-7.82c-.58-1.24-1.55-1-2.52-1s-1,.67-1,1.35a54.68,54.68,0,0,0,1,11.18c.19.85.33,1.53,1.6,1.16,1.1-.32,1.28-.76,1-1.75A18.49,18.49,0,0,1,411.73,259Zm51.12,25.65a24.06,24.06,0,0,1-5.45-7.32c-.59-1.23-1.58-1-2.54-1-1.37.07-.9,1.17-.91,1.89a45.36,45.36,0,0,0,.81,9.92c.15.76-.2,2.25,1.54,1.94,1.58-.28,1.3-1.22,1.08-2.39-.34-1.84-1-3.69-.53-6,2,2.9,3.89,5.45,5.64,8.06a1.65,1.65,0,0,0,2.09.76,1.36,1.36,0,0,0,1.08-1.66c-.22-3.57-.4-7.13-.61-10.7-.05-.92-.25-1.6-1.5-1.35-1,.21-1.32.57-1.17,1.66C462.64,280.54,462.7,282.59,462.85,284.62Zm-28.21-17.1c-.72-3.68-2.22-7.14-3.12-10.76-.58-2.34-1.75-2.32-3.7-2.07-2.54.33-3.73,1.34-3.91,4s-.92,5.4-1.35,8.11c-.13.82-1,2,.84,2.2,1.53.21,1.72-.69,1.72-1.74,0-1.66.85-2.27,2.39-2.51,3.4-.54,3.39-.6,4.4,2.7.07.24.08.5.16.73.33,1,1.1.43,1.69.46C434.55,268.69,434.76,268.23,434.64,267.52Zm-2.12,8.69a14.79,14.79,0,0,0-8,2.54c-1.46,1-2.44,2.38-1.89,4.24.5,1.69,2,2.06,3.56,2.21,1.82.17,3.65.26,5.47.41.4,0,.89.09,1,.59s-.22.76-.57,1a9.06,9.06,0,0,1-4.13,1.64c-1.1.17-1.28.71-1.13,1.73.18,1.3,1,1.13,1.81.93a12.07,12.07,0,0,0,5.76-2.78,3.1,3.1,0,0,0-1.52-5.62,29.27,29.27,0,0,0-5.46-.45c-.69,0-1.71.23-1.89-.71s.77-1.19,1.38-1.59A9.58,9.58,0,0,1,432.6,279c1.35.05,1.78-.5,1.82-1.68C434.49,275.67,433.17,276.5,432.52,276.22Zm62-15.06c-.09,5.81,1,7,5.65,6.92,1.16,0,2.31-.21,3.47-.27,2.4-.11,3.38-1.53,3.42-3.74,0-3.18-.73-6.25-1.3-9.35-.19-1.05-.76-1.08-1.6-1-1,.13-1.2.67-1,1.56.34,1.62.71,3.24.93,4.89.72,5.37.41,5.65-5,5.19-1.4-.12-2.19-.59-2-2.13.35-2.63.69-5.26,1-7.9.07-.66.47-1.58-.77-1.69-1-.09-1.75-.07-1.89,1.27C495.14,257.4,494.73,259.86,494.55,261.16ZM393.4,276.25c-.42,0-.83,0-1.25,0-2.06-.12-3,.55-2.61,2.86.52,3.45.72,6.94,1,10.42.07.93.28,1.41,1.31,1.21.6-.12,1.59.09,1.32-.94-.78-3,1.08-3.45,3.27-3.83a8.31,8.31,0,0,0,2.31-.91c1.47-.76,2.7-1.84,2.63-3.63a4.7,4.7,0,0,0-2.84-4.35A11.44,11.44,0,0,0,393.4,276.25Zm43.93,30c.17-.82.09-1.6-.86-1.77-1.4-.24-1.59.89-1.79,1.87-1.92,9.32-5.78,17.62-12.68,24.34-.67.65-1.45,1.4-.48,2.3.76.71,1.51.22,2.16-.41C431.2,325.29,435.27,316.27,437.33,306.21Zm31.17-51.56c-.55-.59-.92-1.22-1.46-1.51-.76-.39-1.12.45-1.59.86-2.91,2.59-2.91,2.6-6.12.33a5.18,5.18,0,0,0-.62-.42c-.82-.42-1.44-1.79-2.6-.24s.27,2,1,2.33c3.66,1.72,4.9,4.61,4.43,8.45a2,2,0,0,0,0,1c.47,1.06-1.11,3.26,1.49,3.1s1.08-2.22,1-3.26c-.15-3.77-.61-7.52,3.5-9.73C468,255.38,468.17,255,468.5,254.64Zm-91,23.53a26.93,26.93,0,0,1-3.38.24c-1.8-.1-2.24.66-2,2.36.39,3.05.61,6.13.89,9.2.09.95-.22,2,1.51,1.81,1.56-.16,1.26-1.08,1.09-1.89-.37-1.77.33-2.34,2-2.35.94,0,2.26.19,2.05-1.65-.22-2-1.49-.9-2.38-1-.73-.07-1.64.82-2.16-.33-1-2.1-.07-3.52,2.26-3.7a13.06,13.06,0,0,1,2-.11c1.55.12,1.42-1,1.16-1.8C380,277.21,378.42,278.61,377.53,278.17Zm15.95-18.95c.24,2.89.49,5.78.71,8.68.07.91.44,1.35,1.41,1.23.82-.1,1.62-.24,1.28-1.29-.87-2.69.73-3,2.77-3.11.54,0,1.29.08,1.3-.77,0-.63.15-1.51-.56-1.74a4.48,4.48,0,0,0-2.21,0c-1.4.29-1.87-.18-2-1.6-.18-1.75.12-2.72,2.14-2.43a21,21,0,0,0,2.24,0c.92,0,1.35-.26,1.3-1.29s-.29-1.52-1.45-1.38-2.48.12-3.73.16C393.27,255.75,393.27,255.75,393.47,259.22Zm124.41-5.31c-2.41.27-5.06.58-7.7.84-1.12.11-1.86.35-1.67,1.79.21,1.64,1.25,1,2,.83,1.56-.41,2.05.09,2.07,1.68,0,2.49.31,5,.43,7.47,0,1,0,1.76,1.43,1.69s1.24-1,1.19-1.9c-.15-2.66-.29-5.32-.52-8-.1-1.15.22-1.72,1.46-1.68a11,11,0,0,0,2-.21c.94-.14.89-.77.74-1.49S519.11,253.58,517.89,253.91Zm-68,14.84a14.59,14.59,0,0,0,5.44-.81c.66-.23,2.06.06,1.55-1.58-.41-1.32-1.05-1.43-2.21-1a23,23,0,0,1-2.9.7c-1.43.34-2.11,0-2.11-1.69,0-2.57-.29-5.14-.38-7.71,0-1.08-.26-1.65-1.55-1.58s-1.16.85-1.12,1.68c.17,3.15.48,6.3.48,9.45C447.1,268.35,447.67,269.41,449.9,268.75Zm-13.75-7h0c.14,1.9.29,3.8.4,5.71,0,.79,0,1.49,1.16,1.44a27.24,27.24,0,0,0,7.59-1.1c1-.33,1.1-.8.77-1.64s-.66-1.25-1.64-.93c-1.17.38-2.4.61-3.61.89s-1.76,0-1.77-1.45c0-2.65-.32-5.3-.42-7.95,0-1.09-.27-1.67-1.56-1.6s-1.18.78-1.13,1.66C436,258.4,436.07,260.06,436.14,261.72Zm-32.6-3.21h-.08c.23,2.89.46,5.79.67,8.68.06.85.25,1.46,1.32,1.29.87-.14,1.54-.21,1.42-1.47-.37-3.88-.62-7.78-.85-11.67-.07-1.19-.7-1.26-1.64-1.25s-1.24.54-1.12,1.44S403.46,257.52,403.55,258.51Zm-44.85,7c-.25-3.47-.51-6.78-.7-10.09-.06-1.13-.61-1.33-1.6-1.3s-1.24.47-1.17,1.4q.49,6,.89,11.91c.07,1,.57,1.2,1.47,1.06C360,268.1,358.13,266.32,358.69,265.49ZM421.17,289c-.33-4-.59-7.26-.88-10.56-.07-.85.14-1.87-1.38-1.77s-1.38.85-1.29,1.84c.31,3.8.63,7.59.89,11.39.07,1,.42,1.28,1.37,1.24s1.4-.32,1.3-1.31A3.56,3.56,0,0,1,421.17,289Zm47-11c.17,1.81.36,4,.56,6.1.08.91.3,1.59,1.51,1.37,1-.18,1.41-.53,1.25-1.62-.3-2.13-.51-4.27-.68-6.41-.09-1.06-.29-1.65-1.61-1.49S468,276.84,468.17,278ZM361.52,254.84c.08.81.14,1.63.25,2.44.08.58.21,1.2,1,1a5.25,5.25,0,0,0,1.55-.39,46.2,46.2,0,0,0-.42-5.37c-.09-.59-.81-.36-1.28-.33C360.6,252.38,361.68,253.87,361.52,254.84ZM470.15,288.2c-1.11-.18-1.2.4-1.15,1.29s.42,1.46,1.48,1.43c.9,0,1.34-.18,1.25-1.24S471.34,288,470.15,288.2Z" transform="translate(-329.54 -200.52)"/><path class="98c112e7-b399-4dc7-85b8-d7629510e4a2" d="M357.22,370.37a29,29,0,0,1,4-14,32.64,32.64,0,0,1,22.55-16.25c9.63-2,19.24-1.6,28.16,2.42,13.32,6,20.88,16.36,20.93,31.45,0,.32,0,.65,0,1,0,.07.08.14.34.54,2-3.39,4-6.59,5.88-9.88,2.51-4.5,4.93-9.06,7.32-13.62.63-1.2,1.3-2.37,2.8-1.64s1,2,.38,3.22a269.91,269.91,0,0,1-17.1,29.28,17.19,17.19,0,0,0-1.84,3.5c-3.27,8.31-8.41,15.07-16.46,19.3a2.75,2.75,0,0,0-1.64,2.43,196.12,196.12,0,0,0-.8,42.13c.18,2.25-.23,3.57-2.64,3.74-2,.15-2.43,1.07-2.11,3.11,1.45,9.46,2.71,18.94,3.93,28.43.19,1.45,1.38,3.73-1.1,4.17s-2.11-2-2.33-3.5q-2-14.33-4-28.68c-.2-1.52-.41-2.23-2.38-1.91a82.25,82.25,0,0,1-24.63.13,17.49,17.49,0,0,1-5.77-1.5c-1.74-.91-2.33-.5-2.65,1.43A71.78,71.78,0,0,1,363,473.29,36.51,36.51,0,0,1,353.22,487c-.94.78-2,1.13-2.85.07s-.44-2,.49-2.82c6.71-5.94,10-13.79,12.21-22.17.73-2.72,1.23-5.51,1.88-8.26.34-1.43.27-2.57-1.33-3.23-1.89-.78-1.82-2.58-2-4.22a114,114,0,0,1,3.74-46.45,5.81,5.81,0,0,0-.56-4.71,320.5,320.5,0,0,1-21.1-48.94,14.05,14.05,0,0,1-.53-1.66c-.21-1-.2-2.07,1.11-2.38a1.8,1.8,0,0,1,2.28,1.4c.89,2.59,1.7,5.22,2.68,7.78,2.43,6.35,4.93,12.67,7.4,19ZM420.7,356.2l.16,0,.14-.1,2.13-.41.24.19-.2-.25a29.28,29.28,0,0,0-16.67-11.47,49,49,0,0,0-21-1c-14.83,2.3-26.36,16.4-24.7,30.56,1.84,15.7,10.49,26.74,26.26,30.83,7.66,2,15.28,2.39,22.76-.69,14.21-5.84,22.65-22,18.46-38.85-.78-3.14-1.66-6.71-5.24-8.32-.73-.46-1.7.18-2.37-.52Zm-51.64,42.87c-.45,1.84-.79,3.36-1.2,4.87A104.32,104.32,0,0,0,365,445.76c.11.79-.08,1.69.82,2.22,2.88,1.69,5.77,3.5,9.08,4a84.72,84.72,0,0,0,31.26-.75c1.56-.34,2.21-.82,2.07-2.59a181.47,181.47,0,0,1,.79-38.87c.22-1.58-.2-1.84-1.69-1.41-7.8,2.27-15.48,1.31-23.1-.95A41.35,41.35,0,0,1,369.06,399.08Z" transform="translate(-329.54 -200.52)"/><path class="1656ce54-bce2-4848-ab4c-fcf411802aa3" d="M468.14,438.67c-.26,2.23-.54,4.46-.79,6.69-.16,1.39-.38,2.93-2.21,2.62-1.59-.27-1.43-1.67-1.29-3,1.27-12.43,2.32-24.87,2.36-37.37a3.82,3.82,0,0,0-1.79-3.42q-17.24-13.48-14.66-35.29c1.46-12.36,12.8-25.59,28.91-28.21,9.13-1.48,18.2-1.45,26.69,2.46,19.86,9.13,25.72,31.66,13.18,50.22a6.46,6.46,0,0,0-.94,5.92c3,11.4,4,23.1,5,34.79.32,3.65.53,7.31.83,11,.11,1.28,0,2.45-1.53,2.64s-1.9-.93-2-2.24a5.65,5.65,0,0,0-.58-2.87,12,12,0,0,0-.9,5.1,5.61,5.61,0,0,1-4.1,5.58c-1.94.67-2.22,1.76-1.91,3.78a171.9,171.9,0,0,0,7.27,29.23c.13.39.26.79.43,1.17.5,1.13.49,2.22-.76,2.74s-2.15-.27-2.59-1.54a167,167,0,0,1-5.69-19.88c-.79-3.74-1.47-7.5-2.07-11.28-.22-1.36-.68-1.47-1.94-1.2-7.48,1.59-15,1.44-22.6.68a51.69,51.69,0,0,1-6.64-1c-1.41-.33-1.64.07-1.79,1.36-1.06,9.52-1.67,19.07-1.92,28.65,0,.5,0,1,0,1.5,0,1.2-.29,2.24-1.69,2.27-1.59,0-1.86-1.1-1.83-2.38.18-7.66.55-15.31,1.23-22.94.23-2.57.42-5.15.8-7.7.22-1.47-.22-2.23-1.65-2.37-2.59-.25-3.27-1.69-2.9-4.12s.38-4.64.55-7a6.45,6.45,0,0,0,.34-3l0-1.45.23-4.35a3.25,3.25,0,0,0,.16-2.19v-7.53A99,99,0,0,0,468.14,438.67ZM452.8,374.57c.19,2,.23,4,.59,5.95,2.41,13.33,13.88,26.94,31.92,26.19,15.26-.64,28.3-7.44,34-22.36,7.88-20.53-5.69-36.63-21.3-40a51.2,51.2,0,0,0-18.84-.24C467.12,345.9,452.43,357,452.8,374.57Zm19.34,33.74a25.79,25.79,0,0,0,0,2.7c1.44,12.56.64,25.09-.51,37.6-.16,1.74.29,2.47,2,2.91,9.72,2.45,19.57,2.71,29.5,2,3.57-.26,6.74-1.7,9.86-3.32a3.57,3.57,0,0,0,2-2.92,114.48,114.48,0,0,0-2.25-44.57c-.42-1.66-.84-1.62-2-.74a41.15,41.15,0,0,1-16.3,7.2C487,410.78,479.63,410.88,472.15,408.32Z" transform="translate(-329.54 -200.52)"/><path class="50954f38-1bda-457e-9d5f-054e6ae91340" d="M372.28,261.28a22.62,22.62,0,0,0-1.66,6.61c-.12,1.05-.51,1.41-1.59,1.34-1.26-.09-1.2-.74-1.06-1.68a53.69,53.69,0,0,1,2.8-10.56,1.37,1.37,0,0,1,1.65-1.09c.94.11,1.47.38,1.71,1.41.45,1.91,1.08,3.78,1.77,6.14,1.34-2.49,1.55-4.78,2-7,.19-1,.41-1.66,1.66-1.64s1.39.61,1.56,1.51a49.67,49.67,0,0,0,3.46,11.14c.38.85.54,1.43-.6,1.92s-1.51.2-1.86-.76c-.54-1.48-1.1-2.95-1.7-4.4-.17-.41-.2-1.07-.89-1-.51,0-.55.57-.7.92-.36.84-.64,1.71-1,2.54-.28.65-.38,1.55-1.43,1.41a2,2,0,0,1-1.9-1.33C373.85,265.06,373.12,263.39,372.28,261.28Z" transform="translate(-329.54 -200.52)"/><path class="50954f38-1bda-457e-9d5f-054e6ae91340" d="M362.14,291.92a6.88,6.88,0,0,1-7-7.14c0-4.4,4.14-8.53,8.69-8.6a7.15,7.15,0,0,1,7.18,7.1C371.13,287.83,367,291.82,362.14,291.92Zm6.1-8.42a4.36,4.36,0,0,0-4.43-4.65,6.52,6.52,0,0,0-6.08,5.84,4.16,4.16,0,0,0,4.23,4.52A6,6,0,0,0,368.24,283.5Z" transform="translate(-329.54 -200.52)"/><path class="50954f38-1bda-457e-9d5f-054e6ae91340" d="M484.07,269.22a7,7,0,0,1-6.9-7.28c.07-4.44,4.27-8.4,8.88-8.37a7,7,0,0,1,7,7.19C493.08,265.37,489,269.25,484.07,269.22Zm1.82-13a6.3,6.3,0,0,0-6,6.09,4.21,4.21,0,0,0,4.46,4.33,6.24,6.24,0,0,0,6-5.81A4.37,4.37,0,0,0,485.9,256.19Z" transform="translate(-329.54 -200.52)"/><path class="8417ce21-0f6c-447d-9cc5-290db4319c70" d="M452.66,283.85c-.17,4.49-4.33,8.18-9.09,8.06-4-.1-6.77-3.22-6.66-7.45.12-4.43,4.43-8.42,8.94-8.28A7.09,7.09,0,0,1,452.66,283.85Zm-8.92,5.36c3.35,0,6.31-2.64,6.32-5.74a4.46,4.46,0,0,0-4.51-4.62,6.3,6.3,0,0,0-6,5.86C439.52,287.46,441.11,289.18,443.74,289.21Z" transform="translate(-329.54 -200.52)"/><path class="8417ce21-0f6c-447d-9cc5-290db4319c70" d="M411.15,286.45l3.45.88c.86.22,1.46.48,1.13,1.67s-.8,1.24-1.78,1c-1.91-.55-3.87-1-5.77-1.54-1.06-.32-1.69-.27-1.37,1,.28,1.14-.36,1.2-1.2,1.27s-1.4-.06-1.48-1.12q-.45-5.85-1-11.68c-.1-1.05.23-1.54,1.29-1.61a23.28,23.28,0,0,1,6.21.15c2.19.45,4,1.38,4.47,3.74s-.87,3.91-2.78,5.07C411.9,285.53,411.32,285.6,411.15,286.45Zm-5.08-5.28c.24,4.28.25,4.29,4,2.37a13.08,13.08,0,0,0,1.86-1.22c.48-.36.88-.9.6-1.5-1.06-2.31-3.25-1.9-5.17-2C405.17,278.69,406.26,280.32,406.07,281.17Z" transform="translate(-329.54 -200.52)"/><path class="50954f38-1bda-457e-9d5f-054e6ae91340" d="M411.73,259a18.49,18.49,0,0,0,.74,6.62c.25,1,.06,1.43-1,1.75-1.28.37-1.42-.31-1.6-1.16a54.68,54.68,0,0,1-1-11.18c0-.69,0-1.38,1-1.35s1.95-.21,2.52,1a46.82,46.82,0,0,0,5.17,7.82,24.68,24.68,0,0,0-.25-6.64c-.13-1,0-1.56,1.15-1.69s1.5.37,1.56,1.36c.21,3.58.41,7.15.63,10.72a1.31,1.31,0,0,1-1.08,1.62,1.54,1.54,0,0,1-2.08-.66C415.71,264.58,413.87,262,411.73,259Z" transform="translate(-329.54 -200.52)"/><path class="50954f38-1bda-457e-9d5f-054e6ae91340" d="M462.85,284.62c-.15-2-.21-4.08-.48-6.1-.15-1.09.14-1.45,1.17-1.66,1.25-.25,1.45.44,1.5,1.35.21,3.57.39,7.13.61,10.7a1.36,1.36,0,0,1-1.08,1.66,1.65,1.65,0,0,1-2.09-.76c-1.75-2.61-3.6-5.17-5.64-8.06-.47,2.26.19,4.11.53,6,.22,1.17.5,2.1-1.08,2.39-1.73.31-1.38-1.18-1.54-1.94a45.36,45.36,0,0,1-.81-9.92c0-.72-.46-1.82.91-1.89,1,0,1.95-.27,2.54,1A24.06,24.06,0,0,0,462.85,284.62Z" transform="translate(-329.54 -200.52)"/><path class="50954f38-1bda-457e-9d5f-054e6ae91340" d="M434.64,267.52c.12.71-.09,1.17-.88,1.13-.59,0-1.36.52-1.69-.46-.08-.24-.09-.49-.16-.73-1-3.3-1-3.23-4.4-2.7-1.55.25-2.4.86-2.39,2.51,0,1.05-.19,1.95-1.72,1.74-1.84-.25-1-1.38-.84-2.2.43-2.71,1.17-5.39,1.35-8.11s1.37-3.68,3.91-4c2-.25,3.12-.27,3.7,2.07C432.42,260.38,433.92,263.84,434.64,267.52Zm-7.1-5.41c.63-.35,2.48.37,2.35-1.14-.1-1.15,0-3.38-1.9-3.37-2.36,0-1.23,2.39-1.8,3.64C425.78,262.12,426.45,262.35,427.54,262.11Z" transform="translate(-329.54 -200.52)"/><path class="29f9ea68-be11-4e72-812b-ce53ad4c2ac3" d="M432.52,276.22c.64.28,2-.55,1.9,1.11,0,1.18-.48,1.74-1.82,1.68a9.58,9.58,0,0,0-5.73,1.36c-.61.39-1.55.73-1.38,1.59s1.2.67,1.89.71a29.27,29.27,0,0,1,5.46.45,3.1,3.1,0,0,1,1.52,5.62,12.07,12.07,0,0,1-5.76,2.78c-.84.2-1.62.37-1.81-.93-.14-1,0-1.56,1.13-1.73a9.06,9.06,0,0,0,4.13-1.64c.35-.26.65-.58.57-1s-.57-.55-1-.59c-1.82-.15-3.65-.23-5.47-.41-1.53-.15-3.06-.52-3.56-2.21-.55-1.86.43-3.21,1.89-4.24A14.79,14.79,0,0,1,432.52,276.22Z" transform="translate(-329.54 -200.52)"/><path class="29f9ea68-be11-4e72-812b-ce53ad4c2ac3" d="M494.55,261.16c.18-1.3.59-3.76.84-6.23.13-1.34.91-1.36,1.89-1.27,1.24.11.85,1,.77,1.69-.29,2.64-.63,5.27-1,7.9-.2,1.54.58,2,2,2.13,5.45.46,5.77.18,5-5.19-.22-1.64-.59-3.26-.93-4.89-.18-.89,0-1.43,1-1.56.83-.11,1.41-.08,1.6,1,.57,3.1,1.35,6.17,1.3,9.35,0,2.21-1,3.63-3.42,3.74-1.16.05-2.31.26-3.47.27C495.56,268.11,494.46,267,494.55,261.16Z" transform="translate(-329.54 -200.52)"/><path class="8417ce21-0f6c-447d-9cc5-290db4319c70" d="M393.4,276.25a11.44,11.44,0,0,1,5.12.83,4.7,4.7,0,0,1,2.84,4.35c.08,1.79-1.16,2.86-2.63,3.63a8.31,8.31,0,0,1-2.31.91c-2.19.38-4.05.88-3.27,3.83.27,1-.72.82-1.32.94-1,.21-1.24-.28-1.31-1.21-.26-3.48-.47-7-1-10.42-.35-2.32.56-3,2.61-2.86C392.57,276.27,393,276.25,393.4,276.25Zm-.93,5.17c.86.57-1.07,2.89,1.21,2.51,1.82-.3,4.45-.16,4.92-2.82.25-1.42-2.27-2.42-4.88-2.32C391.6,278.88,392.48,280.23,392.48,281.42Z" transform="translate(-329.54 -200.52)"/><path class="8417ce21-0f6c-447d-9cc5-290db4319c70" d="M437.33,306.21c-2.06,10.07-6.13,19.09-13.65,26.32-.66.63-1.4,1.12-2.16.41-1-.9-.18-1.65.48-2.3,6.91-6.72,10.77-15,12.68-24.34.2-1,.39-2.11,1.79-1.87C437.42,304.6,437.5,305.39,437.33,306.21Z" transform="translate(-329.54 -200.52)"/><path class="8417ce21-0f6c-447d-9cc5-290db4319c70" d="M468.5,254.64c-.33.35-.54.74-.87.92-4.1,2.21-3.65,6-3.5,9.73,0,1,1.56,3.1-1,3.26s-1-2-1.49-3.1a2,2,0,0,1,0-1c.47-3.84-.77-6.72-4.43-8.45-.76-.36-2.22-.75-1-2.33s1.78-.17,2.6.24a5.18,5.18,0,0,1,.62.42c3.21,2.26,3.21,2.26,6.12-.33.46-.41.83-1.25,1.59-.86C467.58,253.42,467.94,254,468.5,254.64Z" transform="translate(-329.54 -200.52)"/><path class="50954f38-1bda-457e-9d5f-054e6ae91340" d="M377.53,278.17c.89.44,2.44-1,3,.8.26.77.4,1.92-1.16,1.8a13.06,13.06,0,0,0-2,.11c-2.33.18-3.21,1.6-2.26,3.7.52,1.15,1.43.26,2.16.33.89.09,2.15-1,2.38,1,.2,1.84-1.11,1.65-2.05,1.65-1.71,0-2.41.58-2,2.35.17.82.48,1.73-1.09,1.89-1.72.18-1.42-.86-1.51-1.81-.28-3.07-.5-6.14-.89-9.2-.22-1.69.23-2.45,2-2.36A26.93,26.93,0,0,0,377.53,278.17Z" transform="translate(-329.54 -200.52)"/><path class="8417ce21-0f6c-447d-9cc5-290db4319c70" d="M393.47,259.22c-.2-3.48-.2-3.47,3.17-3.58,1.24,0,2.5,0,3.73-.16s1.4.37,1.45,1.38-.37,1.32-1.3,1.29a21,21,0,0,1-2.24,0c-2-.28-2.32.68-2.14,2.43.14,1.43.62,1.89,2,1.6a4.48,4.48,0,0,1,2.21,0c.71.23.57,1.12.56,1.74,0,.86-.76.75-1.3.77-2,.07-3.64.42-2.77,3.11.34,1.05-.45,1.2-1.28,1.29-1,.11-1.34-.32-1.41-1.23C394,265,393.71,262.11,393.47,259.22Z" transform="translate(-329.54 -200.52)"/><path class="50954f38-1bda-457e-9d5f-054e6ae91340" d="M517.89,253.91c1.22-.33,1.27.37,1.41,1.05s.2,1.35-.74,1.49a11,11,0,0,1-2,.21c-1.24,0-1.55.53-1.46,1.68.22,2.65.37,5.31.52,8,0,.88.31,1.82-1.19,1.9s-1.38-.71-1.43-1.69c-.12-2.49-.4-5-.43-7.47,0-1.59-.51-2.09-2.07-1.68-.76.2-1.79.8-2-.83-.19-1.45.54-1.68,1.67-1.79C512.83,254.49,515.47,254.17,517.89,253.91Z" transform="translate(-329.54 -200.52)"/><path class="50954f38-1bda-457e-9d5f-054e6ae91340" d="M449.9,268.75c-2.23.66-2.8-.39-2.79-2.53,0-3.15-.31-6.3-.48-9.45,0-.83-.22-1.61,1.12-1.68s1.51.51,1.55,1.58c.1,2.57.38,5.14.38,7.71,0,1.66.68,2,2.11,1.69a23,23,0,0,0,2.9-.7c1.15-.44,1.8-.33,2.21,1,.51,1.64-.89,1.35-1.55,1.58A14.59,14.59,0,0,1,449.9,268.75Z" transform="translate(-329.54 -200.52)"/><path class="8417ce21-0f6c-447d-9cc5-290db4319c70" d="M436.14,261.72c-.08-1.66-.13-3.32-.24-5-.06-.88-.18-1.6,1.13-1.66s1.52.52,1.56,1.6c.1,2.65.39,5.3.42,7.95,0,1.41.57,1.72,1.77,1.45s2.43-.51,3.61-.89c1-.32,1.34.14,1.64.93s.23,1.31-.77,1.64a27.24,27.24,0,0,1-7.59,1.1c-1.14,0-1.11-.65-1.16-1.44-.11-1.9-.26-3.81-.4-5.71Z" transform="translate(-329.54 -200.52)"/><path class="29f9ea68-be11-4e72-812b-ce53ad4c2ac3" d="M403.55,258.51c-.09-1-.15-2-.28-3s.07-1.41,1.12-1.44,1.58.06,1.64,1.25c.23,3.89.48,7.79.85,11.67.12,1.26-.55,1.33-1.42,1.47-1.07.18-1.26-.43-1.32-1.29-.21-2.9-.45-5.79-.67-8.68Z" transform="translate(-329.54 -200.52)"/><path class="29f9ea68-be11-4e72-812b-ce53ad4c2ac3" d="M358.69,265.49c-.56.83,1.32,2.62-1.1,3-.9.14-1.4,0-1.47-1.06q-.4-6-.89-11.91c-.08-.92.14-1.36,1.17-1.4s1.54.18,1.6,1.3C358.18,258.71,358.45,262,358.69,265.49Z" transform="translate(-329.54 -200.52)"/><path class="29f9ea68-be11-4e72-812b-ce53ad4c2ac3" d="M421.17,289a3.56,3.56,0,0,0,0,.83c.1,1-.38,1.27-1.3,1.31s-1.31-.28-1.37-1.24c-.26-3.8-.58-7.59-.89-11.39-.08-1-.07-1.75,1.29-1.84s1.3.92,1.38,1.77C420.58,281.78,420.84,285.08,421.17,289Z" transform="translate(-329.54 -200.52)"/><path class="29f9ea68-be11-4e72-812b-ce53ad4c2ac3" d="M468.17,278c-.16-1.19-.25-1.89,1-2.05s1.53.43,1.61,1.49c.18,2.14.38,4.29.68,6.41.16,1.09-.24,1.44-1.25,1.62-1.21.21-1.43-.46-1.51-1.37C468.54,282,468.34,279.83,468.17,278Z" transform="translate(-329.54 -200.52)"/><path class="29f9ea68-be11-4e72-812b-ce53ad4c2ac3" d="M361.52,254.84c.16-1-.92-2.46,1.13-2.6.47,0,1.19-.26,1.28.33a46.2,46.2,0,0,1,.42,5.37,5.25,5.25,0,0,1-1.55.39c-.82.15-1-.46-1-1C361.66,256.47,361.6,255.65,361.52,254.84Z" transform="translate(-329.54 -200.52)"/><path class="c537fc51-143a-48a5-a4c7-13c42bd9daaa" d="M468.14,438.67a99,99,0,0,1,1.27-14v7.53a2.69,2.69,0,0,0-.16,2.19l-.23,4.35Z" transform="translate(-329.54 -200.52)"/><path class="50954f38-1bda-457e-9d5f-054e6ae91340" d="M470.15,288.2c1.18-.24,1.49.39,1.59,1.48s-.35,1.22-1.25,1.24c-1.06,0-1.42-.41-1.48-1.43S469,288,470.15,288.2Z" transform="translate(-329.54 -200.52)"/><path class="c537fc51-143a-48a5-a4c7-13c42bd9daaa" d="M469,440.14a6.45,6.45,0,0,1-.34,3C468.5,442.14,468.26,441.09,469,440.14Z" transform="translate(-329.54 -200.52)"/><path class="17f76b45-2aa4-40b1-afa1-4539e96d5b70" d="M423,356.73c3.57,1.61,4.45,5.18,5.24,8.32,4.19,16.83-4.25,33-18.46,38.85-7.48,3.08-15.1,2.68-22.76.69-15.77-4.09-24.42-15.13-26.26-30.83-1.66-14.16,9.88-28.26,24.7-30.56a49,49,0,0,1,21,1,29.28,29.28,0,0,1,16.67,11.47l0,.06-2.13.41-.17-.08-.13.14h0c-3.37,1-4.61,2.28-4.36,4.36C420.16,357,420.16,357,423,356.73Zm-27.9-3a5.09,5.09,0,0,0-2.76,3.7,25.52,25.52,0,0,1,3.34-3.17,6.66,6.66,0,0,1,5.08,0c1.6.74,2.09,2.62,3.73,3.51A6.15,6.15,0,0,0,395.12,353.69Zm17.49,27,2-.13c1.9-.11,1.92-.14.95-2.42.23,2.09-1.2,1.31-2,1.62-7.78-.91-15.6-1.19-23.41-1.63-3.85-.21-5.14,1.24-4.4,5,2.49,12.65,10.41,15.21,20.66,13.3,5-.94,6.86-4,6.35-9.05A25.18,25.18,0,0,1,412.61,380.67Zm-15-11.77a3.82,3.82,0,0,0-2.19.83,4.53,4.53,0,0,0-1.71,4.9c.53,1.92,2.25.8,3.42,1.06a21.87,21.87,0,0,0,2.49.22c3,.32,3.71-.51,3.1-3.45C402.24,370.19,400.45,368.84,397.59,368.9Zm23.81,7.73v.05a12.4,12.4,0,0,1,3,0c1.91.49,1.95-.6,1.75-1.87-.58-3.76-3.73-4.61-7-3.33a3.66,3.66,0,0,0-2.14,4.36c.37,1.77,2.1.4,3.17.73A4.35,4.35,0,0,0,421.4,376.62Z" transform="translate(-329.54 -200.52)"/><path class="22a40dcb-2f46-4449-8c63-4a8fe6187900" d="M369.06,399.08a41.35,41.35,0,0,0,15.17,8.33c7.63,2.26,15.31,3.22,23.1.95,1.49-.43,1.91-.17,1.69,1.41a181.47,181.47,0,0,0-.79,38.87c.14,1.78-.51,2.25-2.07,2.59a84.72,84.72,0,0,1-31.26.75c-3.31-.51-6.21-2.32-9.08-4-.9-.53-.71-1.43-.82-2.22a104.32,104.32,0,0,1,2.86-41.81C368.26,402.44,368.61,400.92,369.06,399.08Z" transform="translate(-329.54 -200.52)"/><path class="0fc1d2ae-039f-471e-9143-1906189ad863" d="M423,356.73c-2.86.23-2.86.23-6.74,3.84-.25-2.07,1-3.32,4.36-4.36C421.32,356.91,422.29,356.27,423,356.73Z" transform="translate(-329.54 -200.52)"/><path class="0fc1d2ae-039f-471e-9143-1906189ad863" d="M423.17,355.67l.2.25-.24-.19Z" transform="translate(-329.54 -200.52)"/><polygon class="0fc1d2ae-039f-471e-9143-1906189ad863" points="91.15 155.69 91.29 155.55 91.45 155.63 91.32 155.73 91.15 155.69"/><path class="17f76b45-2aa4-40b1-afa1-4539e96d5b70" d="M452.8,374.57c-.37-17.56,14.32-28.68,26.39-30.5a51.2,51.2,0,0,1,18.84.24c15.61,3.42,29.18,19.52,21.3,40-5.73,14.92-18.76,21.72-34,22.36-18,.75-29.51-12.86-31.92-26.19C453,378.57,453,376.56,452.8,374.57Zm35.81-.71a4.41,4.41,0,0,0-4.27-4.78,4.55,4.55,0,0,0-5,4.65,4.62,4.62,0,1,0,9.24.13Zm-23.42.73c0-2.87-1.73-4.53-4.7-4.51a4.44,4.44,0,0,0-4.48,4.59,4.58,4.58,0,0,0,4.82,4.6A4.4,4.4,0,0,0,465.2,374.59Zm9.31,8.2c5.68.22,12.8.35,19.41-3C487.1,381.85,479.9,381.43,474.51,382.79Z" transform="translate(-329.54 -200.52)"/><path class="cd7d2ec0-631e-4e1b-b5d9-49c800cc31cc" d="M472.15,408.32c7.48,2.56,14.89,2.46,22.32.87a41.15,41.15,0,0,0,16.3-7.2c1.18-.88,1.6-.92,2,.74A114.48,114.48,0,0,1,515,447.28a3.57,3.57,0,0,1-2,2.92c-3.12,1.62-6.29,3.06-9.86,3.32-9.92.71-19.77.46-29.5-2-1.73-.44-2.19-1.16-2-2.91,1.16-12.52,2-25,.51-37.6A25.79,25.79,0,0,1,472.15,408.32Z" transform="translate(-329.54 -200.52)"/><path class="85b3364f-dd42-404f-80b7-5fb73d9a5590" d="M469.24,434.34a2.69,2.69,0,0,1,.16-2.19A3.25,3.25,0,0,1,469.24,434.34Z" transform="translate(-329.54 -200.52)"/><path class="5dd48317-68ef-4c96-a5da-51594f1ca87b" d="M368.24,283.5a6,6,0,0,1-6.28,5.71,4.16,4.16,0,0,1-4.23-4.52,6.52,6.52,0,0,1,6.08-5.84A4.36,4.36,0,0,1,368.24,283.5Z" transform="translate(-329.54 -200.52)"/><path class="5dd48317-68ef-4c96-a5da-51594f1ca87b" d="M485.9,256.19a4.37,4.37,0,0,1,4.47,4.6,6.24,6.24,0,0,1-6,5.81,4.21,4.21,0,0,1-4.46-4.33A6.3,6.3,0,0,1,485.9,256.19Z" transform="translate(-329.54 -200.52)"/><path class="5dd48317-68ef-4c96-a5da-51594f1ca87b" d="M443.74,289.21c-2.62,0-4.22-1.75-4.19-4.5a6.3,6.3,0,0,1,6-5.86,4.46,4.46,0,0,1,4.51,4.62C450,286.57,447.08,289.26,443.74,289.21Z" transform="translate(-329.54 -200.52)"/><path class="bd58e94a-1306-4e77-b241-3ba46d895409" d="M406.07,281.17c.19-.85-.9-2.48,1.25-2.36,1.92.11,4.11-.3,5.17,2,.28.6-.12,1.14-.6,1.5a13.08,13.08,0,0,1-1.86,1.22C406.32,285.46,406.32,285.45,406.07,281.17Z" transform="translate(-329.54 -200.52)"/><path class="bd58e94a-1306-4e77-b241-3ba46d895409" d="M427.54,262.11c-1.09.24-1.76,0-1.35-.88.57-1.25-.57-3.62,1.8-3.64,1.93,0,1.79,2.23,1.9,3.37C430,262.48,428.17,261.76,427.54,262.11Z" transform="translate(-329.54 -200.52)"/><path class="bd58e94a-1306-4e77-b241-3ba46d895409" d="M392.48,281.42c0-1.19-.87-2.55,1.24-2.63,2.62-.1,5.13.89,4.88,2.32-.46,2.67-3.1,2.52-4.92,2.82C391.41,284.31,393.33,282,392.48,281.42Z" transform="translate(-329.54 -200.52)"/><path class="c7d3276a-a01e-4162-923b-93cc4bd5f841" d="M412.61,380.67a25.18,25.18,0,0,0,.17,6.72c.51,5.1-1.33,8.11-6.35,9.05-10.25,1.92-18.16-.64-20.66-13.3-.75-3.8.55-5.25,4.4-5,7.81.43,15.63.72,23.41,1.63C413.32,380.12,412.65,380.07,412.61,380.67Z" transform="translate(-329.54 -200.52)"/><path class="1656ce54-bce2-4848-ab4c-fcf411802aa3" d="M397.59,368.9c2.86-.05,4.64,1.3,5.11,3.57.6,2.93-.15,3.76-3.1,3.45a21.87,21.87,0,0,1-2.49-.22c-1.17-.26-2.89.86-3.42-1.06a4.53,4.53,0,0,1,1.71-4.9A3.82,3.82,0,0,1,397.59,368.9Z" transform="translate(-329.54 -200.52)"/><path class="c7d3276a-a01e-4162-923b-93cc4bd5f841" d="M421.4,376.62a4.35,4.35,0,0,1-1.24,0c-1.07-.33-2.8,1-3.17-.73a3.66,3.66,0,0,1,2.14-4.36c3.27-1.28,6.42-.43,7,3.33.19,1.27.15,2.36-1.75,1.87a12.4,12.4,0,0,0-3,0Z" transform="translate(-329.54 -200.52)"/><path class="29f9ea68-be11-4e72-812b-ce53ad4c2ac3" d="M395.12,353.69a6.15,6.15,0,0,1,9.4,4.07c-1.64-.89-2.14-2.77-3.73-3.51a6.66,6.66,0,0,0-5.08,0Z" transform="translate(-329.54 -200.52)"/><path class="0fc1d2ae-039f-471e-9143-1906189ad863" d="M412.61,380.67c0-.6.71-.54,1-.93.78-.31,2.21.46,2-1.62,1,2.27,1,2.31-.95,2.42Z" transform="translate(-329.54 -200.52)"/><path class="0fc1d2ae-039f-471e-9143-1906189ad863" d="M395.12,353.69l.58.54a25.52,25.52,0,0,0-3.34,3.17A5.09,5.09,0,0,1,395.12,353.69Z" transform="translate(-329.54 -200.52)"/><path class="1656ce54-bce2-4848-ab4c-fcf411802aa3" d="M488.62,373.87a4.62,4.62,0,1,1-9.24-.13,4.55,4.55,0,0,1,5-4.65A4.41,4.41,0,0,1,488.62,373.87Z" transform="translate(-329.54 -200.52)"/><path class="c7d3276a-a01e-4162-923b-93cc4bd5f841" d="M465.2,374.59a4.4,4.4,0,0,1-4.36,4.68,4.58,4.58,0,0,1-4.82-4.6,4.44,4.44,0,0,1,4.48-4.59C463.48,370.06,465.21,371.72,465.2,374.59Z" transform="translate(-329.54 -200.52)"/><path class="0fc1d2ae-039f-471e-9143-1906189ad863" d="M474.51,382.79c5.38-1.36,12.58-.95,19.41-3C487.31,383.14,480.19,383,474.51,382.79Z" transform="translate(-329.54 -200.52)"/></svg>