<svg id="b5918fc9-e685-40f4-a692-b2da9b727a36" data-name="Capa 1" xmlns="http://www.w3.org/2000/svg" viewBox="0 0 33 29.82"><title>cards-icon</title><path d="M443,730.72v3.94c-1.16,3.08-2,3.63-5.25,3.56a30.4,30.4,0,0,0-4.12-.11c-2.47.29-5,.64-6.83,2.59a3.55,3.55,0,0,1-.72.51,3.8,3.8,0,0,1-5.18-1q-5.18-7.55-10.28-15.16a3.72,3.72,0,0,1,.61-4.85,28.93,28.93,0,0,1,3.71-2.91,24.41,24.41,0,0,1,8.38-3.76c1-.19,2-.56,2.94-.81a19.35,19.35,0,0,1,2.66-.55c1.2-.13,2.42-.12,3.63-.17h6.9c2.38.75,3.32,2.42,3.3,4.85,0,3.84.05,7.69.11,11.53C442.87,729.16,443,729.94,443,730.72ZM426,725h.21c0,2.89,0,5.78,0,8.67,0,1.91.87,2.76,2.78,2.74q4.87-.05,9.75-.14a2.33,2.33,0,0,0,2.59-2.64q-.1-8.67-.24-17.33c0-1.91-.9-2.72-2.84-2.69l-9.65.14c-1.81,0-2.61.86-2.61,2.69Q426,720.72,426,725Zm-9.41-6.78c-2.09,1.12-2.36,1.93-1.3,4.11l5.79,11.93c.15.31.32.62.47.93l.18-.07Zm4-2.14c-2,.55-2.55,1.56-2,3.47q1.06,3.48,2.12,7,1.27,4.14,2.55,8.28c-.42-3.23-1-6.41-1.51-9.61C421.38,722.15,420.39,719.2,420.63,716.09ZM412.89,721a2.23,2.23,0,0,0-.74,3.49c1.44,2.15,2.9,4.29,4.36,6.43l3.3,4.87.18-.1Zm11.58,10.07V715.2c-1.76.26-2.56,1.31-2.29,2.87q.77,4.45,1.54,8.9C424,728.28,424.21,729.59,424.48,731.05Z" transform="translate(-410 -712)"/></svg>