<svg id="5b9fc8da-1ff3-484a-8529-f1a5b9a53f18" data-name="Capa 1" xmlns="http://www.w3.org/2000/svg" viewBox="0 0 238.62 278.95"><defs><style>.\33 5532e8b-cb46-4acf-a61b-d5905da1b204{font-size:32.9px;font-family:CreativeBlockBB, CreativeBlock BB;}.f3e2cfd0-c765-4a5e-8734-55d126621fcf{fill:#121212;}.ed567a4d-5874-4288-b67a-1c3dc90f2083{fill:#151515;}.d68f06f9-8804-4288-9e80-7bde06aeda9a{fill:#f4c99e;}.\33 bc6c17d-4138-4bce-b3cc-000140e52039{fill:#93b3c5;}.effa1f8a-a803-42fb-85f3-920213100309{fill:#f8f8f8;}.\39 c473a0a-88e6-4098-af7b-2c2848363067{fill:#f6f6f6;}.\38 c66dc82-f10f-40a6-b2b6-4f4e37521be7{fill:#0a0807;}.e8a36948-4eff-448b-bc36-b1c0be84872c{fill:#635241;}.\36 70e4d5d-20a9-431b-95a0-864f5741d511{fill:none;}.fbd438d2-c819-485e-b14d-ad084e9e9414{fill:#0b0b0b;}</style></defs><title>create-new-game</title><text class="35532e8b-cb46-4acf-a61b-d5905da1b204" transform="translate(123.61 26.6)">Create <tspan x="-35.22" y="39.48">New GAME</tspan></text><path class="f3e2cfd0-c765-4a5e-8734-55d126621fcf" d="M402.28,620.13c-1.18,13-7.26,23.58-17.45,31.89a64.31,64.31,0,0,1-7.29,5c-1,.61-2.14,1.06-2.91-.26s.33-1.83,1.23-2.38c7.39-4.52,13.77-10.08,18.07-17.73a40.64,40.64,0,0,0,5-16.34q.12-1.31.3-2.62c.12-.89.56-1.52,1.55-1.47a1.45,1.45,0,0,1,1.47,1.56C402.31,618.51,402.28,619.23,402.28,620.13Z" transform="translate(-266.03 -536.19)"/><path class="ed567a4d-5874-4288-b67a-1c3dc90f2083" d="M459.63,572.77c.25,1.44-.71,1.24-1.59,1.34-1.81.2-1.76-1-1.93-2.22-.22-1.58.86-1.26,1.77-1.37C459.81,570.3,459.52,571.69,459.63,572.77Z" transform="translate(-266.03 -536.19)"/><path class="d68f06f9-8804-4288-9e80-7bde06aeda9a" d="M331.16,731c-13.5-.43-23.26-2.64-32-8.37-9.93-6.47-15.53-16-18.23-27.16-2.75-11.35-.94-22.07,6.41-31.49A37.94,37.94,0,0,1,307,650.22c12.83-3.66,25.68-3.55,38,1.57a38.93,38.93,0,0,1,22.34,23.11,40.23,40.23,0,0,1,.52,25.67c-3.32,11.24-9.72,20.25-20.31,25.78C341.49,729.54,335,731.24,331.16,731Zm.54-41.18a30.09,30.09,0,0,1-16-2.32c-1.43-.61-1.68.34-2,1.23-1.27,3.46-1.73,7.06.84,10s6.35,3.08,10,2.34c2.69-.55,3.46-1.73,3.56-4.53S328.13,690.89,331.7,689.79ZM340.06,678c0,3.42,2.41,6.3,5.42,6.37a6.28,6.28,0,0,0,6.6-6.1,6,6,0,0,0-5.82-6C342.58,672.23,340.1,674.53,340.06,678Zm-24.55-6.85a5.86,5.86,0,0,0-6.06,5.72,6.16,6.16,0,0,0,6.06,6.34,5.94,5.94,0,0,0,6-6.06C321.51,673.58,319.19,671.24,315.51,671.15ZM323,703.7c3.5.44,4.8-.17,4.91-2.27A7.32,7.32,0,0,1,323,703.7Z" transform="translate(-266.03 -536.19)"/><path class="3bc6c17d-4138-4bce-b3cc-000140e52039" d="M291.81,722.73A50.12,50.12,0,0,0,305.69,731c11.87,4.52,24,5.94,36.36,2.32,2.46-.72,2.55.13,2.38,2.13a246.47,246.47,0,0,0-.75,31.58c.28,6.54.73,13.07,1.57,19.56.19,1.45-.15,2.15-1.66,2.53a112.18,112.18,0,0,1-39.17,3c-5.25-.54-9.82-2.55-14.34-5a3.18,3.18,0,0,1-1.72-2.62,138.35,138.35,0,0,1,1.7-53.5C290.66,728.43,291.17,725.77,291.81,722.73Z" transform="translate(-266.03 -536.19)"/><path class="effa1f8a-a803-42fb-85f3-920213100309" d="M282.19,762.12c-6.91-6.31-12.35-12.53-11.16-22.09a19.62,19.62,0,0,1,3.57-8.52,42.94,42.94,0,0,1,13.3-12.59C285.21,733,281.92,747,282.19,762.12Z" transform="translate(-266.03 -536.19)"/><path class="9c473a0a-88e6-4098-af7b-2c2848363067" d="M347.73,749.32c.43-6.1.8-11.43,1.19-16.76a9.09,9.09,0,0,1,.24-1.42c.29-1.21,1.46-1.43,2.33-1.86s1.36.62,1.78,1.19a37.59,37.59,0,0,1,5.62,9.7c1.95,5.45.77,10.19-3.1,14.37a29.74,29.74,0,0,1-6.55,5.18c-1.08.65-1.55.52-1.53-.85C347.75,755.44,347.73,752,347.73,749.32Z" transform="translate(-266.03 -536.19)"/><path class="8c66dc82-f10f-40a6-b2b6-4f4e37521be7" d="M331.7,689.79c-3.57,1.11-3.5,4-3.6,6.71s-.87,4-3.56,4.53c-3.66.74-7.39.64-10-2.34s-2.1-6.53-.84-10c.33-.89.58-1.84,2-1.23A30.09,30.09,0,0,0,331.7,689.79Z" transform="translate(-266.03 -536.19)"/><path class="8c66dc82-f10f-40a6-b2b6-4f4e37521be7" d="M340.06,678c0-3.47,2.52-5.77,6.2-5.75a6,6,0,0,1,5.82,6,6.28,6.28,0,0,1-6.6,6.1C342.47,684.3,340,681.42,340.06,678Z" transform="translate(-266.03 -536.19)"/><path class="8c66dc82-f10f-40a6-b2b6-4f4e37521be7" d="M315.51,671.15c3.68.09,6,2.43,6,6a5.94,5.94,0,0,1-6,6.06,6.16,6.16,0,0,1-6.06-6.34A5.86,5.86,0,0,1,315.51,671.15Z" transform="translate(-266.03 -536.19)"/><path class="e8a36948-4eff-448b-bc36-b1c0be84872c" d="M323,703.7a7.32,7.32,0,0,0,4.91-2.27C327.84,703.53,326.55,704.14,323,703.7Z" transform="translate(-266.03 -536.19)"/><path class="670e4d5d-20a9-431b-95a0-864f5741d511" d="M367.9,700.57a40.22,40.22,0,0,0-.52-25.67A38.93,38.93,0,0,0,345,651.79c-12.36-5.12-25.21-5.23-38-1.57A37.94,37.94,0,0,0,287.3,664c-7.35,9.42-9.16,20.13-6.41,31.49,2.7,11.18,8.3,20.69,18.23,27.16,8.78,5.72,18.53,7.93,32,8.37,3.79.27,10.32-1.43,16.43-4.62C358.18,720.82,364.58,711.81,367.9,700.57Z" transform="translate(-266.03 -536.19)"/><path class="670e4d5d-20a9-431b-95a0-864f5741d511" d="M343.68,767.07a246.5,246.5,0,0,1,.75-31.58c.17-2,.08-2.85-2.38-2.13-12.37,3.62-24.49,2.19-36.36-2.32a50.13,50.13,0,0,1-13.89-8.31c-.64,3-1.14,5.7-1.75,8.34a138.35,138.35,0,0,0-1.7,53.5,3.18,3.18,0,0,0,1.72,2.62c4.52,2.42,9.09,4.44,14.34,5a112.18,112.18,0,0,0,39.17-3c1.51-.38,1.85-1.07,1.66-2.53C344.41,780.14,344,773.61,343.68,767.07Z" transform="translate(-266.03 -536.19)"/><path class="670e4d5d-20a9-431b-95a0-864f5741d511" d="M337.08,795.11a107.36,107.36,0,0,1-35.49,1.12,14,14,0,0,1-1.87-.39c-3.14-.85-3.12-.86-3.63,2.36-.9,5.71-2,11.35-3.37,16.95h47.92c-.39-6.12-.82-12.23-1.43-18.34C339.06,795.25,338.73,794.77,337.08,795.11Z" transform="translate(-266.03 -536.19)"/><path class="670e4d5d-20a9-431b-95a0-864f5741d511" d="M274.6,731.5A19.61,19.61,0,0,0,271,740c-1.2,9.56,4.25,15.78,11.16,22.09-.26-15.09,3-29.08,5.71-43.2A42.94,42.94,0,0,0,274.6,731.5Z" transform="translate(-266.03 -536.19)"/><path class="670e4d5d-20a9-431b-95a0-864f5741d511" d="M353.28,730.47c-.42-.57-.79-1.68-1.79-1.19s-2,.65-2.33,1.86a9.06,9.06,0,0,0-.24,1.42c-.39,5.33-.76,10.67-1.19,16.76,0,2.68,0,6.11,0,9.55,0,1.37.45,1.5,1.53.85a29.72,29.72,0,0,0,6.55-5.18c3.87-4.18,5-8.92,3.1-14.37A37.59,37.59,0,0,0,353.28,730.47Z" transform="translate(-266.03 -536.19)"/><path class="fbd438d2-c819-485e-b14d-ad084e9e9414" d="M356.55,726.56c-.15-1.74,2.19-2.47,3.37-3.71,12.12-12.8,16.53-28,12.85-45.06-3.23-15-13.3-24.84-27.18-30.61-8.2-3.41-17-4.31-25.87-3.72-8.43.56-16.59,2.25-23.9,6.88-10.9,6.9-17.92,16.57-20,29.3-2,12,1.34,23.11,7.79,33.27,1,1.61.82,2.33-.61,3.4a56.54,56.54,0,0,0-11.13,10.81c-4.11,5.32-6.4,11.19-5.7,18,.79,7.74,5.32,13.36,10.7,18.41,1.64,1.53,2.72,2.59.31,4.31A1.93,1.93,0,0,0,277,771a2.25,2.25,0,0,0,3.4.17c.54-.44.81-1.2,1.82-1.36.53,4.5,1.32,8.84,1.47,13.2.17,4.79,2.4,7.71,6.73,9.29,1.36.49,1.67,1.25,1.43,2.74-1.07,6.79-2.44,13.5-4.07,20.15h4.93c1.34-5.6,2.48-11.24,3.37-16.95.51-3.22.49-3.22,3.63-2.36a14,14,0,0,0,1.87.39,107.36,107.36,0,0,0,35.49-1.12c1.65-.34,2,.14,2.13,1.7.61,6.1,1,12.22,1.43,18.34h4.86c-.44-6.19-1-12.37-1.65-18.54-.28-2.53.51-3.26,2.7-3.81,3.27-.82,3.45-1.31,3.13-4.75-.53-5.8-1.08-11.6-1.54-17.41-.09-1.12-.83-2.63.2-3.31.82-.53,1.67.91,2.58,1.33,1.16.52,2.3.81,3.19-.45.73-1,.94-2.31-.11-3-2.45-1.64-.81-2.27.54-3.19,5-3.4,8.77-7.66,9.79-13.86,1.09-6.62-1.58-12.18-5-17.5C358.4,729.24,356.68,728,356.55,726.56Zm-74.37,35.56c-6.91-6.31-12.35-12.53-11.16-22.09a19.61,19.61,0,0,1,3.57-8.52,42.94,42.94,0,0,1,13.3-12.59C285.21,733,281.92,747,282.19,762.12Zm61.41,27a112.18,112.18,0,0,1-39.17,3c-5.25-.54-9.82-2.55-14.34-5a3.18,3.18,0,0,1-1.72-2.62,138.35,138.35,0,0,1,1.7-53.5c.61-2.64,1.11-5.29,1.75-8.34A50.13,50.13,0,0,0,305.69,731c11.87,4.52,24,5.94,36.36,2.32,2.46-.72,2.55.13,2.38,2.13a246.5,246.5,0,0,0-.75,31.58c.28,6.54.73,13.07,1.57,19.56C345.44,788.08,345.11,788.78,343.59,789.16ZM331.16,731c-13.5-.43-23.26-2.64-32-8.37-9.93-6.47-15.53-16-18.23-27.16-2.75-11.35-.94-22.07,6.41-31.49A37.94,37.94,0,0,1,307,650.22c12.83-3.66,25.68-3.55,38,1.57a38.93,38.93,0,0,1,22.34,23.11,40.22,40.22,0,0,1,.52,25.67c-3.32,11.24-9.72,20.25-20.31,25.78C341.49,729.54,335,731.24,331.16,731Zm24.64,23.56a29.72,29.72,0,0,1-6.55,5.18c-1.08.65-1.55.52-1.53-.85,0-3.43,0-6.87,0-9.55.43-6.1.8-11.43,1.19-16.76a9.06,9.06,0,0,1,.24-1.42c.29-1.21,1.46-1.43,2.33-1.86s1.36.62,1.79,1.19a37.59,37.59,0,0,1,5.62,9.7C360.85,745.62,359.67,750.35,355.8,754.53Z" transform="translate(-266.03 -536.19)"/></svg>