<svg id="53d1eb39-bbe8-464a-b0ad-a806aa64b98b" data-name="Capa 1" xmlns="http://www.w3.org/2000/svg" viewBox="0 0 46 46"><defs><style>.a0089ba8-428c-4a97-8b68-e69a64aab08d{fill:#ef4639;}.\33 6210ba0-913c-478e-93dd-43c1bee75985{fill:#fff;}</style></defs><title>delete-icon</title><circle class="a0089ba8-428c-4a97-8b68-e69a64aab08d" cx="23" cy="23" r="23"/><path class="36210ba0-913c-478e-93dd-43c1bee75985" d="M465.69,737.34c1.08-1,2.12-2,3.11-3s2.15-2.19,3.22-3.28a2.21,2.21,0,0,1,2.36-.54,2,2,0,0,1,1.52,1.81,2.47,2.47,0,0,1-.79,2.11l-5.83,5.83a4.18,4.18,0,0,1-.43.32l2.43,2.41,4,4a2.36,2.36,0,0,1-1.13,3.93,2.06,2.06,0,0,1-2-.69L469,747.2l-3-3-.31-.28-.38.36c-2,2-4,4-6,5.95a2.14,2.14,0,0,1-3.69-1,2.4,2.4,0,0,1,.72-2.37l5.8-5.8c.12-.12.26-.22.43-.37l-.36-.38-5.92-5.92a2.3,2.3,0,1,1,3.27-3.22c1.55,1.53,3.09,3.08,4.63,4.63C464.75,736.36,465.26,736.89,465.69,737.34Z" transform="translate(-443 -718)"/></svg>