<svg id="a0955ef8-f5ea-48b1-8ea2-c05415b5f40c" data-name="Capa 1" xmlns="http://www.w3.org/2000/svg" viewBox="0 0 58.25 58.25"><defs><style>.\36 f2884cc-9f61-4340-9fcc-42be6caf9f62{fill:#1d529c;}.\30 5183487-2cf1-4b0c-9e50-dd89a041e58e{fill:#fff;}</style></defs><title>facebook-icon</title><path class="6f2884cc-9f61-4340-9fcc-42be6caf9f62" d="M466.21,770a29.13,29.13,0,1,1,29.1-29.69A29,29,0,0,1,466.21,770ZM469,741.11c1.4,0,2.7,0,4,0,.49,0,.75-.13.8-.68.12-1.59.26-3.17.46-4.75.09-.73-.2-.9-.84-.89-1.28,0-2.57,0-3.85,0-.46,0-.66-.15-.64-.62,0-.85,0-1.7.05-2.54.11-1.48.64-2,2.13-2,.82,0,1.65,0,2.47,0,.64,0,.85-.22.83-.85q-.06-2.2,0-4.39c0-.67-.23-.92-.89-.9-1.85.06-3.7.07-5.54.13a6.25,6.25,0,0,0-6.29,5.86c-.16,1.58-.11,3.18-.13,4.77,0,.5-.16.68-.67.66-.74,0-1.49,0-2.23,0-.49,0-.69.17-.68.68,0,1,0,2.06,0,3.08,0,2.56,0,2.56,2.54,2.45,1,0,1,0,1,1,0,5.16,0,10.33,0,15.49,0,.72.2,1,1,1,1.87,0,3.75,0,5.63,0,.66,0,.93-.22.91-.89,0-1.62,0-3.24,0-4.86C469,749,469,745.11,469,741.11Z" transform="translate(-437.07 -711.79)"/><path class="05183487-2cf1-4b0c-9e50-dd89a041e58e" d="M469,741.11c0,4,0,7.84,0,11.7,0,1.62,0,3.24,0,4.86,0,.68-.26.9-.91.89-1.88,0-3.75,0-5.63,0-.76,0-1-.28-1-1,0-5.16,0-10.33,0-15.49,0-1,0-1-1-1-2.54.11-2.54.11-2.54-2.45,0-1,0-2.06,0-3.08,0-.51.19-.69.68-.68.74,0,1.49,0,2.23,0,.51,0,.67-.16.67-.66,0-1.59,0-3.19.13-4.77a6.25,6.25,0,0,1,6.29-5.86c1.85-.06,3.7-.07,5.54-.13.66,0,.91.23.89.9q-.06,2.2,0,4.39c0,.64-.19.88-.83.85-.82,0-1.64,0-2.47,0-1.49,0-2,.55-2.13,2-.06.84,0,1.69-.05,2.54,0,.47.18.63.64.62,1.28,0,2.57,0,3.85,0,.64,0,.94.16.84.89-.2,1.58-.34,3.16-.46,4.75,0,.55-.31.69-.8.68C471.7,741.11,470.4,741.11,469,741.11Z" transform="translate(-437.07 -711.79)"/></svg>