<svg id="077322fc-697d-4aaa-9d1b-af148c05c255" data-name="Capa 1" xmlns="http://www.w3.org/2000/svg" viewBox="0 0 56.74 58.01"><defs><style>.\37 9036bbf-3005-43d6-8955-a13893f7eb21{fill:#fe4131;}.e48e5bca-10dd-4646-ac2e-a2fc8432f124{fill:#01a94b;}.\30 735abf9-1518-4fbc-b152-173916f4b68d{fill:#febc01;}.dd7cf570-1bc6-423c-b06e-9d5224ef4f28{fill:#0387f8;}.e31128f2-45ea-43a2-92af-c35f780f9e04{fill:#fe4737;}.\34 00e7128-f10e-4943-87f2-2e711230bed0{fill:#fe3b2a;}.\38 282bad1-a966-49cb-b046-39e75e3d832e{fill:#00a23a;}</style></defs><title>google-icon</title><path class="79036bbf-3005-43d6-8955-a13893f7eb21" d="M472.66,712.73c1.11.63,2.4.52,3.57.92a27.33,27.33,0,0,1,8.85,5.21c.62.53.46,1.06,0,1.56-2.23,2.24-4.48,4.46-6.69,6.72-.49.5-.8.32-1.28,0a20.32,20.32,0,0,0-6.69-3.23,16.91,16.91,0,0,0-12.91,2.23,18.28,18.28,0,0,0-7.21,9c-.45,0-.73-.31-1-.56l-8.58-6.57a27.9,27.9,0,0,1,13.93-13.39.41.41,0,0,0,.51.21,37.26,37.26,0,0,1,5.93-1.82c.13,0,.2-.32.29-.48l.86-.17c.4.58.73.64,1-.11l.61-.07c.34.43.82.33,1.26.31a52.47,52.47,0,0,1,6.32.3C471.75,712.86,472.27,713.42,472.66,712.73Z" transform="translate(-437.47 -711.99)"/><path class="e48e5bca-10dd-4646-ac2e-a2fc8432f124" d="M485.59,763A25.19,25.19,0,0,1,471,769.69a29,29,0,0,1-22.72-6.12,11.52,11.52,0,0,1-.86-.84l.15-.17-.18.15a.21.21,0,0,1-.14-.11c.17-.49-.18-.43-.47-.46l-.24-.21-.36-.39,0,0-.38-.36-.53-.54c0-.28,0-.64-.45-.47a.2.2,0,0,1-.1-.14l.15-.18-.17.15a21.33,21.33,0,0,1-4.14-6.09l9.56-7.37c2.23,5.7,6.08,9.72,12.09,11.32a17.91,17.91,0,0,0,14.21-2.2c.34.3.66.62,1,.9Z" transform="translate(-437.47 -711.99)"/><path class="0735abf9-1518-4fbc-b152-173916f4b68d" d="M450.19,746.58l-9.56,7.37a28.08,28.08,0,0,1,0-25.89l8.58,6.57c.32.25.6.56,1,.56A19.14,19.14,0,0,0,450.19,746.58Z" transform="translate(-437.47 -711.99)"/><path class="dd7cf570-1bc6-423c-b06e-9d5224ef4f28" d="M493.71,736.1c-.14-.92-.86-.51-1.32-.51q-8.48,0-17,0c-2.9,0-5.79.07-8.69.1-.47.41-.25,1-.25,1.43,0,2.45,0,4.9,0,7.34,0,.73-.29,1.52.24,2.21.55,0,1.11.08,1.66.09l13.7,0c-.53,3.82-2.67,6.63-5.62,8.92.34.3.66.62,1,.9l8.08,6.4C493.29,755.54,495.27,746.36,493.71,736.1Z" transform="translate(-437.47 -711.99)"/><path class="e31128f2-45ea-43a2-92af-c35f780f9e04" d="M472.66,712.73c-.39.69-.91.13-1.34.1a52.47,52.47,0,0,0-6.32-.3c-.44,0-.92.12-1.26-.31A22.29,22.29,0,0,1,472.66,712.73Z" transform="translate(-437.47 -711.99)"/><path class="400e7128-f10e-4943-87f2-2e711230bed0" d="M461.3,712.57c-.1.17-.16.45-.29.48a37.26,37.26,0,0,0-5.93,1.82.41.41,0,0,1-.51-.21A20.23,20.23,0,0,1,461.3,712.57Z" transform="translate(-437.47 -711.99)"/><path class="400e7128-f10e-4943-87f2-2e711230bed0" d="M463.13,712.29c-.24.75-.58.69-1,.11Z" transform="translate(-437.47 -711.99)"/><path class="8282bad1-a966-49cb-b046-39e75e3d832e" d="M444.9,760.22c.49-.17.43.19.45.47Z" transform="translate(-437.47 -711.99)"/><path class="8282bad1-a966-49cb-b046-39e75e3d832e" d="M446.82,762.14c.28,0,.64,0,.47.46Z" transform="translate(-437.47 -711.99)"/><path class="8282bad1-a966-49cb-b046-39e75e3d832e" d="M444.76,760l.17-.15-.15.18Z" transform="translate(-437.47 -711.99)"/><path class="8282bad1-a966-49cb-b046-39e75e3d832e" d="M445.88,761.22l.38.36Z" transform="translate(-437.47 -711.99)"/><path class="8282bad1-a966-49cb-b046-39e75e3d832e" d="M446.21,761.54l.36.39Z" transform="translate(-437.47 -711.99)"/><path class="8282bad1-a966-49cb-b046-39e75e3d832e" d="M447.42,762.7l.18-.15-.15.17Z" transform="translate(-437.47 -711.99)"/></svg>