<svg id="c841ac38-32df-414b-a72a-1521bf26be17" data-name="Capa 1" xmlns="http://www.w3.org/2000/svg" viewBox="0 0 451.53 395.69"><defs><style>.\32 a7c7bef-2bbd-4508-b637-1c12a0b66391{fill:#090908;}.\38 16fae5b-0951-49c2-9c13-83270e040670{fill:#0a0909;}.\35 45a4273-30e3-4823-baa3-b99f8fa5bd28{fill:#f5ca9f;}.a8e5d21b-1a75-4b75-a294-5b952e5255fe{fill:#4f9341;}.e6c87200-1ed3-4b0f-abaf-0f5788ae2b8e{fill:#93b2c5;}.\35 8218ff5-28d6-4c85-a6a8-9f7eac51f977{fill:#929393;}.f4d0bd18-87d4-4128-a965-7b48f624cd90{fill:#515151;}.\31 97f78f2-2975-423d-9e06-e90ed462c00b{fill:#fdfdfd;}.\33 f7d21b5-dd65-4827-ab2b-15115c7109af{fill:#090605;}.\38 478d3e2-1427-456e-9a93-94acb28fd325{fill:#080504;}.\32 6353ee7-7a5c-4830-8eb0-267d3cc27c9d{fill:#3d2e24;}.d8ec9026-a043-45fe-bee8-16e8a3368290{fill:#070f05;}.\36 d88c782-5941-4670-ad49-dad3be52b275{fill:#0a0d10;}.\31 af6d3d0-6057-4293-a3a2-0b0af18eb1ac{fill:#1c242a;}</style></defs><title>intro-1</title><path class="2a7c7bef-2bbd-4508-b637-1c12a0b66391" d="M586.41,715.22l-.33,8.33a3,3,0,0,0-.24,3l-1.09,11.84a2.89,2.89,0,0,0-.32,3l-.3,1.93c-.93.87-.79,1.92-.52,3l-.38,4.08A1.11,1.11,0,0,0,583,752l-.38,3.37a1.12,1.12,0,0,0-.18,1.62c-.32,6.42-6.05,7.63-10.16,10.13-5.79,3.52-6,3.27-4.81,9.8a490.87,490.87,0,0,0,12.05,53.38c2.66,9,5.35,18,8.73,26.78,1.18,3.08.15,5.82-2.44,6.87s-5.13-.43-6.25-3.53a474.68,474.68,0,0,1-13.87-46,365.52,365.52,0,0,1-7.4-38.14c-.27-1.93-.6-2.82-3.08-2.18-15.69,4-31.72,4-47.76,3.56-10.74-.32-21.32-2.11-31.86-4-2.33-.42-3.24-.13-3.55,2.52-2.87,24.6-4.46,49.29-5.12,74-.07,2.47-.12,4.95-.31,7.41-.21,2.73-1.28,4.81-4.44,4.89-2.79.07-4.67-1.73-4.59-5.09.22-9.3.73-18.59,1-27.89.58-18.63,2.68-37.13,4.57-55.65.24-2.39-.36-3.37-2.75-3.78a38.6,38.6,0,0,1-6.74-2.06c-2.74-1-3-3.31-2.75-5.82,1.69-15.23,2.54-30.53,3.29-45.82.47-9.41.46-18.85.64-28.28,0-.91.23-1.9-.56-2.7-1,.37-.81,1.24-.85,2-.89,18.38-3.1,36.63-5.33,54.88-.35,2.86-.76,5.75-4.49,6.22-3.52.44-5.35-1.7-4.86-5.88,1.08-9.13,2.43-18.23,3.3-27.38,2.3-24.17,3.73-48.4,4.1-72.68a2.87,2.87,0,0,0-1.67-2.72c-21.15-14.16-34.25-34.08-40.16-58.51-4.32-17.86-3.62-36,2.94-53.25,6.3-16.63,17.18-30,31.59-40.55,18.64-13.66,39.92-18.17,62.43-18.93a118.89,118.89,0,0,1,42,6.23c11,3.69,20.66,10.05,29.41,17.71a83.38,83.38,0,0,1,25.24,40.07c2.83,9.64,3.23,19.68,2.25,29.78a101.86,101.86,0,0,1-19.46,50.78,4.64,4.64,0,0,0-.56,4.88c9.89,26.29,13.46,53.83,16,81.57,1.39,15.25,2.69,30.51,3.28,45.82.18,4.71-1.09,6.8-4.63,6.69-3.11-.1-4.28-2-4.45-4.83-.59-10.23-1.22-20.46-1.84-30.69a45.28,45.28,0,0,0-.65-10.6c-.23-2.13,0-4.36-1.25-6.8-.87,2.55-.45,4.61-.4,6.65ZM504.88,477.74c-2.83,0-4.84-.06-6.84,0-13.06.44-25.87,2.53-37.82,7.83A84.86,84.86,0,0,0,428,510.11c-6.25,7.77-11.6,16.23-14,25.83-3.62,14.37-4.48,29-1,43.74,2.9,12.25,8.67,23,15.9,33.15,13.89,19.54,33.22,29.55,56.57,31.56a108.43,108.43,0,0,0,54.38-9.43c11.88-5.35,22.64-12.27,30.78-22.87a101.52,101.52,0,0,0,16.77-31.94c5.52-17.73,6.65-35.25-.79-52.77-8.89-20.95-24.37-35.19-45.13-43.57A89.3,89.3,0,0,0,504.88,477.74Zm73,226.66c-.41-5.83-.33-11.48-.64-17.13-1-18.41-5.56-36.22-8.84-54.24-.67-3.66-1.63-4-4.65-1.69A109.24,109.24,0,0,1,547,641.59a114.34,114.34,0,0,1-41.54,11.58c-13.48,1.22-27.11,1.07-40.19-3.51-3.07-1.08-4-.37-3.73,2.87.76,9.14,1.68,18.29,1.89,27.46A631.93,631.93,0,0,1,460,757.91c-.19,1.84,0,3.26,2.12,3.76,3.07.72,6.1,1.6,9.18,2.28a222.1,222.1,0,0,0,55.76,4.9c7.28-.27,14.69-.36,21.78-1.8,8-1.63,15.47-5.47,22.65-9.55a4.37,4.37,0,0,0,2.11-3.42C576.71,737.59,577.52,720.92,577.92,704.39Z" transform="translate(-149.14 -468.61)"/><path class="816fae5b-0951-49c2-9c13-83270e040670" d="M157.39,750.59a4.93,4.93,0,0,1-6.14,1c-2.24-1.14-2.15-3.19-2.08-5.21,1.13-34.09,3.85-68,11-101.45a137.78,137.78,0,0,1,8.25-27c1.36-3.07.87-5.41-.86-8.12a99,99,0,0,1-16-53c-.29-23,8.67-42.21,24.31-58.35a83.2,83.2,0,0,1,32-20.67c19.47-6.91,39.61-8.08,59.93-5.32,15.27,2.08,29.78,6.64,42.66,15.51,13.93,9.59,24.82,21.8,32.09,37.14,8,16.9,9,34.69,6.24,52.8-3.66,23.78-15.36,43.18-33.36,58.89a43.71,43.71,0,0,1-10.48,7.09c-2.21,1-2.84,2.29-2.81,4.6q.49,29.18,3.25,58.22c1.13,12.09,3,24.09,4.49,36.13.32,2.51-.15,4.94-3,5.63s-5.34-.31-5.89-3.49c-.94-5.45-1.68-10.95-2.32-16.45-1.1-9.41-2.95-18.75-3.16-28.26a9.09,9.09,0,0,0-.44-5l-.11-2.09c0-.1.11-.2.09-.29a3.73,3.73,0,0,0-.18-.53.5.5,0,0,0-.09-.5,4.21,4.21,0,0,0,0-2.89c.57-2.21-.36-4.33-.41-6.5-.3-1.52.63-3.32-1.12-5a12.73,12.73,0,0,0-.13,5.16,23.89,23.89,0,0,0,.12,6.3c-.06,1-.33,2.1.26,3.09l0,.09-.22,1.09v7.07c.15,4.91-.23,9.84.53,14.73-.37,1.71-.67,3.42.2,5.09l.66,11.16a11.22,11.22,0,0,0,.45,5.74l.22,3.47a8.37,8.37,0,0,0,.53,5l.22,4.18a6.68,6.68,0,0,0,.55,4.3l.18,2.06c-.61,3.57,1.37,7.19-.21,10.74-2.63,2.21-6,2.47-9.1,3.46-2,.62-2.53,1.39-2.33,3.45,2.18,22.86,4.17,45.74,5,68.7.18,4.83.4,9.65.51,14.48.09,3.95-1.45,6-4.4,6s-4.51-2-4.65-5.83c-.94-27-2.61-53.87-5.41-80.71-.26-2.48-.91-3.11-3.38-2.62a213.91,213.91,0,0,1-49.88,4.2c-10.12-.38-20.24-1-30.06-3.72-2-.57-2.63-.31-2.94,1.8-1.63,10.95-3.48,21.87-6,32.65a463.14,463.14,0,0,1-15,51.85c-1.12,3.09-3.77,4.5-6.29,3.51-2.75-1.07-3.65-3.45-2.44-6.76a416.62,416.62,0,0,0,16.26-58.73c1.77-8.54,3.17-17.13,4.77-25.7.42-2.22-.19-3.41-2.35-4.33-2.91-1.23-5.61-2.94-8.41-4.43-3.09-1.65-4.36-4.32-4.79-7.7-1.59-12.5-3.61-24.95-4-37.58.89-7-.57-14.09,0-21.14-2.05,6.94-2.4,14-2.21,21.19l-.36,7.6a15.62,15.62,0,0,0-.46,7.94l-.28,6.22Zm156.4-124.4.75-.78a1.1,1.1,0,0,0,1-.93c16.33-17.29,25.55-37.57,25.7-61.6.06-9.36-.74-18.74-4-27.51a79.55,79.55,0,0,0-19.53-29.89,84.48,84.48,0,0,0-33.14-20.24c-13.34-4.27-27.19-5.41-41.19-5-10.68.29-21.29,1.68-31.18,5.4-15.44,5.81-28.53,15.35-38.17,29-8.77,12.41-14,26.14-13.71,41.55a95.6,95.6,0,0,0,13.26,46.7c4.66,8.09,10.12,15.62,17.42,21.57A94.26,94.26,0,0,0,224.88,642c17.92,5.17,35.93,7.27,54.29,2.84a72.37,72.37,0,0,0,28.17-13.26C310.12,630.56,312,628.42,313.79,626.19Zm-143.4,78.64a213.64,213.64,0,0,0,1,25.37c.71,7.39,1.75,14.75,2.78,22.1.27,1.91.32,4.05,2.47,5.18,4.89,2.57,9.81,5,14.92,7.17,8.27,3.46,17,3.53,25.67,4,22.94,1.22,45.65-.62,67.92-6.69,2.76-.75,3.5-1.7,3.13-4.56a474.7,474.7,0,0,1-3.5-58.9c0-14.37.54-28.75,1.87-43.07.25-2.65-.24-3.17-3-2.49-7.64,1.87-15.32,3.59-23.34,3.3-6-.22-12-.44-18-1.24a122.3,122.3,0,0,1-35.45-10.1,107.26,107.26,0,0,1-23.66-15.23c-2.07-1.73-2.44-.9-2.82,1-.83,4.16-1.64,8.32-2.53,12.46C173.52,663.82,169.93,684.59,170.39,704.82Z" transform="translate(-149.14 -468.61)"/><path class="545a4273-30e3-4823-baa3-b99f8fa5bd28" d="M504.88,477.74a89.3,89.3,0,0,1,36.58,6.06c20.76,8.38,36.24,22.63,45.13,43.57,7.44,17.52,6.3,35,.79,52.77a101.52,101.52,0,0,1-16.77,31.94c-8.14,10.6-18.89,17.51-30.78,22.87a108.43,108.43,0,0,1-54.38,9.43c-23.35-2-42.68-12-56.57-31.56-7.23-10.17-13-20.9-15.9-33.15-3.48-14.71-2.61-29.36,1-43.74,2.41-9.6,7.77-18.06,14-25.83a84.86,84.86,0,0,1,32.22-24.53c12-5.3,24.77-7.39,37.82-7.83C500,477.68,502,477.74,504.88,477.74ZM518.8,602.4c-7.49,0-12.84,5-12.88,12,0,6.22,5.75,12.6,11.43,12.62,6.9,0,13-5.89,13.11-12.62A11.85,11.85,0,0,0,518.8,602.4ZM469,616.76c0-7.36-4.93-12.13-12.58-12.12a12.12,12.12,0,0,0-11.75,11.7c-.14,6.83,5.74,12.56,12.92,12.6C464.06,629,469,623.75,469,616.76Zm36,20.77c-2.92-1.64-5.75-1.47-8.53-1.66-1.84-.12-3.77.11-5.48-.83-.44-.24-.63-1.26-1.28-.63a3.08,3.08,0,0,0-.67,1.91c0,.91,5.08,4,6,3.69.21-.07.57-.2.58-.32.22-3,2.51-1.42,3.89-1.71C501.15,637.63,502.93,638.69,505,637.53Z" transform="translate(-149.14 -468.61)"/><path class="a8e5d21b-1a75-4b75-a294-5b952e5255fe" d="M577.92,704.39c-.4,16.52-1.21,33.2-4.28,49.69a4.37,4.37,0,0,1-2.11,3.42c-7.18,4.09-14.6,7.92-22.65,9.55-7.09,1.44-14.5,1.52-21.78,1.8a222.1,222.1,0,0,1-55.76-4.9c-3.08-.67-6.11-1.55-9.18-2.28-2.12-.5-2.31-1.93-2.12-3.76A631.93,631.93,0,0,0,463.38,680c-.21-9.16-1.13-18.31-1.89-27.46-.27-3.23.65-3.94,3.73-2.87,13.08,4.58,26.71,4.73,40.19,3.51A114.34,114.34,0,0,0,547,641.59a109.24,109.24,0,0,0,16.82-10.25c3-2.28,4-2,4.65,1.69,3.28,18,7.82,35.82,8.84,54.24C577.59,692.92,577.5,698.57,577.92,704.39Zm-69.14,39.82c-6.89-10.2-14.28-20-26.64-23.9-3.21-1-7.36-1.59-9.77,1.88-2.53,3.63-4.23,7.81-1.74,12.24,5.78,10.29,13.27,19.36,20.66,28.49.39.48.71,1,1.4.74a1.64,1.64,0,0,0,1-1.69,5.67,5.67,0,0,0-1-2.17c-3.21-4.78-6.55-9.48-9.67-14.31-2.62-4.06-4.92-8.32-5.7-13.2-.5-3.13.75-4.34,3.67-3.53a48.21,48.21,0,0,1,10.94,4.78C497.69,736.81,502.52,741.53,508.78,744.22Zm3.52,9.27c-.26-2.29-8.26-8.31-10.37-8-1.39.22-1.67,1.23-.78,1.93,3.12,2.45,6.36,4.73,9.64,7C511.72,755,512.32,754.42,512.3,753.49ZM504.2,763c-1.22-1.93-2.11-4-4.11-5.18a1.47,1.47,0,0,0-1.26.05c-.49.3-.16.81,0,1.25.66,2.11,2.81,3,3.84,4.88a1,1,0,0,0,.92.2A4.23,4.23,0,0,0,504.2,763Z" transform="translate(-149.14 -468.61)"/><path class="545a4273-30e3-4823-baa3-b99f8fa5bd28" d="M314.54,625.4l-.75.78c-1.76-.65.29-2.27-.78-3.1l.34-2.08c1.29-1,1.25-2,0-3a12.63,12.63,0,0,0-6.06-9.07c-3.58-2.15-11.7-1.9-15.48,2.87-3.09,3.89-3.78,10.09-1.07,14.13,4.05,6,8.16,7.44,14.73,5,.55-.2,1.11-.38,1.67-.57l.19,1.26a72.38,72.38,0,0,1-28.17,13.26c-18.36,4.42-36.38,2.32-54.29-2.84a94.26,94.26,0,0,1-33.83-17.62c-7.3-5.95-12.75-13.48-17.42-21.57a95.6,95.6,0,0,1-13.26-46.7c-.26-15.41,4.94-29.15,13.71-41.55,9.64-13.63,22.72-23.17,38.17-29,9.89-3.72,20.51-5.11,31.18-5.4,14-.38,27.85.76,41.19,5a84.48,84.48,0,0,1,33.14,20.24,79.55,79.55,0,0,1,19.53,29.89c3.23,8.77,4,18.15,4,27.51-.15,24-9.37,44.31-25.7,61.6A.88.88,0,0,0,314.54,625.4Zm-52.61,15.18c1.81.73,4.54-1.47,5.61,1.77a1.9,1.9,0,0,0,1.61,0,10.85,10.85,0,0,1,3.78-2.22c1.07-.38.91-1.51.52-2.43-.16-.38-.31-.87-1-.43-3.26,2.14-7.06.75-10.53,1.55-2.28.24-4.59.44-5.74,2.91C258.2,641.48,260,640.77,261.93,640.59Zm-22.45-35.41c-6.62-.85-12,6.46-11.91,11.75.17,7.58,6.3,12.49,13.29,12.79,5.72.25,11-5.89,11-12.36C252,609.91,247.17,605.19,239.48,605.17Z" transform="translate(-149.14 -468.61)"/><path class="e6c87200-1ed3-4b0f-abaf-0f5788ae2b8e" d="M170.39,704.82c-.46-20.24,3.13-41,7.53-61.67.88-4.15,1.7-8.31,2.53-12.46.38-1.93.75-2.76,2.82-1a107.26,107.26,0,0,0,23.66,15.23A122.3,122.3,0,0,0,242.37,655c6,.8,11.94,1,18,1.24,8,.29,15.69-1.42,23.34-3.3,2.78-.68,3.26-.16,3,2.49-1.33,14.33-1.9,28.71-1.87,43.07a474.7,474.7,0,0,0,3.5,58.9c.36,2.86-.37,3.81-3.13,4.56-22.28,6.07-45,7.91-67.92,6.69-8.63-.46-17.4-.52-25.67-4-5.11-2.14-10-4.6-14.92-7.17-2.15-1.13-2.2-3.27-2.47-5.18-1-7.35-2.07-14.71-2.78-22.1A213.64,213.64,0,0,1,170.39,704.82ZM243.12,742a34.8,34.8,0,0,0,8.22-4.91,60.38,60.38,0,0,1,18.56-9.88c2.87-.92,3.52-.05,3.49,2.62,0,4.86-2.41,8.84-4.81,12.71-3.34,5.39-7.05,10.54-10.62,15.78-.76,1.11-1.6,2.43-.33,3.45,1.5,1.2,1.89-.62,2.55-1.42,1.58-1.9,3.14-3.81,4.65-5.76,5-6.4,10.05-12.73,14.2-19.71,2.63-4.44,2.3-11.1-.81-14.27-3.44-3.51-7.61-2.17-11.61-1.09a15.24,15.24,0,0,0-2.86,1.31c-8.39,4.3-14.26,11.36-20.07,18.46C243.2,739.94,242.34,740.74,243.12,742Zm5.6,1.76c-1.83-.08-10.24,6.4-10.61,8.24a2,2,0,0,0,.22,1.3c.28.47.84.39,1.23.09q4.91-3.68,9.79-7.4a1.27,1.27,0,0,0,.45-1.55A1.08,1.08,0,0,0,248.72,743.81Zm3.81,12.84c-.15-1.06-.83-1-1.52-.64-2.33,1.19-3.55,3.33-4.51,5.61-.29.69-.07,1.43,1,1.18S252.59,757.61,252.54,756.65Z" transform="translate(-149.14 -468.61)"/><path class="58218ff5-28d6-4c85-a6a8-9f7eac51f977" d="M313,623.09c1.07.83-1,2.44.78,3.1-1.8,2.23-3.67,4.37-6.45,5.44l-.19-1.26C309.46,628.23,311.69,626,313,623.09Z" transform="translate(-149.14 -468.61)"/><path class="f4d0bd18-87d4-4128-a965-7b48f624cd90" d="M294.55,682.44l-1.25.2a12.73,12.73,0,0,1,.13-5.16C295.18,679.12,294.25,680.92,294.55,682.44Z" transform="translate(-149.14 -468.61)"/><path class="58218ff5-28d6-4c85-a6a8-9f7eac51f977" d="M314.54,625.4a.88.88,0,0,1,1-.93A1.1,1.1,0,0,1,314.54,625.4Z" transform="translate(-149.14 -468.61)"/><path class="197f78f2-2975-423d-9e06-e90ed462c00b" d="M295,692.32a.76.76,0,0,1-.09-.5A.5.5,0,0,1,295,692.32Z" transform="translate(-149.14 -468.61)"/><path class="197f78f2-2975-423d-9e06-e90ed462c00b" d="M293.68,692l0,.09Z" transform="translate(-149.14 -468.61)"/><path class="3f7d21b5-dd65-4827-ab2b-15115c7109af" d="M518.8,602.4a11.85,11.85,0,0,1,11.67,12c-.07,6.73-6.21,12.65-13.11,12.62-5.68,0-11.46-6.41-11.43-12.62C506,607.38,511.31,602.4,518.8,602.4Z" transform="translate(-149.14 -468.61)"/><path class="8478d3e2-1427-456e-9a93-94acb28fd325" d="M469,616.76c0,7-4.93,12.22-11.42,12.19-7.18,0-13.05-5.77-12.92-12.6a12.12,12.12,0,0,1,11.75-11.7C464.06,604.63,469,609.4,469,616.76Z" transform="translate(-149.14 -468.61)"/><path class="26353ee7-7a5c-4830-8eb0-267d3cc27c9d" d="M505,637.53c-2.06,1.16-3.84.11-5.51.46-1.38.29-3.66-1.28-3.89,1.71,0,.12-.36.25-.58.32-.91.31-6-2.78-6-3.69a3.08,3.08,0,0,1,.67-1.91c.65-.63.84.39,1.28.63,1.71.93,3.63.7,5.48.83C499.24,636.05,502.07,635.89,505,637.53Z" transform="translate(-149.14 -468.61)"/><path class="d8ec9026-a043-45fe-bee8-16e8a3368290" d="M508.78,744.22c-6.26-2.68-11.09-7.4-16.86-10.7A48.21,48.21,0,0,0,481,728.74c-2.92-.81-4.16.41-3.67,3.53.77,4.88,3.08,9.14,5.7,13.2,3.12,4.84,6.46,9.54,9.67,14.31a5.67,5.67,0,0,1,1,2.17,1.64,1.64,0,0,1-1,1.69c-.69.28-1-.26-1.4-.74-7.39-9.13-14.88-18.2-20.66-28.49-2.48-4.42-.79-8.61,1.74-12.24,2.42-3.46,6.56-2.9,9.77-1.88C494.5,724.26,501.89,734,508.78,744.22Z" transform="translate(-149.14 -468.61)"/><path class="6d88c782-5941-4670-ad49-dad3be52b275" d="M512.3,753.49c0,.94-.58,1.53-1.51.9-3.28-2.23-6.52-4.51-9.64-7-.89-.7-.61-1.71.78-1.93C504,745.17,512,751.19,512.3,753.49Z" transform="translate(-149.14 -468.61)"/><path class="1af6d3d0-6057-4293-a3a2-0b0af18eb1ac" d="M504.2,763a4.23,4.23,0,0,1-.64,1.2,1,1,0,0,1-.92-.2c-1-1.83-3.18-2.77-3.84-4.88-.13-.43-.47-1,0-1.25a1.47,1.47,0,0,1,1.26-.05C502.09,759,503,761.07,504.2,763Z" transform="translate(-149.14 -468.61)"/><path class="3f7d21b5-dd65-4827-ab2b-15115c7109af" d="M239.48,605.17c7.69,0,12.5,4.73,12.42,12.18-.07,6.47-5.33,12.6-11,12.36-7-.3-13.13-5.21-13.29-12.79C227.45,611.63,232.86,604.32,239.48,605.17Z" transform="translate(-149.14 -468.61)"/><path class="3f7d21b5-dd65-4827-ab2b-15115c7109af" d="M313,623.09c-1.32,2.94-3.54,5.14-5.86,7.27-.56.19-1.12.37-1.67.57-6.57,2.42-10.68,1-14.73-5-2.71-4-2-10.24,1.07-14.13,3.78-4.77,11.9-5,15.48-2.87a12.63,12.63,0,0,1,6.06,9.07,4.64,4.64,0,0,0,0,3Z" transform="translate(-149.14 -468.61)"/><path class="26353ee7-7a5c-4830-8eb0-267d3cc27c9d" d="M261.94,638.87c3.47-.8,7.27.59,10.53-1.55.67-.44.83,0,1,.43.38.92.55,2.05-.52,2.43a10.85,10.85,0,0,0-3.78,2.22,1.9,1.9,0,0,1-1.61,0c-1.08-3.24-3.81-1-5.61-1.77Q261.94,639.73,261.94,638.87Z" transform="translate(-149.14 -468.61)"/><path class="f4d0bd18-87d4-4128-a965-7b48f624cd90" d="M261.94,638.87q0,.86,0,1.71c-1.93.19-3.73.89-5.73,1.2C257.35,639.32,259.66,639.12,261.94,638.87Z" transform="translate(-149.14 -468.61)"/><path class="58218ff5-28d6-4c85-a6a8-9f7eac51f977" d="M313.35,621a4.64,4.64,0,0,1,0-3C314.6,619,314.64,620,313.35,621Z" transform="translate(-149.14 -468.61)"/><path class="6d88c782-5941-4670-ad49-dad3be52b275" d="M243.12,742c-.79-1.31.08-2.1.58-2.72,5.81-7.1,11.67-14.17,20.07-18.46a15.24,15.24,0,0,1,2.86-1.31c4-1.08,8.17-2.41,11.61,1.09,3.1,3.17,3.44,9.84.81,14.27-4.14,7-9.23,13.31-14.2,19.71-1.51,1.95-3.07,3.86-4.65,5.76-.67.8-1.05,2.63-2.55,1.42-1.28-1-.43-2.34.33-3.45,3.56-5.25,7.28-10.4,10.62-15.78,2.4-3.87,4.77-7.85,4.81-12.71,0-2.68-.63-3.55-3.49-2.62a60.38,60.38,0,0,0-18.56,9.88A34.8,34.8,0,0,1,243.12,742Z" transform="translate(-149.14 -468.61)"/><path class="1af6d3d0-6057-4293-a3a2-0b0af18eb1ac" d="M248.72,743.81a1.08,1.08,0,0,1,1.1.68,1.27,1.27,0,0,1-.45,1.55q-4.88,3.72-9.79,7.4c-.4.3-.95.38-1.23-.09a2,2,0,0,1-.22-1.3C238.49,750.21,246.89,743.73,248.72,743.81Z" transform="translate(-149.14 -468.61)"/><path class="f4d0bd18-87d4-4128-a965-7b48f624cd90" d="M252.54,756.66c.06,1-4,5.91-5,6.14s-1.31-.49-1-1.18c1-2.28,2.18-4.42,4.51-5.61C251.71,755.66,252.39,755.59,252.54,756.66Z" transform="translate(-149.14 -468.61)"/></svg>