<svg id="0e71b243-80a8-4d0b-aab2-c9f2504ae76c" data-name="Capa 1" xmlns="http://www.w3.org/2000/svg" viewBox="0 0 245.79 245.5"><defs><style>.\31 57e0add-51b5-435e-ba9d-0a8346f91d53{font-size:32.9px;font-family:CreativeBlockBB, CreativeBlock BB;}.\37 f9266e1-fc39-40a3-9a41-b8b32ff4ed26{fill:#151515;}.a2e33f13-8b7d-4afc-a562-0e6c18ac5a7f{fill:#f4c99e;}.\39 5112f07-d05c-44be-88ad-4693c021e471{fill:#4f9341;}.fed6d3da-83e3-49fc-a7a5-49c50462b8cc{fill:#4c4c4b;}.e05a31d7-dd1e-46d3-8751-8a210190822c{fill:#0d0a08;}.c00e19eb-8988-4d5d-8791-7193e03346b7{fill:#121212;}.\33 91c3c93-10d2-4280-b87d-b78f5200294f{fill:none;}.c70106cb-c200-42f7-be71-40004c0fb875{fill:#0f0f0d;}.\34 a9727d3-f87e-4ed5-baf7-2f1096e61a43{fill:#101010;}</style></defs><title>join-a-game</title><text class="157e0add-51b5-435e-ba9d-0a8346f91d53" transform="translate(0 46.29)">Join A GAME</text><path class="7f9266e1-fc39-40a3-9a41-b8b32ff4ed26" d="M382.63,301.77c.25,1.44-.71,1.24-1.59,1.34-1.81.2-1.76-1-1.93-2.22-.22-1.58.86-1.26,1.77-1.37C382.81,299.3,382.52,300.69,382.63,301.77Z" transform="translate(-178.35 -299.5)"/><path class="a2e33f13-8b7d-4afc-a562-0e6c18ac5a7f" d="M327.1,391.91c7.25-19.23,22.95-30,44.13-30.39,9.37-.16,18.55.72,26.93,5.35,19.8,10.93,26.59,32.56,17,53.39-8.81,19.12-24.81,26.47-44.65,27.62C345.09,449.35,329,430.3,326,409.67a.69.69,0,0,0-.1-1.12l0-7.5a2.11,2.11,0,0,0,.17-2.26l.27-2c.13-.14.26-.27.38-.41,2.85-3.53,5.37-8,11-4a1,1,0,0,0,1-.24c.4-.62-.13-1-.56-1.38a7.08,7.08,0,0,0-8.08-.24C329.09,391.1,328.52,392.39,327.1,391.91Zm45.56-3.75c1.42,1.36,3.21,2.35,4.1,4.24.22.47.51,1.21,1.18,1s.52-1.11.36-1.74c-.66-2.58-3-3.16-5-4.12-4.66-2.13-10.28-1.47-13,1.53-.36.39-1,.78-.5,1.4.36.45.92.19,1.26-.13C364.49,387.1,368.6,387.79,372.66,388.15Zm-6.06,30.21a6.56,6.56,0,0,0,6.67-6.45,6.29,6.29,0,0,0-6.15-6.25,6.16,6.16,0,0,0-6.44,6.52A6.39,6.39,0,0,0,366.61,418.36Zm-31.79-11.44a6.11,6.11,0,0,0-6,6.32,6.54,6.54,0,0,0,6.75,6.34c3,0,5.82-3.1,5.82-6.29A6.18,6.18,0,0,0,334.82,406.92Zm17.47,18.8c.34,1.09-.45,4,2.9,4,2.31,0,3.41-1.47,3.41-3.73s-2-3.53-4.68-3.52C352.11,422.47,351.86,423.42,352.29,425.72Zm2.69,6.46a9.18,9.18,0,0,1-4.49-5.11C350.23,430.42,351.5,431.85,355,432.18Z" transform="translate(-178.35 -299.5)"/><path class="95112f07-d05c-44be-88ad-4693c021e471" d="M411.88,479.91c.33,8-.66,16-1.63,23.93a3.85,3.85,0,0,1-2.22,3c-5.86,3.58-12.3,5-19.06,5.36a118.53,118.53,0,0,1-35.17-3.28c-2-.51-2.56-1.23-2.34-3.51a311.38,311.38,0,0,0,1.78-33.67c-.06-6.28-.62-12.56-1.08-18.83-.17-2.32.43-2.75,2.7-2.09,11.08,3.18,22.05,2.12,33-1.1a56.35,56.35,0,0,0,16.12-7.87c1.42-1,2.65-1.53,2.83,1,.44,6.06,1.7,12.1.63,18.21a28.28,28.28,0,0,1-.75,3.63c-.83,2.65-2.75,3.55-5.37,2.46-3.58-1.48-6.49-4-9.29-6.57-2-1.82-3.8-3.76-5.68-5.65-1.26-1.27-2.65-1.64-4-.33s-.72,2.69.33,3.79c4.8,5.06,9.68,10,16.08,13.15,4.8,2.33,7.92,1.68,11.43-2.33.35-.4.56-1.14,1.27-.83s.46,1,.46,1.53C411.9,473.23,411.88,476.57,411.88,479.91Z" transform="translate(-178.35 -299.5)"/><path class="fed6d3da-83e3-49fc-a7a5-49c50462b8cc" d="M327.1,391.91c1.43.48,2-.81,2.86-1.43a7.08,7.08,0,0,1,8.08.24c.43.38,1,.76.56,1.38a1,1,0,0,1-1,.24c-5.61-3.94-8.12.5-11,4-.12.15-.25.27-.38.41A10.52,10.52,0,0,1,327.1,391.91Z" transform="translate(-178.35 -299.5)"/><path class="a2e33f13-8b7d-4afc-a562-0e6c18ac5a7f" d="M326,398.79a2.11,2.11,0,0,1-.17,2.26A1.52,1.52,0,0,1,326,398.79Z" transform="translate(-178.35 -299.5)"/><path class="a2e33f13-8b7d-4afc-a562-0e6c18ac5a7f" d="M325.87,408.55a.69.69,0,0,1,.1,1.12C325.45,409.34,325.34,409,325.87,408.55Z" transform="translate(-178.35 -299.5)"/><path class="e05a31d7-dd1e-46d3-8751-8a210190822c" d="M366.61,418.36a6.39,6.39,0,0,1-5.93-6.17,6.16,6.16,0,0,1,6.44-6.52,6.29,6.29,0,0,1,6.15,6.25A6.56,6.56,0,0,1,366.61,418.36Z" transform="translate(-178.35 -299.5)"/><path class="e05a31d7-dd1e-46d3-8751-8a210190822c" d="M334.82,406.92a6.18,6.18,0,0,1,6.57,6.36c0,3.2-2.82,6.25-5.82,6.29a6.54,6.54,0,0,1-6.75-6.34A6.11,6.11,0,0,1,334.82,406.92Z" transform="translate(-178.35 -299.5)"/><path class="c00e19eb-8988-4d5d-8791-7193e03346b7" d="M352.29,425.72c-.42-2.3-.18-3.26,1.64-3.26,2.65,0,4.68,1.41,4.68,3.52s-1.11,3.73-3.41,3.73C351.84,429.7,352.62,426.82,352.29,425.72Z" transform="translate(-178.35 -299.5)"/><path class="fed6d3da-83e3-49fc-a7a5-49c50462b8cc" d="M372.66,388.16c-4.06-.36-8.17-1.06-11.58,2.14-.34.32-.89.58-1.26.13-.5-.62.15-1,.5-1.4,2.71-3,8.32-3.66,13-1.53Z" transform="translate(-178.35 -299.5)"/><path class="fed6d3da-83e3-49fc-a7a5-49c50462b8cc" d="M373.32,387.48c2,1,4.33,1.54,5,4.12.16.63.45,1.42-.36,1.74s-1-.48-1.18-1c-.89-1.89-2.69-2.87-4.1-4.24Z" transform="translate(-178.35 -299.5)"/><path class="fed6d3da-83e3-49fc-a7a5-49c50462b8cc" d="M355,432.18c-3.47-.33-4.74-1.76-4.49-5.11A9.18,9.18,0,0,0,355,432.18Z" transform="translate(-178.35 -299.5)"/><path class="391c3c93-10d2-4280-b87d-b78f5200294f" d="M410.26,503.83c1-7.95,2-15.89,1.63-23.93,0-3.34,0-6.68,0-10,0-.54.18-1.25-.46-1.53s-.91.43-1.27.83c-3.51,4-6.64,4.66-11.43,2.33-6.4-3.1-11.28-8.09-16.08-13.15-1-1.1-1.68-2.5-.33-3.79s2.76-.94,4,.33c1.88,1.9,3.73,3.83,5.68,5.65,2.79,2.6,5.7,5.09,9.29,6.57,2.62,1.08,4.54.19,5.37-2.46a28.19,28.19,0,0,0,.75-3.63c1.07-6.11-.19-12.15-.63-18.21-.18-2.5-1.41-2-2.83-1a56.36,56.36,0,0,1-16.12,7.87c-10.9,3.23-21.88,4.28-33,1.1-2.27-.65-2.87-.23-2.7,2.09.46,6.27,1,12.55,1.08,18.83a311.46,311.46,0,0,1-1.78,33.67c-.22,2.27.32,3,2.34,3.51A118.52,118.52,0,0,0,389,512.23c6.76-.33,13.2-1.78,19.06-5.36A3.85,3.85,0,0,0,410.26,503.83Z" transform="translate(-178.35 -299.5)"/><path class="391c3c93-10d2-4280-b87d-b78f5200294f" d="M370.5,447.87c19.83-1.16,35.84-8.5,44.65-27.62,9.6-20.83,2.81-42.46-17-53.39-8.38-4.63-17.56-5.5-26.93-5.35-21.18.35-36.88,11.16-44.13,30.39a10.51,10.51,0,0,0-.83,4.87l-.27,2a1.52,1.52,0,0,0-.17,2.26l0,7.5c-.53.42-.41.79.1,1.12C329,430.3,345.09,449.35,370.5,447.87Z" transform="translate(-178.35 -299.5)"/><path class="c70106cb-c200-42f7-be71-40004c0fb875" d="M406.9,516.75c-.48-2.88.11-4.35,2.82-5.45,2.34-.94,4.62-2.1,5.11-5.22a174.46,174.46,0,0,0,2.07-31.39c-.3-12.1-2.81-23.87-5.42-35.61a6.18,6.18,0,0,1,1.28-6,48.34,48.34,0,0,0,8.2-14.68c8.8-23.52-1.47-45-20.06-55.32-10.36-5.75-21.65-7-33.27-6.37a2.93,2.93,0,0,1-2.76.5l-1.69.26a1.63,1.63,0,0,1-1.76.25l-6.27,1.44a1,1,0,0,1-1.17.35l-3.59,1.13a1.68,1.68,0,0,1-1.55.72,57,57,0,0,0-17.68,13.38,1.74,1.74,0,0,1-1.07,1.37,64.73,64.73,0,0,0-7.18,13.47,1,1,0,0,1-.4,1.18l-.36,1.67a1,1,0,0,1-.22,1.19l-.37,2.24a1.65,1.65,0,0,1-.24,1.76l-.32,4a12.68,12.68,0,0,1,0,5.26l.35,4a.92.92,0,0,1,.18,1.19l.42,2.24a1,1,0,0,1,.28,1.19l.26,1.11a1,1,0,0,1,.36,1.18l1.14,3.56a1.83,1.83,0,0,1,.63,1.59A71.41,71.41,0,0,0,336.93,441c2.39,1.72,4.76,3.47,7.19,5.13a1.39,1.39,0,0,1,.55,2.14c-3.2,5.54-6.35,11.1-9.65,16.58-.37.61-.93,2-2,1.46-.76-.41-.24-1.53,0-2.35,1.68-5.55,3.36-11.11,5-16.68.91-3.13.35-3.86-3-4.13l-1.35,1.45a13.15,13.15,0,0,1-1.51,4.62l-1.38,4.55a1,1,0,0,1-.34,1.18l-.8,2.83a1,1,0,0,1-.36,1.18l-.3,1.11a1,1,0,0,1-.28,1.18l-.26,1.11a1,1,0,0,1-.32,1.18l-.27,1.11a1,1,0,0,1-.23,1.2l-.31,1.67a1.72,1.72,0,0,1-.35,1.75q0,2,0,4a1.1,1.1,0,0,1,.4,1.17l.81,1.14,3.49.15c6.67-6,10.25-14.29,15.27-21.65.95,1.12.67,2.22.75,3.23,1.32,16.43.55,32.81-1.16,49.17-.53,5.1-.55,5.18,4.28,6.51,1.64.45,2.15,1.12,1.87,2.79-.4,2.35-.58,4.74-.82,7.11-.73,7.35-1.24,14.72-1.6,22.09h4.95q.66-13.55,2.05-27.06c.25-2.43.79-3.36,3.43-2.76a74.35,74.35,0,0,0,10.19,1.53c9.44.79,18.9.93,28.21-1.07,2.21-.47,2.76-.18,3.06,2a204.89,204.89,0,0,0,6,27.39h5.17A242.78,242.78,0,0,1,406.9,516.75ZM326,409.67c-.51-.33-.63-.69-.1-1.12l0-7.5a1.52,1.52,0,0,1,.17-2.26l.27-2a10.51,10.51,0,0,1,.83-4.87c7.25-19.23,22.95-30,44.13-30.39,9.37-.16,18.55.72,26.93,5.35,19.8,10.93,26.59,32.56,17,53.39-8.81,19.12-24.81,26.47-44.65,27.62C345.09,449.35,329,430.3,326,409.67Zm63,102.56a118.52,118.52,0,0,1-35.17-3.28c-2-.51-2.56-1.23-2.34-3.51a311.46,311.46,0,0,0,1.78-33.67c-.06-6.28-.62-12.56-1.08-18.83-.17-2.32.43-2.75,2.7-2.09,11.08,3.18,22.05,2.12,33-1.1a56.36,56.36,0,0,0,16.12-7.87c1.42-1,2.65-1.53,2.83,1,.44,6.06,1.7,12.1.63,18.21a28.19,28.19,0,0,1-.75,3.63c-.83,2.65-2.75,3.55-5.37,2.46-3.58-1.48-6.49-4-9.29-6.57-2-1.82-3.8-3.76-5.68-5.65-1.25-1.27-2.65-1.64-4-.33s-.72,2.69.33,3.79c4.8,5.06,9.68,10,16.08,13.15,4.8,2.33,7.92,1.68,11.43-2.33.35-.4.56-1.14,1.27-.83s.46,1,.46,1.53c0,3.34,0,6.68,0,10,.33,8-.66,16-1.63,23.93a3.85,3.85,0,0,1-2.22,3C402.17,510.44,395.73,511.89,389,512.23Z" transform="translate(-178.35 -299.5)"/><path class="4a9727d3-f87e-4ed5-baf7-2f1096e61a43" d="M286.78,370.07c4.1,8.77,10.11,15.66,19.24,19.45.69.29,1.4.56,2.12.78a1.67,1.67,0,1,0,1.14-3.12,35.86,35.86,0,0,1-6.08-2.94c-8.85-5.5-13.33-14-16.13-23.62-.19-.64-.33-1.3-.53-1.93-.31-1-.72-1.93-2.08-1.59s-1.52,1.44-1.22,2.57A59.27,59.27,0,0,0,286.78,370.07Z" transform="translate(-178.35 -299.5)"/></svg>