<svg id="4c81460c-43a8-4de7-9d52-44bf4ec682f8" data-name="Capa 1" xmlns="http://www.w3.org/2000/svg" viewBox="0 0 52.95 42.49"><title>judge-icon</title><path d="M355.46,693.27a2.28,2.28,0,0,1-1.4-2.49c.06-1.39,0-2.79,0-4.22h36.5c0,.31,0,.62,0,.92,0,1.1,0,2.21,0,3.31a2.25,2.25,0,0,1-1.44,2.47Z" transform="translate(-354.05 -650.77)"/><path d="M378.72,672.38l-10.28-6.94,8-11.84,10.27,6.94-3.12,4.66,3.06,2.07c.61-.55,1.16-1.34,2.18-.53l-3.42,5.09c-.86-.42-.94-.89-.34-2.17l-1.51-1L382,667.57Z" transform="translate(-354.05 -650.77)"/><path d="M387.26,673.16l3.46-5.15,13.78,9.31L401,682.47Z" transform="translate(-354.05 -650.77)"/><path d="M390.52,684.9H354.2a1.69,1.69,0,0,1,1.33-1.19,17.58,17.58,0,0,1,1.85-.11l.05-1H387.2l.06,1c.9.17,1.93-.22,2.69.56A8.85,8.85,0,0,1,390.52,684.9Z" transform="translate(-354.05 -650.77)"/><path d="M387.33,680.9H357.49a1.86,1.86,0,0,1,2-1.63c1.74,0,3.49,0,5.23,0H385a2.11,2.11,0,0,1,1.58.53A7.86,7.86,0,0,1,387.33,680.9Z" transform="translate(-354.05 -650.77)"/><path d="M387.46,659.38l-10.28-6.94c.28-.4.51-.8.81-1.15a1.3,1.3,0,0,1,1.81-.25q4,2.69,8,5.39a1.32,1.32,0,0,1,.4,1.87C388,658.66,387.71,659,387.46,659.38Z" transform="translate(-354.05 -650.77)"/><path d="M367.67,666.6l10.25,6.92a.89.89,0,0,1-.05.13c-.81,1.34-1.39,2-3.21.67-2.29-1.65-4.67-3.18-7-4.77a1.42,1.42,0,0,1-.43-2.28Z" transform="translate(-354.05 -650.77)"/><path d="M403,683.76l3.42-5.09a.83.83,0,0,1,.55,1,3.19,3.19,0,0,1-.39,1c-.51.82-1,1.62-1.61,2.4a3.4,3.4,0,0,1-.91.8A.79.79,0,0,1,403,683.76Z" transform="translate(-354.05 -650.77)"/></svg>