<svg id="9c39b47c-f181-4844-9963-4659591be02d" data-name="Capa 1" xmlns="http://www.w3.org/2000/svg" viewBox="0 0 58 58"><defs><style>.\31 13805eb-9cef-4598-afbd-bae00cfcc76a{fill:#2daadf;}.d7e1da7e-3b27-497f-a089-7e26f469d6cd{fill:#fcfdfe;}</style></defs><title>twitter-icon</title><circle class="113805eb-9cef-4598-afbd-bae00cfcc76a" cx="29" cy="29" r="29"/><path class="d7e1da7e-3b27-497f-a089-7e26f469d6cd" d="M479,731.75c1.18.21,2-.43,3-.46a7.49,7.49,0,0,1-2.17,2.47,2,2,0,0,0-.8,1.7,18.67,18.67,0,0,1-27.6,16.26,5.68,5.68,0,0,1-.57-.36s-.06-.12-.13-.29a13.35,13.35,0,0,0,9.1-2.7c-2.86-.46-4.84-1.76-5.9-4.44l2.25-.11c-.2-.55-.66-.58-1-.75a6.47,6.47,0,0,1-3.57-5c-.1-.68.08-.9.77-.61a2.85,2.85,0,0,0,1.63.32c-2.68-3.8-3.07-5.94-1.56-8.46.38.05.52.4.74.64a18.89,18.89,0,0,0,11.88,6c.66.08.88,0,.82-.79a6.27,6.27,0,0,1,3.35-6.37,6.07,6.07,0,0,1,7.06.48,2.19,2.19,0,0,0,2.44.34l1.77-.72c.18-.07.36-.15.52,0s0,.35,0,.51A6.91,6.91,0,0,1,479,731.75Z" transform="translate(-437 -712)"/></svg>